<svg width="512" height="512" viewBox="0 0 512 512" xmlns="http://www.w3.org/2000/svg">
  <rect width="100%" height="100%" fill="#8ec6f3" />
  
    <g>
      <g>
        <animateTransform attributeName="transform" attributeType="XML"
          type="rotate"
          from="0 352.1804558020165 283.3737085853625"
          to="360 352.1804558020165 283.3737085853625"
          dur="4.12s"
          repeatCount="indefinite"/>
        <path d="M420.33095130308106,272.5797304975866 L399.8858026527617,290.9294932468057 L413.6599059710139,314.6990530673912 L386.3337133333268,317.5269661166728 L383.5058002840453,344.8531587543599 L359.7362404634597,331.0790554361077 L341.3864777142406,351.524204086427 L330.2527146645964,326.4093237036607 L303.39008790014475,332.1640764872343 L309.14484068371837,305.30144972278265 L284.02996030095204,294.16768667313846 L304.47510895127135,275.81792392391935 L290.7010056330191,252.04836410333382 L318.02719827070626,249.2204510540523 L320.85511131998777,221.89425841636515 L344.62467114057335,235.66836173461738 L362.97443388979246,215.223213084298 L374.10819693943665,240.33809346706434 L400.9708237038883,234.58334068349075 L395.2160709203147,261.4459674479424 Z" fill="#F5F5F5" stroke="#222" stroke-width="3"/>
        
      </g>
    </g>
  
    <g>
      <g>
        <animateTransform attributeName="transform" attributeType="XML"
          type="rotate"
          from="0 170.59389470744588 366.9314976855409"
          to="-360 170.59389470744588 366.9314976855409"
          dur="3.97s"
          repeatCount="indefinite"/>
        <path d="M266.36746831615596,354.3226675170839 L237.63539623354293,375.75767880346075 L259.8406575480362,403.89871725200857 L224.2404475779392,408.09594551511054 L229.4002487496883,443.5694303576742 L196.47094840397327,429.4042316739541 L183.20272487590287,462.70507129425096 L161.767713589526,433.9729992116379 L133.62667514097822,456.17826052613117 L129.42944687787622,420.5780505560342 L93.95596203531257,425.73785172778327 L108.12116071903267,392.80855138206823 L74.8203210987358,379.54032785399784 L103.55239318134883,358.105316567621 L81.34713186685556,329.96427811907324 L116.94734183695257,325.7670498559712 L111.78754066520345,290.2935650134076 L144.71684101091853,304.45876369712767 L157.9850645389889,271.1579240768308 L179.4200758253658,299.88999615944385 L207.56111427391357,277.6847348449506 L211.75834253701555,313.28494481504754 L247.23182737957916,308.12514364329843 L233.0666286958591,341.0544439890135 Z" fill="#8EC6F3" stroke="#222" stroke-width="3"/>
        
      </g>
    </g>
  
    <g>
      <g>
        <animateTransform attributeName="transform" attributeType="XML"
          type="rotate"
          from="0 123.81157936132729 133.8270838153835"
          to="360 123.81157936132729 133.8270838153835"
          dur="4.12s"
          repeatCount="indefinite"/>
        <path d="M245.6251111874085,109.59686582098037 L209.08105163958413,150.7882364114657 L227.0801052093034,202.8289067564181 L172.11285542005152,206.1150519089668 L148.04179735573044,255.6406156414647 L106.85042676524512,219.09655609364034 L54.809756420292686,237.0956096633596 L51.523611267744,182.12835987410773 L1.998047535246073,158.05730180978662 L38.542107083070434,116.86593121930134 L20.54305351335117,64.8252608743489 L75.510303302603,61.53911572180026 L99.58136136692411,12.0135519893023 L140.7727319574095,48.55761153712665 L192.81340230236185,30.558557967407353 L196.09954745491058,85.52580775665929 Z" fill="#FFD700" stroke="#222" stroke-width="3"/>
        
      </g>
    </g>
  
    <g>
      <g>
        <animateTransform attributeName="transform" attributeType="XML"
          type="rotate"
          from="0 257.62463999716516 36.005998843423896"
          to="-360 257.62463999716516 36.005998843423896"
          dur="5.1s"
          repeatCount="indefinite"/>
        <path d="M408.1259699537096,16.192122864420067 L362.97557096674626,49.875712028726575 L397.86955303237846,94.09734387644453 L341.92636593651184,100.69298828989055 L350.034624920689,156.4370358996334 L298.2885815202796,134.17743796807324 L277.438515976169,186.50732879996832 L243.7549268118625,141.35692981300502 L199.53329496414455,176.25091187863723 L192.9376505506985,120.30772478277055 L137.19360294095566,128.41598376694765 L159.45320087251582,76.66994036653836 L107.12331004062074,55.81987482242772 L152.27370902758406,22.136285658121242 L117.3797269619518,-22.085346189596656 L173.3229140578185,-28.68099060304276 L165.21465507364132,-84.42503821278558 L216.96069847405076,-62.16544028122544 L237.8107640181613,-114.49533111312053 L271.4943531824679,-69.3449321261572 L315.71598503018583,-104.23891419178943 L322.31162944363183,-48.29572709592276 L378.05567705337467,-56.40398608009994 L355.7960791218145,-4.657942679690521 Z" fill="#F5F5F5" stroke="#222" stroke-width="3"/>
        <line x1="342.63263999716514" y1="36.005998843423896" x2="278.87663999716517" y2="36.005998843423896" stroke="#333" stroke-width="2"/><line x1="331.24372752207273" y1="78.50999884342389" x2="276.02941187839207" y2="46.631998843423894" stroke="#333" stroke-width="2"/><line x1="300.1286399971652" y1="109.62508636833147" x2="268.25063999716514" y2="54.41077072465079" stroke="#333" stroke-width="2"/><line x1="257.62463999716516" y1="121.0139988434239" x2="257.62463999716516" y2="57.2579988434239" stroke="#333" stroke-width="2"/><line x1="215.12063999716517" y1="109.62508636833147" x2="246.99863999716516" y2="54.41077072465079" stroke="#333" stroke-width="2"/><line x1="184.0055524722576" y1="78.50999884342389" x2="239.21986811593825" y2="46.631998843423894" stroke="#333" stroke-width="2"/><line x1="172.61663999716515" y1="36.0059988434239" x2="236.37263999716515" y2="36.005998843423896" stroke="#333" stroke-width="2"/><line x1="184.0055524722576" y1="-6.498001156576116" x2="239.21986811593825" y2="25.37999884342389" stroke="#333" stroke-width="2"/><line x1="215.1206399971651" y1="-37.61308868148366" x2="246.99863999716516" y2="17.601226962197007" stroke="#333" stroke-width="2"/><line x1="257.62463999716516" y1="-49.002001156576114" x2="257.62463999716516" y2="14.753998843423894" stroke="#333" stroke-width="2"/><line x1="300.1286399971652" y1="-37.613088681483674" x2="268.25063999716514" y2="17.601226962197003" stroke="#333" stroke-width="2"/><line x1="331.24372752207273" y1="-6.498001156576144" x2="276.02941187839207" y2="25.379998843423884" stroke="#333" stroke-width="2"/><circle cx="257.62463999716516" cy="36.005998843423896" r="30.360000000000003" fill="#222"/>
      </g>
    </g>
  
  <text x="50%" y="95%" text-anchor="middle" font-size="32" fill="#fff" opacity="0.7" font-family="Arial">Gears Collection #71</text>
</svg>