<svg width="512" height="512" viewBox="0 0 512 512" xmlns="http://www.w3.org/2000/svg">
  <rect width="100%" height="100%" fill="#1e293b" />
  
    <g>
      <g>
        <animateTransform attributeName="transform" attributeType="XML"
          type="rotate"
          from="0 349.97341816422124 290.1905934217646"
          to="360 349.97341816422124 290.1905934217646"
          dur="4.9s"
          repeatCount="indefinite"/>
        <path d="M410.45155470802365,282.2284956963415 L392.3081137448829,295.76406182956083 L406.33006964740974,313.5342827960351 L383.849605794657,316.18470644043697 L387.1078653337532,338.58514717952994 L366.31400072621057,329.64024945999654 L357.9355158896444,350.6687299655671 L344.39994975642503,332.52528900242635 L326.6297287899508,346.5472449049531 L323.9793051455489,324.0667810522003 L301.57886440645586,327.32504059129656 L310.5237621259893,306.53117598375394 L289.49528162041884,298.15269114718774 L307.63872258355957,284.6171250139684 L293.61676668103274,266.84690404749415 L316.0972305337855,264.19648040309227 L312.83897099468925,241.7960396639993 L333.6328356022319,250.74093738353267 L342.01132043879807,229.71245687796218 L355.54688657201746,247.85589784110292 L373.3171075384917,233.83394193857612 L375.9675311828936,256.3144057913289 L398.36797192198657,253.05614625223265 L389.42307420245317,273.8500108597753 Z" fill="#9DE09D" stroke="#222" stroke-width="3"/>
        
      </g>
    </g>
  
    <g>
      <g>
        <animateTransform attributeName="transform" attributeType="XML"
          type="rotate"
          from="0 230.5223440850646 393.66222811316163"
          to="-360 230.5223440850646 393.66222811316163"
          dur="4.38s"
          repeatCount="indefinite"/>
        <path d="M315.51111974287016,385.29156432901715 L290.01448704552854,399.52169276206274 L312.2450487565952,418.45253955069273 L283.24359726780926,421.84232504061976 L296.5374368022423,447.83941458073696 L268.4463746123673,439.87279301518606 L270.77962541000477,468.97830408851115 L247.87556209133635,450.8681213832331 L238.89300786920907,478.65100377096724 L224.66287943616348,453.15437107362555 L205.73203264753352,475.38493278469224 L202.34224715760647,446.3834812959063 L176.3451576174893,459.67732083033934 L184.3117791830402,431.58625864046434 L155.2062681097151,433.91950943810184 L173.31645081499317,411.01544611943336 L145.53356842725898,402.0328918973061 L171.03020112460067,387.8027634642605 L148.79963941353395,368.8719166756306 L177.80109090231994,365.4821311857035 L164.50725136788685,339.4850416455863 L192.59831355776188,347.4516632111372 L190.26506276012438,318.3461521378121 L213.16912607879283,336.4563348430902 L222.15168030092013,308.673452455356 L236.3818087339657,334.1700851526977 L255.31265552259563,311.93952344163097 L258.70244101252274,340.940974930417 L284.69953055263994,327.6471353959839 L276.732908987089,355.73819758585887 L305.8384200604141,353.4049467882214 L287.728237355136,376.30901010688984 Z" fill="#8EC6F3" stroke="#222" stroke-width="3"/>
        <line x1="278.3463440850646" y1="393.66222811316163" x2="242.47834408506458" y2="393.66222811316163" stroke="#333" stroke-width="2"/><line x1="274.70595884788435" y1="411.9636805825897" x2="241.56824777576952" y2="398.23759123051866" stroke="#333" stroke-width="2"/><line x1="264.33901878853004" y1="427.47890281662706" x2="238.97651276093094" y2="402.116396789028" stroke="#333" stroke-width="2"/><line x1="248.82379655449265" y1="437.8458428759814" x2="235.0977072024216" y2="404.7081318038666" stroke="#333" stroke-width="2"/><line x1="230.5223440850646" y1="441.48622811316164" x2="230.5223440850646" y2="405.61822811316165" stroke="#333" stroke-width="2"/><line x1="212.22089161563653" y1="437.8458428759814" x2="225.9469809677076" y2="404.7081318038666" stroke="#333" stroke-width="2"/><line x1="196.70566938159914" y1="427.47890281662706" x2="222.06817540919823" y2="402.116396789028" stroke="#333" stroke-width="2"/><line x1="186.33872932224483" y1="411.9636805825897" x2="219.47644039435966" y2="398.23759123051866" stroke="#333" stroke-width="2"/><line x1="182.6983440850646" y1="393.66222811316163" x2="218.5663440850646" y2="393.66222811316163" stroke="#333" stroke-width="2"/><line x1="186.3387293222448" y1="375.36077564373363" x2="219.47644039435966" y2="389.0868649958046" stroke="#333" stroke-width="2"/><line x1="196.70566938159914" y1="359.8455534096962" x2="222.06817540919823" y2="385.2080594372953" stroke="#333" stroke-width="2"/><line x1="212.22089161563656" y1="349.47861335034185" x2="225.9469809677076" y2="382.61632442245667" stroke="#333" stroke-width="2"/><line x1="230.5223440850646" y1="345.8382281131616" x2="230.5223440850646" y2="381.7062281131616" stroke="#333" stroke-width="2"/><line x1="248.82379655449265" y1="349.47861335034185" x2="235.09770720242162" y2="382.61632442245667" stroke="#333" stroke-width="2"/><line x1="264.33901878853004" y1="359.8455534096962" x2="238.97651276093094" y2="385.2080594372953" stroke="#333" stroke-width="2"/><line x1="274.70595884788435" y1="375.3607756437336" x2="241.56824777576952" y2="389.0868649958046" stroke="#333" stroke-width="2"/><circle cx="230.5223440850646" cy="393.66222811316163" r="17.08" fill="#222"/>
      </g>
    </g>
  
    <g>
      <g>
        <animateTransform attributeName="transform" attributeType="XML"
          type="rotate"
          from="0 76.37260263071863 244.42424454567717"
          to="360 76.37260263071863 244.42424454567717"
          dur="5.03s"
          repeatCount="indefinite"/>
        <path d="M184.06282641899332,223.0033271883063 L151.75575928251092,259.41888669583676 L167.6679660615381,305.42585613122947 L119.07373074060527,308.3309989472508 L97.79351998808951,352.1144683339519 L61.37796048055904,319.80740119746946 L15.3709910451663,335.7196079764966 L12.465848229144996,287.1253726555638 L-31.31762115755606,265.84516190304805 L0.9894459789263266,229.42960239551758 L-14.922760800100832,183.42263296012484 L33.67147452083195,180.5174901441036 L54.95168527334771,136.73402075740248 L91.36724478087825,169.04108789388488 L137.3742142162709,153.12888111485768 L140.27935703229227,201.72311643579053 Z" fill="#8EC6F3" stroke="#222" stroke-width="3"/>
        
      </g>
    </g>
  
    <g>
      <g>
        <animateTransform attributeName="transform" attributeType="XML"
          type="rotate"
          from="0 210.80070198143858 40.69318761676567"
          to="-360 210.80070198143858 40.69318761676567"
          dur="5.41s"
          repeatCount="indefinite"/>
        <path d="M343.8526023778039,23.176572620834747 L303.9370322588943,52.95481811391731 L334.7853352444533,92.04930424016072 L285.3283147683972,97.8802362578449 L292.4964857544089,147.16120588384945 L246.74998361781513,127.48243090087595 L228.31731697736953,173.74508801313104 L198.53907148428695,133.82951789422145 L159.44458535804353,164.67782087978037 L153.61365334035935,115.22080040372431 L104.33268371435479,122.38897138973596 L124.0114586973283,76.64246925314222 L77.74880158507321,58.20980261269659 L117.66437170398281,28.431557119614048 L86.81606871842385,-10.662929006629312 L136.27308919447995,-16.493861024313553 L129.10491820846823,-65.77483065031808 L174.85142034506208,-46.09605566734463 L193.28408698550766,-92.3587127795997 L223.06233247859026,-52.443142660690086 L262.1568186048337,-83.29144564624902 L267.9877506225178,-33.83442517019297 L317.2687202485223,-41.00259615620469 L297.58994526554886,4.743905980389151 Z" fill="#B87333" stroke="#222" stroke-width="3"/>
        
      </g>
    </g>
  
    <g>
      <g>
        <animateTransform attributeName="transform" attributeType="XML"
          type="rotate"
          from="0 471.00396619606164 109.80391756287455"
          to="360 471.00396619606164 109.80391756287455"
          dur="3.74s"
          repeatCount="indefinite"/>
        <path d="M628.247121209948,89.10246347677437 L581.0741747057821,124.29493542314466 L617.5312600523517,170.49750993597777 L559.0820540351946,177.38861141142272 L567.5535288368447,235.62975733306445 L513.489480857234,212.3730232622776 L491.70542028216187,267.04707257676085 L456.5129483357915,219.87412607259498 L410.3103738229584,256.3312114191646 L403.41927234751347,197.88200540200745 L345.1781264258717,206.3534802036576 L368.4348604966586,152.28943222404683 L313.7608111821753,130.50537164897472 L360.9337576863412,95.31289970260445 L324.47667233977154,49.110325189771395 L382.9258783569287,42.219223714326375 L374.45440355527853,-16.021922207315313 L428.51845153488944,7.234811863471478 L450.30251210996147,-47.43923745101176 L485.4949840563318,-0.26629094684588495 L531.6975585691649,-36.7233762934155 L538.5886600446098,21.725829723741626 L596.8298059662515,13.254354922091423 L573.5730718954648,67.31840290170231 Z" fill="#C0C0C0" stroke="#222" stroke-width="3"/>
        
      </g>
    </g>
  
  <text x="50%" y="95%" text-anchor="middle" font-size="32" fill="#fff" opacity="0.7" font-family="Arial">Gears Collection #73</text>
</svg>