<svg width="512" height="512" viewBox="0 0 512 512" xmlns="http://www.w3.org/2000/svg">
  <rect width="100%" height="100%" fill="#f5e663" />
  
    <g>
      <g>
        <animateTransform attributeName="transform" attributeType="XML"
          type="rotate"
          from="0 327.7249808410321 325.68161251975715"
          to="360 327.7249808410321 325.68161251975715"
          dur="4.88s"
          repeatCount="indefinite"/>
        <path d="M395.1432314144512,316.80583144879364 L374.91775624242547,331.8946592694316 L390.5487890517996,351.7040859205833 L365.4885998388949,354.6586565405722 L369.1207580136251,379.6296396595611 L345.9407122216104,369.6582782672944 L336.6007619119956,393.0998630931763 L321.51193409135766,372.8743879211505 L301.702507440206,388.50542073052463 L298.747936820217,363.44523151761996 L273.7769537012281,367.07738969235015 L283.74831509349485,343.89734390033544 L260.30673026761303,334.55739359072066 L280.53220543963874,319.4685657700827 L264.90117263026457,299.6591391189311 L289.9613618431693,296.7045684989421 L286.3292036684391,271.7335853799532 L309.5092494604539,281.7049467722199 L318.8491997700686,258.263361946338 L333.9380275907066,278.4888371183638 L353.74745424185824,262.85780430898967 L356.7020248618472,287.91799352189435 L381.6730079808361,284.28583534716415 L371.70164658856936,307.4658811391789 Z" fill="#C0C0C0" stroke="#222" stroke-width="3"/>
        
      </g>
    </g>
  
    <g>
      <g>
        <animateTransform attributeName="transform" attributeType="XML"
          type="rotate"
          from="0 246.8536788953041 395.7009119878958"
          to="-360 246.8536788953041 395.7009119878958"
          dur="5.46s"
          repeatCount="indefinite"/>
        <path d="M340.8816089199612,380.8083509160658 L312.67322991256407,406.12570473817675 L331.67749999803675,438.92080756310065 L293.97527479357564,442.8225078861673 L290.07357447050896,480.5247330906284 L257.2784716455851,461.52046300515576 L231.96111782347413,489.7288420125529 L216.5997519926607,455.0775867598086 L179.5371133263448,463.0174775568551 L187.47700412339128,425.9548388905392 L152.82574887064703,410.59347305972574 L181.03412787804416,385.2761192376148 L162.02985779257148,352.48101641269096 L199.7320829970326,348.5793160896243 L203.63378332009927,310.87709088516317 L236.4288861450231,329.8813609706358 L261.74623996713404,301.67298196323867 L277.1076057979475,336.324237215983 L314.1702444642634,328.38434641893645 L306.23035366721695,365.4469850852524 Z" fill="#FFD700" stroke="#222" stroke-width="3"/>
        
      </g>
    </g>
  
    <g>
      <g>
        <animateTransform attributeName="transform" attributeType="XML"
          type="rotate"
          from="0 78.66154964522704 225.16051190814403"
          to="360 78.66154964522704 225.16051190814403"
          dur="5.47s"
          repeatCount="indefinite"/>
        <path d="M200.68423129416192,215.5571185910558 L164.07742679948143,231.88288723010578 L197.67962790190268,253.73422444410684 L157.8195479907941,257.9488283931849 L183.02470576216794,289.11433622937614 L143.81313277783767,280.8052206890742 L158.1539907608415,318.23420209758785 L123.42922667008955,298.21472119000265 L125.50200176671405,338.2433666875255 L98.66314842040101,308.47316668781696 L88.26494296231527,347.1831935570789 L71.93917432326529,310.57638906239845 L50.08783710926425,344.17859016481964 L45.87323316018615,304.31851025371105 L14.707725323994907,329.52366802508493 L23.016840864296917,290.3120950407547 L-14.41214054421674,304.6529530237585 L5.607340363368422,269.92818893300654 L-34.421305134154466,272.00096402963106 L-4.651105134445885,245.16211068331802 L-43.36113200370782,234.76390522523226 L-6.7543275090273625,218.43813658618228 L-40.35652861144858,196.58679937218116 L-0.4964487003400251,192.3721954231032 L-25.70160647171386,161.20668758691193 L13.509966512616387,169.5158031272139 L-0.830891470387499,132.08682171870026 L33.89387262036457,152.1063026262854 L31.821097523740086,112.07765712876251 L58.659950870053095,141.8478571284711 L69.05815632813875,103.13783025920917 L85.38392496718875,139.7446347538896 L107.23526218118978,106.1424336514684 L111.44986613026795,146.002513562577 L142.6153739664592,120.79735579120316 L134.3062584261572,160.00892877553338 L171.73523983467078,145.66807079252948 L151.71575892708566,180.39283488328155 L191.74440442460855,178.32005978665705 L161.97420442489994,205.15891313296999 Z" fill="#8EC6F3" stroke="#222" stroke-width="3"/>
        <line x1="147.20554964522705" y1="225.16051190814403" x2="95.79754964522704" y2="225.16051190814403" stroke="#333" stroke-width="2"/><line x1="143.85076749816204" y1="246.34177277058043" x2="94.9588541084608" y2="230.45582712375312" stroke="#333" stroke-width="2"/><line x1="134.11481050766344" y1="265.4496642412793" x2="92.52486486083615" y2="235.23279999142784" stroke="#333" stroke-width="2"/><line x1="118.95070197836232" y1="280.61377277058045" x2="88.73383772851086" y2="239.02382712375314" stroke="#333" stroke-width="2"/><line x1="99.84281050766344" y1="290.34972976107906" x2="83.95686486083613" y2="241.4578163713778" stroke="#333" stroke-width="2"/><line x1="78.66154964522704" y1="293.704511908144" x2="78.66154964522704" y2="242.29651190814403" stroke="#333" stroke-width="2"/><line x1="57.48028878279065" y1="290.34972976107906" x2="73.36623442961795" y2="241.4578163713778" stroke="#333" stroke-width="2"/><line x1="38.37239731209177" y1="280.61377277058045" x2="68.58926156194322" y2="239.02382712375314" stroke="#333" stroke-width="2"/><line x1="23.208288782790653" y1="265.4496642412793" x2="64.79823442961795" y2="235.23279999142784" stroke="#333" stroke-width="2"/><line x1="13.472331792292039" y1="246.34177277058043" x2="62.36424518199329" y2="230.45582712375312" stroke="#333" stroke-width="2"/><line x1="10.117549645227044" y1="225.16051190814403" x2="61.525549645227045" y2="225.16051190814403" stroke="#333" stroke-width="2"/><line x1="13.472331792292039" y1="203.9792510457076" x2="62.36424518199329" y2="219.86519669253494" stroke="#333" stroke-width="2"/><line x1="23.208288782790646" y1="184.87135957500877" x2="64.79823442961793" y2="215.08822382486022" stroke="#333" stroke-width="2"/><line x1="38.372397312091756" y1="169.70725104570764" x2="68.58926156194322" y2="211.29719669253492" stroke="#333" stroke-width="2"/><line x1="57.48028878279064" y1="159.97129405520903" x2="73.36623442961795" y2="208.86320744491027" stroke="#333" stroke-width="2"/><line x1="78.66154964522703" y1="156.61651190814405" x2="78.66154964522704" y2="208.02451190814404" stroke="#333" stroke-width="2"/><line x1="99.84281050766342" y1="159.97129405520903" x2="83.95686486083613" y2="208.86320744491027" stroke="#333" stroke-width="2"/><line x1="118.9507019783623" y1="169.70725104570764" x2="88.73383772851085" y2="211.29719669253492" stroke="#333" stroke-width="2"/><line x1="134.11481050766344" y1="184.87135957500874" x2="92.52486486083613" y2="215.08822382486022" stroke="#333" stroke-width="2"/><line x1="143.85076749816204" y1="203.97925104570763" x2="94.9588541084608" y2="219.86519669253494" stroke="#333" stroke-width="2"/><circle cx="78.66154964522704" cy="225.16051190814403" r="24.480000000000004" fill="#222"/>
      </g>
    </g>
  
    <g>
      <g>
        <animateTransform attributeName="transform" attributeType="XML"
          type="rotate"
          from="0 387.7091023100013 79.78220189579713"
          to="-360 387.7091023100013 79.78220189579713"
          dur="4.87s"
          repeatCount="indefinite"/>
        <path d="M536.588737420162,65.11883770249486 L491.92484688711374,90.04655683110872 L530.8673765355397,123.20878961306471 L480.06389711256105,129.1468681762156 L503.35146613306676,174.6874372066785 L454.1427670276183,160.73185657194296 L458.23005413917053,211.71762304231106 L418.1077137120886,179.99299385367408 L402.37246650330354,228.6618370059578 L377.4447473746897,183.9979464729096 L344.2825145927337,222.9404761213356 L338.3444360295829,172.1369966983569 L292.8038669991199,195.42456571886262 L306.7594476338555,146.2158666134141 L255.77368116348737,150.30315372496642 L287.49831035212435,110.18081329788444 L238.82946719984062,94.44556608909943 L283.49335773288885,69.51784696048554 L244.5508280844628,36.35561417852959 L295.35430750744155,30.417535615378654 L272.06673848693583,-15.123033415084222 L321.2754375923844,-1.1674527803487251 L317.188150480832,-52.1532192507168 L357.31049090791396,-20.428590062079792 L373.04573811669906,-69.09743321436355 L397.97345724531283,-24.433542681315345 L431.1356900272688,-63.37607232974136 L437.0737685904198,-12.572592906762623 L482.6143376208827,-35.86016192726832 L468.65875698614707,13.348537178180123 L519.6445234565152,9.261250066627824 L487.9198942678782,49.383590493709725 Z" fill="#F5F5F5" stroke="#222" stroke-width="3"/>
        
      </g>
    </g>
  
  <text x="50%" y="95%" text-anchor="middle" font-size="32" fill="#fff" opacity="0.7" font-family="Arial">Gears Collection #61</text>
</svg>