<svg width="512" height="512" viewBox="0 0 512 512" xmlns="http://www.w3.org/2000/svg">
  <rect width="100%" height="100%" fill="#8ec6f3" />
  
    <g>
      <g>
        <animateTransform attributeName="transform" attributeType="XML"
          type="rotate"
          from="0 339.4401771910347 311.1156677391169"
          to="360 339.4401771910347 311.1156677391169"
          dur="4.99s"
          repeatCount="indefinite"/>
        <path d="M404.1271844247275,304.74455361769543 L384.72108225461966,315.57544762411186 L401.64129901362827,329.9841717606569 L379.56759471888483,332.5642192646998 L389.6858566596126,352.35123120975385 L368.3050716204806,346.2876433671214 L370.08096508472454,368.44054992175995 L352.64813000611275,354.65645301493237 L345.81129131245615,375.80267497280965 L334.9803973060397,356.3965728027018 L320.57167316949466,373.31678956171044 L317.9916256654518,351.24308526696706 L298.2046137203978,361.3613472076948 L304.2682015630302,339.98056216856276 L282.1152950083916,341.7564556328067 L295.8993919152192,324.3236205541949 L274.7531699573419,317.4867818605383 L294.15927212744975,306.6558878541219 L277.23905536844114,292.2471637175768 L299.3127596631846,289.667116213534 L289.1944977224568,269.88010426847995 L310.5752827615888,275.94369211111234 L308.7993892973448,253.7907855564738 L326.23222437595666,267.5748824633014 L333.06906306961326,246.4286605054241 L343.8999570760297,265.8347626755319 L358.30868121257475,248.9145459165233 L360.8887287166176,270.98825021126675 L380.6757406616717,260.86998827053895 L374.61215281903924,282.250773309671 L396.7650593736778,280.474879845427 L382.9809624668502,297.90771492403877 Z" fill="#C0C0C0" stroke="#222" stroke-width="3"/>
        <line x1="375.8401771910347" y1="311.1156677391169" x2="348.54017719103473" y2="311.1156677391169" stroke="#333" stroke-width="2"/><line x1="373.0693921744455" y1="325.0453446772061" x2="347.8474809368874" y2="314.59808697363917" stroke="#333" stroke-width="2"/><line x1="365.178864026225" y1="336.8543545743072" x2="345.8748488998323" y2="317.55033944791444" stroke="#333" stroke-width="2"/><line x1="353.36985412912395" y1="344.7448827225277" x2="342.922596425557" y2="319.52297148496956" stroke="#333" stroke-width="2"/><line x1="339.4401771910347" y1="347.51566773911685" x2="339.4401771910347" y2="320.2156677391169" stroke="#333" stroke-width="2"/><line x1="325.51050025294546" y1="344.7448827225277" x2="335.9577579565124" y2="319.52297148496956" stroke="#333" stroke-width="2"/><line x1="313.7014903558444" y1="336.8543545743072" x2="333.00550548223714" y2="317.55033944791444" stroke="#333" stroke-width="2"/><line x1="305.8109622076239" y1="325.0453446772061" x2="331.032873445182" y2="314.59808697363917" stroke="#333" stroke-width="2"/><line x1="303.04017719103473" y1="311.1156677391169" x2="330.3401771910347" y2="311.1156677391169" stroke="#333" stroke-width="2"/><line x1="305.81096220762385" y1="297.18599080102763" x2="331.032873445182" y2="307.6332485045946" stroke="#333" stroke-width="2"/><line x1="313.7014903558444" y1="285.37698090392655" x2="333.00550548223714" y2="304.6809960303193" stroke="#333" stroke-width="2"/><line x1="325.51050025294546" y1="277.486452755706" x2="335.9577579565124" y2="302.7083639932642" stroke="#333" stroke-width="2"/><line x1="339.4401771910347" y1="274.7156677391169" x2="339.4401771910347" y2="302.01566773911685" stroke="#333" stroke-width="2"/><line x1="353.369854129124" y1="277.48645275570607" x2="342.922596425557" y2="302.7083639932642" stroke="#333" stroke-width="2"/><line x1="365.178864026225" y1="285.37698090392655" x2="345.8748488998323" y2="304.6809960303193" stroke="#333" stroke-width="2"/><line x1="373.06939217444557" y1="297.18599080102763" x2="347.8474809368874" y2="307.6332485045946" stroke="#333" stroke-width="2"/><circle cx="339.4401771910347" cy="311.1156677391169" r="13" fill="#222"/>
      </g>
    </g>
  
    <g>
      <g>
        <animateTransform attributeName="transform" attributeType="XML"
          type="rotate"
          from="0 135.6219470881388 327.4781391556128"
          to="-360 135.6219470881388 327.4781391556128"
          dur="5.3s"
          repeatCount="indefinite"/>
        <path d="M225.84342947315554,315.6002556635881 L198.7769847576505,335.79265760003005 L219.6949845466659,362.302331500836 L186.15855486469047,366.25624218346826 L191.01923712793237,399.6732931221152 L159.99888172979502,386.32926537658176 L147.4998305801635,417.69962154062955 L127.30742864372152,390.6331768251245 L100.79775474291563,411.5511766141399 L96.84384406028329,378.0147469321645 L63.42679312163638,382.87542919540635 L76.77082086716983,351.85507379726903 L45.400464703122054,339.3560226476375 L72.46690941862707,319.1636207111955 L51.548909629611686,292.65394681038964 L85.08533931158712,288.7000361277573 L80.2246570483452,255.2829851891104 L111.2450124464826,268.6270129346438 L123.7440635961141,237.25665677059604 L143.93646553255613,264.32310148610105 L170.446139433362,243.40510169708568 L174.4000501159943,276.9415313790611 L207.81710105464117,272.0808491158192 L194.47307330910778,303.1012045139566 Z" fill="#C9AE5D" stroke="#222" stroke-width="3"/>
        
      </g>
    </g>
  
    <g>
      <g>
        <animateTransform attributeName="transform" attributeType="XML"
          type="rotate"
          from="0 144.03859473352063 115.05801288914944"
          to="360 144.03859473352063 115.05801288914944"
          dur="4.83s"
          repeatCount="indefinite"/>
        <path d="M260.6779227802966,105.87829868899158 L225.6861243662638,121.48381282925993 L257.8058754200488,142.37112046029037 L219.704328446195,146.39978599985028 L243.79749396294943,176.19034496091544 L206.31584331616315,168.24780804739146 L220.02401638815212,204.02551086435307 L186.83122718375682,184.88924234974957 L188.81255632023613,223.15191819297 L163.15777003331928,194.69510936971915 L153.2183089336785,231.6973409359254 L137.61279479341013,196.7055425218926 L116.72548716237972,228.82529357567762 L112.69682162281978,190.72374660182382 L82.90626266175462,214.81691211857822 L90.8487995752786,177.33526147179197 L55.071096758317026,191.04343454378093 L74.20736527292048,157.85064533938566 L35.94468942970008,159.83197447586497 L64.40149825295093,134.1771881889481 L27.399266686744653,124.23772708930731 L62.39106510077745,108.63221294903894 L30.271314046992472,87.74490531800846 L68.37286102084623,83.71623977844864 L44.27969550409183,53.925680817383444 L81.7613461508781,61.86821773090741 L68.05317307888909,26.090514913945853 L101.24596228328444,45.22678342854928 L99.26463314680515,6.964107585328875 L124.919419433722,35.42091640857973 L134.8588805333627,-1.581315157626534 L150.46439467363106,33.41048325640625 L171.35170230466147,1.2907322026212569 L175.3803678442215,39.39227917647507 L205.17092680528665,15.29911365972066 L197.22838989176267,52.78076430650692 L233.0060927087242,39.0725912345179 L213.86982419412078,72.26538043891324 L252.13250003734117,70.28405130243397 L223.6756912140903,95.93883758935073 Z" fill="#F5F5F5" stroke="#222" stroke-width="3"/>
        <line x1="209.55859473352064" y1="115.05801288914944" x2="160.41859473352062" y2="115.05801288914944" stroke="#333" stroke-width="2"/><line x1="206.35181768117909" y1="135.304806360596" x2="159.61690047043524" y2="120.11971125701108" stroke="#333" stroke-width="2"/><line x1="197.0453882049672" y1="153.56970261935228" x2="157.29029310138228" y2="124.68593532170014" stroke="#333" stroke-width="2"/><line x1="182.55028446372347" y1="168.06480636059598" x2="153.66651716607134" y2="128.3097112570111" stroke="#333" stroke-width="2"/><line x1="164.28538820496718" y1="177.3712358368079" x2="149.10029310138228" y2="130.63631862606405" stroke="#333" stroke-width="2"/><line x1="144.03859473352063" y1="180.57801288914942" x2="144.03859473352063" y2="131.43801288914943" stroke="#333" stroke-width="2"/><line x1="123.79180126207407" y1="177.3712358368079" x2="138.976896365659" y2="130.63631862606405" stroke="#333" stroke-width="2"/><line x1="105.5269050033178" y1="168.06480636059598" x2="134.4106723009699" y2="128.3097112570111" stroke="#333" stroke-width="2"/><line x1="91.03180126207408" y1="153.56970261935228" x2="130.78689636565898" y2="124.68593532170016" stroke="#333" stroke-width="2"/><line x1="81.72537178586217" y1="135.304806360596" x2="128.460288996606" y2="120.11971125701108" stroke="#333" stroke-width="2"/><line x1="78.51859473352063" y1="115.05801288914945" x2="127.65859473352063" y2="115.05801288914944" stroke="#333" stroke-width="2"/><line x1="81.72537178586217" y1="94.81121941770286" x2="128.460288996606" y2="109.9963145212878" stroke="#333" stroke-width="2"/><line x1="91.03180126207407" y1="76.5463231589466" x2="130.78689636565898" y2="105.43009045659873" stroke="#333" stroke-width="2"/><line x1="105.52690500331778" y1="62.05121941770289" x2="134.4106723009699" y2="101.8063145212878" stroke="#333" stroke-width="2"/><line x1="123.79180126207406" y1="52.744789941490986" x2="138.97689636565897" y2="99.47970715223482" stroke="#333" stroke-width="2"/><line x1="144.03859473352063" y1="49.53801288914944" x2="144.03859473352063" y2="98.67801288914944" stroke="#333" stroke-width="2"/><line x1="164.28538820496718" y1="52.74478994149098" x2="149.10029310138225" y2="99.47970715223482" stroke="#333" stroke-width="2"/><line x1="182.55028446372344" y1="62.051219417702875" x2="153.66651716607134" y2="101.8063145212878" stroke="#333" stroke-width="2"/><line x1="197.04538820496717" y1="76.54632315894659" x2="157.29029310138228" y2="105.43009045659872" stroke="#333" stroke-width="2"/><line x1="206.35181768117909" y1="94.81121941770287" x2="159.61690047043524" y2="109.9963145212878" stroke="#333" stroke-width="2"/><circle cx="144.03859473352063" cy="115.05801288914944" r="23.400000000000002" fill="#222"/>
      </g>
    </g>
  
    <g>
      <g>
        <animateTransform attributeName="transform" attributeType="XML"
          type="rotate"
          from="0 409.4633254378126 98.36431956702182"
          to="-360 409.4633254378126 98.36431956702182"
          dur="4.69s"
          repeatCount="indefinite"/>
        <path d="M551.2399406142675,79.69907407955445 L508.706956061331,111.42999140824898 L541.5780985869267,153.08805039522966 L488.87799480096527,159.30133861079474 L496.5162097860597,211.81384722866846 L447.7699370175581,190.8446607714016 L428.12857092528003,240.14093474347672 L396.3976535965855,197.60795019054024 L354.7395946096048,230.47909271613582 L348.5263063940397,177.77898893017448 L296.013797776166,185.41720391526883 L316.98298423343283,136.67093114676732 L267.6867102613577,117.0295650544892 L310.2196948142942,85.2986477257947 L277.34855228869856,43.64058873881407 L330.04865607465996,37.42730052324889 L322.41044108956555,-15.085208094624775 L371.1567138580672,5.8839783626420115 L390.79807995034525,-43.41229560943307 L422.52899727903986,-0.87931105649659 L464.1870562660205,-33.75045358209218 L470.40034448158553,18.949650203869183 L522.9128530994592,11.311435218774733 L501.9436666421924,60.05770798727636 Z" fill="#F5F5F5" stroke="#222" stroke-width="3"/>
        
      </g>
    </g>
  
  <text x="50%" y="95%" text-anchor="middle" font-size="32" fill="#fff" opacity="0.7" font-family="Arial">Gears Collection #87</text>
</svg>