<svg width="512" height="512" viewBox="0 0 512 512" xmlns="http://www.w3.org/2000/svg">
  <rect width="100%" height="100%" fill="#8ec6f3" />
  
    <g>
      <g>
        <animateTransform attributeName="transform" attributeType="XML"
          type="rotate"
          from="0 324.96039844516406 328.418667802468"
          to="360 324.96039844516406 328.418667802468"
          dur="5.07s"
          repeatCount="indefinite"/>
        <path d="M392.37864901858313,319.5428867315045 L372.1531738465574,334.63171455214245 L387.78420665593154,354.44114120329414 L362.72401744302687,357.39571182328314 L366.35617561775706,382.366694942272 L343.17612982574235,372.39533355000526 L333.8361795161276,395.8369183758871 L318.7473516954896,375.61144320386137 L298.93792504433793,391.2424760132355 L295.98335442434893,366.1822868003308 L271.01237130536003,369.814444975061 L280.9837326976268,346.6343991830463 L257.542147871745,337.2944488734315 L277.7676230437707,322.20562105279356 L262.1365902343965,302.39619440164194 L287.19677944730125,299.4416237816529 L283.56462127257106,274.47064066266404 L306.7446670645858,284.44200205493075 L316.08461737420055,261.00041722904894 L331.17344519483856,281.22589240107465 L350.9828718459902,265.5948595917005 L353.93744246597913,290.6550488046052 L378.90842558496803,287.022890629875 L368.9370641927013,310.2029364218897 Z" fill="#FFD700" stroke="#222" stroke-width="3"/>
        
      </g>
    </g>
  
    <g>
      <g>
        <animateTransform attributeName="transform" attributeType="XML"
          type="rotate"
          from="0 298.447980915618 389.4097781880598"
          to="-360 298.447980915618 389.4097781880598"
          dur="4.08s"
          repeatCount="indefinite"/>
        <path d="M392.83353171840474,376.9836846887109 L364.51786647756876,398.10804363760406 L386.4013124106925,425.84124094921634 L351.3170475126259,429.97763981720095 L356.4020689572482,464.93701618378543 L323.9500048484276,450.9771102346119 L310.8740744149669,483.79532899084654 L289.7497154660738,455.47966375001056 L262.0165181544615,477.3631096831343 L257.8801192864769,442.2788447850677 L222.92074291989243,447.36386622969 L236.88064886906588,414.9118021208694 L204.0624301128313,401.8358716874087 L232.3780953536673,380.7115127385156 L210.4946494205435,352.97831542690335 L245.57891431861012,348.8419165589187 L240.4938928739878,313.88254019233426 L272.94595698280847,327.84244614150765 L286.0218874162691,295.0242273852731 L307.1462463651623,323.3398926261091 L334.8794436767746,301.4564466929853 L339.01584254475915,336.54071159105195 L373.9752189113436,331.4556901464296 L360.0153129621702,363.90775425525027 Z" fill="#F5F5F5" stroke="#222" stroke-width="3"/>
        
      </g>
    </g>
  
    <g>
      <g>
        <animateTransform attributeName="transform" attributeType="XML"
          type="rotate"
          from="0 79.82971281679303 219.06722439639304"
          to="360 79.82971281679303 219.06722439639304"
          dur="3.55s"
          repeatCount="indefinite"/>
        <path d="M201.64032336146994,207.06992642005483 L165.09714019806685,227.46533297982978 L196.95920991041538,254.59806889233923 L155.3927267461601,259.4564968076445 L174.44619230839203,296.71696237802325 L134.1845294039342,285.2987600405123 L137.52867340429515,327.0143871526317 L104.70130396395537,301.05787236192873 L91.82701079313125,340.87783494107 L71.4316042333563,304.33465177766686 L44.298868320846836,336.1967214900154 L39.44044040554159,294.6302383257601 L2.179974835162838,313.68370388799207 L13.59817717267373,273.4220409835342 L-28.11744993944562,276.7661849838952 L-2.1609351487426096,243.9388155435554 L-41.98089772788386,231.0645223727313 L-5.437714564480785,210.6691158129563 L-37.29978427682934,183.5363799004469 L4.266698887425974,178.67795198514156 L-14.786766674805989,141.41748641476286 L25.474896229651925,152.8356887522737 L22.130752229290884,111.12006164015439 L54.95812166963069,137.07657643085741 L67.83241484045483,97.25661385171614 L88.22782140022974,133.79979701511922 L115.36055731273919,101.93772730277067 L120.2189852280445,143.50421046702598 L157.47945079842327,124.45074490479405 L146.06124846091228,164.71240780925186 L187.77687557303167,161.3682638088909 L161.82036078232866,194.19563324923064 Z" fill="#F5F5F5" stroke="#222" stroke-width="3"/>
        
      </g>
    </g>
  
    <g>
      <g>
        <animateTransform attributeName="transform" attributeType="XML"
          type="rotate"
          from="0 132.69873881749155 73.80011253899514"
          to="-360 132.69873881749155 73.80011253899514"
          dur="4.02s"
          repeatCount="indefinite"/>
        <path d="M281.57837392765225,59.136748345692865 L236.91448339460402,84.06446747430672 L275.85701304303,117.22670025626272 L225.0535336200513,123.16477881941361 L248.341102640557,168.70534784987652 L199.13240353510852,154.74976721514093 L203.2196906466608,205.73553368550907 L163.09735021957886,174.01090449687206 L147.36210301079382,222.67974764915581 L122.43438388217997,178.0158571161076 L89.27215110022397,216.9583867645336 L83.3340725370731,166.15490734155492 L37.79350350661018,189.44247636206063 L51.74908414134572,140.2337772566121 L0.7633176709776137,144.32106436816443 L32.487946859614624,104.19872394108245 L-16.180896292669132,88.46347673229744 L28.48299424037907,63.53575760368355 L-10.459535408046946,30.3735248217276 L40.34394401493179,24.43544625857666 L17.05637499442605,-21.105122771886215 L66.26507409987461,-7.149542137150718 L62.17778698832224,-58.135308607518795 L102.30012741540423,-26.410679418881784 L118.0353746241893,-75.07952257116554 L142.96309375280308,-30.415632038117337 L176.12532653475907,-69.35816168654335 L182.06340509791002,-18.554682263564615 L227.60397412837295,-41.842251284070315 L213.64839349363734,7.366447821378131 L264.63415996400545,3.279160709825831 L232.90953077536844,43.40150113690773 Z" fill="#B87333" stroke="#222" stroke-width="3"/>
        
      </g>
    </g>
  
    <g>
      <g>
        <animateTransform attributeName="transform" attributeType="XML"
          type="rotate"
          from="0 462.67412624044806 98.24764489001333"
          to="360 462.67412624044806 98.24764489001333"
          dur="4.31s"
          repeatCount="indefinite"/>
        <path d="M638.6227859160924,80.91821447974702 L585.8381880133992,110.37824617719976 L631.8611775979026,149.56997582860228 L571.8207019162005,156.5877050395988 L599.34237439498,210.40837753014586 L541.1866390885408,193.91541859818565 L546.0170693112844,254.17132442680253 L498.59975789746034,216.67858084023152 L480.00355665071436,274.1963045656578 L450.5435249532617,221.41170666296443 L411.3517953018591,267.43469624746785 L404.3340660908626,207.3942205657658 L350.51339360031557,234.91589304454527 L367.00635253227574,176.7601577381061 L306.7504467036589,181.59058796084975 L344.2431902902299,134.1732765470256 L286.72546656480364,115.57707530027969 L339.51006446749693,86.11704360282691 L293.4870748829935,46.92531395142443 L353.5275505646956,39.907584740427865 L326.00587808591615,-13.91308775011916 L384.1616133923553,2.5798711818409714 L379.3311831696116,-57.67603464677583 L426.7484945834358,-20.183291060204837 L445.34469583018176,-77.70101478563109 L474.80472752763444,-24.916416882937767 L513.996457179037,-70.93940646744122 L521.0141863900335,-10.898930785739097 L574.8348588805807,-38.42060326451855 L558.3418999486204,19.735132041920508 L618.5978057772372,14.904701819176893 L581.1050621906662,62.32201323300095 Z" fill="#C0C0C0" stroke="#222" stroke-width="3"/>
        <line x1="561.682126240448" y1="98.24764489001333" x2="487.42612624044807" y2="98.24764489001333" stroke="#333" stroke-width="2"/><line x1="554.1455909953255" y1="136.13636616161614" x2="485.5419924291674" y2="107.71982520791404" stroke="#333" stroke-width="2"/><line x1="532.6833544321657" y1="168.25687308173104" x2="480.1764332883775" y2="115.74995193794275" stroke="#333" stroke-width="2"/><line x1="500.5628475120509" y1="189.7191096448908" x2="472.1463065583488" y2="121.11551107873271" stroke="#333" stroke-width="2"/><line x1="462.67412624044806" y1="197.25564489001334" x2="462.67412624044806" y2="122.99964489001334" stroke="#333" stroke-width="2"/><line x1="424.7854049688452" y1="189.7191096448908" x2="453.20194592254734" y2="121.11551107873271" stroke="#333" stroke-width="2"/><line x1="392.6648980487304" y1="168.25687308173104" x2="445.1718191925186" y2="115.74995193794277" stroke="#333" stroke-width="2"/><line x1="371.20266148557056" y1="136.13636616161617" x2="439.8062600517287" y2="107.71982520791404" stroke="#333" stroke-width="2"/><line x1="363.6661262404481" y1="98.24764489001335" x2="437.92212624044805" y2="98.24764489001333" stroke="#333" stroke-width="2"/><line x1="371.20266148557056" y1="60.35892361841058" x2="439.8062600517287" y2="88.77546457211264" stroke="#333" stroke-width="2"/><line x1="392.6648980487303" y1="28.238416698295637" x2="445.1718191925186" y2="80.74533784208391" stroke="#333" stroke-width="2"/><line x1="424.7854049688453" y1="6.7761801351358315" x2="453.20194592254734" y2="75.37977870129396" stroke="#333" stroke-width="2"/><line x1="462.67412624044806" y1="-0.7603551099866763" x2="462.67412624044806" y2="73.49564489001332" stroke="#333" stroke-width="2"/><line x1="500.5628475120509" y1="6.77618013513586" x2="472.1463065583488" y2="75.37977870129396" stroke="#333" stroke-width="2"/><line x1="532.6833544321657" y1="28.23841669829561" x2="480.1764332883775" y2="80.7453378420839" stroke="#333" stroke-width="2"/><line x1="554.1455909953256" y1="60.35892361841054" x2="485.5419924291674" y2="88.77546457211264" stroke="#333" stroke-width="2"/><circle cx="462.67412624044806" cy="98.24764489001333" r="35.36000000000001" fill="#222"/>
      </g>
    </g>
  
  <text x="50%" y="95%" text-anchor="middle" font-size="32" fill="#fff" opacity="0.7" font-family="Arial">Gears Collection #91</text>
</svg>