<svg width="512" height="512" viewBox="0 0 512 512" xmlns="http://www.w3.org/2000/svg">
  <rect width="100%" height="100%" fill="#f5e663" />
  
    <g>
      <g>
        <animateTransform attributeName="transform" attributeType="XML"
          type="rotate"
          from="0 353.56949462894704 277.91332283912845"
          to="360 353.56949462894704 277.91332283912845"
          dur="4.95s"
          repeatCount="indefinite"/>
        <path d="M416.0305208954971,269.6901727292652 L397.29221301553207,283.66952791603273 L411.7739051771581,302.0223790781291 L388.5563769357905,304.75970185841305 L391.9214646564964,327.8945832774763 L370.44583399624753,318.6564102228762 L361.7926447388103,340.3743491056785 L347.81328955204276,321.6360412257135 L329.4604383899464,336.1177333873395 L326.72311560966244,312.90020514597194 L303.5882341905992,316.26529286667784 L312.8264072451993,294.78966220642894 L291.108468362397,286.1364729489917 L309.846776242362,272.1571177622242 L295.365084080736,253.80426660012785 L318.58261232210356,251.06694381984389 L315.2175246013976,227.93206240078064 L336.6931552616466,237.17023545538072 L345.3463445190838,215.4522965725784 L359.3256997058513,234.19060445254343 L377.6785508679477,219.7089122909174 L380.41587364823164,242.92644053228497 L403.55075506729486,239.56135281157904 L394.3125820126948,261.036983471828 Z" fill="#C0C0C0" stroke="#222" stroke-width="3"/>
        
      </g>
    </g>
  
    <g>
      <g>
        <animateTransform attributeName="transform" attributeType="XML"
          type="rotate"
          from="0 116.35968912679883 266.0291365149617"
          to="-360 116.35968912679883 266.0291365149617"
          dur="4.03s"
          repeatCount="indefinite"/>
        <path d="M204.28779796206072,259.10904427176575 L177.90936531148213,270.87320108519884 L202.1227161058739,286.61901760705257 L173.40001146404566,289.65601162918233 L191.56255162282974,312.11350992290835 L163.30715344294472,306.12605901886724 L173.641006989521,333.0969426808844 L148.61875051236152,318.6711402621833 L150.11236786139975,347.51531128245716 L130.77260589126243,326.06325540031423 L123.27978136999475,353.95724535022356 L111.51562455656169,327.578812699645 L95.76980803470799,351.79216349403674 L92.73281401257819,323.0694588522085 L70.27531571885214,341.23199901099264 L76.26276662289331,312.9766008311076 L49.29188296087612,323.31045437768387 L63.71768537957718,298.2881979005244 L34.87351435930334,299.7818152495626 L56.325570241446286,280.4420532794253 L28.431580291536946,272.94922875815763 L54.81001294211552,261.18507194472454 L30.596662147723762,245.43925542287081 L59.31936678955198,242.40226140074108 L41.156826630767895,219.94476310701504 L69.41222481065293,225.93221401105617 L59.078371264076594,198.961330349039 L84.10062774123617,213.38713276774004 L82.60701039219794,184.54296174746622 L101.94677236233525,205.99501762960915 L109.43959688360285,178.10102767969983 L121.20375369703594,204.47946033027839 L136.94957021888962,180.2661095358866 L139.9865642410195,208.98881417771486 L162.4440625347455,190.82627401893077 L156.45661163070437,219.0816721988158 L183.42749529272152,208.74781865223946 L169.00169287402048,233.77007512939903 L197.84586389429433,232.2764577803608 L176.39380801215137,251.61621975049806 Z" fill="#C9AE5D" stroke="#222" stroke-width="3"/>
        <line x1="165.75168912679882" y1="266.0291365149617" x2="128.7076891267988" y2="266.0291365149617" stroke="#333" stroke-width="2"/><line x1="163.33427257964905" y1="281.2921039011291" x2="128.10333499001138" y2="269.84487836150356" stroke="#333" stroke-width="2"/><line x1="156.31865651296624" y1="295.0610256961915" x2="126.34943097334067" y2="273.28710881026916" stroke="#333" stroke-width="2"/><line x1="145.39157830802867" y1="305.9881039011291" x2="123.61766142210628" y2="276.01887836150354" stroke="#333" stroke-width="2"/><line x1="131.62265651296622" y1="313.0037199678119" x2="120.17543097334068" y2="277.77278237817427" stroke="#333" stroke-width="2"/><line x1="116.35968912679883" y1="315.4211365149617" x2="116.35968912679883" y2="278.3771365149617" stroke="#333" stroke-width="2"/><line x1="101.09672174063142" y1="313.0037199678119" x2="112.54394728025697" y2="277.77278237817427" stroke="#333" stroke-width="2"/><line x1="87.327799945569" y1="305.9881039011291" x2="109.10171683149137" y2="276.01887836150354" stroke="#333" stroke-width="2"/><line x1="76.40072174063144" y1="295.0610256961915" x2="106.36994728025698" y2="273.28710881026916" stroke="#333" stroke-width="2"/><line x1="69.3851056739486" y1="281.2921039011291" x2="104.61604326358628" y2="269.84487836150356" stroke="#333" stroke-width="2"/><line x1="66.96768912679883" y1="266.0291365149617" x2="104.01168912679883" y2="266.0291365149617" stroke="#333" stroke-width="2"/><line x1="69.3851056739486" y1="250.76616912879427" x2="104.61604326358628" y2="262.2133946684198" stroke="#333" stroke-width="2"/><line x1="76.40072174063143" y1="236.99724733373188" x2="106.36994728025698" y2="258.7711642196542" stroke="#333" stroke-width="2"/><line x1="87.32779994556898" y1="226.0701691287943" x2="109.10171683149137" y2="256.03939466841985" stroke="#333" stroke-width="2"/><line x1="101.09672174063142" y1="219.05455306211147" x2="112.54394728025697" y2="254.28549065174914" stroke="#333" stroke-width="2"/><line x1="116.35968912679881" y1="216.6371365149617" x2="116.35968912679883" y2="253.68113651496168" stroke="#333" stroke-width="2"/><line x1="131.62265651296622" y1="219.05455306211147" x2="120.17543097334068" y2="254.28549065174914" stroke="#333" stroke-width="2"/><line x1="145.39157830802864" y1="226.07016912879428" x2="123.61766142210628" y2="256.03939466841985" stroke="#333" stroke-width="2"/><line x1="156.31865651296621" y1="236.99724733373185" x2="126.34943097334067" y2="258.7711642196542" stroke="#333" stroke-width="2"/><line x1="163.33427257964905" y1="250.76616912879427" x2="128.10333499001138" y2="262.2133946684198" stroke="#333" stroke-width="2"/><circle cx="116.35968912679883" cy="266.0291365149617" r="17.639999999999997" fill="#222"/>
      </g>
    </g>
  
    <g>
      <g>
        <animateTransform attributeName="transform" attributeType="XML"
          type="rotate"
          from="0 176.1843844174073 94.66349604267549"
          to="360 176.1843844174073 94.66349604267549"
          dur="4.67s"
          repeatCount="indefinite"/>
        <path d="M288.6142316971974,79.86182584492164 L254.88527751326035,105.02466518110319 L280.9523234041872,138.05979727287666 L239.16077256972554,142.98697827738772 L245.21793046699622,184.62976483170155 L206.56179527854812,168.00105333342142 L190.98605461516115,207.0933433224656 L165.82321527897963,173.36438913852857 L132.78808318720613,199.43143502945543 L127.86090218269506,157.63988419499373 L86.21811562838121,163.69704209226438 L102.84682712666137,125.04090690381632 L63.75453713761719,109.46516624042934 L97.48349132155423,84.30232690424782 L71.41644543062735,51.26719481247437 L113.20799626508906,46.340013807963246 L107.15083836781835,4.697227253649444 L145.80697355626648,21.32593875192954 L161.38271421965345,-17.76635123711462 L186.54555355583503,15.962602946822429 L219.5806856476085,-10.10444294410442 L224.50786665211953,31.687107890357247 L266.15065320643333,25.62994999308654 L249.52194170815324,64.28608518153469 Z" fill="#FFD700" stroke="#222" stroke-width="3"/>
        
      </g>
    </g>
  
  <text x="50%" y="95%" text-anchor="middle" font-size="32" fill="#fff" opacity="0.7" font-family="Arial">Gears Collection #84</text>
</svg>