<svg width="512" height="512" viewBox="0 0 512 512" xmlns="http://www.w3.org/2000/svg">
  <rect width="100%" height="100%" fill="#f5e663" />
  
    <g>
      <g>
        <animateTransform attributeName="transform" attributeType="XML"
          type="rotate"
          from="0 341.3691145460363 308.07796349345597"
          to="360 341.3691145460363 308.07796349345597"
          dur="3.86s"
          repeatCount="indefinite"/>
        <path d="M407.7959202580816,299.3327086147125 L387.867878544468,314.1996419085764 L403.26904322429255,333.71775346191697 L378.57738620569523,336.62887451396494 L382.1561302896206,361.2326372929687 L359.316967523959,351.4079135682353 L350.1143694247798,374.50476920550125 L335.2474361309159,354.5767274918877 L315.7293245775753,369.9778921717122 L312.81820352552734,345.2862351531149 L288.21444074652356,348.86497923704025 L298.039164471257,326.0258164713787 L274.94230883399104,316.82321837219945 L294.87035054760463,301.95628507833555 L279.4691858677801,282.43817352499497 L304.1608428863774,279.527052472947 L300.58209880245204,254.92328969394322 L323.4212615681136,264.74801341867663 L332.62385966729283,241.6511577814107 L347.4907929611568,261.5791994950243 L367.0089045144973,246.17803481519977 L369.9200255665453,270.86969183379705 L394.52378834554906,267.2909477498717 L384.69906462081565,290.13011051553326 Z" fill="#8EC6F3" stroke="#222" stroke-width="3"/>
        <line x1="378.8891145460363" y1="308.07796349345597" x2="350.7491145460363" y2="308.07796349345597" stroke="#333" stroke-width="2"/><line x1="373.86238769602846" y1="326.83796349345596" x2="349.49243283353434" y2="312.76796349345597" stroke="#333" stroke-width="2"/><line x1="360.1291145460363" y1="340.5712366434481" x2="346.0591145460363" y2="316.201281780954" stroke="#333" stroke-width="2"/><line x1="341.3691145460363" y1="345.59796349345595" x2="341.3691145460363" y2="317.45796349345596" stroke="#333" stroke-width="2"/><line x1="322.6091145460363" y1="340.5712366434481" x2="336.6791145460363" y2="316.201281780954" stroke="#333" stroke-width="2"/><line x1="308.87584139604417" y1="326.83796349345596" x2="333.2457962585383" y2="312.76796349345597" stroke="#333" stroke-width="2"/><line x1="303.84911454603633" y1="308.07796349345597" x2="331.9891145460363" y2="308.07796349345597" stroke="#333" stroke-width="2"/><line x1="308.87584139604417" y1="289.317963493456" x2="333.2457962585383" y2="303.38796349345597" stroke="#333" stroke-width="2"/><line x1="322.60911454603627" y1="275.5846903434638" x2="336.6791145460363" y2="299.95464520595795" stroke="#333" stroke-width="2"/><line x1="341.3691145460363" y1="270.557963493456" x2="341.3691145460363" y2="298.697963493456" stroke="#333" stroke-width="2"/><line x1="360.1291145460363" y1="275.5846903434638" x2="346.0591145460363" y2="299.95464520595795" stroke="#333" stroke-width="2"/><line x1="373.86238769602846" y1="289.317963493456" x2="349.49243283353434" y2="303.38796349345597" stroke="#333" stroke-width="2"/><circle cx="341.3691145460363" cy="308.07796349345597" r="13.4" fill="#222"/>
      </g>
    </g>
  
    <g>
      <g>
        <animateTransform attributeName="transform" attributeType="XML"
          type="rotate"
          from="0 161.08120657951707 358.90977920294887"
          to="-360 161.08120657951707 358.90977920294887"
          dur="5.44s"
          repeatCount="indefinite"/>
        <path d="M254.0787345763805,346.66642237270804 L226.17947617732148,367.48012898411747 L247.74110672907577,394.8054851587943 L213.17278690303957,398.88105463166147 L218.18302862053508,433.3263225222667 L186.20820074860887,419.57170930763994 L173.32456340975793,451.9073071998123 L152.5108567983485,424.0080488007533 L125.18550062367166,445.5696793525076 L121.10993115080447,411.0013595264714 L86.6646632601992,416.0116012439668 L100.41927647482599,384.03677337204067 L68.08367858265366,371.1531360331897 L95.98293698171268,350.3394294217803 L74.42130642995836,323.0140732471035 L108.98962625599458,318.93850377423627 L103.97938453849906,284.49323588363103 L135.9542124104253,298.2478490982578 L148.83784974927624,265.91225120608544 L169.6515563606857,293.81150960514447 L196.97691253536252,272.2498790533902 L201.05248200822967,306.81819887942635 L235.4977498988349,301.80795716193086 L221.74313668420817,333.78278503385707 Z" fill="#8EC6F3" stroke="#222" stroke-width="3"/>
        <line x1="213.60920657951706" y1="358.90977920294887" x2="174.21320657951708" y2="358.90977920294887" stroke="#333" stroke-width="2"/><line x1="206.57178898950608" y1="385.1737792029489" x2="172.45385218201432" y2="365.47577920294884" stroke="#333" stroke-width="2"/><line x1="187.34520657951708" y1="404.40036161293784" x2="167.64720657951707" y2="370.2824248054461" stroke="#333" stroke-width="2"/><line x1="161.08120657951707" y1="411.4377792029489" x2="161.08120657951707" y2="372.0417792029489" stroke="#333" stroke-width="2"/><line x1="134.8172065795171" y1="404.40036161293784" x2="154.51520657951707" y2="370.2824248054461" stroke="#333" stroke-width="2"/><line x1="115.59062416952807" y1="385.1737792029489" x2="149.70856097701983" y2="365.47577920294884" stroke="#333" stroke-width="2"/><line x1="108.55320657951708" y1="358.90977920294887" x2="147.94920657951707" y2="358.90977920294887" stroke="#333" stroke-width="2"/><line x1="115.59062416952808" y1="332.64577920294886" x2="149.70856097701983" y2="352.3437792029489" stroke="#333" stroke-width="2"/><line x1="134.81720657951706" y1="313.4191967929599" x2="154.51520657951707" y2="347.5371336004516" stroke="#333" stroke-width="2"/><line x1="161.08120657951707" y1="306.38177920294885" x2="161.08120657951707" y2="345.77777920294886" stroke="#333" stroke-width="2"/><line x1="187.34520657951708" y1="313.4191967929599" x2="167.64720657951707" y2="347.5371336004516" stroke="#333" stroke-width="2"/><line x1="206.57178898950605" y1="332.64577920294886" x2="172.45385218201432" y2="352.34377920294884" stroke="#333" stroke-width="2"/><circle cx="161.08120657951707" cy="358.90977920294887" r="18.76" fill="#222"/>
      </g>
    </g>
  
    <g>
      <g>
        <animateTransform attributeName="transform" attributeType="XML"
          type="rotate"
          from="0 80.71816414629379 215.05762562143727"
          to="360 80.71816414629379 215.05762562143727"
          dur="4.62s"
          repeatCount="indefinite"/>
        <path d="M199.0008689629234,191.5297327862922 L163.51605751793448,231.52715060603882 L180.99339938998077,282.0593957236013 L127.61940321780861,285.2502902920181 L104.24605698143887,333.34033043806687 L64.24863916169227,297.855518993078 L13.716394044129743,315.3328608651242 L10.525499475712905,261.9588646929521 L-37.564540670335816,238.58551845658232 L-2.079729225346938,198.58810063683575 L-19.557071097393177,148.05585551927322 L33.81692507477891,144.8649609508564 L57.19027131114867,96.77492080480768 L97.18768913089534,132.25973224979657 L147.71993424845778,114.78239037775027 L150.91082881687464,168.15638654992244 Z" fill="#C0C0C0" stroke="#222" stroke-width="3"/>
        
      </g>
    </g>
  
    <g>
      <g>
        <animateTransform attributeName="transform" attributeType="XML"
          type="rotate"
          from="0 299.2571457529982 40.29460057452462"
          to="-360 299.2571457529982 40.29460057452462"
          dur="5.16s"
          repeatCount="indefinite"/>
        <path d="M445.3961183194979,21.05503984128902 L401.55442654954794,53.762293087789544 L435.43698884516186,96.70213850513886 L381.1153434042478,103.10660481964442 L388.98858038888363,157.2348829334527 L338.7424223044282,135.62049073903918 L318.49670648623385,186.43357314102428 L285.7894532397333,142.59188137107438 L242.84960782238397,176.4744436666883 L236.44514150787842,122.15279822577426 L182.31686339407014,130.02603521041001 L203.93125558848365,79.77987712595458 L153.11817318649855,59.53416130776023 L196.95986495644846,26.82690806125973 L163.0773026608345,-16.11293735608953 L217.39894810174857,-22.517403670595172 L209.52571111711273,-76.64568178440341 L259.7718692015683,-55.03128958998995 L280.0175850197626,-105.84437199197504 L312.7248382662632,-62.00268022202512 L355.66468368361245,-95.88524251763903 L362.069149998118,-41.56359707672502 L416.19742811192623,-49.43683406136084 L394.5830359175128,0.8093240230946819 Z" fill="#E5E4E2" stroke="#222" stroke-width="3"/>
        
      </g>
    </g>
  
  <text x="50%" y="95%" text-anchor="middle" font-size="32" fill="#fff" opacity="0.7" font-family="Arial">Gears Collection #82</text>
</svg>