<svg width="512" height="512" viewBox="0 0 512 512" xmlns="http://www.w3.org/2000/svg">
  <rect width="100%" height="100%" fill="#1e293b" />
  
    <g>
      <g>
        <animateTransform attributeName="transform" attributeType="XML"
          type="rotate"
          from="0 354.3646494423946 274.01098942520423"
          to="360 354.3646494423946 274.01098942520423"
          dur="4.28s"
          repeatCount="indefinite"/>
        <path d="M420.077263229411,260.9399378501236 L400.36347909330607,283.16072552776063 L410.0731134666651,311.23419503751757 L380.4208933710139,313.0069142421936 L367.4357010174752,339.72360321222067 L345.2149133398382,320.0098190761157 L317.14144383008124,329.71945344947477 L315.3687246254052,300.06723335382355 L288.65203565537814,287.0820410002848 L308.3658197914831,264.8612533226478 L298.65618541812404,236.7877838128909 L328.3084055137752,235.01506460821489 L341.29359786731396,208.2983756381878 L363.514385544951,228.01215977429274 L391.5878550547079,218.3025254009337 L393.36057425938395,247.95474549658488 Z" fill="#F5F5F5" stroke="#222" stroke-width="3"/>
        
      </g>
    </g>
  
    <g>
      <g>
        <animateTransform attributeName="transform" attributeType="XML"
          type="rotate"
          from="0 257.995741413976 395.9857743351393"
          to="-360 257.995741413976 395.9857743351393"
          dur="4.57s"
          repeatCount="indefinite"/>
        <path d="M350.99326941083945,383.74241750489847 L323.0940110117804,404.5561241163079 L344.6556415635347,431.8814802909847 L310.08732173749854,435.9570497638519 L315.09756345499403,470.40231765445714 L283.1227355830678,456.64770443983036 L270.23909824421685,488.9833023320027 L249.42539163280745,461.0840439329437 L222.1000354581306,482.645674484698 L218.02446598526342,448.0773546586618 L183.57919809465815,453.08759637615725 L197.33381130928495,421.1127685042311 L164.9982134171126,408.2291311653801 L192.89747181617162,387.41542455397075 L171.3358412644173,360.09006837929394 L205.90416109045353,356.0144989064267 L200.893919372958,321.56923101582146 L232.86874724488425,335.32384423044823 L245.7523845837352,302.98824633827587 L266.5660911951446,330.8875047373349 L293.89144736982144,309.32587418558063 L297.9670168426886,343.8941940116168 L332.41228473329386,338.8839522941213 L318.65767151866714,370.8587801660475 Z" fill="#E5E4E2" stroke="#222" stroke-width="3"/>
        <line x1="310.52374141397604" y1="395.9857743351393" x2="271.127741413976" y2="395.9857743351393" stroke="#333" stroke-width="2"/><line x1="303.486323823965" y1="422.2497743351393" x2="269.36838701647326" y2="402.55177433513927" stroke="#333" stroke-width="2"/><line x1="284.25974141397603" y1="441.47635674512827" x2="264.561741413976" y2="407.35841993763654" stroke="#333" stroke-width="2"/><line x1="257.995741413976" y1="448.5137743351393" x2="257.995741413976" y2="409.1177743351393" stroke="#333" stroke-width="2"/><line x1="231.73174141397604" y1="441.47635674512827" x2="251.42974141397602" y2="407.35841993763654" stroke="#333" stroke-width="2"/><line x1="212.50515900398702" y1="422.2497743351393" x2="246.62309581147878" y2="402.55177433513927" stroke="#333" stroke-width="2"/><line x1="205.46774141397603" y1="395.9857743351393" x2="244.86374141397602" y2="395.9857743351393" stroke="#333" stroke-width="2"/><line x1="212.50515900398705" y1="369.7217743351393" x2="246.62309581147878" y2="389.4197743351393" stroke="#333" stroke-width="2"/><line x1="231.731741413976" y1="350.4951919251503" x2="251.42974141397602" y2="384.61312873264205" stroke="#333" stroke-width="2"/><line x1="257.995741413976" y1="343.4577743351393" x2="257.995741413976" y2="382.8537743351393" stroke="#333" stroke-width="2"/><line x1="284.25974141397603" y1="350.4951919251503" x2="264.561741413976" y2="384.61312873264205" stroke="#333" stroke-width="2"/><line x1="303.486323823965" y1="369.7217743351393" x2="269.36838701647326" y2="389.41977433513927" stroke="#333" stroke-width="2"/><circle cx="257.995741413976" cy="395.9857743351393" r="18.76" fill="#222"/>
      </g>
    </g>
  
    <g>
      <g>
        <animateTransform attributeName="transform" attributeType="XML"
          type="rotate"
          from="0 90.50895870736514 185.19946856216814"
          to="360 90.50895870736514 185.19946856216814"
          dur="4.96s"
          repeatCount="indefinite"/>
        <path d="M210.52823674403209,173.37860143842312 L174.522453333032,193.47407554878964 L205.91596319666954,220.2078006390563 L164.96075184365327,224.99478108501887 L183.73401938291124,261.7072986323038 L144.0644397564601,250.45701103505039 L147.35940516858045,291.55917304257974 L115.01479116118685,265.9843717046812 L102.32982583111014,305.2187465988351 L82.23435172074365,269.212963187835 L55.50062663047697,300.60647305147256 L50.713646184514445,259.6512616984563 L14.001128637229499,278.42452923771424 L25.251416234482875,238.7549496112631 L-15.85074577304647,242.04991502338348 L9.724055564852065,209.70530101598985 L-29.510319329301808,197.02033568591318 L6.495464081698273,176.92486157554663 L-24.898045781939274,150.19113648528 L16.057165571077007,145.4041560393174 L-2.716101968180965,108.69163849203251 L36.95347765827022,119.94192608928586 L33.65851224614978,78.83976408175653 L66.00312625354341,104.41456541965506 L78.68809158362015,65.18019052550117 L98.7835656939866,101.18597393650127 L125.51729078425326,69.79246407286372 L130.30427123021585,110.74767542588 L167.0167887775008,91.97440788662206 L155.76650118024736,131.64398751307314 L196.86866318777675,128.34902210095277 L171.29386184987817,160.69363610834634 Z" fill="#FFD700" stroke="#222" stroke-width="3"/>
        <line x1="158.04495870736514" y1="185.19946856216814" x2="107.39295870736514" y2="185.19946856216814" stroke="#333" stroke-width="2"/><line x1="152.9040868150474" y1="211.04437685037684" x2="106.1077407342857" y2="191.6606956342203" stroke="#333" stroke-width="2"/><line x1="138.26412228157983" y1="232.9546321363828" x2="102.44774960091881" y2="197.1382594557218" stroke="#333" stroke-width="2"/><line x1="116.35386699557384" y1="247.5945966698504" x2="96.97018577941732" y2="200.7982505890887" stroke="#333" stroke-width="2"/><line x1="90.50895870736514" y1="252.73546856216814" x2="90.50895870736514" y2="202.08346856216815" stroke="#333" stroke-width="2"/><line x1="64.66405041915644" y1="247.5945966698504" x2="84.04773163531297" y2="200.7982505890887" stroke="#333" stroke-width="2"/><line x1="42.75379513315047" y1="232.95463213638283" x2="78.57016781381147" y2="197.1382594557218" stroke="#333" stroke-width="2"/><line x1="28.113830599682878" y1="211.04437685037684" x2="74.91017668044458" y2="191.6606956342203" stroke="#333" stroke-width="2"/><line x1="22.972958707365137" y1="185.19946856216814" x2="73.62495870736514" y2="185.19946856216814" stroke="#333" stroke-width="2"/><line x1="28.113830599682863" y1="159.35456027395946" x2="74.91017668044456" y2="178.73824149011597" stroke="#333" stroke-width="2"/><line x1="42.753795133150454" y1="137.44430498795347" x2="78.57016781381147" y2="173.26067766861448" stroke="#333" stroke-width="2"/><line x1="64.66405041915645" y1="122.80434045448587" x2="84.04773163531297" y2="169.60068653524758" stroke="#333" stroke-width="2"/><line x1="90.50895870736512" y1="117.66346856216813" x2="90.50895870736514" y2="168.31546856216812" stroke="#333" stroke-width="2"/><line x1="116.35386699557385" y1="122.80434045448588" x2="96.97018577941732" y2="169.60068653524758" stroke="#333" stroke-width="2"/><line x1="138.2641222815798" y1="137.44430498795344" x2="102.4477496009188" y2="173.26067766861448" stroke="#333" stroke-width="2"/><line x1="152.9040868150474" y1="159.35456027395944" x2="106.1077407342857" y2="178.73824149011597" stroke="#333" stroke-width="2"/><circle cx="90.50895870736514" cy="185.19946856216814" r="24.120000000000005" fill="#222"/>
      </g>
    </g>
  
    <g>
      <g>
        <animateTransform attributeName="transform" attributeType="XML"
          type="rotate"
          from="0 240.24558828692471 36.564819339343586"
          to="-360 240.24558828692471 36.564819339343586"
          dur="4.28s"
          repeatCount="indefinite"/>
        <path d="M386.3845608534244,17.325258606107983 L342.54286908347444,50.03251185260851 L376.4254313790884,92.97235726995783 L322.1037859381744,99.37682358446338 L329.97702292281014,153.50510169827166 L279.7308648383547,131.89070950385815 L259.48514902016035,182.70379190584325 L226.77789577365982,138.86210013589334 L183.83805035631048,172.74466243150727 L177.43358404180492,118.42301699059323 L123.30530592799663,126.29625397522898 L144.91969812241015,76.05009589077355 L94.10661572042505,55.80438007257919 L137.94830749037496,23.097126826078693 L104.065745194761,-19.842718591270568 L158.38739063567508,-26.24718490577621 L150.51415365103924,-80.37546301958444 L200.76031173549478,-58.76107082517099 L221.0060275536891,-109.57415322715607 L253.7132808001897,-65.73246145720616 L296.653126217539,-99.61502375282006 L303.0575925320445,-45.293378311906054 L357.18587064585273,-53.16661529654188 L335.5714784514393,-2.9204572120863546 Z" fill="#C0C0C0" stroke="#222" stroke-width="3"/>
        <line x1="322.7895882869247" y1="36.564819339343586" x2="260.88158828692474" y2="36.564819339343586" stroke="#333" stroke-width="2"/><line x1="311.7307892169074" y1="77.83681933934358" x2="258.1168885194204" y2="46.882819339343584" stroke="#333" stroke-width="2"/><line x1="281.5175882869247" y1="108.05002026932628" x2="250.56358828692473" y2="54.43611957183926" stroke="#333" stroke-width="2"/><line x1="240.24558828692471" y1="119.10881933934358" x2="240.24558828692471" y2="57.20081933934358" stroke="#333" stroke-width="2"/><line x1="198.97358828692472" y1="108.0500202693263" x2="229.92758828692473" y2="54.436119571839264" stroke="#333" stroke-width="2"/><line x1="168.760387356942" y1="77.83681933934358" x2="222.37428805442903" y2="46.882819339343584" stroke="#333" stroke-width="2"/><line x1="157.70158828692473" y1="36.56481933934359" x2="219.60958828692472" y2="36.564819339343586" stroke="#333" stroke-width="2"/><line x1="168.76038735694203" y1="-4.7071806606564195" x2="222.37428805442903" y2="26.246819339343585" stroke="#333" stroke-width="2"/><line x1="198.97358828692467" y1="-34.920381590639096" x2="229.9275882869247" y2="18.693519106847916" stroke="#333" stroke-width="2"/><line x1="240.2455882869247" y1="-45.97918066065641" x2="240.24558828692471" y2="15.928819339343587" stroke="#333" stroke-width="2"/><line x1="281.5175882869247" y1="-34.92038159063911" x2="250.56358828692473" y2="18.693519106847912" stroke="#333" stroke-width="2"/><line x1="311.7307892169074" y1="-4.707180660656448" x2="258.1168885194204" y2="26.246819339343578" stroke="#333" stroke-width="2"/><circle cx="240.24558828692471" cy="36.564819339343586" r="29.480000000000004" fill="#222"/>
      </g>
    </g>
  
    <g>
      <g>
        <animateTransform attributeName="transform" attributeType="XML"
          type="rotate"
          from="0 375.717821377635 25.20215935890414"
          to="360 375.717821377635 25.20215935890414"
          dur="4.13s"
          repeatCount="indefinite"/>
        <path d="M548.4275162289528,2.464496674171155 L496.61460777355745,41.11852323821723 L536.6576359411011,91.86561327690279 L472.4593276927482,99.43452801222753 L481.76406231095416,163.40431123763733 L422.3822391202341,137.86002955333043 L398.455484062368,197.91185421022192 L359.80145749832195,146.0989457548266 L309.05436745963635,186.1419739223703 L301.4854527243116,121.94366567401735 L237.51566949890181,131.24840029222327 L263.0599511832087,71.8665771015032 L203.00812652631723,47.93982204363712 L254.82103498171256,9.285795479591082 L214.7780068141688,-41.46129455909441 L278.9763150625218,-49.03020929441925 L269.67158044431585,-112.999992519829 L329.053403635036,-87.45571083552218 L352.980158692902,-147.50753549241364 L391.6341852569482,-95.6946270370183 L442.3812752956337,-135.737655204562 L449.95019003095837,-71.53934695620907 L513.9199732563682,-80.84408157441504 L488.3756915720613,-21.46225838369488 Z" fill="#F5F5F5" stroke="#222" stroke-width="3"/>
        
      </g>
    </g>
  
  <text x="50%" y="95%" text-anchor="middle" font-size="32" fill="#fff" opacity="0.7" font-family="Arial">Gears Collection #70</text>
</svg>