<svg width="512" height="512" viewBox="0 0 512 512" xmlns="http://www.w3.org/2000/svg">
  <rect width="100%" height="100%" fill="#1e293b" />
  
    <g>
      <g>
        <animateTransform attributeName="transform" attributeType="XML"
          type="rotate"
          from="0 355.29062978741194 267.88994686359473"
          to="360 355.29062978741194 267.88994686359473"
          dur="4.9s"
          repeatCount="indefinite"/>
        <path d="M424.0779258149978,262.4762692583734 L403.441737006722,271.67952118724963 L422.3841542948516,283.9976769696522 L399.91401120770706,286.37355664682855 L414.1228011278443,303.9423478289952 L392.01823792589346,299.2582875979426 L400.1025451221946,320.35795848999686 L380.5273104631923,309.07246680189735 L381.69578662060314,331.6376346068735 L366.5660408616522,314.8554140188025 L360.70430739263327,336.6772428911805 L351.50105546375704,316.0410540829048 L339.1828996813545,334.9834713710344 L336.8070200041781,312.5133282838899 L319.2382288220115,326.7221182040271 L323.9222890530641,304.61755500207624 L302.8226181610098,312.7018621983774 L314.10810984910927,293.1266275393751 L291.54294204413316,294.29510369678593 L308.3251626322042,279.165357937835 L286.5033337598261,273.30362446881605 L307.1395225681019,264.1003725399398 L288.1971052799723,251.78221675753724 L310.66724836711677,249.4063370803609 L296.4584584469796,231.83754589819426 L318.56302164893043,236.52160612924686 L310.4787144526292,215.42193523719263 L330.05394911163165,226.70742692529205 L328.88547295422075,204.14225912031594 L344.01521871317175,220.92447970838694 L349.8769521821906,199.1026508360089 L359.08020411106685,219.73883964428464 L371.3983598934694,200.79642235615503 L373.7742395706458,223.26656544329958 L391.3430307528124,209.05777552316238 L386.65897052175984,231.16233872511324 L407.7586414138141,223.07803152881203 L396.4731497257146,242.6532661878144 L419.03831753069073,241.48479003040356 L402.2560969426197,256.6145357893545 Z" fill="#B87333" stroke="#222" stroke-width="3"/>
        <line x1="393.93062978741193" y1="267.88994686359473" x2="364.95062978741197" y2="267.88994686359473" stroke="#333" stroke-width="2"/><line x1="392.0394535770567" y1="279.8303635262427" x2="364.47783573482315" y2="270.8750510292567" stroke="#333" stroke-width="2"/><line x1="386.5510464500599" y1="290.6019690121759" x2="363.1057339530739" y2="273.56795240074" stroke="#333" stroke-width="2"/><line x1="378.00265193599313" y1="299.1503635262427" x2="360.9686353245572" y2="275.7050510292567" stroke="#333" stroke-width="2"/><line x1="367.2310464500599" y1="304.6387706532395" x2="358.27573395307394" y2="277.07715281100593" stroke="#333" stroke-width="2"/><line x1="355.29062978741194" y1="306.5299468635947" x2="355.29062978741194" y2="277.54994686359476" stroke="#333" stroke-width="2"/><line x1="343.35021312476397" y1="304.6387706532395" x2="352.30552562174995" y2="277.07715281100593" stroke="#333" stroke-width="2"/><line x1="332.57860763883076" y1="299.1503635262427" x2="349.61262425026666" y2="275.7050510292567" stroke="#333" stroke-width="2"/><line x1="324.030213124764" y1="290.6019690121759" x2="347.47552562174997" y2="273.56795240074" stroke="#333" stroke-width="2"/><line x1="318.5418059977672" y1="279.8303635262427" x2="346.10342384000074" y2="270.8750510292567" stroke="#333" stroke-width="2"/><line x1="316.65062978741196" y1="267.88994686359473" x2="345.6306297874119" y2="267.88994686359473" stroke="#333" stroke-width="2"/><line x1="318.5418059977672" y1="255.94953020094675" x2="346.10342384000074" y2="264.90484269793274" stroke="#333" stroke-width="2"/><line x1="324.030213124764" y1="245.17792471501357" x2="347.47552562174997" y2="262.21194132644945" stroke="#333" stroke-width="2"/><line x1="332.57860763883076" y1="236.62953020094676" x2="349.61262425026666" y2="260.07484269793275" stroke="#333" stroke-width="2"/><line x1="343.35021312476397" y1="231.14112307394998" x2="352.30552562174995" y2="258.70274091618353" stroke="#333" stroke-width="2"/><line x1="355.29062978741194" y1="229.24994686359474" x2="355.29062978741194" y2="258.2299468635947" stroke="#333" stroke-width="2"/><line x1="367.2310464500599" y1="231.14112307394998" x2="358.27573395307394" y2="258.70274091618353" stroke="#333" stroke-width="2"/><line x1="378.0026519359931" y1="236.62953020094676" x2="360.9686353245572" y2="260.07484269793275" stroke="#333" stroke-width="2"/><line x1="386.5510464500599" y1="245.17792471501355" x2="363.1057339530739" y2="262.21194132644945" stroke="#333" stroke-width="2"/><line x1="392.0394535770567" y1="255.94953020094675" x2="364.47783573482315" y2="264.90484269793274" stroke="#333" stroke-width="2"/><circle cx="355.29062978741194" cy="267.88994686359473" r="13.8" fill="#222"/>
      </g>
    </g>
  
    <g>
      <g>
        <animateTransform attributeName="transform" attributeType="XML"
          type="rotate"
          from="0 200.3638277840368 384.47029361356533"
          to="-360 200.3638277840368 384.47029361356533"
          dur="5.29s"
          repeatCount="indefinite"/>
        <path d="M296.666042222657,376.8911449662555 L267.7753778910709,389.7756976666822 L294.2947620944524,407.0211157620458 L262.83656177245,410.3473473100927 L282.7288676606421,434.943654965126 L251.7824791779109,428.38597064165236 L263.10050925273254,457.92550989052836 L235.69518073012927,442.12582152718903 L237.3310473505045,473.7170564541556 L216.14940328797312,450.2219476308562 L207.94297643134664,480.77250805218546 L195.05842373091994,451.8818437205994 L177.81300563555635,478.4012279239809 L174.48677408750945,446.94302760197854 L149.89046643247616,466.8353334901706 L156.4481507559498,435.8889450074394 L126.90861150707383,447.20697508226107 L142.7082998704131,419.8016465596578 L111.11706494344651,421.437513180033 L134.6121737667459,400.2558691175017 L104.06161334541665,392.04944226087514 L132.9522776770027,379.16488956044844 L106.43289347362125,361.9194714650848 L137.8910937956236,358.593239917038 L117.99878790743149,333.9969322620047 L148.94517639016271,340.55461658547836 L137.627146315341,311.01507733660236 L165.03247483794436,326.81476569994163 L163.39660821756917,295.22353077297504 L184.5782522801005,318.71863959627444 L192.7846791367269,288.1680791749452 L205.66923183715363,317.0587435065312 L222.9146499325172,290.53935930314975 L226.24088148056418,321.9975596251521 L250.83718913559747,302.10525373696004 L244.27950481212383,333.05164221969125 L273.8190440609998,321.73361214486954 L258.0193556976605,349.13894066747287 L289.6105906246271,347.5030740470977 L266.1154818013277,368.684718109629 Z" fill="#9DE09D" stroke="#222" stroke-width="3"/>
        <line x1="254.4598277840368" y1="384.47029361356533" x2="213.8878277840368" y2="384.47029361356533" stroke="#333" stroke-width="2"/><line x1="251.81218108953942" y1="401.1868769412725" x2="213.22591611041247" y2="388.64943944549213" stroke="#333" stroke-width="2"/><line x1="244.12841111174396" y1="416.26712462157894" x2="211.3049736159636" y2="392.41950136556875" stroke="#333" stroke-width="2"/><line x1="232.1606587920504" y1="428.2348769412725" x2="208.31303553604022" y2="395.41143944549214" stroke="#333" stroke-width="2"/><line x1="217.08041111174396" y1="435.91864691906795" x2="204.5429736159636" y2="397.332381939941" stroke="#333" stroke-width="2"/><line x1="200.3638277840368" y1="438.56629361356534" x2="200.3638277840368" y2="397.99429361356533" stroke="#333" stroke-width="2"/><line x1="183.64724445632964" y1="435.91864691906795" x2="196.18468195211003" y2="397.332381939941" stroke="#333" stroke-width="2"/><line x1="168.5669967760232" y1="428.2348769412725" x2="192.41462003203338" y2="395.41143944549214" stroke="#333" stroke-width="2"/><line x1="156.59924445632964" y1="416.26712462157894" x2="189.42268195211003" y2="392.41950136556875" stroke="#333" stroke-width="2"/><line x1="148.91547447853418" y1="401.1868769412725" x2="187.50173945766113" y2="388.64943944549213" stroke="#333" stroke-width="2"/><line x1="146.2678277840368" y1="384.47029361356533" x2="186.8398277840368" y2="384.47029361356533" stroke="#333" stroke-width="2"/><line x1="148.91547447853418" y1="367.7537102858582" x2="187.50173945766113" y2="380.29114778163853" stroke="#333" stroke-width="2"/><line x1="156.59924445632964" y1="352.6734626055517" x2="189.42268195211" y2="376.5210858615619" stroke="#333" stroke-width="2"/><line x1="168.56699677602316" y1="340.7057102858582" x2="192.41462003203338" y2="373.5291477816385" stroke="#333" stroke-width="2"/><line x1="183.64724445632964" y1="333.0219403080627" x2="196.18468195211" y2="371.60820528718966" stroke="#333" stroke-width="2"/><line x1="200.3638277840368" y1="330.3742936135653" x2="200.3638277840368" y2="370.94629361356533" stroke="#333" stroke-width="2"/><line x1="217.08041111174396" y1="333.0219403080627" x2="204.54297361596358" y2="371.60820528718966" stroke="#333" stroke-width="2"/><line x1="232.1606587920504" y1="340.7057102858582" x2="208.31303553604022" y2="373.5291477816385" stroke="#333" stroke-width="2"/><line x1="244.12841111174396" y1="352.6734626055517" x2="211.30497361596358" y2="376.5210858615619" stroke="#333" stroke-width="2"/><line x1="251.81218108953942" y1="367.7537102858582" x2="213.22591611041247" y2="380.29114778163853" stroke="#333" stroke-width="2"/><circle cx="200.3638277840368" cy="384.47029361356533" r="19.32" fill="#222"/>
      </g>
    </g>
  
    <g>
      <g>
        <animateTransform attributeName="transform" attributeType="XML"
          type="rotate"
          from="0 80.86818847976915 297.5794251240002"
          to="360 80.86818847976915 297.5794251240002"
          dur="4.31s"
          repeatCount="indefinite"/>
        <path d="M204.68532132942363,287.83480543460183 L167.5401814745273,304.400658906579 L201.63653259316058,326.57333931490365 L161.19027503630042,330.8499227338211 L186.7660968925474,362.473746861721 L146.97788312903583,354.04243844582635 L161.52963608237795,392.02184605152405 L126.29421369617374,371.70796101294496 L128.3974707795133,412.325263061902 L101.16392841340156,382.1172660033742 L90.6128081691675,421.3965579736547 L74.04695469719032,384.25141811875835 L51.87427428886573,418.3477692373916 L47.597690869948245,377.9015116805314 L15.973866742048301,403.4773335367785 L24.405175157942992,363.6891197732669 L-13.574232447754682,378.24087272660904 L6.739652590824377,343.00545034040476 L-33.877649458132666,345.10870742374436 L-3.669652399604857,317.8751650576326 L-42.94894436988535,307.32404481339853 L-5.803804514988997,290.75819134142137 L-39.90015563362229,268.5855109330967 L0.5461019232378561,264.30892751417935 L-25.02971993300912,232.68510338627937 L14.758493830502445,241.116411802174 L0.20674087716027145,203.13700419647637 L35.44216326336458,223.4508892350554 L33.33890618002503,182.83358718609836 L60.572448546136755,213.04158424462616 L71.12356879037073,173.76229227434567 L87.68942226234793,210.907432129242 L109.86210267067253,176.81108101060872 L114.13868608959007,217.25733856746893 L145.76251021749002,191.68151671122195 L137.33120180159534,231.46973047473352 L175.31060940729293,216.91797752139132 L154.99672436871393,252.1533999075956 L195.61402641767097,250.05014282425606 L165.40602935914313,277.2836851903677 Z" fill="#E5E4E2" stroke="#222" stroke-width="3"/>
        <line x1="150.42018847976914" y1="297.5794251240002" x2="98.25618847976915" y2="297.5794251240002" stroke="#333" stroke-width="2"/><line x1="147.01607130112967" y1="319.0721751167665" x2="97.40515918510928" y2="302.9526126221918" stroke="#333" stroke-width="2"/><line x1="137.1369384725355" y1="338.4610649914463" x2="94.93537597796073" y2="307.79983509086173" stroke="#333" stroke-width="2"/><line x1="121.74982834721524" y1="353.8481751167665" x2="91.08859844663067" y2="311.64661262219175" stroke="#333" stroke-width="2"/><line x1="102.3609384725355" y1="363.72730794536074" x2="86.24137597796073" y2="314.1163958293403" stroke="#333" stroke-width="2"/><line x1="80.86818847976915" y1="367.1314251240002" x2="80.86818847976915" y2="314.96742512400016" stroke="#333" stroke-width="2"/><line x1="59.37543848700281" y1="363.72730794536074" x2="75.49500098157756" y2="314.1163958293403" stroke="#333" stroke-width="2"/><line x1="39.986548612323055" y1="353.8481751167665" x2="70.64777851290762" y2="311.64661262219175" stroke="#333" stroke-width="2"/><line x1="24.5994384870028" y1="338.4610649914463" x2="66.80100098157756" y2="307.79983509086173" stroke="#333" stroke-width="2"/><line x1="14.72030565840862" y1="319.0721751167665" x2="64.331217774429" y2="302.9526126221918" stroke="#333" stroke-width="2"/><line x1="11.316188479769139" y1="297.5794251240002" x2="63.48018847976914" y2="297.5794251240002" stroke="#333" stroke-width="2"/><line x1="14.72030565840862" y1="276.0866751312338" x2="64.331217774429" y2="292.20623762580857" stroke="#333" stroke-width="2"/><line x1="24.599438487002793" y1="256.6977852565541" x2="66.80100098157756" y2="287.3590151571387" stroke="#333" stroke-width="2"/><line x1="39.98654861232304" y1="241.31067513123384" x2="70.64777851290762" y2="283.5122376258086" stroke="#333" stroke-width="2"/><line x1="59.37543848700279" y1="231.43154230263966" x2="75.49500098157756" y2="281.04245441866004" stroke="#333" stroke-width="2"/><line x1="80.86818847976913" y1="228.02742512400016" x2="80.86818847976915" y2="280.1914251240002" stroke="#333" stroke-width="2"/><line x1="102.36093847253548" y1="231.43154230263966" x2="86.24137597796073" y2="281.04245441866004" stroke="#333" stroke-width="2"/><line x1="121.74982834721523" y1="241.31067513123384" x2="91.08859844663067" y2="283.5122376258086" stroke="#333" stroke-width="2"/><line x1="137.1369384725355" y1="256.6977852565541" x2="94.93537597796073" y2="287.35901515713863" stroke="#333" stroke-width="2"/><line x1="147.01607130112967" y1="276.08667513123385" x2="97.40515918510928" y2="292.20623762580857" stroke="#333" stroke-width="2"/><circle cx="80.86818847976915" cy="297.5794251240002" r="24.840000000000003" fill="#222"/>
      </g>
    </g>
  
    <g>
      <g>
        <animateTransform attributeName="transform" attributeType="XML"
          type="rotate"
          from="0 173.27991715352664 52.143707740299135"
          to="-360 173.27991715352664 52.143707740299135"
          dur="5.3s"
          repeatCount="indefinite"/>
        <path d="M323.78124711007104,32.32983176129531 L278.63084812310774,66.01342092560182 L313.52483018874,110.23505277331977 L257.58164309287326,116.83069718676579 L265.6899020770504,172.57474479650864 L213.94385867664107,150.31514686494847 L193.0937931325305,202.64503769684356 L159.41020396822398,157.49463870988023 L115.18857212050602,192.38862077551246 L108.59292770705999,136.4454336796458 L52.84888009731712,144.55369266382291 L75.1084780288773,92.8076492634136 L22.778587196982215,71.95758371930296 L67.92898618394553,38.27399455499648 L33.03500411831328,-5.947637292721417 L88.97819121417999,-12.54328170616752 L80.8699322300028,-68.28732931591034 L132.61597563041224,-46.027731384350204 L153.4660411745228,-98.35762221624529 L187.14963033882938,-53.207223229281965 L231.3712621865473,-88.1012052949142 L237.9669065999933,-32.15801819904752 L293.7109542097361,-40.2662771832247 L271.451356278176,11.479766217184718 Z" fill="#FFD700" stroke="#222" stroke-width="3"/>
        <line x1="258.2879171535267" y1="52.143707740299135" x2="194.53191715352665" y2="52.143707740299135" stroke="#333" stroke-width="2"/><line x1="246.8990046784342" y1="94.64770774029913" x2="191.68468903475355" y2="62.76970774029913" stroke="#333" stroke-width="2"/><line x1="215.78391715352666" y1="125.7627952652067" x2="183.90591715352664" y2="70.54847962152603" stroke="#333" stroke-width="2"/><line x1="173.27991715352664" y1="137.15170774029914" x2="173.27991715352664" y2="73.39570774029914" stroke="#333" stroke-width="2"/><line x1="130.77591715352665" y1="125.7627952652067" x2="162.65391715352663" y2="70.54847962152603" stroke="#333" stroke-width="2"/><line x1="99.66082962861907" y1="94.64770774029913" x2="154.87514527229973" y2="62.76970774029913" stroke="#333" stroke-width="2"/><line x1="88.27191715352663" y1="52.14370774029914" x2="152.02791715352663" y2="52.143707740299135" stroke="#333" stroke-width="2"/><line x1="99.66082962861907" y1="9.639707740299123" x2="154.87514527229973" y2="41.51770774029913" stroke="#333" stroke-width="2"/><line x1="130.7759171535266" y1="-21.47537978460842" x2="162.65391715352663" y2="33.73893585907224" stroke="#333" stroke-width="2"/><line x1="173.2799171535266" y1="-32.864292259700875" x2="173.27991715352664" y2="30.891707740299132" stroke="#333" stroke-width="2"/><line x1="215.78391715352666" y1="-21.475379784608435" x2="183.90591715352664" y2="33.73893585907224" stroke="#333" stroke-width="2"/><line x1="246.89900467843418" y1="9.639707740299094" x2="191.68468903475352" y2="41.51770774029912" stroke="#333" stroke-width="2"/><circle cx="173.27991715352664" cy="52.143707740299135" r="30.360000000000003" fill="#222"/>
      </g>
    </g>
  
    <g>
      <g>
        <animateTransform attributeName="transform" attributeType="XML"
          type="rotate"
          from="0 459.8155467401514 94.57130705164843"
          to="360 459.8155467401514 94.57130705164843"
          dur="3.54s"
          repeatCount="indefinite"/>
        <path d="M635.768426044491,59.57210328195502 L582.982562253189,119.07074969043381 L608.981195187228,194.24060685536506 L529.584056602753,198.98726096460206 L494.81475050984477,270.524186355988 L435.316104101366,217.73832256468611 L360.14624693643475,243.73695549872502 L355.39959282719775,164.3398169142501 L283.86266743581183,129.57051082134183 L336.6485312271137,70.07186441286309 L310.6498982930748,-5.097992752068222 L390.04703687754966,-9.844646861305137 L424.81634297045787,-81.38157225269109 L484.3149893789368,-28.59570846138925 L559.4848465438679,-54.594341395428216 L564.2315006531051,24.802797189046785 Z" fill="#C9AE5D" stroke="#222" stroke-width="3"/>
        
      </g>
    </g>
  
  <text x="50%" y="95%" text-anchor="middle" font-size="32" fill="#fff" opacity="0.7" font-family="Arial">Gears Collection #49</text>
</svg>