<svg width="512" height="512" viewBox="0 0 512 512" xmlns="http://www.w3.org/2000/svg">
  <rect width="100%" height="100%" fill="#8ec6f3" />
  
    <g>
      <g>
        <animateTransform attributeName="transform" attributeType="XML"
          type="rotate"
          from="0 332.9129558946157 319.9092889614092"
          to="360 332.9129558946157 319.9092889614092"
          dur="3.92s"
          repeatCount="indefinite"/>
        <path d="M401.32265132940864,310.90298169822563 L380.79974269897076,326.21370404563766 L396.6606436378945,346.3144457946004 L371.23192223068236,349.3124659825304 L374.91749449621744,374.6506694415044 L351.39656567784954,364.5326703817043 L341.91926315779926,388.3189843962021 L326.60854081038724,367.7960757657642 L306.5077990614245,383.65697670468796 L303.5097788734945,358.2282552974758 L278.1715754145205,361.9138275630109 L288.2895744743206,338.392898744643 L264.5032604598228,328.9155962245927 L285.0261690902607,313.6048738771807 L269.16526815133693,293.50413212821803 L294.5939895585491,290.50611194028795 L290.908417293014,265.167908481314 L314.4293461113819,275.285907541114 L323.9066486314322,251.49959352661625 L339.21737097884426,272.02250215705413 L359.3181127278069,256.1616012181304 L362.31613291573694,281.59032262534254 L387.6543363747109,277.90475035980745 L377.5363373149109,301.42567917817536 Z" fill="#E5E4E2" stroke="#222" stroke-width="3"/>
        
      </g>
    </g>
  
    <g>
      <g>
        <animateTransform attributeName="transform" attributeType="XML"
          type="rotate"
          from="0 182.86998205915955 375.38174264087604"
          to="-360 182.86998205915955 375.38174264087604"
          dur="3.75s"
          repeatCount="indefinite"/>
        <path d="M279.17219649777974,367.80259399356623 L250.28153216619364,380.68714669399293 L276.80091636957513,397.9325647893565 L245.34271604757276,401.2587963374034 L265.23502193576485,425.8551039924367 L234.28863345303364,419.2974196689631 L245.6066635278553,448.83695891783907 L218.20133500525202,433.03727055449974 L219.83720162562724,464.62850548146633 L198.65555756309587,441.13339665816693 L190.4491307064694,471.68395707949617 L177.5645780060427,442.79329274791013 L160.3191599106791,469.3126769512916 L156.9929283626322,437.85447662928925 L132.3966207075989,457.74678251748134 L138.95430503107255,426.8003940347501 L109.41476578219658,438.1184241095718 L125.21445414553585,410.7130955869685 L93.62321921856926,412.34896220734373 L117.11832804186868,391.1673181448124 L86.5677676205394,382.96089128818585 L115.45843195212545,370.07633858775915 L88.939047748744,352.83092049239553 L120.39724807074634,349.5046889443487 L100.50494218255425,324.9083812893154 L131.45133066528547,331.46606561278907 L120.13330059046378,301.92652636391307 L147.53862911306712,317.72621472725234 L145.90276249269192,286.13497980028575 L167.08440655522324,309.63008862358515 L175.29083341184966,279.0795282022559 L188.17538611227639,307.9701925338419 L205.42080420763995,281.45080833046046 L208.74703575568694,312.90900865246283 L233.34334341072022,293.01670276427075 L226.7856590872466,323.96309124700196 L256.3251983361225,312.64506117218025 L240.52550997278325,340.0503896947836 L272.11674489974985,338.4145230744084 L248.62163607645044,359.5961671369397 Z" fill="#B87333" stroke="#222" stroke-width="3"/>
        <line x1="236.96598205915956" y1="375.38174264087604" x2="196.39398205915955" y2="375.38174264087604" stroke="#333" stroke-width="2"/><line x1="234.31833536466218" y1="392.0983259685832" x2="195.73207038553522" y2="379.56088847280284" stroke="#333" stroke-width="2"/><line x1="226.6345653868667" y1="407.17857364888965" x2="193.81112789108636" y2="383.33095039287946" stroke="#333" stroke-width="2"/><line x1="214.66681306717317" y1="419.1463259685832" x2="190.81918981116297" y2="386.32288847280284" stroke="#333" stroke-width="2"/><line x1="199.5865653868667" y1="426.83009594637866" x2="187.04912789108636" y2="388.2438309672517" stroke="#333" stroke-width="2"/><line x1="182.86998205915955" y1="429.47774264087604" x2="182.86998205915955" y2="388.90574264087604" stroke="#333" stroke-width="2"/><line x1="166.1533987314524" y1="426.83009594637866" x2="178.69083622723278" y2="388.2438309672517" stroke="#333" stroke-width="2"/><line x1="151.07315105114594" y1="419.1463259685832" x2="174.92077430715614" y2="386.32288847280284" stroke="#333" stroke-width="2"/><line x1="139.1053987314524" y1="407.17857364888965" x2="171.92883622723278" y2="383.33095039287946" stroke="#333" stroke-width="2"/><line x1="131.42162875365693" y1="392.0983259685832" x2="170.00789373278388" y2="379.56088847280284" stroke="#333" stroke-width="2"/><line x1="128.77398205915955" y1="375.38174264087604" x2="169.34598205915955" y2="375.38174264087604" stroke="#333" stroke-width="2"/><line x1="131.42162875365693" y1="358.6651593131689" x2="170.00789373278388" y2="371.20259680894924" stroke="#333" stroke-width="2"/><line x1="139.1053987314524" y1="343.58491163286243" x2="171.92883622723275" y2="367.4325348888726" stroke="#333" stroke-width="2"/><line x1="151.0731510511459" y1="331.6171593131689" x2="174.92077430715614" y2="364.44059680894924" stroke="#333" stroke-width="2"/><line x1="166.1533987314524" y1="323.9333893353734" x2="178.69083622723275" y2="362.5196543145004" stroke="#333" stroke-width="2"/><line x1="182.86998205915955" y1="321.28574264087604" x2="182.86998205915955" y2="361.85774264087604" stroke="#333" stroke-width="2"/><line x1="199.5865653868667" y1="323.9333893353734" x2="187.04912789108633" y2="362.5196543145004" stroke="#333" stroke-width="2"/><line x1="214.66681306717317" y1="331.6171593131689" x2="190.81918981116297" y2="364.44059680894924" stroke="#333" stroke-width="2"/><line x1="226.6345653868667" y1="343.58491163286243" x2="193.81112789108633" y2="367.4325348888726" stroke="#333" stroke-width="2"/><line x1="234.31833536466218" y1="358.6651593131689" x2="195.73207038553522" y2="371.20259680894924" stroke="#333" stroke-width="2"/><circle cx="182.86998205915955" cy="375.38174264087604" r="19.32" fill="#222"/>
      </g>
    </g>
  
    <g>
      <g>
        <animateTransform attributeName="transform" attributeType="XML"
          type="rotate"
          from="0 311.2733470625346 84.6965934241102"
          to="360 311.2733470625346 84.6965934241102"
          dur="5.09s"
          repeatCount="indefinite"/>
        <path d="M434.87529011522145,72.52286459517877 L397.79470719941537,93.2182036043622 L430.1253367604749,120.74995033911443 L387.94758178498057,125.67982572376243 L407.2812453701865,163.48823931723496 L366.42749918772193,151.90212223946656 L369.8208217763235,194.2312144561759 L336.5106969030375,167.89298621266846 L323.447075891466,208.29853647679707 L302.7517368822826,171.21795356099102 L275.2199901475303,203.54858312205056 L270.29011476288235,161.37082814655622 L232.48170116940983,180.70449173176218 L244.06781824717822,139.85074554929753 L201.7387260304689,143.24406813789915 L228.07695427397636,109.93394326461316 L187.67140400984772,96.87032225304166 L224.7519869256538,76.17498324385821 L192.42135736459423,48.64323650910601 L234.5991123400886,43.71336112445797 L215.26544875488264,5.904947530985467 L256.1191949373473,17.49106460875383 L252.72587234874564,-24.838027607955482 L286.0359972220316,1.5002006355519768 L299.09961823360317,-38.90534962857666 L319.79495724278655,-1.8247667127705967 L347.3267039775388,-34.15539627383015 L352.2565793621868,8.022358701664217 L390.06499295565936,-11.311304883541723 L378.4788758778909,29.54244129892283 L420.80796809460026,26.14911871032126 L394.4697398510928,59.45924358360716 Z" fill="#C0C0C0" stroke="#222" stroke-width="3"/>
        
      </g>
    </g>
  
  <text x="50%" y="95%" text-anchor="middle" font-size="32" fill="#fff" opacity="0.7" font-family="Arial">Gears Collection #54</text>
</svg>