<svg width="512" height="512" viewBox="0 0 512 512" xmlns="http://www.w3.org/2000/svg">
  <rect width="100%" height="100%" fill="#f5e663" />
  
    <g>
      <g>
        <animateTransform attributeName="transform" attributeType="XML"
          type="rotate"
          from="0 334.0379729166533 318.53059077811184"
          to="360 334.0379729166533 318.53059077811184"
          dur="5.39s"
          repeatCount="indefinite"/>
        <path d="M393.2992733523616,309.144522875698 L375.5208832216491,325.10083830980153 L387.4983643679554,345.77002076248465 L363.7364577264883,348.22907558794685 L361.2774029010261,371.99098222941393 L340.608220448343,360.0135010831076 L324.65190501423945,377.7918912138201 L314.97037192759234,355.9528647940233 L291.61156604546045,360.9569976493047 L296.61569890074185,337.5981917671728 L274.776672480945,327.9166586805257 L292.5550626116575,311.96034324642216 L280.5775814653512,291.2911607937391 L304.3394881068183,288.83210596827684 L306.7985429322805,265.07019932680976 L327.4677253849636,277.0476804731161 L343.42404081906716,259.26929034240356 L353.10557390571427,281.1083167622004 L376.46437978784616,276.104183906919 L371.46024693256476,299.4629897890509 Z" fill="#9DE09D" stroke="#222" stroke-width="3"/>
        
      </g>
    </g>
  
    <g>
      <g>
        <animateTransform attributeName="transform" attributeType="XML"
          type="rotate"
          from="0 238.48463228085137 394.90000681664134"
          to="-360 238.48463228085137 394.90000681664134"
          dur="4.86s"
          repeatCount="indefinite"/>
        <path d="M322.0801493213159,386.66656702895824 L297.00149420917654,400.6634146680195 L318.8676204823569,419.28391970601615 L290.34160262453463,422.61813494201 L303.4175103633213,448.18904268638755 L275.7869573896737,440.3530214743703 L278.0819581742352,468.98139302190316 L255.55337130341377,451.1680985576952 L246.71807206853447,478.49552385710587 L232.7212244294732,453.4168687449665 L214.10071939147653,475.2829950181469 L210.76650415548272,446.7569771603246 L185.19559641110516,459.83288489911126 L193.03161762312243,432.2023319254637 L164.40324607558955,434.49733271002515 L182.2165405397975,411.96874583920373 L154.88911524038684,403.13344660432443 L179.9677703525262,389.13659896526315 L158.10164407934582,370.5160939272665 L186.6276619371681,367.1818786912727 L173.55175419838145,341.6109709468951 L201.18230717202903,349.4469921589124 L198.88730638746756,320.8186206113795 L221.41589325828897,338.6319150755875 L230.2511924931683,311.3044897761768 L244.2480401322295,336.38314488831617 L262.8685451702262,314.5170186151358 L266.20276040622,343.0430364729581 L291.7736681505976,329.9671287341714 L283.93764693858026,357.59768170781894 L312.5660184861132,355.3026809232575 L294.75272402190524,377.8312677940789 Z" fill="#B87333" stroke="#222" stroke-width="3"/>
        <line x1="285.5246322808514" y1="394.90000681664134" x2="250.24463228085136" y2="394.90000681664134" stroke="#333" stroke-width="2"/><line x1="281.9439254901823" y1="412.9014354750952" x2="249.3494555831841" y2="399.40036398125477" stroke="#333" stroke-width="2"/><line x1="271.74693526786655" y1="428.1623098036565" x2="246.80020802760518" y2="403.2155825633951" stroke="#333" stroke-width="2"/><line x1="256.4860609393052" y1="438.3593000259723" x2="242.98498944546483" y2="405.7648301189741" stroke="#333" stroke-width="2"/><line x1="238.48463228085137" y1="441.94000681664136" x2="238.48463228085137" y2="406.6600068166413" stroke="#333" stroke-width="2"/><line x1="220.48320362239755" y1="438.3593000259723" x2="233.9842751162379" y2="405.7648301189741" stroke="#333" stroke-width="2"/><line x1="205.2223292938362" y1="428.1623098036565" x2="230.16905653409756" y2="403.2155825633951" stroke="#333" stroke-width="2"/><line x1="195.02533907152045" y1="412.9014354750952" x2="227.61980897851865" y2="399.40036398125477" stroke="#333" stroke-width="2"/><line x1="191.44463228085138" y1="394.90000681664134" x2="226.72463228085138" y2="394.90000681664134" stroke="#333" stroke-width="2"/><line x1="195.02533907152042" y1="376.89857815818755" x2="227.61980897851865" y2="390.3996496520279" stroke="#333" stroke-width="2"/><line x1="205.22232929383617" y1="361.63770382962616" x2="230.16905653409756" y2="386.58443106988756" stroke="#333" stroke-width="2"/><line x1="220.48320362239755" y1="351.4407136073104" x2="233.9842751162379" y2="384.0351835143086" stroke="#333" stroke-width="2"/><line x1="238.48463228085137" y1="347.8600068166413" x2="238.48463228085137" y2="383.14000681664135" stroke="#333" stroke-width="2"/><line x1="256.4860609393052" y1="351.4407136073104" x2="242.98498944546483" y2="384.0351835143086" stroke="#333" stroke-width="2"/><line x1="271.74693526786655" y1="361.63770382962616" x2="246.80020802760518" y2="386.58443106988756" stroke="#333" stroke-width="2"/><line x1="281.9439254901823" y1="376.89857815818755" x2="249.3494555831841" y2="390.3996496520279" stroke="#333" stroke-width="2"/><circle cx="238.48463228085137" cy="394.90000681664134" r="16.8" fill="#222"/>
      </g>
    </g>
  
    <g>
      <g>
        <animateTransform attributeName="transform" attributeType="XML"
          type="rotate"
          from="0 124.95651871219255 132.59981356589427"
          to="360 124.95651871219255 132.59981356589427"
          dur="4.86s"
          repeatCount="indefinite"/>
        <path d="M231.62685949646743,115.70489134154933 L199.62575726118496,144.42625912293573 L221.18522332453628,181.63078753776531 L178.41379136989553,186.05708622359725 L173.98749268406362,228.82851817823797 L136.78296426923401,207.26905211488668 L108.0615964878476,239.27015435016915 L90.63483693188282,199.95990679453487 L48.58898634404542,208.96734593404142 L57.596425483551954,166.921495346204 L18.286177927917677,149.49473579023922 L50.28728016320014,120.77336800885283 L28.727814099848786,83.56883959402327 L71.49924605448955,79.14254090819128 L75.92554474032147,36.37110895355055 L113.13007315515108,57.93057501690187 L141.85144093653747,25.92947278161938 L159.27820049250226,65.23972033725364 L201.32405108033964,56.23228119774711 L192.31661194083313,98.27813178558452 Z" fill="#8EC6F3" stroke="#222" stroke-width="3"/>
        
      </g>
    </g>
  
    <g>
      <g>
        <animateTransform attributeName="transform" attributeType="XML"
          type="rotate"
          from="0 386.84039673188613 79.13623722468569"
          to="-360 386.84039673188613 79.13623722468569"
          dur="4.55s"
          repeatCount="indefinite"/>
        <path d="M518.2047806526161,66.19797470118368 L478.7954654763971,88.19302099113709 L513.1565210485377,117.4538146222747 L468.32992155767414,122.69329570740786 L488.8777765757674,162.8761507342869 L445.45833618860695,150.56240311540256 L449.06476599291784,195.54984411866855 L413.66270091019845,167.55752424634179 L399.7786592553881,210.5006211454157 L377.78361296543477,171.09130596919667 L348.5228193342971,205.45236154133727 L343.283338249164,160.62576205047372 L303.10048322228494,181.17361706856698 L315.4142308411692,137.75417668140653 L270.42678983790324,141.3606064857174 L298.41910971023003,105.95854140299801 L255.47601281115615,92.07449974818772 L294.88532798737515,70.07945345823428 L260.5242724152346,40.81865982709669 L305.3508719060981,35.57917874196351 L284.80301688800483,-4.603676284915494 L328.2224572751653,7.71007133396877 L324.6160274708544,-37.27736966929717 L360.0180925535738,-9.285049796970398 L373.90213420838415,-52.22814669604432 L395.8971804983375,-12.818831519825295 L425.1579741294751,-47.179887091965895 L430.3974552146083,-2.353287601102309 L470.5803102414874,-22.901142619195582 L458.266562622603,20.51829776796481 L503.25400362586896,16.91186796365396 L475.26168375354223,52.31393304637328 Z" fill="#B87333" stroke="#222" stroke-width="3"/>
        
      </g>
    </g>
  
  <text x="50%" y="95%" text-anchor="middle" font-size="32" fill="#fff" opacity="0.7" font-family="Arial">Gears Collection #34</text>
</svg>