<svg width="512" height="512" viewBox="0 0 512 512" xmlns="http://www.w3.org/2000/svg">
  <rect width="100%" height="100%" fill="#8ec6f3" />
  
    <g>
      <g>
        <animateTransform attributeName="transform" attributeType="XML"
          type="rotate"
          from="0 337.4646182391166 313.9958272219217"
          to="360 337.4646182391166 313.9958272219217"
          dur="4.81s"
          repeatCount="indefinite"/>
        <path d="M403.261162265503,308.8175269038839 L383.5221990575871,317.6206374445481 L401.64103298536327,329.4032212364114 L380.147852641138,331.6758017971888 L393.73886908648666,348.4807324931743 L372.595373849838,344.00032705477616 L380.3281894289087,364.18262095152375 L361.60405192899344,353.3878028150807 L362.7217247752125,374.9718763676666 L348.24979404925944,358.9193175442943 L342.64291855715436,379.7923712483081 L333.83980801649017,360.0534080403922 L322.05722422462685,378.17224196816835 L319.78464366384947,356.6790616239431 L302.979712967864,370.27007806929174 L307.4601184062621,349.1265828326431 L287.2778245095146,356.8593984117138 L298.07264264595756,338.1352609117985 L276.48856909337167,339.2529337580176 L292.54112791674396,324.7810030320645 L271.6680742127302,319.17412753995944 L291.4070374206461,310.37101699929525 L273.2882034928699,298.5884332074319 L294.7813838370951,296.31585264665455 L281.1903673917465,279.51092195066906 L302.33386262839514,283.9913273890672 L294.60104704932445,263.80903349231966 L313.3251845492398,274.6038516287626 L312.20751170302066,253.01977807617675 L326.6794424289738,269.072336899549 L332.28631792107876,248.19928319553523 L341.089428461743,267.93824640345116 L352.87201225360633,249.819412475675 L355.14459281438377,271.31259281990026 L371.9495235103692,257.7215763745516 L367.4691180719711,278.8650716112003 L387.6514119687186,271.13225603212953 L376.8565938322756,289.8563935320448 L398.4406673848615,288.73872068582574 L382.3881085614892,303.2106514117788 Z" fill="#B87333" stroke="#222" stroke-width="3"/>
        <line x1="374.42461823911657" y1="313.9958272219217" x2="346.7046182391166" y2="313.9958272219217" stroke="#333" stroke-width="2"/><line x1="372.6156670813855" y1="325.41709533401973" x2="346.2523804496838" y2="316.8511442499462" stroke="#333" stroke-width="2"/><line x1="367.36588635121467" y1="335.7203701466515" x2="344.9399352671411" y2="319.4269629531041" stroke="#333" stroke-width="2"/><line x1="359.1891611638464" y1="343.89709533401975" x2="342.89575397029904" y2="321.4711442499462" stroke="#333" stroke-width="2"/><line x1="348.88588635121465" y1="349.14687606419056" x2="340.3199352671411" y2="322.7835894324889" stroke="#333" stroke-width="2"/><line x1="337.4646182391166" y1="350.95582722192165" x2="337.4646182391166" y2="323.2358272219217" stroke="#333" stroke-width="2"/><line x1="326.0433501270185" y1="349.14687606419056" x2="334.6093012110921" y2="322.7835894324889" stroke="#333" stroke-width="2"/><line x1="315.7400753143868" y1="343.89709533401975" x2="332.03348250793414" y2="321.4711442499462" stroke="#333" stroke-width="2"/><line x1="307.5633501270185" y1="335.7203701466515" x2="329.9893012110921" y2="319.4269629531041" stroke="#333" stroke-width="2"/><line x1="302.3135693968477" y1="325.41709533401973" x2="328.67685602854937" y2="316.8511442499462" stroke="#333" stroke-width="2"/><line x1="300.5046182391166" y1="313.9958272219217" x2="328.2246182391166" y2="313.9958272219217" stroke="#333" stroke-width="2"/><line x1="302.3135693968477" y1="302.5745591098236" x2="328.67685602854937" y2="311.14051019389717" stroke="#333" stroke-width="2"/><line x1="307.5633501270185" y1="292.27128429719187" x2="329.9893012110921" y2="308.5646914907392" stroke="#333" stroke-width="2"/><line x1="315.7400753143868" y1="284.0945591098236" x2="332.03348250793414" y2="306.52051019389717" stroke="#333" stroke-width="2"/><line x1="326.0433501270185" y1="278.8447783796528" x2="334.6093012110921" y2="305.20806501135445" stroke="#333" stroke-width="2"/><line x1="337.4646182391166" y1="277.0358272219217" x2="337.4646182391166" y2="304.75582722192166" stroke="#333" stroke-width="2"/><line x1="348.88588635121465" y1="278.8447783796528" x2="340.3199352671411" y2="305.20806501135445" stroke="#333" stroke-width="2"/><line x1="359.1891611638464" y1="284.0945591098236" x2="342.89575397029904" y2="306.52051019389717" stroke="#333" stroke-width="2"/><line x1="367.36588635121467" y1="292.27128429719187" x2="344.9399352671411" y2="308.5646914907392" stroke="#333" stroke-width="2"/><line x1="372.6156670813855" y1="302.5745591098236" x2="346.2523804496838" y2="311.14051019389717" stroke="#333" stroke-width="2"/><circle cx="337.4646182391166" cy="313.9958272219217" r="13.200000000000001" fill="#222"/>
      </g>
    </g>
  
    <g>
      <g>
        <animateTransform attributeName="transform" attributeType="XML"
          type="rotate"
          from="0 125.46660534449597 306.60664857220274"
          to="-360 125.46660534449597 306.60664857220274"
          dur="5.14s"
          repeatCount="indefinite"/>
        <path d="M216.09116525375447,288.5803028179125 L188.9037972809769,319.22509060020593 L202.29439752125114,357.941338103214 L161.40088801620385,360.3861030959314 L143.49295109878622,397.23120848146124 L112.84816331649282,370.0438405086837 L74.13191581348472,383.4344407489579 L71.68715082076736,342.5409312439106 L34.842045435237495,324.63299432649296 L62.02941340801503,293.9882065441996 L48.63881316774081,255.2719590411915 L89.53232267278807,252.82719404847415 L107.44025959020568,215.98208866294425 L138.08504737249916,243.16945663572182 L176.80129487550718,229.77885639544755 L179.2460598682246,270.67236590049487 Z" fill="#FFD700" stroke="#222" stroke-width="3"/>
        
      </g>
    </g>
  
    <g>
      <g>
        <animateTransform attributeName="transform" attributeType="XML"
          type="rotate"
          from="0 190.66725054823388 88.27513049916317"
          to="360 190.66725054823388 88.27513049916317"
          dur="5.43s"
          repeatCount="indefinite"/>
        <path d="M308.45090007944253,72.76861886342104 L273.11580522007995,99.12968864418266 L300.4241390105748,133.73792226413582 L256.64251432685296,138.89973093552837 L262.9881083144699,182.5255073257619 L222.49120478371475,165.10495242280177 L206.173762183976,206.05878003037185 L179.8126924032144,170.72368517100927 L145.20445878326123,198.03201896150404 L140.04265011186868,154.25039427778228 L96.41687372163513,160.59598826539917 L113.83742862459528,120.09908473464404 L72.88360101702521,103.7816421349053 L108.2186958763878,77.4205723541437 L80.910362085893,42.81233873419057 L124.69198676961477,37.65053006279796 L118.34639278199784,-5.975246327435542 L158.84329631275304,11.445308575524564 L175.16073891249175,-29.5085190320455 L201.5218086932534,5.8265758273171 L236.13004231320656,-21.481757963177685 L241.29185098459908,22.29986672054406 L284.9176273748326,15.954272732927123 L267.49707247187246,56.45117626368232 Z" fill="#C9AE5D" stroke="#222" stroke-width="3"/>
        <line x1="257.1952505482339" y1="88.27513049916317" x2="207.29925054823389" y2="88.27513049916317" stroke="#333" stroke-width="2"/><line x1="248.28218861120502" y1="121.53913049916316" x2="205.07098506397668" y2="96.59113049916317" stroke="#333" stroke-width="2"/><line x1="223.9312505482339" y1="145.8900685621343" x2="198.98325054823388" y2="102.67886501490595" stroke="#333" stroke-width="2"/><line x1="190.66725054823388" y1="154.80313049916316" x2="190.66725054823388" y2="104.90713049916317" stroke="#333" stroke-width="2"/><line x1="157.4032505482339" y1="145.8900685621343" x2="182.35125054823388" y2="102.67886501490595" stroke="#333" stroke-width="2"/><line x1="133.05231248526275" y1="121.53913049916316" x2="176.26351603249108" y2="96.59113049916317" stroke="#333" stroke-width="2"/><line x1="124.13925054823387" y1="88.27513049916318" x2="174.03525054823388" y2="88.27513049916317" stroke="#333" stroke-width="2"/><line x1="133.05231248526275" y1="55.01113049916316" x2="176.2635160324911" y2="79.95913049916317" stroke="#333" stroke-width="2"/><line x1="157.40325054823384" y1="30.66019243619204" x2="182.35125054823388" y2="73.87139598342038" stroke="#333" stroke-width="2"/><line x1="190.66725054823388" y1="21.747130499163163" x2="190.66725054823388" y2="71.64313049916316" stroke="#333" stroke-width="2"/><line x1="223.9312505482339" y1="30.660192436192034" x2="198.98325054823388" y2="73.87139598342038" stroke="#333" stroke-width="2"/><line x1="248.28218861120502" y1="55.01113049916314" x2="205.07098506397665" y2="79.95913049916317" stroke="#333" stroke-width="2"/><circle cx="190.66725054823388" cy="88.27513049916317" r="23.76" fill="#222"/>
      </g>
    </g>
  
  <text x="50%" y="95%" text-anchor="middle" font-size="32" fill="#fff" opacity="0.7" font-family="Arial">Gears Collection #45</text>
</svg>