<svg width="512" height="512" viewBox="0 0 512 512" xmlns="http://www.w3.org/2000/svg">
  <rect width="100%" height="100%" fill="#1e293b" />
  
    <g>
      <g>
        <animateTransform attributeName="transform" attributeType="XML"
          type="rotate"
          from="0 343.67636759894253 304.09214660061554"
          to="360 343.67636759894253 304.09214660061554"
          dur="4.9s"
          repeatCount="indefinite"/>
        <path d="M402.5234844231364,292.38672727964786 L384.8693493758782,312.28594012529294 L393.56454433709524,337.42636058179164 L367.0103173857658,339.0138703173224 L355.3817869199102,362.9392634248094 L335.48257407426513,345.28512837755125 L310.34215361776637,353.98032333876824 L308.75464388223565,327.4260963874388 L284.8292507747487,315.7975659215832 L302.4833858220069,295.8983530759382 L293.7881908607898,270.75793261943943 L320.3424178121192,269.17042288390866 L331.9709482779748,245.24502977642172 L351.87016112361994,262.8991648236798 L377.01058158011864,254.2039698624628 L378.5980913156494,280.75819681379227 Z" fill="#9DE09D" stroke="#222" stroke-width="3"/>
        
      </g>
    </g>
  
    <g>
      <g>
        <animateTransform attributeName="transform" attributeType="XML"
          type="rotate"
          from="0 122.86782707563651 299.31079002324213"
          to="-360 122.86782707563651 299.31079002324213"
          dur="4.06s"
          repeatCount="indefinite"/>
        <path d="M206.1491954310366,288.3465898767578 L181.16478492441655,306.9857301257812 L200.4737078065846,331.45619834190967 L169.51700348476115,335.1059620489549 L174.00378711236905,365.9524706077059 L145.3696128987038,353.6349065349058 L133.83202722212087,382.59215837864224 L115.19288697309749,357.6077478720222 L90.72241875696898,376.91667075419025 L87.07265504992374,345.95996643236674 L56.226146491172756,350.44675005997465 L68.54371056397285,321.8125758463094 L39.586458720236436,310.2749901697265 L64.57086922685646,291.6358499207031 L45.26194634468841,267.16538170457466 L76.21865066651188,263.5156179975294 L71.73186703890396,232.6691094387784 L100.36604125256925,244.9866735115785 L111.90362692915218,216.02942166784206 L130.54276717817558,241.0138321744621 L155.01323539430408,221.70490929229408 L158.66299910134927,252.6616136141175 L189.50950766010024,248.17482998650956 L177.19194358730016,276.80900420017485 Z" fill="#E5E4E2" stroke="#222" stroke-width="3"/>
        
      </g>
    </g>
  
    <g>
      <g>
        <animateTransform attributeName="transform" attributeType="XML"
          type="rotate"
          from="0 227.92074185879105 78.20361291004997"
          to="360 227.92074185879105 78.20361291004997"
          dur="3.97s"
          repeatCount="indefinite"/>
        <path d="M334.59108264306593,61.30869068570503 L302.58998040778346,90.03005846709142 L324.14944647113475,127.23458688192102 L281.37801451649403,131.66088556775296 L276.9517158306621,174.4323175223937 L239.7471874158325,152.87285145904238 L211.0258196344461,184.87395369432483 L193.59906007848133,145.56370613869058 L151.55320949064392,154.5711452781971 L160.56064863015047,112.52529469035971 L121.25040107451618,95.09853513439492 L153.25150330979864,66.37716735300853 L131.69203724644728,29.172638938178977 L174.46346920108806,24.746340252346982 L178.88976788691997,-18.02509170229375 L216.09429630174958,3.534374361057573 L244.81566408313597,-28.466727874224915 L262.24242363910076,10.843519681409347 L304.28827422693814,1.8360805419028168 L295.2808350874316,43.881931129740224 Z" fill="#C0C0C0" stroke="#222" stroke-width="3"/>
        
      </g>
    </g>
  
  <text x="50%" y="95%" text-anchor="middle" font-size="32" fill="#fff" opacity="0.7" font-family="Arial">Gears Collection #65</text>
</svg>