<svg width="512" height="512" viewBox="0 0 512 512" xmlns="http://www.w3.org/2000/svg">
  <rect width="100%" height="100%" fill="#1e293b" />
  
    <g>
      <g>
        <animateTransform attributeName="transform" attributeType="XML"
          type="rotate"
          from="0 355.55282736384913 265.4464048115484"
          to="360 355.55282736384913 265.4464048115484"
          dur="3.88s"
          repeatCount="indefinite"/>
        <path d="M421.23501932421414,258.9772735497974 L401.5303617361046,269.9747966947741 L418.7108895221749,284.60519351034293 L396.2975897767431,287.2249340529095 L406.57151728578975,307.31636156634903 L384.86179709220954,301.15948775690686 L386.665011994365,323.65320825853985 L368.96397945300527,309.65704832237645 L362.0219586256001,331.1285967719134 L351.0244354806234,311.4239391838039 L336.3940386650546,328.6044669698742 L333.77429812248806,306.19116722444244 L313.68287060904856,316.4650947334891 L319.8397444184907,294.7553745399088 L297.3460239168577,296.55858944206426 L311.3421838530211,278.8575569007046 L289.87063540348413,271.9155360732994 L309.57529299159364,260.9180129283227 L292.39476520552336,246.2876161127539 L314.80806495095516,243.6678755701873 L304.53413744190846,223.5764480567478 L326.2438576354887,229.73332186618995 L324.4406427333333,207.23960136455696 L342.14167527469294,221.23576130072036 L349.08369610209814,199.7642128511834 L360.0812192470748,219.4688704392929 L374.71161606264366,202.28834265322263 L377.3313566052102,224.7016423986544 L397.42278411864976,214.42771488960778 L391.2659103092076,236.13743508318797 L413.7596308108406,234.33422018103255 L399.7634708746772,252.0352527223922 Z" fill="#FFD700" stroke="#222" stroke-width="3"/>
        <line x1="392.5128273638491" y1="265.4464048115484" x2="364.79282736384914" y2="265.4464048115484" stroke="#333" stroke-width="2"/><line x1="389.6994148854663" y1="279.59038447176215" x2="364.08947424425344" y2="268.98239972660184" stroke="#333" stroke-width="2"/><line x1="381.6874939965039" y1="291.5810714442032" x2="362.08649402201286" y2="271.98007146971213" stroke="#333" stroke-width="2"/><line x1="369.6968070240629" y1="299.59299233316557" x2="359.08882227890257" y2="273.9830516919527" stroke="#333" stroke-width="2"/><line x1="355.55282736384913" y1="302.4064048115484" x2="355.55282736384913" y2="274.6864048115484" stroke="#333" stroke-width="2"/><line x1="341.4088477036354" y1="299.59299233316557" x2="352.0168324487957" y2="273.9830516919527" stroke="#333" stroke-width="2"/><line x1="329.41816073119435" y1="291.5810714442032" x2="349.0191607056854" y2="271.98007146971213" stroke="#333" stroke-width="2"/><line x1="321.40623984223197" y1="279.59038447176215" x2="347.0161804834448" y2="268.98239972660184" stroke="#333" stroke-width="2"/><line x1="318.59282736384915" y1="265.4464048115484" x2="346.3128273638491" y2="265.4464048115484" stroke="#333" stroke-width="2"/><line x1="321.40623984223197" y1="251.30242515133472" x2="347.0161804834448" y2="261.91040989649497" stroke="#333" stroke-width="2"/><line x1="329.41816073119435" y1="239.31173817889362" x2="349.0191607056854" y2="258.9127381533847" stroke="#333" stroke-width="2"/><line x1="341.40884770363544" y1="231.29981728993124" x2="352.0168324487957" y2="256.9097579311441" stroke="#333" stroke-width="2"/><line x1="355.55282736384913" y1="228.4864048115484" x2="355.55282736384913" y2="256.2064048115484" stroke="#333" stroke-width="2"/><line x1="369.6968070240629" y1="231.29981728993124" x2="359.08882227890257" y2="256.9097579311441" stroke="#333" stroke-width="2"/><line x1="381.6874939965039" y1="239.3117381788936" x2="362.08649402201286" y2="258.9127381533847" stroke="#333" stroke-width="2"/><line x1="389.6994148854663" y1="251.3024251513347" x2="364.08947424425344" y2="261.91040989649497" stroke="#333" stroke-width="2"/><circle cx="355.55282736384913" cy="265.4464048115484" r="13.200000000000001" fill="#222"/>
      </g>
    </g>
  
    <g>
      <g>
        <animateTransform attributeName="transform" attributeType="XML"
          type="rotate"
          from="0 235.93755415467848 394.5550369589772"
          to="-360 235.93755415467848 394.5550369589772"
          dur="4.73s"
          repeatCount="indefinite"/>
        <path d="M326.562114063937,376.528691204687 L299.3747460911594,407.1734789869804 L312.76534633143365,445.88972648998845 L271.87183682638636,448.33449148270586 L253.96389990896873,485.1795968682357 L223.31911212667532,457.99222889545814 L184.60286462366724,471.3828291357324 L182.15809963094986,430.4893196306851 L145.31299424542,412.58138271326743 L172.50036221819755,381.9365949309741 L159.1097619779233,343.220347427966 L200.00327148297058,340.7755824352486 L217.9112084003882,303.9304770497187 L248.55599618268167,331.1178450224963 L287.27224368568966,317.727244782222 L289.71700867840707,358.62075428726934 Z" fill="#C0C0C0" stroke="#222" stroke-width="3"/>
        
      </g>
    </g>
  
    <g>
      <g>
        <animateTransform attributeName="transform" attributeType="XML"
          type="rotate"
          from="0 79.59334603725534 220.21323655779327"
          to="360 79.59334603725534 220.21323655779327"
          dur="5.25s"
          repeatCount="indefinite"/>
        <path d="M197.82129156591233,208.56880028664148 L162.35290790731523,228.3643419475995 L193.27785792224176,254.6990562156234 L152.93391838046455,259.4145891922432 L171.4269878967485,295.57915871643434 L132.34949154830412,284.49678585943843 L135.59527837218386,324.98548276237784 L103.73341979773643,299.79239487728375 L91.23778230840713,338.4411820864502 L71.4422406474491,302.97279842785315 L45.10752637942522,333.8977484427797 L40.39199340280541,293.55380890100247 L4.227423878614275,312.04687841728645 L15.309796735610135,272.96938206884204 L-25.178900167329218,276.2151688927218 L0.014187717764855279,244.35331031827437 L-38.63459949140163,231.85767282894508 L-3.1662158328045535,212.06213116798702 L-34.09116584773108,185.72741689996317 L6.252773694046141,181.0118839233433 L-12.240295822237826,144.8473143991522 L26.837200526206615,155.92968725614804 L23.59141370232679,115.4409903532087 L55.45327227677425,140.63407823830278 L67.94890976610357,101.98529102913628 L87.74445142706156,137.45367468773338 L114.07916569508544,106.52872467280685 L118.7946986717053,146.87266421458406 L154.95926819589644,128.37959469830014 L143.8768953389005,167.45709104674447 L184.3655922418399,164.21130422286473 L159.1725043567458,196.0731627973121 Z" fill="#C0C0C0" stroke="#222" stroke-width="3"/>
        
      </g>
    </g>
  
    <g>
      <g>
        <animateTransform attributeName="transform" attributeType="XML"
          type="rotate"
          from="0 266.13277417196554 36.23347186711996"
          to="-360 266.13277417196554 36.23347186711996"
          dur="3.94s"
          repeatCount="indefinite"/>
        <path d="M410.63359648476853,22.00138309126776 L367.2833497909276,46.1959340102165 L405.0805109202823,78.38280700446789 L355.77125148033235,84.14623619811437 L378.37389200023495,128.3473767276813 L330.61250757435846,114.80225434690854 L334.5795803591004,164.28843945050113 L295.6373087681091,133.4968875909417 L280.36486294781776,180.73429417992298 L256.17031202886903,137.38404748608207 L223.9834390346176,175.1812086154367 L218.22000984097116,125.87194917548679 L174.01886931140422,148.4745896953894 L187.56399169217696,100.71320526951288 L138.0778065885844,104.68027805425486 L168.86935844814383,65.73800646326352 L121.63195185916254,50.46556064297219 L164.98219855300346,26.271009724023422 L127.1850374236488,-5.915863270227945 L176.49429686359872,-11.67929246387444 L153.8916563436961,-55.880432993441346 L201.65304076957264,-42.33531061266865 L197.68596798483063,-91.82149571626118 L236.62823957582196,-61.02994385670175 L251.90068539611335,-108.26735044568306 L276.09523631506204,-64.91710375184213 L308.28210930931346,-102.71426488119678 L314.0455385029599,-53.40500544124684 L358.2466790325269,-76.00764596114945 L344.70155665175406,-28.246261535273007 L394.1877417553467,-32.21333432001495 L363.3961898957872,6.7289372709763065 Z" fill="#E5E4E2" stroke="#222" stroke-width="3"/>
        <line x1="347.44477417196555" y1="36.23347186711996" x2="286.46077417196557" y2="36.23347186711996" stroke="#333" stroke-width="2"/><line x1="341.2552667195233" y1="67.35022711959014" x2="284.913397308855" y2="44.0126606802375" stroke="#333" stroke-width="2"/><line x1="323.6290407638061" y1="93.72973845896053" x2="280.5068408199257" y2="50.6075385150801" stroke="#333" stroke-width="2"/><line x1="297.2495294244357" y1="111.35596441467771" x2="273.9119629850831" y2="55.0140950040094" stroke="#333" stroke-width="2"/><line x1="266.13277417196554" y1="117.54547186711997" x2="266.13277417196554" y2="56.56147186711996" stroke="#333" stroke-width="2"/><line x1="235.01601891949537" y1="111.35596441467771" x2="258.35358535884797" y2="55.0140950040094" stroke="#333" stroke-width="2"/><line x1="208.63650758012497" y1="93.72973845896053" x2="251.7587075240054" y2="50.6075385150801" stroke="#333" stroke-width="2"/><line x1="191.01028162440778" y1="67.35022711959016" x2="247.3521510350761" y2="44.01266068023751" stroke="#333" stroke-width="2"/><line x1="184.82077417196552" y1="36.23347186711997" x2="245.80477417196553" y2="36.23347186711996" stroke="#333" stroke-width="2"/><line x1="191.01028162440775" y1="5.116716614649821" x2="247.3521510350761" y2="28.454283054002424" stroke="#333" stroke-width="2"/><line x1="208.63650758012497" y1="-21.2627947247206" x2="251.7587075240054" y2="21.859405219159818" stroke="#333" stroke-width="2"/><line x1="235.01601891949537" y1="-38.88902068043781" x2="258.353585358848" y2="17.452848730230517" stroke="#333" stroke-width="2"/><line x1="266.13277417196554" y1="-45.07852813288005" x2="266.13277417196554" y2="15.905471867119957" stroke="#333" stroke-width="2"/><line x1="297.24952942443576" y1="-38.889020680437795" x2="273.9119629850831" y2="17.45284873023052" stroke="#333" stroke-width="2"/><line x1="323.6290407638061" y1="-21.262794724720614" x2="280.5068408199257" y2="21.859405219159818" stroke="#333" stroke-width="2"/><line x1="341.2552667195233" y1="5.116716614649793" x2="284.913397308855" y2="28.454283054002417" stroke="#333" stroke-width="2"/><circle cx="266.13277417196554" cy="36.23347186711996" r="29.040000000000006" fill="#222"/>
      </g>
    </g>
  
    <g>
      <g>
        <animateTransform attributeName="transform" attributeType="XML"
          type="rotate"
          from="0 362.6952980858008 18.900625546202434"
          to="360 362.6952980858008 18.900625546202434"
          dur="3.52s"
          repeatCount="indefinite"/>
        <path d="M533.4689971827497,2.0808842656498356 L482.2368874536651,30.674444442589255 L526.9062596974478,68.71347616306817 L468.6316803593252,75.52480157374126 L495.3438918828465,127.76251310868399 L438.8986193795379,111.75464120413439 L443.58697812514197,170.23831450838014 L397.5642935176068,133.84829867435536 L379.5150393663534,189.6743246431514 L350.921479189414,138.4422149140667 L312.8824474689351,183.11158715784947 L306.071122058262,124.83700781972686 L253.83341052331926,151.54921934324813 L269.8412824278688,95.10394683993952 L211.3576091236231,99.79230558554366 L247.74762495764787,53.769620978008454 L191.92159898885183,35.72036682675507 L243.15370871793652,7.126806649815617 L198.48433647415376,-30.91222507066326 L256.7589158122764,-37.723550481336396 L230.0467042887551,-89.9612620162791 L286.4919767920637,-73.95339011172955 L281.8036180464596,-132.43706341597527 L327.8263026539948,-96.04704758195048 L345.8755568052482,-151.87307355074654 L374.46911698218753,-100.64096382166186 L412.5081487026665,-145.3103360654446 L419.31947411333965,-87.03575672732197 L471.55718564828237,-113.7479682508432 L455.5493137437327,-57.30269574753471 L514.0329870479785,-61.991054493138805 L477.6429712139537,-15.9683698856037 Z" fill="#C9AE5D" stroke="#222" stroke-width="3"/>
        <line x1="458.7912980858008" y1="18.900625546202434" x2="386.7192980858008" y2="18.900625546202434" stroke="#333" stroke-width="2"/><line x1="451.47642564200544" y1="55.6749726627581" x2="384.89057997485196" y2="28.094212325341353" stroke="#333" stroke-width="2"/><line x1="430.6454313307033" y1="86.85075879110491" x2="379.6828313970264" y2="35.88815885742805" stroke="#333" stroke-width="2"/><line x1="399.46964520235645" y1="107.68175310240704" x2="371.8888848649397" y2="41.09590743525359" stroke="#333" stroke-width="2"/><line x1="362.6952980858008" y1="114.99662554620244" x2="362.6952980858008" y2="42.924625546202435" stroke="#333" stroke-width="2"/><line x1="325.92095096924515" y1="107.68175310240704" x2="353.5017113066619" y2="41.09590743525359" stroke="#333" stroke-width="2"/><line x1="294.7451648408983" y1="86.85075879110491" x2="345.7077647745752" y2="35.88815885742805" stroke="#333" stroke-width="2"/><line x1="273.91417052959616" y1="55.674972662758115" x2="340.50001619674964" y2="28.094212325341353" stroke="#333" stroke-width="2"/><line x1="266.5992980858008" y1="18.900625546202445" x2="338.6712980858008" y2="18.900625546202438" stroke="#333" stroke-width="2"/><line x1="273.91417052959616" y1="-17.873721570353183" x2="340.50001619674964" y2="9.70703876706353" stroke="#333" stroke-width="2"/><line x1="294.7451648408983" y1="-49.04950769870004" x2="345.7077647745752" y2="1.9130922349768156" stroke="#333" stroke-width="2"/><line x1="325.92095096924515" y1="-69.88050201000219" x2="353.5017113066619" y2="-3.2946563428487217" stroke="#333" stroke-width="2"/><line x1="362.6952980858008" y1="-77.19537445379757" x2="362.6952980858008" y2="-5.123374453797567" stroke="#333" stroke-width="2"/><line x1="399.4696452023565" y1="-69.88050201000217" x2="371.8888848649397" y2="-3.294656342848718" stroke="#333" stroke-width="2"/><line x1="430.6454313307033" y1="-49.049507698700054" x2="379.6828313970264" y2="1.913092234976812" stroke="#333" stroke-width="2"/><line x1="451.47642564200544" y1="-17.87372157035321" x2="384.89057997485196" y2="9.707038767063523" stroke="#333" stroke-width="2"/><circle cx="362.6952980858008" cy="18.900625546202434" r="34.32" fill="#222"/>
      </g>
    </g>
  
  <text x="50%" y="95%" text-anchor="middle" font-size="32" fill="#fff" opacity="0.7" font-family="Arial">Gears Collection #94</text>
</svg>