<svg width="512" height="512" viewBox="0 0 512 512" xmlns="http://www.w3.org/2000/svg">
  <rect width="100%" height="100%" fill="#8ec6f3" />
  
    <g>
      <g>
        <animateTransform attributeName="transform" attributeType="XML"
          type="rotate"
          from="0 355.3270767046215 267.58152983479465"
          to="360 355.3270767046215 267.58152983479465"
          dur="4.52s"
          repeatCount="indefinite"/>
        <path d="M415.0381603049533,261.700501415021 L397.12483522485377,271.6982497286362 L412.74349684855406,284.9986104700624 L392.36776980725244,287.3801927814865 L401.70770390638575,305.6451268846134 L381.97159463949464,300.0479688760296 L383.61088091418134,320.49680569569597 L367.51903314930894,307.7730239355474 L361.20810512439516,327.29261343512644 L351.21035681077996,309.3792883550269 L337.9099960693538,324.9979499787272 L335.5284137579296,304.6222229374256 L317.2634796548028,313.9621570365589 L322.86063766338657,294.2260477696678 L302.4118008437202,295.86533404435454 L315.1355826038687,279.7734862794821 L295.6159931042897,273.4625582545683 L313.52931818438924,263.4648099409531 L297.91065656068895,250.16444919952693 L318.28638360199056,247.78286688810275 L308.94644950285726,229.51793278497593 L328.6825587697484,235.1150907935597 L327.0432724950616,214.66625397389336 L343.13512025993407,227.39003573404187 L349.4460482848479,207.87044623446283 L359.44379659846305,225.7837713145624 L372.7441573398892,210.16510969086212 L375.1257396513134,230.54083673216374 L393.39067375444023,221.20090263303044 L387.79351574585644,240.93701189992152 L408.24235256552276,239.29772562523476 L395.5185708053743,255.3895733901072 Z" fill="#B87333" stroke="#222" stroke-width="3"/>
        
      </g>
    </g>
  
    <g>
      <g>
        <animateTransform attributeName="transform" attributeType="XML"
          type="rotate"
          from="0 242.9516542835573 395.3906046836163"
          to="-360 242.9516542835573 395.3906046836163"
          dur="4.44s"
          repeatCount="indefinite"/>
        <path d="M326.2330226389574,384.42640453713193 L301.24861213233737,403.06554478615533 L320.5575350145054,427.5360130022838 L289.60083069268194,431.18577670932905 L294.08761432028984,462.03228526808005 L265.4534401066246,449.71472119527994 L253.91585443004163,478.6719730390164 L235.2767141810183,453.6875625323963 L210.80624596488977,472.9964854145644 L207.15648225784452,442.0397810927409 L176.30997369909355,446.5265647203488 L188.62753777189363,417.89239050668357 L159.67028592815723,406.35480483010065 L184.65469643477724,387.71566458107725 L165.34577355260922,363.2451963649488 L196.30247787443267,359.59543265790353 L191.81569424682476,328.74892409915253 L220.44986846049005,341.06648817195264 L231.98745413707297,312.1092363282162 L250.62659438609637,337.09364683483625 L275.09706260222487,317.78472395266823 L278.7468263092701,348.7414282744917 L309.59333486802103,344.2546446468837 L297.275770795221,372.888818860549 Z" fill="#C0C0C0" stroke="#222" stroke-width="3"/>
        
      </g>
    </g>
  
    <g>
      <g>
        <animateTransform attributeName="transform" attributeType="XML"
          type="rotate"
          from="0 76.64514615988222 240.77382503745648"
          to="360 76.64514615988222 240.77382503745648"
          dur="4.05s"
          repeatCount="indefinite"/>
        <path d="M182.5699564434311,219.70407025971463 L150.79251335836642,255.52265338187578 L166.4438642885571,300.77541020357353 L118.64625577616414,303.6329277275289 L97.71490093762408,346.6986353210053 L61.89631781546294,314.9211922359407 L16.64356099376517,330.57254316613137 L13.78604346980979,282.7749346537384 L-29.279664123666663,261.8435798151983 L2.497778961397998,226.0249966930372 L-13.153571968792676,180.77223987133942 L34.64403654360024,177.9147223473841 L55.575391382140324,134.8490147539076 L91.39397450430151,166.62645783897227 L136.6467313259992,150.97510690878158 L139.50424884995462,198.77271542117455 Z" fill="#C9AE5D" stroke="#222" stroke-width="3"/>
        
      </g>
    </g>
  
    <g>
      <g>
        <animateTransform attributeName="transform" attributeType="XML"
          type="rotate"
          from="0 392.7516340502891 83.66604923992546"
          to="-360 392.7516340502891 83.66604923992546"
          dur="4.91s"
          repeatCount="indefinite"/>
        <path d="M524.3447221030619,73.30944860384993 L484.86679568723014,90.91566968517833 L521.1044635427825,114.48083726890496 L478.118102854332,119.02599839045975 L505.3001357450293,152.6358597824307 L463.01314527173196,143.6750489056344 L478.47877642987334,184.03963669912957 L441.0305014300428,162.45000042624355 L443.265847122481,205.6181475314153 L414.3219856705748,173.51302988467074 L403.10823468636465,215.25913729269834 L385.50201360503627,175.78121087686645 L361.93684602130963,212.01887873241878 L357.3916848997548,169.03251804396834 L323.7818235077839,196.21455093466562 L332.74263438458013,153.92756046136833 L292.378046591085,169.3931916195097 L313.967682863971,131.94491661967913 L270.79953575879927,134.18026231211732 L302.9046534055438,105.23640086021112 L261.1585459975162,94.02264987600101 L300.6364724133481,76.4164287946726 L264.3988045577958,52.8512612109459 L307.3851652462462,48.306100089391215 L280.2031323555489,14.696238697420227 L322.49012282884627,23.6570495742165 L307.02449167070483,-16.707538219278575 L344.47276667053546,4.882098053607322 L342.2374209780973,-38.286049051564405 L371.1812824300035,-6.180931404819859 L382.3950334142135,-47.92703881284743 L400.0012544955419,-8.449112397015568 L423.56642207926853,-44.68678025256787 L428.1115832008234,-1.700419564117425 L461.7214445927944,-28.882452454814697 L452.7606337159981,13.404538018482612 L493.12522150949314,-2.061093139658851 L471.53558523660723,35.3871818601718 L514.703732341779,33.151836167733634 L482.5986146950344,62.095697619639736 Z" fill="#FFD700" stroke="#222" stroke-width="3"/>
        <line x1="466.67163405028913" y1="83.66604923992546" x2="411.23163405028913" y2="83.66604923992546" stroke="#333" stroke-width="2"/><line x1="463.0537317348269" y1="106.50858546412157" x2="410.32715847142356" y2="89.37668329597449" stroke="#333" stroke-width="2"/><line x1="452.5541702744852" y1="127.11513508938506" x2="407.7022681063381" y2="94.52832070229036" stroke="#333" stroke-width="2"/><line x1="436.2007198997487" y1="143.4685854641216" x2="403.613905512654" y2="98.61668329597448" stroke="#333" stroke-width="2"/><line x1="415.59417027448524" y1="153.9681469244632" x2="398.4622681063381" y2="101.2415736610599" stroke="#333" stroke-width="2"/><line x1="392.7516340502891" y1="157.58604923992544" x2="392.7516340502891" y2="102.14604923992546" stroke="#333" stroke-width="2"/><line x1="369.909097826093" y1="153.9681469244632" x2="387.0409999942401" y2="101.2415736610599" stroke="#333" stroke-width="2"/><line x1="349.3025482008295" y1="143.4685854641216" x2="381.8893625879242" y2="98.61668329597448" stroke="#333" stroke-width="2"/><line x1="332.949097826093" y1="127.11513508938508" x2="377.8009999942401" y2="94.52832070229036" stroke="#333" stroke-width="2"/><line x1="322.4495363657513" y1="106.50858546412158" x2="375.17610962915467" y2="89.37668329597449" stroke="#333" stroke-width="2"/><line x1="318.8316340502891" y1="83.66604923992547" x2="374.2716340502891" y2="83.66604923992546" stroke="#333" stroke-width="2"/><line x1="322.4495363657513" y1="60.82351301572932" x2="375.17610962915467" y2="77.95541518387643" stroke="#333" stroke-width="2"/><line x1="332.949097826093" y1="40.21696339046585" x2="377.8009999942401" y2="72.80377777756055" stroke="#333" stroke-width="2"/><line x1="349.3025482008295" y1="23.863513015729346" x2="381.8893625879242" y2="68.71541518387643" stroke="#333" stroke-width="2"/><line x1="369.909097826093" y1="13.3639515553877" x2="387.0409999942401" y2="66.09052481879101" stroke="#333" stroke-width="2"/><line x1="392.7516340502891" y1="9.746049239925455" x2="392.7516340502891" y2="65.18604923992545" stroke="#333" stroke-width="2"/><line x1="415.59417027448524" y1="13.3639515553877" x2="398.4622681063381" y2="66.09052481879101" stroke="#333" stroke-width="2"/><line x1="436.2007198997487" y1="23.863513015729332" x2="403.613905512654" y2="68.71541518387643" stroke="#333" stroke-width="2"/><line x1="452.5541702744852" y1="40.21696339046582" x2="407.7022681063381" y2="72.80377777756055" stroke="#333" stroke-width="2"/><line x1="463.0537317348269" y1="60.82351301572933" x2="410.32715847142356" y2="77.95541518387643" stroke="#333" stroke-width="2"/><circle cx="392.7516340502891" cy="83.66604923992546" r="26.400000000000002" fill="#222"/>
      </g>
    </g>
  
  <text x="50%" y="95%" text-anchor="middle" font-size="32" fill="#fff" opacity="0.7" font-family="Arial">Gears Collection #93</text>
</svg>