<svg width="512" height="512" viewBox="0 0 512 512" xmlns="http://www.w3.org/2000/svg">
  <rect width="100%" height="100%" fill="#1e293b" />
  
    <g>
      <g>
        <animateTransform attributeName="transform" attributeType="XML"
          type="rotate"
          from="0 338.5017533423125 312.51071310330656"
          to="360 338.5017533423125 312.51071310330656"
          dur="3.69s"
          repeatCount="indefinite"/>
        <path d="M406.1759376901354,299.0494808841937 L385.8736823857885,321.93357565668555 L395.87315659118815,350.8450591816591 L365.3357955971593,352.6706953775195 L351.96298556142534,380.1848974511295 L329.0788907889335,359.8826421467826 L300.16740726395994,369.88211635218215 L298.34177106809955,339.34475535815335 L270.8275689944896,325.9719453224194 L291.12982429883647,303.08785054992757 L281.13035009343685,274.176367024954 L311.6677110874657,272.35073082909366 L325.0405211231996,244.83652875548367 L347.9246158956915,265.1387840598305 L376.83609942066505,255.1393098544309 L378.66173561652545,285.67667084845976 Z" fill="#C0C0C0" stroke="#222" stroke-width="3"/>
        
      </g>
    </g>
  
    <g>
      <g>
        <animateTransform attributeName="transform" attributeType="XML"
          type="rotate"
          from="0 178.56831227206516 372.637617155031"
          to="-360 178.56831227206516 372.637617155031"
          dur="5.08s"
          repeatCount="indefinite"/>
        <path d="M274.70315686859936,363.16916139919545 L245.8627034896391,379.2655361841159 L271.0087487037965,400.6791169778121 L238.2038281673009,404.513464499205 L253.24112206690555,433.9200084052392 L221.46598614721086,424.9085840114193 L224.10523704945652,457.8312112910821 L198.1973621480119,437.34592265724297 L188.0367680279007,468.77246175156523 L171.9403932429803,439.93200837260497 L150.52681244928408,465.0780535867624 L146.69246492789122,432.2731330502668 L117.285921021857,447.31042694987144 L126.29734541567689,415.5352910301767 L93.37471813601408,418.1745419324224 L113.8600067698532,392.26666703097777 L82.43346767553095,382.1060729108666 L111.27392105449121,366.00969812594616 L86.12787584033379,344.59611733225 L118.9327963768294,340.76176981085706 L103.89550247722475,311.3552259048229 L135.6706383969195,320.36665029864275 L133.03138749467377,287.4440230189799 L158.9392623961184,307.9293116528191 L169.0998565162296,276.5027725584968 L185.19623130115002,305.3432259374571 L206.60981209484618,280.19718072329965 L210.44415961623912,313.00210125979527 L239.8507035222733,297.96480736019066 L230.8392791284534,329.73994327988527 L263.76190640811626,327.10069237763963 L243.2766177742771,353.0085672790842 Z" fill="#C9AE5D" stroke="#222" stroke-width="3"/>
        
      </g>
    </g>
  
    <g>
      <g>
        <animateTransform attributeName="transform" attributeType="XML"
          type="rotate"
          from="0 180.03481910676055 92.81516218760578"
          to="360 180.03481910676055 92.81516218760578"
          dur="4.04s"
          repeatCount="indefinite"/>
        <path d="M303.1722708893878,76.60380911387537 L266.2310353545996,104.16310933921706 L294.78065704466235,140.34444448734993 L249.00895851168053,145.74088082562395 L255.64298858964366,191.3496470517772 L213.30531671658144,173.13724874413703 L196.246172180491,215.95261397023302 L168.6868719551493,179.01137843544484 L132.5055368070164,207.56100012550758 L127.10910046874238,161.78930159252576 L81.50033424258913,168.42333167048886 L99.71273255022929,126.0856597974267 L56.8973673241333,109.02651526133619 L93.83860285892148,81.46721503599451 L65.28898116885871,45.2858798878617 L111.06067970184057,39.889443549587604 L104.42664962387741,-5.7193226765655965 L146.76432149693966,12.493075631074504 L163.82346603303014,-30.322289595021473 L191.38276625837187,6.618945939766704 L227.56410140650473,-21.930675750296018 L232.96053774477872,23.841022782685798 L278.5693039709319,17.206992704722637 L260.35690566329185,59.54466457778489 Z" fill="#C9AE5D" stroke="#222" stroke-width="3"/>
        
      </g>
    </g>
  
  <text x="50%" y="95%" text-anchor="middle" font-size="32" fill="#fff" opacity="0.7" font-family="Arial">Gears Collection #64</text>
</svg>