<svg width="512" height="512" viewBox="0 0 512 512" xmlns="http://www.w3.org/2000/svg">
  <rect width="100%" height="100%" fill="#b2f5ea" />
  
    <g>
      <g>
        <animateTransform attributeName="transform" attributeType="XML"
          type="rotate"
          from="0 313.8265934232535 337.58483371964263"
          to="360 313.8265934232535 337.58483371964263"
          dur="4.5s"
          repeatCount="indefinite"/>
        <path d="M380.62005478337306,332.328074305877 L360.58201637533716,341.26456530927857 L378.97537808989784,353.2256730979883 L357.1565434980328,355.53268669756534 L370.95348443497767,372.5922375556112 L349.4896332098949,368.04394718632824 L357.3396126613758,388.5320334148447 L338.3317761084315,377.5736574278495 L339.4663833917145,399.48476239789886 L324.7751809880954,383.18898298629364 L319.0833528370191,404.3782950797622 L310.14686183361755,384.3402566717263 L298.18575404490787,402.73361838628693 L295.8787404453308,380.91478379442196 L278.81918958728494,394.7117247313668 L283.3674799565679,373.24787350628407 L262.8793937280514,381.0978529577649 L273.83776971504653,362.09001640482063 L251.92666474499728,363.22462368810363 L268.2224441566025,348.5334212844846 L247.0331320631339,342.84159313340825 L267.0711704711698,333.9051021300067 L248.67780875660915,321.94399434129696 L270.49664334847415,319.6369807417199 L256.6997024115293,302.5774298836741 L278.16355363661205,307.125720252957 L270.31357418513113,286.63763402444056 L289.3214107380755,297.5960100114357 L288.1868034547925,275.6849050413864 L302.87800585841154,291.98068445299157 L308.5698340094878,270.79137235952305 L317.50632501288936,290.8294107675589 L329.4674328015991,272.43604905299827 L331.7744464011762,294.2548836448633 L348.8339972592221,280.45794270791845 L344.2857068899391,301.9217939330012 L364.7737931184555,294.0718144815203 L353.81541713146044,313.07965103446463 L375.7265221015097,311.94504375118163 L359.4307426899045,326.63624615480063 Z" fill="#F5F5F5" stroke="#222" stroke-width="3"/>
        <line x1="351.34659342325347" y1="337.58483371964263" x2="323.2065934232535" y2="337.58483371964263" stroke="#333" stroke-width="2"/><line x1="349.51023391464764" y1="349.17915134859066" x2="322.74750354610205" y2="340.4834131268796" stroke="#333" stroke-width="2"/><line x1="344.1809110522015" y1="359.6385363856562" x2="321.4151728304905" y2="343.098259386146" stroke="#333" stroke-width="2"/><line x1="335.88029608926706" y1="367.93915134859066" x2="319.3400190897569" y2="345.17341312687967" stroke="#333" stroke-width="2"/><line x1="325.4209110522015" y1="373.2684742110368" x2="316.72517283049046" y2="346.5057438424912" stroke="#333" stroke-width="2"/><line x1="313.8265934232535" y1="375.1048337196426" x2="313.8265934232535" y2="346.9648337196426" stroke="#333" stroke-width="2"/><line x1="302.23227579430545" y1="373.2684742110368" x2="310.9280140160165" y2="346.5057438424912" stroke="#333" stroke-width="2"/><line x1="291.7728907572399" y1="367.93915134859066" x2="308.3131677567501" y2="345.17341312687967" stroke="#333" stroke-width="2"/><line x1="283.47227579430546" y1="359.6385363856562" x2="306.23801401601645" y2="343.098259386146" stroke="#333" stroke-width="2"/><line x1="278.1429529318593" y1="349.17915134859066" x2="304.9056833004049" y2="340.4834131268796" stroke="#333" stroke-width="2"/><line x1="276.3065934232535" y1="337.58483371964263" x2="304.4465934232535" y2="337.58483371964263" stroke="#333" stroke-width="2"/><line x1="278.1429529318593" y1="325.9905160906946" x2="304.9056833004049" y2="334.6862543124056" stroke="#333" stroke-width="2"/><line x1="283.47227579430546" y1="315.53113105362905" x2="306.23801401601645" y2="332.07140805313924" stroke="#333" stroke-width="2"/><line x1="291.7728907572399" y1="307.2305160906946" x2="308.3131677567501" y2="329.9962543124056" stroke="#333" stroke-width="2"/><line x1="302.23227579430545" y1="301.9011932282485" x2="310.9280140160165" y2="328.66392359679406" stroke="#333" stroke-width="2"/><line x1="313.8265934232535" y1="300.06483371964265" x2="313.8265934232535" y2="328.20483371964264" stroke="#333" stroke-width="2"/><line x1="325.4209110522015" y1="301.9011932282485" x2="316.72517283049046" y2="328.66392359679406" stroke="#333" stroke-width="2"/><line x1="335.88029608926706" y1="307.2305160906946" x2="319.3400190897569" y2="329.9962543124056" stroke="#333" stroke-width="2"/><line x1="344.1809110522015" y1="315.53113105362905" x2="321.4151728304905" y2="332.07140805313924" stroke="#333" stroke-width="2"/><line x1="349.51023391464764" y1="325.9905160906946" x2="322.74750354610205" y2="334.6862543124056" stroke="#333" stroke-width="2"/><circle cx="313.8265934232535" cy="337.58483371964263" r="13.4" fill="#222"/>
      </g>
    </g>
  
    <g>
      <g>
        <animateTransform attributeName="transform" attributeType="XML"
          type="rotate"
          from="0 148.18475743664158 345.30774586229455"
          to="-360 148.18475743664158 345.30774586229455"
          dur="4.54s"
          repeatCount="indefinite"/>
        <path d="M240.8299237844655,330.6341930415209 L213.03637388011833,355.5792328368361 L231.7611694055105,387.89205473786404 L194.6133886893503,391.7363771150033 L190.76906631221107,428.88415783116346 L158.45624441118315,410.1593623057713 L133.5112046158679,437.9529122101185 L118.37574122374293,403.8112342405028 L81.85814136134343,411.6343619375927 L89.68126905843334,375.1167620751932 L55.53959108881767,359.9812986830682 L83.33314099316483,335.036258887753 L64.60834546777265,302.7234369867251 L101.75612618393285,298.8791146095858 L105.60044856107208,261.73133389342564 L137.9132704621,280.4561294188178 L162.8583102574152,252.66257951447062 L177.9937736495402,286.8042574840863 L214.51137351193972,278.98112978699635 L206.6882458148498,315.4987296493959 Z" fill="#E5E4E2" stroke="#222" stroke-width="3"/>
        
      </g>
    </g>
  
    <g>
      <g>
        <animateTransform attributeName="transform" attributeType="XML"
          type="rotate"
          from="0 76.01318969016137 253.8209831367872"
          to="360 76.01318969016137 253.8209831367872"
          dur="4.54s"
          repeatCount="indefinite"/>
        <path d="M195.5814399718429,238.07952435504896 L159.71096488733843,264.84000428400395 L187.43306131102256,299.97260508001705 L142.98807867754743,305.2126229737034 L149.42981802861308,349.49939597591015 L108.31932505042225,331.81489327139 L91.7546484718996,373.38923341846873 L64.99416854294464,337.5187583339643 L29.86156774693154,365.2408547576484 L24.62154985324517,320.7958721241733 L-19.665223148961616,327.23761147523885 L-1.9807204444414594,286.12711849704806 L-43.555060591520174,269.5624419185254 L-7.684585507015711,242.80196198957046 L-35.40668193069985,207.66936119355742 L9.038300702775288,202.429343299871 L2.5965613517096244,158.14257029766424 L43.707054329900515,175.82707300218436 L60.27173090842314,134.25273285510565 L87.03221083737817,170.1232079396101 L122.16481163339122,142.401111515926 L127.40482952707757,186.8460941494011 L171.6916025292843,180.40435479833545 L154.00709982476423,221.51484777652632 Z" fill="#E5E4E2" stroke="#222" stroke-width="3"/>
        <line x1="143.54918969016137" y1="253.8209831367872" x2="92.89718969016137" y2="253.8209831367872" stroke="#333" stroke-width="2"/><line x1="134.50108136014723" y1="287.5889831367872" x2="90.63516260765783" y2="262.26298313678717" stroke="#333" stroke-width="2"/><line x1="109.78118969016137" y1="312.308874806773" x2="84.45518969016138" y2="268.4429560542836" stroke="#333" stroke-width="2"/><line x1="76.01318969016137" y1="321.3569831367872" x2="76.01318969016137" y2="270.7049831367872" stroke="#333" stroke-width="2"/><line x1="42.24518969016138" y1="312.308874806773" x2="67.57118969016138" y2="268.4429560542836" stroke="#333" stroke-width="2"/><line x1="17.525298020175512" y1="287.5889831367872" x2="61.391216772664905" y2="262.26298313678717" stroke="#333" stroke-width="2"/><line x1="8.477189690161367" y1="253.8209831367872" x2="59.12918969016137" y2="253.8209831367872" stroke="#333" stroke-width="2"/><line x1="17.52529802017552" y1="220.0529831367872" x2="61.391216772664905" y2="245.37898313678718" stroke="#333" stroke-width="2"/><line x1="42.24518969016134" y1="195.33309146680136" x2="67.57118969016136" y2="239.19901021929073" stroke="#333" stroke-width="2"/><line x1="76.01318969016135" y1="186.2849831367872" x2="76.01318969016137" y2="236.9369831367872" stroke="#333" stroke-width="2"/><line x1="109.78118969016137" y1="195.33309146680133" x2="84.45518969016138" y2="239.19901021929073" stroke="#333" stroke-width="2"/><line x1="134.5010813601472" y1="220.05298313678716" x2="90.63516260765783" y2="245.37898313678718" stroke="#333" stroke-width="2"/><circle cx="76.01318969016137" cy="253.8209831367872" r="24.120000000000005" fill="#222"/>
      </g>
    </g>
  
    <g>
      <g>
        <animateTransform attributeName="transform" attributeType="XML"
          type="rotate"
          from="0 420.3624632359903 109.76395560944033"
          to="-360 420.3624632359903 109.76395560944033"
          dur="3.52s"
          repeatCount="indefinite"/>
        <path d="M564.9302135674264,81.00764214426303 L521.5598884679956,129.89337503506445 L542.9210840893854,191.6550079565297 L477.68619987895283,195.55499020681694 L449.1187767011676,254.3317059408765 L400.2330438103662,210.96138084144565 L338.4714108889009,232.32257646283549 L334.57142863861367,167.0876922524029 L275.7947129045541,138.52026907461763 L319.16503800398493,89.63453618381625 L297.8038423825951,27.872903262350945 L363.03872659302766,23.972921012063765 L391.6061497708129,-34.803794721995814 L440.4918826616144,8.566530377435015 L502.2535155830796,-12.794665243954881 L506.1534978333669,52.44021896647778 Z" fill="#F5F5F5" stroke="#222" stroke-width="3"/>
        
      </g>
    </g>
  
  <text x="50%" y="95%" text-anchor="middle" font-size="32" fill="#fff" opacity="0.7" font-family="Arial">Gears Collection #80</text>
</svg>