<svg width="512" height="512" viewBox="0 0 512 512" xmlns="http://www.w3.org/2000/svg">
  <rect width="100%" height="100%" fill="#f5e663" />
  
    <g>
      <g>
        <animateTransform attributeName="transform" attributeType="XML"
          type="rotate"
          from="0 318.11741393079143 334.3672564694638"
          to="360 318.11741393079143 334.3672564694638"
          dur="4.33s"
          repeatCount="indefinite"/>
        <path d="M376.9645307549853,322.66183714849615 L359.31039570772714,342.56104999414123 L368.00559066894414,367.70147045063993 L341.45136371761475,369.2889801861707 L329.8228332517591,393.2143732936577 L309.9236204061141,375.56023824639954 L284.7831999496153,384.25543320761653 L283.1956902140845,357.7012062562871 L259.2702971065976,346.0726757904315 L276.9244321538557,326.1734629447865 L268.2292371926387,301.0330424882877 L294.7834641439681,299.44553275275695 L306.4119946098237,275.52013964527 L326.31120745546883,293.1742746925281 L351.45162791196753,284.4790797313111 L353.0391376474983,311.03330668264056 Z" fill="#C0C0C0" stroke="#222" stroke-width="3"/>
        
      </g>
    </g>
  
    <g>
      <g>
        <animateTransform attributeName="transform" attributeType="XML"
          type="rotate"
          from="0 120.34336093817038 290.60168028360016"
          to="-360 120.34336093817038 290.60168028360016"
          dur="4.66s"
          repeatCount="indefinite"/>
        <path d="M202.72932449204174,274.2140932342454 L178.01353542588032,302.0729912181485 L190.18680837158416,337.26957985724675 L153.010890639723,339.4920934869898 L136.73094798752516,372.9876438374715 L108.87205000362205,348.27185477131013 L73.67546136452378,360.445127717014 L71.45294773478071,323.26920998515277 L37.957397384299014,306.9892673329549 L62.67318645046043,279.1303693490518 L50.49991350475658,243.93378070995357 L87.67583123661773,241.71126708021052 L103.95577388881557,208.2157167297288 L131.81467187271872,232.93150579589022 L167.01126051181694,220.75823285018635 L169.23377414156005,257.93415058204755 Z" fill="#8EC6F3" stroke="#222" stroke-width="3"/>
        
      </g>
    </g>
  
    <g>
      <g>
        <animateTransform attributeName="transform" attributeType="XML"
          type="rotate"
          from="0 338.46324772593675 96.00058508078604"
          to="360 338.46324772593675 96.00058508078604"
          dur="3.82s"
          repeatCount="indefinite"/>
        <path d="M445.5392927543083,81.90375632102047 L413.41647924579684,105.86836521262194 L438.24223723715573,137.33039577621574 L398.44076025195415,142.0229491138453 L404.20948205887856,181.68274583223945 L367.3941152127375,165.84587773863933 L352.5600764857023,203.07663010915758 L328.59546759410085,170.95381660064612 L297.1334370305071,195.77957459200502 L292.4408836928775,155.9780976068034 L252.78108697448334,161.74681941372785 L268.61795506808346,124.93145256758683 L231.38720269756521,110.09741384055161 L263.51001620607667,86.13280494895017 L238.68425821471777,54.6707743853564 L278.48573519991936,49.97822104772676 L272.7170133929949,10.318424329332657 L309.532380239136,26.15529242293276 L324.3664189661712,-11.075459947585486 L348.3310278577727,21.047353560925984 L379.7930584213665,-3.7784044304329143 L384.485611758996,36.02307255476867 L424.1454084773901,30.254350747844185 L408.30854038379005,67.06971759398527 Z" fill="#E5E4E2" stroke="#222" stroke-width="3"/>
        
      </g>
    </g>
  
  <text x="50%" y="95%" text-anchor="middle" font-size="32" fill="#fff" opacity="0.7" font-family="Arial">Gears Collection #77</text>
</svg>