<svg width="512" height="512" viewBox="0 0 512 512" xmlns="http://www.w3.org/2000/svg">
  <rect width="100%" height="100%" fill="#8ec6f3" />
  
    <g>
      <g>
        <animateTransform attributeName="transform" attributeType="XML"
          type="rotate"
          from="0 310.8811329660359 339.5946244944272"
          to="360 310.8811329660359 339.5946244944272"
          dur="4.79s"
          repeatCount="indefinite"/>
        <path d="M376.59374675305236,326.5235729193466 L356.8799626169474,348.7443605969836 L366.58959699030646,376.81783010674053 L336.93737689465524,378.59054931141657 L323.95218454111654,405.30723828144363 L301.7313968634795,385.5934541453387 L273.6579273537226,395.30308851869773 L271.88520814904655,365.6508684230465 L245.16851917901948,352.66567606950775 L264.88230331512443,330.4448883918708 L255.17266894176538,302.37141888211386 L284.82488903741654,300.5986996774378 L297.8100813909553,273.88201070741076 L320.0308690685923,293.5957948435157 L348.10433857834926,283.88616047015665 L349.8770577830253,313.53838056580787 Z" fill="#F5F5F5" stroke="#222" stroke-width="3"/>
        
      </g>
    </g>
  
    <g>
      <g>
        <animateTransform attributeName="transform" attributeType="XML"
          type="rotate"
          from="0 159.79177610057317 357.70534722480306"
          to="-360 159.79177610057317 357.70534722480306"
          dur="4.92s"
          repeatCount="indefinite"/>
        <path d="M251.78943540239618,339.40587501969026 L224.19013761184928,370.51497776838204 L237.78362573455192,409.81783508204177 L196.27051760064026,412.29964196858816 L178.091248305686,449.70300652662604 L146.98214555699423,422.10370873607917 L107.67928824333448,435.6971968587818 L105.19748135678805,394.18408872487015 L67.79411679875017,376.00481942991587 L95.39341458929707,344.8957166812241 L81.79992646659443,305.59285936756436 L123.31303460050604,303.11105248101796 L141.4923038954603,265.7076879229801 L172.60140664415215,293.30698571352696 L211.90426395781182,279.7134975908243 L214.3860708443583,321.226605724736 Z" fill="#C9AE5D" stroke="#222" stroke-width="3"/>
        
      </g>
    </g>
  
    <g>
      <g>
        <animateTransform attributeName="transform" attributeType="XML"
          type="rotate"
          from="0 177.3546101109313 94.08983154478418"
          to="360 177.3546101109313 94.08983154478418"
          dur="3.74s"
          repeatCount="indefinite"/>
        <path d="M297.5828405591466,84.62766460000607 L261.51437142468194,100.71334840612884 L294.6224225108911,122.24334242580636 L255.34852024553413,126.39596690504506 L280.18301393203484,157.1031584495276 L241.54808172688593,148.9162357848183 L255.67804473955144,185.79479099614792 L221.4639389442517,166.06971421955666 L223.50623205416113,205.50970316564536 L197.06206772764685,176.17730022475604 L186.81677705570942,214.31806199299942 L170.73109324958665,178.24959285853484 L149.20109922990915,211.35764394474398 L145.04847475067044,172.083741679387 L114.34128320618788,196.9182353658877 L122.52820587089721,158.2833031607388 L85.64965065956758,172.41326617340434 L105.37472743615884,138.19916037810458 L65.93473849007012,140.24145348801403 L95.26714143095944,113.79728916149972 L57.12637966271606,103.5519984895623 L93.19484879718064,87.46631468343952 L60.08679771097151,65.93632066376195 L99.36069997632846,61.78369618452334 L74.52620628982777,31.07650464004076 L113.16113849497668,39.26342730475008 L99.0311754823111,2.3848720934204835 L133.24528127761093,22.109948870011692 L131.2029881677015,-17.330040076077026 L157.6471524942158,12.002362864812312 L167.89244316615313,-26.138398903431067 L183.97812697227593,9.930070231033497 L205.50812099195343,-23.177980855175647 L209.6607454711922,16.09592141018136 L240.36793701567476,-8.738572276319331 L232.18101435096543,29.89635992882957 L269.059569562295,15.76639691616397 L249.3344927857038,49.980502711463785 L288.7744817317925,47.93820960155437 L259.44207879090317,74.38237392806859 Z" fill="#9DE09D" stroke="#222" stroke-width="3"/>
        <line x1="244.8906101109313" y1="94.08983154478418" x2="194.2386101109313" y2="94.08983154478418" stroke="#333" stroke-width="2"/><line x1="241.58516299544078" y1="114.95960327689062" x2="193.41224833205868" y2="99.3072744778108" stroke="#333" stroke-width="2"/><line x1="231.99238184303775" y1="133.78649634360863" x2="191.01405304395792" y2="104.0139977444903" stroke="#333" stroke-width="2"/><line x1="217.05127490975576" y1="148.72760327689062" x2="187.27877631063743" y2="107.74927447781079" stroke="#333" stroke-width="2"/><line x1="198.22438184303775" y1="158.32038442929365" x2="182.5720530439579" y2="110.14746976591155" stroke="#333" stroke-width="2"/><line x1="177.3546101109313" y1="161.62583154478418" x2="177.3546101109313" y2="110.97383154478418" stroke="#333" stroke-width="2"/><line x1="156.48483837882486" y1="158.32038442929365" x2="172.1371671779047" y2="110.14746976591155" stroke="#333" stroke-width="2"/><line x1="137.65794531210685" y1="148.72760327689062" x2="167.43044391122518" y2="107.74927447781079" stroke="#333" stroke-width="2"/><line x1="122.71683837882486" y1="133.78649634360863" x2="163.6951671779047" y2="104.0139977444903" stroke="#333" stroke-width="2"/><line x1="113.12405722642181" y1="114.95960327689063" x2="161.29697188980393" y2="99.3072744778108" stroke="#333" stroke-width="2"/><line x1="109.8186101109313" y1="94.08983154478419" x2="160.47061011093132" y2="94.08983154478418" stroke="#333" stroke-width="2"/><line x1="113.12405722642181" y1="73.2200598126777" x2="161.29697188980393" y2="88.87238861175756" stroke="#333" stroke-width="2"/><line x1="122.71683837882486" y1="54.39316674595972" x2="163.6951671779047" y2="84.16566534507805" stroke="#333" stroke-width="2"/><line x1="137.65794531210685" y1="39.45205981267773" x2="167.43044391122518" y2="80.43038861175756" stroke="#333" stroke-width="2"/><line x1="156.48483837882486" y1="29.859278660274683" x2="172.1371671779047" y2="78.0321933236568" stroke="#333" stroke-width="2"/><line x1="177.3546101109313" y1="26.553831544784174" x2="177.3546101109313" y2="77.20583154478417" stroke="#333" stroke-width="2"/><line x1="198.22438184303775" y1="29.859278660274683" x2="182.5720530439579" y2="78.0321933236568" stroke="#333" stroke-width="2"/><line x1="217.05127490975576" y1="39.45205981267772" x2="187.27877631063743" y2="80.43038861175756" stroke="#333" stroke-width="2"/><line x1="231.99238184303775" y1="54.3931667459597" x2="191.01405304395792" y2="84.16566534507805" stroke="#333" stroke-width="2"/><line x1="241.58516299544078" y1="73.2200598126777" x2="193.41224833205868" y2="88.87238861175756" stroke="#333" stroke-width="2"/><circle cx="177.3546101109313" cy="94.08983154478418" r="24.120000000000005" fill="#222"/>
      </g>
    </g>
  
  <text x="50%" y="95%" text-anchor="middle" font-size="32" fill="#fff" opacity="0.7" font-family="Arial">Gears Collection #55</text>
</svg>