<svg width="512" height="512" viewBox="0 0 512 512" xmlns="http://www.w3.org/2000/svg">
  <rect width="100%" height="100%" fill="#b2f5ea" />
  
    <g>
      <g>
        <animateTransform attributeName="transform" attributeType="XML"
          type="rotate"
          from="0 330.7897943619968 322.3813728337267"
          to="360 330.7897943619968 322.3813728337267"
          dur="3.63s"
          repeatCount="indefinite"/>
        <path d="M392.57926702740036,310.0906825467106 L374.0424252277793,330.9848560346379 L383.17237993705714,357.38229751396165 L355.29044163816127,359.0491827362689 L343.08048464901293,384.1708454991302 L322.1863111610856,365.63400369950915 L295.78886968176187,374.763958408787 L294.12198445945455,346.88202010989113 L269.0003216965933,334.67206312074273 L287.53716349621436,313.77788963281546 L278.4072087869365,287.3804481534917 L306.2891470858323,285.71356293118447 L318.4991040749807,260.59190016832315 L339.3932775629081,279.1287419679442 L365.79071904223173,269.9987872586663 L367.45760426453904,297.88072555756224 Z" fill="#FFD700" stroke="#222" stroke-width="3"/>
        
      </g>
    </g>
  
    <g>
      <g>
        <animateTransform attributeName="transform" attributeType="XML"
          type="rotate"
          from="0 177.27474456115894 371.76845060762116"
          to="-360 177.27474456115894 371.76845060762116"
          dur="3.84s"
          repeatCount="indefinite"/>
        <path d="M264.720181334329,360.2560404538126 L238.48655030237796,379.82713771528717 L258.76091932865444,405.5211293422221 L226.2563797907398,409.3533812346196 L230.9675025997281,441.74221522130813 L200.90161967537958,428.808772944868 L188.7871547149675,459.2138873807912 L169.21605745349297,432.9802563488402 L143.52206582655802,453.25462537511663 L139.68981393416053,420.750085837202 L107.300979947472,425.4612086461903 L120.2344222239121,395.3953257218418 L89.82930778798888,383.2808607614297 L116.06293881993989,363.7097634999552 L95.78856979366344,338.0157718730203 L128.29310933157808,334.18351998062275 L123.58198652258977,301.79468599393425 L153.64786944693833,314.7281282703743 L165.76233440735038,284.3230138344511 L185.33343166882497,310.5566448664021 L211.0274232957599,290.2822758401257 L214.85967518815733,322.78681537804033 L247.24850917484585,318.07569256905197 L234.31506689840577,348.1415754934005 Z" fill="#9DE09D" stroke="#222" stroke-width="3"/>
        
      </g>
    </g>
  
    <g>
      <g>
        <animateTransform attributeName="transform" attributeType="XML"
          type="rotate"
          from="0 221.13694451890711 79.40847312930828"
          to="360 221.13694451890711 79.40847312930828"
          dur="4.19s"
          repeatCount="indefinite"/>
        <path d="M333.56679179869724,64.60680293155443 L299.8378376147602,89.76964226773597 L325.90488350568705,122.80477435950945 L284.11333267122535,127.73195536402052 L290.170490568496,169.37474191833434 L251.51435538004796,152.7460304200542 L235.938614716661,191.8383204090984 L210.77577538047944,158.10936622516135 L177.74064328870594,184.17641211608822 L172.81346228419488,142.3848612816265 L131.17067572988103,148.44201917889717 L147.79938722816118,109.78588399044911 L108.707097239117,94.21014332706213 L142.43605142305404,69.04730399088061 L116.36900553212716,36.01217189910716 L158.16055636658888,31.084990894596032 L152.10339846931817,-10.557795659717769 L190.75953365776633,6.070915838562328 L206.33527432115326,-33.02137415048183 L231.49811365733484,0.7075800334552156 L264.53324574910835,-25.359465857471633 L269.46042675361934,16.432084976990033 L311.1032133079332,10.374927079719328 L294.4745018096531,49.031062268167474 Z" fill="#B87333" stroke="#222" stroke-width="3"/>
        
      </g>
    </g>
  
  <text x="50%" y="95%" text-anchor="middle" font-size="32" fill="#fff" opacity="0.7" font-family="Arial">Gears Collection #40</text>
</svg>