<svg width="512" height="512" viewBox="0 0 512 512" xmlns="http://www.w3.org/2000/svg">
  <rect width="100%" height="100%" fill="#8ec6f3" />
  
    <g>
      <g>
        <animateTransform attributeName="transform" attributeType="XML"
          type="rotate"
          from="0 345.7356920275613 300.13055150725705"
          to="360 345.7356920275613 300.13055150725705"
          dur="4.23s"
          repeatCount="indefinite"/>
        <path d="M409.4275145345819,293.85745452616516 L390.3199677824757,304.5217193940214 L406.97987351442265,318.7087708515426 L385.24576467036763,321.2491253170617 L395.20836104277646,340.7317216937304 L374.1565111580926,334.76141981790767 L375.90508318442517,356.57351242555177 L358.7404455685612,343.00147854806 L352.0087890086532,363.82237401427767 L341.344524140797,344.71482726217147 L327.1574726832757,361.3747329941184 L324.6171182177566,339.6406241500634 L305.134521841088,349.6032205224722 L311.1048237169107,328.55137063778835 L289.2927311092666,330.2999426641209 L302.86476498675836,313.13530504825695 L282.0438695205407,306.40364848834895 L301.1514162726469,295.73938362049273 L284.49151054069995,281.5523321629715 L306.22561938475496,279.0119776974524 L296.26302301234614,259.5293813207837 L317.31487289703,265.49968319660644 L315.56630087069743,243.68759058896234 L332.7309384865614,257.2596244664541 L339.4625950464694,236.43872900023644 L350.12685991432556,255.54627575234264 L364.31391137184687,238.88637002039567 L366.854265837366,260.6204788644508 L386.3368622140346,250.6578824920419 L380.3665603382119,271.7097323767257 L402.178652945856,269.9611603503932 L388.60661906836424,287.1257979662571 Z" fill="#C9AE5D" stroke="#222" stroke-width="3"/>
        <line x1="381.5756920275613" y1="300.13055150725705" x2="354.6956920275613" y2="300.13055150725705" stroke="#333" stroke-width="2"/><line x1="378.8475344727658" y1="313.84592572322185" x2="354.0136526388624" y2="303.55939506124827" stroke="#333" stroke-width="2"/><line x1="371.07839906528716" y1="325.4732585449829" x2="352.07136878699276" y2="306.4662282666885" stroke="#333" stroke-width="2"/><line x1="359.4510662435261" y1="333.24239395246155" x2="349.1645355815525" y2="308.4085121185582" stroke="#333" stroke-width="2"/><line x1="345.7356920275613" y1="335.970551507257" x2="345.7356920275613" y2="309.09055150725703" stroke="#333" stroke-width="2"/><line x1="332.0203178115965" y1="333.24239395246155" x2="342.3068484735701" y2="308.4085121185582" stroke="#333" stroke-width="2"/><line x1="320.39298498983544" y1="325.4732585449829" x2="339.40001526812983" y2="306.4662282666885" stroke="#333" stroke-width="2"/><line x1="312.6238495823568" y1="313.84592572322185" x2="337.4577314162602" y2="303.55939506124827" stroke="#333" stroke-width="2"/><line x1="309.8956920275613" y1="300.13055150725705" x2="336.7756920275613" y2="300.13055150725705" stroke="#333" stroke-width="2"/><line x1="312.6238495823568" y1="286.41517729129225" x2="337.4577314162602" y2="296.70170795326584" stroke="#333" stroke-width="2"/><line x1="320.39298498983544" y1="274.7878444695312" x2="339.40001526812983" y2="293.7948747478256" stroke="#333" stroke-width="2"/><line x1="332.0203178115965" y1="267.01870906205255" x2="342.3068484735701" y2="291.8525908959559" stroke="#333" stroke-width="2"/><line x1="345.7356920275613" y1="264.2905515072571" x2="345.7356920275613" y2="291.1705515072571" stroke="#333" stroke-width="2"/><line x1="359.4510662435261" y1="267.01870906205255" x2="349.1645355815525" y2="291.8525908959559" stroke="#333" stroke-width="2"/><line x1="371.07839906528716" y1="274.7878444695312" x2="352.07136878699276" y2="293.7948747478256" stroke="#333" stroke-width="2"/><line x1="378.8475344727658" y1="286.41517729129225" x2="354.0136526388624" y2="296.70170795326584" stroke="#333" stroke-width="2"/><circle cx="345.7356920275613" cy="300.13055150725705" r="12.8" fill="#222"/>
      </g>
    </g>
  
    <g>
      <g>
        <animateTransform attributeName="transform" attributeType="XML"
          type="rotate"
          from="0 254.0819405093341 395.986860268349"
          to="-360 254.0819405093341 395.986860268349"
          dur="4.2s"
          repeatCount="indefinite"/>
        <path d="M342.9154000884275,384.2917134454324 L316.26536221469945,404.17346304439064 L336.8615466223454,430.27529580826103 L303.84106201240036,434.16837709577595 L308.62696454851545,467.0713195584437 L278.0838453872725,453.9325845474569 L265.77708733225074,484.8203198474424 L245.89533773329248,458.1702819737144 L219.79350496942206,478.76646638136026 L215.90042368190714,445.74598177141525 L182.99748121923943,450.53188430753033 L196.13621623022618,419.98876514628745 L165.2484809302407,407.68200709126563 L191.8985188039687,387.80025749230737 L171.30233439632278,361.69842472843703 L204.32281900626782,357.80534344092206 L199.5369164701527,324.9024009782544 L230.08003563139567,338.04113598924107 L242.38679368641746,307.1534006892556 L262.26854328537576,333.8034385629836 L288.37037604924615,313.20725415533775 L292.263457336761,346.22773876528277 L325.16639979942875,341.4418362291676 L312.027664788442,371.9849553904106 Z" fill="#E5E4E2" stroke="#222" stroke-width="3"/>
        <line x1="304.2579405093341" y1="395.986860268349" x2="266.6259405093341" y2="395.986860268349" stroke="#333" stroke-width="2"/><line x1="297.5356311696221" y1="421.07486026834897" x2="264.9453631744061" y2="402.258860268349" stroke="#333" stroke-width="2"/><line x1="279.1699405093341" y1="439.440550928637" x2="260.3539405093341" y2="406.850282933421" stroke="#333" stroke-width="2"/><line x1="254.0819405093341" y1="446.162860268349" x2="254.0819405093341" y2="408.530860268349" stroke="#333" stroke-width="2"/><line x1="228.9939405093341" y1="439.440550928637" x2="247.8099405093341" y2="406.850282933421" stroke="#333" stroke-width="2"/><line x1="210.62824984904609" y1="421.07486026834897" x2="243.2185178442621" y2="402.258860268349" stroke="#333" stroke-width="2"/><line x1="203.9059405093341" y1="395.986860268349" x2="241.53794050933408" y2="395.986860268349" stroke="#333" stroke-width="2"/><line x1="210.62824984904609" y1="370.898860268349" x2="243.2185178442621" y2="389.714860268349" stroke="#333" stroke-width="2"/><line x1="228.99394050933407" y1="352.53316960806103" x2="247.8099405093341" y2="385.123437603277" stroke="#333" stroke-width="2"/><line x1="254.0819405093341" y1="345.810860268349" x2="254.0819405093341" y2="383.442860268349" stroke="#333" stroke-width="2"/><line x1="279.1699405093341" y1="352.53316960806103" x2="260.3539405093341" y2="385.123437603277" stroke="#333" stroke-width="2"/><line x1="297.5356311696221" y1="370.898860268349" x2="264.9453631744061" y2="389.714860268349" stroke="#333" stroke-width="2"/><circle cx="254.0819405093341" cy="395.986860268349" r="17.919999999999998" fill="#222"/>
      </g>
    </g>
  
    <g>
      <g>
        <animateTransform attributeName="transform" attributeType="XML"
          type="rotate"
          from="0 82.99538034660804 206.3069262513861"
          to="360 82.99538034660804 206.3069262513861"
          dur="4.25s"
          repeatCount="indefinite"/>
        <path d="M197.64066085924514,195.0153516854207 L163.247076705454,214.21102844756186 L193.2349070229585,239.74772107110016 L154.1135111036594,244.32035910903454 L172.04618457399533,279.38903258703806 L134.15285478156443,268.6424892105572 L137.30028442896298,307.9042559043166 L106.40393672040788,283.4745949248314 L94.28695491257342,320.9522067640232 L75.09127815043229,286.5586226102321 L49.55458552689397,316.5464529277366 L44.98194748895962,277.4250570084375 L9.913274010956101,295.3577304787734 L20.65981738743693,257.46440068634246 L-18.601949306322453,260.61183033374107 L5.8277116731627245,229.71548262518596 L-31.649900166029028,217.59850081735152 L2.7436839877620827,198.40282405521035 L-27.24414632974242,172.86613143167207 L11.877249589556698,168.29349339373766 L-6.055423880779273,133.22481991573414 L31.837905911651696,143.97136329221496 L28.690476264253086,104.7095965984556 L59.58682397280819,129.13925757794078 L71.70380578064268,91.66164573874902 L90.89948254278377,126.05522989254014 L116.43617516632207,96.06739957503564 L121.00881320425648,135.18879549433476 L156.07748668226003,117.25612202399881 L145.33094330577913,155.1494518164297 L184.59270999953853,152.00202216903114 L160.16304902005334,182.8983698775862 Z" fill="#E5E4E2" stroke="#222" stroke-width="3"/>
        
      </g>
    </g>
  
    <g>
      <g>
        <animateTransform attributeName="transform" attributeType="XML"
          type="rotate"
          from="0 110.8268001250209 90.69802772483516"
          to="-360 110.8268001250209 90.69802772483516"
          dur="5.26s"
          repeatCount="indefinite"/>
        <path d="M248.92136760579575,63.22931038496429 L207.49299736156328,109.92612986274476 L227.89772153721927,168.92231653399514 L165.5838022914329,172.64767271337402 L138.29551746489176,228.79259520561 L91.59869798711132,187.36422496137754 L32.60251131586088,207.76894913703353 L28.87715513648203,145.45502989124714 L-27.26776735575396,118.166745064706 L14.160602888478493,71.4699255869256 L-6.244121287177478,12.473738915675142 L56.069797958608824,8.748382736296335 L83.35808278514997,-47.39653975593967 L130.0549022629305,-5.968169511707231 L189.05108893418083,-26.37289368736326 L192.77644511355976,35.94102555842316 Z" fill="#C0C0C0" stroke="#222" stroke-width="3"/>
        
      </g>
    </g>
  
    <g>
      <g>
        <animateTransform attributeName="transform" attributeType="XML"
          type="rotate"
          from="0 462.76531270203884 98.36718151594161"
          to="360 462.76531270203884 98.36718151594161"
          dur="5.36s"
          repeatCount="indefinite"/>
        <path d="M628.6523570352314,85.31158798682821 L578.8862437352736,107.50609698632098 L624.5676674562122,137.21249006156427 L570.3788006489535,142.94214771782725 L604.6446360505598,185.3109426846755 L551.3373995751305,174.0148901854414 L570.8334679441814,224.8987341917868 L523.6259455201525,197.68270785990626 L526.4438358475898,252.10073572581973 L489.9570286839747,211.62882984386295 L475.82090623115226,264.2542258491341 L453.6263972316595,214.48811254917635 L423.9200041564162,260.16953627011503 L418.19034650015317,205.98066946285627 L375.82155153330496,240.24650486446257 L387.1176040325391,186.9392683890332 L336.2337600261937,206.4353367580842 L363.4497863580742,159.22781433405532 L309.03175849216075,162.04570466149258 L349.5036643741175,125.55889749787748 L296.8782683688463,111.42277504505503 L346.6443816688041,89.22826604556225 L300.96295794786545,59.521872970318896 L355.15182475512415,53.79221531405602 L320.88598935351786,11.423420347207738 L374.1932258289472,22.719472846441832 L354.6971574598962,-28.16437115990348 L401.90467988392516,-0.9483448280230675 L399.08678955648793,-55.36637269393654 L435.573596720103,-14.894466811979754 L449.70971917292536,-67.5198628172509 L471.90422817241813,-17.753749517293144 L501.6106212476614,-63.43517323823181 L507.3402789039245,-9.24630643097305 L549.7090738707727,-43.51214183257932 L538.4130213715387,9.795094642850032 L589.2968653778839,-9.700973726201028 L562.0808390460035,37.50654869782791 L616.498866911917,34.688658370390705 L576.0269610299601,71.17546553400567 Z" fill="#E5E4E2" stroke="#222" stroke-width="3"/>
        <line x1="555.9493127020388" y1="98.36718151594161" x2="486.06131270203883" y2="98.36718151594161" stroke="#333" stroke-width="2"/><line x1="551.3885631164865" y1="127.1626211197767" x2="484.9211253056507" y2="105.56604141690039" stroke="#333" stroke-width="2"/><line x1="538.152752305874" y1="153.1393624655634" x2="481.6121726029976" y2="112.06022675334707" stroke="#333" stroke-width="2"/><line x1="517.5374936516606" y1="173.75462111977671" x2="476.4583579394443" y2="117.21404141690039" stroke="#333" stroke-width="2"/><line x1="491.56075230587396" y1="186.9904319303892" x2="469.9641726029976" y2="120.5229941195535" stroke="#333" stroke-width="2"/><line x1="462.76531270203884" y1="191.5511815159416" x2="462.76531270203884" y2="121.6631815159416" stroke="#333" stroke-width="2"/><line x1="433.9698730982037" y1="186.9904319303892" x2="455.56645280108006" y2="120.52299411955352" stroke="#333" stroke-width="2"/><line x1="407.993131752417" y1="173.75462111977671" x2="449.0722674646334" y2="117.21404141690039" stroke="#333" stroke-width="2"/><line x1="387.37787309820374" y1="153.13936246556344" x2="443.9184528010801" y2="112.06022675334707" stroke="#333" stroke-width="2"/><line x1="374.1420622875913" y1="127.16262111977672" x2="440.60950009842696" y2="105.56604141690039" stroke="#333" stroke-width="2"/><line x1="369.5813127020389" y1="98.36718151594162" x2="439.46931270203885" y2="98.36718151594161" stroke="#333" stroke-width="2"/><line x1="374.1420622875913" y1="69.57174191210649" x2="440.60950009842696" y2="91.16832161498283" stroke="#333" stroke-width="2"/><line x1="387.37787309820374" y1="43.595000566319804" x2="443.9184528010801" y2="84.67413627853615" stroke="#333" stroke-width="2"/><line x1="407.993131752417" y1="22.97974191210652" x2="449.0722674646334" y2="79.52032161498283" stroke="#333" stroke-width="2"/><line x1="433.9698730982037" y1="9.743931101494027" x2="455.56645280108006" y2="76.21136891232972" stroke="#333" stroke-width="2"/><line x1="462.76531270203884" y1="5.183181515941612" x2="462.76531270203884" y2="75.07118151594162" stroke="#333" stroke-width="2"/><line x1="491.5607523058739" y1="9.743931101494013" x2="469.9641726029976" y2="76.2113689123297" stroke="#333" stroke-width="2"/><line x1="517.5374936516606" y1="22.979741912106505" x2="476.4583579394443" y2="79.52032161498283" stroke="#333" stroke-width="2"/><line x1="538.152752305874" y1="43.595000566319776" x2="481.6121726029976" y2="84.67413627853615" stroke="#333" stroke-width="2"/><line x1="551.3885631164865" y1="69.57174191210649" x2="484.9211253056507" y2="91.16832161498283" stroke="#333" stroke-width="2"/><circle cx="462.76531270203884" cy="98.36718151594161" r="33.28" fill="#222"/>
      </g>
    </g>
  
  <text x="50%" y="95%" text-anchor="middle" font-size="32" fill="#fff" opacity="0.7" font-family="Arial">Gears Collection #35</text>
</svg>