<svg width="512" height="512" viewBox="0 0 512 512" xmlns="http://www.w3.org/2000/svg">
  <rect width="100%" height="100%" fill="#f5e663" />
  
    <g>
      <g>
        <animateTransform attributeName="transform" attributeType="XML"
          type="rotate"
          from="0 334.3281951415217 318.1666618524085"
          to="360 334.3281951415217 318.1666618524085"
          dur="3.76s"
          repeatCount="indefinite"/>
        <path d="M397.78066626944553,309.81298555032515 L378.7449249310684,324.0142352638668 L393.45648522224405,342.6584015237742 L369.870424786569,345.4391738719992 L373.2889265980798,368.9412756310475 L351.4724129114777,359.5564649089141 L342.681871443605,381.6191329803323 L328.4806217300634,362.5833916419552 L309.83645547015595,377.29495193313085 L307.055683121931,353.7088914974558 L283.55358136288265,357.1273933089666 L292.93839208501606,335.3108796223645 L270.87572401359785,326.5203381544918 L289.911465351975,312.31908844095017 L275.1999050607993,293.67492218104275 L298.7859654964744,290.8941498328178 L295.3674636849636,267.39204807376944 L317.1839773715657,276.77685879590285 L325.97451883943836,254.7141907244846 L340.17576855298,273.7499320628618 L358.8199348128874,259.0383717716861 L361.6007071611124,282.62443220736117 L385.1028089201607,279.2059303958504 L375.7179981980273,301.02244408245247 Z" fill="#F5F5F5" stroke="#222" stroke-width="3"/>
        
      </g>
    </g>
  
    <g>
      <g>
        <animateTransform attributeName="transform" attributeType="XML"
          type="rotate"
          from="0 176.1093304917799 370.9673037238342"
          to="-360 176.1093304917799 370.9673037238342"
          dur="4.68s"
          repeatCount="indefinite"/>
        <path d="M265.27788200160876,362.1849679503056 L238.52731654866008,377.11493876530426 L261.8511845733858,396.976810805834 L231.4234321917087,400.53330705756076 L245.37106711308112,427.8089419848969 L215.89847727452374,419.45051935874505 L218.34647811138927,449.98744900944683 L194.31598544917978,430.98660158095834 L184.89166626530852,460.13585523366305 L169.96169545030986,433.3852897807144 L150.09982340978007,456.7091578054401 L146.54332715805336,426.28140542376303 L119.26769223071727,440.22904034513545 L127.62611485686904,410.75645050657806 L97.0891852061673,413.2044513434436 L116.09003263465577,389.1739586812341 L86.94077898195107,379.74963949736286 L113.69134443489972,364.8196686823642 L90.36747641017398,344.9577966418344 L120.79522879185109,341.4013003901077 L106.84759387047866,314.1256654627716 L136.3201837090361,322.48408808892333 L133.8721828721705,291.9471584382216 L157.90267553438002,310.9480058667101 L167.32699471825129,281.7987522140054 L182.2569655332499,308.54931766695404 L202.1188375737797,285.2254496422283 L205.67533382550647,315.6532020239054 L232.95096875284253,301.705567102533 L224.59254612669073,331.1781569410904 L255.12947577739249,328.7301561042248 L236.12862834890402,352.76064876643426 Z" fill="#FFD700" stroke="#222" stroke-width="3"/>
        
      </g>
    </g>
  
    <g>
      <g>
        <animateTransform attributeName="transform" attributeType="XML"
          type="rotate"
          from="0 98.96626918317546 168.02041494898322"
          to="360 98.96626918317546 168.02041494898322"
          dur="4.49s"
          repeatCount="indefinite"/>
        <path d="M212.74796601973532,149.99916457634862 L178.61345696876737,180.63529020982745 L201.61022076967544,220.320120518979 L155.98736001805867,225.0415057838664 L151.26597475317126,270.66436653548317 L111.58114444401969,247.66760273457513 L80.94501881054084,281.80211178554305 L62.35647528417841,239.8711810595332 L17.507567990485185,249.4791161416735 L27.115503072625472,204.63020884798027 L-14.815427653384404,186.0416653216178 L19.319081397583545,155.40553968813902 L-3.677682403324553,115.7207093789875 L41.94517834829225,110.99932411410003 L46.66656361317965,65.37646336248325 L86.35139392233123,88.37322716339132 L116.98751955581002,54.23871811242334 L135.57606308217248,96.16964883843322 L180.4249703758657,86.56171375629292 L170.81703529372544,131.41062104998616 Z" fill="#FFD700" stroke="#222" stroke-width="3"/>
        
      </g>
    </g>
  
    <g>
      <g>
        <animateTransform attributeName="transform" attributeType="XML"
          type="rotate"
          from="0 275.1665792416643 36.836494278420076"
          to="-360 275.1665792416643 36.836494278420076"
          dur="4.24s"
          repeatCount="indefinite"/>
        <path d="M414.23309759745973,14.810521600755568 L372.5131420907211,52.25467515278523 L400.6202978473865,100.75835664174826 L344.8590235954104,106.5289386321662 L339.0884416049925,162.29021288414228 L290.58476011602943,134.18305712747684 L253.14060656399977,175.90301263421546 L230.42127558733455,124.65409730242561 L175.6059444505984,136.39712906948597 L187.34897621765876,81.58179793274982 L136.1000608858689,58.8624669560846 L177.8200163926075,21.418313404054935 L149.71286063594204,-27.08536808490804 L205.47413488791815,-32.85595007532605 L211.24471687833608,-88.61722432730213 L259.7483983672991,-60.51006857063669 L297.19255191932876,-102.23002407737533 L319.91188289599404,-50.98110874558547 L374.72721403273016,-62.724140512645846 L362.9841822656698,-7.9088093759096765 Z" fill="#C9AE5D" stroke="#222" stroke-width="3"/>
        
      </g>
    </g>
  
  <text x="50%" y="95%" text-anchor="middle" font-size="32" fill="#fff" opacity="0.7" font-family="Arial">Gears Collection #33</text>
</svg>