<svg width="512" height="512" viewBox="0 0 512 512" xmlns="http://www.w3.org/2000/svg">
  <rect width="100%" height="100%" fill="#b2f5ea" />
  
    <g>
      <g>
        <animateTransform attributeName="transform" attributeType="XML"
          type="rotate"
          from="0 355.46343088155606 266.34533311546437"
          to="360 355.46343088155606 266.34533311546437"
          dur="3.57s"
          repeatCount="indefinite"/>
        <path d="M416.27211826655633,254.2497331504644 L398.02951205105626,274.81225309096436 L407.0145468443139,300.7906875626797 L379.5751789946068,302.4311142893948 L367.559030846556,327.15402050046464 L346.99651090605613,308.91141428496456 L321.01807643434074,317.8964490782222 L319.3776497076256,290.4570812285151 L294.6547434965558,278.44093308046433 L312.89734971205587,257.87841313996444 L303.91231491879824,231.89997866824902 L331.35168276850527,230.2595519415339 L343.3678309165561,205.5366457304641 L363.93035085705606,223.77925194596418 L389.9087853287714,214.79421715270655 L391.5492120554865,242.23358500241363 Z" fill="#E5E4E2" stroke="#222" stroke-width="3"/>
        
      </g>
    </g>
  
    <g>
      <g>
        <animateTransform attributeName="transform" attributeType="XML"
          type="rotate"
          from="0 196.46249147621023 382.7094514185097"
          to="-360 196.46249147621023 382.7094514185097"
          dur="3.61s"
          repeatCount="indefinite"/>
        <path d="M282.8445257513569,374.2015636379038 L256.9299154688129,388.66497286493376 L279.52491261776595,407.906161404197 L250.04802749801627,411.35151714805727 L263.55979882809584,437.7747884839141 L235.00822742199333,429.6775665648296 L237.37972823270684,459.2602171639469 L214.10018846619136,440.8531462175987 L204.9703792568161,469.09148569365635 L190.50697002978615,443.17687541111235 L171.2657814905229,465.7718725600654 L167.82042574666264,436.2949874403157 L141.39715441080583,449.8067587703953 L149.49437632989034,421.25518736429274 L119.91172573077303,423.6266881750063 L138.31879667712124,400.3471484084908 L110.08045720106355,391.21733919911554 L135.99506748360756,376.7539299720856 L113.4000703346545,357.51274143282234 L142.8769554544042,354.0673856889621 L129.36518412432466,327.64411435310524 L157.91675553042717,335.74133627218976 L155.54525471971363,306.15868567307245 L178.8247944862291,324.56575661942065 L187.9546036956044,296.327417143363 L202.4180129226343,322.242027425907 L221.65920146189754,299.64703027695396 L225.10455720575783,329.12391539670364 L251.52782854161467,315.6121440666241 L243.4306066225301,344.16371547272655 L273.01325722164745,341.79221466201307 L254.60618627529922,365.0717544285285 Z" fill="#B87333" stroke="#222" stroke-width="3"/>
        
      </g>
    </g>
  
    <g>
      <g>
        <animateTransform attributeName="transform" attributeType="XML"
          type="rotate"
          from="0 86.20803852921506 196.24475069164652"
          to="360 86.20803852921506 196.24475069164652"
          dur="3.71s"
          repeatCount="indefinite"/>
        <path d="M197.46401297383215,187.48871560841903 L164.08722064044701,202.37397524990575 L194.72452164559576,222.29725329796557 L158.3815076089968,226.13998042800733 L181.36268087113177,254.5555905139464 L145.61095256188946,246.97963222720045 L158.68644072286355,281.10605645261 L127.02562640482499,262.8530003309882 L128.91550958115909,299.34970651990614 L104.4447903536384,272.206288873113 L94.96407361244256,307.5007251362636 L80.07881397095582,274.12393280287847 L60.15553592289604,304.7612338080272 L56.31280879285425,268.41821977142826 L27.89719870691517,291.39939303356323 L35.47315699366112,255.64766472432095 L1.3467327682516128,268.723152885295 L19.59978888987338,237.06233856725646 L-16.896917299044546,238.95222174359054 L10.246500347748565,214.48150251606987 L-25.047935915402036,205.00078577487403 L8.328856417983104,190.11552613338728 L-22.308444587165653,170.19224808532744 L14.03456944943332,166.34952095528575 L-8.946603812701653,137.93391086934665 L26.80512449654063,145.50986915609258 L13.72963633556651,111.3834449306831 L45.39045065360516,129.63650105230482 L43.50056747727107,93.1397948633869 L67.97128670479175,120.28321251018001 L77.45200344598749,84.98877624702942 L92.33726308747426,118.36556858041455 L112.26054113553403,87.72826757526578 L116.10326826557589,124.0712816118648 L144.51887835151499,101.09010834972983 L136.94292006476903,136.8418366589721 L171.06934429017846,123.76634849799797 L152.81628816855675,155.4271628160366 L189.31299435747468,153.53727963970252 L162.16957671068155,178.00799886722314 Z" fill="#C9AE5D" stroke="#222" stroke-width="3"/>
        <line x1="148.70403852921507" y1="196.24475069164652" x2="101.83203852921505" y2="196.24475069164652" stroke="#333" stroke-width="2"/><line x1="145.64526657159698" y1="215.55707677210324" x2="101.06734553981055" y2="201.0728322117607" stroke="#333" stroke-width="2"/><line x1="136.76836460967178" y1="232.97897781891692" x2="98.84812004932924" y2="205.42830747346412" stroke="#333" stroke-width="2"/><line x1="122.94226565648546" y1="246.80507677210323" x2="95.39159531103266" y2="208.8848322117607" stroke="#333" stroke-width="2"/><line x1="105.52036460967177" y1="255.68197873402843" x2="91.03612004932924" y2="211.104057702242" stroke="#333" stroke-width="2"/><line x1="86.20803852921506" y1="258.74075069164655" x2="86.20803852921506" y2="211.8687506916465" stroke="#333" stroke-width="2"/><line x1="66.89571244875835" y1="255.68197873402846" x2="81.37995700910088" y2="211.104057702242" stroke="#333" stroke-width="2"/><line x1="49.47381140194466" y1="246.80507677210323" x2="77.02448174739746" y2="208.8848322117607" stroke="#333" stroke-width="2"/><line x1="35.64771244875834" y1="232.97897781891692" x2="73.56795700910088" y2="205.42830747346412" stroke="#333" stroke-width="2"/><line x1="26.770810486833135" y1="215.55707677210324" x2="71.34873151861957" y2="201.0728322117607" stroke="#333" stroke-width="2"/><line x1="23.71203852921505" y1="196.24475069164652" x2="70.58403852921506" y2="196.24475069164652" stroke="#333" stroke-width="2"/><line x1="26.770810486833135" y1="176.9324246111898" x2="71.34873151861957" y2="191.41666917153233" stroke="#333" stroke-width="2"/><line x1="35.647712448758334" y1="159.51052356437611" x2="73.56795700910088" y2="187.06119390982892" stroke="#333" stroke-width="2"/><line x1="49.473811401944644" y1="145.6844246111898" x2="77.02448174739746" y2="183.60466917153235" stroke="#333" stroke-width="2"/><line x1="66.89571244875833" y1="136.8075226492646" x2="81.37995700910088" y2="181.38544368105104" stroke="#333" stroke-width="2"/><line x1="86.20803852921505" y1="133.7487506916465" x2="86.20803852921506" y2="180.62075069164652" stroke="#333" stroke-width="2"/><line x1="105.52036460967176" y1="136.80752264926457" x2="91.03612004932924" y2="181.38544368105104" stroke="#333" stroke-width="2"/><line x1="122.94226565648546" y1="145.6844246111898" x2="95.39159531103266" y2="183.60466917153232" stroke="#333" stroke-width="2"/><line x1="136.76836460967178" y1="159.5105235643761" x2="98.84812004932924" y2="187.06119390982892" stroke="#333" stroke-width="2"/><line x1="145.64526657159698" y1="176.9324246111898" x2="101.06734553981055" y2="191.41666917153233" stroke="#333" stroke-width="2"/><circle cx="86.20803852921506" cy="196.24475069164652" r="22.320000000000004" fill="#222"/>
      </g>
    </g>
  
    <g>
      <g>
        <animateTransform attributeName="transform" attributeType="XML"
          type="rotate"
          from="0 243.90281075703567 36.33284721556592"
          to="-360 243.90281075703567 36.33284721556592"
          dur="4.27s"
          repeatCount="indefinite"/>
        <path d="M378.62350041421246,14.995186184078428 L338.20729351705944,51.269209937607165 L365.4361006563291,98.2571513800401 L311.41736622472723,103.84740268325747 L305.82711492150986,157.86613711485927 L258.8391734790769,130.6373299755897 L222.56514972554817,171.0535368727427 L200.55579784190374,121.4061501450713 L147.4534458031906,132.78221216941103 L158.8295078275303,79.67986013069785 L109.18212109985888,57.67050824705343 L149.5983279970119,21.39648449352469 L122.36952085774224,-25.59145694890819 L176.3882552893441,-31.18170825212563 L181.97850659256147,-85.20044268372745 L228.96644803499441,-57.971635544457826 L265.2404717885231,-98.38784244161087 L287.24982367216757,-48.74045571393947 L340.3521757108807,-60.116517738279185 L328.976113686541,-7.014165699566028 Z" fill="#8EC6F3" stroke="#222" stroke-width="3"/>
        
      </g>
    </g>
  
    <g>
      <g>
        <animateTransform attributeName="transform" attributeType="XML"
          type="rotate"
          from="0 464.29316620256 100.39165538663184"
          to="360 464.29316620256 100.39165538663184"
          dur="3.99s"
          repeatCount="indefinite"/>
        <path d="M624.1140778560182,79.35083320075952 L576.1678043599808,115.12023091674246 L613.2225468433794,162.08022468388432 L553.8151571210229,169.08429503597588 L562.4255085587657,228.28021384157896 L507.4751647106367,204.64222183520542 L485.3339883884323,260.2125670400901 L449.56459067244936,212.26629354405262 L402.6045969053075,249.32103602745127 L395.6005265532159,189.9136463050948 L336.40460774761283,198.5239977428376 L360.0425997539864,143.57365389470857 L304.47225454910176,121.43247757250415 L352.41852804513917,85.66307985652125 L315.36378556174054,38.70308608937945 L374.771175284097,31.699015737287795 L366.16082384635416,-27.496903068315248 L421.11116769448324,-3.858911061941768 L443.25234401668763,-59.4292562668264 L479.02174173267065,-11.482982770788922 L525.9817354998124,-48.53772525418759 L532.985805851904,10.869664468168864 L592.1817246575071,2.2593130304260285 L568.5437326511336,57.20965687855513 Z" fill="#9DE09D" stroke="#222" stroke-width="3"/>
        
      </g>
    </g>
  
  <text x="50%" y="95%" text-anchor="middle" font-size="32" fill="#fff" opacity="0.7" font-family="Arial">Gears Collection #43</text>
</svg>