<svg width="512" height="512" viewBox="0 0 512 512" xmlns="http://www.w3.org/2000/svg">
  <rect width="100%" height="100%" fill="#1e293b" />
  
    <g>
      <g>
        <animateTransform attributeName="transform" attributeType="XML"
          type="rotate"
          from="0 336.5584452163881 315.24809620838624"
          to="360 336.5584452163881 315.24809620838624"
          dur="4.11s"
          repeatCount="indefinite"/>
        <path d="M404.23262956421104,301.7868639892734 L383.93037425986415,324.67095876176523 L393.9298484652637,353.5824422867388 L363.3924874712349,355.4080784825992 L350.01967743550097,382.92228055620916 L327.13558266300913,362.6200252518623 L298.22409913803557,372.61949945726184 L296.3984629421752,342.08213846323304 L268.8842608685652,328.7093284274991 L289.1865161729121,305.82523365500725 L279.1870419675125,276.9137501300337 L309.7244029615413,275.08811393417335 L323.0972129972752,247.57391186056336 L345.9813077697671,267.8761671649102 L374.8927912947406,257.8766929595106 L376.7184274906011,288.41405395353945 Z" fill="#8EC6F3" stroke="#222" stroke-width="3"/>
        
      </g>
    </g>
  
    <g>
      <g>
        <animateTransform attributeName="transform" attributeType="XML"
          type="rotate"
          from="0 247.38729281314534 395.7348248466126"
          to="-360 247.38729281314534 395.7348248466126"
          dur="4.85s"
          repeatCount="indefinite"/>
        <path d="M342.1311509000974,376.8890997398546 L313.7079934740118,408.9268324213432 L327.7072573615712,449.40290935630617 L284.95495196993085,451.9588000305107 L266.2330179199033,490.47868293356464 L234.19528523841475,462.05552550747905 L193.71920830345175,476.0547893950384 L191.16331762924722,433.3024840033981 L152.64343472619328,414.58054995337056 L181.0665921522789,382.54281727188203 L167.0673282647195,342.066740336919 L209.8196336563598,339.5108496627145 L228.5415677063873,300.9909667596605 L260.57930038787595,329.4141241857461 L301.05537732283886,315.4148602981867 L303.61126799704346,358.1671656898271 Z" fill="#FFD700" stroke="#222" stroke-width="3"/>
        
      </g>
    </g>
  
    <g>
      <g>
        <animateTransform attributeName="transform" attributeType="XML"
          type="rotate"
          from="0 131.23861980375852 126.25178994865135"
          to="360 131.23861980375852 126.25178994865135"
          dur="4.73s"
          repeatCount="indefinite"/>
        <path d="M253.05215162983973,102.02157195424822 L216.50809208201537,143.21294254473355 L234.50714565173465,195.25361288968594 L179.53989586248275,198.5397580422346 L155.46883779816167,248.06532177473258 L114.27746720767635,211.52126222690822 L62.23679686272392,229.52031579662747 L58.95065171017524,174.55306600737555 L9.425087977677308,150.48200794305447 L45.96914752550167,109.29063735256919 L27.970093955782403,57.249967007616746 L82.93734374503424,53.963821855068105 L107.00840180935535,4.438258122570147 L148.19977239984073,40.982317670394494 L200.24044274479309,22.9832641006752 L203.5265878973418,77.95051388992714 Z" fill="#E5E4E2" stroke="#222" stroke-width="3"/>
        
      </g>
    </g>
  
    <g>
      <g>
        <animateTransform attributeName="transform" attributeType="XML"
          type="rotate"
          from="0 393.48492017947945 84.25048261132676"
          to="-360 393.48492017947945 84.25048261132676"
          dur="4.69s"
          repeatCount="indefinite"/>
        <path d="M542.3681257446899,54.63577172927849 L497.7031640751267,104.98078022876055 L519.7020073270058,168.58604398370238 L452.5198131401424,172.60244361459522 L423.0996310615277,233.13368817653716 L372.7546225620457,188.46872650697404 L309.1493588071038,210.46756975885313 L305.132959176211,143.28537557198968 L244.60171461426904,113.86519349337502 L289.26667628383217,63.52018499389301 L267.26783303195305,-0.08507876104887657 L334.45002721881644,-4.101478391941654 L363.87020929743113,-64.63272295388361 L414.21521779691324,-19.967761284320517 L477.820481551855,-41.966604536199654 L481.8368811827479,25.21558965066383 Z" fill="#C9AE5D" stroke="#222" stroke-width="3"/>
        
      </g>
    </g>
  
  <text x="50%" y="95%" text-anchor="middle" font-size="32" fill="#fff" opacity="0.7" font-family="Arial">Gears Collection #66</text>
</svg>