<svg width="512" height="512" viewBox="0 0 512 512" xmlns="http://www.w3.org/2000/svg">
  <rect width="100%" height="100%" fill="#b2f5ea" />
  
    <g>
      <g>
        <animateTransform attributeName="transform" attributeType="XML"
          type="rotate"
          from="0 349.3912954389448 291.75004805920867"
          to="360 349.3912954389448 291.75004805920867"
          dur="4.78s"
          repeatCount="indefinite"/>
        <path d="M417.06385685265417,285.08488251679853 L396.76208842854135,296.41566393889576 L414.463238268735,311.4894061125121 L391.37074762192645,314.18853273212613 L401.9560062676109,334.88879138233654 L379.5884157651343,328.54534563927496 L381.4462735431126,351.72069403489684 L363.2088460762572,337.3004080400618 L356.0564609813549,359.42260947291805 L344.7256795592577,339.12084104880523 L329.65193738564136,356.82199088899887 L326.9528107660273,333.7295002421904 L306.2525521158169,344.3147588878748 L312.5959978588785,321.9471683853982 L289.42064946325667,323.8050261633765 L303.8409354580916,305.5675986965211 L281.7187340252354,298.4152136016188 L302.0205024493482,287.08443217952157 L284.3193526091546,272.01069000590525 L307.4118432559631,269.3115633862912 L296.82658461027864,248.6113047360808 L319.19417511275526,254.95475047914238 L317.33631733477694,231.77940208352052 L335.57374480163236,246.19968807835554 L342.72612989653464,224.07748664549928 L354.0569113186318,244.3792550696121 L369.1306534922482,226.67810522941846 L371.82978011186225,249.77059587622696 L392.53003876207265,239.18533723054256 L386.186593019011,261.55292773301915 L409.3619414146329,259.6950699550408 L394.9416554197979,277.9324974218962 Z" fill="#C9AE5D" stroke="#222" stroke-width="3"/>
        
      </g>
    </g>
  
    <g>
      <g>
        <animateTransform attributeName="transform" attributeType="XML"
          type="rotate"
          from="0 207.1781634703775 387.2113877598847"
          to="-360 207.1781634703775 387.2113877598847"
          dur="4.39s"
          repeatCount="indefinite"/>
        <path d="M301.91974944957065,377.8801560005105 L273.4972736558127,393.74324999144665 L298.2788834320838,414.8464890345095 L265.9493965265519,418.6252663019692 L280.7687586305101,447.60562841226374 L249.45413192704285,438.7248043719775 L252.05513281621248,471.1702921258481 L226.52273436261487,450.98189173307907 L216.50939522975168,481.95297373907783 L200.6463012388156,453.5304979453199 L179.5430621957527,478.31210772159096 L175.76428492829305,445.98262081605907 L146.78392281799847,460.8019829200173 L155.66474685828473,429.48735621655004 L123.21925910441414,432.0883571057197 L143.40765949718315,406.55595865212206 L112.43657749118438,396.5426195192589 L140.85905328494232,380.67952552832276 L116.07744350867124,359.5762864852599 L148.40693041420315,355.7975092178002 L133.58756831024493,326.81714710750566 L164.9021950137122,335.6979711477919 L162.30119412454252,303.25248339392135 L187.83359257814013,323.44088378669034 L197.84693171100335,292.46980178069157 L213.7100257019394,320.8922775744495 L234.8132647450023,296.11066779817844 L238.59204201246197,328.44015470371033 L267.57240412275655,313.6207925997522 L258.6915800824703,344.93541930321936 L291.13706783634086,342.3344184140497 L270.9486674435719,367.8668168676473 Z" fill="#F5F5F5" stroke="#222" stroke-width="3"/>
        
      </g>
    </g>
  
    <g>
      <g>
        <animateTransform attributeName="transform" attributeType="XML"
          type="rotate"
          from="0 79.63263237830057 220.0201217596234"
          to="360 79.63263237830057 220.0201217596234"
          dur="4.13s"
          repeatCount="indefinite"/>
        <path d="M199.68075069965596,196.14106634484932 L163.66631520324933,236.73546054996527 L181.40451292413212,288.0219182812227 L127.23388994342008,291.2604381417055 L103.51168779307469,340.0682400809788 L62.917293587958724,304.05380458457216 L11.630835856701253,321.79200230545496 L8.392315996218485,267.6213793247429 L-40.41548594305483,243.8991771743975 L-4.401050446648213,203.30478296928158 L-22.139248167530965,152.0183252380241 L32.031374813180996,148.77980537754138 L55.75357696352642,99.972003438268 L96.34797116864245,135.98643893467465 L147.63442889989983,118.24824121379184 L150.87294876038266,172.4188641945039 Z" fill="#FFD700" stroke="#222" stroke-width="3"/>
        
      </g>
    </g>
  
    <g>
      <g>
        <animateTransform attributeName="transform" attributeType="XML"
          type="rotate"
          from="0 208.3776712385885 41.21612303680698"
          to="-360 208.3776712385885 41.21612303680698"
          dur="3.93s"
          repeatCount="indefinite"/>
        <path d="M357.2573063487492,26.55275884350471 L312.59341581570095,51.480477972118564 L351.53594546412694,84.64271075407456 L300.73246604114826,90.58078931722545 L324.02003506165397,136.12135834768836 L274.8113359562055,122.16577771295279 L278.89862306775774,173.1515441833209 L238.7762826406758,141.4269149946839 L223.04103543189078,190.09575814696765 L198.11331630327695,145.43186761391945 L164.95108352132092,184.37439726234544 L159.01300495817006,133.57091783936676 L113.47243592770714,156.85848685987247 L127.42801656244268,107.64978775442394 L76.44225009207457,111.73707486597627 L108.16687928071158,71.61473443889429 L59.49803612842783,55.87948723010928 L104.16192666147603,30.95176810149539 L65.21939701305001,-2.2104646804605608 L116.02287643602875,-8.148543243611499 L92.73530741552301,-53.689112274074375 L141.94400652097158,-39.73353163933888 L137.8567194094192,-90.71929810970695 L177.9790598365012,-58.994668921069945 L193.71430704528626,-107.6635120733537 L218.64202617390004,-62.9996215403055 L251.80425895585603,-101.94215118873151 L257.742337519007,-51.138671765752775 L303.2829065494699,-74.42624078625848 L289.3273259147343,-25.21754168081003 L340.31309238510244,-29.30482879236233 L308.5884631964654,10.817511634719573 Z" fill="#B87333" stroke="#222" stroke-width="3"/>
        
      </g>
    </g>
  
    <g>
      <g>
        <animateTransform attributeName="transform" attributeType="XML"
          type="rotate"
          from="0 439.50847680771165 71.81357558247254"
          to="360 439.50847680771165 71.81357558247254"
          dur="3.69s"
          repeatCount="indefinite"/>
        <path d="M615.7634614117287,57.94200745778955 L562.8869660305236,81.52367326975063 L611.4234787340208,113.08671591219661 L553.8478077513084,119.17447717197605 L590.2552578655152,164.19132182425227 L533.6163191103715,152.18926604381608 L554.3308917524881,206.25335030055803 L504.17289917695746,177.336322322935 L507.1669076498595,235.15547693046804 L468.3996750385185,192.154076930889 L453.38004493239464,248.06856018648958 L429.79837912043354,195.19206480528447 L398.23533647798763,243.7285775087818 L392.14757521820815,186.1529065260694 L347.1307305659319,222.56035664027607 L359.1327863463681,165.92141788513237 L305.0687020896262,186.63599052724902 L333.98573006724916,136.47799795171838 L276.1665754597161,139.47200642462042 L319.1679754592952,100.7047738132794 L263.2534922036946,85.68514370715555 L316.1299875848997,62.10347789519446 L267.5934748814024,30.540435252748402 L325.16914586411474,24.452673992969096 L288.7616957499081,-20.564170659307194 L345.4006345050518,-8.562114878870986 L324.6860618629351,-62.62619913561289 L374.84405443846583,-33.70917115798994 L371.8500459655638,-91.528325765523 L410.6172785769048,-48.52692576594393 L425.63690868302854,-104.4414090215445 L449.21857449498964,-51.5649136403394 L480.7816171374356,-100.10142634383672 L486.8693783972152,-42.5257553611243 L531.8862230494915,-78.93320547533094 L519.8841672690552,-22.29426672018728 L573.9482515257971,-43.008839362304016 L545.0312235481741,7.149153213226725 L602.8503781557072,4.155144740324701 L559.848978156128,42.9223773516656 Z" fill="#F5F5F5" stroke="#222" stroke-width="3"/>
        <line x1="538.5164768077117" y1="71.81357558247254" x2="464.26047680771165" y2="71.81357558247254" stroke="#333" stroke-width="2"/><line x1="533.6706803730622" y1="102.40873016154734" x2="463.0490276990493" y2="79.46236422724124" stroke="#333" stroke-width="2"/><line x1="519.6076313867865" y1="130.0090178414457" x2="459.53326545248035" y2="86.36243614721583" stroke="#333" stroke-width="2"/><line x1="497.7039190666848" y1="151.91273016154736" x2="454.0573373724549" y2="91.83836422724124" stroke="#333" stroke-width="2"/><line x1="470.10363138678645" y1="165.97577914782312" x2="447.1572654524804" y2="95.35412647381018" stroke="#333" stroke-width="2"/><line x1="439.50847680771165" y1="170.82157558247255" x2="439.50847680771165" y2="96.56557558247255" stroke="#333" stroke-width="2"/><line x1="408.91332222863684" y1="165.97577914782312" x2="431.859688162943" y2="95.35412647381018" stroke="#333" stroke-width="2"/><line x1="381.3130345487385" y1="151.91273016154736" x2="424.95961624296837" y2="91.83836422724124" stroke="#333" stroke-width="2"/><line x1="359.4093222286368" y1="130.00901784144574" x2="419.48368816294294" y2="86.36243614721583" stroke="#333" stroke-width="2"/><line x1="345.34627324236106" y1="102.40873016154734" x2="415.967925916374" y2="79.46236422724124" stroke="#333" stroke-width="2"/><line x1="340.5004768077116" y1="71.81357558247255" x2="414.75647680771164" y2="71.81357558247254" stroke="#333" stroke-width="2"/><line x1="345.34627324236106" y1="41.21842100339771" x2="415.967925916374" y2="64.16478693770384" stroke="#333" stroke-width="2"/><line x1="359.4093222286368" y1="13.618133323499364" x2="419.48368816294294" y2="57.264715017729245" stroke="#333" stroke-width="2"/><line x1="381.3130345487385" y1="-8.285578996602254" x2="424.95961624296837" y2="51.78878693770384" stroke="#333" stroke-width="2"/><line x1="408.91332222863684" y1="-22.34862798287803" x2="431.8596881629429" y2="48.27302469113489" stroke="#333" stroke-width="2"/><line x1="439.50847680771165" y1="-27.194424417527472" x2="439.50847680771165" y2="47.061575582472535" stroke="#333" stroke-width="2"/><line x1="470.10363138678645" y1="-22.348627982878043" x2="447.1572654524803" y2="48.27302469113489" stroke="#333" stroke-width="2"/><line x1="497.7039190666848" y1="-8.285578996602283" x2="454.0573373724549" y2="51.78878693770383" stroke="#333" stroke-width="2"/><line x1="519.6076313867865" y1="13.618133323499329" x2="459.53326545248035" y2="57.26471501772924" stroke="#333" stroke-width="2"/><line x1="533.6706803730622" y1="41.21842100339772" x2="463.0490276990493" y2="64.16478693770384" stroke="#333" stroke-width="2"/><circle cx="439.50847680771165" cy="71.81357558247254" r="35.36000000000001" fill="#222"/>
      </g>
    </g>
  
  <text x="50%" y="95%" text-anchor="middle" font-size="32" fill="#fff" opacity="0.7" font-family="Arial">Gears Collection #83</text>
</svg>