<svg width="512" height="512" viewBox="0 0 512 512" xmlns="http://www.w3.org/2000/svg">
  <rect width="100%" height="100%" fill="#f5e663" />
  
    <g>
      <g>
        <animateTransform attributeName="transform" attributeType="XML"
          type="rotate"
          from="0 354.2452896532893 274.6510873929991"
          to="360 354.2452896532893 274.6510873929991"
          dur="3.51s"
          repeatCount="indefinite"/>
        <path d="M418.4450317919733,264.4828471653841 L399.1851091503681,281.7688555523296 L412.16071372553324,304.16046987606967 L386.4186481972772,306.824445936987 L383.7546721363599,332.566511465243 L361.36305781261984,319.59090689007786 L344.0770494256743,338.8508295316831 L333.58872191513996,315.19188424356986 L308.28334887616376,320.6130281701247 L313.70449280271856,295.30765513114846 L290.04554751460535,284.8193276206141 L309.30547015621056,267.5333192336686 L296.3298655810454,245.1417049099286 L322.07193110930143,242.47772884901119 L324.73590717021875,216.73566332075518 L347.1275214939588,229.71126789592034 L364.4135298809043,210.45134525431513 L374.9018573914387,234.11029054242834 L400.2072304304149,228.6891466158735 L394.7860865038601,253.9945196548497 Z" fill="#9DE09D" stroke="#222" stroke-width="3"/>
        
      </g>
    </g>
  
    <g>
      <g>
        <animateTransform attributeName="transform" attributeType="XML"
          type="rotate"
          from="0 177.88141010622272 372.1786809746428"
          to="-360 177.88141010622272 372.1786809746428"
          dur="3.71s"
          repeatCount="indefinite"/>
        <path d="M267.1328706229167,354.4254616711751 L240.3574324679085,384.60593448707016 L253.54514482575433,422.73557217942664 L213.27123394957138,425.14329527831495 L195.6346294096904,461.43014149133677 L165.45415659379537,434.65470333632857 L127.3245189014389,447.8424156941744 L124.91679580255058,407.5685048179915 L88.62994958952875,389.9319002781105 L115.40538774453694,359.7514274622155 L102.2176753866911,321.621789769859 L142.49158626287402,319.21406667097074 L160.128190802755,282.92722045794886 L190.3086636186501,309.70265861295707 L228.43830131100648,296.51494625511117 L230.84602440989485,336.78885713129415 Z" fill="#9DE09D" stroke="#222" stroke-width="3"/>
        
      </g>
    </g>
  
    <g>
      <g>
        <animateTransform attributeName="transform" attributeType="XML"
          type="rotate"
          from="0 138.4965896629626 119.64403731715353"
          to="360 138.4965896629626 119.64403731715353"
          dur="5.33s"
          repeatCount="indefinite"/>
        <path d="M254.93320268360964,108.17603189859494 L220.00221877741552,127.67164111014455 L250.45860894363102,153.60734455592564 L210.72594121309288,158.25143006320275 L228.9388127064028,193.86805156430006 L190.45339963596518,182.95359344756167 L193.65000787160432,222.82882524591108 L162.27090473010307,198.01745081362145 L149.9645950815212,236.0806503378006 L130.46898586997162,201.14966643160645 L104.5332824241905,231.60605659782198 L99.88919691691342,191.87338886728384 L64.27257541581609,210.08626036059377 L75.18703353255445,171.60084729015608 L35.311801734205076,174.79745552579527 L60.123176166494716,143.418352384294 L22.059976642315576,131.11204273571215 L56.99096054850969,111.61643352416252 L26.534570382294163,85.68073007838146 L66.26723811283233,81.03664457110433 L48.05436661952237,45.42002307000703 L86.53977968996007,56.334481186745364 L83.34317145432085,16.459249388396003 L114.72227459582214,41.27062382068564 L127.02858424440403,3.2074242965064883 L146.52419345595357,38.13840820270062 L172.45989690173468,7.68201803648509 L177.1039824090118,47.41468576702326 L212.72060391010916,29.201814273713325 L201.80614579337072,67.68722734415093 L241.68137759172012,64.49061910851178 L216.8700031594305,95.86972225001298 Z" fill="#C9AE5D" stroke="#222" stroke-width="3"/>
        
      </g>
    </g>
  
    <g>
      <g>
        <animateTransform attributeName="transform" attributeType="XML"
          type="rotate"
          from="0 436.8243353331584 130.69014503511116"
          to="-360 436.8243353331584 130.69014503511116"
          dur="4.95s"
          repeatCount="indefinite"/>
        <path d="M577.0766304308204,102.79222898680482 L535.0009419015217,150.21868626892558 L555.7244898924223,210.13668835691425 L492.43691565842056,213.92025322659595 L464.72225138146473,270.9424401327731 L417.295794099344,228.86675160347454 L357.37779201135527,249.5902995943751 L353.5942271416736,186.30272536037333 L296.57204023549644,158.58806108341747 L338.64772876479503,111.16160380129675 L317.9241807738944,51.243601713308024 L381.21175500789616,47.460036843626426 L408.926419284852,-9.562150062550785 L456.35287656697284,32.513538466747804 L516.2708786549615,11.789990475847162 L520.0544435246431,75.07756470984899 Z" fill="#B87333" stroke="#222" stroke-width="3"/>
        
      </g>
    </g>
  
  <text x="50%" y="95%" text-anchor="middle" font-size="32" fill="#fff" opacity="0.7" font-family="Arial">Gears Collection #86</text>
</svg>