<svg width="512" height="512" viewBox="0 0 512 512" xmlns="http://www.w3.org/2000/svg">
  <rect width="100%" height="100%" fill="#8ec6f3" />
  
    <g>
      <g>
        <animateTransform attributeName="transform" attributeType="XML"
          type="rotate"
          from="0 355.90058019224335 260.45803513368304"
          to="360 355.90058019224335 260.45803513368304"
          dur="3.58s"
          repeatCount="indefinite"/>
        <path d="M420.34449618154105,251.97383263937968 L401.01132138475174,266.3969768796954 L415.95274980547697,285.3324582374139 L391.99815717549455,288.1566801535798 L395.4700730778102,312.02600225261335 L373.31267636485495,302.4945538629466 L364.3847826865467,324.90195112298073 L349.961638446231,305.5687763261914 L331.0261570885125,320.51020474691666 L328.20193517234657,296.55561211693424 L304.33261307331304,300.02752801924987 L313.8640614629798,277.87013130629464 L291.45666420294566,268.9422376279864 L310.78983899973497,254.5190933876707 L295.8484105790097,235.58361202995223 L319.80300320899215,232.75939011378625 L316.3310873066765,208.89006801475279 L338.48848401963176,218.4215164044195 L347.41637769794,196.01411914438535 L361.8395219382557,215.34729394117466 L380.7750032959742,200.40586552044942 L383.59922521214014,224.36045815043184 L407.4685473111736,220.88854224811618 L397.9370989215069,243.04593896107147 Z" fill="#FFD700" stroke="#222" stroke-width="3"/>
        
      </g>
    </g>
  
    <g>
      <g>
        <animateTransform attributeName="transform" attributeType="XML"
          type="rotate"
          from="0 139.13012366765903 333.080685038882"
          to="-360 139.13012366765903 333.080685038882"
          dur="3.71s"
          repeatCount="indefinite"/>
        <path d="M229.69193379482897,324.16112526889196 L202.52339075667797,339.324376877875 L226.21169421929005,359.4965906690381 L195.30850820664926,363.10865717469807 L209.4740749236681,390.8104738977737 L179.54097586888327,382.3214509180883 L182.0272267188248,413.3355200945823 L157.62125760876827,394.0377844250237 L148.04968343764904,423.6424951660519 L132.88643182866605,396.47395212790093 L112.71421803750296,420.162255590513 L109.102151531843,389.2590695778722 L81.4003348087673,403.42463629489106 L89.88935778845268,373.4915372401062 L58.87528861195874,375.9777880900478 L78.17302428151734,351.57181897999124 L48.56831354048913,342.000244808872 L75.7368565786401,326.836993199889 L52.04855311602802,306.66477940872596 L82.95173912866882,303.0527129030659 L68.78617241164996,275.3508961799903 L98.71927146643483,283.8399191596756 L96.23302061649322,252.82584998318168 L120.63898972654978,272.1235856527403 L130.21056389766903,242.5188749117121 L145.37381550665202,269.68741794986306 L165.5460292978151,245.99911448725098 L169.15809580347508,276.9023004998918 L196.85991252655077,262.73673378287293 L188.37088954686536,292.66983283765774 L219.38495872335932,290.1835819877162 L200.08722305380073,314.5895510977727 Z" fill="#E5E4E2" stroke="#222" stroke-width="3"/>
        <line x1="190.09012366765904" y1="333.080685038882" x2="151.87012366765904" y2="333.080685038882" stroke="#333" stroke-width="2"/><line x1="186.21102464443422" y1="352.58223275220695" x2="150.90034891185283" y2="337.95607196721323" stroke="#333" stroke-width="2"/><line x1="175.1642852369255" y1="369.11484660814847" x2="148.13866405997564" y2="342.0892254311986" stroke="#333" stroke-width="2"/><line x1="158.63167138098402" y1="380.1615860156572" x2="144.00551059599027" y2="344.8509102830758" stroke="#333" stroke-width="2"/><line x1="139.13012366765903" y1="384.040685038882" x2="139.13012366765903" y2="345.820685038882" stroke="#333" stroke-width="2"/><line x1="119.62857595433407" y1="380.1615860156572" x2="134.2547367393278" y2="344.8509102830758" stroke="#333" stroke-width="2"/><line x1="103.09596209839258" y1="369.11484660814847" x2="130.12158327534243" y2="342.0892254311986" stroke="#333" stroke-width="2"/><line x1="92.04922269088385" y1="352.582232752207" x2="127.35989842346524" y2="337.95607196721323" stroke="#333" stroke-width="2"/><line x1="88.17012366765903" y1="333.080685038882" x2="126.39012366765904" y2="333.080685038882" stroke="#333" stroke-width="2"/><line x1="92.04922269088385" y1="313.57913732555704" x2="127.35989842346524" y2="328.20529811055076" stroke="#333" stroke-width="2"/><line x1="103.09596209839256" y1="297.0465234696155" x2="130.1215832753424" y2="324.0721446465654" stroke="#333" stroke-width="2"/><line x1="119.62857595433408" y1="285.9997840621068" x2="134.2547367393278" y2="321.3104597946882" stroke="#333" stroke-width="2"/><line x1="139.13012366765903" y1="282.120685038882" x2="139.13012366765903" y2="320.340685038882" stroke="#333" stroke-width="2"/><line x1="158.63167138098402" y1="285.9997840621068" x2="144.00551059599027" y2="321.3104597946882" stroke="#333" stroke-width="2"/><line x1="175.16428523692548" y1="297.0465234696155" x2="148.13866405997564" y2="324.0721446465654" stroke="#333" stroke-width="2"/><line x1="186.21102464443422" y1="313.57913732555704" x2="150.90034891185283" y2="328.20529811055076" stroke="#333" stroke-width="2"/><circle cx="139.13012366765903" cy="333.080685038882" r="18.2" fill="#222"/>
      </g>
    </g>
  
    <g>
      <g>
        <animateTransform attributeName="transform" attributeType="XML"
          type="rotate"
          from="0 310.2498598125131 84.3697208814171"
          to="360 310.2498598125131 84.3697208814171"
          dur="4.52s"
          repeatCount="indefinite"/>
        <path d="M425.001737619691,61.544153205530094 L390.57617427753763,100.34761825453799 L407.5318044519109,149.37143814471057 L355.7510618968185,152.46708212899554 L333.0754274884001,199.12159868859504 L294.2719624393922,164.69603534644165 L245.2481425492196,181.65166552081487 L242.1524985649346,129.8709229657225 L195.49798200533513,107.19528855730408 L229.92354534748853,68.39182350829623 L212.96791517311527,19.368003618123623 L264.7486577282076,16.27235963383869 L287.42429213662604,-30.382156925760853 L326.227757185634,4.0434064163925285 L375.2515770758065,-12.912223757980726 L378.34722106009156,38.86851879711168 Z" fill="#C9AE5D" stroke="#222" stroke-width="3"/>
        
      </g>
    </g>
  
  <text x="50%" y="95%" text-anchor="middle" font-size="32" fill="#fff" opacity="0.7" font-family="Arial">Gears Collection #50</text>
</svg>