<svg width="512" height="512" viewBox="0 0 512 512" xmlns="http://www.w3.org/2000/svg">
  <rect width="100%" height="100%" fill="#8ec6f3" />
  
    <g>
      <g>
        <animateTransform attributeName="transform" attributeType="XML"
          type="rotate"
          from="0 318.450689794692 334.10192919619305"
          to="360 318.450689794692 334.10192919619305"
          dur="3.81s"
          repeatCount="indefinite"/>
        <path d="M382.20173302090194,321.4210582651447 L363.076420053039,342.97853884792687 L372.4962145943574,370.2139943424672 L343.7291353970839,371.93379655595885 L331.1315607257403,397.852972422403 L309.57408014295817,378.72765945454006 L282.33862464841786,388.1474539958585 L280.6188224349262,359.38037479858497 L254.699646568482,346.7828001272414 L273.824959536345,325.22531954445924 L264.40516499502655,297.9898640499189 L293.17224419230007,296.27006183642726 L305.7698188636436,270.3508859699831 L327.3272994464258,289.47619893784605 L354.5627549409661,280.05640439652757 L356.2825571544578,308.82348359380114 Z" fill="#FFD700" stroke="#222" stroke-width="3"/>
        
      </g>
    </g>
  
    <g>
      <g>
        <animateTransform attributeName="transform" attributeType="XML"
          type="rotate"
          from="0 183.4381613140843 375.72793979067353"
          to="-360 183.4381613140843 375.72793979067353"
          dur="5.19s"
          repeatCount="indefinite"/>
        <path d="M273.659643699101,363.85005629864884 L246.59319898359604,384.0424582350908 L267.5111987726114,410.5521321358967 L233.974769090636,414.506042818529 L238.8354513538779,447.92309375717593 L207.81509595574053,434.5790660116425 L195.316044806109,465.9494221756903 L175.12364286966704,438.88297746018526 L148.61396896886114,459.8009772492006 L144.6600582862288,426.26454756722524 L111.2430073475819,431.1252298304671 L124.58703509311535,400.1048744323298 L93.21667892906757,387.6058232826982 L120.28312364457258,367.41342134625626 L99.3651238555572,340.9037474454504 L132.90155353753264,336.94983676281805 L128.0408712742907,303.5327858241711 L159.06122667242812,316.87681356970455 L171.56027782205962,285.50645740565676 L191.75267975850164,312.5729021211618 L218.2623536593075,291.65490233214643 L222.2162643419398,325.1913320141218 L255.6333152805867,320.33064975087996 L242.2892875350533,351.35100514901734 Z" fill="#E5E4E2" stroke="#222" stroke-width="3"/>
        
      </g>
    </g>
  
    <g>
      <g>
        <animateTransform attributeName="transform" attributeType="XML"
          type="rotate"
          from="0 76.13021705870139 249.1544770360386"
          to="360 76.13021705870139 249.1544770360386"
          dur="4.66s"
          repeatCount="indefinite"/>
        <path d="M192.76954510547736,239.97476283588074 L157.77774669144458,255.5802769761491 L189.89749774522954,276.46758460717956 L151.79595077137577,280.49625014673944 L175.8891162881302,310.28680910780463 L138.40746564134392,302.3442721942806 L152.11563871333288,338.1219750112422 L118.9228495089376,318.9857064966387 L120.90417864541689,357.2483823398592 L95.24939235850005,328.7915735166083 L85.30993125885925,365.7938050828146 L69.7044171185909,330.80200666878176 L48.81710948756049,362.9217577225668 L44.78844394800055,324.82021074871295 L14.997884986935382,348.9133762654674 L22.940421900459363,311.4317256186811 L-12.837280916502209,325.13989869067007 L6.298987598101249,291.9471094862748 L-31.963688245119158,293.92843862275413 L-3.5068794218683053,268.27365233583726 L-40.50911098807458,258.3341912361965 L-5.517312574041782,242.7286770959281 L-37.63706362782676,221.84136946489764 L0.46448334602699504,217.8127039253378 L-23.6286821707274,188.0221449642726 L13.852968476058855,195.96468187779658 L0.14479540406985336,160.18697906083503 L33.33758460846521,179.32324757543844 L31.356255471985918,141.06057173221802 L57.01104175890276,169.5173805554689 L66.95050285854346,132.51514898926263 L82.55601699881184,167.5069474032954 L103.44332462984225,135.38719634951042 L107.47199016940226,173.48874332336425 L137.26254913046742,149.39557780660982 L129.32001221694344,186.87722845339607 L165.09771503390496,173.16905538140708 L145.96144651930155,206.3618445858024 L184.22412236252194,204.38051544932313 L155.76731353927107,230.0353017362399 Z" fill="#9DE09D" stroke="#222" stroke-width="3"/>
        <line x1="141.6502170587014" y1="249.1544770360386" x2="92.51021705870139" y2="249.1544770360386" stroke="#333" stroke-width="2"/><line x1="138.44344000635985" y1="269.40127050748515" x2="91.708522795616" y2="254.21617540390025" stroke="#333" stroke-width="2"/><line x1="129.13701053014796" y1="287.6661667662414" x2="89.38191542656303" y2="258.7823994685893" stroke="#333" stroke-width="2"/><line x1="114.64190678890424" y1="302.16127050748514" x2="85.7581394912521" y2="262.40617540390025" stroke="#333" stroke-width="2"/><line x1="96.37701053014794" y1="311.46769998369706" x2="81.19191542656303" y2="264.7327827729532" stroke="#333" stroke-width="2"/><line x1="76.13021705870139" y1="314.6744770360386" x2="76.13021705870139" y2="265.5344770360386" stroke="#333" stroke-width="2"/><line x1="55.88342358725484" y1="311.46769998369706" x2="71.06851869083975" y2="264.7327827729532" stroke="#333" stroke-width="2"/><line x1="37.61852732849856" y1="302.16127050748514" x2="66.50229462615069" y2="262.40617540390025" stroke="#333" stroke-width="2"/><line x1="23.12342358725484" y1="287.6661667662414" x2="62.878518690839755" y2="258.7823994685893" stroke="#333" stroke-width="2"/><line x1="13.816994111042938" y1="269.40127050748515" x2="60.551911321786775" y2="254.21617540390025" stroke="#333" stroke-width="2"/><line x1="10.610217058701394" y1="249.1544770360386" x2="59.750217058701395" y2="249.1544770360386" stroke="#333" stroke-width="2"/><line x1="13.816994111042938" y1="228.90768356459202" x2="60.551911321786775" y2="244.09277866817695" stroke="#333" stroke-width="2"/><line x1="23.123423587254834" y1="210.64278730583578" x2="62.878518690839755" y2="239.52655460348788" stroke="#333" stroke-width="2"/><line x1="37.618527328498544" y1="196.14768356459206" x2="66.50229462615067" y2="235.90277866817695" stroke="#333" stroke-width="2"/><line x1="55.883423587254825" y1="186.84125408838014" x2="71.06851869083975" y2="233.57617129912398" stroke="#333" stroke-width="2"/><line x1="76.13021705870138" y1="183.63447703603862" x2="76.13021705870139" y2="232.7744770360386" stroke="#333" stroke-width="2"/><line x1="96.37701053014793" y1="186.84125408838014" x2="81.19191542656303" y2="233.57617129912398" stroke="#333" stroke-width="2"/><line x1="114.64190678890421" y1="196.14768356459203" x2="85.7581394912521" y2="235.90277866817695" stroke="#333" stroke-width="2"/><line x1="129.13701053014793" y1="210.64278730583575" x2="89.38191542656303" y2="239.52655460348788" stroke="#333" stroke-width="2"/><line x1="138.44344000635985" y1="228.90768356459205" x2="91.708522795616" y2="244.09277866817695" stroke="#333" stroke-width="2"/><circle cx="76.13021705870139" cy="249.1544770360386" r="23.400000000000002" fill="#222"/>
      </g>
    </g>
  
    <g>
      <g>
        <animateTransform attributeName="transform" attributeType="XML"
          type="rotate"
          from="0 97.5404424041921 103.38752145862765"
          to="-360 97.5404424041921 103.38752145862765"
          dur="4.43s"
          repeatCount="indefinite"/>
        <path d="M239.317057580647,84.72227597116027 L196.78407302771052,116.4531932998548 L229.6552155533061,158.11125228683548 L176.95511176734476,164.32454050240057 L184.59332675243917,216.8370491202743 L135.8470539839376,195.86786266300743 L116.2056878916595,245.16413663508254 L84.47477056296496,202.63115208214606 L42.81671157598428,235.50229460774165 L36.60342336041917,182.8021908217803 L-15.909085257454535,190.44040580687465 L5.060101199812308,141.69413303837314 L-44.23617277226279,122.05276694609502 L-1.7031882193263215,90.32184961740052 L-34.57433074492192,48.66379063041989 L18.125773041039466,42.45050241485471 L10.487558055945016,-10.062006203018953 L59.23383082444665,10.907180254247834 L78.87519691672472,-38.38909371782725 L110.60611424541932,4.143890835109232 L152.26417323239997,-28.727251690486355 L158.47746144796503,23.972852095475005 L210.9899700658387,16.334637110380555 L190.02078360857192,65.08090987888218 Z" fill="#FFD700" stroke="#222" stroke-width="3"/>
        <line x1="177.6204424041921" y1="103.38752145862765" x2="117.5604424041921" y2="103.38752145862765" stroke="#333" stroke-width="2"/><line x1="166.89175673924996" y1="143.42752145862764" x2="114.87827098795657" y2="113.39752145862764" stroke="#333" stroke-width="2"/><line x1="137.58044240419213" y1="172.7388357936855" x2="107.55044240419211" y2="120.72535004239211" stroke="#333" stroke-width="2"/><line x1="97.5404424041921" y1="183.46752145862763" x2="97.5404424041921" y2="123.40752145862764" stroke="#333" stroke-width="2"/><line x1="57.50044240419213" y1="172.7388357936855" x2="87.53044240419212" y2="120.72535004239211" stroke="#333" stroke-width="2"/><line x1="28.189128069134256" y1="143.42752145862764" x2="80.20261382042764" y2="113.39752145862764" stroke="#333" stroke-width="2"/><line x1="17.460442404192108" y1="103.38752145862766" x2="77.52044240419211" y2="103.38752145862765" stroke="#333" stroke-width="2"/><line x1="28.18912806913427" y1="63.34752145862764" x2="80.20261382042764" y2="93.37752145862764" stroke="#333" stroke-width="2"/><line x1="57.50044240419207" y1="34.03620712356981" x2="87.5304424041921" y2="86.04969287486318" stroke="#333" stroke-width="2"/><line x1="97.54044240419209" y1="23.307521458627647" x2="97.5404424041921" y2="83.36752145862765" stroke="#333" stroke-width="2"/><line x1="137.58044240419213" y1="34.03620712356981" x2="107.55044240419211" y2="86.04969287486318" stroke="#333" stroke-width="2"/><line x1="166.89175673924993" y1="63.34752145862761" x2="114.87827098795657" y2="93.37752145862764" stroke="#333" stroke-width="2"/><circle cx="97.5404424041921" cy="103.38752145862765" r="28.6" fill="#222"/>
      </g>
    </g>
  
    <g>
      <g>
        <animateTransform attributeName="transform" attributeType="XML"
          type="rotate"
          from="0 501.19148330591634 169.50643657332336"
          to="360 501.19148330591634 169.50643657332336"
          dur="4.91s"
          repeatCount="indefinite"/>
        <path d="M669.3777021135177,152.94153985762762 L618.9218364712373,181.10186427431037 L662.9144000446596,218.56454702932749 L605.5227688783267,225.27267053983888 L631.8302499242188,276.71890159697944 L576.2402088224756,260.95357320613516 L580.85753182951,318.55113024819536 L535.5321606251192,282.71247829044364 L517.756380021612,337.69265538092463 L489.59605560492935,287.23678973864423 L452.1333728499122,331.2293533120667 L445.42524933940086,273.8377221457338 L393.97901828226026,300.1452031916259 L409.74434667310453,244.55516208988263 L352.1467896310444,249.172485096917 L387.98544158879605,203.84711389252624 L333.0052644983151,186.07133328901915 L383.46113014059546,157.91100887233634 L339.468566567173,120.44832611731925 L396.86019773350597,113.74020260680783 L370.5527166876137,62.293971549667305 L426.1427577893571,78.05929994051155 L421.5254347823227,20.461742898451377 L466.85080598671345,56.300394856203056 L484.6265865902206,1.3202177657220773 L512.7869110069033,51.776083408002464 L550.2495937619204,7.783519834580034 L556.9577172724319,65.17515100091296 L608.4039483295725,38.86766995502083 L592.6386199387281,94.45771105676404 L650.2361769807883,89.84038804972971 L614.3975250230366,135.16575925412036 Z" fill="#C0C0C0" stroke="#222" stroke-width="3"/>
        
      </g>
    </g>
  
  <text x="50%" y="95%" text-anchor="middle" font-size="32" fill="#fff" opacity="0.7" font-family="Arial">Gears Collection #75</text>
</svg>