<svg width="512" height="512" viewBox="0 0 512 512" xmlns="http://www.w3.org/2000/svg">
  <rect width="100%" height="100%" fill="#8ec6f3" />
  
    <g>
      <g>
        <animateTransform attributeName="transform" attributeType="XML"
          type="rotate"
          from="0 324.0071028062677 329.3146231518497"
          to="360 324.0071028062677 329.3146231518497"
          dur="4.21s"
          repeatCount="indefinite"/>
        <path d="M383.4937944886963,321.4830516186466 L365.64778698396776,334.79672322509185 L379.4398747569449,352.2756290937551 L357.3279430984996,354.88260317021593 L360.5327885467909,376.9158235693238 L340.0798069656015,368.11756351732373 L331.8386743394708,388.8013148342783 L318.52500273302553,370.9553073295497 L301.0460968643623,384.74739510252687 L298.43912278790145,362.63546344408155 L276.4059023887936,365.8403088923729 L285.20416244079365,345.38732731118347 L264.5204111238391,337.14619468505276 L282.36641862856766,323.8325230786075 L268.57433085559046,306.35361720994433 L290.68626251403583,303.7466431334834 L287.48141706574444,281.71342273437557 L307.93439864693397,290.5116827863756 L316.1755312730646,269.82793146942106 L329.4892028795099,287.6739389741496 L346.9681087481731,273.8818512011725 L349.57508282463397,295.9937828596178 L371.6083032237418,292.7889374113264 L362.81004317174177,313.24191899251593 Z" fill="#F5F5F5" stroke="#222" stroke-width="3"/>
        
      </g>
    </g>
  
    <g>
      <g>
        <animateTransform attributeName="transform" attributeType="XML"
          type="rotate"
          from="0 265.65434008051415 395.6667237304927"
          to="-360 265.65434008051415 395.6667237304927"
          dur="4.01s"
          repeatCount="indefinite"/>
        <path d="M349.3953961140969,389.07615968935374 L324.2730793040221,400.28011855929003 L347.333413393919,415.2761342943888 L319.9784565921778,418.16850955356 L337.2761138862579,439.55660316663244 L310.366210857796,433.8542689723075 L320.20797614024957,459.5408248408953 L296.3772556858119,445.80196539451333 L297.7997483991817,473.2726044614408 L279.3809274752414,452.8420750498761 L272.2449041216531,479.4077797640755 L261.0409452517169,454.28546295400065 L246.0449295166181,477.34579704389756 L243.15255425744687,449.99084024215637 L221.76446064437445,467.2884975362365 L227.46679483869934,440.37859450777455 L201.78023897011155,450.22035979022814 L215.51909841649353,426.3896393357905 L188.04845934956606,427.81213204916025 L208.47898876113078,409.39331112521995 L181.91328404693138,402.2572877716317 L207.03560085700622,391.05332890169547 L183.9752667671093,376.05731316659666 L211.33022356885047,373.1649379074255 L194.03256627477037,351.77684429435305 L220.94246930323231,357.4791784886779 L211.10070402077866,331.7926226200901 L234.93142447521637,345.5314820664721 L233.5089317618466,318.0608429995446 L251.9277526857869,338.49137241110935 L259.0637760393751,311.92566769690995 L270.2677349093114,337.0479845069848 L285.26375064441015,313.9876504170879 L288.1561259035814,341.3426072188291 L309.54421951665387,324.044949924749 L303.84188532232895,350.9548529532109 L329.52844119091674,341.11308767075724 L315.78958174453476,364.94380812519495 L343.26022081146226,363.5213154118252 L322.8296913998975,381.94013633576543 Z" fill="#F5F5F5" stroke="#222" stroke-width="3"/>
        <line x1="312.69434008051417" y1="395.6667237304927" x2="277.41434008051414" y2="395.6667237304927" stroke="#333" stroke-width="2"/><line x1="310.39203860703816" y1="410.20288314589027" x2="276.8387647121452" y2="399.3007635843421" stroke="#333" stroke-width="2"/><line x1="303.7104994959117" y1="423.31614199833064" x2="275.16837993436354" y2="402.5790782974522" stroke="#333" stroke-width="2"/><line x1="293.30375834835206" y1="433.72288314589025" x2="272.56669464747364" y2="405.1807635843421" stroke="#333" stroke-width="2"/><line x1="280.1904994959117" y1="440.40442225701673" x2="269.28837993436355" y2="406.85114836212375" stroke="#333" stroke-width="2"/><line x1="265.65434008051415" y1="442.70672373049274" x2="265.65434008051415" y2="407.4267237304927" stroke="#333" stroke-width="2"/><line x1="251.11818066511663" y1="440.40442225701673" x2="262.02030022666474" y2="406.85114836212375" stroke="#333" stroke-width="2"/><line x1="238.00492181267623" y1="433.72288314589025" x2="258.74198551355465" y2="405.1807635843421" stroke="#333" stroke-width="2"/><line x1="227.59818066511662" y1="423.31614199833064" x2="256.14030022666475" y2="402.5790782974522" stroke="#333" stroke-width="2"/><line x1="220.91664155399013" y1="410.20288314589027" x2="254.46991544888314" y2="399.3007635843421" stroke="#333" stroke-width="2"/><line x1="218.61434008051415" y1="395.6667237304927" x2="253.89434008051416" y2="395.6667237304927" stroke="#333" stroke-width="2"/><line x1="220.91664155399013" y1="381.13056431509517" x2="254.46991544888314" y2="392.0326838766433" stroke="#333" stroke-width="2"/><line x1="227.59818066511662" y1="368.0173054626548" x2="256.14030022666475" y2="388.7543691635332" stroke="#333" stroke-width="2"/><line x1="238.0049218126762" y1="357.6105643150952" x2="258.74198551355465" y2="386.1526838766433" stroke="#333" stroke-width="2"/><line x1="251.11818066511663" y1="350.9290252039687" x2="262.02030022666474" y2="384.4822990988617" stroke="#333" stroke-width="2"/><line x1="265.65434008051415" y1="348.6267237304927" x2="265.65434008051415" y2="383.90672373049273" stroke="#333" stroke-width="2"/><line x1="280.19049949591164" y1="350.9290252039687" x2="269.28837993436355" y2="384.4822990988617" stroke="#333" stroke-width="2"/><line x1="293.30375834835206" y1="357.6105643150952" x2="272.56669464747364" y2="386.1526838766433" stroke="#333" stroke-width="2"/><line x1="303.7104994959117" y1="368.0173054626548" x2="275.16837993436354" y2="388.7543691635332" stroke="#333" stroke-width="2"/><line x1="310.39203860703816" y1="381.13056431509517" x2="276.8387647121452" y2="392.0326838766433" stroke="#333" stroke-width="2"/><circle cx="265.65434008051415" cy="395.6667237304927" r="16.8" fill="#222"/>
      </g>
    </g>
  
    <g>
      <g>
        <animateTransform attributeName="transform" attributeType="XML"
          type="rotate"
          from="0 76.0029624838786 254.96729219041077"
          to="360 76.0029624838786 254.96729219041077"
          dur="5.03s"
          repeatCount="indefinite"/>
        <path d="M183.07900751225014,240.8704634306452 L150.95619400373866,264.8350723222467 L175.7819519950976,296.29710288584045 L135.98047500989597,300.98965622347004 L141.74919681682042,340.6494529418642 L104.9338299706794,324.81258484826407 L90.09979124364419,362.0433372187823 L66.13518235204272,329.92052371027086 L34.67315178844891,354.74628170162975 L29.98059845081933,314.94480471642817 L-9.679198267574805,320.7135265233526 L6.157669826025327,283.89815967721154 L-31.07308254449292,269.06412095017635 L1.0497309640185364,245.0995120585749 L-23.77602702734039,213.63748149498113 L16.025449957861234,208.9449281573515 L10.256728150936752,169.2851314389574 L47.07209499707784,185.12199953255748 L61.90613372411303,147.89124716203924 L85.87074261571455,180.01406067055072 L117.33277317930833,155.18830267919182 L122.02532651693787,194.9897796643934 L161.685123235332,189.2210578574689 L145.8482551417319,226.03642470361 Z" fill="#B87333" stroke="#222" stroke-width="3"/>
        
      </g>
    </g>
  
    <g>
      <g>
        <animateTransform attributeName="transform" attributeType="XML"
          type="rotate"
          from="0 93.3905041148688 107.81716749912124"
          to="-360 93.3905041148688 107.81716749912124"
          dur="4.12s"
          repeatCount="indefinite"/>
        <path d="M224.7548880355988,94.87890497561924 L185.34557285937979,116.87395126557264 L219.70662843152036,146.13474489671026 L174.8800289406568,151.3742259818434 L195.4278839587501,191.55708100872243 L152.00844357158965,179.24333338983814 L155.6148733759005,224.23077439310413 L120.21280829318113,196.23845452077734 L106.3287666383708,239.18155141985125 L84.33372034841742,199.77223624363222 L55.07292671727977,234.1332918157728 L49.833445632146656,189.30669232490925 L9.65059060526761,209.85454734300254 L21.964338224151916,166.4351069558421 L-23.023102779114055,170.04153676015295 L4.96921709321272,134.63947167743356 L-37.97387980586117,120.75543002262327 L1.4354353703578226,98.76038373266984 L-32.92562020178278,69.49959010153225 L11.900979289080809,64.26010901639907 L-8.646875729012493,24.07725398952006 L34.772564658148,36.39100160840432 L31.16613485383708,-8.59643939486162 L66.56819993655648,19.395880477465155 L80.45224159136683,-23.547216421608766 L102.44728788132015,15.862098754610258 L131.7080815124578,-18.498956817530342 L136.94756259759097,26.327642673333244 L177.13041762447003,5.779787655239971 L164.81667000558565,49.199228042400364 L209.80411100885163,45.592798238089514 L181.81179113652487,80.99486332080883 Z" fill="#E5E4E2" stroke="#222" stroke-width="3"/>
        <line x1="167.31050411486882" y1="107.81716749912124" x2="111.87050411486881" y2="107.81716749912124" stroke="#333" stroke-width="2"/><line x1="161.68367915810313" y1="136.10512681954867" x2="110.46379787567739" y2="114.8891573292281" stroke="#333" stroke-width="2"/><line x1="145.6598373801784" y1="160.08650076443084" x2="106.4578374311962" y2="120.88450081544863" stroke="#333" stroke-width="2"/><line x1="121.67846343529624" y1="176.11034254235557" x2="100.46249394497566" y2="124.89046125992982" stroke="#333" stroke-width="2"/><line x1="93.3905041148688" y1="181.73716749912126" x2="93.3905041148688" y2="126.29716749912124" stroke="#333" stroke-width="2"/><line x1="65.10254479444137" y1="176.11034254235557" x2="86.31851428476195" y2="124.89046125992982" stroke="#333" stroke-width="2"/><line x1="41.12117084955921" y1="160.08650076443084" x2="80.32317079854141" y2="120.88450081544863" stroke="#333" stroke-width="2"/><line x1="25.09732907163449" y1="136.10512681954867" x2="76.31721035406022" y2="114.8891573292281" stroke="#333" stroke-width="2"/><line x1="19.470504114868803" y1="107.81716749912125" x2="74.9105041148688" y2="107.81716749912124" stroke="#333" stroke-width="2"/><line x1="25.097329071634476" y1="79.52920817869384" x2="76.31721035406022" y2="100.7451776690144" stroke="#333" stroke-width="2"/><line x1="41.1211708495592" y1="55.54783423381165" x2="80.3231707985414" y2="94.74983418279385" stroke="#333" stroke-width="2"/><line x1="65.10254479444139" y1="39.52399245588691" x2="86.31851428476195" y2="90.74387373831266" stroke="#333" stroke-width="2"/><line x1="93.39050411486879" y1="33.89716749912124" x2="93.3905041148688" y2="89.33716749912124" stroke="#333" stroke-width="2"/><line x1="121.67846343529627" y1="39.523992455886926" x2="100.46249394497566" y2="90.74387373831266" stroke="#333" stroke-width="2"/><line x1="145.65983738017837" y1="55.547834233811635" x2="106.4578374311962" y2="94.74983418279383" stroke="#333" stroke-width="2"/><line x1="161.68367915810313" y1="79.52920817869382" x2="110.46379787567739" y2="100.74517766901438" stroke="#333" stroke-width="2"/><circle cx="93.3905041148688" cy="107.81716749912124" r="26.400000000000002" fill="#222"/>
      </g>
    </g>
  
    <g>
      <g>
        <animateTransform attributeName="transform" attributeType="XML"
          type="rotate"
          from="0 493.7800633208812 150.8304155797993"
          to="360 493.7800633208812 150.8304155797993"
          dur="3.56s"
          repeatCount="indefinite"/>
        <path d="M646.7825670637851,120.3963253452833 L600.881815940914,172.13427874396052 L623.4893228400782,237.49937193085725 L554.4483327666218,241.62689724323724 L524.2141535553972,303.8329193227032 L472.47620015672004,257.93216819983206 L407.11110696982325,280.5396750989963 L402.98358165744327,211.49868502553986 L340.7775595779773,181.2645058143153 L386.67831070084844,129.52655241563815 L364.0708038016842,64.16145922874135 L433.11179387514056,60.03393391636142 L463.3459730863651,-2.1720881631046325 L515.0839264850424,43.72866295976655 L580.4490196719391,21.121156060602203 L584.5765449843191,90.16214613405876 Z" fill="#E5E4E2" stroke="#222" stroke-width="3"/>
        
      </g>
    </g>
  
  <text x="50%" y="95%" text-anchor="middle" font-size="32" fill="#fff" opacity="0.7" font-family="Arial">Gears Collection #37</text>
</svg>