<svg width="512" height="512" viewBox="0 0 512 512" xmlns="http://www.w3.org/2000/svg">
  <rect width="100%" height="100%" fill="#1e293b" />
  
    <g>
      <g>
        <animateTransform attributeName="transform" attributeType="XML"
          type="rotate"
          from="0 341.4696576316772 307.9127886394469"
          to="360 341.4696576316772 307.9127886394469"
          dur="3.51s"
          repeatCount="indefinite"/>
        <path d="M407.18227141869363,294.84173706436627 L387.4684872825887,317.0625247420033 L397.17812165594773,345.1359942517602 L367.5259015602965,346.90871345643626 L354.5407092067578,373.6254024264633 L332.3199215291208,353.9116182903584 L304.24645201936386,363.6212526637174 L302.4737328146878,333.9690325680662 L275.75704384466076,320.98384021452745 L295.4708279807657,298.7630525368905 L285.76119360740665,270.68958302713355 L315.4134137030578,268.9168638224575 L328.3986060565966,242.20017485243045 L350.6193937342336,261.9139589885354 L378.69286324399053,252.20432461517635 L380.46558244866657,281.85654471082756 Z" fill="#E5E4E2" stroke="#222" stroke-width="3"/>
        
      </g>
    </g>
  
    <g>
      <g>
        <animateTransform attributeName="transform" attributeType="XML"
          type="rotate"
          from="0 174.92465214858356 370.1349550785027"
          to="-360 174.92465214858356 370.1349550785027"
          dur="5.11s"
          repeatCount="indefinite"/>
        <path d="M268.2729795104356,360.9409473155899 L240.26848130188,376.57076051254165 L264.6856556402647,397.36365780497124 L232.83160236569654,401.0868648184977 L247.4330326740083,429.6410451330526 L216.57891518676854,420.8908214463 L219.14166606286213,452.8591696743784 L193.98474405711156,432.96765752267953 L184.11865991149634,463.48328244035474 L168.48884671454462,435.4787842317991 L147.69594942211498,459.8959585701839 L143.97274240858857,428.0419052956157 L115.41856209403363,442.6433356039274 L124.16878578078625,411.78921811668766 L92.20043755270787,414.3519689927813 L112.09194970440673,389.1950469870307 L81.5763247867315,379.3289628414155 L109.58082299528712,363.6991496444637 L85.16364865690237,342.90625235203413 L117.01770193147057,339.18304533850767 L102.41627162315882,310.62886502395276 L133.27038911039864,319.37908871070533 L130.70763823430497,287.410740482627 L155.86456024005557,307.30225263432584 L165.7306443856708,276.7866277166506 L181.36045758262247,304.79112592520625 L202.15335487505212,280.3739515868215 L205.87656188857855,312.2280048613897 L234.43074220313352,297.62657455307794 L225.68051851638086,328.4806920403177 L257.64886674445927,325.9179411642241 L237.75735459276038,351.0748631699746 Z" fill="#C9AE5D" stroke="#222" stroke-width="3"/>
        <line x1="227.45265214858355" y1="370.1349550785027" x2="188.05665214858357" y2="370.1349550785027" stroke="#333" stroke-width="2"/><line x1="223.45419623233641" y1="390.2365504137761" x2="187.05703816952177" y2="375.16035391232106" stroke="#333" stroke-width="2"/><line x1="212.06755715075053" y1="407.27786008066965" x2="184.21037839912532" y2="379.42068132904444" stroke="#333" stroke-width="2"/><line x1="195.026247483857" y1="418.66449916225554" x2="179.95005098240193" y2="382.2673410994409" stroke="#333" stroke-width="2"/><line x1="174.92465214858356" y1="422.6629550785027" x2="174.92465214858356" y2="383.2669550785027" stroke="#333" stroke-width="2"/><line x1="154.82305681331013" y1="418.66449916225554" x2="169.8992533147652" y2="382.2673410994409" stroke="#333" stroke-width="2"/><line x1="137.7817471464166" y1="407.27786008066965" x2="165.63892589804183" y2="379.42068132904444" stroke="#333" stroke-width="2"/><line x1="126.3951080648307" y1="390.2365504137761" x2="162.79226612764535" y2="375.16035391232106" stroke="#333" stroke-width="2"/><line x1="122.39665214858357" y1="370.1349550785027" x2="161.79265214858356" y2="370.1349550785027" stroke="#333" stroke-width="2"/><line x1="126.39510806483068" y1="350.03335974322925" x2="162.79226612764535" y2="365.1095562446843" stroke="#333" stroke-width="2"/><line x1="137.7817471464166" y1="332.9920500763357" x2="165.6389258980418" y2="360.8492288279609" stroke="#333" stroke-width="2"/><line x1="154.82305681331013" y1="321.60541099474983" x2="169.89925331476522" y2="358.0025690575645" stroke="#333" stroke-width="2"/><line x1="174.92465214858356" y1="317.60695507850266" x2="174.92465214858356" y2="357.0029550785027" stroke="#333" stroke-width="2"/><line x1="195.02624748385702" y1="321.60541099474983" x2="179.95005098240193" y2="358.0025690575645" stroke="#333" stroke-width="2"/><line x1="212.06755715075053" y1="332.9920500763357" x2="184.2103783991253" y2="360.8492288279609" stroke="#333" stroke-width="2"/><line x1="223.45419623233644" y1="350.03335974322925" x2="187.05703816952177" y2="365.1095562446843" stroke="#333" stroke-width="2"/><circle cx="174.92465214858356" cy="370.1349550785027" r="18.76" fill="#222"/>
      </g>
    </g>
  
    <g>
      <g>
        <animateTransform attributeName="transform" attributeType="XML"
          type="rotate"
          from="0 76.1292994032105 262.8213683979181"
          to="360 76.1292994032105 262.8213683979181"
          dur="5.43s"
          repeatCount="indefinite"/>
        <path d="M196.14857743987744,251.00050127417308 L160.14279402887735,271.0959753845396 L191.5363038925149,297.82970047480626 L150.58109253949863,302.61668092076883 L169.3543600787566,339.32919846805373 L129.68478045230546,328.0789108708003 L132.9797458644258,369.1810728783297 L100.6351318570322,343.6062715404312 L87.9501665269555,382.84064643458504 L67.854692416589,346.83486302358494 L41.12096732632233,378.22837288722246 L36.3339868803598,337.2731615342062 L-0.37853066692514403,356.0464290734642 L10.871756930328232,316.37684944701306 L-30.230405077201112,319.67181485913346 L-4.6556037393025775,287.3272008517398 L-43.88997863345645,274.6422355216631 L-7.88419522245637,254.5467614112966 L-39.27770508609392,227.81303632102995 L1.6775062669223644,223.02605587506736 L-17.095761272335608,186.31353832778245 L22.573818354115573,197.56382592503581 L19.27885294199514,156.46166391750648 L51.62346694938877,182.036465255405 L64.3084322794655,142.80209036125115 L84.40390638983196,178.80787377225124 L111.13763148009862,147.41436390861367 L115.9246119260612,188.36957526162996 L152.63712947334616,169.59630772237202 L141.38684187609272,209.2658873488231 L182.4890038836221,205.97092193670272 L156.91420254572353,238.3155359440963 Z" fill="#F5F5F5" stroke="#222" stroke-width="3"/>
        <line x1="143.6652994032105" y1="262.8213683979181" x2="93.0132994032105" y2="262.8213683979181" stroke="#333" stroke-width="2"/><line x1="138.52442751089276" y1="288.6662766861268" x2="91.72808143013106" y2="269.28259546997026" stroke="#333" stroke-width="2"/><line x1="123.88446297742517" y1="310.5765319721328" x2="88.06809029676417" y2="274.7601592914718" stroke="#333" stroke-width="2"/><line x1="101.9742076914192" y1="325.21649650560033" x2="82.59052647526268" y2="278.42015042483865" stroke="#333" stroke-width="2"/><line x1="76.1292994032105" y1="330.3573683979181" x2="76.1292994032105" y2="279.7053683979181" stroke="#333" stroke-width="2"/><line x1="50.284391115001796" y1="325.21649650560033" x2="69.66807233115833" y2="278.42015042483865" stroke="#333" stroke-width="2"/><line x1="28.374135828995826" y1="310.5765319721328" x2="64.19050850965682" y2="274.7601592914718" stroke="#333" stroke-width="2"/><line x1="13.734171295528235" y1="288.6662766861268" x2="60.53051737628993" y2="269.28259546997026" stroke="#333" stroke-width="2"/><line x1="8.593299403210494" y1="262.8213683979181" x2="59.245299403210495" y2="262.8213683979181" stroke="#333" stroke-width="2"/><line x1="13.73417129552822" y1="236.97646010970942" x2="60.53051737628993" y2="256.3601413258659" stroke="#333" stroke-width="2"/><line x1="28.37413582899581" y1="215.06620482370343" x2="64.19050850965682" y2="250.88257750436443" stroke="#333" stroke-width="2"/><line x1="50.28439111500181" y1="200.42624029023582" x2="69.66807233115833" y2="247.22258637099753" stroke="#333" stroke-width="2"/><line x1="76.12929940321048" y1="195.2853683979181" x2="76.1292994032105" y2="245.93736839791808" stroke="#333" stroke-width="2"/><line x1="101.97420769141921" y1="200.42624029023585" x2="82.59052647526268" y2="247.22258637099753" stroke="#333" stroke-width="2"/><line x1="123.88446297742516" y1="215.0662048237034" x2="88.06809029676415" y2="250.88257750436443" stroke="#333" stroke-width="2"/><line x1="138.52442751089276" y1="236.9764601097094" x2="91.72808143013106" y2="256.3601413258659" stroke="#333" stroke-width="2"/><circle cx="76.1292994032105" cy="262.8213683979181" r="24.120000000000005" fill="#222"/>
      </g>
    </g>
  
    <g>
      <g>
        <animateTransform attributeName="transform" attributeType="XML"
          type="rotate"
          from="0 183.19185308275297 48.39707674872065"
          to="-360 183.19185308275297 48.39707674872065"
          dur="5.45s"
          repeatCount="indefinite"/>
        <path d="M329.33082564925263,29.157516015485047 L285.4891338793027,61.86476926198557 L319.3716961749167,104.80461467933489 L265.05005073400264,111.20908099384044 L272.9232877186384,165.33735910764872 L222.67712963418293,143.7229669132352 L202.4314138159886,194.5360493152203 L169.72416056948808,150.6943575452704 L126.78431515213875,184.57691984088433 L120.37984883763318,130.2552743999703 L66.25157072382488,138.12851138460604 L87.86596291823841,87.88235330015061 L37.05288051625331,67.63663748195626 L80.89457228620321,34.92938423545576 L47.01200999058926,-8.010461181893504 L101.33365543150333,-14.414927496399145 L93.46041844686751,-68.54320561020738 L143.70657653132304,-46.928813415793925 L163.95229234951736,-97.74189581777901 L196.65954559601795,-53.90020404782909 L239.59939101336724,-87.782766343443 L246.00385732787277,-33.46112090252899 L300.132135441681,-41.33435788716481 L278.51774324726756,8.91180019729071 Z" fill="#8EC6F3" stroke="#222" stroke-width="3"/>
        
      </g>
    </g>
  
    <g>
      <g>
        <animateTransform attributeName="transform" attributeType="XML"
          type="rotate"
          from="0 502.17434335354375 172.34479887985708"
          to="360 502.17434335354375 172.34479887985708"
          dur="5.33s"
          repeatCount="indefinite"/>
        <path d="M674.8840382048616,149.6071361951241 L623.0711297494662,188.26116275917016 L663.11415791701,239.00825279785573 L598.915849668657,246.57716753318047 L608.220584286863,310.54695075859024 L548.8387610961428,285.0026690742834 L524.9120060382768,345.05449373117483 L486.2579794742307,293.2415852757795 L435.5108894355451,333.2846134433232 L427.9419747002204,269.0863051949703 L363.97219147481053,278.3910398131762 L389.5164731591174,219.00921662245614 L329.46464850222594,195.08246156459006 L381.2775569576213,156.42843500054403 L341.23452879007755,105.68134496185853 L405.43283703843053,98.11243022653369 L396.12810242022454,34.14264700112395 L455.5099256109447,59.68692868543076 L479.43668066881077,-0.3648959714606974 L518.0907072328569,51.44801248393465 L568.8377972715424,11.404984316390937 L576.4067120068671,75.60329256474387 L640.3764952322769,66.2985579465379 L614.83221354797,125.68038113725805 Z" fill="#FFD700" stroke="#222" stroke-width="3"/>
        <line x1="599.7263433535437" y1="172.34479887985708" x2="526.5623433535437" y2="172.34479887985708" stroke="#333" stroke-width="2"/><line x1="586.6568535435233" y1="221.1207988798571" x2="523.2949709010386" y2="184.53879887985707" stroke="#333" stroke-width="2"/><line x1="550.9503433535438" y1="256.82730906983664" x2="514.3683433535438" y2="193.46542642735199" stroke="#333" stroke-width="2"/><line x1="502.17434335354375" y1="269.8967988798571" x2="502.17434335354375" y2="196.73279887985709" stroke="#333" stroke-width="2"/><line x1="453.39834335354374" y1="256.82730906983664" x2="489.98034335354373" y2="193.46542642735199" stroke="#333" stroke-width="2"/><line x1="417.6918331635642" y1="221.1207988798571" x2="481.05371580604884" y2="184.53879887985707" stroke="#333" stroke-width="2"/><line x1="404.6223433535437" y1="172.34479887985708" x2="477.78634335354377" y2="172.34479887985708" stroke="#333" stroke-width="2"/><line x1="417.6918331635642" y1="123.56879887985707" x2="481.05371580604884" y2="160.15079887985706" stroke="#333" stroke-width="2"/><line x1="453.3983433535437" y1="87.86228868987753" x2="489.98034335354373" y2="151.2241713323622" stroke="#333" stroke-width="2"/><line x1="502.17434335354375" y1="74.79279887985707" x2="502.17434335354375" y2="147.95679887985708" stroke="#333" stroke-width="2"/><line x1="550.9503433535438" y1="87.86228868987752" x2="514.3683433535438" y2="151.22417133236218" stroke="#333" stroke-width="2"/><line x1="586.6568535435233" y1="123.56879887985704" x2="523.2949709010386" y2="160.15079887985706" stroke="#333" stroke-width="2"/><circle cx="502.17434335354375" cy="172.34479887985708" r="34.84" fill="#222"/>
      </g>
    </g>
  
  <text x="50%" y="95%" text-anchor="middle" font-size="32" fill="#fff" opacity="0.7" font-family="Arial">Gears Collection #51</text>
</svg>