<svg width="512" height="512" viewBox="0 0 512 512" xmlns="http://www.w3.org/2000/svg">
  <rect width="100%" height="100%" fill="#f5e663" />
  
    <g>
      <g>
        <animateTransform attributeName="transform" attributeType="XML"
          type="rotate"
          from="0 355.9323358960162 259.67807590538723"
          to="360 355.9323358960162 259.67807590538723"
          dur="5.08s"
          repeatCount="indefinite"/>
        <path d="M421.6449496830326,246.60702433030664 L401.9311655469277,268.82781200794363 L411.6407999202867,296.90128151770057 L381.9885798246355,298.6740007223766 L369.0033874710968,325.39068969240367 L346.7825997934598,305.6769055562987 L318.70913028370285,315.3865399296578 L316.9364110790268,285.73431983400656 L290.21972210899975,272.7491274804678 L309.9335062451047,250.52833980283083 L300.22387187174564,222.4548702930739 L329.8760919673968,220.6821510883979 L342.86128432093557,193.9654621183708 L365.0820719985726,213.67924625447574 L393.1555415083295,203.9696118811167 L394.92826071300556,233.62183197676788 Z" fill="#8EC6F3" stroke="#222" stroke-width="3"/>
        
      </g>
    </g>
  
    <g>
      <g>
        <animateTransform attributeName="transform" attributeType="XML"
          type="rotate"
          from="0 242.0659846537663 395.3048571167959"
          to="-360 242.0659846537663 395.3048571167959"
          dur="4.08s"
          repeatCount="indefinite"/>
        <path d="M335.0635126506297,383.0615002865551 L307.1642542515707,403.8752068979645 L328.725884803325,431.20056307264133 L294.1575649772888,435.2761325455085 L299.1678066947843,469.72140043611375 L267.1929788228581,455.966787221487 L254.30934148400715,488.30238511365934 L233.49563487259772,460.4031267146003 L206.17027869792088,481.9647572663546 L202.0947092250537,447.39643744031844 L167.64944133444843,452.40667915781387 L181.40405454907523,420.4318512858877 L149.06845665690287,407.54821394703674 L176.9677150559619,386.73450733562737 L155.40608450420757,359.40915116095056 L189.9744043302438,355.3335816880833 L184.96416261274828,320.8883137974781 L216.93899048467452,334.6429270121048 L229.82262782352547,302.3073291199325 L250.63633443493492,330.2065875189915 L277.96169060961176,308.64495696723725 L282.0372600824789,343.2132767932734 L316.48252797308413,338.2030350757779 L302.72791475845736,370.1778629477041 Z" fill="#B87333" stroke="#222" stroke-width="3"/>
        
      </g>
    </g>
  
    <g>
      <g>
        <animateTransform attributeName="transform" attributeType="XML"
          type="rotate"
          from="0 98.13391233385383 169.52284483758353"
          to="360 98.13391233385383 169.52284483758353"
          dur="3.57s"
          repeatCount="indefinite"/>
        <path d="M218.36214278206907,160.06067789280544 L182.2936736476045,176.14636169892822 L215.40172473381364,197.67635571860572 L176.12782246845666,201.82898019784443 L200.96231615495736,232.53617174232696 L162.32738394980845,224.34924907761763 L176.45734696247396,261.22780428894725 L142.24324116717423,241.502727512356 L144.28553427708366,280.9427164584447 L117.84136995056937,251.6103135175554 L107.59607927863193,289.7510752857988 L91.51039547250916,253.6826061513342 L69.98040145283167,286.7906572375433 L65.82777697359296,247.51675497218636 L35.1205854291104,272.35124865868704 L43.307508093819735,233.71631645353816 L6.428952882490108,247.8462794662037 L26.15402965908136,213.63217367090394 L-13.285959287007358,215.67446678081336 L16.046443653881965,189.23030245429908 L-22.094318114361414,178.98501178236165 L13.974151020103164,162.89932797623888 L-19.133900066105966,141.3693339565613 L20.140002199250986,137.2167094773227 L-4.6944914872497066,106.50951793284011 L33.94044071789921,114.69644059754944 L19.810477705233623,77.81788538621984 L54.024583500533446,97.54296216281105 L51.98229039062403,58.10297321672233 L78.42645471713831,87.43537615761167 L88.67174538907565,49.29461438936829 L104.75742919519844,85.36308352383286 L126.28742321487594,52.25503243762371 L130.44004769411472,91.52893470298072 L161.14723923859728,66.69444101648003 L152.96031657388795,105.32937322162893 L189.83887178521752,91.19941020896333 L170.1137950086263,125.41351600426314 L209.55378395471502,123.37122289435374 L180.2213810138257,149.81538722086793 Z" fill="#B87333" stroke="#222" stroke-width="3"/>
        <line x1="165.66991233385383" y1="169.52284483758353" x2="115.01791233385383" y2="169.52284483758353" stroke="#333" stroke-width="2"/><line x1="162.3644652183633" y1="190.39261656968998" x2="114.1915505549812" y2="174.74028777061014" stroke="#333" stroke-width="2"/><line x1="152.77168406596027" y1="209.219509636408" x2="111.79335526688044" y2="179.44701103728966" stroke="#333" stroke-width="2"/><line x1="137.8305771326783" y1="224.16061656968998" x2="108.05807853355995" y2="183.18228777061015" stroke="#333" stroke-width="2"/><line x1="119.00368406596027" y1="233.75339772209304" x2="103.35135526688045" y2="185.5804830587109" stroke="#333" stroke-width="2"/><line x1="98.13391233385383" y1="237.05884483758354" x2="98.13391233385383" y2="186.40684483758355" stroke="#333" stroke-width="2"/><line x1="77.26414060174739" y1="233.75339772209304" x2="92.91646940082722" y2="185.5804830587109" stroke="#333" stroke-width="2"/><line x1="58.43724753502937" y1="224.16061656968998" x2="88.20974613414771" y2="183.18228777061015" stroke="#333" stroke-width="2"/><line x1="43.496140601747385" y1="209.21950963640802" x2="84.47446940082722" y2="179.44701103728966" stroke="#333" stroke-width="2"/><line x1="33.903359449344336" y1="190.39261656968998" x2="82.07627411272645" y2="174.74028777061014" stroke="#333" stroke-width="2"/><line x1="30.597912333853827" y1="169.52284483758353" x2="81.24991233385383" y2="169.52284483758353" stroke="#333" stroke-width="2"/><line x1="33.903359449344336" y1="148.65307310547706" x2="82.07627411272645" y2="164.3054019045569" stroke="#333" stroke-width="2"/><line x1="43.49614060174738" y1="129.82618003875908" x2="84.47446940082722" y2="159.5986786378774" stroke="#333" stroke-width="2"/><line x1="58.43724753502936" y1="114.88507310547709" x2="88.20974613414771" y2="155.86340190455692" stroke="#333" stroke-width="2"/><line x1="77.26414060174737" y1="105.29229195307404" x2="92.91646940082721" y2="153.46520661645616" stroke="#333" stroke-width="2"/><line x1="98.13391233385381" y1="101.98684483758353" x2="98.13391233385383" y2="152.63884483758352" stroke="#333" stroke-width="2"/><line x1="119.00368406596027" y1="105.29229195307404" x2="103.35135526688043" y2="153.46520661645616" stroke="#333" stroke-width="2"/><line x1="137.8305771326783" y1="114.88507310547708" x2="108.05807853355994" y2="155.86340190455692" stroke="#333" stroke-width="2"/><line x1="152.77168406596027" y1="129.82618003875905" x2="111.79335526688044" y2="159.5986786378774" stroke="#333" stroke-width="2"/><line x1="162.3644652183633" y1="148.65307310547706" x2="114.1915505549812" y2="164.30540190455693" stroke="#333" stroke-width="2"/><circle cx="98.13391233385383" cy="169.52284483758353" r="24.120000000000005" fill="#222"/>
      </g>
    </g>
  
    <g>
      <g>
        <animateTransform attributeName="transform" attributeType="XML"
          type="rotate"
          from="0 354.13523310132325 59.100340213221926"
          to="-360 354.13523310132325 59.100340213221926"
          dur="3.88s"
          repeatCount="indefinite"/>
        <path d="M498.7029834327594,30.344026748044623 L455.3326583333286,79.22975963884603 L476.6938539547184,140.99139256031128 L411.4589697442858,144.89137481059853 L382.89154656650055,203.6680905446581 L334.0058136756992,160.29776544522724 L272.24418075423387,181.65896106661708 L268.34419850394664,116.42407685618448 L209.56748276988708,87.85665367839923 L252.93780786931794,38.97092078759785 L231.5766122479281,-22.79071213386746 L296.81149645836064,-26.69069438415464 L325.3789196361459,-85.46741011821422 L374.2646525269474,-42.09708501878339 L436.0262854484126,-63.458280640173285 L439.92626769869986,1.7766035702593754 Z" fill="#B87333" stroke="#222" stroke-width="3"/>
        
      </g>
    </g>
  
  <text x="50%" y="95%" text-anchor="middle" font-size="32" fill="#fff" opacity="0.7" font-family="Arial">Gears Collection #38</text>
</svg>