<svg width="512" height="512" viewBox="0 0 512 512" xmlns="http://www.w3.org/2000/svg">
  <rect width="100%" height="100%" fill="#1e293b" />
  
    <g>
      <g>
        <animateTransform attributeName="transform" attributeType="XML"
          type="rotate"
          from="0 319.9823208399734 332.85221284992843"
          to="360 319.9823208399734 332.85221284992843"
          dur="3.68s"
          repeatCount="indefinite"/>
        <path d="M383.73336406618336,320.1713419188801 L364.6080510983204,341.72882250166225 L374.0278456396388,368.96427799620255 L345.2607664423653,370.68408020969423 L332.66319177102173,396.6032560761384 L311.1057111882396,377.47794310827544 L283.8702556936993,386.89773764959386 L282.1504534802076,358.13065845232035 L256.23127761376344,345.53308378097677 L275.3565905816264,323.9756031981946 L265.93679604030797,296.7401477036543 L294.7038752375815,295.02034549016264 L307.301449908925,269.1011696237185 L328.8589304917072,288.22648259158143 L356.0943859862475,278.806688050263 L357.8141881997392,307.5737672475365 Z" fill="#9DE09D" stroke="#222" stroke-width="3"/>
        
      </g>
    </g>
  
    <g>
      <g>
        <animateTransform attributeName="transform" attributeType="XML"
          type="rotate"
          from="0 168.3437634802666 365.16219216925134"
          to="-360 168.3437634802666 365.16219216925134"
          dur="5.29s"
          repeatCount="indefinite"/>
        <path d="M258.9055736074365,356.2426323992613 L231.73703056928554,371.40588400824436 L255.4253340318976,391.57809779940743 L224.5221480192568,395.1901643050674 L238.68771473627567,422.89198102814305 L208.75461568149083,414.40295804845766 L211.24086653143237,445.41702722495165 L186.83489742137584,426.11929155539303 L177.2633232502566,455.72400229642125 L162.10007164127362,428.5554592582703 L141.9278578501105,452.24376272088233 L138.3157913444506,421.34057670824154 L110.61397462137487,435.5061434252604 L119.10299760106025,405.57304437047554 L88.0889284245663,408.05929522041714 L107.38666409412491,383.6533261103606 L77.7819533530967,374.08175193924137 L104.95049639124767,358.9185003302583 L81.26219292863559,338.7462865390953 L112.16537894127639,335.13422003343527 L97.99981222425752,307.43240331035963 L127.9329112790424,315.92142629004496 L125.44666042910079,284.90735711355103 L149.85262953915733,304.20509278310965 L159.4242037102766,274.60038204208143 L174.5874553192596,301.7689250802324 L194.75966911042264,278.0806216176203 L198.37173561608265,308.98380763026114 L226.07355233915837,294.8182409132423 L217.58452935947292,324.7513399680271 L248.5985985359669,322.26508911808554 L229.3008628664083,346.67105822814204 Z" fill="#E5E4E2" stroke="#222" stroke-width="3"/>
        <line x1="219.3037634802666" y1="365.16219216925134" x2="181.0837634802666" y2="365.16219216925134" stroke="#333" stroke-width="2"/><line x1="215.42466445704179" y1="384.6637398825763" x2="180.1139887244604" y2="370.0375790975826" stroke="#333" stroke-width="2"/><line x1="204.37792504953308" y1="401.1963537385178" x2="177.3523038725832" y2="374.17073256156795" stroke="#333" stroke-width="2"/><line x1="187.84531119359158" y1="412.2430931460265" x2="173.21915040859784" y2="376.93241741344514" stroke="#333" stroke-width="2"/><line x1="168.3437634802666" y1="416.1221921692513" x2="168.3437634802666" y2="377.90219216925135" stroke="#333" stroke-width="2"/><line x1="148.84221576694162" y1="412.2430931460265" x2="163.46837655193536" y2="376.93241741344514" stroke="#333" stroke-width="2"/><line x1="132.30960191100013" y1="401.1963537385178" x2="159.33522308795" y2="374.17073256156795" stroke="#333" stroke-width="2"/><line x1="121.26286250349142" y1="384.66373988257635" x2="156.5735382360728" y2="370.0375790975826" stroke="#333" stroke-width="2"/><line x1="117.3837634802666" y1="365.16219216925134" x2="155.6037634802666" y2="365.16219216925134" stroke="#333" stroke-width="2"/><line x1="121.26286250349142" y1="345.6606444559264" x2="156.5735382360728" y2="360.2868052409201" stroke="#333" stroke-width="2"/><line x1="132.30960191100013" y1="329.12803059998487" x2="159.33522308795" y2="356.15365177693474" stroke="#333" stroke-width="2"/><line x1="148.84221576694165" y1="318.08129119247616" x2="163.46837655193536" y2="353.39196692505755" stroke="#333" stroke-width="2"/><line x1="168.3437634802666" y1="314.20219216925136" x2="168.3437634802666" y2="352.42219216925133" stroke="#333" stroke-width="2"/><line x1="187.84531119359158" y1="318.08129119247616" x2="173.21915040859784" y2="353.39196692505755" stroke="#333" stroke-width="2"/><line x1="204.37792504953305" y1="329.12803059998487" x2="177.3523038725832" y2="356.15365177693474" stroke="#333" stroke-width="2"/><line x1="215.42466445704179" y1="345.6606444559264" x2="180.1139887244604" y2="360.2868052409201" stroke="#333" stroke-width="2"/><circle cx="168.3437634802666" cy="365.16219216925134" r="18.2" fill="#222"/>
      </g>
    </g>
  
    <g>
      <g>
        <animateTransform attributeName="transform" attributeType="XML"
          type="rotate"
          from="0 81.79138096978633 210.70809061669098"
          to="360 81.79138096978633 210.70809061669098"
          dur="4.97s"
          repeatCount="indefinite"/>
        <path d="M198.2279939904334,199.2400851981324 L163.29701008423925,218.735694409682 L193.75340025045477,244.67139785546308 L154.0207325199166,249.31548336274017 L172.23360401322657,284.9321048638375 L133.7481909427889,274.01764674709915 L136.94479917842804,313.8928785454485 L105.5656960369268,289.08150411315887 L93.25938638834492,327.144703637338 L73.76377717679533,292.2137197311439 L47.828073731014236,322.6701098973594 L43.18398822373715,282.93744216682126 L7.567366722639818,301.15031366013125 L18.481824839378177,262.66490058969356 L-21.393406958971198,265.86150882533275 L3.4179674733184413,234.48240568383144 L-34.6452320508607,222.1760960352496 L0.28575185533341596,202.68048682369997 L-30.17063831088211,176.7447833779189 L9.562029419656056,172.1006978706418 L-8.650842073653905,136.48407636954448 L29.834570996783796,147.3985344862828 L26.63796276114458,107.52330268793345 L58.01706590264586,132.3346771202231 L70.32337555122776,94.27147759604394 L89.8189847627773,129.20246150223807 L115.75468820855839,98.74607133602254 L120.39877371583553,138.4787390665607 L156.01539521693286,120.26586757325077 L145.10093710019444,158.75128064368837 L184.97616889854385,155.5546724080492 L160.1647944662542,186.93377554955043 Z" fill="#B87333" stroke="#222" stroke-width="3"/>
        
      </g>
    </g>
  
    <g>
      <g>
        <animateTransform attributeName="transform" attributeType="XML"
          type="rotate"
          from="0 404.2888266651295 93.48715778044132"
          to="-360 404.2888266651295 93.48715778044132"
          dur="3.74s"
          repeatCount="indefinite"/>
        <path d="M546.6002425792536,79.47070671331416 L503.9068178050164,103.29867352743034 L541.1312946748353,134.99786662782944 L492.5691452263998,140.67397113672368 L514.8293214960008,184.20539741584264 L467.7915944099104,170.86550416205128 L471.6985600312471,219.6018985822561 L433.34632285830116,189.27688538723544 L418.3052777322566,235.79857369456548 L394.47731091814046,193.10514892032825 L362.77811781774136,230.3296257901472 L357.1020133088472,181.7674763417117 L313.5705870297282,204.02765261131273 L326.9104802835195,156.98992552522225 L278.1740858633147,160.89689114655903 L308.4990990583354,122.54465397361301 L261.9774107510053,107.50360884756851 L304.6708355252426,83.6756420334523 L267.44635865542364,51.97644893305324 L316.0085081038591,46.30034442415896 L293.74833183425807,2.768918145040047 L340.7860589203486,16.108811398831335 L336.87909329901174,-32.62758302137344 L375.2313304719578,-2.30256982635278 L390.2723755980023,-48.82425813368283 L414.10034241211844,-6.130833359445589 L445.79953551251754,-43.355310229264546 L451.47564002141183,5.206839219170988 L495.0070663005308,-17.05333705043006 L481.66717304673944,29.98439003566037 L530.4035674669442,26.077424414323616 L500.07855427192357,64.42966158726955 Z" fill="#8EC6F3" stroke="#222" stroke-width="3"/>
        <line x1="484.36882666512946" y1="93.48715778044132" x2="424.30882666512946" y2="93.48715778044132" stroke="#333" stroke-width="2"/><line x1="478.2730996286333" y1="124.13244704423771" x2="422.78489490600543" y2="101.14848009639041" stroke="#333" stroke-width="2"/><line x1="460.9139377025482" y1="150.11226881786004" x2="418.44510442448416" y2="107.643435539796" stroke="#333" stroke-width="2"/><line x1="434.93411592892585" y1="167.47143074394518" x2="411.9501489810786" y2="111.98322602131728" stroke="#333" stroke-width="2"/><line x1="404.2888266651295" y1="173.56715778044133" x2="404.2888266651295" y2="113.50715778044132" stroke="#333" stroke-width="2"/><line x1="373.6435374013331" y1="167.47143074394518" x2="396.62750434918036" y2="111.98322602131728" stroke="#333" stroke-width="2"/><line x1="347.66371562771076" y1="150.11226881786004" x2="390.1325489057748" y2="107.643435539796" stroke="#333" stroke-width="2"/><line x1="330.30455370162565" y1="124.13244704423772" x2="385.7927584242535" y2="101.14848009639041" stroke="#333" stroke-width="2"/><line x1="324.2088266651295" y1="93.48715778044134" x2="384.2688266651295" y2="93.48715778044132" stroke="#333" stroke-width="2"/><line x1="330.30455370162565" y1="62.84186851664498" x2="385.7927584242535" y2="85.82583546449223" stroke="#333" stroke-width="2"/><line x1="347.66371562771076" y1="36.8620467430226" x2="390.1325489057748" y2="79.33088002108664" stroke="#333" stroke-width="2"/><line x1="373.6435374013331" y1="19.502884816937467" x2="396.6275043491804" y2="74.99108953956537" stroke="#333" stroke-width="2"/><line x1="404.2888266651295" y1="13.407157780441324" x2="404.2888266651295" y2="73.46715778044133" stroke="#333" stroke-width="2"/><line x1="434.9341159289259" y1="19.502884816937495" x2="411.9501489810786" y2="74.99108953956537" stroke="#333" stroke-width="2"/><line x1="460.9139377025482" y1="36.86204674302258" x2="418.44510442448416" y2="79.33088002108664" stroke="#333" stroke-width="2"/><line x1="478.2730996286333" y1="62.84186851664495" x2="422.78489490600543" y2="85.82583546449223" stroke="#333" stroke-width="2"/><circle cx="404.2888266651295" cy="93.48715778044132" r="28.6" fill="#222"/>
      </g>
    </g>
  
  <text x="50%" y="95%" text-anchor="middle" font-size="32" fill="#fff" opacity="0.7" font-family="Arial">Gears Collection #96</text>
</svg>