<svg width="512" height="512" viewBox="0 0 512 512" xmlns="http://www.w3.org/2000/svg">
  <rect width="100%" height="100%" fill="#1e293b" />
  
    <g>
      <g>
        <animateTransform attributeName="transform" attributeType="XML"
          type="rotate"
          from="0 331.18366850131 321.93493755730054"
          to="360 331.18366850131 321.93493755730054"
          dur="4.7s"
          repeatCount="indefinite"/>
        <path d="M397.8770675687297,308.66879566020384 L377.8690478485038,331.22123688526824 L387.7236021378831,359.7137134026335 L357.6288115930431,361.5128911029017 L344.4498103984067,388.6283366247202 L321.8973691733423,368.6203169044943 L293.40489265597705,378.4748711938736 L291.6057149557089,348.38008064903363 L264.4902694338904,335.20107945439725 L284.49828915411626,312.64863822933285 L274.6437348647369,284.15616171196757 L304.73852540957694,282.3569840116994 L317.91752660421326,255.2415384898809 L340.4699678292777,275.2495582101068 L368.96244434664294,265.39500392072745 L370.76162204691116,295.48979446556746 Z" fill="#C0C0C0" stroke="#222" stroke-width="3"/>
        
      </g>
    </g>
  
    <g>
      <g>
        <animateTransform attributeName="transform" attributeType="XML"
          type="rotate"
          from="0 158.68748049548321 356.64926004538256"
          to="-360 158.68748049548321 356.64926004538256"
          dur="4.85s"
          repeatCount="indefinite"/>
        <path d="M253.59401066687698,349.1799541320917 L225.12205161545884,361.87777418468613 L251.257096917342,378.87325868446476 L220.25481254203535,382.15128397819217 L239.85882414199278,406.39112340634085 L209.36093404306928,399.928477986106 L220.5149346965167,429.0399079705055 L193.50678484815404,413.4692005979393 L195.11894325663977,444.60259154045707 L174.24427954284076,421.4479915406837 L166.15678640877405,451.55579021677636 L153.45896635617964,423.0838311653582 L136.46348185640105,449.2188764672414 L133.18545656267364,418.2165920919347 L108.9456171345249,437.82060369189213 L115.4082625547598,407.3227135929686 L86.2968325703603,418.47671424641607 L101.86753994292653,391.4685643980534 L70.73414900040872,393.08072280653914 L93.88874900018206,372.2060590927401 L63.780950324089446,364.1185659586734 L92.25290937550758,351.420745906079 L66.11786407362442,334.42526140630036 L97.12014844893106,331.147236112573 L77.51613684897364,306.90739668442427 L108.01402694789715,313.37004210465915 L96.8600262944497,284.25861212025967 L123.86817614281242,299.82931949282585 L122.25601773432669,268.69592855030805 L143.1306814481257,291.85052855008144 L151.21817458219232,261.74272987398876 L163.91599463478676,290.2146889254069 L180.91147913456535,264.07964362352374 L184.18950442829282,295.08192799883045 L208.42934385644156,275.477916398873 L201.96669843620666,305.9758064977965 L231.0781284206061,294.82180584434906 L215.50742104803993,321.82995569271174 L246.64081199055772,320.21779728422604 L223.48621199078434,341.092460998025 Z" fill="#C9AE5D" stroke="#222" stroke-width="3"/>
        <line x1="211.9994804954832" y1="356.64926004538256" x2="172.01548049548322" y2="356.64926004538256" stroke="#333" stroke-width="2"/><line x1="209.39020549221044" y1="373.1235740494998" x2="171.363161744665" y2="360.76783854641184" stroke="#333" stroke-width="2"/><line x1="201.8177944996004" y1="387.98526741559886" x2="169.4700589965125" y2="364.48326188793664" stroke="#333" stroke-width="2"/><line x1="190.02348786569954" y1="399.77957404949973" x2="166.5214823380373" y2="367.4318385464119" stroke="#333" stroke-width="2"/><line x1="175.1617944996004" y1="407.3519850421098" x2="162.80605899651252" y2="369.3249412945644" stroke="#333" stroke-width="2"/><line x1="158.68748049548321" y1="409.9612600453826" x2="158.68748049548321" y2="369.97726004538254" stroke="#333" stroke-width="2"/><line x1="142.21316649136602" y1="407.3519850421098" x2="154.5689019944539" y2="369.3249412945644" stroke="#333" stroke-width="2"/><line x1="127.35147312526689" y1="399.77957404949973" x2="150.85347865292914" y2="367.4318385464119" stroke="#333" stroke-width="2"/><line x1="115.55716649136603" y1="387.9852674155989" x2="147.90490199445392" y2="364.48326188793664" stroke="#333" stroke-width="2"/><line x1="107.984755498756" y1="373.1235740494998" x2="146.01179924630142" y2="360.76783854641184" stroke="#333" stroke-width="2"/><line x1="105.37548049548323" y1="356.64926004538256" x2="145.3594804954832" y2="356.64926004538256" stroke="#333" stroke-width="2"/><line x1="107.984755498756" y1="340.17494604126534" x2="146.01179924630142" y2="352.5306815443533" stroke="#333" stroke-width="2"/><line x1="115.55716649136602" y1="325.31325267516627" x2="147.90490199445392" y2="348.8152582028285" stroke="#333" stroke-width="2"/><line x1="127.35147312526689" y1="313.5189460412654" x2="150.85347865292914" y2="345.86668154435324" stroke="#333" stroke-width="2"/><line x1="142.21316649136602" y1="305.94653504865533" x2="154.5689019944539" y2="343.97357879620074" stroke="#333" stroke-width="2"/><line x1="158.68748049548321" y1="303.33726004538255" x2="158.68748049548321" y2="343.3212600453826" stroke="#333" stroke-width="2"/><line x1="175.1617944996004" y1="305.94653504865533" x2="162.80605899651252" y2="343.97357879620074" stroke="#333" stroke-width="2"/><line x1="190.02348786569954" y1="313.5189460412654" x2="166.5214823380373" y2="345.86668154435324" stroke="#333" stroke-width="2"/><line x1="201.81779449960038" y1="325.3132526751662" x2="169.4700589965125" y2="348.8152582028285" stroke="#333" stroke-width="2"/><line x1="209.39020549221044" y1="340.17494604126534" x2="171.363161744665" y2="352.5306815443533" stroke="#333" stroke-width="2"/><circle cx="158.68748049548321" cy="356.64926004538256" r="19.04" fill="#222"/>
      </g>
    </g>
  
    <g>
      <g>
        <animateTransform attributeName="transform" attributeType="XML"
          type="rotate"
          from="0 303.5165434323731 82.38497155994992"
          to="360 303.5165434323731 82.38497155994992"
          dur="5.43s"
          repeatCount="indefinite"/>
        <path d="M425.32715397705,70.3876735836117 L388.78397081364693,90.78308014338667 L420.6460405259955,117.9158160558961 L379.07955736174017,122.7742439712014 L398.13302292397213,160.03470954158013 L357.87136001951427,148.6165072040692 L361.2155040198752,190.3321343161886 L328.38813457953546,164.37561952548558 L315.5138414087113,204.19558210462682 L295.1184348489364,167.65239894122374 L267.9856989364269,199.5144686535723 L263.12727102112166,157.94798548931698 L225.8668054507429,177.00145105154894 L237.2850077882538,136.73978814709108 L195.56938067613447,140.08393214745206 L221.52589546683748,107.25656270711225 L181.70593288769624,94.38226953628816 L218.2491160510993,73.98686297651317 L186.38704633875074,46.854127064003755 L227.95352950300605,41.99569914869844 L208.9000639407741,4.735233578319736 L249.161726845232,16.1534359158306 L245.81758284487097,-25.562191196288737 L278.64495228521076,0.3943235944142742 L291.5192454560349,-39.42563898472699 L311.9146520158098,-2.8824558213239015 L339.04738792831927,-34.74452553367246 L343.90581584362457,6.821957630582858 L381.1662814140033,-12.231507931649077 L369.7480790764924,28.030154972808738 L411.46370618861175,24.686010972447768 L385.50719139790874,57.5133804127875 Z" fill="#9DE09D" stroke="#222" stroke-width="3"/>
        <line x1="372.0605434323731" y1="82.38497155994992" x2="320.65254343237314" y2="82.38497155994992" stroke="#333" stroke-width="2"/><line x1="366.8429421088267" y1="108.61562474798262" x2="319.3481431014865" y2="88.9426348569581" stroke="#333" stroke-width="2"/><line x1="351.98447064202384" y1="130.85289876960064" x2="315.6335252347858" y2="94.5019533623626" stroke="#333" stroke-width="2"/><line x1="329.7471966204058" y1="145.71137023640355" x2="310.0742067293813" y2="98.21657122906333" stroke="#333" stroke-width="2"/><line x1="303.5165434323731" y1="150.9289715599499" x2="303.5165434323731" y2="99.52097155994991" stroke="#333" stroke-width="2"/><line x1="277.2858902443404" y1="145.71137023640355" x2="296.95888013536495" y2="98.21657122906333" stroke="#333" stroke-width="2"/><line x1="255.0486162227224" y1="130.85289876960064" x2="291.39956162996043" y2="94.5019533623626" stroke="#333" stroke-width="2"/><line x1="240.19014475591948" y1="108.61562474798264" x2="287.6849437632597" y2="88.9426348569581" stroke="#333" stroke-width="2"/><line x1="234.97254343237313" y1="82.38497155994993" x2="286.3805434323731" y2="82.38497155994992" stroke="#333" stroke-width="2"/><line x1="240.19014475591945" y1="56.15431837191724" x2="287.6849437632597" y2="75.82730826294176" stroke="#333" stroke-width="2"/><line x1="255.0486162227224" y1="33.91704435029921" x2="291.39956162996043" y2="70.26798975753724" stroke="#333" stroke-width="2"/><line x1="277.2858902443404" y1="19.058572883496275" x2="296.95888013536495" y2="66.5533718908365" stroke="#333" stroke-width="2"/><line x1="303.5165434323731" y1="13.84097155994992" x2="303.5165434323731" y2="65.24897155994992" stroke="#333" stroke-width="2"/><line x1="329.7471966204058" y1="19.05857288349629" x2="310.0742067293813" y2="66.55337189083652" stroke="#333" stroke-width="2"/><line x1="351.9844706420238" y1="33.91704435029919" x2="315.6335252347858" y2="70.26798975753724" stroke="#333" stroke-width="2"/><line x1="366.8429421088268" y1="56.15431837191722" x2="319.3481431014865" y2="75.82730826294174" stroke="#333" stroke-width="2"/><circle cx="303.5165434323731" cy="82.38497155994992" r="24.480000000000004" fill="#222"/>
      </g>
    </g>
  
  <text x="50%" y="95%" text-anchor="middle" font-size="32" fill="#fff" opacity="0.7" font-family="Arial">Gears Collection #95</text>
</svg>