<svg width="512" height="512" viewBox="0 0 512 512" xmlns="http://www.w3.org/2000/svg">
  <rect width="100%" height="100%" fill="#f5e663" />
  
    <g>
      <g>
        <animateTransform attributeName="transform" attributeType="XML"
          type="rotate"
          from="0 318.7585648187506 333.85475285357137"
          to="360 318.7585648187506 333.85475285357137"
          dur="5.17s"
          repeatCount="indefinite"/>
        <path d="M387.1682602535435,324.8484455903878 L366.6453516231056,340.15916793779985 L382.5062525620294,360.25990968676257 L357.0775311548172,363.2579298746926 L360.7631034203523,388.5961333336666 L337.2421746019844,378.47813427386654 L327.76487208193413,402.2644482883643 L312.4541497345221,381.7415396579264 L292.3534079855594,397.60244059685016 L289.35538779762936,372.173719189638 L264.01718433865534,375.8592914551731 L274.1351833984554,352.3383626368052 L250.34886938395766,342.8610601167549 L270.87177801439555,327.5503377693429 L255.0108770754718,307.4495960203802 L280.43959848268395,304.45157583245015 L276.75402621714886,279.1133723734762 L300.27495503551677,289.2313714332762 L309.75225755556704,265.44505741877845 L325.0629799029791,285.96796604921633 L345.1637216519418,270.1070651102926 L348.1617418398718,295.53578651750473 L373.4999452988458,291.85021425196965 L363.38194623904576,315.37114307033755 Z" fill="#F5F5F5" stroke="#222" stroke-width="3"/>
        
      </g>
    </g>
  
    <g>
      <g>
        <animateTransform attributeName="transform" attributeType="XML"
          type="rotate"
          from="0 168.1795335259523 365.03011358464533"
          to="-360 168.1795335259523 365.03011358464533"
          dur="4.2s"
          repeatCount="indefinite"/>
        <path d="M263.9531071346624,352.4212834161884 L235.22103505204936,373.8562947025652 L257.4262963665426,401.997333151113 L221.82608639644562,406.194561414215 L226.98588756819473,441.66804625677867 L194.0565872224797,427.50284757305855 L180.7883636944093,460.8036871933554 L159.35335240803244,432.0716151107424 L131.21231395948465,454.2768764252356 L127.01508569638263,418.6766664551387 L91.54160085381899,423.8364676268877 L105.7067995375391,390.9071672811727 L72.40595991724223,377.6389437531023 L101.13803199985526,356.20393246672546 L78.93277068536199,328.0628940181777 L114.532980655459,323.86566575507567 L109.37317948370988,288.39218091251206 L142.30247982942495,302.5573795962321 L155.57070335749532,269.25653997593525 L177.00571464387224,297.98861205854826 L205.14675309242,275.78335074405504 L209.34398135552198,311.383560714152 L244.81746619808558,306.2237595424029 L230.65226751436552,339.153059888118 Z" fill="#8EC6F3" stroke="#222" stroke-width="3"/>
        <line x1="222.2755335259523" y1="365.03011358464533" x2="181.7035335259523" y2="365.03011358464533" stroke="#333" stroke-width="2"/><line x1="215.0280437690753" y1="392.07811358464534" x2="179.89166108673305" y2="371.79211358464534" stroke="#333" stroke-width="2"/><line x1="195.2275335259523" y1="411.8786238277683" x2="174.9415335259523" y2="376.7422411454261" stroke="#333" stroke-width="2"/><line x1="168.1795335259523" y1="419.12611358464534" x2="168.1795335259523" y2="378.55411358464534" stroke="#333" stroke-width="2"/><line x1="141.1315335259523" y1="411.8786238277683" x2="161.4175335259523" y2="376.7422411454261" stroke="#333" stroke-width="2"/><line x1="121.3310232828293" y1="392.07811358464534" x2="156.46740596517157" y2="371.79211358464534" stroke="#333" stroke-width="2"/><line x1="114.0835335259523" y1="365.03011358464533" x2="154.6555335259523" y2="365.03011358464533" stroke="#333" stroke-width="2"/><line x1="121.33102328282932" y1="337.98211358464533" x2="156.46740596517157" y2="358.26811358464533" stroke="#333" stroke-width="2"/><line x1="141.13153352595228" y1="318.18160334152236" x2="161.4175335259523" y2="353.3179860238646" stroke="#333" stroke-width="2"/><line x1="168.1795335259523" y1="310.93411358464533" x2="168.1795335259523" y2="351.50611358464533" stroke="#333" stroke-width="2"/><line x1="195.2275335259523" y1="318.18160334152236" x2="174.9415335259523" y2="353.3179860238646" stroke="#333" stroke-width="2"/><line x1="215.02804376907528" y1="337.98211358464533" x2="179.89166108673305" y2="358.26811358464533" stroke="#333" stroke-width="2"/><circle cx="168.1795335259523" cy="365.03011358464533" r="19.32" fill="#222"/>
      </g>
    </g>
  
    <g>
      <g>
        <animateTransform attributeName="transform" attributeType="XML"
          type="rotate"
          from="0 83.27461578451204 205.34487540621328"
          to="360 83.27461578451204 205.34487540621328"
          dur="4.37s"
          repeatCount="indefinite"/>
        <path d="M206.8765588371989,193.17114657728186 L169.79597592139282,213.86648558646527 L202.12660548245236,241.3982323212175 L159.94885050695802,246.3281077058655 L179.28251409216398,284.136521299338 L138.4287679096994,272.55040422156964 L141.82209049830095,314.879496438279 L108.511965625015,288.54126819477153 L95.44834461344345,328.9468184589001 L74.75300560426005,291.8662355430941 L47.22125886950781,324.19686510415363 L42.29138348485983,282.0191101286593 L4.482969891387285,301.35277371386525 L16.069086969155677,260.4990275314006 L-26.26000524755365,263.8923501200022 L0.07822299595380855,230.58222524671623 L-40.32732726817481,217.51860423514472 L-3.246744352368765,196.82326522596128 L-35.57737391342832,169.29151849120908 L6.600381062066049,164.36164310656105 L-12.73328252313992,126.55322951308854 L28.120463659324727,138.13934659085692 L24.727141070723093,95.81025437414759 L58.03726594400907,122.14848261765505 L71.10088695558063,81.74293235352641 L91.79622596476399,118.82351526933247 L119.32797269951622,86.49288570827292 L124.25784808416427,128.6706406837673 L162.06626167763682,109.33697709856135 L150.48014459986837,150.1907232810259 L192.8092368165777,146.79740069242433 L166.47100857307026,180.10752556571023 Z" fill="#8EC6F3" stroke="#222" stroke-width="3"/>
        <line x1="152.82661578451206" y1="205.34487540621328" x2="100.66261578451204" y2="205.34487540621328" stroke="#333" stroke-width="2"/><line x1="147.53228502973707" y1="231.96127349407" x2="99.3390330958183" y2="211.99897492817746" stroke="#333" stroke-width="2"/><line x1="132.4553066295988" y1="254.52556625130003" x2="95.56978849578373" y2="217.64004811748495" stroke="#333" stroke-width="2"/><line x1="109.89101387236877" y1="269.6025446514383" x2="89.92871530647622" y2="221.40929271751952" stroke="#333" stroke-width="2"/><line x1="83.27461578451204" y1="274.89687540621327" x2="83.27461578451204" y2="222.73287540621328" stroke="#333" stroke-width="2"/><line x1="56.65821769665531" y1="269.6025446514383" x2="76.62051626254785" y2="221.40929271751952" stroke="#333" stroke-width="2"/><line x1="34.093924939425285" y1="254.52556625130003" x2="70.97944307324035" y2="217.64004811748498" stroke="#333" stroke-width="2"/><line x1="19.01694653928702" y1="231.96127349407" x2="67.21019847320578" y2="211.99897492817746" stroke="#333" stroke-width="2"/><line x1="13.72261578451203" y1="205.34487540621328" x2="65.88661578451203" y2="205.34487540621328" stroke="#333" stroke-width="2"/><line x1="19.016946539287005" y1="178.7284773183566" x2="67.21019847320578" y2="198.6907758842491" stroke="#333" stroke-width="2"/><line x1="34.093924939425264" y1="156.16418456112652" x2="70.97944307324035" y2="193.0497026949416" stroke="#333" stroke-width="2"/><line x1="56.65821769665533" y1="141.08720616098825" x2="76.62051626254785" y2="189.28045809490703" stroke="#333" stroke-width="2"/><line x1="83.27461578451202" y1="135.79287540621328" x2="83.27461578451204" y2="187.95687540621327" stroke="#333" stroke-width="2"/><line x1="109.89101387236877" y1="141.08720616098827" x2="89.92871530647622" y2="189.28045809490703" stroke="#333" stroke-width="2"/><line x1="132.4553066295988" y1="156.1641845611265" x2="95.56978849578373" y2="193.04970269494157" stroke="#333" stroke-width="2"/><line x1="147.53228502973707" y1="178.72847731835657" x2="99.3390330958183" y2="198.6907758842491" stroke="#333" stroke-width="2"/><circle cx="83.27461578451204" cy="205.34487540621328" r="24.840000000000003" fill="#222"/>
      </g>
    </g>
  
    <g>
      <g>
        <animateTransform attributeName="transform" attributeType="XML"
          type="rotate"
          from="0 129.7713278184221 75.81586551731107"
          to="-360 129.7713278184221 75.81586551731107"
          dur="4.37s"
          repeatCount="indefinite"/>
        <path d="M280.8403693272616,60.93686361528377 L235.51965687460975,86.23116684873018 L275.0348707825714,119.88107952453845 L223.4842813680783,125.90648277244158 L247.11431463888556,172.11676605335248 L197.1819581936511,157.9559562916355 L201.32935246860853,209.69151344539137 L160.61697762348126,177.50034559221558 L144.65032972044938,226.8849070261506 L119.356026487003,181.56419457349872 L85.7061138111947,221.07940848146038 L79.68071056329163,169.5288190669673 L33.47042728238071,193.15885233777456 L47.63123704409766,143.22649589254004 L-4.104320109658204,147.37389016749756 L28.08684774351758,106.66151532237024 L-21.297713690417396,90.69486741933841 L24.022998762234437,65.40056418589197 L-15.492215145727243,31.750651510083713 L36.05837426876589,25.725248262180557 L12.4283409979586,-20.485035018730287 L62.36069744319316,-6.324225257013396 L58.2133031682356,-58.05978241076923 L98.92567801336291,-25.868614557593446 L114.89232591639481,-75.25317599152845 L140.18662914984114,-29.93246353887659 L173.83654182564942,-69.44767744683827 L179.8619450735526,-17.89708803234514 L226.0722283544635,-41.5271213031524 L211.9114185927465,8.405235142082049 L263.64697574650233,4.257840867124571 L231.45580789332658,44.97021571225179 Z" fill="#C9AE5D" stroke="#222" stroke-width="3"/>
        
      </g>
    </g>
  
    <g>
      <g>
        <animateTransform attributeName="transform" attributeType="XML"
          type="rotate"
          from="0 475.4907256360707 116.63062976481828"
          to="360 475.4907256360707 116.63062976481828"
          dur="3.59s"
          repeatCount="indefinite"/>
        <path d="M652.6820139388384,88.56628673660086 L599.5246274480081,136.27566988457048 L635.3372960754639,198.07652541809296 L564.2891952174773,205.42909934622492 L556.9366212893453,276.4772002042115 L495.1357657558229,240.66453157675568 L447.42638260785327,293.821918067586 L418.47859867877844,228.52322907239352 L348.63576909120405,243.48558630968492 L363.5981263284955,173.64275672211056 L298.299437333303,144.69497279303573 L351.45682382413327,96.98558964506611 L315.64415519667745,35.184734111543676 L386.692256054664,27.832160183411645 L394.044829982796,-43.21594067457491 L455.8456855163185,-7.403272047119103 L503.55506866428806,-60.56065853794945 L532.502852593363,4.738030457243028 L602.3456821809373,-10.224326780048372 L587.3833249436459,59.61850280752597 Z" fill="#FFD700" stroke="#222" stroke-width="3"/>
        
      </g>
    </g>
  
  <text x="50%" y="95%" text-anchor="middle" font-size="32" fill="#fff" opacity="0.7" font-family="Arial">Gears Collection #36</text>
</svg>