<svg width="512" height="512" viewBox="0 0 512 512" xmlns="http://www.w3.org/2000/svg">
  <rect width="100%" height="100%" fill="#f5e663" />
  
    <g>
      <g>
        <animateTransform attributeName="transform" attributeType="XML"
          type="rotate"
          from="0 336.8457656244915 314.8554345884031"
          to="360 336.8457656244915 314.8554345884031"
          dur="4.1s"
          repeatCount="indefinite"/>
        <path d="M405.2554610592844,305.84912732521957 L384.73255242884653,321.1598496726316 L400.5934533677703,341.2605914215943 L375.16473196055813,344.25861160952434 L378.8503042260932,369.59681506849836 L355.3293754077253,359.47881600869823 L345.85207288767504,383.26513002319604 L330.541350540263,362.74222139275815 L310.4406087913003,378.6031223316819 L307.44258860337027,353.17440092446975 L282.10438514439625,356.85997319000484 L292.2223842041964,333.33904437163693 L268.43607018969857,323.86174185158666 L288.95897882013645,308.55101950417463 L273.0980778812127,288.45027775521197 L298.52679928842485,285.4522575672819 L294.84122702288977,260.1140541083079 L318.3621558412577,270.23205316810794 L327.83945836130795,246.4457391536102 L343.15018070872003,266.9686477840481 L363.2509224576827,251.10774684512432 L366.2489426456127,276.5364682523365 L391.5871461045867,272.8508959868014 L381.46914704478667,296.3718248051693 Z" fill="#8EC6F3" stroke="#222" stroke-width="3"/>
        
      </g>
    </g>
  
    <g>
      <g>
        <animateTransform attributeName="transform" attributeType="XML"
          type="rotate"
          from="0 188.4542503407792 378.62777704490065"
          to="-360 188.4542503407792 378.62777704490065"
          dur="4.53s"
          repeatCount="indefinite"/>
        <path d="M284.5890949373134,369.1593212890651 L255.74864155835314,385.2556960739855 L280.89468677251057,406.66927686768173 L248.08976623601495,410.5036243890746 L263.12706013561956,439.9101682951088 L231.3519242159249,430.8987439012889 L233.99117511817056,463.82137118095176 L208.08330021672595,443.3360825471126 L197.92270609661475,474.76262164143486 L181.82633131169433,445.9221682624746 L160.41275051799812,471.068213476632 L156.57840299660526,438.2632929401364 L127.17185909057105,453.3005868397411 L136.18328348439093,421.52545092004635 L103.26065620472812,424.16470182229205 L123.74594483856724,398.2568269208474 L92.31940574424499,388.09623280073623 L121.15985912320525,371.9998580158158 L96.01381390904783,350.58627722211963 L128.81873444554344,346.7519297007267 L113.78144054593879,317.3453857946925 L145.55657646563353,326.3568101885124 L142.9173255633878,293.4341829088496 L168.82520046483245,313.9194715426887 L178.98579458494365,282.49293244836645 L195.08216936986406,311.3333858273267 L216.49575016356022,286.1873406131693 L220.33009768495316,318.9922611496649 L249.73664159098735,303.9549672500603 L240.72521719716744,335.7301031697549 L273.6478444768303,333.09085226750926 L253.16255584299114,358.99872716895385 Z" fill="#9DE09D" stroke="#222" stroke-width="3"/>
        
      </g>
    </g>
  
    <g>
      <g>
        <animateTransform attributeName="transform" attributeType="XML"
          type="rotate"
          from="0 76.00811061766416 254.2912704786946"
          to="360 76.00811061766416 254.2912704786946"
          dur="4.56s"
          repeatCount="indefinite"/>
        <path d="M199.82524346731867,244.54665078929625 L162.6801036124223,261.11250426127344 L196.7764547310556,283.28518466959804 L156.3301971741954,287.5617680885155 L181.90601903044242,319.18559221641544 L142.11780526693084,310.75428380052074 L156.66955822027296,348.73369140621844 L121.43413583406875,328.41980636763935 L123.53739291740831,369.0371084165964 L96.30385055129658,338.8291113580686 L85.7527303070625,378.1084033283491 L69.18687683508533,340.96326347345274 L47.01419642676074,375.05961459208606 L42.73761300784326,334.6133570352259 L11.113788879943314,360.18917889147286 L19.545097295838005,320.4009651279613 L-18.43431030985967,334.95271808130343 L1.8795747287193905,299.7172956950992 L-38.73772732023765,301.82055277843875 L-8.529730261709844,274.587010412327 L-47.80902223199034,264.035890168093 L-10.663882377093984,247.47003669611578 L-44.76023349572728,225.2973562877911 L-4.313975938867131,221.02077286887373 L-29.889797795114106,189.39694874097376 L9.898415968397458,197.82825715686846 L-4.6533369849447155,159.84884955117082 L30.58208540125959,180.1627345897498 L28.47882831792004,139.54543254079277 L55.71237068403177,169.7534295993206 L66.26349092826574,130.47413762904011 L82.82934440024295,167.61927748393646 L105.00202480856754,133.52292636530314 L109.27860822748508,173.96918392216332 L140.90243235538503,148.39336206591636 L132.47112393949033,188.1815758294279 L170.45053154518794,173.6298228760857 L150.13664650660894,208.86524526229002 L190.75394855556598,206.76198817895047 L160.54595149703815,233.99553054506214 Z" fill="#9DE09D" stroke="#222" stroke-width="3"/>
        <line x1="145.56011061766418" y1="254.2912704786946" x2="93.39611061766416" y2="254.2912704786946" stroke="#333" stroke-width="2"/><line x1="142.15599343902468" y1="275.78402047146096" x2="92.5450813230043" y2="259.6644579768862" stroke="#333" stroke-width="2"/><line x1="132.2768606104305" y1="295.1729103461407" x2="90.07529811585574" y2="264.5116804455561" stroke="#333" stroke-width="2"/><line x1="116.88975048511026" y1="310.560020471461" x2="86.22852058452568" y2="268.3584579768862" stroke="#333" stroke-width="2"/><line x1="97.50086061043051" y1="320.4391533000551" x2="81.38129811585574" y2="270.8282411840347" stroke="#333" stroke-width="2"/><line x1="76.00811061766416" y1="323.8432704786946" x2="76.00811061766416" y2="271.6792704786946" stroke="#333" stroke-width="2"/><line x1="54.51536062489782" y1="320.4391533000551" x2="70.63492311947257" y2="270.8282411840347" stroke="#333" stroke-width="2"/><line x1="35.12647075021807" y1="310.560020471461" x2="65.78770065080263" y2="268.3584579768862" stroke="#333" stroke-width="2"/><line x1="19.739360624897813" y1="295.1729103461407" x2="61.94092311947257" y2="264.5116804455561" stroke="#333" stroke-width="2"/><line x1="9.860227796303633" y1="275.78402047146096" x2="59.47113991232403" y2="259.6644579768862" stroke="#333" stroke-width="2"/><line x1="6.456110617664152" y1="254.2912704786946" x2="58.62011061766415" y2="254.2912704786946" stroke="#333" stroke-width="2"/><line x1="9.860227796303633" y1="232.79852048592824" x2="59.47113991232403" y2="248.91808298050302" stroke="#333" stroke-width="2"/><line x1="19.739360624897806" y1="213.4096306112485" x2="61.94092311947257" y2="244.07086051183308" stroke="#333" stroke-width="2"/><line x1="35.126470750218054" y1="198.02252048592825" x2="65.78770065080263" y2="240.224082980503" stroke="#333" stroke-width="2"/><line x1="54.5153606248978" y1="188.14338765733407" x2="70.63492311947257" y2="237.75429977335446" stroke="#333" stroke-width="2"/><line x1="76.00811061766414" y1="184.7392704786946" x2="76.00811061766416" y2="236.9032704786946" stroke="#333" stroke-width="2"/><line x1="97.5008606104305" y1="188.14338765733407" x2="81.38129811585574" y2="237.75429977335446" stroke="#333" stroke-width="2"/><line x1="116.88975048511024" y1="198.02252048592823" x2="86.22852058452568" y2="240.224082980503" stroke="#333" stroke-width="2"/><line x1="132.2768606104305" y1="213.40963061124847" x2="90.07529811585574" y2="244.07086051183308" stroke="#333" stroke-width="2"/><line x1="142.15599343902468" y1="232.79852048592824" x2="92.5450813230043" y2="248.91808298050302" stroke="#333" stroke-width="2"/><circle cx="76.00811061766416" cy="254.2912704786946" r="24.840000000000003" fill="#222"/>
      </g>
    </g>
  
    <g>
      <g>
        <animateTransform attributeName="transform" attributeType="XML"
          type="rotate"
          from="0 169.7231675909489 53.62335068130881"
          to="-360 169.7231675909489 53.62335068130881"
          dur="5.22s"
          repeatCount="indefinite"/>
        <path d="M318.6063731561593,24.008639799260536 L273.94141148659617,74.3536482987426 L295.94025473847523,137.95891205368443 L228.75806055161183,141.97531168457726 L199.33787847299718,202.5065562465192 L148.99286997351513,157.84159457695608 L85.38760621857325,179.84043782883515 L81.37120658768042,112.65824364197174 L20.839962025738487,83.23806156335706 L65.50492369530161,32.89305306387506 L43.50608044342252,-30.71221069106683 L110.68827463028587,-34.72861032195961 L140.10845670890055,-95.25985488390157 L190.45346520838268,-50.59489321433847 L254.05872896332446,-72.5937364662176 L258.07512859421735,-5.411542279354123 Z" fill="#E5E4E2" stroke="#222" stroke-width="3"/>
        
      </g>
    </g>
  
    <g>
      <g>
        <animateTransform attributeName="transform" attributeType="XML"
          type="rotate"
          from="0 506.53090456196895 186.47111492795528"
          to="360 506.53090456196895 186.47111492795528"
          dur="5.49s"
          repeatCount="indefinite"/>
        <path d="M684.3961126924305,163.05471604367804 L631.036550253292,202.86259414694936 L672.2748926944938,255.1245226942524 L606.1602170357422,262.91937518287045 L615.7427049261335,328.7987041762029 L554.5882899983769,302.49190662072266 L529.9473034462462,364.33632305841684 L490.1394253429749,310.9767606192784 L437.87749679567185,352.21510306048015 L430.0826443070538,286.1004274017286 L364.2033153137213,295.68291529211973 L390.5101128692016,234.52850036436328 L328.6656964315074,209.88751381223253 L382.0252588706458,170.07963570896123 L340.7869164294441,117.81770716165828 L406.9015920881956,110.02285467304014 L397.31910419780445,44.14352567970772 L458.473519125561,70.45032323518788 L483.1145056776917,8.605906797493702 L522.9223837809631,61.965469236632174 L575.1843123282661,20.72712679543045 L582.9791648168841,86.84180245418197 L648.8584938102165,77.25931456379075 L622.5516962547364,138.41372949154734 Z" fill="#E5E4E2" stroke="#222" stroke-width="3"/>
        <line x1="606.994904561969" y1="186.47111492795528" x2="531.646904561969" y2="186.47111492795528" stroke="#333" stroke-width="2"/><line x1="593.5352807277688" y1="236.70311492795528" x2="528.281998603419" y2="199.02911492795528" stroke="#333" stroke-width="2"/><line x1="556.762904561969" y1="273.4754910937551" x2="519.088904561969" y2="208.22220896940524" stroke="#333" stroke-width="2"/><line x1="506.53090456196895" y1="286.9351149279553" x2="506.53090456196895" y2="211.58711492795527" stroke="#333" stroke-width="2"/><line x1="456.298904561969" y1="273.4754910937551" x2="493.97290456196896" y2="208.22220896940524" stroke="#333" stroke-width="2"/><line x1="419.5265283961691" y1="236.70311492795528" x2="484.779810520519" y2="199.02911492795528" stroke="#333" stroke-width="2"/><line x1="406.06690456196895" y1="186.47111492795528" x2="481.41490456196897" y2="186.47111492795528" stroke="#333" stroke-width="2"/><line x1="419.5265283961691" y1="136.23911492795526" x2="484.779810520519" y2="173.9131149279553" stroke="#333" stroke-width="2"/><line x1="456.2989045619689" y1="99.46673876215546" x2="493.97290456196896" y2="164.72002088650532" stroke="#333" stroke-width="2"/><line x1="506.53090456196895" y1="86.00711492795529" x2="506.53090456196895" y2="161.3551149279553" stroke="#333" stroke-width="2"/><line x1="556.762904561969" y1="99.46673876215544" x2="519.088904561969" y2="164.72002088650532" stroke="#333" stroke-width="2"/><line x1="593.5352807277687" y1="136.23911492795526" x2="528.2819986034189" y2="173.91311492795526" stroke="#333" stroke-width="2"/><circle cx="506.53090456196895" cy="186.47111492795528" r="35.88" fill="#222"/>
      </g>
    </g>
  
  <text x="50%" y="95%" text-anchor="middle" font-size="32" fill="#fff" opacity="0.7" font-family="Arial">Gears Collection #97</text>
</svg>