<svg width="512" height="512" viewBox="0 0 512 512" xmlns="http://www.w3.org/2000/svg">
  <rect width="100%" height="100%" fill="#b2f5ea" />
  
    <g>
      <g>
        <animateTransform attributeName="transform" attributeType="XML"
          type="rotate"
          from="0 355.8158824379583 262.0654441825549"
          to="360 355.8158824379583 262.0654441825549"
          dur="4.22s"
          repeatCount="indefinite"/>
        <path d="M421.6124264643447,256.88714386451716 L401.8734632564288,265.69025440518135 L419.992297184205,277.47283819704467 L398.4991168399797,279.74541875782205 L412.09013328532836,296.55034945380754 L390.9466380486797,292.0699440154094 L398.6794536277504,312.252237912157 L379.95531612783515,301.45741977571396 L381.0729889740542,323.04149332829985 L366.60105824810114,306.98893450492756 L360.99418275599606,327.8619882089414 L352.19107221533187,308.12302500102544 L340.40848842346855,326.2418589288016 L338.13590786269117,304.7486785845764 L321.3309771667057,318.339695029925 L325.8113826051038,297.1961997932764 L305.6290887083563,304.92901537234707 L316.42390684479926,286.2048778724318 L294.83983329221337,287.32255071865086 L310.89239211558566,272.8506199926978 L290.0193384115719,267.2437445005927 L309.7583016194878,258.4406339599285 L291.6394676917116,246.65805016806516 L313.1326480359368,244.3854696072878 L299.5416315905882,227.5805389113023 L320.68512682723684,232.06094434970043 L312.95231124816615,211.8786504529529 L331.6764487480815,222.67346858939587 L330.55877590186236,201.08939503681 L345.0307066278155,217.14195386018227 L350.63758211992047,196.26890015616848 L359.4406926605847,216.00786336408441 L371.22327645244803,197.88902943630825 L373.4958570132255,219.3822097805335 L390.3007877092109,205.79119333518486 L385.8203822708128,226.9346885718335 L406.0026761675603,219.2018729927628 L395.2078580311173,237.9260104926781 L416.7919315837032,236.80833764645902 L400.7393727603309,251.28026837241208 Z" fill="#9DE09D" stroke="#222" stroke-width="3"/>
        <line x1="392.7758824379583" y1="262.0654441825549" x2="365.0558824379583" y2="262.0654441825549" stroke="#333" stroke-width="2"/><line x1="390.9669312802272" y1="273.486712294653" x2="364.6036446485255" y2="264.9207612105794" stroke="#333" stroke-width="2"/><line x1="385.7171505500564" y1="283.78998710728473" x2="363.2911994659828" y2="267.4965799137374" stroke="#333" stroke-width="2"/><line x1="377.5404253626881" y1="291.966712294653" x2="361.24701816914074" y2="269.54076121057943" stroke="#333" stroke-width="2"/><line x1="367.23715055005636" y1="297.2164930248238" x2="358.6711994659828" y2="270.85320639312215" stroke="#333" stroke-width="2"/><line x1="355.8158824379583" y1="299.0254441825549" x2="355.8158824379583" y2="271.30544418255494" stroke="#333" stroke-width="2"/><line x1="344.39461432586023" y1="297.2164930248238" x2="352.9605654099338" y2="270.85320639312215" stroke="#333" stroke-width="2"/><line x1="334.0913395132285" y1="291.966712294653" x2="350.38474670677584" y2="269.54076121057943" stroke="#333" stroke-width="2"/><line x1="325.9146143258602" y1="283.78998710728473" x2="348.3405654099338" y2="267.4965799137374" stroke="#333" stroke-width="2"/><line x1="320.6648335956894" y1="273.486712294653" x2="347.02812022739107" y2="264.9207612105794" stroke="#333" stroke-width="2"/><line x1="318.8558824379583" y1="262.0654441825549" x2="346.5758824379583" y2="262.0654441825549" stroke="#333" stroke-width="2"/><line x1="320.6648335956894" y1="250.64417607045687" x2="347.02812022739107" y2="259.2101271545304" stroke="#333" stroke-width="2"/><line x1="325.9146143258602" y1="240.34090125782512" x2="348.3405654099338" y2="256.6343084513725" stroke="#333" stroke-width="2"/><line x1="334.0913395132285" y1="232.16417607045688" x2="350.38474670677584" y2="254.59012715453042" stroke="#333" stroke-width="2"/><line x1="344.39461432586023" y1="226.91439534028603" x2="352.9605654099338" y2="253.2776819719877" stroke="#333" stroke-width="2"/><line x1="355.8158824379583" y1="225.10544418255492" x2="355.8158824379583" y2="252.82544418255492" stroke="#333" stroke-width="2"/><line x1="367.23715055005636" y1="226.91439534028603" x2="358.6711994659828" y2="253.2776819719877" stroke="#333" stroke-width="2"/><line x1="377.5404253626881" y1="232.16417607045688" x2="361.24701816914074" y2="254.59012715453042" stroke="#333" stroke-width="2"/><line x1="385.7171505500564" y1="240.34090125782512" x2="363.2911994659828" y2="256.6343084513725" stroke="#333" stroke-width="2"/><line x1="390.9669312802272" y1="250.64417607045687" x2="364.6036446485255" y2="259.2101271545304" stroke="#333" stroke-width="2"/><circle cx="355.8158824379583" cy="262.0654441825549" r="13.200000000000001" fill="#222"/>
      </g>
    </g>
  
    <g>
      <g>
        <animateTransform attributeName="transform" attributeType="XML"
          type="rotate"
          from="0 211.11809448560587 388.61076335425037"
          to="-360 211.11809448560587 388.61076335425037"
          dur="5.33s"
          repeatCount="indefinite"/>
        <path d="M302.72759967654594,376.5501431931176 L275.24474811926393,397.0531974670433 L296.48456328964875,423.9707125047847 L262.4321885356429,427.98545258253444 L267.36765052601163,461.9166119971605 L235.87005889097986,448.3672915170804 L223.17871464673865,480.22026854519044 L202.67566037281296,452.73741698790843 L175.7581453350716,473.97723215829325 L171.74340525732183,439.9248574042874 L137.81224584269575,444.86031939465613 L151.36156632277584,413.36272775962436 L119.5085892946658,400.6713835153831 L146.9914408519478,380.16832924145746 L125.75162568156296,353.2508142037161 L159.80400043556878,349.2360741259663 L154.86853844520004,315.30491471134025 L186.36613008023187,328.85423519142034 L199.0574743244731,297.0012581633103 L219.56052859839883,324.4841097205923 L246.47804363614017,303.2442945502075 L250.4927837138899,337.2966693042133 L284.423943128516,332.36120731384455 L270.8746226484359,363.85879894887637 Z" fill="#F5F5F5" stroke="#222" stroke-width="3"/>
        <line x1="262.8620944856059" y1="388.61076335425037" x2="224.05409448560587" y2="388.61076335425037" stroke="#333" stroke-width="2"/><line x1="255.92971297902787" y1="414.4827633542504" x2="222.32099910896136" y2="395.0787633542504" stroke="#333" stroke-width="2"/><line x1="236.99009448560588" y1="433.42238184767234" x2="217.58609448560586" y2="399.81366797760586" stroke="#333" stroke-width="2"/><line x1="211.11809448560587" y1="440.3547633542504" x2="211.11809448560587" y2="401.54676335425034" stroke="#333" stroke-width="2"/><line x1="185.24609448560588" y1="433.42238184767234" x2="204.65009448560588" y2="399.81366797760586" stroke="#333" stroke-width="2"/><line x1="166.30647599218386" y1="414.4827633542504" x2="199.91518986225037" y2="395.0787633542504" stroke="#333" stroke-width="2"/><line x1="159.37409448560587" y1="388.61076335425037" x2="198.18209448560586" y2="388.61076335425037" stroke="#333" stroke-width="2"/><line x1="166.3064759921839" y1="362.73876335425035" x2="199.91518986225037" y2="382.14276335425035" stroke="#333" stroke-width="2"/><line x1="185.24609448560585" y1="343.7991448608284" x2="204.65009448560585" y2="377.4078587308949" stroke="#333" stroke-width="2"/><line x1="211.11809448560587" y1="336.86676335425034" x2="211.11809448560587" y2="375.6747633542504" stroke="#333" stroke-width="2"/><line x1="236.99009448560588" y1="343.7991448608284" x2="217.58609448560586" y2="377.4078587308949" stroke="#333" stroke-width="2"/><line x1="255.92971297902784" y1="362.73876335425035" x2="222.32099910896136" y2="382.14276335425035" stroke="#333" stroke-width="2"/><circle cx="211.11809448560587" cy="388.61076335425037" r="18.48" fill="#222"/>
      </g>
    </g>
  
    <g>
      <g>
        <animateTransform attributeName="transform" attributeType="XML"
          type="rotate"
          from="0 110.39540155028158 150.17325049735177"
          to="360 110.39540155028158 150.17325049735177"
          dur="4.99s"
          repeatCount="indefinite"/>
        <path d="M228.82918079777716,140.8523099248838 L193.2990470235285,156.69790889807936 L225.91294809352553,177.90655972343333 L187.22522347392018,181.99720473283264 L211.68905307554775,212.24607998560649 L173.63076164958014,204.18135019648986 L187.54982969190738,240.50947921063545 L153.84638219205988,221.07880656503806 L155.85819331525425,259.9301389596926 L129.80871800853868,231.03553307762255 L119.71634212274957,268.60702974484735 L103.870743149554,233.07689597059868 L82.66209232420005,265.6907970405957 L78.57144731480071,227.00307242099038 L48.32257206202686,251.46690202261794 L56.38730185114351,213.40861059665036 L20.059172836997917,227.3276786389776 L39.48984548259527,193.62423113913007 L0.6385130879407086,195.63604226232445 L29.533118970010804,169.58656695560887 L-8.038377697214017,159.49419106981978 L27.491756077034665,143.64859209662418 L-5.12214499296239,122.43994127127017 L33.56557962664296,118.34929626187096 L9.10175002501542,88.10042100909706 L47.160041450982995,96.16515079821372 L33.240973408655705,59.83702178406814 L66.9444209085033,79.26769442966545 L64.93260978530895,40.41636203501089 L90.9820850920245,69.31096791708099 L101.07446097781352,31.73947124985618 L116.92005995100911,67.26960502410485 L138.12871077636305,34.65570395410778 L142.21935578576245,73.34342857371318 L172.46823103853632,48.87959897208563 L164.40350124941966,86.93789039805321 L200.7316302635652,73.0188223557259 L181.30095761796787,106.72226985557347 L220.15229001262247,104.71045873237914 L191.25768413055235,130.75993403909462 Z" fill="#FFD700" stroke="#222" stroke-width="3"/>
        <line x1="176.9234015502816" y1="150.17325049735177" x2="127.02740155028158" y2="150.17325049735177" stroke="#333" stroke-width="2"/><line x1="173.66728946636556" y1="170.73153309912828" x2="126.21337352930257" y2="155.3128211477959" stroke="#333" stroke-width="2"/><line x1="164.2176841520581" y1="189.27742776186543" x2="123.8509722007257" y2="159.94929481348018" stroke="#333" stroke-width="2"/><line x1="149.49957881479523" y1="203.9955330991283" x2="120.17144586641" y2="163.6288211477959" stroke="#333" stroke-width="2"/><line x1="130.9536841520581" y1="213.44513841343576" x2="115.5349722007257" y2="165.99122247637277" stroke="#333" stroke-width="2"/><line x1="110.39540155028158" y1="216.7012504973518" x2="110.39540155028158" y2="166.80525049735178" stroke="#333" stroke-width="2"/><line x1="89.83711894850508" y1="213.44513841343576" x2="105.25583089983745" y2="165.99122247637277" stroke="#333" stroke-width="2"/><line x1="71.29122428576792" y1="203.9955330991283" x2="100.61935723415317" y2="163.6288211477959" stroke="#333" stroke-width="2"/><line x1="56.573118948505076" y1="189.27742776186545" x2="96.93983089983745" y2="159.94929481348018" stroke="#333" stroke-width="2"/><line x1="47.1235136341976" y1="170.73153309912828" x2="94.57742957126058" y2="155.3128211477959" stroke="#333" stroke-width="2"/><line x1="43.86740155028157" y1="150.17325049735177" x2="93.76340155028157" y2="150.17325049735177" stroke="#333" stroke-width="2"/><line x1="47.1235136341976" y1="129.61496789557526" x2="94.57742957126058" y2="145.03367984690763" stroke="#333" stroke-width="2"/><line x1="56.57311894850507" y1="111.06907323283812" x2="96.93983089983745" y2="140.39720618122337" stroke="#333" stroke-width="2"/><line x1="71.29122428576791" y1="96.35096789557528" x2="100.61935723415316" y2="136.71767984690766" stroke="#333" stroke-width="2"/><line x1="89.83711894850506" y1="86.90136258126779" x2="105.25583089983745" y2="134.35527851833078" stroke="#333" stroke-width="2"/><line x1="110.39540155028156" y1="83.64525049735177" x2="110.39540155028158" y2="133.54125049735177" stroke="#333" stroke-width="2"/><line x1="130.95368415205806" y1="86.90136258126779" x2="115.5349722007257" y2="134.35527851833078" stroke="#333" stroke-width="2"/><line x1="149.49957881479523" y1="96.35096789557525" x2="120.17144586640998" y2="136.71767984690766" stroke="#333" stroke-width="2"/><line x1="164.21768415205807" y1="111.0690732328381" x2="123.8509722007257" y2="140.39720618122337" stroke="#333" stroke-width="2"/><line x1="173.66728946636556" y1="129.61496789557526" x2="126.21337352930257" y2="145.03367984690763" stroke="#333" stroke-width="2"/><circle cx="110.39540155028158" cy="150.17325049735177" r="23.76" fill="#222"/>
      </g>
    </g>
  
    <g>
      <g>
        <animateTransform attributeName="transform" attributeType="XML"
          type="rotate"
          from="0 358.8044208179365 61.49742659725905"
          to="-360 358.8044208179365 61.49742659725905"
          dur="5.43s"
          repeatCount="indefinite"/>
        <path d="M502.2167678723505,38.783142273417525 L459.1930637560263,77.39742562394812 L488.1785681300875,127.41684715944125 L430.6747540577372,133.36775983705974 L424.7238413801187,190.87157390941007 L374.70441984462553,161.88606953534884 L336.09013649409496,204.90977365167305 L312.660826424409,152.05932971576476 L256.1325161896498,164.16933122554576 L268.2425176994308,107.64102099078659 L215.3920737635225,84.21171092110059 L258.4157778798467,45.59742757057 L229.43027350578544,-4.421993964923075 L286.9340875781358,-10.372906642541636 L292.8850002557543,-67.87672071489197 L342.9044217912474,-38.89121634083074 L381.518705141778,-81.91492045715498 L404.948015211464,-29.064476521246675 L461.4763254462232,-41.17447803102769 L449.3663239364422,15.353832203731493 Z" fill="#E5E4E2" stroke="#222" stroke-width="3"/>
        
      </g>
    </g>
  
  <text x="50%" y="95%" text-anchor="middle" font-size="32" fill="#fff" opacity="0.7" font-family="Arial">Gears Collection #47</text>
</svg>