<svg width="512" height="512" viewBox="0 0 512 512" xmlns="http://www.w3.org/2000/svg">
  <rect width="100%" height="100%" fill="#b2f5ea" />
  
    <g>
      <g>
        <animateTransform attributeName="transform" attributeType="XML"
          type="rotate"
          from="0 335.5798064272382 316.5562086742829"
          to="360 335.5798064272382 316.5562086742829"
          dur="3.71s"
          repeatCount="indefinite"/>
        <path d="M397.36927909264176,304.2655183872668 L378.8324372930207,325.15969187519414 L387.96239200229854,351.5571333545179 L360.08045370340267,353.22401857682513 L347.87049671425433,378.34568133968645 L326.976323226327,359.8088395400654 L300.57888174700327,368.93879424934323 L298.91199652469595,341.05685595044736 L273.7903337618347,328.84689896129896 L292.32717556145576,307.9527254733717 L283.1972208521779,281.55528399404795 L311.0791591510737,279.8883987717407 L323.2891161402221,254.7667360088794 L344.1832896281495,273.30357780850045 L370.5807311074731,264.17362309922254 L372.24761632978044,292.05556139811847 Z" fill="#E5E4E2" stroke="#222" stroke-width="3"/>
        
      </g>
    </g>
  
    <g>
      <g>
        <animateTransform attributeName="transform" attributeType="XML"
          type="rotate"
          from="0 247.65489164417144 395.7510614146794"
          to="-360 247.65489164417144 395.7510614146794"
          dur="4.59s"
          repeatCount="indefinite"/>
        <path d="M335.58300047943334,388.83096917148345 L309.20456782885475,400.59512598491654 L333.4179186232465,416.34094250677026 L304.6952139814183,419.3779365289 L322.85775414020236,441.83543482262604 L294.60235596031737,435.84798391858493 L304.93620950689365,462.8188675806021 L279.9139530297341,448.393065161901 L281.40757037877233,477.23723618217485 L262.067808408635,455.7851803000319 L254.57498388736738,483.67917024994125 L242.8108270739343,457.3007375993627 L227.06501055208062,481.51408839375443 L224.0280165299508,452.7913837519262 L201.57051823622476,470.95392391071033 L207.55796914026593,442.6985257308253 L180.58708547824875,453.03237927740156 L195.0128878969498,428.0101228002421 L166.16871687667594,429.5037401492803 L187.6207727588189,410.163978179143 L159.72678280890955,402.6711536578753 L186.10521545948814,390.90699684444223 L161.89186466509636,375.1611803225885 L190.61456930692458,372.1241863004588 L172.45202914814053,349.6666880067327 L200.70742732802555,355.65413891077384 L190.3735737814492,328.6832552487567 L215.39583025860878,343.1090576674577 L213.90221290957055,314.2648866471839 L233.24197487970787,335.71694252932684 L240.73479940097548,307.8229525794175 L252.49895621440854,334.20138522999605 L268.24477273626223,309.9880344356043 L271.2817667583921,338.71073907743255 L293.7392650521181,320.5481989186485 L287.75181414807696,348.8035970985335 L314.72269781009413,338.46974355195715 L300.2968953913931,363.4920000291167 L329.14106641166694,361.9983826800785 L307.68901052952396,381.3381446502157 Z" fill="#C9AE5D" stroke="#222" stroke-width="3"/>
        <line x1="297.0468916441714" y1="395.7510614146794" x2="260.0028916441714" y2="395.7510614146794" stroke="#333" stroke-width="2"/><line x1="294.62947509702167" y1="411.0140288008468" x2="259.398537507384" y2="399.56680326122125" stroke="#333" stroke-width="2"/><line x1="287.61385903033886" y1="424.7829505959092" x2="257.6446334907133" y2="403.00903370998685" stroke="#333" stroke-width="2"/><line x1="276.6867808254013" y1="435.71002880084677" x2="254.9128639394789" y2="405.74080326122123" stroke="#333" stroke-width="2"/><line x1="262.91785903033883" y1="442.7256448675296" x2="251.47063349071328" y2="407.49470727789196" stroke="#333" stroke-width="2"/><line x1="247.65489164417144" y1="445.1430614146794" x2="247.65489164417144" y2="408.0990614146794" stroke="#333" stroke-width="2"/><line x1="232.39192425800405" y1="442.7256448675296" x2="243.8391497976296" y2="407.49470727789196" stroke="#333" stroke-width="2"/><line x1="218.62300246294163" y1="435.71002880084677" x2="240.39691934886397" y2="405.74080326122123" stroke="#333" stroke-width="2"/><line x1="207.69592425800406" y1="424.7829505959092" x2="237.6651497976296" y2="403.00903370998685" stroke="#333" stroke-width="2"/><line x1="200.68030819132122" y1="411.0140288008468" x2="235.9112457809589" y2="399.56680326122125" stroke="#333" stroke-width="2"/><line x1="198.26289164417145" y1="395.7510614146794" x2="235.30689164417146" y2="395.7510614146794" stroke="#333" stroke-width="2"/><line x1="200.68030819132122" y1="380.48809402851197" x2="235.9112457809589" y2="391.9353195681375" stroke="#333" stroke-width="2"/><line x1="207.69592425800403" y1="366.71917223344957" x2="237.6651497976296" y2="388.4930891193719" stroke="#333" stroke-width="2"/><line x1="218.6230024629416" y1="355.792094028512" x2="240.39691934886397" y2="385.76131956813754" stroke="#333" stroke-width="2"/><line x1="232.39192425800402" y1="348.7764779618292" x2="243.8391497976296" y2="384.0074155514668" stroke="#333" stroke-width="2"/><line x1="247.65489164417144" y1="346.3590614146794" x2="247.65489164417144" y2="383.40306141467937" stroke="#333" stroke-width="2"/><line x1="262.91785903033883" y1="348.7764779618292" x2="251.47063349071328" y2="384.0074155514668" stroke="#333" stroke-width="2"/><line x1="276.6867808254013" y1="355.792094028512" x2="254.9128639394789" y2="385.76131956813754" stroke="#333" stroke-width="2"/><line x1="287.61385903033886" y1="366.7191722334495" x2="257.6446334907133" y2="388.4930891193719" stroke="#333" stroke-width="2"/><line x1="294.62947509702167" y1="380.48809402851197" x2="259.398537507384" y2="391.9353195681375" stroke="#333" stroke-width="2"/><circle cx="247.65489164417144" cy="395.7510614146794" r="17.639999999999997" fill="#222"/>
      </g>
    </g>
  
    <g>
      <g>
        <animateTransform attributeName="transform" attributeType="XML"
          type="rotate"
          from="0 93.2001015784256 332.7866725019717"
          to="360 93.2001015784256 332.7866725019717"
          dur="3.79s"
          repeatCount="indefinite"/>
        <path d="M205.6299488582157,317.98500230421786 L171.90099467427865,343.14784164039935 L197.9680405652055,376.18297373217285 L156.17648973074384,381.1101547366839 L162.23364762801452,422.75294129099774 L123.57751243956643,406.12422979271764 L108.00177177617947,445.2165197817618 L82.83893243999792,411.48756559782476 L49.80380034822443,437.5546114887516 L44.87661934371336,395.7630606542899 L3.2338327893995142,401.8202185515606 L19.86254428767967,363.1640833631125 L-19.229745701364507,347.5883426997255 L14.499208482572527,322.425503363544 L-11.56783740835435,289.39037127177056 L30.22371342610736,284.46319026725945 L24.166555528836653,242.82040371294562 L62.8226907172848,259.4491152112257 L78.39843138067175,220.35682522218156 L103.56127071685334,254.0857794061186 L136.5964028086268,228.01873351519177 L141.52358381313783,269.81028434965344 L183.16637036745163,263.75312645238273 L166.53765886917154,302.4092616408309 Z" fill="#FFD700" stroke="#222" stroke-width="3"/>
        
      </g>
    </g>
  
    <g>
      <g>
        <animateTransform attributeName="transform" attributeType="XML"
          type="rotate"
          from="0 81.25005865552853 122.34949307951064"
          to="-360 81.25005865552853 122.34949307951064"
          dur="4.13s"
          repeatCount="indefinite"/>
        <path d="M219.18266177229506,108.76431742983354 L177.8028808372651,131.8591160342846 L213.8819891880127,162.58294934697912 L166.81405972260595,168.08440448636892 L188.38930749160392,210.27640226459192 L142.79889508508543,197.34696726476338 L146.58564637961183,244.58378031819268 L109.41347804275648,215.19184445224954 L94.83523430520563,260.28209619627717 L71.74043570075457,218.9023152612472 L41.01660238806004,254.9814236119948 L35.51514724867027,207.91349414658808 L-6.676850529552723,229.48874191558602 L6.252584470275778,183.89832950906754 L-40.98422858315348,187.68508080359396 L-11.59229271721037,150.51291246673858 L-56.68254446123797,135.93466872918776 L-15.302763526208025,112.83987012473666 L-51.38187187695564,82.11603681204218 L-4.313942411548879,76.61458167265235 L-25.889190180546848,34.422583894429394 L19.701222225971676,47.35201889425787 L15.914470931445209,0.11520584082862229 L53.08663926830059,29.507141706771733 L67.66488300585145,-15.583110037255892 L90.75968161030245,25.796670897774078 L121.48351492299699,-10.28243745297354 L126.98497006238682,36.785492012433224 L169.17696784060985,15.210244243435284 L156.24753284078125,60.8006566499537 L203.48434589421055,57.01390535542731 L174.0924100282674,94.1860736922826 Z" fill="#C9AE5D" stroke="#222" stroke-width="3"/>
        <line x1="158.86605865552855" y1="122.34949307951064" x2="100.65405865552853" y2="122.34949307951064" stroke="#333" stroke-width="2"/><line x1="152.9578924509246" y1="152.05185036595944" x2="99.17701710437754" y2="129.77508240112283" stroke="#333" stroke-width="2"/><line x1="136.13285858410362" y1="177.23229300808572" x2="94.9707586376723" y2="136.0701930616544" stroke="#333" stroke-width="2"/><line x1="110.95241594197735" y1="194.05732687490666" x2="88.67564797714074" y2="140.27645152835964" stroke="#333" stroke-width="2"/><line x1="81.25005865552853" y1="199.96549307951065" x2="81.25005865552853" y2="141.75349307951063" stroke="#333" stroke-width="2"/><line x1="51.547701369079725" y1="194.05732687490666" x2="73.82446933391633" y2="140.27645152835964" stroke="#333" stroke-width="2"/><line x1="26.36725872695346" y1="177.23229300808572" x2="67.52935867338476" y2="136.0701930616544" stroke="#333" stroke-width="2"/><line x1="9.542224860132492" y1="152.05185036595947" x2="63.32310020667953" y2="129.77508240112283" stroke="#333" stroke-width="2"/><line x1="3.63405865552852" y1="122.34949307951065" x2="61.84605865552853" y2="122.34949307951064" stroke="#333" stroke-width="2"/><line x1="9.542224860132478" y1="92.64713579306186" x2="63.32310020667952" y2="114.92390375789844" stroke="#333" stroke-width="2"/><line x1="26.367258726953438" y1="67.46669315093555" x2="67.52935867338476" y2="108.62879309736687" stroke="#333" stroke-width="2"/><line x1="51.547701369079746" y1="50.64165928411458" x2="73.82446933391634" y2="104.42253463066163" stroke="#333" stroke-width="2"/><line x1="81.25005865552852" y1="44.73349307951062" x2="81.25005865552853" y2="102.94549307951064" stroke="#333" stroke-width="2"/><line x1="110.95241594197736" y1="50.641659284114596" x2="88.67564797714074" y2="104.42253463066163" stroke="#333" stroke-width="2"/><line x1="136.1328585841036" y1="67.46669315093554" x2="94.9707586376723" y2="108.62879309736687" stroke="#333" stroke-width="2"/><line x1="152.9578924509246" y1="92.64713579306184" x2="99.17701710437754" y2="114.92390375789844" stroke="#333" stroke-width="2"/><circle cx="81.25005865552853" cy="122.34949307951064" r="27.720000000000006" fill="#222"/>
      </g>
    </g>
  
    <g>
      <g>
        <animateTransform attributeName="transform" attributeType="XML"
          type="rotate"
          from="0 490.24530440039325 143.17652120960324"
          to="360 490.24530440039325 143.17652120960324"
          dur="3.87s"
          repeatCount="indefinite"/>
        <path d="M652.6439726934234,121.79633092395879 L603.9243722055144,158.14265440955435 L641.5767718257421,205.86006743100495 L581.2111983981863,212.97710665974313 L589.9604264720217,273.12779834930757 L534.1237867553745,249.10854840734737 L511.6254946860377,305.5751895026334 L475.27917120044214,256.85558901472433 L427.56175817899157,294.507988634952 L420.44471895025333,234.14241520739625 L360.2940272606889,242.89164328123167 L384.31327720264915,187.05500356458444 L327.8466361073631,164.5567114952477 L376.56623659527213,128.21038800965215 L338.91383697504443,80.49297498820161 L399.2794104026002,73.37593575946333 L390.5301823287648,13.225244069898935 L446.3668220454121,37.24449401185909 L468.8651141147488,-19.222147083426904 L505.2114376003444,29.497453404482144 L552.928850621795,-8.154946215745525 L560.0458898505332,52.21062721181022 L620.1965815400976,43.46139913797475 L596.1773315981374,99.29803885462206 Z" fill="#C0C0C0" stroke="#222" stroke-width="3"/>
        
      </g>
    </g>
  
  <text x="50%" y="95%" text-anchor="middle" font-size="32" fill="#fff" opacity="0.7" font-family="Arial">Gears Collection #69</text>
</svg>