<svg width="512" height="512" viewBox="0 0 512 512" xmlns="http://www.w3.org/2000/svg">
  <rect width="100%" height="100%" fill="#f5e663" />
  
    <g>
      <g>
        <animateTransform attributeName="transform" attributeType="XML"
          type="rotate"
          from="0 354.41509562043586 273.733272513004"
          to="360 354.41509562043586 273.733272513004"
          dur="3.65s"
          repeatCount="indefinite"/>
        <path d="M415.6517727373344,264.0343356805097 L397.28076960226485,280.52252829575 L409.65750012011466,301.8806834968559 L385.103529923932,304.42170681650015 L382.56250660428776,328.9756770126828 L361.2043514031819,316.598946494833 L344.71615878794154,334.96994962990254 L334.7119079317395,312.40295566277916 L310.5744751868699,317.57389294656997 L315.7454124706607,293.43646020170036 L293.17841850353733,283.43220934549834 L311.5494216386069,266.944016730258 L299.172691120757,245.58586152915214 L323.72666131693967,243.04483820950784 L326.26768463658397,218.4908680133252 L347.62583983768985,230.86759853117502 L364.1140324529302,212.49659539610548 L374.1182833091322,235.06358936322886 L398.2557160540018,229.89265207943805 L393.084778770211,254.03008482430766 Z" fill="#C9AE5D" stroke="#222" stroke-width="3"/>
        
      </g>
    </g>
  
    <g>
      <g>
        <animateTransform attributeName="transform" attributeType="XML"
          type="rotate"
          from="0 162.9433131520129 360.5966205614487"
          to="-360 162.9433131520129 360.5966205614487"
          dur="4.3s"
          repeatCount="indefinite"/>
        <path d="M249.3253474271596,352.0887327808428 L223.41073714461558,366.55214200787276 L246.00573429356862,385.793330547136 L216.52884917381894,389.23868629099627 L230.04062050389848,415.6619576268531 L201.489049097796,407.5647357077686 L203.86054990850948,437.1473863068859 L180.58101014199403,418.7403153605377 L171.45120093261875,446.97865483659535 L156.98779170558882,421.06404455405135 L137.74660316632557,443.6590417030044 L134.3012474224653,414.1821565832547 L107.8779760866085,427.6939279133343 L115.97519800569302,399.14235650723174 L86.3925474065757,401.5138573179453 L104.79961835292391,378.2343175514298 L76.56127887686623,369.10450834205454 L102.47588915941023,354.6410991150246 L79.88089201045717,335.39991057576134 L109.35777713020687,331.9545548319011 L95.84600580012733,305.53128349604424 L124.39757720622984,313.62850541512876 L122.02607639551628,284.04585481601146 L145.30561616203175,302.45292576235965 L154.43542537140706,274.214586286302 L168.89883459843696,300.129196568846 L188.1400231377002,277.53419941989296 L191.58537888156053,307.01108453964264 L218.00865021741734,293.4993132095631 L209.91142829833277,322.05088461566555 L239.4940788974501,319.67938380495207 L221.0870079511019,342.9589235714675 Z" fill="#9DE09D" stroke="#222" stroke-width="3"/>
        <line x1="211.5513131520129" y1="360.5966205614487" x2="175.0953131520129" y2="360.5966205614487" stroke="#333" stroke-width="2"/><line x1="207.85124946832153" y1="379.19809684185094" x2="174.17029723109005" y2="365.24698963154924" stroke="#333" stroke-width="2"/><line x1="197.3143595719286" y1="394.96766698136435" x2="171.53607475699184" y2="369.1893821664276" stroke="#333" stroke-width="2"/><line x1="181.5447894324152" y1="405.5045568777573" x2="167.59368222211347" y2="371.82360464052584" stroke="#333" stroke-width="2"/><line x1="162.9433131520129" y1="409.2046205614487" x2="162.9433131520129" y2="372.74862056144866" stroke="#333" stroke-width="2"/><line x1="144.3418368716106" y1="405.5045568777573" x2="158.29294408191234" y2="371.82360464052584" stroke="#333" stroke-width="2"/><line x1="128.5722667320972" y1="394.96766698136435" x2="154.35055154703397" y2="369.1893821664276" stroke="#333" stroke-width="2"/><line x1="118.03537683570428" y1="379.19809684185094" x2="151.71632907293576" y2="365.24698963154924" stroke="#333" stroke-width="2"/><line x1="114.3353131520129" y1="360.5966205614487" x2="150.79131315201292" y2="360.5966205614487" stroke="#333" stroke-width="2"/><line x1="118.03537683570427" y1="341.9951442810464" x2="151.71632907293574" y2="355.9462514913481" stroke="#333" stroke-width="2"/><line x1="128.5722667320972" y1="326.225574141533" x2="154.35055154703397" y2="352.00385895646974" stroke="#333" stroke-width="2"/><line x1="144.34183687161064" y1="315.68868424514005" x2="158.29294408191234" y2="349.3696364823715" stroke="#333" stroke-width="2"/><line x1="162.9433131520129" y1="311.98862056144867" x2="162.9433131520129" y2="348.4446205614487" stroke="#333" stroke-width="2"/><line x1="181.5447894324152" y1="315.68868424514005" x2="167.59368222211347" y2="349.3696364823715" stroke="#333" stroke-width="2"/><line x1="197.3143595719286" y1="326.22557414153295" x2="171.53607475699184" y2="352.00385895646974" stroke="#333" stroke-width="2"/><line x1="207.85124946832153" y1="341.9951442810464" x2="174.17029723109007" y2="355.9462514913481" stroke="#333" stroke-width="2"/><circle cx="162.9433131520129" cy="360.5966205614487" r="17.36" fill="#222"/>
      </g>
    </g>
  
    <g>
      <g>
        <animateTransform attributeName="transform" attributeType="XML"
          type="rotate"
          from="0 81.03478307962328 213.7250326078716"
          to="360 81.03478307962328 213.7250326078716"
          dur="3.94s"
          repeatCount="indefinite"/>
        <path d="M190.49042037262382,191.9529526708717 L157.65372918472366,228.96548856377154 L173.82679181258732,275.7266706128592 L124.43592968311461,278.67943872094645 L102.8068630166232,323.18066990087215 L65.79432712372336,290.343978712972 L19.033145074635662,306.51704134083565 L16.080376966548428,257.1261792113629 L-28.42085421337724,235.49711254487153 L4.415836974522904,198.4845766519717 L-11.757225653340768,151.72339460288399 L37.6336364761319,148.77062649479683 L59.26270314262332,104.2693953148711 L96.27523903552323,137.10608650277123 L143.03642108461085,120.93302387490753 L145.98918919269812,170.32388600438028 Z" fill="#FFD700" stroke="#222" stroke-width="3"/>
        
      </g>
    </g>
  
    <g>
      <g>
        <animateTransform attributeName="transform" attributeType="XML"
          type="rotate"
          from="0 387.4102072052298 79.55919564262194"
          to="-360 387.4102072052298 79.55919564262194"
          dur="5.05s"
          repeatCount="indefinite"/>
        <path d="M522.6432862966176,61.75542302380691 L482.0733625692012,92.02183647579247 L513.4273754397693,131.75721581722019 L463.15958413623696,137.68373688437458 L470.44526612201935,187.77259125834644 L423.9488213274486,167.7712134067996 L405.2139798240449,214.79227473400968 L374.9475663720593,174.22235100659339 L335.2121870306316,205.57636387716144 L329.2856659634772,155.30857257362908 L279.19681158950533,162.5942545594114 L299.19818944105214,116.09780976484072 L252.1771281138421,97.36296826143698 L292.7470518412584,67.09655480945145 L261.39303897069027,27.361175468023774 L311.6608302742227,21.43465440086929 L304.3751482884403,-28.654199973102507 L350.8715930830111,-8.65282212155573 L369.60643458641476,-55.67388344876579 L399.8728480384004,-15.103959721349469 L439.6082273798281,-46.45797259191755 L445.53474844698246,3.8098187116148097 L495.62360282095426,-3.475863274167594 L475.6222249694075,43.02058152040319 Z" fill="#E5E4E2" stroke="#222" stroke-width="3"/>
        
      </g>
    </g>
  
  <text x="50%" y="95%" text-anchor="middle" font-size="32" fill="#fff" opacity="0.7" font-family="Arial">Gears Collection #44</text>
</svg>