<svg width="512" height="512" viewBox="0 0 512 512" xmlns="http://www.w3.org/2000/svg">
  <rect width="100%" height="100%" fill="#8ec6f3" />
  
    <g>
      <g>
        <animateTransform attributeName="transform" attributeType="XML"
          type="rotate"
          from="0 330.8791027781858 322.28061531951766"
          to="360 330.8791027781858 322.28061531951766"
          dur="4.69s"
          repeatCount="indefinite"/>
        <path d="M398.6694814720385,316.9453968100242 L378.3323678638827,326.01526827616306 L397.0002573652278,338.1549000617192 L374.8557685257231,340.49634670009596 L388.8586339542641,357.8105177202022 L367.0744267407473,353.1943424200344 L375.04157006463834,373.9882209803198 L355.75003445866497,362.8662871427724 L356.90157617901195,385.10442353028515 L341.9911020977269,368.56542353044705 L336.2143212876793,390.07099401337035 L327.14444982154043,369.73388040521456 L315.0048180359843,388.4017699065597 L312.66337139760753,366.2572810670549 L295.3492003775013,380.26014649559596 L299.9653756776691,358.47593928207914 L279.17149711738375,366.4430826059702 L290.29343095493107,347.1515469999968 L268.05529456741834,348.3030887203438 L284.59429456725644,333.39261463905876 L263.08872408433314,327.61583382901114 L283.4258376924889,318.5459623628723 L264.75794819114384,306.40633057731606 L286.90243703064857,304.06488393893943 L272.8995716021075,286.75071291883313 L294.68377881562435,291.36688821900094 L286.7166354917333,270.5730096587156 L306.0081710977067,281.69494349626285 L304.85662937735975,259.4568071087502 L319.7671034586447,275.9958071085883 L325.54388426869235,254.49023662566498 L334.6137557348312,274.82735023382077 L346.7533875203874,256.1594607324756 L349.0948341587641,278.3039495719804 L366.40900517887036,264.3010841434394 L361.79282987870255,286.0852913569562 L382.5867084389879,278.11814803306515 L371.4647746014406,297.4096836390385 L393.7029109889533,296.2581419186916 L377.1639109891152,311.1686159999765 Z" fill="#9DE09D" stroke="#222" stroke-width="3"/>
        <line x1="368.9591027781858" y1="322.28061531951766" x2="340.3991027781858" y2="322.28061531951766" stroke="#333" stroke-width="2"/><line x1="367.09533491870525" y1="334.04798246531567" x2="339.9331608133157" y2="325.2224571059672" stroke="#333" stroke-width="2"/><line x1="361.68646992398385" y1="344.663477726815" x2="338.58094456463533" y2="327.876330921342" stroke="#333" stroke-width="2"/><line x1="353.2619651854832" y1="353.0879824653157" x2="336.47481838001016" y2="329.98245710596717" stroke="#333" stroke-width="2"/><line x1="342.64646992398383" y1="358.4968474600371" x2="333.82094456463534" y2="331.3346733546475" stroke="#333" stroke-width="2"/><line x1="330.8791027781858" y1="360.36061531951765" x2="330.8791027781858" y2="331.80061531951765" stroke="#333" stroke-width="2"/><line x1="319.1117356323878" y1="358.4968474600371" x2="327.9372609917363" y2="331.3346733546475" stroke="#333" stroke-width="2"/><line x1="308.4962403708885" y1="353.0879824653157" x2="325.2833871763615" y2="329.98245710596717" stroke="#333" stroke-width="2"/><line x1="300.07173563238786" y1="344.663477726815" x2="323.1772609917363" y2="327.876330921342" stroke="#333" stroke-width="2"/><line x1="294.6628706376664" y1="334.04798246531567" x2="321.82504474305597" y2="325.2224571059672" stroke="#333" stroke-width="2"/><line x1="292.79910277818584" y1="322.28061531951766" x2="321.35910277818584" y2="322.28061531951766" stroke="#333" stroke-width="2"/><line x1="294.6628706376664" y1="310.51324817371966" x2="321.82504474305597" y2="319.33877353306815" stroke="#333" stroke-width="2"/><line x1="300.0717356323878" y1="299.8977529122203" x2="323.1772609917363" y2="316.6848997176933" stroke="#333" stroke-width="2"/><line x1="308.4962403708885" y1="291.4732481737197" x2="325.2833871763615" y2="314.57877353306816" stroke="#333" stroke-width="2"/><line x1="319.1117356323878" y1="286.06438317899824" x2="327.9372609917363" y2="313.2265572843878" stroke="#333" stroke-width="2"/><line x1="330.8791027781858" y1="284.2006153195177" x2="330.8791027781858" y2="312.7606153195177" stroke="#333" stroke-width="2"/><line x1="342.64646992398383" y1="286.06438317899824" x2="333.82094456463534" y2="313.2265572843878" stroke="#333" stroke-width="2"/><line x1="353.2619651854832" y1="291.47324817371964" x2="336.47481838001016" y2="314.57877353306816" stroke="#333" stroke-width="2"/><line x1="361.6864699239838" y1="299.89775291222026" x2="338.58094456463533" y2="316.6848997176933" stroke="#333" stroke-width="2"/><line x1="367.09533491870525" y1="310.51324817371966" x2="339.9331608133157" y2="319.33877353306815" stroke="#333" stroke-width="2"/><circle cx="330.8791027781858" cy="322.28061531951766" r="13.600000000000001" fill="#222"/>
      </g>
    </g>
  
    <g>
      <g>
        <animateTransform attributeName="transform" attributeType="XML"
          type="rotate"
          from="0 167.54865578106052 364.5189370840992"
          to="-360 167.54865578106052 364.5189370840992"
          dur="4.51s"
          repeatCount="indefinite"/>
        <path d="M260.91941447544804,345.9463384281638 L232.90818686713177,377.51975614325397 L246.7045628722628,417.4092232675653 L204.57185610948682,419.9280720479408 L186.12125443699594,457.8896957784867 L154.54783672190575,429.8784681701705 L114.65836959759439,443.6748441753015 L112.13952081721891,401.5421374125255 L74.17789708667298,383.0915357400346 L102.18912469498925,351.51811802494444 L88.39274868985822,311.6286509006331 L130.5254554526342,309.10980212025765 L148.97605712512507,271.1481783897117 L180.5494748402153,299.159405998028 L220.4389419645266,285.3630299928969 L222.95779074490213,327.4957367556729 Z" fill="#8EC6F3" stroke="#222" stroke-width="3"/>
        
      </g>
    </g>
  
    <g>
      <g>
        <animateTransform attributeName="transform" attributeType="XML"
          type="rotate"
          from="0 89.14364441563123 188.47995407952772"
          to="360 89.14364441563123 188.47995407952772"
          dur="4.69s"
          repeatCount="indefinite"/>
        <path d="M210.95425496030813,176.4826561031895 L174.41107179690505,196.87806266296445 L206.2731415092536,224.0107985754739 L164.7066583449983,228.8692264907792 L183.76012390723025,266.1296920611579 L143.4984610027724,254.711489723647 L146.84260500313334,296.42711683576636 L114.01523556279356,270.4706020450634 L101.14094239196945,310.29056462420465 L80.74553583219449,273.74738146080153 L53.61279991968503,305.6094511731501 L48.75437200437978,264.0429680088948 L11.493906434001033,283.09643357112674 L22.912108771511924,242.83477066666887 L-18.803518340607425,246.17891466702986 L7.152996450095586,213.35154522669006 L-32.66696612904566,200.47725205586596 L3.87621703435741,180.08184549609098 L-27.985852677991147,152.94910958358156 L13.58063048626417,148.09068166827623 L-5.472835075967794,110.83021609789753 L34.78882782849012,122.2484184354084 L31.44468382812908,80.53279132328906 L64.27205326846888,106.48930611399207 L77.14634643929303,66.66934353485081 L97.54175299906794,103.2125266982539 L124.67448891157738,71.35045698590534 L129.53291682688268,112.91694015016066 L166.79338239726144,93.86347458792872 L155.3751800597505,134.12513749238653 L197.09080717186987,130.78099349202557 L171.13429238116686,163.6083629323653 Z" fill="#C9AE5D" stroke="#222" stroke-width="3"/>
        <line x1="157.6876444156312" y1="188.47995407952772" x2="106.27964441563122" y2="188.47995407952772" stroke="#333" stroke-width="2"/><line x1="152.47004309208486" y1="214.71060726756042" x2="104.97524408474465" y2="195.0376173765359" stroke="#333" stroke-width="2"/><line x1="137.61157162528195" y1="236.94788128917844" x2="101.26062621804391" y2="200.5969358819404" stroke="#333" stroke-width="2"/><line x1="115.37429760366395" y1="251.80635275598135" x2="95.7013077126394" y2="204.31155374864113" stroke="#333" stroke-width="2"/><line x1="89.14364441563123" y1="257.0239540795277" x2="89.14364441563123" y2="205.6159540795277" stroke="#333" stroke-width="2"/><line x1="62.912991227598525" y1="251.80635275598135" x2="82.58598111862305" y2="204.31155374864113" stroke="#333" stroke-width="2"/><line x1="40.67571720598052" y1="236.94788128917844" x2="77.02666261321855" y2="200.5969358819404" stroke="#333" stroke-width="2"/><line x1="25.817245739177594" y1="214.71060726756045" x2="73.31204474651781" y2="195.0376173765359" stroke="#333" stroke-width="2"/><line x1="20.599644415631232" y1="188.47995407952772" x2="72.00764441563123" y2="188.47995407952772" stroke="#333" stroke-width="2"/><line x1="25.81724573917758" y1="162.24930089149504" x2="73.31204474651781" y2="181.92229078251955" stroke="#333" stroke-width="2"/><line x1="40.675717205980504" y1="140.012026869877" x2="77.02666261321855" y2="176.36297227711503" stroke="#333" stroke-width="2"/><line x1="62.91299122759854" y1="125.15355540307408" x2="82.58598111862305" y2="172.6483544104143" stroke="#333" stroke-width="2"/><line x1="89.14364441563121" y1="119.93595407952772" x2="89.14364441563123" y2="171.34395407952772" stroke="#333" stroke-width="2"/><line x1="115.37429760366396" y1="125.15355540307408" x2="95.7013077126394" y2="172.6483544104143" stroke="#333" stroke-width="2"/><line x1="137.61157162528193" y1="140.012026869877" x2="101.26062621804391" y2="176.36297227711503" stroke="#333" stroke-width="2"/><line x1="152.47004309208486" y1="162.249300891495" x2="104.97524408474465" y2="181.92229078251955" stroke="#333" stroke-width="2"/><circle cx="89.14364441563123" cy="188.47995407952772" r="24.480000000000004" fill="#222"/>
      </g>
    </g>
  
    <g>
      <g>
        <animateTransform attributeName="transform" attributeType="XML"
          type="rotate"
          from="0 433.813238567282 126.45289586326189"
          to="-360 433.813238567282 126.45289586326189"
          dur="4.89s"
          repeatCount="indefinite"/>
        <path d="M580.5387165156053,97.2673836896491 L536.5210731311083,146.88275438479084 L558.2010925677428,209.56620272299438 L491.99255336909476,213.52439366358442 L462.99875074089476,273.1783738115852 L413.3833800457531,229.1607304270882 L350.69993170754947,250.84074986372264 L346.7417407669594,184.63221066507464 L287.08776061895867,155.63840803687467 L331.10540400345565,106.02303734173297 L309.4253845668212,43.33958900352937 L375.63392376546915,39.38139806293938 L404.62772639366915,-20.2725820850614 L454.24309708881094,23.745061299435577 L516.9265454270144,2.065041862801067 L520.8847363676045,68.27358106144914 Z" fill="#9DE09D" stroke="#222" stroke-width="3"/>
        
      </g>
    </g>
  
  <text x="50%" y="95%" text-anchor="middle" font-size="32" fill="#fff" opacity="0.7" font-family="Arial">Gears Collection #90</text>
</svg>