<svg width="512" height="512" viewBox="0 0 512 512" xmlns="http://www.w3.org/2000/svg">
  <rect width="100%" height="100%" fill="#1e293b" />
  
    <g>
      <g>
        <animateTransform attributeName="transform" attributeType="XML"
          type="rotate"
          from="0 348.14680513785356 294.84541546806327"
          to="360 348.14680513785356 294.84541546806327"
          dur="4.44s"
          repeatCount="indefinite"/>
        <path d="M412.83381237154634,288.4743013466418 L393.4277102014385,299.30519535305825 L410.3479269604471,313.7139194896033 L388.27422266570375,316.29396699364617 L398.3924846064315,336.08097893870024 L377.01169956729944,330.0173910960678 L378.7875930315434,352.17029765070635 L361.3547579529316,338.38620074387876 L354.517919259275,359.53242270175605 L343.6870252528586,340.1263205316482 L329.2783011163135,357.04653729065683 L326.69825361227066,334.97283299591345 L306.9112416672166,345.0910949366412 L312.97482950984903,323.71030989750915 L290.8219229552105,325.48620336175316 L304.60601986203807,308.0533682831413 L283.4597979041608,301.2165295894847 L302.8659000742686,290.3856355830683 L285.94568331526,275.9769114465232 L308.0193876100034,273.39686394248037 L297.90112566927564,253.60985199742632 L319.28191070840774,259.67343984005873 L317.5060172441637,237.52053328542019 L334.9388523227755,251.30463019224777 L341.7756910164321,230.15840823437048 L352.60658502284855,249.5645104044783 L367.0153091593936,232.6442936454697 L369.59535666343646,254.7179979402131 L389.38236860849054,244.59973599948538 L383.3187807658581,265.9805210386174 L405.47168732049664,264.2046275743734 L391.68759041366906,281.63746265298516 Z" fill="#C9AE5D" stroke="#222" stroke-width="3"/>
        
      </g>
    </g>
  
    <g>
      <g>
        <animateTransform attributeName="transform" attributeType="XML"
          type="rotate"
          from="0 195.9945257853063 382.48850961359983"
          to="-360 195.9945257853063 382.48850961359983"
          dur="3.87s"
          repeatCount="indefinite"/>
        <path d="M286.7140031550209,375.34873190236596 L259.49815994410653,387.48635401146356 L284.48018854149484,403.7320377244872 L254.84565200627526,406.865444255256 L273.5847807415287,430.0358790027512 L244.43238579402828,423.85835029223256 L255.094298183353,451.68545248320265 L229.27768435771225,436.8016880829555 L230.81871813052948,466.5615470721269 L210.86499546292748,444.42847354293184 L203.1343034965402,473.20798698331447 L190.99668138744258,445.9921437724001 L174.75099767441895,470.9741723697884 L171.6175911436501,441.3396358345688 L148.44715639615498,460.0787645698222 L154.6246851066736,430.92636962232183 L126.7975829157035,441.5882820116466 L141.68134731595063,415.7716681860058 L111.92148832677921,417.312701958823 L134.05456185597433,397.35897929122103 L105.27504841559167,389.6282873248337 L132.49089162650606,377.4906652157361 L107.50886302911775,361.2449815027124 L137.14339956433733,358.11157497194364 L118.40427082908391,334.94114022444853 L147.55666577658434,341.11866893496716 L136.89475338725956,313.29156674399707 L162.71136721290037,328.1753311442441 L161.17033344008317,298.41547215507273 L181.12405610768516,320.5485456842678 L188.85474807407235,291.7690322438852 L200.99237018316998,318.9848754547996 L217.23805389619363,294.0028468574112 L220.37146042696253,323.63738339263085 L243.54189517445766,304.89825465737744 L237.364366463939,334.0506496048779 L265.1914686549091,323.3887372155531 L250.30770425466199,349.2053510411939 L280.06756324383343,347.6643172683767 L257.9344897146383,367.61803993597863 Z" fill="#B87333" stroke="#222" stroke-width="3"/>
        <line x1="246.95452578530632" y1="382.48850961359983" x2="208.73452578530632" y2="382.48850961359983" stroke="#333" stroke-width="2"/><line x1="244.46036585570732" y1="398.2360156469471" x2="208.11098580290655" y2="386.42538612193664" stroke="#333" stroke-width="2"/><line x1="237.22203181865365" y1="412.4420460704243" x2="206.30140229364315" y2="389.97689372780593" stroke="#333" stroke-width="2"/><line x1="225.94806224213073" y1="423.71601564694714" x2="203.4829098995124" y2="392.79538612193664" stroke="#333" stroke-width="2"/><line x1="211.74203181865363" y1="430.9543496840009" x2="199.93140229364315" y2="394.6049696312001" stroke="#333" stroke-width="2"/><line x1="195.9945257853063" y1="433.4485096135998" x2="195.9945257853063" y2="395.22850961359984" stroke="#333" stroke-width="2"/><line x1="180.247019751959" y1="430.9543496840009" x2="192.05764927696947" y2="394.6049696312001" stroke="#333" stroke-width="2"/><line x1="166.04098932848188" y1="423.71601564694714" x2="188.5061416711002" y2="392.79538612193664" stroke="#333" stroke-width="2"/><line x1="154.767019751959" y1="412.4420460704243" x2="185.68764927696947" y2="389.97689372780593" stroke="#333" stroke-width="2"/><line x1="147.5286857149053" y1="398.2360156469472" x2="183.87806576770606" y2="386.42538612193664" stroke="#333" stroke-width="2"/><line x1="145.0345257853063" y1="382.48850961359983" x2="183.2545257853063" y2="382.48850961359983" stroke="#333" stroke-width="2"/><line x1="147.5286857149053" y1="366.7410035802525" x2="183.87806576770606" y2="378.551633105263" stroke="#333" stroke-width="2"/><line x1="154.76701975195897" y1="352.5349731567754" x2="185.68764927696947" y2="375.00012549939373" stroke="#333" stroke-width="2"/><line x1="166.04098932848188" y1="341.2610035802525" x2="188.5061416711002" y2="372.181633105263" stroke="#333" stroke-width="2"/><line x1="180.247019751959" y1="334.0226695431988" x2="192.05764927696947" y2="370.37204959599956" stroke="#333" stroke-width="2"/><line x1="195.9945257853063" y1="331.52850961359985" x2="195.9945257853063" y2="369.7485096135998" stroke="#333" stroke-width="2"/><line x1="211.74203181865363" y1="334.0226695431988" x2="199.93140229364315" y2="370.37204959599956" stroke="#333" stroke-width="2"/><line x1="225.94806224213073" y1="341.2610035802525" x2="203.4829098995124" y2="372.181633105263" stroke="#333" stroke-width="2"/><line x1="237.22203181865362" y1="352.5349731567754" x2="206.30140229364315" y2="375.00012549939373" stroke="#333" stroke-width="2"/><line x1="244.46036585570732" y1="366.7410035802525" x2="208.11098580290655" y2="378.551633105263" stroke="#333" stroke-width="2"/><circle cx="195.9945257853063" cy="382.48850961359983" r="18.2" fill="#222"/>
      </g>
    </g>
  
    <g>
      <g>
        <animateTransform attributeName="transform" attributeType="XML"
          type="rotate"
          from="0 77.5830032098792 279.8196401398935"
          to="360 77.5830032098792 279.8196401398935"
          dur="4.24s"
          repeatCount="indefinite"/>
        <path d="M194.01961623052625,268.3516347213349 L159.0886323243321,287.8472439328845 L189.54502249054764,313.7829473786656 L149.81235476000947,318.4270328859427 L168.02522625331943,354.0436543870401 L129.53981318288177,343.1291962703017 L132.7364214185209,383.00442806865107 L101.35731827701966,358.1930536363614 L89.05100862843778,396.25625316054055 L69.55539941688819,361.32526925434644 L43.6196959711071,391.78165942056194 L38.975610463830016,352.0489916900238 L3.358988962732681,370.26186318333373 L14.27344707947104,331.7764501128961 L-25.601784718878335,334.9730583485353 L-0.7904102865886955,303.593955207034 L-38.853609810767836,291.28764555845214 L-3.922625904573721,271.79203634690253 L-34.37901607078925,245.85633290112145 L5.35365165974892,241.21224739384434 L-12.859219833561042,205.59562589274702 L25.62619323687666,216.51008400948535 L22.42958500123744,176.63485221113598 L53.808688142738724,201.44622664342563 L66.11499779132062,163.3830271192465 L85.61060700287017,198.3140110254406 L111.54631044865125,167.85762085922508 L116.1903959559284,207.59028858976325 L151.80701745702572,189.3774170964533 L140.8925593402873,227.86283016689092 L180.7677911386367,224.66622193125175 L155.95641670634706,256.045325072753 Z" fill="#C0C0C0" stroke="#222" stroke-width="3"/>
        
      </g>
    </g>
  
    <g>
      <g>
        <animateTransform attributeName="transform" attributeType="XML"
          type="rotate"
          from="0 105.8810002989562 95.17622710321083"
          to="-360 105.8810002989562 95.17622710321083"
          dur="3.92s"
          repeatCount="indefinite"/>
        <path d="M247.12043300406089,72.80609860245782 L204.7486031925295,110.83531705373794 L233.2949332578928,160.09686856596602 L176.66238909572962,165.95761589998423 L170.80164176171138,222.59016006214745 L121.54009024948331,194.04382999678413 L83.51087179820315,236.41565980831552 L60.43655127502757,184.36598017446647 L4.764730589279907,196.29249681288712 L16.691247227700586,140.62067612713946 L-35.358432406148495,117.54635560396386 L7.013397405382904,79.51713715268374 L-21.532932659980446,30.25558564045572 L35.09961150218278,24.394838306437435 L40.96035883620098,-32.237705855725764 L90.22191034842908,-3.691375790362443 L128.2511287997092,-46.063205601893856 L151.32544932288482,5.986474031955197 L206.99727000863248,-5.940042606465482 L195.0707533702118,49.731778079282186 Z" fill="#F5F5F5" stroke="#222" stroke-width="3"/>
        
      </g>
    </g>
  
    <g>
      <g>
        <animateTransform attributeName="transform" attributeType="XML"
          type="rotate"
          from="0 473.3832195611368 113.36572693340986"
          to="360 473.3832195611368 113.36572693340986"
          dur="4.73s"
          repeatCount="indefinite"/>
        <path d="M641.569438368738,96.80083021771412 L591.1135727264577,124.96115463439688 L635.1061362998801,162.423837389414 L577.7145051335472,169.1319608999254 L604.0219861794394,220.57819195706594 L548.4319450776961,204.81286356622164 L553.0492680847303,262.41042060828187 L507.7238968803397,226.57176865053017 L489.94811627683254,281.55194574101114 L461.7877918601498,231.09608009873074 L424.32510910513264,275.0886436721531 L417.6169855946213,217.69701250582028 L366.1707545374807,244.00449355171244 L381.936082928325,188.41445244996913 L324.33852588626485,193.0317754570035 L360.1771778440165,147.70640425261274 L305.1970007535356,129.93062364910566 L355.6528663958159,101.77029923242284 L311.6603028223935,64.30761647740576 L369.05193398872643,57.59949296689434 L342.7444529428342,6.153261909753809 L398.3344940445776,21.918590300598055 L393.71717103754315,-35.67896674146212 L439.0425422419339,0.15968521628956012 L456.81832284544106,-54.82049187419142 L484.97864726212373,-4.364626231911032 L522.4413300171409,-48.35718980533346 L529.1494535276523,9.034441360999466 L580.5956845847929,-17.273039684892666 L564.8303561939485,38.317001416850545 L622.4279132360087,33.699678409816215 L586.589261278257,79.02504961420685 Z" fill="#C0C0C0" stroke="#222" stroke-width="3"/>
        
      </g>
    </g>
  
  <text x="50%" y="95%" text-anchor="middle" font-size="32" fill="#fff" opacity="0.7" font-family="Arial">Gears Collection #98</text>
</svg>