<svg width="512" height="512" viewBox="0 0 512 512" xmlns="http://www.w3.org/2000/svg">
  <rect width="100%" height="100%" fill="#1e293b" />
  
    <g>
      <g>
        <animateTransform attributeName="transform" attributeType="XML"
          type="rotate"
          from="0 346.7108682063331 298.08964705546094"
          to="360 346.7108682063331 298.08964705546094"
          dur="5.19s"
          repeatCount="indefinite"/>
        <path d="M412.4234819933495,285.0185954803803 L392.7096978572446,307.23938315801735 L402.41933223060363,335.3128526677743 L372.7671121349524,337.0855718724503 L359.7819197814137,363.8022608424774 L337.5611321037767,344.08847670637243 L309.48766259401975,353.7981110797315 L307.7149433893437,324.14589098408027 L280.99825441931665,311.1606986305415 L300.7120385554216,288.93991095290454 L291.00240418206255,260.8664414431476 L320.6546242777137,259.09372223847157 L333.6398166312525,232.3770332684445 L355.8606043088895,252.09081740454945 L383.9340738186464,242.3811830311904 L385.70679302332246,272.0334031268416 Z" fill="#F5F5F5" stroke="#222" stroke-width="3"/>
        
      </g>
    </g>
  
    <g>
      <g>
        <animateTransform attributeName="transform" attributeType="XML"
          type="rotate"
          from="0 170.32800136477573 366.726278045666"
          to="-360 170.32800136477573 366.726278045666"
          dur="4.57s"
          repeatCount="indefinite"/>
        <path d="M263.6763287266278,357.5322702827532 L235.67183051807217,373.16208347970496 L260.0890048564569,393.95498077213455 L228.2349515818887,397.678187785661 L242.83638189020047,426.2323681002159 L211.9822644029607,417.4821444134633 L214.5450152790543,449.4504926415417 L189.38809327330372,429.55898048984284 L179.5220091276885,460.07460540751805 L163.8921959307368,432.07010719896243 L143.09929863830715,456.48728153734714 L139.37609162478074,424.63322826277897 L110.8219113102258,439.23465857109073 L119.57213499697842,408.38054108385097 L87.60378676890004,410.9432919599446 L107.4952989205989,385.786369954194 L76.97967400292367,375.9202858085788 L104.98417221147929,360.290472611627 L80.56699787309454,339.49757531919744 L112.42105114766274,335.774368305671 L97.81962083935099,307.22018799111606 L128.6737383265908,315.9704116778687 L126.11098745049713,284.0020634497903 L151.26790945624774,303.89357560148915 L161.13399360186295,273.37795068381394 L176.76380679881464,301.38244889236955 L197.55670409124428,276.9652745539848 L201.27991110477072,308.819327828553 L229.8340914193257,294.2178975202413 L221.08386773257303,325.072015007481 L253.0522159606514,322.5092641313874 L233.16070380895255,347.6661861371379 Z" fill="#E5E4E2" stroke="#222" stroke-width="3"/>
        
      </g>
    </g>
  
    <g>
      <g>
        <animateTransform attributeName="transform" attributeType="XML"
          type="rotate"
          from="0 129.92356150558467 127.52925758537896"
          to="360 129.92356150558467 127.52925758537896"
          dur="5.43s"
          repeatCount="indefinite"/>
        <path d="M250.15179195379991,118.06709064060085 L214.08332281933534,134.15277444672364 L247.19137390554448,155.68276846640114 L207.9174716401875,159.83539294563985 L232.7519653266882,190.54258449012238 L194.1170331215393,182.35566182541305 L208.2469961342048,219.2342170367427 L174.03289033890508,199.5091402601514 L176.0751834488145,238.94912920624014 L149.63101912230022,209.61672626535082 L139.3857284503628,247.7574880335942 L123.30004464424,211.68901889912962 L101.77005062456251,244.79706998533877 L97.6174261453238,205.52316771998179 L66.91023460084125,230.3576614064825 L75.09715726555058,191.72272920133358 L38.21860205422095,205.85269221399912 L57.9436788308122,171.63858641869936 L18.503689884723485,173.68087952860878 L47.83609282561281,147.2367152020945 L9.69533105736943,136.99142453015708 L45.76380019183401,120.9057407240343 L12.655749105624878,99.37574670435673 L51.92965137098183,95.22312222511812 L27.095157684481137,64.51593068063553 L65.73008988963005,72.70285334534486 L51.60012687696447,35.824298134015265 L85.8142326722643,55.549374910606474 L83.77193956235487,16.109385964517756 L110.21610388886916,45.441788905407094 L120.4613945608065,7.3010271371637145 L136.5470783669293,43.36949627162828 L158.0770723866068,10.261445185419134 L162.22969686584557,49.53534745077614 L192.93688841032812,24.70085376427545 L184.7499657456188,63.33578596942435 L221.62852095694836,49.20582295675875 L201.90344418035716,83.41992875205857 L241.34343312644586,81.37763564214916 L212.01103018555654,107.82179996866337 Z" fill="#C0C0C0" stroke="#222" stroke-width="3"/>
        <line x1="197.45956150558467" y1="127.52925758537896" x2="146.80756150558466" y2="127.52925758537896" stroke="#333" stroke-width="2"/><line x1="194.15411439009415" y1="148.3990293174854" x2="145.98119972671205" y2="132.74670051840556" stroke="#333" stroke-width="2"/><line x1="184.56133323769112" y1="167.22592238420341" x2="143.58300443861128" y2="137.45342378508508" stroke="#333" stroke-width="2"/><line x1="169.62022630440913" y1="182.1670293174854" x2="139.8477277052908" y2="141.18870051840557" stroke="#333" stroke-width="2"/><line x1="150.79333323769112" y1="191.75981046988846" x2="135.14100443861128" y2="143.58689580650633" stroke="#333" stroke-width="2"/><line x1="129.92356150558467" y1="195.06525758537896" x2="129.92356150558467" y2="144.41325758537897" stroke="#333" stroke-width="2"/><line x1="109.05378977347823" y1="191.75981046988846" x2="124.70611857255807" y2="143.58689580650633" stroke="#333" stroke-width="2"/><line x1="90.22689670676021" y1="182.1670293174854" x2="119.99939530587855" y2="141.18870051840557" stroke="#333" stroke-width="2"/><line x1="75.28578977347823" y1="167.22592238420344" x2="116.26411857255806" y2="137.45342378508508" stroke="#333" stroke-width="2"/><line x1="65.69300862107518" y1="148.3990293174854" x2="113.8659232844573" y2="132.74670051840556" stroke="#333" stroke-width="2"/><line x1="62.38756150558467" y1="127.52925758537897" x2="113.03956150558467" y2="127.52925758537896" stroke="#333" stroke-width="2"/><line x1="65.69300862107518" y1="106.65948585327249" x2="113.8659232844573" y2="122.31181465235234" stroke="#333" stroke-width="2"/><line x1="75.28578977347823" y1="87.8325927865545" x2="116.26411857255806" y2="117.60509138567284" stroke="#333" stroke-width="2"/><line x1="90.2268967067602" y1="72.89148585327251" x2="119.99939530587855" y2="113.86981465235235" stroke="#333" stroke-width="2"/><line x1="109.05378977347821" y1="63.298704700869465" x2="124.70611857255805" y2="111.47161936425158" stroke="#333" stroke-width="2"/><line x1="129.92356150558467" y1="59.993257585378956" x2="129.92356150558467" y2="110.64525758537896" stroke="#333" stroke-width="2"/><line x1="150.79333323769112" y1="63.298704700869465" x2="135.14100443861128" y2="111.47161936425158" stroke="#333" stroke-width="2"/><line x1="169.62022630440913" y1="72.8914858532725" x2="139.8477277052908" y2="113.86981465235235" stroke="#333" stroke-width="2"/><line x1="184.56133323769112" y1="87.83259278655447" x2="143.58300443861128" y2="117.60509138567284" stroke="#333" stroke-width="2"/><line x1="194.15411439009415" y1="106.65948585327249" x2="145.98119972671205" y2="122.31181465235234" stroke="#333" stroke-width="2"/><circle cx="129.92356150558467" cy="127.52925758537896" r="24.120000000000005" fill="#222"/>
      </g>
    </g>
  
    <g>
      <g>
        <animateTransform attributeName="transform" attributeType="XML"
          type="rotate"
          from="0 360.9051767119932 62.62238004612456"
          to="-360 360.9051767119932 62.62238004612456"
          dur="4.67s"
          repeatCount="indefinite"/>
        <path d="M507.59540542347503,48.17465356154733 L463.58833681003046,72.73578858532862 L501.9581821989208,105.41034147343231 L451.9018127674565,111.26109535183099 L474.8469175376606,156.1319501318459 L426.36187577199814,142.38159862409174 L430.3890557201452,192.6175744110721 L390.8567497111086,161.35948388697386 L375.3529031965704,209.3126087576064 L350.79176817278915,165.30554014416185 L318.1172152846854,203.67538553305215 L312.2664614062868,153.61901610158785 L267.39560662627184,176.564120871792 L281.145958134026,128.07907910612948 L230.90998234704566,132.10625905427665 L262.16807287114386,92.57395304523999 L214.21494800051138,77.07010653070182 L258.22201661395593,52.5089715069205 L219.8521712250656,19.834418618816848 L269.9085406565299,13.983664740418128 L246.96343588632573,-30.88719003959676 L295.4484776519883,-17.136838531842656 L291.4212977038411,-67.37281431882298 L330.95360371287774,-36.11472379472474 L346.45745022741596,-84.06784866535727 L371.0185852511972,-40.060780051912715 L403.6931381393009,-78.43062544080303 L409.5438920176996,-28.37425600933871 L454.41474679771454,-51.31936077954286 L440.66439528996034,-2.8343190138804175 L490.9003710769407,-6.8614989620275395 L459.64228055284246,32.670807047009035 Z" fill="#F5F5F5" stroke="#222" stroke-width="3"/>
        
      </g>
    </g>
  
  <text x="50%" y="95%" text-anchor="middle" font-size="32" fill="#fff" opacity="0.7" font-family="Arial">Gears Collection #62</text>
</svg>