<svg width="512" height="512" viewBox="0 0 512 512" xmlns="http://www.w3.org/2000/svg">
  <rect width="100%" height="100%" fill="#8ec6f3" />
  
    <g>
      <g>
        <animateTransform attributeName="transform" attributeType="XML"
          type="rotate"
          from="0 311.04614427829125 339.4860587169711"
          to="360 311.04614427829125 339.4860587169711"
          dur="4.36s"
          repeatCount="indefinite"/>
        <path d="M379.7138904186728,332.72287603423143 L359.11356657655836,344.2202865948889 L377.07502744381367,359.515701447529 L353.6429413463168,362.2545211056668 L364.3838655603201,383.25919532426263 L341.68733990339535,376.8224636143913 L343.57251911928506,400.3386259570076 L325.06689418968176,385.7062769328368 L317.80932696103093,408.1538048573527 L306.3119164003735,387.5534810152382 L291.01650154773336,405.51494188249353 L288.27768188959556,382.0828557849967 L267.27300767099973,392.82377999899995 L273.70973938087104,370.12725434207516 L250.19357703825477,372.012433557965 L264.82592606242554,353.5068086283616 L242.37839813790967,346.2492413997108 L262.97872198002415,334.75183083905335 L245.01726111276884,319.4564159864132 L268.4493472102657,316.7175963282754 L257.7084229962624,295.7129221096796 L280.4049486531872,302.1496538195509 L278.5197694372974,278.63349147693464 L297.02539436690074,293.26584050110546 L304.28296159555157,270.8183125765895 L315.780372156209,291.418636418704 L331.07578700884915,273.4571755514487 L333.81460666698695,296.8892616489456 L354.81928088558277,286.1483374349423 L348.3825491757114,308.844863091867 L371.89871151832773,306.95968387597725 L357.2663624941569,325.46530880558055 Z" fill="#E5E4E2" stroke="#222" stroke-width="3"/>
        <line x1="349.68614427829124" y1="339.4860587169711" x2="320.7061442782913" y2="339.4860587169711" stroke="#333" stroke-width="2"/><line x1="346.7448494145274" y1="354.2729465435582" x2="319.9708205623503" y2="343.18278067361786" stroke="#333" stroke-width="2"/><line x1="338.3687503033394" y1="366.8086647420193" x2="317.8767957845533" y2="346.31671022323314" stroke="#333" stroke-width="2"/><line x1="325.8330321048783" y1="375.18476385320724" x2="314.742866234938" y2="348.41073500103016" stroke="#333" stroke-width="2"/><line x1="311.04614427829125" y1="378.1260587169711" x2="311.04614427829125" y2="349.14605871697114" stroke="#333" stroke-width="2"/><line x1="296.2592564517042" y1="375.18476385320724" x2="307.3494223216445" y2="348.41073500103016" stroke="#333" stroke-width="2"/><line x1="283.7235382532431" y1="366.8086647420193" x2="304.2154927720292" y2="346.31671022323314" stroke="#333" stroke-width="2"/><line x1="275.3474391420551" y1="354.2729465435582" x2="302.1214679942322" y2="343.18278067361786" stroke="#333" stroke-width="2"/><line x1="272.40614427829126" y1="339.4860587169711" x2="301.3861442782912" y2="339.4860587169711" stroke="#333" stroke-width="2"/><line x1="275.3474391420551" y1="324.69917089038404" x2="302.1214679942322" y2="335.7893367603244" stroke="#333" stroke-width="2"/><line x1="283.7235382532431" y1="312.16345269192294" x2="304.2154927720292" y2="332.6554072107091" stroke="#333" stroke-width="2"/><line x1="296.2592564517042" y1="303.787353580735" x2="307.3494223216445" y2="330.56138243291207" stroke="#333" stroke-width="2"/><line x1="311.04614427829125" y1="300.84605871697113" x2="311.04614427829125" y2="329.8260587169711" stroke="#333" stroke-width="2"/><line x1="325.8330321048783" y1="303.787353580735" x2="314.74286623493805" y2="330.56138243291207" stroke="#333" stroke-width="2"/><line x1="338.3687503033394" y1="312.1634526919229" x2="317.8767957845533" y2="332.6554072107091" stroke="#333" stroke-width="2"/><line x1="346.7448494145274" y1="324.69917089038404" x2="319.9708205623503" y2="335.7893367603244" stroke="#333" stroke-width="2"/><circle cx="311.04614427829125" cy="339.4860587169711" r="13.8" fill="#222"/>
      </g>
    </g>
  
    <g>
      <g>
        <animateTransform attributeName="transform" attributeType="XML"
          type="rotate"
          from="0 138.50626665413245 332.12635959015887"
          to="-360 138.50626665413245 332.12635959015887"
          dur="5.13s"
          repeatCount="indefinite"/>
        <path d="M234.27984026284253,319.5175294217019 L205.5477681802295,340.95254070807874 L227.75302949472274,369.09357915662656 L192.15281952462576,373.29080741972854 L197.31262069637486,408.7642922622922 L164.38332035065983,394.5990935785721 L151.11509682258944,427.89993319886895 L129.68008553621257,399.16786111625595 L101.53904708766478,421.37312243074916 L97.34181882456276,385.7729124606522 L61.86833398199913,390.93271363240126 L76.03353266571924,358.0034132866862 L42.732693045422366,344.73518975861583 L71.4647651280354,323.300178472239 L49.259503813542125,295.15914002369124 L84.85971378363914,290.9619117605892 L79.69991261189001,255.4884269180256 L112.62921295760509,269.65362560174566 L125.89743648567546,236.3527859814488 L147.33244777205238,265.0848580640618 L175.47348622060014,242.87959674956858 L179.6707144837021,278.47980671966553 L215.14419932626572,273.3200055479164 L200.97900064254566,306.2493058936315 Z" fill="#B87333" stroke="#222" stroke-width="3"/>
        
      </g>
    </g>
  
    <g>
      <g>
        <animateTransform attributeName="transform" attributeType="XML"
          type="rotate"
          from="0 76.31114763681924 245.42094822760455"
          to="360 76.31114763681924 245.42094822760455"
          dur="3.99s"
          repeatCount="indefinite"/>
        <path d="M199.4485994194465,229.20959515387415 L162.50736388465833,256.76889537921585 L191.05698557472107,292.9502305273487 L145.28528704173922,298.34666686562275 L151.91931711970236,343.95543309177594 L109.58164524664015,325.74303478413583 L92.52250071054966,368.5584000102318 L64.96320048520798,331.61716447544364 L28.781865337075097,360.1667861655064 L23.385428998801068,314.39508763252456 L-22.223337227352175,321.02911771048764 L-4.010938919712018,278.6914458374255 L-46.82630414580801,261.63230130133496 L-9.885068611019832,234.0730010759933 L-38.4346903010826,197.89166592786046 L7.3370082318992615,192.4952295895864 L0.7029781539361011,146.88646336343317 L43.040650026998364,165.09886167107328 L60.099794563088835,122.2834964449773 L87.65909478843058,159.22473197976547 L123.84042993656342,130.67511028970276 L129.2368662748374,176.44680882268457 L174.84563250099063,169.8127787447214 L156.63323419335052,212.15045061778366 Z" fill="#FFD700" stroke="#222" stroke-width="3"/>
        <line x1="145.86314763681924" y1="245.42094822760455" x2="93.69914763681925" y2="245.42094822760455" stroke="#333" stroke-width="2"/><line x1="136.54494652083451" y1="280.19694822760454" x2="91.36959735782307" y2="254.11494822760454" stroke="#333" stroke-width="2"/><line x1="111.08714763681925" y1="305.6547471116198" x2="85.00514763681925" y2="260.4793979486084" stroke="#333" stroke-width="2"/><line x1="76.31114763681924" y1="314.97294822760455" x2="76.31114763681924" y2="262.80894822760456" stroke="#333" stroke-width="2"/><line x1="41.535147636819254" y1="305.6547471116198" x2="67.61714763681924" y2="260.4793979486084" stroke="#333" stroke-width="2"/><line x1="16.077348752803957" y1="280.19694822760454" x2="61.25269791581542" y2="254.11494822760454" stroke="#333" stroke-width="2"/><line x1="6.759147636819236" y1="245.42094822760455" x2="58.92314763681924" y2="245.42094822760455" stroke="#333" stroke-width="2"/><line x1="16.077348752803964" y1="210.64494822760454" x2="61.252697915815425" y2="236.72694822760457" stroke="#333" stroke-width="2"/><line x1="41.53514763681921" y1="185.18714934358928" x2="67.61714763681924" y2="230.36249850660073" stroke="#333" stroke-width="2"/><line x1="76.31114763681923" y1="175.86894822760456" x2="76.31114763681924" y2="228.03294822760455" stroke="#333" stroke-width="2"/><line x1="111.08714763681925" y1="185.18714934358928" x2="85.00514763681925" y2="230.36249850660073" stroke="#333" stroke-width="2"/><line x1="136.54494652083451" y1="210.64494822760452" x2="91.36959735782305" y2="236.72694822760454" stroke="#333" stroke-width="2"/><circle cx="76.31114763681924" cy="245.42094822760455" r="24.840000000000003" fill="#222"/>
      </g>
    </g>
  
    <g>
      <g>
        <animateTransform attributeName="transform" attributeType="XML"
          type="rotate"
          from="0 418.8438156927948 108.07470909066606"
          to="-360 418.8438156927948 108.07470909066606"
          dur="4.11s"
          repeatCount="indefinite"/>
        <path d="M569.3451456493392,88.26083311166224 L524.1947466623759,121.94442227596875 L559.0887287280082,166.1660541236867 L503.14554163214143,172.7616985371327 L511.2538006163186,228.50574614687557 L459.50775721590924,206.2461482153154 L438.65769167179866,258.5760390472105 L404.97410250749215,213.4256400602472 L360.7524706597742,248.3196221258794 L354.15682624632814,192.37643503001271 L298.4127786365853,200.4846940141898 L320.67237656814547,148.73865061378052 L268.3424857362504,127.88858506966989 L313.4928847232137,94.2049959053634 L278.59890265758145,49.98336405764551 L334.5420897534482,43.38771964419941 L326.43383076927097,-12.356327965543414 L378.1798741696804,9.903269966016722 L399.02993971379095,-42.42662086587836 L432.7135288780975,2.723778121084962 L476.9351607258155,-32.17020394454727 L483.5308051392615,23.77298315131941 L539.2748527490043,15.664724167142225 L517.0152548174442,67.41076756755164 Z" fill="#C9AE5D" stroke="#222" stroke-width="3"/>
        <line x1="503.85181569279484" y1="108.07470909066606" x2="440.0958156927948" y2="108.07470909066606" stroke="#333" stroke-width="2"/><line x1="492.4629032177024" y1="150.57870909066605" x2="437.2485875740217" y2="118.70070909066607" stroke="#333" stroke-width="2"/><line x1="461.3478156927948" y1="181.69379661557363" x2="429.4698156927948" y2="126.47948097189295" stroke="#333" stroke-width="2"/><line x1="418.8438156927948" y1="193.08270909066607" x2="418.8438156927948" y2="129.32670909066607" stroke="#333" stroke-width="2"/><line x1="376.33981569279484" y1="181.69379661557363" x2="408.21781569279483" y2="126.47948097189295" stroke="#333" stroke-width="2"/><line x1="345.22472816788724" y1="150.57870909066605" x2="400.4390438115679" y2="118.70070909066607" stroke="#333" stroke-width="2"/><line x1="333.83581569279477" y1="108.07470909066608" x2="397.5918156927948" y2="108.07470909066606" stroke="#333" stroke-width="2"/><line x1="345.22472816788724" y1="65.57070909066604" x2="400.4390438115679" y2="97.44870909066606" stroke="#333" stroke-width="2"/><line x1="376.3398156927948" y1="34.455621565758506" x2="408.2178156927948" y2="89.66993720943917" stroke="#333" stroke-width="2"/><line x1="418.8438156927948" y1="23.066709090666052" x2="418.8438156927948" y2="86.82270909066605" stroke="#333" stroke-width="2"/><line x1="461.3478156927948" y1="34.45562156575849" x2="429.4698156927948" y2="89.66993720943917" stroke="#333" stroke-width="2"/><line x1="492.4629032177023" y1="65.57070909066601" x2="437.2485875740217" y2="97.44870909066606" stroke="#333" stroke-width="2"/><circle cx="418.8438156927948" cy="108.07470909066606" r="30.360000000000003" fill="#222"/>
      </g>
    </g>
  
  <text x="50%" y="95%" text-anchor="middle" font-size="32" fill="#fff" opacity="0.7" font-family="Arial">Gears Collection #72</text>
</svg>