<svg width="512" height="512" viewBox="0 0 512 512" xmlns="http://www.w3.org/2000/svg">
  <rect width="100%" height="100%" fill="#1e293b" />
  
    <g>
      <g>
        <animateTransform attributeName="transform" attributeType="XML"
          type="rotate"
          from="0 355.99477832581715 257.02191368064535"
          to="360 355.99477832581715 257.02191368064535"
          dur="5.33s"
          repeatCount="indefinite"/>
        <path d="M417.6962313794934,250.9448509802126 L399.1857954633905,261.2758575709483 L415.3250791412141,275.01956367042203 L394.2701611985358,277.48053205889363 L403.92142643430685,296.3542972987914 L383.5274468585194,290.5705673565881 L385.221376009029,311.70103207024334 L368.5931333186608,298.55312425142324 L362.0718410262499,318.7233667343216 L351.7408344355142,300.2129308182187 L337.9971283360405,316.3522144960423 L335.5361599475689,295.297296553364 L316.6623947076711,304.94856178913506 L322.4461246498744,284.55458221334754 L301.31565993621916,286.24851136385723 L314.4635677550393,269.620268673489 L294.2933252721409,263.0989763810781 L312.8037611882438,252.76796979034242 L296.66447751042017,239.0242636908687 L317.7193954530985,236.56329530239705 L308.06813021732745,217.68953006249936 L328.46210979311496,223.47326000470255 L326.7681806426053,202.34279529104737 L343.3964233329735,215.4907031098675 L349.9177156253844,195.32046062696915 L360.2487222161201,213.83089654307201 L373.99242831559377,197.6916128652484 L376.4533967040654,218.74653080792675 L395.3271619439632,209.09526557215565 L389.5434320017599,229.4892451479431 L410.67389671541514,227.79531599743348 L397.525988896595,244.42355868780166 Z" fill="#FFD700" stroke="#222" stroke-width="3"/>
        
      </g>
    </g>
  
    <g>
      <g>
        <animateTransform attributeName="transform" attributeType="XML"
          type="rotate"
          from="0 132.96844869764658 322.80746503300645"
          to="-360 132.96844869764658 322.80746503300645"
          dur="4.51s"
          repeatCount="indefinite"/>
        <path d="M219.02586266489334,311.47779154830596 L193.2086384747193,330.73823647229676 L213.16119211962626,356.02438696229626 L181.17259765374203,359.79580945957633 L185.80894073560353,391.67053497028564 L156.22029404814944,378.94238542839224 L144.29812218234707,408.8648790002532 L125.03767725835625,383.04765481007917 L99.7515267683568,403.00020845498614 L95.98010427107673,371.0116139891019 L64.10537876036736,375.6479570709634 L76.8335283022608,346.0593103835093 L46.911034730399834,334.13713851770694 L72.72825892057386,314.87669359371614 L52.77570527566688,289.5905431037167 L84.76429974155113,285.81912060643657 L80.1279566596896,253.94439509572726 L109.71660334714375,266.67254463762066 L121.6387752129461,236.7500510657597 L140.89922013693695,262.56727525593374 L166.1853706269364,242.61472161102677 L169.95679312421643,274.603316076911 L201.83151863492577,269.9669729950495 L189.10336909303237,299.5556196825036 Z" fill="#E5E4E2" stroke="#222" stroke-width="3"/>
        
      </g>
    </g>
  
    <g>
      <g>
        <animateTransform attributeName="transform" attributeType="XML"
          type="rotate"
          from="0 198.3267266228441 85.48960870972161"
          to="360 198.3267266228441 85.48960870972161"
          dur="3.93s"
          repeatCount="indefinite"/>
        <path d="M308.97197315216135,70.92288565796385 L275.77839919336617,95.68631484595204 L301.4316824511037,128.19707976166563 L260.3034895663954,133.04605154388287 L266.2645021002173,174.02784148622345 L228.2219563592049,157.66307778950335 L212.89344967460187,196.13485523903887 L188.1300204866137,162.9412812802437 L155.61925557090007,188.59456453798123 L150.77028378868283,147.46637165327292 L109.78849384634223,153.42738418709482 L126.15325754306237,115.38483844608243 L87.68148009352684,100.05633176147937 L120.87505405232201,75.2929025734912 L95.22177079458446,42.782137657777646 L136.34996367929278,37.93316587556035 L130.38895114547086,-3.0486240667802207 L168.4314968864833,13.316139629939869 L183.76000357108632,-25.15563781959564 L208.52343275907455,8.03793613919953 L241.03419767478815,-17.615347118537983 L245.88316945700535,23.512845766170315 L286.86495939934593,17.551833232348358 L270.50019570262583,55.59437897336081 Z" fill="#9DE09D" stroke="#222" stroke-width="3"/>
        
      </g>
    </g>
  
  <text x="50%" y="95%" text-anchor="middle" font-size="32" fill="#fff" opacity="0.7" font-family="Arial">Gears Collection #32</text>
</svg>