<svg width="512" height="512" viewBox="0 0 512 512" xmlns="http://www.w3.org/2000/svg">
  <rect width="100%" height="100%" fill="#1e293b" />
  
    <g>
      <g>
        <animateTransform attributeName="transform" attributeType="XML"
          type="rotate"
          from="0 350.87717190142894 287.5962379404052"
          to="360 350.87717190142894 287.5962379404052"
          dur="3.51s"
          repeatCount="indefinite"/>
        <path d="M419.0276674024934,276.8022598526293 L398.5825187521741,295.1520226018484 L412.35662207042634,318.92158242243397 L385.0304294327392,321.7494954717155 L382.2025163834577,349.07568810940256 L358.4329565628721,335.3015847911504 L340.083193813653,355.7467334414697 L328.9494307640088,330.63185305870337 L302.08680399955716,336.386605842277 L307.8415567831308,309.52397907782535 L282.72667640036445,298.39021602818116 L303.17182505068376,280.04045327896205 L289.39772173243153,256.2708934583765 L316.7239143701187,253.442980409095 L319.5518274194002,226.11678777140784 L343.32138723998577,239.89089108966007 L361.6711499892049,219.4457424393407 L372.80491303884907,244.56062282210704 L399.6675398033007,238.80587003853344 L393.9127870197271,265.6684968029851 Z" fill="#F5F5F5" stroke="#222" stroke-width="3"/>
        
      </g>
    </g>
  
    <g>
      <g>
        <animateTransform attributeName="transform" attributeType="XML"
          type="rotate"
          from="0 289.07790769140166 392.0362158498946"
          to="-360 289.07790769140166 392.0362158498946"
          dur="3.97s"
          repeatCount="indefinite"/>
        <path d="M384.85148130011174,379.4273856814376 L356.11940921749874,400.86239696781445 L378.32467053199196,429.00343541636227 L342.724460561895,433.20066367946424 L347.88426173364405,468.6741485220279 L314.954961387929,454.5089498383078 L301.6867378598587,487.80978945860466 L280.2517265734818,459.0777173759916 L252.110688124934,481.28297869048487 L247.913459861832,445.6827687203879 L212.43997501926833,450.84256989213696 L226.60517370298845,417.91326954642193 L193.30433408269158,404.64504601835154 L222.0364061653046,383.2100347319747 L199.83114485081134,355.06899628342694 L235.43135482090835,350.8717680203249 L230.27155364915922,315.3982831777613 L263.2008539948743,329.56348186148136 L276.4690775229447,296.2626422411845 L297.9040888093216,324.99471432379755 L326.04512725786935,302.7894530093043 L330.24235552097133,338.38966297940124 L365.71584036353494,333.2298618076521 L351.5506416798149,366.1591621533672 Z" fill="#F5F5F5" stroke="#222" stroke-width="3"/>
        <line x1="343.17390769140167" y1="392.0362158498946" x2="302.60190769140166" y2="392.0362158498946" stroke="#333" stroke-width="2"/><line x1="335.92641793452464" y1="419.0842158498946" x2="300.7900352521824" y2="398.7982158498946" stroke="#333" stroke-width="2"/><line x1="316.12590769140166" y1="438.88472609301755" x2="295.83990769140166" y2="403.7483434106753" stroke="#333" stroke-width="2"/><line x1="289.07790769140166" y1="446.1322158498946" x2="289.07790769140166" y2="405.5602158498946" stroke="#333" stroke-width="2"/><line x1="262.02990769140166" y1="438.88472609301755" x2="282.31590769140166" y2="403.7483434106753" stroke="#333" stroke-width="2"/><line x1="242.22939744827866" y1="419.0842158498946" x2="277.3657801306209" y2="398.7982158498946" stroke="#333" stroke-width="2"/><line x1="234.98190769140166" y1="392.0362158498946" x2="275.55390769140166" y2="392.0362158498946" stroke="#333" stroke-width="2"/><line x1="242.2293974482787" y1="364.9882158498946" x2="277.3657801306209" y2="385.2742158498946" stroke="#333" stroke-width="2"/><line x1="262.02990769140166" y1="345.1877056067716" x2="282.31590769140166" y2="380.32408828911383" stroke="#333" stroke-width="2"/><line x1="289.07790769140166" y1="337.94021584989457" x2="289.07790769140166" y2="378.5122158498946" stroke="#333" stroke-width="2"/><line x1="316.12590769140166" y1="345.1877056067716" x2="295.83990769140166" y2="380.32408828911383" stroke="#333" stroke-width="2"/><line x1="335.92641793452464" y1="364.9882158498946" x2="300.7900352521824" y2="385.2742158498946" stroke="#333" stroke-width="2"/><circle cx="289.07790769140166" cy="392.0362158498946" r="19.32" fill="#222"/>
      </g>
    </g>
  
    <g>
      <g>
        <animateTransform attributeName="transform" attributeType="XML"
          type="rotate"
          from="0 77.69850338188641 280.66933934544716"
          to="360 77.69850338188641 280.66933934544716"
          dur="5.5s"
          repeatCount="indefinite"/>
        <path d="M200.83595516451368,264.4579862717168 L163.8947196297255,292.0172864970584 L192.44434131978824,328.19862164519134 L146.6726427868064,333.5950579834653 L153.30667286476952,379.2038242096186 L110.96900099170732,360.9914259019784 L93.90985645561683,403.8067911280744 L66.35055623027515,366.8655555932862 L30.169221082142265,395.41517728334895 L24.772784743868236,349.64347875036714 L-20.835981482285007,356.27750882833027 L-2.6235831746448497,313.93983695526805 L-45.43894840074084,296.88069241917754 L-8.497712865952664,269.3213921938359 L-37.04733455601543,233.1400570457031 L8.72436397696643,227.743620707429 L2.0903338990032694,182.1348544812758 L44.42800577206553,200.34725278891588 L61.487150308156004,157.53188756281992 L89.04645053349775,194.4731230976081 L125.22778568163059,165.92350140754536 L130.62422201990458,211.69519994052717 L176.2329882460578,205.06116986256401 L158.0205899384177,247.39884173562626 Z" fill="#9DE09D" stroke="#222" stroke-width="3"/>
        
      </g>
    </g>
  
    <g>
      <g>
        <animateTransform attributeName="transform" attributeType="XML"
          type="rotate"
          from="0 81.58706615743915 121.90999847702852"
          to="-360 81.58706615743915 121.90999847702852"
          dur="5.09s"
          repeatCount="indefinite"/>
        <path d="M232.919117418128,109.99990774554166 L187.51950203992135,130.24706198906932 L229.19282007380647,157.34700471035495 L179.7585052820885,162.57394000014295 L211.01784310639036,201.22528060090957 L162.38780406209844,190.92034809259383 L180.17327989396102,237.33962405511323 L137.10776364415588,212.51154234129436 L139.6784111904598,262.1549115122418 L106.39297052076768,225.23402621848564 L93.49715688892603,273.24204973771737 L73.25000264539835,227.84243435951072 L46.15005992411275,269.5157523933958 L40.923124634324715,220.08143760167786 L2.27178403355812,251.34077542597973 L12.57671654187385,202.7107363816878 L-33.84255942064553,220.49621221355042 L-9.014477706826682,177.43069596374525 L-58.657846877774176,180.00134351004917 L-21.736961584017962,146.71590284035705 L-69.74498510324969,133.8200892085154 L-24.345369725043028,113.57293496498774 L-66.01868775892817,86.47299224370204 L-16.5843729672102,81.24605695391415 L-47.84371079151205,42.594716353147504 L0.7863282527798532,52.89964886146322 L-16.999147579082802,6.48037289894387 L26.066368670722454,31.30845461276266 L23.495721124418566,-18.334914558184835 L56.78116179411067,18.585970735571394 L69.6769754259522,-29.42205278366032 L89.9241296694799,15.977562594546328 L117.0240723907655,-25.695755439338825 L122.25100768055361,23.7385593523792 L160.9023482813202,-7.520778471922654 L150.5974157730045,41.10926057236925 L197.0166917355238,23.323784740506568 L172.18861002170502,66.38930099031181 L221.8319791926525,63.81865344400792 L184.91109389889624,97.10409411369994 Z" fill="#9DE09D" stroke="#222" stroke-width="3"/>
        <line x1="166.59506615743916" y1="121.90999847702852" x2="102.83906615743916" y2="121.90999847702852" stroke="#333" stroke-width="2"/><line x1="162.43447849465758" y1="148.17891513485407" x2="101.79891924174376" y2="128.47722764148492" stroke="#333" stroke-width="2"/><line x1="150.3599828152647" y1="171.87644720390708" x2="98.78029532189554" y2="134.40161065874815" stroke="#333" stroke-width="2"/><line x1="131.5535148843177" y1="190.68291513485406" x2="94.0786783391588" y2="139.10322764148492" stroke="#333" stroke-width="2"/><line x1="107.8559828152647" y1="202.75741081424695" x2="88.15429532189553" y2="142.12185156133313" stroke="#333" stroke-width="2"/><line x1="81.58706615743915" y1="206.91799847702853" x2="81.58706615743915" y2="143.16199847702853" stroke="#333" stroke-width="2"/><line x1="55.318149499613625" y1="202.75741081424695" x2="75.01983699298277" y2="142.12185156133313" stroke="#333" stroke-width="2"/><line x1="31.6206174305606" y1="190.68291513485406" x2="69.09545397571952" y2="139.10322764148492" stroke="#333" stroke-width="2"/><line x1="12.81414949961362" y1="171.8764472039071" x2="64.39383699298277" y2="134.40161065874815" stroke="#333" stroke-width="2"/><line x1="0.7396538202207381" y1="148.17891513485407" x2="61.375213073134546" y2="128.47722764148492" stroke="#333" stroke-width="2"/><line x1="-3.4209338425608564" y1="121.90999847702854" x2="60.33506615743915" y2="121.90999847702852" stroke="#333" stroke-width="2"/><line x1="0.7396538202207381" y1="95.64108181920297" x2="61.375213073134546" y2="115.34276931257213" stroke="#333" stroke-width="2"/><line x1="12.814149499613606" y1="71.94354975014997" x2="64.39383699298277" y2="109.41838629530889" stroke="#333" stroke-width="2"/><line x1="31.62061743056058" y1="53.13708181920299" x2="69.09545397571951" y2="104.71676931257214" stroke="#333" stroke-width="2"/><line x1="55.31814949961361" y1="41.06258613981011" x2="75.01983699298276" y2="101.69814539272392" stroke="#333" stroke-width="2"/><line x1="81.58706615743914" y1="36.90199847702851" x2="81.58706615743915" y2="100.65799847702851" stroke="#333" stroke-width="2"/><line x1="107.85598281526467" y1="41.062586139810094" x2="88.15429532189553" y2="101.69814539272392" stroke="#333" stroke-width="2"/><line x1="131.5535148843177" y1="53.137081819202976" x2="94.07867833915878" y2="104.71676931257214" stroke="#333" stroke-width="2"/><line x1="150.3599828152647" y1="71.94354975014994" x2="98.78029532189554" y2="109.41838629530888" stroke="#333" stroke-width="2"/><line x1="162.43447849465758" y1="95.64108181920298" x2="101.79891924174376" y2="115.34276931257213" stroke="#333" stroke-width="2"/><circle cx="81.58706615743915" cy="121.90999847702852" r="30.360000000000003" fill="#222"/>
      </g>
    </g>
  
    <g>
      <g>
        <animateTransform attributeName="transform" attributeType="XML"
          type="rotate"
          from="0 345.77130178542683 11.98952199598105"
          to="360 345.77130178542683 11.98952199598105"
          dur="4.4s"
          repeatCount="indefinite"/>
        <path d="M522.9625900881946,-16.07482103223637 L469.8052035973642,31.634562115733242 L505.6178722248201,93.43541764925574 L434.5697713668335,100.78799157738769 L427.21719743870153,171.83609243537424 L365.416341905179,136.02342380791845 L317.7069587572094,189.18081029874875 L288.7591748281345,123.88212130355629 L218.9163452405602,138.8444785408477 L233.87870247785162,69.00164895327335 L168.58001348265913,40.05386502419849 L221.73739997348943,-7.655518123771124 L185.92473134603358,-69.45637365729355 L256.97283220402016,-76.80894758542559 L264.3254061321521,-147.85704844341214 L326.12626166567463,-112.04437981595633 L373.8356448136442,-165.20176630678668 L402.7834287427191,-99.9030773115942 L472.6262583302934,-114.8654345488856 L457.66390109300204,-45.02260496131126 Z" fill="#FFD700" stroke="#222" stroke-width="3"/>
        
      </g>
    </g>
  
  <text x="50%" y="95%" text-anchor="middle" font-size="32" fill="#fff" opacity="0.7" font-family="Arial">Gears Collection #60</text>
</svg>