<svg width="512" height="512" viewBox="0 0 512 512" xmlns="http://www.w3.org/2000/svg">
  <rect width="100%" height="100%" fill="#1e293b" />
  
    <g>
      <g>
        <animateTransform attributeName="transform" attributeType="XML"
          type="rotate"
          from="0 349.40311220572517 291.7191633480505"
          to="360 349.40311220572517 291.7191633480505"
          dur="5.46s"
          repeatCount="indefinite"/>
        <path d="M415.5782310255994,281.238054190355 L395.7256953796371,299.0559397584373 L409.1005493263458,322.13652683060013 L382.56642024337424,324.88247138569955 L379.8204756882748,351.4166004686711 L356.739888616112,338.0417465219624 L338.9220030480297,357.8942821679247 L328.1109577679404,333.5073693324849 L302.0269578662265,339.09531768754914 L307.6149062212907,313.0113177858352 L283.22799338585094,302.20027250574594 L303.0805290318132,284.3823869376636 L289.70567508510453,261.30179986550087 L316.2398041680761,258.5558553104014 L318.9857487231755,232.02172622742984 L342.0663357953383,245.39658017413853 L359.88422136342064,225.54404452817624 L370.6952666435099,249.93095736361602 L396.77926654522383,244.34300900855177 L391.1913181901596,270.4270089102657 Z" fill="#C9AE5D" stroke="#222" stroke-width="3"/>
        
      </g>
    </g>
  
    <g>
      <g>
        <animateTransform attributeName="transform" attributeType="XML"
          type="rotate"
          from="0 164.76300508459204 362.18762055346104"
          to="-360 164.76300508459204 362.18762055346104"
          dur="4.07s"
          repeatCount="indefinite"/>
        <path d="M257.76053308145543,349.9442637232202 L229.8612746823964,370.75797033462965 L251.42290523415073,398.08332650930646 L216.85458540811453,402.15889598217365 L221.86482712561002,436.6041638727789 L189.88999925368384,422.8495506581521 L177.0063619148329,455.18514855032447 L156.19265530342346,427.28589015126545 L128.86729912874662,448.84752070301977 L124.79172965587944,414.27920087698357 L90.34646176527417,419.289442594479 L104.10107497990096,387.31461472255285 L71.76547708772863,374.4309773837019 L99.66473548678765,353.6172707722925 L78.10310493503333,326.2919145976157 L112.67142476106955,322.21634512474844 L107.66118304357403,287.7710772341432 L139.63601091550026,301.52569044877 L152.51964825435118,269.1900925565976 L173.33335486576067,297.08935095565664 L200.65871104043748,275.5277204039024 L204.7342805133046,310.0960402299385 L239.17954840390988,305.08579851244303 L225.42493518928313,337.06062638436924 Z" fill="#E5E4E2" stroke="#222" stroke-width="3"/>
        
      </g>
    </g>
  
    <g>
      <g>
        <animateTransform attributeName="transform" attributeType="XML"
          type="rotate"
          from="0 149.70174287429646 110.7392670676696"
          to="360 149.70174287429646 110.7392670676696"
          dur="4.85s"
          repeatCount="indefinite"/>
        <path d="M269.269993155978,94.99780828593138 L233.39951807147355,121.75828821488636 L261.12161449515764,156.89088901089943 L216.67663186168255,162.1309069045858 L223.11837121274817,206.41767990679256 L182.00787823455732,188.73317720227243 L165.4432016560347,230.30751734935114 L138.68272172707972,194.4370422648467 L103.55012093106663,222.1591386885308 L98.31010303738026,177.7141560550557 L54.02333003517347,184.1558954061213 L71.70783273969363,143.0454024279305 L30.133492592614914,126.48072584940782 L66.00396767711938,99.72024592045287 L38.28187125343524,64.58764512443983 L82.72685388691038,59.3476272307534 L76.28511453584471,15.06085422854666 L117.3956075140356,32.74535693306676 L133.96028409255823,-8.828983214011942 L160.72076402151325,27.04149187049252 L195.8533648175263,-0.6806045531915714 L201.09338271121266,43.76437808028352 L245.3801557134194,37.32263872921786 L227.69565300889928,78.43313170740873 Z" fill="#8EC6F3" stroke="#222" stroke-width="3"/>
        <line x1="217.23774287429646" y1="110.7392670676696" x2="166.58574287429644" y2="110.7392670676696" stroke="#333" stroke-width="2"/><line x1="208.1896345442823" y1="144.5072670676696" x2="164.32371579179292" y2="119.1812670676696" stroke="#333" stroke-width="2"/><line x1="183.46974287429646" y1="169.22715873765546" x2="158.14374287429646" y2="125.36123998516607" stroke="#333" stroke-width="2"/><line x1="149.70174287429646" y1="178.2752670676696" x2="149.70174287429646" y2="127.6232670676696" stroke="#333" stroke-width="2"/><line x1="115.93374287429647" y1="169.22715873765546" x2="141.25974287429645" y2="125.36123998516607" stroke="#333" stroke-width="2"/><line x1="91.2138512043106" y1="144.5072670676696" x2="135.0797699568" y2="119.1812670676696" stroke="#333" stroke-width="2"/><line x1="82.16574287429646" y1="110.73926706766962" x2="132.81774287429647" y2="110.7392670676696" stroke="#333" stroke-width="2"/><line x1="91.2138512043106" y1="76.9712670676696" x2="135.0797699568" y2="102.2972670676696" stroke="#333" stroke-width="2"/><line x1="115.93374287429643" y1="52.25137539768376" x2="141.25974287429645" y2="96.11729415017314" stroke="#333" stroke-width="2"/><line x1="149.70174287429646" y1="43.2032670676696" x2="149.70174287429646" y2="93.8552670676696" stroke="#333" stroke-width="2"/><line x1="183.46974287429646" y1="52.25137539768375" x2="158.14374287429646" y2="96.11729415017314" stroke="#333" stroke-width="2"/><line x1="208.18963454428228" y1="76.97126706766957" x2="164.32371579179292" y2="102.2972670676696" stroke="#333" stroke-width="2"/><circle cx="149.70174287429646" cy="110.7392670676696" r="24.120000000000005" fill="#222"/>
      </g>
    </g>
  
    <g>
      <g>
        <animateTransform attributeName="transform" attributeType="XML"
          type="rotate"
          from="0 352.32110639091127 58.206561120873516"
          to="-360 352.32110639091127 58.206561120873516"
          dur="3.82s"
          repeatCount="indefinite"/>
        <path d="M496.88885672234744,29.450247655696213 L453.5185316229166,78.33598054649762 L474.8797272443064,140.0976134679629 L409.6448430338738,143.99759571825012 L381.07741985608857,202.7743114523097 L332.1916869652872,159.40398635287883 L270.4300540438219,180.76518197426867 L266.53007179353466,115.53029776383607 L207.7533560594751,86.96287458605082 L251.12368115890595,38.07714169524944 L229.7624855375161,-23.68449122621587 L294.99736974794865,-27.58447347650305 L323.5647929257339,-86.36118921056263 L372.4505258165354,-42.9908641111318 L434.2121587380006,-64.3520597325217 L438.1121409882879,0.8828244779109653 Z" fill="#E5E4E2" stroke="#222" stroke-width="3"/>
        
      </g>
    </g>
  
  <text x="50%" y="95%" text-anchor="middle" font-size="32" fill="#fff" opacity="0.7" font-family="Arial">Gears Collection #92</text>
</svg>