<svg width="512" height="512" viewBox="0 0 512 512" xmlns="http://www.w3.org/2000/svg">
  <rect width="100%" height="100%" fill="#1e293b" />
  
    <g>
      <g>
        <animateTransform attributeName="transform" attributeType="XML"
          type="rotate"
          from="0 315.6901457508376 336.2314558028443"
          to="360 315.6901457508376 336.2314558028443"
          dur="4.57s"
          repeatCount="indefinite"/>
        <path d="M381.402759537854,323.1604042277637 L361.6889754017491,345.3811919054007 L371.3986097751081,373.45466141515766 L341.7463896794569,375.2273806198337 L328.7611973259182,401.94406958986076 L306.5404096482812,382.2302854537558 L278.46694013852425,391.93991982711486 L276.6942209338482,362.28769973146365 L249.97753196382115,349.3025073779249 L269.6913160999261,327.0817197002879 L259.98168172656705,299.008250190531 L289.6339018222182,297.23553098585495 L302.61909417575697,270.5188420158279 L324.839881853394,290.23262615193283 L352.9133513631509,280.5229917785738 L354.68607056782696,310.175211874225 Z" fill="#B87333" stroke="#222" stroke-width="3"/>
        
      </g>
    </g>
  
    <g>
      <g>
        <animateTransform attributeName="transform" attributeType="XML"
          type="rotate"
          from="0 181.52603667988512 374.54800203881206"
          to="-360 181.52603667988512 374.54800203881206"
          dur="3.8s"
          repeatCount="indefinite"/>
        <path d="M274.8743640417372,365.35399427589925 L246.86986583318156,380.983807472851 L271.28704017156633,401.7767047652806 L239.4329868969981,405.4999117788071 L254.03441720530986,434.054092093362 L223.1802997180701,425.30386840660935 L225.7430505941637,457.27221663468777 L200.58612858841312,437.3807044829889 L190.7200444427979,467.8963294006641 L175.09023124584618,439.8918311921085 L154.29733395341654,464.3090055304932 L150.57412693989014,432.45495225592504 L122.0199466253352,447.0563825642368 L130.77017031208783,416.20226507699704 L98.80182208400943,418.76501595309065 L118.69333423570829,393.6080939473401 L88.17770931803307,383.74200980172486 L116.18220752658868,368.1121966047731 L91.76503318820393,347.3192993123435 L123.61908646277213,343.59609229881704 L109.01765615446038,315.04191198426213 L139.8717736417002,323.79213567101476 L137.30902276560653,291.82378744293635 L162.46594477135713,311.7152995946352 L172.33202891697235,281.19967467696 L187.96184211392404,309.2041728855156 L208.75473940635368,284.78699854713085 L212.4779464198801,316.6410518216991 L241.03212673443508,302.0396215133874 L232.28190304768242,332.8937390006271 L264.2502512757608,330.33098812453346 L244.35873912406194,355.487910130284 Z" fill="#9DE09D" stroke="#222" stroke-width="3"/>
        <line x1="234.05403667988512" y1="374.54800203881206" x2="194.65803667988513" y2="374.54800203881206" stroke="#333" stroke-width="2"/><line x1="230.05558076363798" y1="394.6495973740855" x2="193.65842270082334" y2="379.57340087263043" stroke="#333" stroke-width="2"/><line x1="218.6689416820521" y1="411.690907040979" x2="190.81176293042688" y2="383.8337282893538" stroke="#333" stroke-width="2"/><line x1="201.62763201515855" y1="423.0775461225649" x2="186.5514355137035" y2="386.68038805975027" stroke="#333" stroke-width="2"/><line x1="181.52603667988512" y1="427.0760020388121" x2="181.52603667988512" y2="387.68000203881206" stroke="#333" stroke-width="2"/><line x1="161.4244413446117" y1="423.0775461225649" x2="176.50063784606675" y2="386.68038805975027" stroke="#333" stroke-width="2"/><line x1="144.38313167771815" y1="411.690907040979" x2="172.2403104293434" y2="383.8337282893538" stroke="#333" stroke-width="2"/><line x1="132.99649259613227" y1="394.6495973740855" x2="169.3936506589469" y2="379.57340087263043" stroke="#333" stroke-width="2"/><line x1="128.99803667988513" y1="374.54800203881206" x2="168.39403667988512" y2="374.54800203881206" stroke="#333" stroke-width="2"/><line x1="132.99649259613224" y1="354.4464067035386" x2="169.3936506589469" y2="369.5226032049937" stroke="#333" stroke-width="2"/><line x1="144.38313167771815" y1="337.4050970366451" x2="172.24031042934337" y2="365.2622757882703" stroke="#333" stroke-width="2"/><line x1="161.4244413446117" y1="326.0184579550592" x2="176.50063784606678" y2="362.41561601787384" stroke="#333" stroke-width="2"/><line x1="181.52603667988512" y1="322.02000203881204" x2="181.52603667988512" y2="361.41600203881205" stroke="#333" stroke-width="2"/><line x1="201.62763201515858" y1="326.0184579550592" x2="186.5514355137035" y2="362.41561601787384" stroke="#333" stroke-width="2"/><line x1="218.6689416820521" y1="337.4050970366451" x2="190.81176293042685" y2="365.2622757882703" stroke="#333" stroke-width="2"/><line x1="230.055580763638" y1="354.4464067035386" x2="193.65842270082334" y2="369.5226032049937" stroke="#333" stroke-width="2"/><circle cx="181.52603667988512" cy="374.54800203881206" r="18.76" fill="#222"/>
      </g>
    </g>
  
    <g>
      <g>
        <animateTransform attributeName="transform" attributeType="XML"
          type="rotate"
          from="0 80.39167813522798 216.4814310502185"
          to="360 80.39167813522798 216.4814310502185"
          dur="3.91s"
          repeatCount="indefinite"/>
        <path d="M199.95992841690952,200.73997226848027 L164.08945333240507,227.50045219743527 L191.81154975608916,262.63305299344836 L147.36656712261407,267.8730708871347 L153.8083064736797,312.15984388934146 L112.69781349548886,294.47534118482133 L96.13313691696621,336.04968133190005 L69.37265698801124,300.1792062473956 L34.24005619199815,327.9013026710797 L29.00003829831178,283.4563200376046 L-15.286734703895007,289.89805938867016 L2.397768000625149,248.7875664104794 L-39.176572146453566,232.22288983195673 L-3.306097061949103,205.46240990300177 L-31.02819348563324,170.32980910698873 L13.416789147841897,165.0897912133023 L6.975049796776233,120.80301821109556 L48.085542774967124,138.48752091561568 L64.65021935348975,96.91318076853696 L91.41069928244478,132.7836558530414 L126.54330007845783,105.06155942935733 L131.78331797214418,149.5065420628324 L176.07009097435093,143.06480271176676 L158.3855882698308,184.17529568995764 Z" fill="#E5E4E2" stroke="#222" stroke-width="3"/>
        <line x1="147.92767813522798" y1="216.4814310502185" x2="97.27567813522798" y2="216.4814310502185" stroke="#333" stroke-width="2"/><line x1="138.87956980521383" y1="250.2494310502185" x2="95.01365105272444" y2="224.9234310502185" stroke="#333" stroke-width="2"/><line x1="114.15967813522798" y1="274.96932272020433" x2="88.83367813522798" y2="231.10340396771497" stroke="#333" stroke-width="2"/><line x1="80.39167813522798" y1="284.01743105021853" x2="80.39167813522798" y2="233.3654310502185" stroke="#333" stroke-width="2"/><line x1="46.62367813522799" y1="274.96932272020433" x2="71.94967813522798" y2="231.10340396771497" stroke="#333" stroke-width="2"/><line x1="21.90378646524212" y1="250.2494310502185" x2="65.76970521773151" y2="224.9234310502185" stroke="#333" stroke-width="2"/><line x1="12.855678135227976" y1="216.4814310502185" x2="63.50767813522798" y2="216.4814310502185" stroke="#333" stroke-width="2"/><line x1="21.903786465242128" y1="182.7134310502185" x2="65.76970521773151" y2="208.0394310502185" stroke="#333" stroke-width="2"/><line x1="46.62367813522795" y1="157.99353938023268" x2="71.94967813522797" y2="201.85945813272204" stroke="#333" stroke-width="2"/><line x1="80.39167813522796" y1="148.9454310502185" x2="80.39167813522798" y2="199.59743105021852" stroke="#333" stroke-width="2"/><line x1="114.15967813522798" y1="157.99353938023265" x2="88.83367813522798" y2="201.85945813272204" stroke="#333" stroke-width="2"/><line x1="138.8795698052138" y1="182.71343105021847" x2="95.01365105272444" y2="208.0394310502185" stroke="#333" stroke-width="2"/><circle cx="80.39167813522798" cy="216.4814310502185" r="24.120000000000005" fill="#222"/>
      </g>
    </g>
  
    <g>
      <g>
        <animateTransform attributeName="transform" attributeType="XML"
          type="rotate"
          from="0 88.92098664382021 112.87556708959337"
          to="-360 88.92098664382021 112.87556708959337"
          dur="4.05s"
          repeatCount="indefinite"/>
        <path d="M233.4887369752564,84.11925362441607 L190.11841187582553,133.0049865152175 L211.4796074972154,194.76661943668273 L146.24472328678277,198.66660168696998 L117.67730010899753,257.4433174210295 L68.79156721819614,214.0729923215987 L7.029934296730829,235.43418794298853 L3.1299520464435915,170.19930373255593 L-55.64676368761596,141.63188055477067 L-12.276438588185101,92.7461476639693 L-33.637634209574955,30.98451474250399 L31.597250000857585,27.08453249221681 L60.16467317864284,-31.69218324184277 L109.05040606944434,11.67814185758806 L170.8120389909095,-9.683053763801837 L174.71202124119682,55.551830446630824 Z" fill="#E5E4E2" stroke="#222" stroke-width="3"/>
        
      </g>
    </g>
  
    <g>
      <g>
        <animateTransform attributeName="transform" attributeType="XML"
          type="rotate"
          from="0 506.38246119215785 185.93843330785717"
          to="360 506.38246119215785 185.93843330785717"
          dur="4.92s"
          repeatCount="indefinite"/>
        <path d="M679.0921560434756,163.20077062312419 L627.2792475880802,201.85479718717025 L667.322275755624,252.60188722585582 L603.1239675072711,260.1708019611806 L612.428702125477,324.14058518659033 L553.0468789347569,298.5963035022835 L529.1201238768908,358.6481281591749 L490.4660973128448,306.8352197037796 L439.7190072741592,346.8782478713233 L432.15009253883443,282.6799396229704 L368.1803093134247,291.98467424117626 L393.7245909977315,232.60285105045622 L333.6727663408401,208.67609599259015 L385.4856747962354,170.0220694285441 L345.44264662869165,119.27497938985861 L409.64095487704463,111.70606465453378 L400.3362202588387,47.736281429124034 L459.7180434495588,73.28056311343084 L483.64479850742487,13.22873845653939 L522.298825071471,65.04164691193473 L573.0459151101566,24.998618744391024 L580.6148298454813,89.19692699274395 L644.584613070891,79.89219237453798 L619.0403313865842,139.27401556525814 Z" fill="#B87333" stroke="#222" stroke-width="3"/>
        
      </g>
    </g>
  
  <text x="50%" y="95%" text-anchor="middle" font-size="32" fill="#fff" opacity="0.7" font-family="Arial">Gears Collection #39</text>
</svg>