<svg width="512" height="512" viewBox="0 0 512 512" xmlns="http://www.w3.org/2000/svg">
  <rect width="100%" height="100%" fill="#8ec6f3" />
  
    <g>
      <g>
        <animateTransform attributeName="transform" attributeType="XML"
          type="rotate"
          from="0 348.66201256605996 293.59988599992494"
          to="360 348.66201256605996 293.59988599992494"
          dur="3.92s"
          repeatCount="indefinite"/>
        <path d="M413.34901979975274,287.2287718785035 L393.9429176296449,298.0596658849199 L410.8631343886535,312.468390021465 L388.78943009391014,315.04843752550784 L398.9076920346379,334.8354494705619 L377.52690699550584,328.77186162792947 L379.3028004597498,350.924768182568 L361.869965381138,337.14067127574043 L355.0331266874814,358.2868932336177 L344.20223268106497,338.8807910635099 L329.7935085445199,355.8010078225185 L327.21346104047706,333.7273035277751 L307.426449095423,343.84556546850285 L313.4900369380554,322.4647804293708 L291.3371303834169,324.2406738936148 L305.12122729024446,306.807838815003 L283.9750053323672,299.9710001213464 L303.381107502475,289.14010611492995 L286.4608907434664,274.7313819783849 L308.5345950382098,272.15133447434204 L298.41633309748204,252.364322529288 L319.79711813661413,258.4279103719204 L318.02122467237007,236.27500381728186 L335.4540597509819,250.05910072410944 L342.2908984446385,228.91287876623215 L353.12179245105494,248.31898093633998 L367.5305165876,231.39876417733137 L370.11056409164286,253.47246847207478 L389.89757603669693,243.35420653134705 L383.8339881940645,264.73499157047905 L405.98689474870304,262.95909810623505 L392.20279784187545,280.39193318484683 Z" fill="#E5E4E2" stroke="#222" stroke-width="3"/>
        <line x1="385.06201256605993" y1="293.59988599992494" x2="357.76201256606" y2="293.59988599992494" stroke="#333" stroke-width="2"/><line x1="382.2912275494708" y1="307.5295629380142" x2="357.06931631191264" y2="297.08230523444723" stroke="#333" stroke-width="2"/><line x1="374.4006994012503" y1="319.33857283511526" x2="355.0966842748575" y2="300.0345577087225" stroke="#333" stroke-width="2"/><line x1="362.5916895041492" y1="327.2291009833358" x2="352.14443180058225" y2="302.0071897457776" stroke="#333" stroke-width="2"/><line x1="348.66201256605996" y1="329.9998859999249" x2="348.66201256605996" y2="302.69988599992496" stroke="#333" stroke-width="2"/><line x1="334.7323356279707" y1="327.2291009833358" x2="345.17959333153766" y2="302.0071897457776" stroke="#333" stroke-width="2"/><line x1="322.92332573086964" y1="319.33857283511526" x2="342.2273408572624" y2="300.0345577087225" stroke="#333" stroke-width="2"/><line x1="315.0327975826491" y1="307.5295629380142" x2="340.25470882020727" y2="297.08230523444723" stroke="#333" stroke-width="2"/><line x1="312.26201256606" y1="293.59988599992494" x2="339.56201256605993" y2="293.59988599992494" stroke="#333" stroke-width="2"/><line x1="315.0327975826491" y1="279.6702090618357" x2="340.25470882020727" y2="290.11746676540264" stroke="#333" stroke-width="2"/><line x1="322.92332573086964" y1="267.8611991647346" x2="342.2273408572624" y2="287.16521429112737" stroke="#333" stroke-width="2"/><line x1="334.7323356279707" y1="259.9706710165141" x2="345.17959333153766" y2="285.19258225407225" stroke="#333" stroke-width="2"/><line x1="348.66201256605996" y1="257.19988599992496" x2="348.66201256605996" y2="284.4998859999249" stroke="#333" stroke-width="2"/><line x1="362.59168950414926" y1="259.9706710165141" x2="352.14443180058225" y2="285.19258225407225" stroke="#333" stroke-width="2"/><line x1="374.4006994012503" y1="267.8611991647346" x2="355.0966842748575" y2="287.16521429112737" stroke="#333" stroke-width="2"/><line x1="382.2912275494708" y1="279.6702090618357" x2="357.06931631191264" y2="290.11746676540264" stroke="#333" stroke-width="2"/><circle cx="348.66201256605996" cy="293.59988599992494" r="13" fill="#222"/>
      </g>
    </g>
  
    <g>
      <g>
        <animateTransform attributeName="transform" attributeType="XML"
          type="rotate"
          from="0 159.917415587035 357.8240490872635"
          to="-360 159.917415587035 357.8240490872635"
          dur="4.14s"
          repeatCount="indefinite"/>
        <path d="M249.79705458119253,343.5885127686025 L222.8331628829453,367.78892451032624 L240.99900928817647,399.1371845635623 L204.9601175486181,402.8667510488466 L201.23055106333376,438.905642788405 L169.88229101009773,420.73979638317377 L145.681879268374,447.70368808142103 L130.99822075362587,414.5811646780626 L95.57069849905919,422.17076617523935 L103.16029999623598,386.7432439206726 L70.03777659287748,372.0595854059245 L97.00166829112473,347.8591736642008 L78.83582188589351,316.5109136109648 L114.87471362545193,312.78134712568044 L118.60428011073624,276.74245538612206 L149.9525401639723,294.90830179135327 L174.152951905696,267.944410093106 L188.83661042044412,301.06693349646446 L224.2641326750108,293.4773319992877 L216.67453117783404,328.90485425385435 Z" fill="#FFD700" stroke="#222" stroke-width="3"/>
        
      </g>
    </g>
  
    <g>
      <g>
        <animateTransform attributeName="transform" attributeType="XML"
          type="rotate"
          from="0 239.4103278142204 76.76612268667407"
          to="360 239.4103278142204 76.76612268667407"
          dur="5.03s"
          repeatCount="indefinite"/>
        <path d="M355.40937659495626,61.49455819692803 L320.6096619607355,87.4562178294963 L347.50423311804093,121.54008427338957 L304.38596638407256,126.62368372248828 L310.6354150082407,169.58846350074856 L270.75210092492125,152.43185639934845 L254.68189230396646,192.76517146740989 L228.7202326713982,157.96545683318914 L194.6363662275049,184.86002799049461 L189.55276677840618,141.74176125652622 L146.5879870001459,147.99120988069436 L163.74459410154603,108.10789579737492 L123.41127903348459,92.03768717642009 L158.21099366770534,66.07602754385186 L131.31642251039983,31.99216109995863 L174.43468924436826,26.908561650859852 L168.18524062020006,-16.056218127400427 L208.06855470351957,1.100388973999685 L224.13876332447438,-39.23292609406175 L250.10042295704267,-4.43321145984099 L284.18428940093594,-31.327782617146468 L289.26788885003464,11.790484116821915 L332.2326686282949,5.5410354926537195 L315.0760615268948,45.42434957597324 Z" fill="#FFD700" stroke="#222" stroke-width="3"/>
        
      </g>
    </g>
  
  <text x="50%" y="95%" text-anchor="middle" font-size="32" fill="#fff" opacity="0.7" font-family="Arial">Gears Collection #58</text>
</svg>