<svg width="512" height="512" viewBox="0 0 512 512" xmlns="http://www.w3.org/2000/svg">
  <rect width="100%" height="100%" fill="#f5e663" />
  
    <g>
      <g>
        <animateTransform attributeName="transform" attributeType="XML"
          type="rotate"
          from="0 309.5230890761238 340.4705802972213"
          to="360 309.5230890761238 340.4705802972213"
          dur="5.46s"
          repeatCount="indefinite"/>
        <path d="M377.19727342394674,327.0093480781085 L356.89501811959985,349.8934428506003 L366.8944923249994,378.80492637557387 L336.3571313309706,380.63056257143427 L322.98432129523667,408.14476464504423 L300.10022652274483,387.84250934069735 L271.18874299777127,397.8419835460969 L269.3631068019109,367.3046225520681 L241.8489047283009,353.93181251633416 L262.1511600326478,331.0477177438423 L252.1516858272482,302.13623421886876 L282.689046821277,300.3105980230084 L296.0618568570109,272.7963959493984 L318.9459516295028,293.0986512537453 L347.8574351544763,283.09917704834567 L349.6830713503368,313.6365380423745 Z" fill="#C9AE5D" stroke="#222" stroke-width="3"/>
        
      </g>
    </g>
  
    <g>
      <g>
        <animateTransform attributeName="transform" attributeType="XML"
          type="rotate"
          from="0 263.1399608188995 395.81781345559864"
          to="-360 263.1399608188995 395.81781345559864"
          dur="4.76s"
          repeatCount="indefinite"/>
        <path d="M359.4421752575197,388.23866480828883 L330.5515109259336,401.1232175087155 L357.0708951293151,418.3686356040791 L325.6126948073127,421.694867152126 L345.5050006955048,446.2911748071593 L314.5586122127736,439.73349048368567 L325.87664228759525,469.27302973256167 L298.471313764992,453.47334136922234 L300.1071803853672,485.06457629618893 L278.92553632283585,461.5694674728895 L270.7191094662093,492.12002789421877 L257.8345567657826,463.2293635626327 L240.58913867041906,489.7487477660142 L237.26290712237216,458.29054744401185 L212.66659946733887,478.18285333220393 L219.2242837908125,447.2364648494727 L189.68474454193654,458.5544949242944 L205.4844329052758,431.1491664016911 L173.89319797830922,432.78503302206633 L197.38830680160862,411.603388959535 L166.83774638027936,403.39696210290845 L195.72841071186542,390.51240940248175 L169.20902650848396,373.26699130711813 L200.6672268304863,369.9407597590713 L180.77492094229422,345.344452104038 L211.72130942502542,351.90213642751166 L200.40327935020372,322.36259717863567 L227.80860787280707,338.16228554197494 L226.17274125243188,306.57105061500835 L247.3543853149632,330.06615943830775 L255.56081217158962,299.5155990169785 L268.44536487201634,328.4062633485645 L285.6907829673799,301.88687914518306 L289.0170145154269,333.3450794671854 L313.61332217046015,313.45277357899334 L307.05563784698654,344.39916206172455 L336.5951770958625,333.08113198690285 L320.7954887325232,360.4864605095062 L352.3867236594898,358.850593889131 L328.8916148361904,380.0322379516623 Z" fill="#8EC6F3" stroke="#222" stroke-width="3"/>
        <line x1="317.2359608188995" y1="395.81781345559864" x2="276.6639608188995" y2="395.81781345559864" stroke="#333" stroke-width="2"/><line x1="314.58831412440213" y1="412.5343967833058" x2="276.0020491452752" y2="399.99695928752544" stroke="#333" stroke-width="2"/><line x1="306.90454414660667" y1="427.61464446361225" x2="274.0811066508263" y2="403.76702120760206" stroke="#333" stroke-width="2"/><line x1="294.9367918269131" y1="439.5823967833058" x2="271.0891685709029" y2="406.75895928752544" stroke="#333" stroke-width="2"/><line x1="279.85654414660667" y1="447.26616676110126" x2="267.3191066508263" y2="408.6799017819743" stroke="#333" stroke-width="2"/><line x1="263.1399608188995" y1="449.91381345559864" x2="263.1399608188995" y2="409.34181345559864" stroke="#333" stroke-width="2"/><line x1="246.42337749119235" y1="447.26616676110126" x2="258.9608149869727" y2="408.6799017819743" stroke="#333" stroke-width="2"/><line x1="231.3431298108859" y1="439.5823967833058" x2="255.1907530668961" y2="406.75895928752544" stroke="#333" stroke-width="2"/><line x1="219.37537749119235" y1="427.61464446361225" x2="252.19881498697274" y2="403.76702120760206" stroke="#333" stroke-width="2"/><line x1="211.6916075133969" y1="412.5343967833058" x2="250.27787249252384" y2="399.99695928752544" stroke="#333" stroke-width="2"/><line x1="209.0439608188995" y1="395.81781345559864" x2="249.6159608188995" y2="395.81781345559864" stroke="#333" stroke-width="2"/><line x1="211.6916075133969" y1="379.1012301278915" x2="250.27787249252384" y2="391.63866762367184" stroke="#333" stroke-width="2"/><line x1="219.37537749119235" y1="364.020982447585" x2="252.1988149869727" y2="387.8686057035952" stroke="#333" stroke-width="2"/><line x1="231.34312981088587" y1="352.0532301278915" x2="255.1907530668961" y2="384.87666762367184" stroke="#333" stroke-width="2"/><line x1="246.42337749119235" y1="344.369460150096" x2="258.9608149869727" y2="382.95572512922297" stroke="#333" stroke-width="2"/><line x1="263.1399608188995" y1="341.72181345559864" x2="263.1399608188995" y2="382.29381345559864" stroke="#333" stroke-width="2"/><line x1="279.85654414660667" y1="344.369460150096" x2="267.3191066508263" y2="382.95572512922297" stroke="#333" stroke-width="2"/><line x1="294.9367918269131" y1="352.0532301278915" x2="271.0891685709029" y2="384.87666762367184" stroke="#333" stroke-width="2"/><line x1="306.90454414660667" y1="364.020982447585" x2="274.0811066508263" y2="387.8686057035952" stroke="#333" stroke-width="2"/><line x1="314.58831412440213" y1="379.1012301278915" x2="276.0020491452752" y2="391.63866762367184" stroke="#333" stroke-width="2"/><circle cx="263.1399608188995" cy="395.81781345559864" r="19.32" fill="#222"/>
      </g>
    </g>
  
    <g>
      <g>
        <animateTransform attributeName="transform" attributeType="XML"
          type="rotate"
          from="0 81.19101129994343 213.0835990597593"
          to="360 81.19101129994343 213.0835990597593"
          dur="5.42s"
          repeatCount="indefinite"/>
        <path d="M203.00454312602466,188.8533810653562 L166.4604835782003,230.0447516558415 L184.45953714791955,282.08542200079387 L129.49228735866765,285.3715671533426 L105.42122929434657,334.8971308858405 L64.22985870386125,298.35307133801615 L12.189188358908822,316.3521249077354 L8.903043206360138,261.38487511848354 L-40.62252052613779,237.31381705416243 L-4.07846097831343,196.12244646367714 L-22.077514548032696,144.0817761187247 L32.88973524121915,140.79563096617608 L56.96079330554025,91.2700672336781 L98.15216389602563,127.81412678150245 L150.19283424097796,109.81507321178316 L153.47897939352669,164.78232300103508 Z" fill="#C0C0C0" stroke="#222" stroke-width="3"/>
        
      </g>
    </g>
  
    <g>
      <g>
        <animateTransform attributeName="transform" attributeType="XML"
          type="rotate"
          from="0 196.58352358313783 44.175350041114285"
          to="-360 196.58352358313783 44.175350041114285"
          dur="5.17s"
          repeatCount="indefinite"/>
        <path d="M347.65256509197735,29.296348139086984 L302.33185263932546,54.590651372533394 L341.8470665472871,88.24056404834167 L290.29647713279405,94.2659672962448 L313.9265104036013,140.47625057715567 L263.99415395836684,126.3154408154387 L268.1415482333243,178.05099796919458 L227.429173388197,145.85983011601883 L211.46252548516512,195.2443915499538 L186.16822225171873,149.92367909730194 L152.51830957591045,189.4388930052636 L146.49290632800736,137.88830359077053 L100.28262304709645,161.51833686157778 L114.4434328088134,111.58598041634326 L62.707875655057535,115.73337469130077 L94.89904350823332,75.02099984617345 L45.51448207429834,59.05435194314162 L90.83519452695018,33.76004870969518 L51.319980618988495,0.11013603388693127 L102.87057003348163,-5.915267214016225 L79.24053676267434,-52.12555049492707 L129.17289320790888,-37.96474073321018 L125.02549893295134,-89.70029788696601 L165.73787377807867,-57.50913003379023 L181.70452168111055,-106.89369146772523 L206.99882491455688,-61.57297901507337 L240.64873759036516,-101.08819292303505 L246.67414083826833,-49.53760350854192 L292.88442411917924,-73.16763677934918 L278.7236143574622,-23.235280334114734 L330.4591715112181,-27.38267460907221 L298.2680036580423,13.329700236055011 Z" fill="#C0C0C0" stroke="#222" stroke-width="3"/>
        <line x1="281.5915235831378" y1="44.175350041114285" x2="217.83552358313784" y2="44.175350041114285" stroke="#333" stroke-width="2"/><line x1="275.1206748828573" y1="76.70650325960584" x2="216.2178114080677" y2="52.30813834573718" stroke="#333" stroke-width="2"/><line x1="256.6932568382439" y1="104.28508329622032" x2="211.61095689691433" y2="59.2027833548908" stroke="#333" stroke-width="2"/><line x1="229.1146768016294" y1="122.71250134083375" x2="204.71631188776072" y2="63.809637866044156" stroke="#333" stroke-width="2"/><line x1="196.58352358313783" y1="129.1833500411143" x2="196.58352358313783" y2="65.4273500411143" stroke="#333" stroke-width="2"/><line x1="164.05237036464626" y1="122.71250134083375" x2="188.45073527851494" y2="63.809637866044156" stroke="#333" stroke-width="2"/><line x1="136.47379032803178" y1="104.28508329622034" x2="181.55609026936133" y2="59.2027833548908" stroke="#333" stroke-width="2"/><line x1="118.04637228341836" y1="76.70650325960585" x2="176.94923575820798" y2="52.30813834573718" stroke="#333" stroke-width="2"/><line x1="111.57552358313782" y1="44.17535004111429" x2="175.33152358313782" y2="44.175350041114285" stroke="#333" stroke-width="2"/><line x1="118.04637228341834" y1="11.644196822622774" x2="176.94923575820795" y2="36.04256173649141" stroke="#333" stroke-width="2"/><line x1="136.47379032803178" y1="-15.934383213991751" x2="181.55609026936133" y2="29.147916727337776" stroke="#333" stroke-width="2"/><line x1="164.0523703646463" y1="-34.3618012586052" x2="188.45073527851494" y2="24.541062216184415" stroke="#333" stroke-width="2"/><line x1="196.5835235831378" y1="-40.832649958885725" x2="196.58352358313783" y2="22.923350041114283" stroke="#333" stroke-width="2"/><line x1="229.1146768016294" y1="-34.36180125860518" x2="204.71631188776072" y2="24.541062216184418" stroke="#333" stroke-width="2"/><line x1="256.6932568382439" y1="-15.934383213991765" x2="211.61095689691433" y2="29.147916727337773" stroke="#333" stroke-width="2"/><line x1="275.1206748828573" y1="11.644196822622746" x2="216.2178114080677" y2="36.0425617364914" stroke="#333" stroke-width="2"/><circle cx="196.58352358313783" cy="44.175350041114285" r="30.360000000000003" fill="#222"/>
      </g>
    </g>
  
    <g>
      <g>
        <animateTransform attributeName="transform" attributeType="XML"
          type="rotate"
          from="0 422.3820936672929 56.20761048806645"
          to="360 422.3820936672929 56.20761048806645"
          dur="4.79s"
          repeatCount="indefinite"/>
        <path d="M600.2473017977545,32.79121160378919 L546.887739358616,72.59908970706053 L588.1260817998177,124.86101825436356 L522.0114061410662,132.6558707429816 L531.5938940314574,198.53519973631404 L470.4394791037009,172.22840218083383 L445.7984925515702,234.07281861852803 L405.99061444829886,180.7132561793896 L353.7286859009958,221.95159862059128 L345.9338334123778,155.83692296183978 L280.0545044190453,165.4194108522309 L306.36130197452553,104.26499592447445 L244.51688553683132,79.6240093723437 L297.87644797596977,39.8161312690724 L256.638105534768,-12.445797278230557 L322.7527811935196,-20.24064976684869 L313.17029330312835,-86.11997876018111 L374.324708230885,-59.81318120470095 L398.96569478301564,-121.65759764239513 L438.77357288628707,-68.29803520325666 L491.03550143359007,-109.53637764445838 L498.830353922208,-43.42170198570686 L564.7096829155405,-53.00418987609808 L538.4028853600603,8.150225051658502 Z" fill="#C9AE5D" stroke="#222" stroke-width="3"/>
        
      </g>
    </g>
  
  <text x="50%" y="95%" text-anchor="middle" font-size="32" fill="#fff" opacity="0.7" font-family="Arial">Gears Collection #99</text>
</svg>