<svg width="512" height="512" viewBox="0 0 512 512" xmlns="http://www.w3.org/2000/svg">
  <rect width="100%" height="100%" fill="#9de09d" />
  
    <g>
      <g>
        <animateTransform attributeName="transform" attributeType="XML"
          type="rotate"
          from="0 349.3583800878055 291.8359158858937"
          to="360 349.3583800878055 291.8359158858937"
          dur="4.1s"
          repeatCount="indefinite"/>
        <path d="M416.77663066122454,282.9601348149302 L396.55115548919883,298.04896263556816 L412.18218829857295,317.85838928671984 L387.1219990856683,320.8129599067088 L390.7541572603985,345.7839430256977 L367.57411146838376,335.81258163343097 L358.234161158769,359.25416645931284 L343.145333338131,339.0286912872871 L323.33590668697934,354.6597240966612 L320.38133606699034,329.5995348837565 L295.41035294800145,333.2316930584867 L305.3817143402682,310.051647266472 L281.9401295143864,300.7116969568572 L302.1656046864121,285.62286913621926 L286.53457187703793,265.81344248506764 L311.59476108994266,262.85887186507864 L307.96260291521247,237.88788874608974 L331.14264870722724,247.85925013835646 L340.48259901684196,224.4176653124746 L355.57142683748,244.64314048450035 L375.3808534886316,229.01210767512623 L378.33542410862054,254.0722968880309 L403.30640722760944,250.44013871330068 L393.3350458353427,273.6201845053155 Z" fill="#F5F5F5" stroke="#222" stroke-width="3"/>
        
      </g>
    </g>
  
    <g>
      <g>
        <animateTransform attributeName="transform" attributeType="XML"
          type="rotate"
          from="0 119.64383711821296 287.73321358065647"
          to="-360 119.64383711821296 287.73321358065647"
          dur="4.64s"
          repeatCount="indefinite"/>
        <path d="M214.02938792099968,275.3071200813076 L185.71372268016367,296.4314790302007 L207.59716861328747,324.164676341813 L172.51290371522086,328.3010752097976 L177.59792515984316,363.260451576382 L145.14586105102254,349.30054562720863 L132.06993061756188,382.1187643834432 L110.94557166866873,353.80309914260715 L83.21237435705642,375.686545075731 L79.07597548907182,340.6022801776644 L44.11659912248737,345.68730162228667 L58.07650507166082,313.2352375134661 L25.25828631542622,300.15930708000536 L53.573951556262244,279.03494813111223 L31.69050562313845,251.30175081949997 L66.77477052120506,247.16535195151533 L61.689749076582736,212.2059755849309 L94.1418131854034,226.16588153410433 L107.21774361886405,193.34766277786974 L128.34210256775722,221.66332801870576 L156.07529987936954,199.779882085582 L160.2116987473541,234.86414698364857 L195.1710751139385,229.77912553902624 L181.2111691647651,262.2311896478469 Z" fill="#FFD700" stroke="#222" stroke-width="3"/>
        
      </g>
    </g>
  
    <g>
      <g>
        <animateTransform attributeName="transform" attributeType="XML"
          type="rotate"
          from="0 335.2446635376277 94.38229273743491"
          to="360 335.2446635376277 94.38229273743491"
          dur="3.85s"
          repeatCount="indefinite"/>
        <path d="M457.05527408230455,82.38499476109669 L420.5120909189015,102.78040132087166 L452.37416063125005,129.9131372333811 L410.80767746699473,134.7715651486864 L429.8611430292267,172.03203071906512 L389.59948012476883,160.61382838155419 L392.94362412512976,202.32945549367358 L360.11625468479,176.37294070297057 L347.24196151396586,216.1929032821118 L326.84655495419094,179.64972011870873 L299.71381904168146,211.51178983105729 L294.8553911263762,169.94530666680197 L257.59492555599746,188.99877222903393 L269.01312789350834,148.73710932457607 L227.29750078138903,152.08125332493705 L253.25401557209204,119.25388388459724 L213.4340529929508,106.37959071377315 L249.97723615635385,85.98418415399816 L218.1151664440053,58.85144824148875 L259.6816496082606,53.993020326183434 L240.62818404602865,16.732554755804728 L280.8898469504866,28.15075709331559 L277.54570295012553,-13.564870018803745 L310.3730723904653,12.391644771899266 L323.2473655612895,-27.428317807241996 L343.64277212106435,9.11486535616109 L370.77550803357383,-22.747204356187467 L375.6339359488791,18.81927880806785 L412.8944015192579,-0.2341867541640852 L401.47619918174695,40.02747615029373 L443.1918262938663,36.68333214993276 L417.2353115031633,69.51070159027249 Z" fill="#C0C0C0" stroke="#222" stroke-width="3"/>
        
      </g>
    </g>
  
  <text x="50%" y="95%" text-anchor="middle" font-size="32" fill="#fff" opacity="0.7" font-family="Arial">Gears Collection #56</text>
</svg>