<svg width="512" height="512" viewBox="0 0 512 512" xmlns="http://www.w3.org/2000/svg">
  <rect width="100%" height="100%" fill="#f5e663" />
  
    <g>
      <g>
        <animateTransform attributeName="transform" attributeType="XML"
          type="rotate"
          from="0 332.2008351646289 320.7567194985436"
          to="360 332.2008351646289 320.7567194985436"
          dur="3.54s"
          repeatCount="indefinite"/>
        <path d="M391.4621356003372,311.37065159612973 L373.6837454696247,327.3269670302333 L385.661226615931,347.9961494829164 L361.89931997446394,350.4552043083786 L359.44026514900173,374.2171109498457 L338.7710826963186,362.2396298035394 L322.81476726221507,380.01801993425187 L313.13323417556796,358.17899351445504 L289.7744282934361,363.18312636973644 L294.7785611487175,339.82432048760455 L272.93953472892065,330.14278740095745 L290.7179248596332,314.1864719668539 L278.74044371332684,293.5172895141708 L302.5023503547939,291.0582346887086 L304.9614051802561,267.2963280472415 L325.63058763293924,279.2738091935478 L341.5869030670428,261.4954190628353 L351.2684361536899,283.33444548263213 L374.6272420358218,278.33031262735074 L369.6231091805404,301.6891185094826 Z" fill="#F5F5F5" stroke="#222" stroke-width="3"/>
        
      </g>
    </g>
  
    <g>
      <g>
        <animateTransform attributeName="transform" attributeType="XML"
          type="rotate"
          from="0 151.98704211041908 349.70861535131263"
          to="-360 151.98704211041908 349.70861535131263"
          dur="5.29s"
          repeatCount="indefinite"/>
        <path d="M235.26841046581916,338.7444152048283 L210.28399995919912,357.38355545385167 L229.59292284136717,381.85402366998017 L198.63621851954372,385.5037873770254 L203.12300214715162,416.3502959357764 L174.48882793348636,404.0327318629763 L162.9512422569034,432.9899837067127 L144.31210200788007,408.00557320009267 L119.84163379175155,427.3144960822607 L116.19187008470631,396.35779176043724 L85.34536152595533,400.84457538804514 L97.66292559875542,372.2104011743799 L68.705673755019,360.672815497797 L93.69008426163903,342.0336752487736 L74.38116137947098,317.56320703264515 L105.33786570129445,313.91344332559987 L100.85108207368653,283.06693476684893 L129.48525628735183,295.384498839649 L141.02284196393475,266.4272469959126 L159.66198221295815,291.4116575025326 L184.13245042908665,272.1027346203646 L187.78221413613184,303.059438942188 L218.6287226948828,298.57265531458006 L206.31115862208276,327.20682952824535 Z" fill="#8EC6F3" stroke="#222" stroke-width="3"/>
        <line x1="199.02704211041907" y1="349.70861535131263" x2="163.74704211041907" y2="349.70861535131263" stroke="#333" stroke-width="2"/><line x1="192.7248771044391" y1="373.2286153513126" x2="162.17150085892408" y2="355.5886153513126" stroke="#333" stroke-width="2"/><line x1="175.5070421104191" y1="390.4464503453326" x2="157.86704211041908" y2="359.8930740998176" stroke="#333" stroke-width="2"/><line x1="151.98704211041908" y1="396.74861535131265" x2="151.98704211041908" y2="361.4686153513126" stroke="#333" stroke-width="2"/><line x1="128.4670421104191" y1="390.4464503453326" x2="146.1070421104191" y2="359.8930740998176" stroke="#333" stroke-width="2"/><line x1="111.24920711639908" y1="373.2286153513126" x2="141.8025833619141" y2="355.5886153513126" stroke="#333" stroke-width="2"/><line x1="104.94704211041909" y1="349.70861535131263" x2="140.2270421104191" y2="349.70861535131263" stroke="#333" stroke-width="2"/><line x1="111.24920711639909" y1="326.18861535131265" x2="141.8025833619141" y2="343.82861535131264" stroke="#333" stroke-width="2"/><line x1="128.46704211041907" y1="308.97078035729265" x2="146.1070421104191" y2="339.52415660280764" stroke="#333" stroke-width="2"/><line x1="151.98704211041908" y1="302.6686153513126" x2="151.98704211041908" y2="337.94861535131264" stroke="#333" stroke-width="2"/><line x1="175.5070421104191" y1="308.97078035729265" x2="157.86704211041908" y2="339.52415660280764" stroke="#333" stroke-width="2"/><line x1="192.72487710443906" y1="326.1886153513126" x2="162.17150085892408" y2="343.82861535131264" stroke="#333" stroke-width="2"/><circle cx="151.98704211041908" cy="349.70861535131263" r="16.8" fill="#222"/>
      </g>
    </g>
  
    <g>
      <g>
        <animateTransform attributeName="transform" attributeType="XML"
          type="rotate"
          from="0 76.35979673644408 244.62470345756577"
          to="360 76.35979673644408 244.62470345756577"
          dur="4.63s"
          repeatCount="indefinite"/>
        <path d="M182.28460701999296,223.55494867982392 L150.50716393492831,259.37353180198505 L166.15851486511897,304.6262886236828 L118.360906352726,307.4838061476382 L97.42955151418595,350.54951374111465 L61.61096839202481,318.77207065605 L16.358211570327036,334.42342158624064 L13.500694046371656,286.62581307384767 L-29.565013547104797,265.6944582353076 L2.2124295379598635,229.8758751131465 L-13.43892139223081,184.62311829144872 L34.3586871201621,181.7656007674934 L55.29004195870219,138.6998931740169 L91.10862508086338,170.47733625908154 L136.36138190256108,154.82598532889085 L139.2188994265165,202.62359384128385 Z" fill="#B87333" stroke="#222" stroke-width="3"/>
        
      </g>
    </g>
  
    <g>
      <g>
        <animateTransform attributeName="transform" attributeType="XML"
          type="rotate"
          from="0 444.86701400220267 143.1760175233484"
          to="-360 444.86701400220267 143.1760175233484"
          dur="4.75s"
          repeatCount="indefinite"/>
        <path d="M575.7377357035457,125.9465601503016 L536.4765191931427,155.23663768448117 L566.8191122936926,193.69023059554024 L518.1728626451128,199.4255735637542 L525.2235226313538,247.89865844179144 L480.22696315273697,228.5424863273913 L462.0964713752495,274.04673922469135 L432.8063938410699,234.7855227142885 L394.3528009300108,265.1281158148382 L388.6174579617969,216.48186616625853 L340.1443730837596,223.53252615249949 L359.5005451981598,178.5359666738827 L313.9962923008597,160.40547489639522 L353.2575088112626,131.11539736221567 L322.91491571071276,92.66180445115663 L371.56116535929254,86.92646148294261 L364.5105053730515,38.4533766049054 L409.5070648516684,57.80954871930551 L427.6375566291558,12.305295822005434 L456.9276341633355,51.56651233240834 L495.38122707439453,21.223919231858574 L501.11657004260843,69.87016888043829 L549.5896549206457,62.819508894197256 L530.2334828062455,107.81606837281413 Z" fill="#8EC6F3" stroke="#222" stroke-width="3"/>
        
      </g>
    </g>
  
  <text x="50%" y="95%" text-anchor="middle" font-size="32" fill="#fff" opacity="0.7" font-family="Arial">Gears Collection #52</text>
</svg>