<svg width="512" height="512" viewBox="0 0 512 512" xmlns="http://www.w3.org/2000/svg">
  <rect width="100%" height="100%" fill="#f5e663" />
  
    <g>
      <g>
        <animateTransform attributeName="transform" attributeType="XML"
          type="rotate"
          from="0 346.4545712940393 298.63766564918353"
          to="360 346.4545712940393 298.63766564918353"
          dur="4.3s"
          repeatCount="indefinite"/>
        <path d="M409.9070424219631,290.28398934710026 L390.871301083586,304.48523906064185 L405.58286137476165,323.12940532054927 L381.9968009390866,325.9101776687742 L385.4153027505974,349.41227942782257 L363.5987890639953,340.02746870568916 L354.8082475961226,362.0901367771074 L340.60699788258097,343.05439543873024 L321.96283162267355,357.7659557299059 L319.1820592744486,334.17989529423085 L295.67995751540025,337.59839710574164 L305.06476823753366,315.78188341913955 L283.00210016611544,306.9913419512668 L302.0378415044926,292.7900922377252 L287.3262812133169,274.1459259778178 L310.91234164899197,271.36515362959284 L307.4938398374811,247.8630518705445 L329.31035352408327,257.2478625926779 L338.10089499195595,235.18519452125966 L352.3021447054976,254.22093585963682 L370.946310965405,239.5093755684612 L373.72708331363,263.0954360041362 L397.2291850726783,259.67693419262537 L387.8443743505449,281.4934478792275 Z" fill="#8EC6F3" stroke="#222" stroke-width="3"/>
        <line x1="382.29457129403926" y1="298.63766564918353" x2="355.41457129403926" y2="298.63766564918353" stroke="#333" stroke-width="2"/><line x1="377.49292176567354" y1="316.55766564918355" x2="354.21415891194783" y2="303.11766564918355" stroke="#333" stroke-width="2"/><line x1="364.3745712940393" y1="329.6760161208178" x2="350.9345712940393" y2="306.3972532670921" stroke="#333" stroke-width="2"/><line x1="346.4545712940393" y1="334.4776656491835" x2="346.4545712940393" y2="307.5976656491835" stroke="#333" stroke-width="2"/><line x1="328.53457129403927" y1="329.6760161208178" x2="341.97457129403927" y2="306.3972532670921" stroke="#333" stroke-width="2"/><line x1="315.416220822405" y1="316.55766564918355" x2="338.69498367613073" y2="303.11766564918355" stroke="#333" stroke-width="2"/><line x1="310.6145712940393" y1="298.63766564918353" x2="337.4945712940393" y2="298.63766564918353" stroke="#333" stroke-width="2"/><line x1="315.416220822405" y1="280.7176656491835" x2="338.69498367613073" y2="294.1576656491835" stroke="#333" stroke-width="2"/><line x1="328.53457129403927" y1="267.5993151775493" x2="341.97457129403927" y2="290.878078031275" stroke="#333" stroke-width="2"/><line x1="346.4545712940393" y1="262.79766564918356" x2="346.4545712940393" y2="289.67766564918355" stroke="#333" stroke-width="2"/><line x1="364.3745712940393" y1="267.5993151775493" x2="350.9345712940393" y2="290.878078031275" stroke="#333" stroke-width="2"/><line x1="377.49292176567354" y1="280.7176656491835" x2="354.21415891194783" y2="294.1576656491835" stroke="#333" stroke-width="2"/><circle cx="346.4545712940393" cy="298.63766564918353" r="12.8" fill="#222"/>
      </g>
    </g>
  
    <g>
      <g>
        <animateTransform attributeName="transform" attributeType="XML"
          type="rotate"
          from="0 130.72810322827343 318.50561478150485"
          to="-360 130.72810322827343 318.50561478150485"
          dur="4.04s"
          repeatCount="indefinite"/>
        <path d="M219.89665473810226,309.7232790079762 L193.1460892851536,324.6532498229749 L216.46995730987933,344.51512186350465 L186.04220492820224,348.0716181152314 L199.98983984957465,375.3472530425675 L170.51725001101727,366.9888304164157 L172.9652508478828,397.52576006711746 L148.9347581856733,378.52491263862896 L139.51043900180204,407.6741662913337 L124.5804681868034,380.923600838385 L104.7185961462736,404.2474688631107 L101.16209989454688,373.81971648143366 L73.8864649672108,387.76735140280607 L82.24488759336256,358.2947615642487 L51.707957942660826,360.74276240111425 L70.7088053711493,336.71226973890475 L41.559551718444595,327.2879505550335 L68.31011717139324,312.3579797400348 L44.986249146667504,292.49610769950505 L75.41400152834461,288.9396114477783 L61.46636660697219,261.66397652044225 L90.93895644552961,270.02239914659395 L88.49095560866402,239.48546949589223 L112.52144827087355,258.48631692438073 L121.94576745474481,229.33706327167602 L136.87573826974344,256.08762872462466 L156.73761031027323,232.7637606998989 L160.294106562,263.19151308157603 L187.56974148933608,249.24387816020362 L179.21131886318426,278.716467998761 L209.748248513886,276.26846716189544 L190.74740108539754,300.2989598241049 Z" fill="#F5F5F5" stroke="#222" stroke-width="3"/>
        <line x1="180.9041032282734" y1="318.50561478150485" x2="143.27210322827344" y2="318.50561478150485" stroke="#333" stroke-width="2"/><line x1="177.08468265155975" y1="337.7071386838556" x2="142.317248084095" y2="323.30599575709255" stroke="#333" stroke-width="2"/><line x1="166.20789308108965" y1="353.98540463432107" x2="139.59805069147748" y2="327.3755622447089" stroke="#333" stroke-width="2"/><line x1="149.92962713062417" y1="364.8621942047912" x2="135.52848420386113" y2="330.09475963732643" stroke="#333" stroke-width="2"/><line x1="130.72810322827343" y1="368.68161478150483" x2="130.72810322827343" y2="331.04961478150483" stroke="#333" stroke-width="2"/><line x1="111.52657932592268" y1="364.8621942047912" x2="125.92772225268574" y2="330.09475963732643" stroke="#333" stroke-width="2"/><line x1="95.24831337545723" y1="353.98540463432107" x2="121.85815576506937" y2="327.3755622447089" stroke="#333" stroke-width="2"/><line x1="84.3715238049871" y1="337.7071386838556" x2="119.13895837245184" y2="323.30599575709255" stroke="#333" stroke-width="2"/><line x1="80.55210322827344" y1="318.50561478150485" x2="118.18410322827343" y2="318.50561478150485" stroke="#333" stroke-width="2"/><line x1="84.3715238049871" y1="299.30409087915416" x2="119.13895837245184" y2="313.70523380591715" stroke="#333" stroke-width="2"/><line x1="95.24831337545722" y1="283.0258249286886" x2="121.85815576506937" y2="309.6356673183008" stroke="#333" stroke-width="2"/><line x1="111.5265793259227" y1="272.1490353582185" x2="125.92772225268574" y2="306.91646992568326" stroke="#333" stroke-width="2"/><line x1="130.72810322827343" y1="268.32961478150486" x2="130.72810322827343" y2="305.96161478150486" stroke="#333" stroke-width="2"/><line x1="149.92962713062417" y1="272.14903535821855" x2="135.52848420386113" y2="306.91646992568326" stroke="#333" stroke-width="2"/><line x1="166.20789308108962" y1="283.0258249286886" x2="139.59805069147748" y2="309.6356673183008" stroke="#333" stroke-width="2"/><line x1="177.08468265155975" y1="299.3040908791541" x2="142.317248084095" y2="313.70523380591715" stroke="#333" stroke-width="2"/><circle cx="130.72810322827343" cy="318.50561478150485" r="17.919999999999998" fill="#222"/>
      </g>
    </g>
  
    <g>
      <g>
        <animateTransform attributeName="transform" attributeType="XML"
          type="rotate"
          from="0 179.3735768775204 93.12461426153206"
          to="360 179.3735768775204 93.12461426153206"
          dur="4.49s"
          repeatCount="indefinite"/>
        <path d="M293.5880249077834,78.08799691778212 L259.3236904987045,103.65024640215702 L285.80449902282066,137.2097456699904 L243.3495902386056,142.2151358967953 L249.502893499325,184.51891906308236 L210.23316886344125,167.62625976324222 L194.41019422127036,207.33906229179502 L168.84794473689547,173.07472788271613 L135.28844546906208,199.5555364068323 L130.28305524225718,157.10062762261725 L87.9792720759701,163.25393088333664 L104.87193137581025,123.9842062474529 L65.15912884725745,108.161231605282 L99.42346325633633,82.59898212090712 L72.94265473222015,49.03948285307378 L115.39756351643521,44.03409262626882 L109.24426025571576,1.7303094599817967 L148.5139848915996,18.622968759821887 L164.33695953377045,-21.089833768730898 L189.8992090181454,13.174500640347986 L223.4587082859788,-13.306307883768156 L228.46409851278364,29.14860090044686 L270.7678816790707,22.99529763972741 L253.8752223792306,62.26502227561124 Z" fill="#F5F5F5" stroke="#222" stroke-width="3"/>
        <line x1="243.8855768775204" y1="93.12461426153206" x2="195.5015768775204" y2="93.12461426153206" stroke="#333" stroke-width="2"/><line x1="235.24260772646213" y1="125.38061426153206" x2="193.34083458975584" y2="101.18861426153205" stroke="#333" stroke-width="2"/><line x1="211.6295768775204" y1="148.99364511047378" x2="187.4375768775204" y2="107.09187197376748" stroke="#333" stroke-width="2"/><line x1="179.3735768775204" y1="157.63661426153206" x2="179.3735768775204" y2="109.25261426153206" stroke="#333" stroke-width="2"/><line x1="147.11757687752043" y1="148.99364511047378" x2="171.3095768775204" y2="107.09187197376748" stroke="#333" stroke-width="2"/><line x1="123.50454602857869" y1="125.38061426153206" x2="165.40631916528497" y2="101.18861426153205" stroke="#333" stroke-width="2"/><line x1="114.8615768775204" y1="93.12461426153207" x2="163.24557687752042" y2="93.12461426153206" stroke="#333" stroke-width="2"/><line x1="123.5045460285787" y1="60.86861426153205" x2="165.40631916528497" y2="85.06061426153205" stroke="#333" stroke-width="2"/><line x1="147.11757687752038" y1="37.25558341259036" x2="171.30957687752039" y2="79.15735654929664" stroke="#333" stroke-width="2"/><line x1="179.3735768775204" y1="28.61261426153206" x2="179.3735768775204" y2="76.99661426153206" stroke="#333" stroke-width="2"/><line x1="211.6295768775204" y1="37.255583412590354" x2="187.4375768775204" y2="79.15735654929664" stroke="#333" stroke-width="2"/><line x1="235.2426077264621" y1="60.86861426153203" x2="193.34083458975584" y2="85.06061426153205" stroke="#333" stroke-width="2"/><circle cx="179.3735768775204" cy="93.12461426153206" r="23.040000000000003" fill="#222"/>
      </g>
    </g>
  
  <text x="50%" y="95%" text-anchor="middle" font-size="32" fill="#fff" opacity="0.7" font-family="Arial">Gears Collection #31</text>
</svg>