<svg width="512" height="512" viewBox="0 0 512 512" xmlns="http://www.w3.org/2000/svg">
  <rect width="100%" height="100%" fill="#b2f5ea" />
  
    <g>
      <g>
        <animateTransform attributeName="transform" attributeType="XML"
          type="rotate"
          from="0 342.4027743439594 306.3444196080046"
          to="360 342.4027743439594 306.3444196080046"
          dur="5.43s"
          repeatCount="indefinite"/>
        <path d="M403.21146172895965,294.24881964300465 L384.9688555134596,314.8113395835046 L393.9538903067172,340.78977405521994 L366.5145224570101,342.43020078193507 L354.49837430895934,367.1531069930049 L333.93585436845945,348.9105007775048 L307.95741989674406,357.89553557076243 L306.3169931700289,330.45616772105535 L281.5940869589591,318.4400195730046 L299.8366931744592,297.8774996325047 L290.85165838120156,271.8990651607893 L318.2910262309086,270.25863843407416 L330.3071743789594,245.53573222300435 L350.86969431945937,263.7783384385044 L376.8481287911747,254.7933036452468 L378.48855551788984,282.2326714949539 Z" fill="#9DE09D" stroke="#222" stroke-width="3"/>
        
      </g>
    </g>
  
    <g>
      <g>
        <animateTransform attributeName="transform" attributeType="XML"
          type="rotate"
          from="0 151.09968815064474 348.7142091262608"
          to="-360 151.09968815064474 348.7142091262608"
          dur="4.53s"
          repeatCount="indefinite"/>
        <path d="M236.23185048964513,331.7803691752609 L210.692201787945,360.5678970919608 L223.27125049850565,396.9377053523623 L184.85613550891577,399.2343027697635 L168.03352810164466,433.8463714652612 L139.24600018494482,408.3067227635611 L102.87619192454326,420.8857714741217 L100.57959450714209,382.47065648453184 L65.96752581164434,365.64804907726074 L91.50717451334447,336.8605211605609 L78.92812580278381,300.49071290015934 L117.34324079237368,298.1941154827582 L134.16584819964476,263.5820467872604 L162.95337611634469,289.12169548896054 L199.32318437674618,276.5426467783999 L201.61978179414737,314.9577617679898 Z" fill="#8EC6F3" stroke="#222" stroke-width="3"/>
        
      </g>
    </g>
  
    <g>
      <g>
        <animateTransform attributeName="transform" attributeType="XML"
          type="rotate"
          from="0 125.9720464407369 131.53019927231298"
          to="360 125.9720464407369 131.53019927231298"
          dur="4.44s"
          repeatCount="indefinite"/>
        <path d="M236.19806525115428,114.07211297382321 L203.13025960802906,143.75085968125583 L225.40837454015877,182.1955390432464 L181.21122818703,186.76938101860608 L176.63738621167033,230.96652737173486 L138.19270684967975,208.68841243960514 L108.51396014224711,241.75621808273036 L90.5063086010835,201.1356289419083 L47.0589296603182,210.4433160527317 L56.36661677114161,166.99593711196638 L15.746027630319531,148.98828557080276 L48.81383327344474,119.30953886337016 L26.535718341315018,80.86485950137961 L70.7328646944438,76.29101752601989 L75.30670666980346,32.09387117289113 L113.75138603179406,54.371986105020824 L143.43013273922665,21.304180461895598 L161.4377842803903,61.924769602717674 L204.8851632211556,52.61708249189425 L195.5774761103322,96.06446143265957 Z" fill="#C0C0C0" stroke="#222" stroke-width="3"/>
        
      </g>
    </g>
  
    <g>
      <g>
        <animateTransform attributeName="transform" attributeType="XML"
          type="rotate"
          from="0 265.28404380777425 36.19598154133914"
          to="-360 265.28404380777425 36.19598154133914"
          dur="5.07s"
          repeatCount="indefinite"/>
        <path d="M401.0272405258619,22.82644360038707 L360.3042815104356,45.55465810000558 L395.81070560164756,75.7908115188478 L349.4898861277552,81.2049419734854 L370.72266964645155,122.72722550126038 L325.8559145797191,110.00301962841326 L329.5825587108403,156.49004199845479 L293.00042479203034,127.56464479705045 L278.6535817487263,171.9391782594268 L255.92536724910784,131.2162192440005 L225.68921383026557,166.72264333521244 L220.27508337562801,120.4018238613201 L178.75279984785303,141.63460738001646 L191.4770057207001,96.76785231328401 L144.98998335065863,100.49449644440524 L173.91538055206297,63.912362525595206 L129.5408470896866,49.565519482291236 L170.2638061051129,26.83730498267269 L134.75738201390095,-3.3988484361694944 L181.0782014877933,-8.812978890807123 L159.8454179690969,-50.335262418582076 L204.7121730358294,-37.61105654573501 L200.98552890470813,-84.09807891577648 L237.56766282351816,-55.17268171437216 L251.9145058668222,-99.54721517674852 L274.64272036644064,-58.824256161322225 L304.87887378528285,-94.33068025253417 L310.2930042399205,-48.00986077864181 L351.8152877676955,-69.24264429733817 L339.09108189484834,-24.37588923060578 L385.5781042648899,-28.102533361726984 L356.65270706348554,8.479600557082978 Z" fill="#8EC6F3" stroke="#222" stroke-width="3"/>
        
      </g>
    </g>
  
  <text x="50%" y="95%" text-anchor="middle" font-size="32" fill="#fff" opacity="0.7" font-family="Arial">Gears Collection #88</text>
</svg>