<svg width="512" height="512" viewBox="0 0 512 512" xmlns="http://www.w3.org/2000/svg">
  <rect width="100%" height="100%" fill="#8ec6f3" />
  
    <g>
      <g>
        <animateTransform attributeName="transform" attributeType="XML"
          type="rotate"
          from="0 355.7074102027486 263.64410561549425"
          to="360 355.7074102027486 263.64410561549425"
          dur="5.1s"
          repeatCount="indefinite"/>
        <path d="M415.53531230734563,251.74359597251043 L397.5869416759665,271.97446236558295 L406.42705655320384,297.53388982969 L379.4302591526856,299.14785806081295 L367.6079198457324,323.4720077200913 L347.37705345265994,305.5236370887122 L321.81762598855283,314.3637519659495 L320.2036577574299,287.3669545654313 L295.8795080981515,275.5446152584781 L313.82787872953065,255.31374886540559 L304.9877638522933,229.7543214012985 L331.98456125281155,228.1403531701756 L343.8069005597647,203.8162035108972 L364.0377669528373,221.76457414227633 L389.59719441694426,212.924459265039 L391.2111626480673,239.92125666555725 Z" fill="#B87333" stroke="#222" stroke-width="3"/>
        
      </g>
    </g>
  
    <g>
      <g>
        <animateTransform attributeName="transform" attributeType="XML"
          type="rotate"
          from="0 202.4574353880202 385.3568466482234"
          to="-360 202.4574353880202 385.3568466482234"
          dur="5.02s"
          repeatCount="indefinite"/>
        <path d="M287.1268265493436,374.20990983263096 L261.7260092009466,393.15970241913806 L281.3567474644841,418.038011772202 L249.88409807063022,421.7486048743647 L254.44566142536493,453.10922190909486 L225.33425097480526,440.5863651017481 L213.60437220361263,470.0262378095468 L194.65457961710553,444.62542046114976 L169.77627026404156,464.2561587246873 L166.06567716187888,432.7835093308334 L134.70506012714873,437.3450726855681 L147.22791693449548,408.23366223500847 L117.7880442266968,396.5037834638158 L143.18886157509382,377.5539908773087 L123.5581233115563,352.67568152424474 L155.0307727054102,348.9650884220821 L150.46920935067544,317.6044713873519 L179.58061980123514,330.12732819469863 L191.3104985724278,300.6874554869 L210.2602911589349,326.088272835297 L235.13860051199887,306.45753457175954 L238.8491936141615,337.93018396561337 L270.2098106488917,333.3686206108786 L257.6869538415449,362.48003106143835 Z" fill="#C9AE5D" stroke="#222" stroke-width="3"/>
        <line x1="250.28143538802018" y1="385.3568466482234" x2="214.4134353880202" y2="385.3568466482234" stroke="#333" stroke-width="2"/><line x1="243.87423429860718" y1="409.26884664822336" x2="212.81163511566695" y2="391.3348466482234" stroke="#333" stroke-width="2"/><line x1="226.3694353880202" y1="426.77364555881036" x2="208.4354353880202" y2="395.7110463758701" stroke="#333" stroke-width="2"/><line x1="202.4574353880202" y1="433.1808466482234" x2="202.4574353880202" y2="397.3128466482234" stroke="#333" stroke-width="2"/><line x1="178.54543538802022" y1="426.77364555881036" x2="196.4794353880202" y2="395.7110463758701" stroke="#333" stroke-width="2"/><line x1="161.04063647743322" y1="409.26884664822336" x2="192.10323566037346" y2="391.3348466482234" stroke="#333" stroke-width="2"/><line x1="154.63343538802022" y1="385.3568466482234" x2="190.5014353880202" y2="385.3568466482234" stroke="#333" stroke-width="2"/><line x1="161.04063647743322" y1="361.4448466482234" x2="192.10323566037346" y2="379.3788466482234" stroke="#333" stroke-width="2"/><line x1="178.5454353880202" y1="343.9400477376364" x2="196.4794353880202" y2="375.00264692057664" stroke="#333" stroke-width="2"/><line x1="202.4574353880202" y1="337.53284664822337" x2="202.4574353880202" y2="373.40084664822336" stroke="#333" stroke-width="2"/><line x1="226.3694353880202" y1="343.9400477376364" x2="208.4354353880202" y2="375.00264692057664" stroke="#333" stroke-width="2"/><line x1="243.87423429860718" y1="361.44484664822335" x2="212.81163511566695" y2="379.3788466482234" stroke="#333" stroke-width="2"/><circle cx="202.4574353880202" cy="385.3568466482234" r="17.08" fill="#222"/>
      </g>
    </g>
  
    <g>
      <g>
        <animateTransform attributeName="transform" attributeType="XML"
          type="rotate"
          from="0 76.43535743312111 268.5115602475881"
          to="360 76.43535743312111 268.5115602475881"
          dur="3.59s"
          repeatCount="indefinite"/>
        <path d="M185.70664042172834,257.7492782394023 L152.92525552514616,276.0451576533181 L181.50740629651764,300.384817810128 L144.21982581093567,304.7431134400343 L161.31190521234964,338.16794284875635 L125.19482525393892,327.925143693048 L128.19471913661565,365.3465150730375 L98.74663772689908,342.0619944519657 L87.19763944130686,377.7828432361953 L68.90176002739109,345.0014583396131 L44.56209987058114,373.58360911098464 L40.20380424067496,336.29602862540264 L6.778974831952851,353.3881080268166 L17.02177398766115,317.2710280684059 L-20.39959739232826,320.27092195108264 L2.8849232287435456,290.8228405413661 L-32.8359255554861,279.27384225577384 L-0.05454065890394588,260.9779628418581 L-28.63669143027542,236.63830268504813 L8.65088905530655,232.2800070551419 L-8.441190346107419,198.85517764641983 L27.675889612303344,209.0979768021281 L24.675995729626543,171.67660542213872 L54.12407713934313,194.96112604321053 L65.67307542493538,159.24027725898085 L83.9689548388511,192.02166215556304 L108.30861499566105,163.43951138419155 L112.66691062556728,200.72709186977352 L146.0917400342894,183.63501246835958 L135.84894087858103,219.75209242677025 L173.27031225857047,216.75219854409352 L149.98579163749866,246.20027995381002 Z" fill="#8EC6F3" stroke="#222" stroke-width="3"/>
        <line x1="137.9233574331211" y1="268.5115602475881" x2="91.80735743312111" y2="268.5115602475881" stroke="#333" stroke-width="2"/><line x1="133.24286212817512" y1="292.0419991368527" x2="90.6372336068846" y2="274.3941699699042" stroke="#333" stroke-width="2"/><line x1="119.91393919471955" y1="311.9901420091865" x2="87.30500287352072" y2="279.3812056879877" stroke="#333" stroke-width="2"/><line x1="99.96579632238576" y1="325.31906494264206" x2="82.31796715543727" y2="282.71343642135156" stroke="#333" stroke-width="2"/><line x1="76.43535743312111" y1="329.9995602475881" x2="76.43535743312111" y2="283.8835602475881" stroke="#333" stroke-width="2"/><line x1="52.904918543856475" y1="325.31906494264206" x2="70.55274771080495" y2="282.71343642135156" stroke="#333" stroke-width="2"/><line x1="32.956775671522685" y1="311.9901420091865" x2="65.5657119927215" y2="279.3812056879877" stroke="#333" stroke-width="2"/><line x1="19.627852738067112" y1="292.0419991368527" x2="62.23348125935761" y2="274.3941699699042" stroke="#333" stroke-width="2"/><line x1="14.947357433121113" y1="268.5115602475881" x2="61.06335743312111" y2="268.5115602475881" stroke="#333" stroke-width="2"/><line x1="19.627852738067098" y1="244.98112135832346" x2="62.23348125935761" y2="262.62895052527193" stroke="#333" stroke-width="2"/><line x1="32.95677567152267" y1="225.03297848598964" x2="65.5657119927215" y2="257.64191480718847" stroke="#333" stroke-width="2"/><line x1="52.90491854385649" y1="211.70405555253407" x2="70.55274771080495" y2="254.30968407382457" stroke="#333" stroke-width="2"/><line x1="76.4353574331211" y1="207.02356024758808" x2="76.43535743312111" y2="253.13956024758807" stroke="#333" stroke-width="2"/><line x1="99.96579632238577" y1="211.7040555525341" x2="82.31796715543727" y2="254.30968407382457" stroke="#333" stroke-width="2"/><line x1="119.91393919471953" y1="225.03297848598964" x2="87.30500287352072" y2="257.64191480718847" stroke="#333" stroke-width="2"/><line x1="133.24286212817512" y1="244.98112135832346" x2="90.63723360688462" y2="262.62895052527193" stroke="#333" stroke-width="2"/><circle cx="76.43535743312111" cy="268.5115602475881" r="21.96" fill="#222"/>
      </g>
    </g>
  
    <g>
      <g>
        <animateTransform attributeName="transform" attributeType="XML"
          type="rotate"
          from="0 213.45938493288548 40.15214601550565"
          to="-360 213.45938493288548 40.15214601550565"
          dur="4.41s"
          repeatCount="indefinite"/>
        <path d="M346.5112853292509,22.635531019574728 L306.59571521034127,52.41377651265729 L337.4440181959002,91.5082626389007 L287.9869977198441,97.33919465658488 L295.1551687058558,146.62016428258943 L249.40866656926204,126.94138929961593 L230.97599992881644,173.20404641187102 L201.19775443573386,133.28847629296143 L162.10326830949043,164.13677927852035 L156.27233629180625,114.67975880246429 L106.99136666580169,121.84792978847594 L126.6701416487752,76.1014276518822 L80.40748453652012,57.66876101143657 L120.32305465542971,27.89051551835403 L89.47475166987076,-11.203970607889332 L138.93177214592686,-17.034902625573572 L131.76360115991514,-66.3158722515781 L177.510103296509,-46.63709726860465 L195.94276993695456,-92.89975438085972 L225.72101543003717,-52.984184261950105 L264.8155015562806,-83.83248724750904 L270.6464335739647,-34.37546677145299 L319.92740319996926,-41.54363775746471 L300.24862821699577,4.202864379129132 Z" fill="#C0C0C0" stroke="#222" stroke-width="3"/>
        
      </g>
    </g>
  
    <g>
      <g>
        <animateTransform attributeName="transform" attributeType="XML"
          type="rotate"
          from="0 404.54101818686394 42.609358415112865"
          to="360 404.54101818686394 42.609358415112865"
          dur="4.61s"
          repeatCount="indefinite"/>
        <path d="M561.7841732007503,21.907904329012688 L514.6112266965844,57.10037627538299 L551.068312043154,103.3029507882161 L492.61910602599687,110.19405226366104 L501.09058082764705,168.43519818530274 L447.0265328480362,145.17846411451592 L425.24247227296416,199.85251342899917 L390.0500003265938,152.6795669248333 L343.8474258137607,189.13665227140294 L336.95632433831577,130.6874462542458 L278.715178416674,139.15892105589592 L301.9719124874609,85.09487307628515 L247.29786317297763,63.31081250121304 L294.4708096771435,28.118340554842767 L258.01372433057384,-18.084233957990286 L316.462930347731,-24.975335433435305 L307.99145554608083,-83.216481355077 L362.05550352569173,-59.9597472842902 L383.83956410076377,-114.63379659877344 L419.0320360471341,-67.46085009460757 L465.2346105599672,-103.91793544117718 L472.1257120354121,-45.468729424020054 L530.3668579570538,-53.94020422567026 L507.110123886267,0.1238437539406263 Z" fill="#C9AE5D" stroke="#222" stroke-width="3"/>
        
      </g>
    </g>
  
  <text x="50%" y="95%" text-anchor="middle" font-size="32" fill="#fff" opacity="0.7" font-family="Arial">Gears Collection #63</text>
</svg>