<svg width="512" height="512" viewBox="0 0 512 512" xmlns="http://www.w3.org/2000/svg">
  <rect width="100%" height="100%" fill="#f5e663" />
  
    <g>
      <g>
        <animateTransform attributeName="transform" attributeType="XML"
          type="rotate"
          from="0 329.07625329654417 324.26317604784674"
          to="360 329.07625329654417 324.26317604784674"
          dur="4.01s"
          repeatCount="indefinite"/>
        <path d="M389.55438984034663,316.3010783224236 L371.4109488772059,329.83664445564295 L385.43290477973267,347.6068654221172 L362.9524409269799,350.2572890665191 L366.2107004660761,372.65772980561206 L345.4168358585335,363.71283208607866 L337.03835102196734,384.74131259164915 L323.50278488874795,366.5978716285084 L305.7325639222737,380.61982753103524 L303.0821402778718,358.1393636782825 L280.68169953877884,361.3976232173787 L289.62659725831224,340.60375860983606 L268.5981167527417,332.22527377326986 L286.74155771588244,318.68970764005053 L272.71960181335567,300.9194866735763 L295.20006566610846,298.2690630291744 L291.94180612701217,275.8686222900814 L312.73567073455484,284.8135200096148 L321.11415557112105,263.78503950404433 L334.6497217043404,281.92848046718507 L352.41994267081463,267.90652456465824 L355.0703663152165,290.386988417411 L377.4708070543095,287.12872887831475 L368.5259093347761,307.9225934858574 Z" fill="#F5F5F5" stroke="#222" stroke-width="3"/>
        
      </g>
    </g>
  
    <g>
      <g>
        <animateTransform attributeName="transform" attributeType="XML"
          type="rotate"
          from="0 199.0437873642338 383.8905385170826"
          to="-360 199.0437873642338 383.8905385170826"
          dur="3.7s"
          repeatCount="indefinite"/>
        <path d="M282.80285031066967,367.22982501690524 L257.6751314267389,395.5530379672067 L270.05129225487116,431.3362364169566 L232.25577589414561,433.5957919405287 L215.70450086441116,467.6496014635185 L187.38128791410966,442.52188257958767 L151.59808946435976,454.8980434077199 L149.33853394078764,417.1025270469944 L115.28472441779792,400.5512520172599 L140.41244330172867,372.22803906695844 L128.03628247359643,336.44484061720857 L165.83179883432194,334.1852850936365 L182.3830738640564,300.1314755706467 L210.70628681435795,325.2591944545775 L246.48948526410777,312.8830336264452 L248.74904078767995,350.67854998717075 Z" fill="#8EC6F3" stroke="#222" stroke-width="3"/>
        
      </g>
    </g>
  
    <g>
      <g>
        <animateTransform attributeName="transform" attributeType="XML"
          type="rotate"
          from="0 117.16492461515892 141.43638517013574"
          to="360 117.16492461515892 141.43638517013574"
          dur="5.09s"
          repeatCount="indefinite"/>
        <path d="M224.85514840343362,120.01546781276485 L192.54808126695121,156.43102732029536 L208.4602880459784,202.43799675568806 L159.86605272504556,205.34313957170937 L138.5858419725298,249.12660895841043 L102.17028246499933,216.81954182192806 L56.16331302960659,232.7317486009552 L53.25817021358529,184.13751328002235 L9.47470082688423,162.85730252750662 L41.78176796336662,126.44174301997614 L25.86956118433946,80.43477358458341 L74.46379650527224,77.52963076856214 L95.744007257788,33.74616138186104 L132.15956676531854,66.05322851834345 L178.16653620071122,50.141021739316244 L181.07167901673256,98.73525706024911 Z" fill="#FFD700" stroke="#222" stroke-width="3"/>
        
      </g>
    </g>
  
    <g>
      <g>
        <animateTransform attributeName="transform" attributeType="XML"
          type="rotate"
          from="0 367.21281357795044 66.1797953428665"
          to="-360 367.21281357795044 66.1797953428665"
          dur="4.15s"
          repeatCount="indefinite"/>
        <path d="M498.834198208064,39.998674128302085 L459.34778281902993,84.50658019306158 L478.79603554895203,140.73732061409711 L419.4030812678119,144.28805072256762 L393.39393479251487,197.80117997298004 L348.8860287277554,158.314764583946 L292.6552883067198,177.76301731386806 L289.1045581982493,118.37006303272793 L235.5914289478369,92.3609165574309 L275.07784433687095,47.853010492671444 L255.62959160694885,-8.377729928364133 L315.0225458880889,-11.928460036834565 L341.03169236338596,-65.44158928724704 L385.53959842814555,-25.955173898212976 L441.77033884918103,-45.40342662813512 L445.32106895765156,13.989527653005062 Z" fill="#8EC6F3" stroke="#222" stroke-width="3"/>
        
      </g>
    </g>
  
  <text x="50%" y="95%" text-anchor="middle" font-size="32" fill="#fff" opacity="0.7" font-family="Arial">Gears Collection #76</text>
</svg>