<svg width="512" height="512" viewBox="0 0 512 512" xmlns="http://www.w3.org/2000/svg">
  <rect width="100%" height="100%" fill="#b2f5ea" />
  
    <g>
      <g>
        <animateTransform attributeName="transform" attributeType="XML"
          type="rotate"
          from="0 350.7152123935421 288.07847473378695"
          to="360 350.7152123935421 288.07847473378695"
          dur="4.32s"
          repeatCount="indefinite"/>
        <path d="M412.41666544721835,282.0014120333542 L393.90622953111546,292.3324186240899 L410.04551320893904,306.0761247235636 L388.9905952662607,308.5370931120352 L398.6418605020318,327.410858351933 L378.2478809262443,321.6271284097297 L379.941810076754,342.75759312338494 L363.3135673863858,329.60968530456483 L356.79227509397487,349.7799277874632 L346.4612685032392,331.2694918713603 L332.71756240376544,347.4087755491839 L330.25659401529384,326.3538576065056 L311.3828287753961,336.00512284227665 L317.16655871759934,315.61114326648914 L296.03609400394413,317.3050724169988 L309.18400182276423,300.6768297266306 L289.01375933986594,294.1555374342197 L307.5241952559688,283.824530843484 L291.3849115781452,270.0808247440103 L312.43982952082354,267.6198563555387 L302.7885642850524,248.74609111564095 L323.1825438608399,254.52982105784415 L321.48861471033024,233.39935634418896 L338.11685740069845,246.5472641630091 L344.63814969310937,226.37702168011074 L354.96915628384505,244.8874575962136 L368.7128623833188,228.74817391839 L371.1738307717904,249.80309186106834 L390.04759601168814,240.15182662529725 L384.2638660694849,260.5458062010847 L405.3943307831401,258.85187705057507 L392.24642296431995,275.4801197409432 Z" fill="#B87333" stroke="#222" stroke-width="3"/>
        
      </g>
    </g>
  
    <g>
      <g>
        <animateTransform attributeName="transform" attributeType="XML"
          type="rotate"
          from="0 120.614473477248 291.64770971825845"
          to="-360 120.614473477248 291.64770971825845"
          dur="3.93s"
          repeatCount="indefinite"/>
        <path d="M206.34582144090595,278.06919815276643 L180.62641705180857,301.15266781410287 L197.95383977679833,331.0540850956511 L163.57828150214263,334.61151774315306 L160.02084885464066,368.98707601780876 L130.1194315730924,351.65965329281903 L107.03596191175595,377.3790576819164 L93.03001071307314,345.78526612794366 L59.23760487025568,353.0245783252508 L66.47691706756278,319.2321724824333 L34.883125513590045,305.2262212837505 L60.602529902687436,282.14275162241404 L43.27510717769765,252.24133434086585 L77.65066545235337,248.68390169336385 L81.20809809985533,214.30834341870815 L111.10951538140355,231.6357661436979 L134.19298504274002,205.9163617546005 L148.19893624142284,237.51015330857322 L181.9913420842403,230.27084111126612 L174.7520298869332,264.0632469540836 Z" fill="#8EC6F3" stroke="#222" stroke-width="3"/>
        
      </g>
    </g>
  
    <g>
      <g>
        <animateTransform attributeName="transform" attributeType="XML"
          type="rotate"
          from="0 315.84157446928907 86.23844379531471"
          to="360 315.84157446928907 86.23844379531471"
          dur="3.7s"
          repeatCount="indefinite"/>
        <path d="M426.48682099860633,71.67172074355695 L393.29324703981115,96.43514993154514 L418.9465302975487,128.94591484725873 L377.8183374128404,133.79488662947597 L383.7793499466623,174.77667657181655 L345.7368042056499,158.41191287509645 L330.40829752104685,196.88369032463197 L305.64486833305864,163.6901163658368 L273.13410341734505,189.34339962357433 L268.2851316351278,148.21520673886602 L227.30334169278723,154.17621927268792 L243.66810538950733,116.13367353167553 L205.1963279399718,100.80516684707247 L238.389901898767,76.0417376590843 L212.73661864102945,43.53097274337075 L253.86481152573776,38.68200096115345 L247.90379899191583,-2.2997889811871204 L285.94634473292825,14.06497471553297 L301.2748514175313,-24.40680273400254 L326.03828060551956,8.78677122479263 L358.5490455212331,-16.866512032944883 L363.39801730345033,24.261680851763415 L404.3798072457909,18.300668317941458 L388.0150435490708,56.34321405895391 Z" fill="#C9AE5D" stroke="#222" stroke-width="3"/>
        <line x1="378.33757446928905" y1="86.23844379531471" x2="331.4655744692891" y2="86.23844379531471" stroke="#333" stroke-width="2"/><line x1="369.9646981042014" y1="117.48644379531471" x2="329.3723553780171" y2="94.0504437953147" stroke="#333" stroke-width="2"/><line x1="347.08957446928906" y1="140.36156743022698" x2="323.6535744692891" y2="99.76922470404278" stroke="#333" stroke-width="2"/><line x1="315.84157446928907" y1="148.73444379531472" x2="315.84157446928907" y2="101.8624437953147" stroke="#333" stroke-width="2"/><line x1="284.5935744692891" y1="140.361567430227" x2="308.02957446928906" y2="99.76922470404278" stroke="#333" stroke-width="2"/><line x1="261.71845083437677" y1="117.48644379531471" x2="302.310793560561" y2="94.0504437953147" stroke="#333" stroke-width="2"/><line x1="253.34557446928906" y1="86.23844379531472" x2="300.21757446928905" y2="86.23844379531471" stroke="#333" stroke-width="2"/><line x1="261.71845083437677" y1="54.9904437953147" x2="302.310793560561" y2="78.42644379531471" stroke="#333" stroke-width="2"/><line x1="284.593574469289" y1="32.11532016040243" x2="308.02957446928906" y2="72.70766288658663" stroke="#333" stroke-width="2"/><line x1="315.84157446928907" y1="23.7424437953147" x2="315.84157446928907" y2="70.61444379531471" stroke="#333" stroke-width="2"/><line x1="347.08957446928906" y1="32.115320160402426" x2="323.6535744692891" y2="72.70766288658663" stroke="#333" stroke-width="2"/><line x1="369.9646981042013" y1="54.990443795314675" x2="329.3723553780171" y2="78.4264437953147" stroke="#333" stroke-width="2"/><circle cx="315.84157446928907" cy="86.23844379531471" r="22.320000000000004" fill="#222"/>
      </g>
    </g>
  
  <text x="50%" y="95%" text-anchor="middle" font-size="32" fill="#fff" opacity="0.7" font-family="Arial">Gears Collection #78</text>
</svg>