<svg width="512" height="512" viewBox="0 0 512 512" xmlns="http://www.w3.org/2000/svg">
  <rect width="100%" height="100%" fill="#1e293b" />
  
    <g>
      <g>
        <animateTransform attributeName="transform" attributeType="XML"
          type="rotate"
          from="0 337.0131717222747 314.62479004224434"
          to="360 337.0131717222747 314.62479004224434"
          dur="3.63s"
          repeatCount="indefinite"/>
        <path d="M395.86028854646855,302.91937072127666 L378.20615349921036,322.81858356692175 L386.9013484604274,347.95900402342045 L360.347121509098,349.5465137589512 L348.7185910432424,373.4719068664382 L328.8193781975973,355.81777181918005 L303.67895774109854,364.51296678039705 L302.0914480055678,337.9587398290676 L278.16605489808086,326.330209363212 L295.82018994533905,306.430996517567 L287.124994984122,281.29057606106824 L313.6792219354514,279.70306632553746 L325.30775240130697,255.77767321805052 L345.2069652469521,273.43180826530863 L370.3473857034508,264.73661330409163 L371.9348954389816,291.2908402554211 Z" fill="#C0C0C0" stroke="#222" stroke-width="3"/>
        
      </g>
    </g>
  
    <g>
      <g>
        <animateTransform attributeName="transform" attributeType="XML"
          type="rotate"
          from="0 255.171756778213 395.9975500255828"
          to="-360 255.171756778213 395.9975500255828"
          dur="3.55s"
          repeatCount="indefinite"/>
        <path d="M338.1375773882046,382.85705496220345 L313.2478312052071,405.1958965699484 L330.0163048100359,434.13275200370475 L296.749635511982,437.57542875935184 L293.30695875633495,470.84209805740574 L264.3701033225786,454.07362445257695 L242.0312617148336,478.9633706355744 L228.47711539352764,448.3887336478589 L195.774787158543,455.39451964525284 L202.78057315593696,422.69219141026815 L172.20593616822143,409.1380450889622 L197.0956823512189,386.79920348121726 L180.32720874639006,357.86234804746096 L213.59387804444398,354.4196712918138 L217.03655480009104,321.1530019937599 L245.9734102338474,337.92147559858876 L268.31225184159234,313.03172941559126 L281.86639816289835,343.60636640330677 L314.568726397883,336.6005804059128 L307.562940400489,369.30290864089744 Z" fill="#C0C0C0" stroke="#222" stroke-width="3"/>
        
      </g>
    </g>
  
    <g>
      <g>
        <animateTransform attributeName="transform" attributeType="XML"
          type="rotate"
          from="0 97.69624367260272 170.32666265029692"
          to="360 97.69624367260272 170.32666265029692"
          dur="4.28s"
          repeatCount="indefinite"/>
        <path d="M205.1761941532,159.7408114947044 L172.9322090090208,177.7367584592117 L201.04579993168127,201.67740779377885 L164.36949125733835,205.96425595434235 L181.1813726357783,238.84113733997066 L145.65637595537433,228.76625292451982 L148.60709124981045,265.5741591999193 L119.64176527304006,242.6713520316519 L108.28209482819526,277.8066131308942 L90.28614786368796,245.562627986715 L66.34549852912079,273.6762189093755 L62.05865036855732,236.9999102350326 L29.181768982929015,253.81179161347254 L39.256653398379804,218.2867949330685 L2.448747122980393,221.23751022750469 L25.351554291247737,192.27218425073428 L-9.783706807994534,180.9125138058895 L22.460278336184643,162.91656684138215 L-5.653312586475849,138.97591750681502 L31.022996087867085,134.6890693462515 L14.211114709427108,101.81218796062323 L49.73611138983115,111.887072376074 L46.785396095394944,75.0791661006746 L75.75072207216536,97.98197326894194 L87.11039251701018,62.84671216969966 L105.10633948151747,95.09069731387885 L129.04698881608462,66.97710639121836 L133.33383697664814,103.65341506556129 L166.21071836227645,86.84153368712134 L156.13583394682558,122.36653036752529 L192.94374022222505,119.41581507308915 L170.0409330539577,148.3811410498595 Z" fill="#FFD700" stroke="#222" stroke-width="3"/>
        <line x1="158.1762436726027" y1="170.32666265029692" x2="112.81624367260272" y2="170.32666265029692" stroke="#333" stroke-width="2"/><line x1="153.57247779888533" y1="193.47135663973756" x2="111.66530220417337" y2="176.11283614765708" stroke="#333" stroke-width="2"/><line x1="140.46206179876512" y1="213.0924807764593" x2="108.38769820414332" y2="181.0181171818375" stroke="#333" stroke-width="2"/><line x1="120.84093766204336" y1="226.20289677657954" x2="103.48241716996287" y2="184.29572118186758" stroke="#333" stroke-width="2"/><line x1="97.69624367260272" y1="230.80666265029691" x2="97.69624367260272" y2="185.44666265029693" stroke="#333" stroke-width="2"/><line x1="74.5515496831621" y1="226.20289677657954" x2="91.91007017524257" y2="184.29572118186758" stroke="#333" stroke-width="2"/><line x1="54.93042554644033" y1="213.09248077645933" x2="87.00478914106212" y2="181.0181171818375" stroke="#333" stroke-width="2"/><line x1="41.8200095463201" y1="193.47135663973756" x2="83.72718514103207" y2="176.11283614765708" stroke="#333" stroke-width="2"/><line x1="37.21624367260272" y1="170.32666265029692" x2="82.57624367260271" y2="170.32666265029692" stroke="#333" stroke-width="2"/><line x1="41.82000954632009" y1="147.18196866085634" x2="83.72718514103207" y2="164.54048915293677" stroke="#333" stroke-width="2"/><line x1="54.93042554644032" y1="127.56084452413454" x2="87.00478914106212" y2="159.63520811875634" stroke="#333" stroke-width="2"/><line x1="74.55154968316211" y1="114.4504285240143" x2="91.91007017524257" y2="156.35760411872627" stroke="#333" stroke-width="2"/><line x1="97.6962436726027" y1="109.84666265029693" x2="97.69624367260272" y2="155.20666265029692" stroke="#333" stroke-width="2"/><line x1="120.84093766204336" y1="114.45042852401431" x2="103.48241716996289" y2="156.35760411872627" stroke="#333" stroke-width="2"/><line x1="140.4620617987651" y1="127.56084452413452" x2="108.38769820414332" y2="159.63520811875634" stroke="#333" stroke-width="2"/><line x1="153.57247779888536" y1="147.1819686608563" x2="111.66530220417337" y2="164.54048915293677" stroke="#333" stroke-width="2"/><circle cx="97.69624367260272" cy="170.32666265029692" r="21.6" fill="#222"/>
      </g>
    </g>
  
    <g>
      <g>
        <animateTransform attributeName="transform" attributeType="XML"
          type="rotate"
          from="0 381.57752662374696 75.36145259922478"
          to="-360 381.57752662374696 75.36145259922478"
          dur="3.68s"
          repeatCount="indefinite"/>
        <path d="M511.0411836369734,49.60953009309585 L472.20208653300546,93.38779835351502 L491.33151544768293,148.69672335781226 L432.9122161547582,152.18924477597994 L407.3294491298759,204.8251096124512 L363.55118086945674,165.98601250848327 L308.24225586515945,185.11544142316075 L304.7497344469918,126.69614213023601 L252.11386961052054,101.1133751053537 L290.95296671448847,57.33510684493456 L271.823537799811,2.0261818406372782 L330.24283709273567,-1.4663395775303485 L355.82560411761796,-54.10220441400162 L399.60387237803724,-15.263107310033703 L454.9127973823344,-34.39253622471122 L458.40531880050213,24.02676306821354 Z" fill="#C9AE5D" stroke="#222" stroke-width="3"/>
        
      </g>
    </g>
  
  <text x="50%" y="95%" text-anchor="middle" font-size="32" fill="#fff" opacity="0.7" font-family="Arial">Gears Collection #53</text>
</svg>