<svg width="512" height="512" viewBox="0 0 512 512" xmlns="http://www.w3.org/2000/svg">
  <rect width="100%" height="100%" fill="#1e293b" />
  
    <g>
      <g>
        <animateTransform attributeName="transform" attributeType="XML"
          type="rotate"
          from="0 345.42585519206415 300.7550714798666"
          to="360 345.42585519206415 300.7550714798666"
          dur="3.73s"
          repeatCount="indefinite"/>
        <path d="M413.83555062685707,291.74876421668307 L393.3126419964192,307.0594865640951 L409.17354293534294,327.1602283130578 L383.7448215281308,330.15824850098784 L387.43039379366587,355.49645195996186 L363.90946497529796,345.37845290016173 L354.4321624552477,369.16476691465954 L339.12144010783567,348.64185828422166 L319.02069835887295,364.5027592231454 L316.0226781709429,339.07403781593325 L290.6844747119689,342.75961008146834 L300.802473771769,319.23868126310043 L277.0161597572712,309.76137874305016 L297.5390683877091,294.45065639563813 L281.67816744878536,274.3499146466755 L307.1068888559975,271.3518944587454 L303.4213165904624,246.0136909997714 L326.94224540883033,256.13169005957144 L336.4195479288806,232.3453760450737 L351.7302702762927,252.86828467551157 L371.83101202525535,237.00738373658783 L374.82903221318537,262.4361051438 L400.16723567215934,258.7505328782649 L390.0492366123593,282.2714616966328 Z" fill="#9DE09D" stroke="#222" stroke-width="3"/>
        
      </g>
    </g>
  
    <g>
      <g>
        <animateTransform attributeName="transform" attributeType="XML"
          type="rotate"
          from="0 185.12281856909766 376.73286691042733"
          to="-360 185.12281856909766 376.73286691042733"
          dur="3.61s"
          repeatCount="indefinite"/>
        <path d="M279.8666766560497,357.88714180366935 L251.4435192299641,389.92487448515794 L265.4427831175235,430.4009514201209 L222.69047772588317,432.95684209432545 L203.96854367585564,471.4767249973794 L171.93081099436708,443.0535675712938 L131.45473405940407,457.0528314588532 L128.89884338519954,414.30052606721284 L90.3789604821456,395.5785920171853 L118.80211790823122,363.5408593356968 L104.8028540206718,323.06478240073375 L147.55515941231212,320.50889172652927 L166.27709346233962,281.9890088234753 L198.31482614382824,310.41216624956087 L238.7909030787912,296.41290236200143 L241.34679375299575,339.1652077536418 Z" fill="#FFD700" stroke="#222" stroke-width="3"/>
        
      </g>
    </g>
  
    <g>
      <g>
        <animateTransform attributeName="transform" attributeType="XML"
          type="rotate"
          from="0 334.2696141463513 93.9078425667013"
          to="360 334.2696141463513 93.9078425667013"
          dur="4.18s"
          repeatCount="indefinite"/>
        <path d="M457.87155719903814,81.73411373776987 L420.79097428323206,102.4294527469533 L453.1216038442916,129.96119948170553 L410.94384886879726,134.89107486635353 L430.2775124540032,172.69948845982606 L389.4237662715386,161.11337138205766 L392.8170888601402,203.442463598767 L359.5069639868542,177.10423535525956 L346.4433429752827,217.50978561938817 L325.7480039660993,180.42920270358212 L298.2162572313471,212.75983226464166 L293.28638184669904,170.58207728914732 L255.47796825322652,189.91574087435328 L267.0640853309949,149.06199469188863 L224.7349931142856,152.45531728049025 L251.07322135779305,119.14519240720426 L210.6676710936644,106.08157139563276 L247.7482540094705,85.38623238644931 L215.41762444841092,57.85448565169711 L257.5953794239053,52.92461026704907 L238.26171583869933,15.116196673576567 L279.115462021164,26.70231375134493 L275.72213943256236,-15.626778465364382 L309.0322643058483,10.711449778143077 L322.09588531741986,-29.694100485985558 L342.79122432660324,7.386482429820504 L370.3229710613555,-24.94414713123905 L375.2528464460035,17.233607844255317 L413.06126003947605,-2.100055740950623 L401.4751429617076,38.75369044151393 L443.80423517841695,35.36036785291236 L417.4660069349095,68.67049272619826 Z" fill="#E5E4E2" stroke="#222" stroke-width="3"/>
        
      </g>
    </g>
  
  <text x="50%" y="95%" text-anchor="middle" font-size="32" fill="#fff" opacity="0.7" font-family="Arial">Gears Collection #57</text>
</svg>