<svg width="512" height="512" viewBox="0 0 512 512" xmlns="http://www.w3.org/2000/svg">
  <rect width="100%" height="100%" fill="#f7b2ad" />
  
    <g>
      <g>
        <animateTransform attributeName="transform" attributeType="XML"
          type="rotate"
          from="0 341.96448510390616 307.08920924050693"
          to="360 341.96448510390616 307.08920924050693"
          dur="3.68s"
          repeatCount="indefinite"/>
        <path d="M404.66112288425455,300.91412939974464 L385.85213155015003,311.41176512904053 L402.2517262550353,325.3771439075381 L380.8572128616686,327.87780533453343 L390.6641436657586,347.0559861428166 L369.94122893552293,341.1789702338036 L371.662479523944,362.6502488944533 L354.76603937082797,349.2902780462973 L348.13956494466845,369.78584702085533 L337.64192921537256,350.9768556867508 L323.676550436875,367.37645039163607 L321.17588900987965,345.9819369982694 L301.9977082015965,355.7888678023594 L307.87472411060946,335.0659530721237 L286.4034454499598,336.7872036605448 L299.76341629811577,319.89076350742874 L279.26784732355776,313.2642890812693 L298.0768386576623,302.76665335197333 L281.67724395277696,288.80127457347584 L303.0717573461437,286.30061314648043 L293.2648265420537,267.12243233819726 L313.9877412722894,272.99944824721024 L312.2664906838683,251.52816958656058 L329.16293083698434,264.88814043471655 L335.78940526314386,244.39257146015854 L346.28704099243976,263.20156279426305 L360.25241977093725,246.80196808937777 L362.75308119793266,268.1964814827445 L381.93126200621583,258.38955067865453 L376.05424609720285,279.11246540889016 L397.5255247578525,277.3912148204691 L384.16555390969654,294.2876549735851 Z" fill="#F5F5F5" stroke="#222" stroke-width="3"/>
        <line x1="377.24448510390613" y1="307.08920924050693" x2="350.78448510390615" y2="307.08920924050693" stroke="#333" stroke-width="2"/><line x1="374.55895501090436" y1="320.5902807343473" x2="350.1131025806557" y2="310.464477113967" stroke="#333" stroke-width="2"/><line x1="366.91121234416755" y1="332.0359364807683" x2="348.2011669139715" y2="313.3258910505723" stroke="#333" stroke-width="2"/><line x1="355.4655565977465" y1="339.68367914750513" x2="345.33975297736623" y2="315.2378267172565" stroke="#333" stroke-width="2"/><line x1="341.96448510390616" y1="342.3692092405069" x2="341.96448510390616" y2="315.9092092405069" stroke="#333" stroke-width="2"/><line x1="328.4634136100658" y1="339.68367914750513" x2="338.5892172304461" y2="315.2378267172565" stroke="#333" stroke-width="2"/><line x1="317.01775786364476" y1="332.0359364807683" x2="335.7278032938408" y2="313.3258910505723" stroke="#333" stroke-width="2"/><line x1="309.37001519690796" y1="320.5902807343473" x2="333.8158676271566" y2="310.464477113967" stroke="#333" stroke-width="2"/><line x1="306.6844851039062" y1="307.08920924050693" x2="333.14448510390616" y2="307.08920924050693" stroke="#333" stroke-width="2"/><line x1="309.37001519690796" y1="293.5881377466666" x2="333.8158676271566" y2="303.71394136704686" stroke="#333" stroke-width="2"/><line x1="317.01775786364476" y1="282.14248200024554" x2="335.7278032938408" y2="300.85252743044157" stroke="#333" stroke-width="2"/><line x1="328.4634136100658" y1="274.49473933350873" x2="338.5892172304461" y2="298.94059176375737" stroke="#333" stroke-width="2"/><line x1="341.96448510390616" y1="271.80920924050696" x2="341.96448510390616" y2="298.26920924050694" stroke="#333" stroke-width="2"/><line x1="355.4655565977465" y1="274.49473933350873" x2="345.33975297736623" y2="298.94059176375737" stroke="#333" stroke-width="2"/><line x1="366.91121234416755" y1="282.14248200024554" x2="348.2011669139715" y2="300.85252743044157" stroke="#333" stroke-width="2"/><line x1="374.55895501090436" y1="293.5881377466666" x2="350.1131025806557" y2="303.71394136704686" stroke="#333" stroke-width="2"/><circle cx="341.96448510390616" cy="307.08920924050693" r="12.600000000000001" fill="#222"/>
      </g>
    </g>
  
    <g>
      <g>
        <animateTransform attributeName="transform" attributeType="XML"
          type="rotate"
          from="0 183.39284378006676 375.700463097075"
          to="-360 183.39284378006676 375.700463097075"
          dur="3.71s"
          repeatCount="indefinite"/>
        <path d="M271.3209526153286,368.78037085387905 L244.94251996475006,380.54452766731214 L269.1558707591418,396.29034418916586 L240.4331661173136,399.3273382112956 L258.5957062760977,421.78483650502164 L230.34030809621265,415.79738560098053 L240.67416164278893,442.7682692629977 L215.65190516562944,428.3424668442966 L217.14552251466768,457.18663786457046 L197.80576054453036,435.7345819824275 L190.3129360232627,463.62857193233685 L178.5487792098296,437.25013928175827 L162.80296268797593,461.46349007615004 L159.76596866584612,432.7407854343218 L137.30847037212007,450.90332559310593 L143.29592127616124,422.6479274132209 L116.32503761414405,432.9817809597972 L130.7508400328451,407.9595244826377 L101.90666901257127,409.4531418316759 L123.35872489471421,390.1133798615386 L95.46473494480487,382.6205553402709 L121.84316759538345,370.85639852683784 L97.62981680099169,355.1105820049841 L126.3525214428199,352.0735879828544 L108.18998128403582,329.61608968912833 L136.44537946392086,335.60354059316944 L126.11152591734452,308.63265693115227 L151.1337823945041,323.0584593498533 L149.64016504546586,294.2142883295795 L168.97992701560318,315.66634421172245 L176.4727515368708,287.7723542618131 L188.23690835030385,314.15078691239165 L203.98272487215755,289.93743611799994 L207.0197188942874,318.66014075982815 L229.47721718801347,300.49760060104404 L223.4897662839723,328.7529987809291 L250.46064994598942,318.41914523435275 L236.0348475272884,343.4414017115123 L264.8790185475622,341.94778436247407 L243.4269626654193,361.2875463326113 Z" fill="#F5F5F5" stroke="#222" stroke-width="3"/>
        <line x1="232.78484378006675" y1="375.700463097075" x2="195.74084378006677" y2="375.700463097075" stroke="#333" stroke-width="2"/><line x1="230.36742723291698" y1="390.9634304832424" x2="195.1364896432793" y2="379.51620494361686" stroke="#333" stroke-width="2"/><line x1="223.35181116623414" y1="404.7323522783048" x2="193.3825856266086" y2="382.95843539238246" stroke="#333" stroke-width="2"/><line x1="212.4247329612966" y1="415.6594304832424" x2="190.65081607537422" y2="385.69020494361683" stroke="#333" stroke-width="2"/><line x1="198.65581116623417" y1="422.6750465499252" x2="187.2085856266086" y2="387.44410896028756" stroke="#333" stroke-width="2"/><line x1="183.39284378006676" y1="425.092463097075" x2="183.39284378006676" y2="388.048463097075" stroke="#333" stroke-width="2"/><line x1="168.12987639389937" y1="422.67504654992524" x2="179.57710193352492" y2="387.44410896028756" stroke="#333" stroke-width="2"/><line x1="154.36095459883694" y1="415.6594304832424" x2="176.1348714847593" y2="385.69020494361683" stroke="#333" stroke-width="2"/><line x1="143.43387639389937" y1="404.7323522783048" x2="173.4031019335249" y2="382.95843539238246" stroke="#333" stroke-width="2"/><line x1="136.41826032721653" y1="390.9634304832424" x2="171.6491979168542" y2="379.51620494361686" stroke="#333" stroke-width="2"/><line x1="134.00084378006676" y1="375.700463097075" x2="171.04484378006674" y2="375.700463097075" stroke="#333" stroke-width="2"/><line x1="136.41826032721653" y1="360.43749571090757" x2="171.6491979168542" y2="371.8847212505331" stroke="#333" stroke-width="2"/><line x1="143.43387639389937" y1="346.6685739158452" x2="173.4031019335249" y2="368.4424908017675" stroke="#333" stroke-width="2"/><line x1="154.3609545988369" y1="335.7414957109076" x2="176.1348714847593" y2="365.71072125053314" stroke="#333" stroke-width="2"/><line x1="168.12987639389934" y1="328.7258796442248" x2="179.57710193352492" y2="363.9568172338624" stroke="#333" stroke-width="2"/><line x1="183.39284378006676" y1="326.308463097075" x2="183.39284378006676" y2="363.352463097075" stroke="#333" stroke-width="2"/><line x1="198.65581116623414" y1="328.72587964422473" x2="187.2085856266086" y2="363.9568172338624" stroke="#333" stroke-width="2"/><line x1="212.42473296129657" y1="335.7414957109076" x2="190.65081607537422" y2="365.71072125053314" stroke="#333" stroke-width="2"/><line x1="223.35181116623414" y1="346.6685739158452" x2="193.3825856266086" y2="368.4424908017675" stroke="#333" stroke-width="2"/><line x1="230.36742723291698" y1="360.43749571090757" x2="195.1364896432793" y2="371.8847212505331" stroke="#333" stroke-width="2"/><circle cx="183.39284378006676" cy="375.700463097075" r="17.639999999999997" fill="#222"/>
      </g>
    </g>
  
    <g>
      <g>
        <animateTransform attributeName="transform" attributeType="XML"
          type="rotate"
          from="0 76.55334831568581 270.1031627406205"
          to="360 76.55334831568581 270.1031627406205"
          dur="3.76s"
          repeatCount="indefinite"/>
        <path d="M188.98319559547593,255.30149254286667 L155.25424141153889,280.4643318790482 L181.32128730246575,313.4994639708217 L139.52973646800405,318.42664497533275 L145.58689436527473,360.0694315296466 L106.93075917682664,343.4407200313665 L91.35501851343967,382.53301002041064 L66.19217917725813,348.8040558364736 L33.157047085484635,374.87110172740046 L28.229866080973565,333.07955089293876 L-13.412920473340279,339.1367087902094 L3.2157910249398753,300.48057360176136 L-35.8764989641043,284.90483293837434 L-2.147544780167266,259.74199360219285 L-28.214590671094143,226.7068615104194 L13.576960163367566,221.7796805059083 L7.51980226609686,180.13689395159446 L46.17593745454501,196.76560544987456 L61.75167811793195,157.6733154608304 L86.91451745411355,191.40226964476744 L119.94964954588701,165.3352237538406 L124.87683055039804,207.12677458830228 L166.51961710471187,201.06961669103157 L149.89090560643177,239.7257518794797 Z" fill="#9DE09D" stroke="#222" stroke-width="3"/>
        
      </g>
    </g>
  
    <g>
      <g>
        <animateTransform attributeName="transform" attributeType="XML"
          type="rotate"
          from="0 138.93181954315264 69.73395069277115"
          to="-360 138.93181954315264 69.73395069277115"
          dur="4.64s"
          repeatCount="indefinite"/>
        <path d="M276.3460773295628,51.64302045107199 L235.12179999363974,82.39760186196055 L266.981522749217,122.7738744185726 L215.90296061820828,128.79598453519722 L223.30615360376135,179.69272365713636 L176.05976615121367,159.36874293701618 L157.0227497848518,207.14820847918128 L126.26816837396325,165.92393114325824 L85.8918958173512,197.7836538988355 L79.86978570072657,146.7050917678268 L28.973046578787418,154.1082847533798 L49.297027298907594,106.86189730083217 L1.5175617567425093,87.8248809344703 L42.74183909266554,57.07029952358177 L10.882116337088235,16.694026966969773 L61.960678468097,10.671916850345063 L54.55748548254391,-40.224822271594036 L101.80387293509165,-19.900841551473917 L120.84088930145349,-67.68030709363899 L151.5954707123421,-26.456029757715953 L191.97174326895413,-58.315752513293205 L197.99385338557872,-7.237190382284496 L248.89059250751782,-14.640383367837586 L228.5666117873977,32.60600408471015 Z" fill="#8EC6F3" stroke="#222" stroke-width="3"/>
        
      </g>
    </g>
  
    <g>
      <g>
        <animateTransform attributeName="transform" attributeType="XML"
          type="rotate"
          from="0 499.0815262033667 163.74290477886305"
          to="360 499.0815262033667 163.74290477886305"
          dur="5.36s"
          repeatCount="indefinite"/>
        <path d="M659.7341551334159,131.78711003262123 L611.5383664544011,186.1119611012323 L635.2762486985237,254.7453089474739 L562.7832091213943,259.0792105254729 L531.0373209496086,324.39553370891224 L476.71246988099745,276.1997450298975 L408.07912203475587,299.93762727402 L403.74522045675684,227.44458769689064 L338.42889727331755,195.69869952510484 L386.6246859523323,141.37384845649382 L362.88680370820975,72.74050061025218 L435.379843285339,68.40659903225327 L467.12573145712486,3.090275848813917 L521.450582525736,51.28606452782866 L590.0839303719775,27.548182283706097 L594.4178319499765,100.04122186083546 Z" fill="#9DE09D" stroke="#222" stroke-width="3"/>
        
      </g>
    </g>
  
  <text x="50%" y="95%" text-anchor="middle" font-size="32" fill="#fff" opacity="0.7" font-family="Arial">Gears Collection #89</text>
</svg>