<svg width="512" height="512" viewBox="0 0 512 512" xmlns="http://www.w3.org/2000/svg">
  <rect width="100%" height="100%" fill="#b2f5ea" />
  
    <g>
      <g>
        <animateTransform attributeName="transform" attributeType="XML"
          type="rotate"
          from="0 355.09092209635793 269.4532211047585"
          to="360 355.09092209635793 269.4532211047585"
          dur="3.7s"
          repeatCount="indefinite"/>
        <path d="M415.5690586401604,261.49112337933536 L397.42561767701966,275.0266895125547 L411.44757357954643,292.79691047902895 L388.96710972679364,295.44733412343084 L392.22536926588987,317.8477748625238 L371.43150465834725,308.9028771429904 L363.0530198217811,329.93135764856095 L349.5174536885617,311.7879166854202 L331.74723272208746,325.809872587947 L329.0968090776856,303.3294087351942 L306.6963683385926,306.5876682742904 L315.641266058126,285.7938036667478 L294.61278555255547,277.4153188301816 L312.7562265156962,263.87975269696227 L298.73427061316943,246.10953173048804 L321.2147344659222,243.4591080860861 L317.95647492682593,221.05866734699316 L338.7503395343686,230.00356506652653 L347.1288243709348,208.97508456095605 L360.66439050415414,227.11852552409678 L378.4346114706284,213.09656962156998 L381.0850351150303,235.57703347432275 L403.48547585412325,232.31877393522652 L394.54057813458985,253.11263854276916 Z" fill="#8EC6F3" stroke="#222" stroke-width="3"/>
        
      </g>
    </g>
  
    <g>
      <g>
        <animateTransform attributeName="transform" attributeType="XML"
          type="rotate"
          from="0 192.73631612101914 380.8907774900148"
          to="-360 192.73631612101914 380.8907774900148"
          dur="4.89s"
          repeatCount="indefinite"/>
        <path d="M277.4057072823425,369.74384067442236 L252.00488993394552,388.69363326092946 L271.635628197483,413.57194261399343 L240.1629788036292,417.2825357161561 L244.72454215836387,448.64315275088626 L215.6131317078042,436.1202959435395 L203.88325293661157,465.5601686513382 L184.93346035010447,440.15935130294116 L160.05515099704047,459.7900895664787 L156.34455789487782,428.3174401726248 L124.98394086014765,432.8790035273595 L137.50679766749442,403.76759307679987 L108.06692495969574,392.0377143056072 L133.46774230809277,373.0879217191001 L113.83700404455524,348.20961236603614 L145.3096534384091,344.4990192638735 L140.74809008367438,313.1384022291433 L169.8595005342341,325.66125903649004 L181.58937930542675,296.2213863286914 L200.53917189193385,321.6222036770884 L225.41748124499782,301.99146541355094 L229.12807434716046,333.46411480740477 L260.4886913818906,328.90255145267 L247.96583457454386,358.01396190322976 Z" fill="#F5F5F5" stroke="#222" stroke-width="3"/>
        
      </g>
    </g>
  
    <g>
      <g>
        <animateTransform attributeName="transform" attributeType="XML"
          type="rotate"
          from="0 76.04907391377046 260.2028800492464"
          to="360 76.04907391377046 260.2028800492464"
          dur="5.5s"
          repeatCount="indefinite"/>
        <path d="M184.90971969261483,245.87110414348473 L152.2515259589615,270.23512318327954 L177.49104658350973,302.2215209229333 L137.0262116485548,306.9922834828567 L142.89107881892798,347.31307681322403 L105.46212252535126,331.2122609180639 L90.38084981953213,369.06352582809075 L66.0168307797373,336.4053320944375 L34.03043304008361,361.6448527189857 L29.25967048016019,321.1800177840307 L-11.06112285020717,327.04488495440387 L5.039693044952955,289.6159286608272 L-32.811571865073915,274.5346559550081 L-0.15337813142062373,250.17063691521327 L-25.392898755968844,218.1842391755596 L15.071936178986121,213.41347661563614 L9.207069008612905,173.0926832852688 L46.63602530218968,189.1934991804289 L61.71729800800879,151.34223427040203 L86.08131704780367,184.00042800405532 L118.06771478745733,158.76090737950713 L122.83847734738072,199.22574231446208 L163.15927067774805,193.36087514408885 L147.05845478258794,230.7898314376656 Z" fill="#E5E4E2" stroke="#222" stroke-width="3"/>
        <line x1="137.53707391377046" y1="260.2028800492464" x2="91.42107391377046" y2="260.2028800492464" stroke="#333" stroke-width="2"/><line x1="129.299243941668" y1="290.9468800492464" x2="89.36161642074485" y2="267.8888800492464" stroke="#333" stroke-width="2"/><line x1="106.79307391377046" y1="313.453050077144" x2="83.73507391377046" y2="273.5154225562208" stroke="#333" stroke-width="2"/><line x1="76.04907391377046" y1="321.6908800492464" x2="76.04907391377046" y2="275.5748800492464" stroke="#333" stroke-width="2"/><line x1="45.30507391377047" y1="313.453050077144" x2="68.36307391377046" y2="273.5154225562208" stroke="#333" stroke-width="2"/><line x1="22.79890388587289" y1="290.9468800492464" x2="62.73653140679606" y2="267.8888800492464" stroke="#333" stroke-width="2"/><line x1="14.561073913770457" y1="260.2028800492464" x2="60.67707391377046" y2="260.2028800492464" stroke="#333" stroke-width="2"/><line x1="22.798903885872896" y1="229.4588800492464" x2="62.73653140679607" y2="252.5168800492464" stroke="#333" stroke-width="2"/><line x1="45.30507391377043" y1="206.95271002134885" x2="68.36307391377045" y2="246.89033754227202" stroke="#333" stroke-width="2"/><line x1="76.04907391377044" y1="198.7148800492464" x2="76.04907391377046" y2="244.8308800492464" stroke="#333" stroke-width="2"/><line x1="106.79307391377046" y1="206.95271002134885" x2="83.73507391377046" y2="246.89033754227202" stroke="#333" stroke-width="2"/><line x1="129.299243941668" y1="229.45888004924637" x2="89.36161642074484" y2="252.5168800492464" stroke="#333" stroke-width="2"/><circle cx="76.04907391377046" cy="260.2028800492464" r="21.96" fill="#222"/>
      </g>
    </g>
  
    <g>
      <g>
        <animateTransform attributeName="transform" attributeType="XML"
          type="rotate"
          from="0 97.18000730188854 103.7626526788784"
          to="-360 97.18000730188854 103.7626526788784"
          dur="4.34s"
          repeatCount="indefinite"/>
        <path d="M230.2319076982539,86.24603768294747 L190.3163375793443,116.02428317603004 L221.16464056490324,155.11876930227345 L171.7076200888472,160.94970131995763 L178.87579107485885,210.23067094596217 L133.1292889382651,190.55189596298868 L114.69662229781949,236.81455307524377 L84.91837680473691,196.89898295633418 L45.82389067849349,227.7472859418931 L39.992958660809315,178.29026546583702 L-9.288010965195255,185.45843645184868 L10.390764017778253,139.71193431525495 L-35.87189309447683,121.27926767480932 L4.0436770244327676,91.50102218172677 L-26.80462596112619,52.406536055483414 L22.652394514929895,46.575604037799174 L15.484223528918179,-2.7053655882053533 L61.230725665512026,16.973409394768098 L79.66339230595761,-29.289247717486973 L109.44163779904024,10.626322401422641 L148.53612392528362,-20.22198058413629 L154.36705594296774,29.235039891919754 L203.6480255689723,22.066868905908038 L183.96925058599885,67.81337104250187 Z" fill="#8EC6F3" stroke="#222" stroke-width="3"/>
        
      </g>
    </g>
  
    <g>
      <g>
        <animateTransform attributeName="transform" attributeType="XML"
          type="rotate"
          from="0 445.285563094703 77.75585394206848"
          to="360 445.285563094703 77.75585394206848"
          dur="3.81s"
          repeatCount="indefinite"/>
        <path d="M602.5287181085893,57.054399855968306 L555.3557716044234,92.2468718023386 L591.812856950993,138.4494463151717 L533.3636509338359,145.34054779061665 L541.835125735486,203.58169371225836 L487.77107775587524,180.32495964147154 L465.9870171808032,234.9990089559548 L430.79454523443286,187.8260624517889 L384.59197072159975,224.28314779835856 L377.7008692461548,165.83394178120142 L319.45972332451305,174.30541658285154 L342.7164573952999,120.24136860324077 L288.0424080808167,98.45730802816865 L335.21535458498255,63.264836081798386 L298.7582692384129,17.062261568965333 L357.20747525557005,10.171160093520314 L348.73600045391987,-48.069985828121375 L402.8000484335307,-24.813251757334584 L424.5841090086028,-79.48730107181783 L459.77658095497316,-32.31435456765195 L505.97915546780627,-68.77143991422156 L512.8702569432511,-10.322233897064436 L571.1114028648929,-18.79370869871464 L547.854668794106,35.270339280896245 Z" fill="#B87333" stroke="#222" stroke-width="3"/>
        
      </g>
    </g>
  
  <text x="50%" y="95%" text-anchor="middle" font-size="32" fill="#fff" opacity="0.7" font-family="Arial">Gears Collection #79</text>
</svg>