<svg width="512" height="512" viewBox="0 0 512 512" xmlns="http://www.w3.org/2000/svg">
  <rect width="100%" height="100%" fill="#1e293b" />
  
    <g>
      <g>
        <animateTransform attributeName="transform" attributeType="XML"
          type="rotate"
          from="0 351.44986464788855 285.82152475477665"
          to="360 351.44986464788855 285.82152475477665"
          dur="4.69s"
          repeatCount="indefinite"/>
        <path d="M413.9108909144386,277.5983746449134 L395.1725830344736,291.5777298316809 L409.6542751960996,309.9305809937773 L386.43674695473203,312.66790377406124 L389.80183467543793,335.80278519312446 L368.326204015189,326.5646121385244 L359.6730147577518,348.2825510213267 L345.69365957098427,329.5442431413617 L327.3408084088879,344.0259353029877 L324.60348562860395,320.80840706162013 L301.46860420954073,324.17349478232603 L310.7067772641408,302.69786412207714 L288.9888383813385,294.0446748646399 L307.7271462613035,280.06531967787237 L293.2454540996775,261.71246851577604 L316.46298234104506,258.97514573549205 L313.09789462033916,235.84026431642883 L334.5735252805881,245.0784373710289 L343.2267145380253,223.3604984882266 L357.2060697247928,242.09880636819162 L375.5589208868892,227.6171142065656 L378.29624366717314,250.83464244793316 L401.43112508623636,247.46955472722723 L392.1929520316363,268.9451853874762 Z" fill="#E5E4E2" stroke="#222" stroke-width="3"/>
        
      </g>
    </g>
  
    <g>
      <g>
        <animateTransform attributeName="transform" attributeType="XML"
          type="rotate"
          from="0 177.5556681392577 371.9589875728558"
          to="-360 177.5556681392577 371.9589875728558"
          dur="4.82s"
          repeatCount="indefinite"/>
        <path d="M265.00110491242776,360.44657741904723 L238.76747388047676,380.0176746805218 L259.0418429067532,405.7116663074567 L226.53730336883856,409.5439181998542 L231.24842617782684,441.93275218654276 L201.18254325347834,428.9993099101026 L189.06807829306626,459.40442434602585 L169.49698103159173,433.17079331407484 L143.80298940465678,453.44516234035126 L139.9707375122593,420.9406228024366 L107.58190352557077,425.65174561142493 L120.51534580201087,395.5858626870764 L90.11023136608765,383.47139772666435 L116.34386239803865,363.90030046518984 L96.0694933717622,338.2063088382549 L128.57403290967684,334.3740569458574 L123.86291010068854,301.9852229591689 L153.9287930250371,314.91866523560896 L166.04325798544915,284.51355079968573 L185.6143552469237,310.74718183163674 L211.30834687385862,290.4728128053603 L215.14059876625612,322.97735234327496 L247.52943275294462,318.2662295342866 L234.59599047650454,348.33211245863515 Z" fill="#E5E4E2" stroke="#222" stroke-width="3"/>
        <line x1="226.9476681392577" y1="371.9589875728558" x2="189.90366813925772" y2="371.9589875728558" stroke="#333" stroke-width="2"/><line x1="220.33039488297868" y1="396.65498757285576" x2="188.24934982518795" y2="378.13298757285577" stroke="#333" stroke-width="2"/><line x1="202.2516681392577" y1="414.73371431657677" x2="183.7296681392577" y2="382.65266925878603" stroke="#333" stroke-width="2"/><line x1="177.5556681392577" y1="421.3509875728558" x2="177.5556681392577" y2="384.3069875728558" stroke="#333" stroke-width="2"/><line x1="152.8596681392577" y1="414.73371431657677" x2="171.3816681392577" y2="382.65266925878603" stroke="#333" stroke-width="2"/><line x1="134.78094139553673" y1="396.65498757285576" x2="166.86198645332746" y2="378.13298757285577" stroke="#333" stroke-width="2"/><line x1="128.1636681392577" y1="371.9589875728558" x2="165.2076681392577" y2="371.9589875728558" stroke="#333" stroke-width="2"/><line x1="134.78094139553673" y1="347.26298757285576" x2="166.86198645332746" y2="365.7849875728558" stroke="#333" stroke-width="2"/><line x1="152.85966813925768" y1="329.1842608291348" x2="171.3816681392577" y2="361.26530588692555" stroke="#333" stroke-width="2"/><line x1="177.5556681392577" y1="322.5669875728558" x2="177.5556681392577" y2="359.6109875728558" stroke="#333" stroke-width="2"/><line x1="202.2516681392577" y1="329.1842608291348" x2="183.7296681392577" y2="361.26530588692555" stroke="#333" stroke-width="2"/><line x1="220.33039488297868" y1="347.26298757285576" x2="188.24934982518795" y2="365.7849875728558" stroke="#333" stroke-width="2"/><circle cx="177.5556681392577" cy="371.9589875728558" r="17.639999999999997" fill="#222"/>
      </g>
    </g>
  
    <g>
      <g>
        <animateTransform attributeName="transform" attributeType="XML"
          type="rotate"
          from="0 320.3275363359628 87.88703777237941"
          to="360 320.3275363359628 87.88703777237941"
          dur="3.85s"
          repeatCount="indefinite"/>
        <path d="M431.5485871336891,65.76379525575047 L398.18227189437124,103.37330753401967 L414.6161903710714,150.8887021968023 L364.42870143305885,153.88909559695546 L342.4507788525918,199.10808857010574 L304.84126657432256,165.74177333078785 L257.3258719115399,182.17569180748802 L254.32547851138676,131.98820286947543 L209.10648553823648,110.01028028900835 L242.47280077755437,72.40076801073918 L226.03888230085417,24.88537334795651 L276.2263712388667,21.884979947803416 L298.2042938193338,-23.334013025346906 L335.81380609760305,10.032302213970993 L383.3292007603857,-6.401616262729249 L386.3295941605388,43.78587267528339 Z" fill="#8EC6F3" stroke="#222" stroke-width="3"/>
        
      </g>
    </g>
  
  <text x="50%" y="95%" text-anchor="middle" font-size="32" fill="#fff" opacity="0.7" font-family="Arial">Gears Collection #85</text>
</svg>