<svg width="512" height="512" viewBox="0 0 512 512" xmlns="http://www.w3.org/2000/svg">
  <rect width="100%" height="100%" fill="#f5e663" />
  
    <g>
      <g>
        <animateTransform attributeName="transform" attributeType="XML"
          type="rotate"
          from="0 333.64491686885634 319.01798857809086"
          to="360 333.64491686885634 319.01798857809086"
          dur="4.05s"
          repeatCount="indefinite"/>
        <path d="M400.32229355589357,312.45084017601033 L380.31908054978237,323.61499245954724 L397.75991936291433,338.46706195413987 L375.00702416679417,341.12649553523016 L385.4366172441597,361.5223386170551 L363.39796189613133,355.27217884080324 L365.22849823619816,378.1067132894307 L347.2592682320906,363.89849032393147 L340.2120652709369,385.6953652651281 L329.04791298739997,365.6921522590169 L314.19584349280734,383.13299107214885 L311.53640991171704,360.38009587602875 L291.1405668298921,370.80968895339424 L297.39072660614397,348.77103360536586 L274.55619215751653,350.60156994543274 L288.76441512301574,332.63233994132514 L266.9675401818192,325.58513698017146 L286.9707531879303,314.4209846966345 L269.52991437479835,299.5689152020419 L292.2828095709185,296.90948162095157 L281.85321649355296,276.51363853912665 L303.8918718415814,282.7637983153785 L302.06133550151446,259.92926386675106 L320.03056550562206,274.13748683225026 L327.0777684667758,252.34061189105367 L338.2419207503127,272.34382489716484 L353.0939902449053,254.90298608403288 L355.75342382599564,277.65588128015304 L376.1492669078206,267.2262882027875 L369.8991071315687,289.2649435508159 L392.7336415801961,287.434407210749 L378.52541861469695,305.40363721485653 Z" fill="#E5E4E2" stroke="#222" stroke-width="3"/>
        
      </g>
    </g>
  
    <g>
      <g>
        <animateTransform attributeName="transform" attributeType="XML"
          type="rotate"
          from="0 158.80804481475468 356.7656878469515"
          to="-360 158.80804481475468 356.7656878469515"
          dur="5.13s"
          repeatCount="indefinite"/>
        <path d="M252.3188907189221,349.4062246676796 L224.26563694767185,361.9173120724418 L250.01634334805675,378.66286297663544 L219.46997491944575,381.8926820160433 L238.78569223116853,405.7760532173075 L208.73630051605272,399.40844670031134 L219.7262717481259,428.0917674202344 L193.11530057400387,412.75004103844117 L194.7037507706001,443.4255879965102 L174.13606740553342,420.6114968202629 L166.16750799402655,450.2765337511189 L153.6564205892644,422.22327997986866 L136.9108696850708,447.97398638025356 L133.68105064566288,417.42761795164256 L109.79767944439868,436.74333526336534 L116.16528596139483,406.69394354824954 L87.4819652414718,417.6839147803227 L102.82369162326499,391.0729436062007 L72.14814466519599,392.6613938027969 L94.96223584144323,372.09371043773024 L65.29719891058728,364.12515102622336 L93.3504526818375,351.6140636214612 L67.59974628145262,334.86851271726755 L98.14611471006359,331.63869367785975 L78.83039739834082,307.7553224765955 L108.87978911345664,314.12292899359164 L97.88981788138341,285.4396082736686 L124.50078905550549,300.7813346554618 L122.9123388589093,270.10578769739277 L143.48002222397594,292.9198788736401 L151.44858163548275,263.2548419427841 L163.95966904024493,291.3080957140343 L180.70521994443854,265.5573893136494 L183.93503898384648,296.1037577422604 L207.8184101851107,276.78804043053765 L201.45080366811456,306.83743214565345 L230.13412438803755,295.8474609135802 L214.79239800624438,322.4584320877023 L245.4679449643134,320.8699818911061 L222.6538537880661,341.4376652561727 Z" fill="#F5F5F5" stroke="#222" stroke-width="3"/>
        <line x1="211.33604481475467" y1="356.7656878469515" x2="171.94004481475469" y2="356.7656878469515" stroke="#333" stroke-width="2"/><line x1="208.7651415027065" y1="372.9977325274787" x2="171.29731898674262" y2="360.8236990170833" stroke="#333" stroke-width="2"/><line x1="201.30408949528191" y1="387.6408715793705" x2="169.4320559848865" y2="364.4844837800562" stroke="#333" stroke-width="2"/><line x1="189.6832285471737" y1="399.2617325274787" x2="166.52684074785944" y2="367.38969901708333" stroke="#333" stroke-width="2"/><line x1="175.0400894952819" y1="406.7227845349033" x2="162.8660559848865" y2="369.25496201893947" stroke="#333" stroke-width="2"/><line x1="158.80804481475468" y1="409.2936878469515" x2="158.80804481475468" y2="369.8976878469515" stroke="#333" stroke-width="2"/><line x1="142.57600013422746" y1="406.7227845349033" x2="154.75003364462287" y2="369.25496201893947" stroke="#333" stroke-width="2"/><line x1="127.93286108233566" y1="399.2617325274787" x2="151.08924888164992" y2="367.38969901708333" stroke="#333" stroke-width="2"/><line x1="116.31200013422745" y1="387.6408715793705" x2="148.18403364462287" y2="364.4844837800563" stroke="#333" stroke-width="2"/><line x1="108.85094812680285" y1="372.9977325274787" x2="146.31877064276674" y2="360.8236990170833" stroke="#333" stroke-width="2"/><line x1="106.28004481475469" y1="356.7656878469515" x2="145.67604481475468" y2="356.7656878469515" stroke="#333" stroke-width="2"/><line x1="108.85094812680285" y1="340.5336431664242" x2="146.31877064276674" y2="352.7076766768197" stroke="#333" stroke-width="2"/><line x1="116.31200013422745" y1="325.89050411453246" x2="148.18403364462287" y2="349.04689191384676" stroke="#333" stroke-width="2"/><line x1="127.93286108233565" y1="314.26964316642426" x2="151.08924888164992" y2="346.14167667681966" stroke="#333" stroke-width="2"/><line x1="142.57600013422743" y1="306.80859115899966" x2="154.75003364462287" y2="344.2764136749635" stroke="#333" stroke-width="2"/><line x1="158.80804481475468" y1="304.2376878469515" x2="158.80804481475468" y2="343.6336878469515" stroke="#333" stroke-width="2"/><line x1="175.0400894952819" y1="306.80859115899966" x2="162.8660559848865" y2="344.2764136749635" stroke="#333" stroke-width="2"/><line x1="189.6832285471737" y1="314.26964316642426" x2="166.52684074785944" y2="346.14167667681966" stroke="#333" stroke-width="2"/><line x1="201.30408949528191" y1="325.89050411453246" x2="169.4320559848865" y2="349.0468919138467" stroke="#333" stroke-width="2"/><line x1="208.7651415027065" y1="340.53364316642427" x2="171.29731898674262" y2="352.7076766768197" stroke="#333" stroke-width="2"/><circle cx="158.80804481475468" cy="356.7656878469515" r="18.76" fill="#222"/>
      </g>
    </g>
  
    <g>
      <g>
        <animateTransform attributeName="transform" attributeType="XML"
          type="rotate"
          from="0 103.92689704273823 159.6995775868555"
          to="360 103.92689704273823 159.6995775868555"
          dur="5.13s"
          repeatCount="indefinite"/>
        <path d="M222.20960185936784,136.17168475171042 L186.72479041437896,176.16910257145705 L204.20213228642518,226.70134768901954 L150.82813611425306,229.89224225743635 L127.45478987788331,277.9822824034851 L87.45737205813671,242.49747095849622 L36.92512694057419,259.9748128305424 L33.73423237215735,206.60081665837032 L-14.355807773891371,183.22747042200055 L21.129003671097507,143.23005260225398 L3.6516617990512685,92.69780748469145 L57.02565797122335,89.50691291627466 L80.39900420759312,41.41687277022591 L120.39642202733978,76.90168421521479 L170.92866714490222,59.424342343168504 L174.11956171331911,112.79833851534067 Z" fill="#F5F5F5" stroke="#222" stroke-width="3"/>
        
      </g>
    </g>
  
    <g>
      <g>
        <animateTransform attributeName="transform" attributeType="XML"
          type="rotate"
          from="0 326.37690398700556 47.56034114112592"
          to="-360 326.37690398700556 47.56034114112592"
          dur="5.26s"
          repeatCount="indefinite"/>
        <path d="M473.0671326984874,33.112614656548686 L429.0600640850428,57.673749680329976 L467.42990947393315,90.34830256843367 L417.37354004246885,96.19905644683234 L440.318644812673,141.06991122684727 L391.8336030470105,127.3195597190931 L395.8607829951576,177.55553550607345 L356.32847698612096,146.29744498197522 L340.8246304715828,194.25056985260775 L316.2634954478015,150.2435012391632 L283.5889425596978,188.6133466280535 L277.73818868129916,138.5569771965892 L232.8673339012842,161.50208196679336 L246.61768540903836,113.01704020113085 L196.38170962205803,117.044220149278 L227.63980014615626,77.51191414024134 L179.68667527552375,62.008067625703184 L223.6937438889683,37.44693260192186 L185.32389850007797,4.772379713818204 L235.38026793154228,-1.0783741645805165 L212.4351631613381,-45.949228944595404 L260.92020492700067,-32.1988774368413 L256.8930249788535,-82.43485322382162 L296.4253309878901,-51.17676269972338 L311.92917750242833,-99.12988757035592 L336.49031252620955,-55.12281895691136 L369.1648654143133,-93.49266434580167 L375.015619292712,-43.43629491433735 L419.8864740727269,-66.3813996845415 L406.1361225649727,-17.896357918879062 L456.37209835195307,-21.923537867026184 L425.11400782785483,17.608768142010394 Z" fill="#9DE09D" stroke="#222" stroke-width="3"/>
        
      </g>
    </g>
  
  <text x="50%" y="95%" text-anchor="middle" font-size="32" fill="#fff" opacity="0.7" font-family="Arial">Gears Collection #46</text>
</svg>