<svg width="512" height="512" viewBox="0 0 512 512" xmlns="http://www.w3.org/2000/svg">
  <rect width="100%" height="100%" fill="#b2f5ea" />
  
    <g>
      <g>
        <animateTransform attributeName="transform" attributeType="XML"
          type="rotate"
          from="0 344.82622526130814 301.9336663660473"
          to="360 344.82622526130814 301.9336663660473"
          dur="3.69s"
          repeatCount="indefinite"/>
        <path d="M405.6349126463084,289.83806640104734 L387.39230643080833,310.4005863415473 L396.37734122406596,336.3790208132626 L368.9379733743589,338.01944753997776 L356.9218252263081,362.7423537510476 L336.3593052858082,344.4997475355475 L310.3808708140928,353.4847823288051 L308.7404440873777,326.04541447909804 L284.01753787630787,314.02926633104727 L302.26014409180794,293.46674639054737 L293.2751092985503,267.488311918832 L320.71447714825734,265.84788519211685 L332.7306252963082,241.12497898104704 L353.29314523680813,259.3675851965471 L379.27157970852346,250.38255040328949 L380.9120064352386,277.82191825299657 Z" fill="#C9AE5D" stroke="#222" stroke-width="3"/>
        
      </g>
    </g>
  
    <g>
      <g>
        <animateTransform attributeName="transform" attributeType="XML"
          type="rotate"
          from="0 194.34463608120052 381.6925459207522"
          to="-360 194.34463608120052 381.6925459207522"
          dur="4.78s"
          repeatCount="indefinite"/>
        <path d="M280.7266703563472,373.1846581401463 L254.8120600738032,387.6480673671763 L277.40705722275624,406.88925590643953 L247.93017210300656,410.3346116502998 L261.44194343308607,436.75788298615663 L232.8903720269836,428.66066106707206 L235.26187283769713,458.2433116661894 L211.98233307118164,439.8362407198412 L202.8525238618064,468.0745801958989 L188.38911463477643,442.15996991335487 L169.14792609551318,464.7549670623079 L165.70257035165292,435.27808194255823 L139.2792990157961,448.78985327263774 L147.37652093488063,420.2382818665353 L117.79387033576332,422.6097826772488 L136.20094128211153,399.3302429107333 L107.96260180605384,390.20043370135807 L133.87721208859784,375.7370244743281 L111.28221493964479,356.49583593506486 L140.75910005939448,353.0504801912046 L127.24732872931494,326.6272088553478 L155.79890013541745,334.7244307744323 L153.4273993247039,305.141780175315 L176.7069390912194,323.5488511216632 L185.83674830059468,295.3105116456055 L200.30015752762458,321.2251219281495 L219.54134606688783,298.6301247791965 L222.98670181074812,328.10700989894616 L249.40997314660495,314.59523856886665 L241.31275122752038,343.1468099749691 L270.8954018266377,340.7753091642556 L252.4883308802895,364.054848930771 Z" fill="#F5F5F5" stroke="#222" stroke-width="3"/>
        <line x1="242.95263608120052" y1="381.6925459207522" x2="206.4966360812005" y2="381.6925459207522" stroke="#333" stroke-width="2"/><line x1="239.25257239750914" y1="400.29402220115446" x2="205.5716201602777" y2="386.34291499085276" stroke="#333" stroke-width="2"/><line x1="228.71568250111622" y1="416.0635923406679" x2="202.93739768617945" y2="390.2853075257311" stroke="#333" stroke-width="2"/><line x1="212.94611236160281" y1="426.6004822370608" x2="198.9950051513011" y2="392.91952999982936" stroke="#333" stroke-width="2"/><line x1="194.34463608120052" y1="430.3005459207522" x2="194.34463608120052" y2="393.8445459207522" stroke="#333" stroke-width="2"/><line x1="175.74315980079825" y1="426.6004822370608" x2="189.69426701109995" y2="392.91952999982936" stroke="#333" stroke-width="2"/><line x1="159.97358966128482" y1="416.0635923406679" x2="185.7518744762216" y2="390.2853075257311" stroke="#333" stroke-width="2"/><line x1="149.4366997648919" y1="400.29402220115446" x2="183.11765200212335" y2="386.34291499085276" stroke="#333" stroke-width="2"/><line x1="145.73663608120052" y1="381.6925459207522" x2="182.19263608120053" y2="381.6925459207522" stroke="#333" stroke-width="2"/><line x1="149.4366997648919" y1="363.09106964034993" x2="183.11765200212335" y2="377.04217685065163" stroke="#333" stroke-width="2"/><line x1="159.97358966128482" y1="347.32149950083647" x2="185.7518744762216" y2="373.09978431577326" stroke="#333" stroke-width="2"/><line x1="175.74315980079825" y1="336.7846096044436" x2="189.69426701109995" y2="370.465561841675" stroke="#333" stroke-width="2"/><line x1="194.34463608120052" y1="333.0845459207522" x2="194.34463608120052" y2="369.5405459207522" stroke="#333" stroke-width="2"/><line x1="212.94611236160281" y1="336.7846096044436" x2="198.9950051513011" y2="370.465561841675" stroke="#333" stroke-width="2"/><line x1="228.71568250111622" y1="347.32149950083647" x2="202.93739768617945" y2="373.09978431577326" stroke="#333" stroke-width="2"/><line x1="239.25257239750914" y1="363.09106964034993" x2="205.5716201602777" y2="377.04217685065163" stroke="#333" stroke-width="2"/><circle cx="194.34463608120052" cy="381.6925459207522" r="17.36" fill="#222"/>
      </g>
    </g>
  
    <g>
      <g>
        <animateTransform attributeName="transform" attributeType="XML"
          type="rotate"
          from="0 138.230933568743 119.87341555776044"
          to="360 138.230933568743 119.87341555776044"
          dur="4.63s"
          repeatCount="indefinite"/>
        <path d="M248.45695237916038,102.41532925927066 L215.38914673603517,132.0940759667033 L237.66726166816488,170.53875532869387 L193.4701153150361,175.11259730405354 L188.89627333967644,219.3097436571823 L150.45159397768586,197.0316287250526 L120.77284727025322,230.0994343681778 L102.76519572908961,189.47884522735575 L59.31781678832431,198.78653233817914 L68.62550389914772,155.33915339741384 L28.00491475832564,137.3315018562502 L61.07272040145085,107.65275514881762 L38.79460546932113,69.20807578682707 L82.99175182244991,64.63423381146734 L87.56559379780957,20.43708745833858 L126.01027315980016,42.71520239046828 L155.68901986723276,9.647396747343052 L173.6966714083964,50.26798588816513 L217.14405034916172,40.960298777341706 L207.83636323833832,84.40767771810702 Z" fill="#9DE09D" stroke="#222" stroke-width="3"/>
        
      </g>
    </g>
  
    <g>
      <g>
        <animateTransform attributeName="transform" attributeType="XML"
          type="rotate"
          from="0 330.61427617982577 49.039352073490335"
          to="-360 330.61427617982577 49.039352073490335"
          dur="5.48s"
          repeatCount="indefinite"/>
        <path d="M465.8473552712135,31.2355794546753 L425.2774315437972,61.50199290666086 L456.63144441436526,101.23737224808858 L406.3636531108329,107.16389331524299 L413.64933509661523,157.2527476892148 L367.15289030204457,137.251369837668 L348.4180487986408,184.27243116487807 L318.15163534665527,143.70250743746175 L278.4162560052275,175.05652030802986 L272.4897349380731,124.78872900449747 L222.40088056410127,132.0744109902798 L242.4022584156481,85.57796619570911 L195.38119708843803,66.84312469230537 L235.95112081585432,36.57671124031984 L204.5971079452862,-3.1586681011078355 L254.86489924881863,-9.085189168262318 L247.57921726303624,-59.174043542234116 L294.075662057607,-39.17266569068734 L312.8105035610107,-86.1937270178974 L343.0769170129963,-45.62380329048108 L382.81229635442406,-76.97781616104916 L388.7388174215784,-26.7100248575168 L438.8276717955502,-33.9957068432992 L418.82629394400345,12.500737951271581 Z" fill="#C9AE5D" stroke="#222" stroke-width="3"/>
        
      </g>
    </g>
  
  <text x="50%" y="95%" text-anchor="middle" font-size="32" fill="#fff" opacity="0.7" font-family="Arial">Gears Collection #67</text>
</svg>