<svg width="512" height="512" viewBox="0 0 512 512" xmlns="http://www.w3.org/2000/svg">
  <rect width="100%" height="100%" fill="#1e293b" />
  
    <g>
      <g>
        <animateTransform attributeName="transform" attributeType="XML"
          type="rotate"
          from="0 309.8072574482143 340.2898513814183"
          to="360 309.8072574482143 340.2898513814183"
          dur="4.99s"
          repeatCount="indefinite"/>
        <path d="M375.24261829888576,331.6751226948949 L355.61201004368434,346.3201614619847 L370.7833065939592,365.54695791751425 L346.46018176966936,368.4146294016212 L349.9855117627898,392.65117184063985 L327.4872320234814,382.9730857834397 L318.42198613473766,405.7252122320898 L303.7769473676479,386.0946039768884 L284.55015091211834,401.26590052716324 L281.6824794280114,376.9427757028734 L257.44593698899274,380.46810569599387 L267.12402304619286,357.96982595668544 L244.3718965975428,348.9045800679417 L264.0025048527442,334.25954130085194 L248.83120830246935,315.03274484532244 L273.1543331267592,312.16507336121543 L269.6290031336387,287.92853092219684 L292.12728287294715,297.60661697939685 L301.1925287616909,274.85449053074683 L315.83756752878065,294.48509878594825 L335.0643639843102,279.3138022356734 L337.93203546841715,303.6369270599632 L362.16857790743575,300.11159706684276 L352.49049185023574,322.6098768061512 Z" fill="#C9AE5D" stroke="#222" stroke-width="3"/>
        
      </g>
    </g>
  
    <g>
      <g>
        <animateTransform attributeName="transform" attributeType="XML"
          type="rotate"
          from="0 180.71431479957724 374.0341713399253"
          to="-360 180.71431479957724 374.0341713399253"
          dur="4.94s"
          repeatCount="indefinite"/>
        <path d="M271.3388747088357,356.00782558563503 L244.15150673605817,386.6526133679285 L257.54210697633243,425.36886087093654 L216.64859747128511,427.8136258636539 L198.74066055386749,464.6587312491838 L168.09587277157408,437.47136327640624 L129.37962526856597,450.8619635166805 L126.93486027584862,409.9684540116332 L90.08975489031876,392.0605170942155 L117.2771228630963,361.4157293119222 L103.88652262282207,322.6994818089141 L144.78003212786933,320.2547168161967 L162.68796904528696,283.4096114306668 L193.33275682758043,310.5969794034444 L232.04900433058845,297.20637916317014 L234.49376932330586,338.09988866821743 Z" fill="#B87333" stroke="#222" stroke-width="3"/>
        
      </g>
    </g>
  
    <g>
      <g>
        <animateTransform attributeName="transform" attributeType="XML"
          type="rotate"
          from="0 254.9730339841088 76.00292963272372"
          to="360 254.9730339841088 76.00292963272372"
          dur="4.42s"
          repeatCount="indefinite"/>
        <path d="M371.4903252960126,52.826199377207686 L336.5351379024414,92.22664081158494 L353.7516239256512,142.00467331545246 L301.1742545620189,145.14794259180337 L278.14976423962486,192.5202209446275 L238.7493228052476,157.5650335510564 L188.97129030138007,174.7815195742661 L185.82802102502916,122.20415021063383 L138.45574267220502,99.17965988823974 L173.41093006577614,59.779218453862526 L156.19444404256643,10.001185949994976 L208.77181340619865,6.857916673644098 L231.79630372859273,-40.51436167918004 L271.19674516297005,-5.559174285608918 L320.9747776668375,-22.775660308818672 L324.11804694318846,29.801709054813607 Z" fill="#8EC6F3" stroke="#222" stroke-width="3"/>
        
      </g>
    </g>
  
  <text x="50%" y="95%" text-anchor="middle" font-size="32" fill="#fff" opacity="0.7" font-family="Arial">Gears Collection #48</text>
</svg>