<svg width="512" height="512" viewBox="0 0 512 512" xmlns="http://www.w3.org/2000/svg">
  <rect width="100%" height="100%" fill="#f5e663" />
  
    <g>
      <g>
        <animateTransform attributeName="transform" attributeType="XML"
          type="rotate"
          from="0 327.52349514033216 325.8884085017743"
          to="360 327.52349514033216 325.8884085017743"
          dur="5.07s"
          repeatCount="indefinite"/>
        <path d="M394.9417457137513,317.01262743081077 L374.7162705417255,332.1014552514487 L390.34730335109964,351.9108819026004 L365.28711413819497,354.8654525225894 L368.91927231292516,379.83643564157825 L345.73922652091045,369.86507424931153 L336.39927621129567,393.30665907519335 L321.3104483906577,373.08118390316764 L301.5010217395061,388.71221671254176 L298.5464511195171,363.6520274996371 L273.5754680005282,367.2841856743673 L283.5468293927949,344.10413988235257 L260.10524456691303,334.7641895727378 L280.3307197389388,319.67536175209983 L264.6996869295647,299.8659351009482 L289.75987614246935,296.91136448095915 L286.12771796773916,271.9403813619703 L309.3077637597539,281.911742754237 L318.64771406936865,258.4701579283552 L333.73654189000666,278.6956331003809 L353.5459685411583,263.0646002910068 L356.50053916114723,288.1247895039115 L381.4715222801361,284.4926313291813 L371.5001608878694,307.672677121196 Z" fill="#8EC6F3" stroke="#222" stroke-width="3"/>
        <line x1="365.60349514033214" y1="325.8884085017743" x2="337.04349514033214" y2="325.8884085017743" stroke="#333" stroke-width="2"/><line x1="360.5017425164436" y1="344.9284085017743" x2="335.76805698436" y2="330.64840850177427" stroke="#333" stroke-width="2"/><line x1="346.5634951403322" y1="358.8666558778857" x2="332.28349514033215" y2="334.1329703458021" stroke="#333" stroke-width="2"/><line x1="327.52349514033216" y1="363.96840850177426" x2="327.52349514033216" y2="335.40840850177426" stroke="#333" stroke-width="2"/><line x1="308.48349514033214" y1="358.8666558778857" x2="322.76349514033217" y2="334.13297034580216" stroke="#333" stroke-width="2"/><line x1="294.54524776422073" y1="344.9284085017743" x2="319.27893329630433" y2="330.64840850177427" stroke="#333" stroke-width="2"/><line x1="289.4434951403322" y1="325.8884085017743" x2="318.0034951403322" y2="325.8884085017743" stroke="#333" stroke-width="2"/><line x1="294.54524776422073" y1="306.84840850177426" x2="319.27893329630433" y2="321.1284085017743" stroke="#333" stroke-width="2"/><line x1="308.48349514033214" y1="292.91016112566285" x2="322.76349514033217" y2="317.64384665774645" stroke="#333" stroke-width="2"/><line x1="327.52349514033216" y1="287.8084085017743" x2="327.52349514033216" y2="316.3684085017743" stroke="#333" stroke-width="2"/><line x1="346.5634951403322" y1="292.91016112566285" x2="332.28349514033215" y2="317.64384665774645" stroke="#333" stroke-width="2"/><line x1="360.5017425164436" y1="306.84840850177426" x2="335.76805698436" y2="321.1284085017743" stroke="#333" stroke-width="2"/><circle cx="327.52349514033216" cy="325.8884085017743" r="13.600000000000001" fill="#222"/>
      </g>
    </g>
  
    <g>
      <g>
        <animateTransform attributeName="transform" attributeType="XML"
          type="rotate"
          from="0 183.89058067571855 376.0009651824307"
          to="-360 183.89058067571855 376.0009651824307"
          dur="4.44s"
          repeatCount="indefinite"/>
        <path d="M278.2761314785053,363.5748716830818 L249.96046623766927,384.69923063197496 L271.84391217079303,412.43242794358724 L236.75964727272645,416.56882681157185 L241.84466871734875,451.52820317815633 L209.39260460852813,437.56829722898283 L196.31667417506748,470.38651598521744 L175.19231522617434,442.07085074438146 L147.459117914562,463.9542966775052 L143.32271904657742,428.8700317794386 L108.36334267999297,433.9550532240609 L122.32324862916641,401.5029891152403 L89.50502987293181,388.4270586817796 L117.82069511376784,367.3026997328865 L95.93724918064405,339.56950242127425 L131.02151407871065,335.4331035532896 L125.93649263408832,300.47372718670516 L158.388556742909,314.43363313587855 L171.46448717636963,281.615414379644 L192.58884612526282,309.93107962048 L220.3220434368751,288.0476336873562 L224.4584423048597,323.13189858542285 L259.41781867144414,318.0468771408005 L245.4579127222707,350.49894124962117 Z" fill="#C9AE5D" stroke="#222" stroke-width="3"/>
        <line x1="237.20258067571854" y1="376.0009651824307" x2="197.21858067571856" y2="376.0009651824307" stroke="#333" stroke-width="2"/><line x1="230.06012700227456" y1="402.6569651824307" x2="195.43296725735755" y2="382.6649651824307" stroke="#333" stroke-width="2"/><line x1="210.54658067571856" y1="422.1705115089867" x2="190.55458067571854" y2="387.5433517640697" stroke="#333" stroke-width="2"/><line x1="183.89058067571855" y1="429.31296518243073" x2="183.89058067571855" y2="389.3289651824307" stroke="#333" stroke-width="2"/><line x1="157.23458067571858" y1="422.1705115089867" x2="177.22658067571857" y2="387.5433517640697" stroke="#333" stroke-width="2"/><line x1="137.72103434916255" y1="402.6569651824307" x2="172.34819409407956" y2="382.6649651824307" stroke="#333" stroke-width="2"/><line x1="130.57858067571857" y1="376.0009651824307" x2="170.56258067571855" y2="376.0009651824307" stroke="#333" stroke-width="2"/><line x1="137.72103434916258" y1="349.3449651824307" x2="172.34819409407956" y2="369.33696518243073" stroke="#333" stroke-width="2"/><line x1="157.23458067571852" y1="329.83141885587474" x2="177.22658067571854" y2="364.4585786007917" stroke="#333" stroke-width="2"/><line x1="183.89058067571855" y1="322.6889651824307" x2="183.89058067571855" y2="362.67296518243074" stroke="#333" stroke-width="2"/><line x1="210.54658067571856" y1="329.83141885587474" x2="190.55458067571854" y2="364.4585786007917" stroke="#333" stroke-width="2"/><line x1="230.06012700227453" y1="349.3449651824307" x2="195.43296725735755" y2="369.33696518243073" stroke="#333" stroke-width="2"/><circle cx="183.89058067571855" cy="376.0009651824307" r="19.04" fill="#222"/>
      </g>
    </g>
  
    <g>
      <g>
        <animateTransform attributeName="transform" attributeType="XML"
          type="rotate"
          from="0 87.75734822921325 319.98757789707145"
          to="360 87.75734822921325 319.98757789707145"
          dur="5.1s"
          repeatCount="indefinite"/>
        <path d="M207.80546655056867,296.10852248229736 L171.79103105416203,336.70291668741334 L189.52922877504477,387.98937441867076 L135.35860579433276,391.22789427915353 L111.63640364398736,440.03569621842684 L71.0420094388714,404.0212607220202 L19.755551707613932,421.759458442903 L16.517031847131165,367.58883546219096 L-32.290770092142154,343.86663331184553 L3.723665404264466,303.2722391067296 L-14.014532316618286,251.98578137547213 L40.156090664093675,248.74726151498942 L63.8782928144391,199.93945957571606 L104.47268701955512,235.9538950721227 L155.75914475081254,218.2156973512399 L158.9976646112953,272.38632033195194 Z" fill="#FFD700" stroke="#222" stroke-width="3"/>
        
      </g>
    </g>
  
    <g>
      <g>
        <animateTransform attributeName="transform" attributeType="XML"
          type="rotate"
          from="0 199.23577944047128 43.44924543942645"
          to="-360 199.23577944047128 43.44924543942645"
          dur="5s"
          repeatCount="indefinite"/>
        <path d="M346.9939551935039,20.046649469407907 L302.6665024675941,59.83106261843943 L332.5303554590511,111.36622420046265 L273.28400156632654,117.49746756528171 L267.1527582015075,176.7438214580063 L215.61759661948426,146.8799684665493 L175.8331834704527,191.20742119245907 L151.69389430774595,136.75544865243234 L93.45260497496376,149.23241990493398 L105.92957622746539,90.9911305721518 L51.47760368743866,66.851841409445 L95.80505641334844,27.067428260413486 L65.94120342189137,-24.467733321609686 L125.18755731461599,-30.598976686428813 L131.31880067943504,-89.8453305791534 L182.8539622614583,-59.981477587696375 L222.6383754104898,-104.3089303136062 L246.7776645731966,-49.85695777357947 L305.0189539059788,-62.333929026081094 L292.54198265347713,-4.0926396932989135 Z" fill="#C9AE5D" stroke="#222" stroke-width="3"/>
        
      </g>
    </g>
  
    <g>
      <g>
        <animateTransform attributeName="transform" attributeType="XML"
          type="rotate"
          from="0 366.7017886561152 20.744577132987644"
          to="360 366.7017886561152 20.744577132987644"
          dur="3.61s"
          repeatCount="indefinite"/>
        <path d="M542.6504483317597,3.415146722721328 L489.8658504290663,32.875178420174066 L535.8888400135697,72.06690807157659 L475.84836433186763,79.08463728257311 L503.3700368106471,132.90530977312017 L445.214301504208,116.41235084115996 L450.04473172695157,176.66825666977684 L402.62742031312746,139.17551308320583 L384.0312190663815,196.69323680863207 L354.5711873689288,143.90863890593874 L315.37945771752624,189.93162849044217 L308.36172850652974,129.89115280874012 L254.5410560159827,157.41282528751958 L271.03401494794286,99.25708998108041 L210.77810911932602,104.08752020382407 L248.27085270589703,56.67020878999991 L190.75312898047076,38.074007543254 L243.53772688316408,8.613975845801225 L197.51473729866063,-30.57775380560126 L257.55521298036274,-37.595483016597825 L230.03354050158325,-91.41615550714485 L288.18927580802244,-74.92319657518472 L283.35884558527874,-135.17910240380152 L330.7761569991029,-97.68635881723053 L349.3723582458489,-155.20408254265678 L378.83238994330156,-102.41948463996346 L418.0241195947041,-148.4424742244669 L425.0418488057006,-88.40199854276479 L478.86252129624773,-115.92367102154424 L462.36956236428745,-57.76793571510518 L522.6254681929043,-62.5983659378488 L485.13272460633334,-15.181054524024738 Z" fill="#8EC6F3" stroke="#222" stroke-width="3"/>
        
      </g>
    </g>
  
  <text x="50%" y="95%" text-anchor="middle" font-size="32" fill="#fff" opacity="0.7" font-family="Arial">Gears Collection #59</text>
</svg>