<svg width="512" height="512" viewBox="0 0 512 512" xmlns="http://www.w3.org/2000/svg">
  <rect width="100%" height="100%" fill="#1e293b" />
  
    <g>
      <g>
        <animateTransform attributeName="transform" attributeType="XML"
          type="rotate"
          from="0 307.54045689453517 341.69469822049996"
          to="360 307.54045689453517 341.69469822049996"
          dur="5.06s"
          repeatCount="indefinite"/>
        <path d="M373.22264885490017,335.22556695874897 L353.51799126679066,346.22309010372567 L370.69851905286095,360.8534869192945 L348.28521930742914,363.47322746186103 L358.5591468164758,383.5646549753006 L336.8494266228956,377.4077811658584 L338.652641525051,399.9015016674914 L320.9516089836913,385.905341731328 L314.00958815628616,407.37689018086496 L303.01206501130946,387.67223259275545 L288.38166819574064,404.85276037882574 L285.7619276531741,382.439460633394 L265.6705001397346,392.71338814244064 L271.8273739491767,371.00366794886037 L249.33365344754372,372.8068828510158 L263.3298133837071,355.10585030965615 L241.85826493417017,348.16382948225095 L261.5629225222797,337.16630633727425 L244.3823947362094,322.53590952170543 L266.7956944816412,319.9161689791389 L256.5217669725945,299.8247414656994 L278.23148716617476,305.9816152751415 L276.4282722640193,283.4878947735085 L294.129304805379,297.4840547096719 L301.0713256327842,276.01250626013496 L312.0688487777608,295.71716384824447 L326.6992455933297,278.5366360621742 L329.31898613589624,300.949935807606 L349.4104136493358,290.67600829855934 L343.2535398398936,312.3857284921395 L365.7472603415266,310.5825135899841 L351.7511004053632,328.28354613134377 Z" fill="#9DE09D" stroke="#222" stroke-width="3"/>
        
      </g>
    </g>
  
    <g>
      <g>
        <animateTransform attributeName="transform" attributeType="XML"
          type="rotate"
          from="0 173.36712930544107 369.01242710771373"
          to="-360 173.36712930544107 369.01242710771373"
          dur="4.18s"
          repeatCount="indefinite"/>
        <path d="M264.97663449638117,356.951806946581 L237.4937829390991,377.45486122050664 L258.733598109484,404.37237625824804 L224.68122335547815,408.3871163359978 L229.61668534584686,442.31827575062385 L198.11909371081506,428.76895527054376 L185.42774946657386,460.6219322986538 L164.92469519264816,433.1390807413718 L138.0071801549068,454.3788959117566 L133.99244007715703,420.3265211577508 L100.06128066253093,425.2619831481195 L113.61060114261105,393.76439151308773 L81.757624114501,381.0730472688465 L109.24047567178302,360.5699929949208 L88.00066050139816,333.6524779571795 L122.05303525540398,329.63773787942966 L117.11757326503526,295.7065784648036 L148.61516490006707,309.2558989448837 L161.3065091443083,277.40292191677366 L181.80956341823403,304.88577347405567 L208.72707845597537,283.64595830367085 L212.7418185337251,317.6983330576767 L246.67297794835116,312.7628710673079 L233.1236574682711,344.26046270233974 Z" fill="#B87333" stroke="#222" stroke-width="3"/>
        
      </g>
    </g>
  
    <g>
      <g>
        <animateTransform attributeName="transform" attributeType="XML"
          type="rotate"
          from="0 85.31625785072512 313.1582029626531"
          to="360 85.31625785072512 313.1582029626531"
          dur="4.35s"
          repeatCount="indefinite"/>
        <path d="M203.0999073819338,297.65169132691096 L167.7648125225712,324.0127611076726 L195.073146313066,358.62099472762577 L151.29152162934423,363.7828033990183 L157.63711561696113,407.4085797892518 L117.14021208620599,389.98802488629167 L100.82276948646727,430.94185249386175 L74.46169970570566,395.60675763449916 L39.853466085752466,422.915091424994 L34.691657414359916,379.1334667412722 L-8.93411897587363,385.47906072888907 L8.486435927086518,344.98215719813396 L-32.467391680483544,328.6647145983952 L2.86770317887904,302.30364481763365 L-24.44063061161576,267.69541119768047 L19.340994072106014,262.5336025262879 L12.995400084489077,218.90782613605438 L53.49230361524428,236.3283810390145 L69.809746214983,195.37455343144444 L96.17081599574466,230.70964829080702 L130.77904961569783,203.40131450031225 L135.94085828709032,247.18293918403398 L179.56663467732383,240.83734519641706 L162.14607977436373,281.3342487271722 Z" fill="#C0C0C0" stroke="#222" stroke-width="3"/>
        <line x1="151.8442578507251" y1="313.1582029626531" x2="101.94825785072513" y2="313.1582029626531" stroke="#333" stroke-width="2"/><line x1="142.93119591369626" y1="346.4222029626531" x2="99.7199923664679" y2="321.47420296265307" stroke="#333" stroke-width="2"/><line x1="118.58025785072513" y1="370.7731410256242" x2="93.63225785072513" y2="327.56193747839586" stroke="#333" stroke-width="2"/><line x1="85.31625785072512" y1="379.6862029626531" x2="85.31625785072512" y2="329.7902029626531" stroke="#333" stroke-width="2"/><line x1="52.052257850725134" y1="370.7731410256242" x2="77.00025785072512" y2="327.56193747839586" stroke="#333" stroke-width="2"/><line x1="27.70131978775398" y1="346.4222029626531" x2="70.91252333498234" y2="321.47420296265307" stroke="#333" stroke-width="2"/><line x1="18.788257850725117" y1="313.1582029626531" x2="68.68425785072512" y2="313.1582029626531" stroke="#333" stroke-width="2"/><line x1="27.701319787753988" y1="279.8942029626531" x2="70.91252333498234" y2="304.8422029626531" stroke="#333" stroke-width="2"/><line x1="52.05225785072509" y1="255.54326489968196" x2="77.00025785072512" y2="298.7544684469103" stroke="#333" stroke-width="2"/><line x1="85.31625785072511" y1="246.63020296265307" x2="85.31625785072512" y2="296.5262029626531" stroke="#333" stroke-width="2"/><line x1="118.58025785072513" y1="255.54326489968196" x2="93.63225785072513" y2="298.7544684469103" stroke="#333" stroke-width="2"/><line x1="142.93119591369623" y1="279.8942029626531" x2="99.7199923664679" y2="304.84220296265306" stroke="#333" stroke-width="2"/><circle cx="85.31625785072512" cy="313.1582029626531" r="23.76" fill="#222"/>
      </g>
    </g>
  
    <g>
      <g>
        <animateTransform attributeName="transform" attributeType="XML"
          type="rotate"
          from="0 190.62229582357097 45.9386856257932"
          to="-360 190.62229582357097 45.9386856257932"
          dur="4.3s"
          repeatCount="indefinite"/>
        <path d="M334.5800896950483,26.986282515441708 L291.39275153360506,59.20536780303924 L324.76960394420985,101.50432000520425 L271.2587293307721,107.81319727023956 L279.01445531563724,161.13359063608056 L229.5182398891587,139.84180131024038 L209.5746989339225,189.8964794972705 L177.35561364632494,146.7091413358273 L135.05666144415994,180.08599374643205 L128.7477841791246,126.57511913299435 L75.4273908132836,134.3308451178594 L96.71918013912378,84.83462969138094 L46.66450195209367,64.8910887361447 L89.85184011353687,32.67200344854718 L56.47498770293208,-9.62694875361776 L109.98586231636982,-15.935826018653167 L102.23013633150468,-69.25621938449413 L151.72635175798325,-47.964430058654 L171.66989271321947,-98.0191082456841 L203.88897800081708,-54.83177008424089 L246.18793020298205,-88.20862249484563 L252.49680746801732,-34.69774788140795 L305.8172008338583,-42.453473866273086 L284.5254115080182,7.042741560205492 Z" fill="#C0C0C0" stroke="#222" stroke-width="3"/>
        
      </g>
    </g>
  
    <g>
      <g>
        <animateTransform attributeName="transform" attributeType="XML"
          type="rotate"
          from="0 492.98851605082416 149.05869245222277"
          to="360 492.98851605082416 149.05869245222277"
          dur="4.28s"
          repeatCount="indefinite"/>
        <path d="M661.2912701680185,115.58119319425516 L610.8004439328602,172.4929419328001 L635.6687015219409,244.3945444383865 L559.7236124411388,248.93482228200452 L526.4660153087918,317.3614465694171 L469.55426657024685,266.87062033425883 L397.6526640646604,291.7388779233395 L393.1123862210424,215.79378884253737 L324.6857619336298,182.53619171019037 L375.1765881687881,125.6244429716455 L350.30833057970744,53.722840466059026 L426.25341966050945,49.1825626224411 L459.5110167928565,-19.244061664971554 L516.4227655314015,31.24676457018674 L588.3243680369878,6.378506981105971 L592.8646458806058,82.32359606190816 Z" fill="#C0C0C0" stroke="#222" stroke-width="3"/>
        
      </g>
    </g>
  
  <text x="50%" y="95%" text-anchor="middle" font-size="32" fill="#fff" opacity="0.7" font-family="Arial">Gears Collection #100</text>
</svg>