<svg width="512" height="512" viewBox="0 0 512 512" xmlns="http://www.w3.org/2000/svg">
  <rect width="100%" height="100%" fill="#8ec6f3" />
  
    <g>
      <g>
        <animateTransform attributeName="transform" attributeType="XML"
          type="rotate"
          from="0 355.4557055137289 266.419339747145"
          to="360 355.4557055137289 266.419339747145"
          dur="4.79s"
          repeatCount="indefinite"/>
        <path d="M423.1298898615518,252.95810752803214 L402.82763455720493,275.842202300524 L412.82710876260455,304.75368582549754 L382.2897477685757,306.57932202135794 L368.91693773284175,334.0935240949679 L346.0328429603499,313.791268790621 L317.12135943537635,323.7907429960206 L315.29572323951595,293.2533820019918 L287.781521165906,279.88057196625783 L308.0837764702529,256.996477193766 L298.08430226485325,228.08499366879244 L328.6216632588821,226.2593574729321 L341.994473294616,198.7451553993221 L364.8785680671079,219.04741070366896 L393.79005159208145,209.04793649826934 L395.61568778794185,239.5852974922982 Z" fill="#C0C0C0" stroke="#222" stroke-width="3"/>
        
      </g>
    </g>
  
    <g>
      <g>
        <animateTransform attributeName="transform" attributeType="XML"
          type="rotate"
          from="0 120.106420729006 289.6591014870878"
          to="-360 120.106420729006 289.6591014870878"
          dur="4.34s"
          repeatCount="indefinite"/>
        <path d="M216.40863516762616,282.079952839778 L187.5179708360401,294.9645055402047 L214.03735503942156,312.20992363556826 L182.57915471741921,315.53615518361516 L202.4714606056113,340.13246283864845 L171.5250721228801,333.57477851517484 L182.84310219770174,363.11431776405084 L155.43777367509847,347.3146294007115 L157.0736402954737,378.9058643276781 L135.89199623294232,355.4107555043787 L127.68556937631583,385.96131592570794 L114.80101667588913,357.0706515941219 L97.55559858052557,383.5900357975034 L94.22936703247865,352.131835475501 L69.63305937744536,372.0241413636931 L76.190743700919,341.0777528809619 L46.65120445204303,352.39578295578355 L62.450892815382296,324.9904544331803 L30.85965788841571,326.6263210535555 L54.35476671171513,305.44467699102415 L23.80420629038585,297.2382501343976 L52.6948706219719,284.3536974339709 L26.175486418590452,267.1082793386073 L57.633686740592786,263.78204779056045 L37.741380852400695,239.18574013552717 L68.68776933513192,245.7434244590008 L57.369739260310226,216.20388521012484 L84.77506778291357,232.00357357346408 L83.13920116253837,200.41233864649752 L104.3208452250697,223.90744746979692 L112.52727208169613,193.35688704846766 L125.41182478212284,222.2475513800537 L142.6572428774864,195.72816717667223 L145.9834744255334,227.18636749867463 L170.57978208056667,207.29406161048252 L164.02209775709304,238.24045009321372 L193.56163700596895,226.92242001839202 L177.7619486426297,254.32774854099537 L209.3531835695963,252.69188192062018 L185.8580747462969,273.87352598315147 Z" fill="#F5F5F5" stroke="#222" stroke-width="3"/>
        <line x1="174.202420729006" y1="289.6591014870878" x2="133.630420729006" y2="289.6591014870878" stroke="#333" stroke-width="2"/><line x1="171.55477403450863" y1="306.37568481479497" x2="132.96850905538167" y2="293.8382473190146" stroke="#333" stroke-width="2"/><line x1="163.87100405671316" y1="321.4559324951014" x2="131.0475665609328" y2="297.6083092390912" stroke="#333" stroke-width="2"/><line x1="151.90325173701962" y1="333.42368481479497" x2="128.05562848100942" y2="300.6002473190146" stroke="#333" stroke-width="2"/><line x1="136.82300405671316" y1="341.10745479259043" x2="124.28556656093279" y2="302.5211898134635" stroke="#333" stroke-width="2"/><line x1="120.106420729006" y1="343.7551014870878" x2="120.106420729006" y2="303.1831014870878" stroke="#333" stroke-width="2"/><line x1="103.38983740129885" y1="341.10745479259043" x2="115.92727489707922" y2="302.5211898134635" stroke="#333" stroke-width="2"/><line x1="88.30958972099239" y1="333.42368481479497" x2="112.1572129770026" y2="300.6002473190146" stroke="#333" stroke-width="2"/><line x1="76.34183740129885" y1="321.4559324951014" x2="109.16527489707921" y2="297.6083092390912" stroke="#333" stroke-width="2"/><line x1="68.65806742350338" y1="306.37568481479497" x2="107.24433240263035" y2="293.8382473190146" stroke="#333" stroke-width="2"/><line x1="66.010420729006" y1="289.6591014870878" x2="106.582420729006" y2="289.6591014870878" stroke="#333" stroke-width="2"/><line x1="68.65806742350338" y1="272.94251815938065" x2="107.24433240263035" y2="285.479955655161" stroke="#333" stroke-width="2"/><line x1="76.34183740129885" y1="257.8622704790742" x2="109.16527489707921" y2="281.7098937350844" stroke="#333" stroke-width="2"/><line x1="88.30958972099238" y1="245.89451815938065" x2="112.1572129770026" y2="278.717955655161" stroke="#333" stroke-width="2"/><line x1="103.38983740129885" y1="238.2107481815852" x2="115.92727489707922" y2="276.79701316071214" stroke="#333" stroke-width="2"/><line x1="120.10642072900599" y1="235.5631014870878" x2="120.106420729006" y2="276.1351014870878" stroke="#333" stroke-width="2"/><line x1="136.82300405671316" y1="238.2107481815852" x2="124.28556656093279" y2="276.79701316071214" stroke="#333" stroke-width="2"/><line x1="151.90325173701962" y1="245.89451815938065" x2="128.05562848100942" y2="278.717955655161" stroke="#333" stroke-width="2"/><line x1="163.87100405671316" y1="257.8622704790742" x2="131.04756656093278" y2="281.7098937350844" stroke="#333" stroke-width="2"/><line x1="171.55477403450863" y1="272.94251815938065" x2="132.96850905538167" y2="285.479955655161" stroke="#333" stroke-width="2"/><circle cx="120.106420729006" cy="289.6591014870878" r="19.32" fill="#222"/>
      </g>
    </g>
  
    <g>
      <g>
        <animateTransform attributeName="transform" attributeType="XML"
          type="rotate"
          from="0 169.86497943562637 97.94697651618642"
          to="360 169.86497943562637 97.94697651618642"
          dur="3.7s"
          repeatCount="indefinite"/>
        <path d="M293.46692248831323,85.773247687255 L256.38633957250715,106.46858669643842 L288.7169691335667,134.00033343119065 L246.53921415807235,138.93020881583865 L265.8728777432783,176.73862240931118 L225.01913156081372,165.15250533154278 L228.41245414941528,207.48159754825213 L195.10232927612932,181.14336930474468 L182.03870826455778,221.5489195688733 L161.3433692553744,184.46833665306724 L133.81162252062214,216.79896621412678 L128.88174713597417,174.62121123863244 L91.07333354250162,193.9548748238384 L102.65945062027001,153.10112864137375 L60.33035840356068,156.49445122997537 L86.66858664706814,123.18432635668938 L46.26303638293952,110.12070534511788 L83.34361929874557,89.42536633593443 L51.01298973768601,61.89361960118223 L93.19074471318038,56.96374421653419 L73.85708112797441,19.155330623061687 L114.71082731043906,30.74144770083005 L111.31750472183742,-11.587644515879262 L144.6276295951234,14.750583727628197 L157.69125060669495,-25.65496653650044 L178.38658961587834,11.425616379305623 L205.91833635063057,-20.90501318175393 L210.8482117352786,21.272741793740437 L248.65662532875115,1.9390782085344966 L237.0705082509827,42.79282439099905 L279.39960046769204,39.39950180239748 L253.0613722241846,72.70962667568338 Z" fill="#9DE09D" stroke="#222" stroke-width="3"/>
        
      </g>
    </g>
  
  <text x="50%" y="95%" text-anchor="middle" font-size="32" fill="#fff" opacity="0.7" font-family="Arial">Gears Collection #81</text>
</svg>