<svg width="512" height="512" viewBox="0 0 512 512" xmlns="http://www.w3.org/2000/svg">
  <rect width="100%" height="100%" fill="#b2f5ea" />
  
    <g>
      <g>
        <animateTransform attributeName="transform" attributeType="XML"
          type="rotate"
          from="0 344.20700380697934 303.11182950592695"
          to="360 344.20700380697934 303.11182950592695"
          dur="3.6s"
          repeatCount="indefinite"/>
        <path d="M409.9196175939958,290.04077793084633 L390.20583345789083,312.26156560848335 L399.9154678312499,340.3350351182403 L370.26324773559867,342.1077543229163 L357.27805538205996,368.8244432929434 L335.05726770442294,349.11065915683844 L306.983798194666,358.8202935301975 L305.21107898998997,329.1680734345463 L278.4943900199629,316.1828810810075 L298.20817415606786,293.96209340337055 L288.4985397827088,265.8886238936136 L318.15075987835996,264.1159046889376 L331.1359522318987,237.3992157189105 L353.35673990953575,257.11299985501546 L381.4302094192927,247.4033654816564 L383.2029286239687,277.0555855773076 Z" fill="#B87333" stroke="#222" stroke-width="3"/>
        
      </g>
    </g>
  
    <g>
      <g>
        <animateTransform attributeName="transform" attributeType="XML"
          type="rotate"
          from="0 184.51317148212885 376.37289291388026"
          to="-360 184.51317148212885 376.37289291388026"
          dur="4.6s"
          repeatCount="indefinite"/>
        <path d="M277.51069947899225,364.12953608363944 L249.61144107993323,384.94324269504887 L271.17307163168755,412.2685988697257 L236.60475180565135,416.34416834259287 L241.61499352314684,450.7894362331981 L209.64016565122066,437.03482301857133 L196.7565283123697,469.3704209107437 L175.94282170096028,441.47116251168467 L148.61746552628344,463.03279306343893 L144.54189605341625,428.4644732374028 L110.09662816281099,433.4747149548982 L123.85124137743777,401.49988708297207 L91.51564348526544,388.6162497441211 L119.41490188432446,367.8025431327117 L97.85327133257015,340.4771869580349 L132.42159115860636,336.40161748516766 L127.41134944111084,301.9563495945624 L159.38617731303708,315.71096280918914 L172.269814651888,283.37536491701684 L193.08352126329748,311.27462331607586 L220.4088774379743,289.7129927643216 L224.48444691084143,324.28131259035774 L258.9297148014467,319.27107087286225 L245.17510158681995,351.24589874478846 Z" fill="#FFD700" stroke="#222" stroke-width="3"/>
        
      </g>
    </g>
  
    <g>
      <g>
        <animateTransform attributeName="transform" attributeType="XML"
          type="rotate"
          from="0 88.25645001362207 190.715228131152"
          to="360 88.25645001362207 190.715228131152"
          dur="5.16s"
          repeatCount="indefinite"/>
        <path d="M207.82470029530361,174.97376934941377 L171.95422521079917,201.73424927836876 L199.67632163448326,236.86685007438183 L155.23133900100817,242.1068679680682 L161.6730783520738,286.393640970275 L120.56258537388295,268.70913826575486 L103.9979087953603,310.2834784128336 L77.23742886640534,274.41300332832907 L42.104828070392244,302.13509975201316 L36.86481017670587,257.69011711853807 L-7.421962825500913,264.1318564696037 L10.262539879019243,223.0213634914129 L-31.31180026805947,206.45668691289023 L4.5586748164449915,179.69620698393527 L-23.163421607239144,144.56360618792223 L21.28156102623599,139.3235882942358 L14.839821675170327,95.03681529202906 L55.95031465336122,112.72131799654916 L72.51499123188384,71.14697784947046 L99.27547116083888,107.01745293397492 L134.40807195685193,79.29535651029083 L139.64808985053827,123.74033914376592 L183.93486285274503,117.29859979270026 L166.2503601482249,158.40909277089114 Z" fill="#C0C0C0" stroke="#222" stroke-width="3"/>
        
      </g>
    </g>
  
    <g>
      <g>
        <animateTransform attributeName="transform" attributeType="XML"
          type="rotate"
          from="0 178.84210532036798 49.97412956473934"
          to="-360 178.84210532036798 49.97412956473934"
          dur="3.87s"
          repeatCount="indefinite"/>
        <path d="M324.98107788686764,30.73456883150374 L281.1393861169177,63.441822078004265 L315.02194841253163,106.38166749535358 L260.7003029716176,112.78613380985914 L268.5735399562534,166.91441192366742 L218.32738187179794,145.3000197292539 L198.0816660536036,196.113102131239 L165.37441280710308,152.2714103612891 L122.43456738975375,186.15397265690302 L116.03010107524818,131.83232721598898 L61.90182296143989,139.70556420062474 L83.51621515585342,89.4594061161693 L32.70313275386832,69.21369029797495 L76.54482452381822,36.50643705147445 L42.66226222820427,-6.433408365874811 L96.98390766911834,-12.837874680380452 L89.11067068448251,-66.96615279418869 L139.35682876893804,-45.35176059977523 L159.60254458713237,-96.16484300176032 L192.30979783363296,-52.3231512318104 L235.24964325098225,-86.20571352742431 L241.65410956548777,-31.884068086510297 L295.782387679296,-39.75730507114612 L274.16799548488257,10.488853013309402 Z" fill="#C9AE5D" stroke="#222" stroke-width="3"/>
        
      </g>
    </g>
  
    <g>
      <g>
        <animateTransform attributeName="transform" attributeType="XML"
          type="rotate"
          from="0 391.6070270107082 34.16507437890428"
          to="360 391.6070270107082 34.16507437890428"
          dur="4.49s"
          repeatCount="indefinite"/>
        <path d="M563.6623359423812,6.9141905688960605 L512.0457432628792,53.240693045910035 L546.8203635243219,113.25021943353333 L477.8316279085958,120.38967527679188 L470.6921720653372,189.37841089251796 L410.68264567771394,154.60379063107536 L364.35614320069993,206.2203833105773 L336.24742547246785,142.81440993843387 L268.4290257280116,157.3430756616009 L282.9576914511786,89.52467591714462 L219.55171807903517,61.41595818891252 L271.1683107585371,15.089455711898545 L236.39369049709444,-44.92007067572469 L305.38242611282055,-52.05952651898332 L312.5218819560791,-121.0482621347094 L372.5314083437024,-86.27364187326681 L418.85791082071637,-137.89023455276873 L446.9666285489485,-74.48426118062531 L514.7850282934047,-89.01292690379233 L500.25636257023774,-21.194527159336076 Z" fill="#C9AE5D" stroke="#222" stroke-width="3"/>
        
      </g>
    </g>
  
  <text x="50%" y="95%" text-anchor="middle" font-size="32" fill="#fff" opacity="0.7" font-family="Arial">Gears Collection #68</text>
</svg>