<svg width="512" height="512" viewBox="0 0 512 512" xmlns="http://www.w3.org/2000/svg">
  <rect width="100%" height="100%" fill="#b2f5ea" />
  
    <g>
      <g>
        <animateTransform attributeName="transform" attributeType="XML"
          type="rotate"
          from="0 353.36080690658173 278.82264836734146"
          to="360 353.36080690658173 278.82264836734146"
          dur="3.87s"
          repeatCount="indefinite"/>
        <path d="M420.7790574800008,269.94686729637795 L400.5535823079751,285.0356951170159 L416.1846151173492,304.8451217681676 L391.12442590444454,307.7996923881566 L394.75658407917473,332.7706755071454 L371.57653828716,322.7993141148787 L362.23658797754524,346.24089894076053 L347.1477601569073,326.0154237687348 L327.3383335057556,341.64645657810894 L324.3837628857666,316.58626736520426 L299.4127797667777,320.21842553993446 L309.3841411590445,297.03837974791975 L285.94255633316266,287.69842943830497 L306.16803150518837,272.609601617667 L290.5369986958142,252.80017496651539 L315.5971879087189,249.84560434652636 L311.96502973398873,224.8746212275375 L335.1450755260035,234.8459826198042 L344.4850258356182,211.40439779392236 L359.57385365625623,231.6298729659481 L379.38328030740786,215.99884015657398 L382.3378509273968,241.05902936947865 L407.3088340463857,237.42687119474843 L397.337472654119,260.60691698676317 Z" fill="#C9AE5D" stroke="#222" stroke-width="3"/>
        
      </g>
    </g>
  
    <g>
      <g>
        <animateTransform attributeName="transform" attributeType="XML"
          type="rotate"
          from="0 293.72713725941685 390.82085563520627"
          to="-360 293.72713725941685 390.82085563520627"
          dur="4.38s"
          repeatCount="indefinite"/>
        <path d="M387.09789595380437,372.2482569792709 L359.0866683454881,403.82167469436104 L372.8830443506191,443.7111418186724 L330.75033758784315,446.2299905990479 L312.29973591535224,484.1916143295938 L280.7263182002621,456.18038672127756 L240.83685107595073,469.97676272640854 L238.31800229557524,427.84405596363257 L200.35637856502933,409.39345429114167 L228.36760617334556,377.8200365760515 L214.57123016821456,337.93056945174015 L256.7039369309905,335.4117206713647 L275.1545386034814,297.45009694081875 L306.7279563185716,325.46132454913504 L346.6174234428829,311.66494854400395 L349.13627222325846,353.79765530678 Z" fill="#FFD700" stroke="#222" stroke-width="3"/>
        
      </g>
    </g>
  
    <g>
      <g>
        <animateTransform attributeName="transform" attributeType="XML"
          type="rotate"
          from="0 100.47403703148726 346.61829198741725"
          to="360 100.47403703148726 346.61829198741725"
          dur="3.53s"
          repeatCount="indefinite"/>
        <path d="M221.36708992033212,327.470713466493 L185.09917405367867,360.0215969520642 L209.5332355921435,402.18672915553776 L161.05894604355063,407.20320099948066 L156.0424741996078,455.6774905480735 L113.87734199613425,431.24342900960863 L81.32645851056297,467.5113448762621 L61.57613101380289,422.9597309798766 L13.92416701425384,433.1681620046507 L24.13259803902791,385.5161980051016 L-20.419015857357593,365.76587050834155 L15.84890000929586,333.2149870227703 L-8.585161529169014,291.0498548192968 L39.88912801942386,286.03338297535385 L44.90559986336671,237.55909342676102 L87.07073206684026,261.99315496522587 L119.6216155524115,225.7252390985724 L139.37194304917162,270.2768529949579 L187.02390704872067,260.0684219701838 L176.8154760239466,307.7203859697329 Z" fill="#9DE09D" stroke="#222" stroke-width="3"/>
        
      </g>
    </g>
  
    <g>
      <g>
        <animateTransform attributeName="transform" attributeType="XML"
          type="rotate"
          from="0 166.22521442139276 55.150584082713635"
          to="-360 166.22521442139276 55.150584082713635"
          dur="3.69s"
          repeatCount="indefinite"/>
        <path d="M315.3640475478687,43.41310336182803 L270.62239760992594,63.36682058733356 L311.6917545128852,90.07401051555709 L262.97387906597476,95.22519311998585 L293.780183008765,133.31636936421958 L245.854927139028,123.16078370385047 L263.38264245158825,168.90731653647828 L220.94126411844695,144.43906209387418 L223.47465590321022,193.36296214640214 L190.6716129243832,156.97716214675833 L177.9626951422784,204.2894172091896 L158.00897791677284,159.5477672712468 L131.30178798854934,200.61712417420608 L126.15060538412055,151.8992487272956 L88.05942913988682,182.70555267008586 L98.21501480025593,134.78029680034888 L52.468481967628136,152.30801211290913 L76.93673641023221,109.86663377976781 L28.01283635770426,112.40002556453109 L64.39863635734807,79.59698258570407 L17.086381294916805,66.88806480359926 L61.82803123285959,46.93434757809372 L20.758674329900316,20.227157649870136 L69.47654977681078,15.075975045441488 L38.670245834020534,-23.015201198792298 L86.5955017037575,-12.8596155384232 L69.0677863911972,-58.60614837105096 L111.50916472433863,-34.13789392844693 L108.97577293957536,-83.0617939809749 L141.77881591840236,-46.675993981331075 L154.48773370050708,-93.98824904376232 L174.44145092601264,-49.246599105819556 L201.14864085423613,-90.31595600877884 L206.299823458665,-41.598080561868315 L244.39099970289874,-72.40438450465855 L234.2354140425296,-24.479128634921608 L279.98194687515735,-42.006843947481926 L255.5136924325533,0.4345343856594823 L304.43759248508127,-2.098857399103771 L268.05179248543743,30.70418557972315 Z" fill="#F5F5F5" stroke="#222" stroke-width="3"/>
        <line x1="250.00121442139277" y1="55.150584082713635" x2="187.16921442139278" y2="55.150584082713635" stroke="#333" stroke-width="2"/><line x1="245.90092513053554" y1="81.03879180346922" x2="186.14414209867846" y2="61.62263601290253" stroke="#333" stroke-width="2"/><line x1="234.00142214214839" y1="104.39288137876787" x2="183.16926635158165" y2="67.4611584067272" stroke="#333" stroke-width="2"/><line x1="215.467511717447" y1="122.92679180346924" x2="178.5357887454063" y2="72.09463601290254" stroke="#333" stroke-width="2"/><line x1="192.11342214214835" y1="134.8262947918564" x2="172.69726635158167" y2="75.06951175999933" stroke="#333" stroke-width="2"/><line x1="166.22521442139276" y1="138.92658408271365" x2="166.22521442139276" y2="76.09458408271364" stroke="#333" stroke-width="2"/><line x1="140.33700670063718" y1="134.82629479185644" x2="159.75316249120385" y2="75.06951175999933" stroke="#333" stroke-width="2"/><line x1="116.98291712533853" y1="122.92679180346924" x2="153.91464009737922" y2="72.09463601290254" stroke="#333" stroke-width="2"/><line x1="98.44900670063717" y1="104.39288137876788" x2="149.28116249120387" y2="67.4611584067272" stroke="#333" stroke-width="2"/><line x1="86.54950371224997" y1="81.03879180346924" x2="146.30628674410707" y2="61.62263601290254" stroke="#333" stroke-width="2"/><line x1="82.44921442139275" y1="55.15058408271364" x2="145.28121442139275" y2="55.150584082713635" stroke="#333" stroke-width="2"/><line x1="86.54950371224997" y1="29.26237636195801" x2="146.30628674410707" y2="48.67853215252473" stroke="#333" stroke-width="2"/><line x1="98.44900670063716" y1="5.90828678665941" x2="149.28116249120387" y2="42.84000975870008" stroke="#333" stroke-width="2"/><line x1="116.98291712533852" y1="-12.625623638041958" x2="153.9146400973792" y2="38.20653215252474" stroke="#333" stroke-width="2"/><line x1="140.33700670063715" y1="-24.525126626429156" x2="159.75316249120385" y2="35.23165640542794" stroke="#333" stroke-width="2"/><line x1="166.22521442139274" y1="-28.625415917286375" x2="166.22521442139276" y2="34.20658408271363" stroke="#333" stroke-width="2"/><line x1="192.11342214214835" y1="-24.52512662642917" x2="172.69726635158165" y2="35.231656405427934" stroke="#333" stroke-width="2"/><line x1="215.467511717447" y1="-12.625623638041986" x2="178.5357887454063" y2="38.20653215252473" stroke="#333" stroke-width="2"/><line x1="234.00142214214836" y1="5.908286786659382" x2="183.16926635158165" y2="42.84000975870007" stroke="#333" stroke-width="2"/><line x1="245.90092513053554" y1="29.26237636195802" x2="186.14414209867846" y2="48.67853215252473" stroke="#333" stroke-width="2"/><circle cx="166.22521442139276" cy="55.150584082713635" r="29.920000000000005" fill="#222"/>
      </g>
    </g>
  
    <g>
      <g>
        <animateTransform attributeName="transform" attributeType="XML"
          type="rotate"
          from="0 442.4100920878641 74.75078602158291"
          to="360 442.4100920878641 74.75078602158291"
          dur="3.8s"
          repeatCount="indefinite"/>
        <path d="M617.0333907050845,47.09317260247009 L564.6464011199183,94.11111541496189 L599.9400455643676,155.01630637553478 L529.9216273275113,162.26232126123003 L522.6756124418159,232.28073949808635 L461.7704214812431,196.98709505363718 L414.7524786687512,249.37408463880325 L386.2242278400978,185.02175345513533 L317.3936131740825,199.76726493536455 L332.1391246543117,130.93665026934923 L267.7867934706437,102.40839944069575 L320.17378305580985,55.39045662820396 L284.8801386113606,-5.5147343323688744 L354.8985568482169,-12.760749218064205 L362.1445717339122,-82.77916745492053 L423.0497626944851,-47.485523010471326 L470.0677055069769,-99.87251259563746 L498.5959563356304,-35.52018141196952 L567.4265710016457,-50.26569289219873 L552.6810595214165,18.56492177381658 Z" fill="#FFD700" stroke="#222" stroke-width="3"/>
        
      </g>
    </g>
  
  <text x="50%" y="95%" text-anchor="middle" font-size="32" fill="#fff" opacity="0.7" font-family="Arial">Gears Collection #42</text>
</svg>