<svg width="512" height="512" viewBox="0 0 512 512" xmlns="http://www.w3.org/2000/svg">
  <rect width="100%" height="100%" fill="#f7b2ad" />
  
    <g>
      <g>
        <animateTransform attributeName="transform" attributeType="XML"
          type="rotate"
          from="0 355.1122523509728 269.29516581006345"
          to="360 355.1122523509728 269.29516581006345"
          dur="4.33s"
          repeatCount="indefinite"/>
        <path d="M422.53050292439195,260.41938473909994 L402.3050277523662,275.5082125597379 L417.9360605617403,295.3176392108896 L392.87587134883563,298.2722098308785 L396.5080295235658,323.2431929498674 L373.3279837315511,313.2718315576007 L363.98803342193634,336.7134163834826 L348.8992056012984,316.4879412114568 L329.08977895014675,332.11897402083093 L326.13520833015775,307.05878480792626 L301.16422521116885,310.69094298265645 L311.13558660343557,287.51089719064174 L287.6940017775537,278.17094688102696 L307.91947694957946,263.082119060389 L292.28844414020534,243.27269240923738 L317.34863335311,240.31812178924835 L313.7164751783798,215.34713867025948 L336.8965209703946,225.3185000625262 L346.2364712800093,201.87691523664435 L361.3252991006473,222.1023904086701 L381.13472575179895,206.47135759929597 L384.0892963717879,231.53154681220065 L409.0602794907768,227.89938863747042 L399.0889180985101,251.0794344294852 Z" fill="#C9AE5D" stroke="#222" stroke-width="3"/>
        
      </g>
    </g>
  
    <g>
      <g>
        <animateTransform attributeName="transform" attributeType="XML"
          type="rotate"
          from="0 125.15346709241638 305.79141317601494"
          to="-360 125.15346709241638 305.79141317601494"
          dur="3.67s"
          repeatCount="indefinite"/>
        <path d="M220.05999726381015,298.3221072627241 L191.588038212392,311.0199273153185 L217.72308351427517,328.01541181509714 L186.72079913896852,331.2934371088245 L206.32481073892595,355.5332765369733 L175.8269206400024,349.07063111673835 L186.98092129344985,378.1820611011379 L159.9727714450872,362.61135372857166 L161.58492985357293,393.74474467108945 L140.71026613977392,370.5901446713161 L132.62277300570722,400.6979433474087 L119.9249529531128,372.22598429599054 L102.92946845333421,398.36102959787377 L99.6514431596068,367.3587452225671 L75.41160373145806,386.9627568225245 L81.87424915169296,356.464866723601 L52.76281916729346,367.61886737704845 L68.33352653985969,340.61071752868577 L37.200135597341884,342.22287593717147 L60.35473559711522,321.34821222337246 L30.24693692102261,313.2607190893058 L58.71889597244075,300.56289903671137 L32.58385067055758,283.56741453693274 L63.586135045864225,280.2893892432054 L43.98212344590681,256.04954981505665 L74.48001354483031,262.51219523529153 L63.32601289138286,233.40076525089205 L90.33416273974558,248.97147262345823 L88.72200433125985,217.83808168094043 L109.59666804505886,240.9926816807138 L117.68416117912548,210.88488300462117 L130.38198123171992,239.35684205603928 L147.37746573149852,213.22179675415612 L150.65549102522596,244.2240811294628 L174.89533045337473,224.62006952950537 L168.43268503313982,255.1179596284289 L197.54411501753927,243.96395897498144 L181.97340764497307,270.9721088233441 L213.10679858749086,269.3599504148584 L189.95219858771753,290.23461412865737 Z" fill="#9DE09D" stroke="#222" stroke-width="3"/>
        <line x1="178.46546709241636" y1="305.79141317601494" x2="138.48146709241638" y2="305.79141317601494" stroke="#333" stroke-width="2"/><line x1="175.85619208914358" y1="322.26572718013216" x2="137.82914834159817" y2="309.9099916770442" stroke="#333" stroke-width="2"/><line x1="168.28378109653357" y1="337.1274205462313" x2="135.93604559344567" y2="313.625415018569" stroke="#333" stroke-width="2"/><line x1="156.4894744626327" y1="348.9217271801321" x2="132.98746893497045" y2="316.57399167704426" stroke="#333" stroke-width="2"/><line x1="141.62778109653357" y1="356.49413817274217" x2="129.27204559344568" y2="318.46709442519676" stroke="#333" stroke-width="2"/><line x1="125.15346709241638" y1="359.10341317601495" x2="125.15346709241638" y2="319.1194131760149" stroke="#333" stroke-width="2"/><line x1="108.67915308829919" y1="356.49413817274217" x2="121.03488859138707" y2="318.46709442519676" stroke="#333" stroke-width="2"/><line x1="93.81745972220006" y1="348.9217271801321" x2="117.3194652498623" y2="316.57399167704426" stroke="#333" stroke-width="2"/><line x1="82.0231530882992" y1="337.1274205462313" x2="114.37088859138709" y2="313.625415018569" stroke="#333" stroke-width="2"/><line x1="74.45074209568917" y1="322.26572718013216" x2="112.47778584323457" y2="309.9099916770442" stroke="#333" stroke-width="2"/><line x1="71.8414670924164" y1="305.79141317601494" x2="111.82546709241637" y2="305.79141317601494" stroke="#333" stroke-width="2"/><line x1="74.45074209568917" y1="289.3170991718977" x2="112.47778584323457" y2="301.67283467498567" stroke="#333" stroke-width="2"/><line x1="82.02315308829918" y1="274.45540580579865" x2="114.37088859138709" y2="297.95741133346087" stroke="#333" stroke-width="2"/><line x1="93.81745972220006" y1="262.6610991718978" x2="117.31946524986229" y2="295.0088346749856" stroke="#333" stroke-width="2"/><line x1="108.67915308829917" y1="255.08868817928771" x2="121.03488859138707" y2="293.1157319268331" stroke="#333" stroke-width="2"/><line x1="125.15346709241636" y1="252.47941317601496" x2="125.15346709241638" y2="292.46341317601497" stroke="#333" stroke-width="2"/><line x1="141.62778109653357" y1="255.08868817928771" x2="129.27204559344568" y2="293.1157319268331" stroke="#333" stroke-width="2"/><line x1="156.4894744626327" y1="262.6610991718977" x2="132.98746893497045" y2="295.0088346749856" stroke="#333" stroke-width="2"/><line x1="168.28378109653357" y1="274.4554058057986" x2="135.93604559344567" y2="297.95741133346087" stroke="#333" stroke-width="2"/><line x1="175.85619208914358" y1="289.3170991718977" x2="137.82914834159817" y2="301.67283467498567" stroke="#333" stroke-width="2"/><circle cx="125.15346709241638" cy="305.79141317601494" r="19.04" fill="#222"/>
      </g>
    </g>
  
    <g>
      <g>
        <animateTransform attributeName="transform" attributeType="XML"
          type="rotate"
          from="0 332.2914401660434 92.96743835236157"
          to="360 332.2914401660434 92.96743835236157"
          dur="4.06s"
          repeatCount="indefinite"/>
        <path d="M453.6442911981978,76.99103242462725 L417.23843588855146,104.15092250177558 L445.37429494542494,139.80789047384854 L400.26595436219645,145.12611758982877 L406.8038390767108,190.07388720400877 L365.07975665108427,172.1254366979286 L348.26784609377773,214.32028938451595 L321.1079560166294,177.91443407486963 L285.4509880445564,206.05029313174308 L280.1327609285762,160.9419525485146 L235.1849913143962,167.47983726302897 L253.13344182047638,125.75575483740246 L210.93858913388902,108.94384428009589 L247.34444444353534,81.78395420294757 L219.20858538666187,46.12698623087464 L264.31692596989035,40.808759114894386 L257.77904125537594,-4.13901049928559 L299.50312368100253,13.809440006794517 L316.31503423830907,-28.38541267979282 L343.4749243154575,8.020442629853505 L379.13189228753043,-20.115416427019923 L384.4501194035106,24.992924156208545 L429.39788901769055,18.455039441694126 L411.4494385116104,60.179121867320696 Z" fill="#E5E4E2" stroke="#222" stroke-width="3"/>
        <line x1="400.8354401660434" y1="92.96743835236157" x2="349.4274401660434" y2="92.96743835236157" stroke="#333" stroke-width="2"/><line x1="391.652285443044" y1="127.23943835236156" x2="347.13165148529356" y2="101.53543835236157" stroke="#333" stroke-width="2"/><line x1="366.5634401660434" y1="152.32828362936212" x2="340.8594401660434" y2="107.80764967161171" stroke="#333" stroke-width="2"/><line x1="332.2914401660434" y1="161.51143835236155" x2="332.2914401660434" y2="110.10343835236156" stroke="#333" stroke-width="2"/><line x1="298.0194401660434" y1="152.32828362936215" x2="323.7234401660434" y2="107.80764967161171" stroke="#333" stroke-width="2"/><line x1="272.9305948890428" y1="127.23943835236156" x2="317.45122884679324" y2="101.53543835236157" stroke="#333" stroke-width="2"/><line x1="263.7474401660434" y1="92.96743835236158" x2="315.1554401660434" y2="92.96743835236157" stroke="#333" stroke-width="2"/><line x1="272.9305948890428" y1="58.69543835236156" x2="317.45122884679324" y2="84.39943835236157" stroke="#333" stroke-width="2"/><line x1="298.01944016604335" y1="33.60659307536102" x2="323.7234401660434" y2="78.12722703311144" stroke="#333" stroke-width="2"/><line x1="332.2914401660434" y1="24.423438352361572" x2="332.2914401660434" y2="75.83143835236157" stroke="#333" stroke-width="2"/><line x1="366.5634401660434" y1="33.60659307536101" x2="340.8594401660434" y2="78.12722703311142" stroke="#333" stroke-width="2"/><line x1="391.6522854430439" y1="58.69543835236154" x2="347.13165148529356" y2="84.39943835236156" stroke="#333" stroke-width="2"/><circle cx="332.2914401660434" cy="92.96743835236157" r="24.480000000000004" fill="#222"/>
      </g>
    </g>
  
  <text x="50%" y="95%" text-anchor="middle" font-size="32" fill="#fff" opacity="0.7" font-family="Arial">Gears Collection #74</text>
</svg>