<svg width="512" height="512" viewBox="0 0 512 512" xmlns="http://www.w3.org/2000/svg">
  <rect width="100%" height="100%" fill="#1e293b" />
  
    <g>
      <g>
        <animateTransform attributeName="transform" attributeType="XML"
          type="rotate"
          from="0 331.85289124220435 321.16393857186904"
          to="360 331.85289124220435 321.16393857186904"
          dur="4.89s"
          repeatCount="indefinite"/>
        <path d="M398.27969695424963,312.41868369312556 L378.35165524063603,327.28561698698945 L393.7528199204606,346.80372854033004 L369.06116290186327,349.714849592378 L372.6399069857886,374.3186123713818 L349.80074422012706,364.4938886466484 L340.59814612094783,387.5907442839143 L325.73121282708394,367.6627025703008 L306.21310127374335,383.06386725012527 L303.3019802216954,358.37221023152796 L278.6982174426916,361.9509543154533 L288.522941167425,339.11179154979175 L265.42608553015907,329.9091934506125 L285.3541272437726,315.0422601567486 L269.9529625639481,295.52414860340804 L294.64461958254543,292.61302755136006 L291.0658754986201,268.0092647723563 L313.90503826428164,277.8339884970897 L323.10763636346087,254.73713285982376 L337.9745696573248,274.66517457343735 L357.4926812106654,259.26400989361287 L360.4038022627133,283.9556669122101 L385.0075650417171,280.37692282828476 L375.1828413169837,303.21608559394633 Z" fill="#9DE09D" stroke="#222" stroke-width="3"/>
        
      </g>
    </g>
  
    <g>
      <g>
        <animateTransform attributeName="transform" attributeType="XML"
          type="rotate"
          from="0 201.73397795830354 385.0550225747534"
          to="-360 201.73397795830354 385.0550225747534"
          dur="3.85s"
          repeatCount="indefinite"/>
        <path d="M294.73150595516694,372.8116657445126 L266.8322475561079,393.625372355922 L288.39387810786224,420.95072853059884 L253.82555828182603,425.026298003466 L258.8357999993215,459.47156589407126 L226.86097212739534,445.7169526794445 L213.9773347885444,478.05255057161685 L193.16362817713497,450.1532921725578 L165.83827200245813,471.71492272431215 L161.76270252959094,437.14660289827594 L127.31743463898567,442.1568446157714 L141.07204785361245,410.1820167438452 L108.73644996144013,397.29837940499425 L136.63570836049917,376.4846727935849 L115.07407780874483,349.15931661890806 L149.64239763478105,345.0837471460408 L144.63215591728553,310.6384792554356 L176.60698378921177,324.39309247006236 L189.49062112806268,292.05749457789 L210.30432773947217,319.956752976949 L237.62968391414898,298.39512242519476 L241.7052533870161,332.9634422512309 L276.15052127762135,327.9532005337354 L262.39590806299464,359.9280284056616 Z" fill="#9DE09D" stroke="#222" stroke-width="3"/>
        
      </g>
    </g>
  
    <g>
      <g>
        <animateTransform attributeName="transform" attributeType="XML"
          type="rotate"
          from="0 78.05716006060237 228.8643092164228"
          to="360 78.05716006060237 228.8643092164228"
          dur="3.95s"
          repeatCount="indefinite"/>
        <path d="M196.33986487723197,205.33641638127773 L160.8550534322431,245.33383420102436 L178.33239530428932,295.86607931858686 L124.9583991321172,299.05697388700366 L101.58505289574745,347.1470140330524 L61.58763507600085,311.66220258806356 L11.055389958438326,329.13954446010973 L7.864495390021489,275.76554828793763 L-40.22554475602723,252.39220205156786 L-4.740733311038355,212.3947842318213 L-22.218075183084594,161.86253911425877 L31.15592098908749,158.67164454584196 L54.529267225457254,110.58160439979322 L94.52668504520392,146.0664158447821 L145.05893016276636,128.58907397273583 L148.24982473118325,181.963070144908 Z" fill="#B87333" stroke="#222" stroke-width="3"/>
        
      </g>
    </g>
  
    <g>
      <g>
        <animateTransform attributeName="transform" attributeType="XML"
          type="rotate"
          from="0 150.80432786216764 62.78025317408762"
          to="-360 150.80432786216764 62.78025317408762"
          dur="4.69s"
          repeatCount="indefinite"/>
        <path d="M296.94330042866727,43.54069244085201 L253.1016086587174,76.24794568735254 L286.9841709543313,119.18779110470186 L232.66252551341728,125.59225741920741 L240.5357624980531,179.7205355330157 L190.2896044135976,158.10614333860218 L170.04388859540327,208.91922574058728 L137.33663534890275,165.07753397063738 L94.39678993155341,198.9600962662513 L87.99232361704784,144.63845082533726 L33.86404550323955,152.511687809973 L55.47843769765308,102.26552972551758 L4.665355295667979,82.01981390732323 L48.50704706561788,49.312560660822726 L14.624484770003932,6.372715243473465 L68.946130210918,-0.03175107103217556 L61.072893226282176,-54.16002918484041 L111.3190513107377,-32.54563699042696 L131.56476712893203,-83.35871939241204 L164.27202037543262,-39.51702762246212 L207.2118657927819,-73.39958991807603 L213.6163321072874,-19.07794447716202 L267.7446102210957,-26.951181461797844 L246.1302180266822,23.29497662265768 Z" fill="#FFD700" stroke="#222" stroke-width="3"/>
        <line x1="233.34832786216765" y1="62.78025317408762" x2="171.44032786216763" y2="62.78025317408762" stroke="#333" stroke-width="2"/><line x1="222.28952879215035" y1="104.05225317408761" x2="168.67562809466332" y2="73.09825317408762" stroke="#333" stroke-width="2"/><line x1="192.07632786216766" y1="134.26545410407033" x2="161.12232786216765" y2="80.65155340658329" stroke="#333" stroke-width="2"/><line x1="150.80432786216764" y1="145.32425317408763" x2="150.80432786216764" y2="83.41625317408761" stroke="#333" stroke-width="2"/><line x1="109.53232786216766" y1="134.26545410407033" x2="140.48632786216766" y2="80.6515534065833" stroke="#333" stroke-width="2"/><line x1="79.31912693218493" y1="104.05225317408761" x2="132.93302762967195" y2="73.09825317408762" stroke="#333" stroke-width="2"/><line x1="68.26032786216764" y1="62.780253174087626" x2="130.16832786216764" y2="62.78025317408762" stroke="#333" stroke-width="2"/><line x1="79.31912693218494" y1="21.508253174087614" x2="132.93302762967195" y2="52.46225317408762" stroke="#333" stroke-width="2"/><line x1="109.5323278621676" y1="-8.704947755895063" x2="140.48632786216763" y2="44.90895294159195" stroke="#333" stroke-width="2"/><line x1="150.8043278621676" y1="-19.763746825912378" x2="150.80432786216764" y2="42.14425317408762" stroke="#333" stroke-width="2"/><line x1="192.07632786216766" y1="-8.704947755895077" x2="161.12232786216765" y2="44.90895294159195" stroke="#333" stroke-width="2"/><line x1="222.28952879215032" y1="21.508253174087585" x2="168.6756280946633" y2="52.46225317408761" stroke="#333" stroke-width="2"/><circle cx="150.80432786216764" cy="62.78025317408762" r="29.480000000000004" fill="#222"/>
      </g>
    </g>
  
    <g>
      <g>
        <animateTransform attributeName="transform" attributeType="XML"
          type="rotate"
          from="0 489.201487238862 141.0344993070404"
          to="360 489.201487238862 141.0344993070404"
          dur="4.78s"
          repeatCount="indefinite"/>
        <path d="M661.256796170535,113.78361549703217 L609.640203491033,160.11011797404615 L644.4148237524757,220.11964436166943 L575.4260881367496,227.259100204928 L568.286632293491,296.2478358206541 L508.27710590586776,261.4732155592115 L461.95060342885375,313.08980823871343 L433.8418857006217,249.68383486656995 L366.0234859561654,264.212500589737 L380.55215167933244,196.39410084528072 L317.14617830718896,168.28538311704864 L368.7627709866909,121.95888064003466 L333.98815072524826,61.949354252411425 L402.9768863409744,54.809898409152794 L410.1163421842329,-14.178837206573291 L470.12586857185624,20.5957830548693 L516.4523710488702,-31.02080962463262 L544.5610887771023,32.3851637475108 L612.3794885215585,17.85649802434378 L597.8508227983916,85.67489776880004 Z" fill="#8EC6F3" stroke="#222" stroke-width="3"/>
        
      </g>
    </g>
  
  <text x="50%" y="95%" text-anchor="middle" font-size="32" fill="#fff" opacity="0.7" font-family="Arial">Gears Collection #41</text>
</svg>