<svg width="512" height="512" viewBox="0 0 512 512" xmlns="http://www.w3.org/2000/svg">
  <rect width="100%" height="100%" fill="#fff7e6" />
  
    <g>
      <polygon points="355,256 339.28409975028694,309.52344092810415 297.12608628718675,346.05356754009733 241.91083101094478,353.9923227462124 191.16878733941678,330.81920786107156 161.01019561216475,283.8915231273015 161.01019561216475,228.10847687269847 191.16878733941678,181.18079213892844 241.91083101094478,158.00767725378768 297.1260862871867,165.94643245990267 339.28409975028694,202.47655907189585" fill="none" stroke="#ff8a65" stroke-width="4" opacity="0.7">
        <animateTransform attributeName="transform" type="rotate"
          from="0 256 256" to="-360 256 256"
          dur="3.050394090464893s" repeatCount="indefinite"/>
      </polygon>
    </g>
  
    <g>
      <polygon points="380,256 356.3181073024935,328.8853712842667 294.3181073024935,373.93100802059905 217.68189269750653,373.93100802059905 155.68189269750653,328.8853712842667 132,256 155.6818926975065,183.11462871573335 217.6818926975065,138.06899197940095 294.31810730249344,138.06899197940095 356.31810730249344,183.11462871573332" fill="none" stroke="#90a4ae" stroke-width="4" opacity="0.7">
        <animateTransform attributeName="transform" type="rotate"
          from="0 256 256" to="-360 256 256"
          dur="3.886679094613322s" repeatCount="indefinite"/>
      </polygon>
    </g>
  
    <g>
      <polygon points="421,256 382.39733311463135,362.059955598279 284.6519493150435,418.49327924701436 173.50000000000006,398.8941916244324 100.95071757032514,312.4333236487354 100.95071757032511,199.56667635126468 173.49999999999994,113.10580837556765 284.65194931504345,93.50672075298567 382.39733311463135,149.94004440172097" fill="none" stroke="#ff8a65" stroke-width="4" opacity="0.7">
        <animateTransform attributeName="transform" type="rotate"
          from="0 256 256" to="-360 256 256"
          dur="3.042707690181711s" repeatCount="indefinite"/>
      </polygon>
    </g>
  
    <g>
      <polygon points="464,256 436.1332839871633,360 360,436.1332839871632 256,464 152.00000000000006,436.1332839871633 75.86671601283675,360 48,256 75.86671601283672,152.00000000000006 151.99999999999991,75.8667160128368 255.99999999999997,48 360,75.86671601283678 436.13328398716317,151.99999999999991" fill="none" stroke="#4db6ac" stroke-width="3" opacity="0.7">
        <animateTransform attributeName="transform" type="rotate"
          from="0 256 256" to="360 256 256"
          dur="2.5118692997822354s" repeatCount="indefinite"/>
      </polygon>
    </g>
  
    <g>
      <polygon points="504,256 470.7743001385408,380 380,470.77430013854075 256,504 132.00000000000006,470.7743001385408 41.22569986145919,380 8,256.00000000000006 41.22569986145916,132.00000000000006 131.9999999999999,41.22569986145925 255.99999999999994,8 380,41.22569986145922 470.77430013854075,131.9999999999999" fill="none" stroke="#4db6ac" stroke-width="4" opacity="0.7">
        <animateTransform attributeName="transform" type="rotate"
          from="0 256 256" to="-360 256 256"
          dur="3.5449408346511726s" repeatCount="indefinite"/>
      </polygon>
    </g>
  
  <text x="50%" y="95%" text-anchor="middle" font-size="32" fill="#222" opacity="0.7" font-family="Arial">Mandala #4</text>
</svg>