<svg width="512" height="512" viewBox="0 0 512 512" xmlns="http://www.w3.org/2000/svg">
  <rect width="100%" height="100%" fill="#f7b2ad" />
  
    <g>
      <g>
        <animateTransform attributeName="transform" attributeType="XML"
          type="rotate"
          from="0 354.0059424473384 275.87046162043043"
          to="360 354.0059424473384 275.87046162043043"
          dur="4.01s"
          repeatCount="indefinite"/>
        <path d="M413.7170260476702,269.9894332006568 L395.80370096757065,279.987181514272 L411.42236259127094,293.28754225569816 L391.0466355499693,295.6691245671223 L400.3865696491026,313.93405867024916 L380.6504603822115,308.33690066166537 L382.2897466568982,328.78573748133175 L366.1978988920258,316.0619557211832 L359.88697086711204,335.5815452207622 L349.88922255349684,317.6682201406627 L336.58886181207066,333.286881764363 L334.2072795006465,312.9111547230614 L315.94234539751966,322.2510888221947 L321.53950340610345,302.51497955530357 L301.09066658643707,304.1542658299903 L313.8144483465856,288.06241806511787 L294.2948588470066,281.7514900402041 L312.2081839271061,271.7537417265889 L296.58952230340583,258.4533809851627 L316.96524934470744,256.07179867373856 L307.62531524557414,237.8068645706117 L327.3614245124653,243.40402257919547 L325.7221382377785,222.95518575952914 L341.81398600265095,235.67896751967766 L348.1249140275648,216.15937802009861 L358.12266234117993,234.07270310019817 L371.4230230826061,218.4540414764979 L373.80460539403026,238.82976851779952 L392.0695394971571,229.48983441866622 L386.4723814885733,249.2259436855573 L406.92121830823965,247.58665741087054 L394.19743654809116,263.678505175743 Z" fill="#C0C0C0" stroke="#222" stroke-width="3"/>
        
      </g>
    </g>
  
    <g>
      <g>
        <animateTransform attributeName="transform" attributeType="XML"
          type="rotate"
          from="0 186.38157176814815 377.46305796630713"
          to="-360 186.38157176814815 377.46305796630713"
          dur="3.95s"
          repeatCount="indefinite"/>
        <path d="M269.9770888086127,369.22961817862404 L244.89843369647332,383.2264658176853 L266.7645599696537,401.84697085568195 L238.2385421118314,405.1811860916758 L251.31444985061808,430.75209383605335 L223.6838968769705,422.9160726240361 L225.97889766153196,451.54444417156895 L203.45031079071055,433.731149707361 L194.61501155583125,461.05857500677166 L180.61816391677,435.9799198946323 L161.9976588787733,457.8460461678127 L158.6634436427795,429.32002830999045 L133.09253589840193,442.39593604877706 L140.9285571104192,414.7653830751295 L112.30018556288633,417.06038385969094 L130.11348002709428,394.53179698886953 L102.78605472768362,385.69649775399023 L127.86470983982298,371.69965011492894 L105.9985835666426,353.0791450769323 L134.5246014244649,349.7449298409385 L121.44869368567824,324.1740220965609 L149.0792466593258,332.0100433085782 L146.78424587476434,303.3816717610453 L169.31283274558575,321.19496622525327 L178.14813198046508,293.8675409258426 L192.14497961952628,318.94619603798196 L210.76548465752296,297.0800697648016 L214.0996998935168,325.6060876226239 L239.67060763789436,312.53017988383726 L231.83458642587706,340.16073285748473 L260.46295797340997,337.8657320729233 L242.64966350920201,360.3943189437447 Z" fill="#9DE09D" stroke="#222" stroke-width="3"/>
        
      </g>
    </g>
  
    <g>
      <g>
        <animateTransform attributeName="transform" attributeType="XML"
          type="rotate"
          from="0 80.28219941769223 295.0288938930674"
          to="360 80.28219941769223 295.0288938930674"
          dur="4.72s"
          repeatCount="indefinite"/>
        <path d="M186.2070097012411,273.95913911532557 L154.42956661617643,309.77772223748667 L170.08091754636712,355.0304790591844 L122.28330903397415,357.8879965831398 L101.35195419543409,400.95370417661627 L65.53337107327295,369.1762610915516 L20.28061425157518,384.82761202174225 L17.4230967276198,337.0300035093493 L-25.642610865856653,316.0986486708092 L6.134832219208008,280.2800655486481 L-9.516518710982666,235.02730872695034 L38.281089801410246,232.16979120299501 L59.212444639950334,189.1040836095185 L95.03102776211152,220.88152669458316 L140.28378458380922,205.23017576439247 L143.14130210776463,253.02778427678547 Z" fill="#E5E4E2" stroke="#222" stroke-width="3"/>
        
      </g>
    </g>
  
    <g>
      <g>
        <animateTransform attributeName="transform" attributeType="XML"
          type="rotate"
          from="0 233.79566738883534 37.12339637756443"
          to="-360 233.79566738883534 37.12339637756443"
          dur="5.03s"
          repeatCount="indefinite"/>
        <path d="M364.6663890901783,19.893939004517627 L325.4051725797754,49.18401653869719 L355.7477656803252,87.63760944975628 L307.10151603174546,93.37295241797023 L314.15217601798645,141.84603729600747 L269.15561653936965,122.48986518160731 L251.02512476188218,167.9941180789074 L221.73504722770258,128.73290156850453 L183.2814543166435,159.07549466905428 L177.54611134842955,110.42924502047455 L129.07302647039228,117.47990500671553 L148.42919858479246,72.48334552809874 L102.92494568749237,54.35285375061124 L142.18616219789527,25.062776216431693 L111.84356909734547,-13.390816694627347 L160.48981874592522,-19.126159662841353 L153.43915875968418,-67.59924454087857 L198.43571823830106,-48.24307242647846 L216.56621001578853,-93.74732532377854 L245.85628754996816,-54.48610881337564 L284.3098804610272,-84.8287019139254 L290.0452234292411,-36.18245226534569 L338.51830830727835,-43.23311225158672 L319.1621361928782,1.7634472270301629 Z" fill="#FFD700" stroke="#222" stroke-width="3"/>
        
      </g>
    </g>
  
    <g>
      <g>
        <animateTransform attributeName="transform" attributeType="XML"
          type="rotate"
          from="0 437.421887052795 69.75795614791244"
          to="360 437.421887052795 69.75795614791244"
          dur="3.82s"
          repeatCount="indefinite"/>
        <path d="M590.424390795699,39.32386591339643 L544.5236396728278,91.06181931207364 L567.1311465719921,156.42691249897038 L498.0901564985356,160.55443781135037 L467.855977287311,222.76045989081638 L416.11802388863384,176.85970876794522 L350.75293070173706,199.46721566710949 L346.62540538935707,130.426225593653 L284.41938330989103,100.19204638242843 L330.32013443276225,48.45409298375127 L307.7126275335979,-16.91100020314552 L376.75361760705437,-21.03852551552545 L406.9877968182789,-83.2445475949915 L458.7257502169562,-37.34379647212032 L524.0908434038529,-59.951303371284666 L528.2183687162329,9.089686702171889 Z" fill="#E5E4E2" stroke="#222" stroke-width="3"/>
        
      </g>
    </g>
  
  <text x="50%" y="95%" text-anchor="middle" font-size="32" fill="#fff" opacity="0.7" font-family="Arial">Gears Collection #4</text>
</svg>