<svg width="512" height="512" viewBox="0 0 512 512" xmlns="http://www.w3.org/2000/svg">
  <rect width="100%" height="100%" fill="#9de09d" />
  
    <g>
      <g>
        <animateTransform attributeName="transform" attributeType="XML"
          type="rotate"
          from="0 351.36476202388343 286.0925599464067"
          to="360 351.36476202388343 286.0925599464067"
          dur="3.68s"
          repeatCount="indefinite"/>
        <path d="M411.1926641284805,274.1920503034229 L393.24429349710135,294.4229166964954 L402.0844083743387,319.98234416060245 L375.08761097382046,321.5963123917254 L363.26527166686725,345.92046205100377 L343.0344052737948,327.97209141962463 L317.4749778096877,336.812206296862 L315.86100957856473,309.81540889634374 L291.53685991928637,297.99306958939053 L309.4852305506655,277.76220319631807 L300.64511567342817,252.20277573221097 L327.6419130739464,250.58880750108804 L339.46425238089955,226.26465784180965 L359.6951187739721,244.21302847318879 L385.2545462380791,235.37291359595145 L386.8685144692021,262.3697109964697 Z" fill="#E5E4E2" stroke="#222" stroke-width="3"/>
        
      </g>
    </g>
  
    <g>
      <g>
        <animateTransform attributeName="transform" attributeType="XML"
          type="rotate"
          from="0 180.41407749181937 373.8421330364794"
          to="-360 180.41407749181937 373.8421330364794"
          dur="4.8s"
          repeatCount="indefinite"/>
        <path d="M265.08346865314275,362.695196220887 L239.68265130474575,381.6449888073941 L259.31338956828324,406.52329816045807 L227.8407401744294,410.2338912626207 L232.4023035291641,441.5945082973509 L203.29089307860443,429.0716514900041 L191.5610143074118,458.5115241978028 L172.6112217209047,433.1107068494058 L147.7329123678407,452.7414451129433 L144.02231926567805,421.26879571908944 L112.66170223094788,425.8303590738241 L125.18455903829465,396.7189486232645 L95.74468633049597,384.98906985207185 L121.145503678893,366.03927726556475 L101.51476541535547,341.16096791250084 L132.98741480920933,337.45037481033813 L128.4258514544746,306.08975777560795 L157.5372619050343,318.61261458295473 L169.26714067622697,289.172741875156 L188.21693326273407,314.57355922355305 L213.09524261579804,294.9428209600155 L216.8058357179607,326.4154703538694 L248.16645275269082,321.85390699913467 L235.6435959453441,350.9653174496944 Z" fill="#FFD700" stroke="#222" stroke-width="3"/>
        <line x1="228.23807749181935" y1="373.8421330364794" x2="192.37007749181936" y2="373.8421330364794" stroke="#333" stroke-width="2"/><line x1="221.83087640240637" y1="397.7541330364794" x2="190.7682772194661" y2="379.82013303647943" stroke="#333" stroke-width="2"/><line x1="204.32607749181938" y1="415.2589319470664" x2="186.39207749181938" y2="384.19633276412617" stroke="#333" stroke-width="2"/><line x1="180.41407749181937" y1="421.66613303647944" x2="180.41407749181937" y2="385.79813303647944" stroke="#333" stroke-width="2"/><line x1="156.5020774918194" y1="415.2589319470664" x2="174.43607749181936" y2="384.19633276412617" stroke="#333" stroke-width="2"/><line x1="138.99727858123237" y1="397.7541330364794" x2="170.05987776417263" y2="379.82013303647943" stroke="#333" stroke-width="2"/><line x1="132.5900774918194" y1="373.8421330364794" x2="168.45807749181938" y2="373.8421330364794" stroke="#333" stroke-width="2"/><line x1="138.9972785812324" y1="349.93013303647945" x2="170.05987776417263" y2="367.8641330364794" stroke="#333" stroke-width="2"/><line x1="156.50207749181936" y1="332.42533412589245" x2="174.43607749181936" y2="363.4879333088327" stroke="#333" stroke-width="2"/><line x1="180.41407749181937" y1="326.0181330364794" x2="180.41407749181937" y2="361.8861330364794" stroke="#333" stroke-width="2"/><line x1="204.32607749181938" y1="332.42533412589245" x2="186.39207749181938" y2="363.4879333088327" stroke="#333" stroke-width="2"/><line x1="221.83087640240635" y1="349.9301330364794" x2="190.7682772194661" y2="367.8641330364794" stroke="#333" stroke-width="2"/><circle cx="180.41407749181937" cy="373.8421330364794" r="17.08" fill="#222"/>
      </g>
    </g>
  
    <g>
      <g>
        <animateTransform attributeName="transform" attributeType="XML"
          type="rotate"
          from="0 77.24111572671671 234.89878455228438"
          to="360 77.24111572671671 234.89878455228438"
          dur="4.11s"
          repeatCount="indefinite"/>
        <path d="M186.1017615055611,220.5670086465227 L153.4435677719078,244.93102768631755 L178.68308839645601,276.91742542597126 L138.21825346150104,281.6881879858947 L144.08312063187424,322.008981316262 L106.65416433829752,305.9081654211019 L91.57289163247839,343.7594303311288 L67.20887259268356,311.10123659747546 L35.222474853029865,336.3407572220237 L30.451712293106446,295.8759222870687 L-9.869081037260912,301.7407894574419 L6.231734857899212,264.3118331638652 L-31.619530052127658,249.23056045804606 L1.0386636815256338,224.86654141825124 L-24.200856943022586,192.8801436785976 L16.26397799193238,188.10938111867412 L10.399110821559162,147.78858778830678 L47.82806711513594,163.88940368346687 L62.90933982095505,126.03813877344001 L87.27335886074992,158.6963325070933 L119.25975660040359,133.4568118825451 L124.03051916032697,173.92164681750006 L164.3513124906943,168.05677964712683 L148.25049659553423,205.4857359407036 Z" fill="#8EC6F3" stroke="#222" stroke-width="3"/>
        
      </g>
    </g>
  
    <g>
      <g>
        <animateTransform attributeName="transform" attributeType="XML"
          type="rotate"
          from="0 268.7840021403398 36.37174751577203"
          to="-360 268.7840021403398 36.37174751577203"
          dur="4.26s"
          repeatCount="indefinite"/>
        <path d="M400.40538677045333,10.190626301207615 L360.9189713814193,54.69853236596712 L380.3672241113414,110.92927278700265 L320.97426983020125,114.48000289547313 L294.9651233549042,167.99313214588557 L250.45721729014474,128.50671675685152 L194.22647686910915,147.9549694867736 L190.67574676063867,88.56201520563346 L137.16261751022626,62.55286873033643 L176.6490328992603,18.04496266557697 L157.2007801693382,-38.1857777554586 L216.59373445047828,-41.736507863929035 L242.6028809257753,-95.24963711434151 L287.1107869905349,-55.763221725307446 L343.3415274115704,-75.21147445522959 L346.8922575200409,-15.818520174089407 Z" fill="#9DE09D" stroke="#222" stroke-width="3"/>
        
      </g>
    </g>
  
    <g>
      <g>
        <animateTransform attributeName="transform" attributeType="XML"
          type="rotate"
          from="0 499.6989362021694 165.3863779891181"
          to="360 499.6989362021694 165.3863779891181"
          dur="4.55s"
          repeatCount="indefinite"/>
        <path d="M657.8100253322435,152.9427654066819 L610.3766985932212,174.09690679682345 L653.9168055772409,202.4108126966647 L602.2680419015725,207.87189265029036 L634.9276662687284,248.25465035306757 L584.1192065030848,237.4881003147351 L602.7013966673366,285.98676413328303 L557.7067268569341,260.04648903570944 L560.3925285752726,311.9136718454082 L525.616040497452,273.33888655166817 L512.1425487846057,323.49746711919215 L490.9884073944641,276.06414038017 L462.67450149462286,319.60424736418963 L457.21342154099716,267.95548368852116 L416.83066383821995,300.6151080556771 L427.5972138765525,249.80664829003354 L379.09855005800455,268.38883845428524 L405.03882515557814,223.39416864388275 L353.1716423458794,226.07997036222136 L391.74642763961936,191.30348228440073 L341.5878470720953,177.82999057155433 L389.0211738111176,156.67584918141276 L345.48106682709795,128.36194328157146 L397.12983050276637,122.9008633279459 L364.4702061356104,82.51810562516864 L415.278665901254,93.28465566350113 L396.69647573700223,44.78599184495326 L441.6911455474048,70.72626694252676 L439.00534382906625,18.859084132828002 L473.78183190688685,57.43386942656804 L487.25532361973313,7.275288859044025 L508.4094650098747,54.70861559806623 L536.7233709097159,11.168508614046573 L542.1844508633417,62.81727228971506 L582.5672085661189,30.157647922559107 L571.8006585277865,80.96610768820268 L620.2993223463343,62.38391752395091 L594.3590472487607,107.37858733435348 L646.2262300584596,104.6927856160149 L607.6514447647195,139.46927369383542 Z" fill="#C0C0C0" stroke="#222" stroke-width="3"/>
        <line x1="588.5149362021695" y1="165.3863779891181" x2="521.9029362021694" y2="165.3863779891181" stroke="#333" stroke-width="2"/><line x1="584.1679717534398" y1="192.83203136152343" x2="520.816195089987" y2="172.24779133221944" stroke="#333" stroke-width="2"/><line x1="571.5525895745748" y1="217.5911129567264" x2="517.6623495452708" y2="178.43756173102017" stroke="#333" stroke-width="2"/><line x1="551.9036711697777" y1="237.24003136152345" x2="512.7501199440715" y2="183.34979133221944" stroke="#333" stroke-width="2"/><line x1="527.1445895745748" y1="249.85541354038844" x2="506.56034954527075" y2="186.5036368769357" stroke="#333" stroke-width="2"/><line x1="499.6989362021694" y1="254.2023779891181" x2="499.6989362021694" y2="187.5903779891181" stroke="#333" stroke-width="2"/><line x1="472.2532828297641" y1="249.85541354038847" x2="492.8375228590681" y2="186.5036368769357" stroke="#333" stroke-width="2"/><line x1="447.49420123456116" y1="237.24003136152345" x2="486.6477524602673" y2="183.34979133221944" stroke="#333" stroke-width="2"/><line x1="427.8452828297641" y1="217.59111295672642" x2="481.7355228590681" y2="178.43756173102017" stroke="#333" stroke-width="2"/><line x1="415.2299006508991" y1="192.83203136152343" x2="478.58167731435185" y2="172.24779133221944" stroke="#333" stroke-width="2"/><line x1="410.8829362021694" y1="165.3863779891181" x2="477.4949362021694" y2="165.3863779891181" stroke="#333" stroke-width="2"/><line x1="415.2299006508991" y1="137.94072461671274" x2="478.58167731435185" y2="158.52496464601677" stroke="#333" stroke-width="2"/><line x1="427.8452828297641" y1="113.18164302150981" x2="481.7355228590681" y2="152.33519424721604" stroke="#333" stroke-width="2"/><line x1="447.4942012345611" y1="93.53272461671278" x2="486.6477524602673" y2="147.42296464601677" stroke="#333" stroke-width="2"/><line x1="472.2532828297641" y1="80.91734243784775" x2="492.8375228590681" y2="144.2691191013005" stroke="#333" stroke-width="2"/><line x1="499.6989362021694" y1="76.5703779891181" x2="499.6989362021694" y2="143.1823779891181" stroke="#333" stroke-width="2"/><line x1="527.1445895745748" y1="80.91734243784774" x2="506.56034954527075" y2="144.2691191013005" stroke="#333" stroke-width="2"/><line x1="551.9036711697777" y1="93.53272461671276" x2="512.7501199440715" y2="147.42296464601677" stroke="#333" stroke-width="2"/><line x1="571.5525895745748" y1="113.18164302150979" x2="517.6623495452708" y2="152.335194247216" stroke="#333" stroke-width="2"/><line x1="584.1679717534398" y1="137.94072461671274" x2="520.816195089987" y2="158.52496464601677" stroke="#333" stroke-width="2"/><circle cx="499.6989362021694" cy="165.3863779891181" r="31.72" fill="#222"/>
      </g>
    </g>
  
  <text x="50%" y="95%" text-anchor="middle" font-size="32" fill="#fff" opacity="0.7" font-family="Arial">Gears Collection #5</text>
</svg>