<svg width="512" height="512" viewBox="0 0 512 512" xmlns="http://www.w3.org/2000/svg">
  <rect width="100%" height="100%" fill="#f7b2ad" />
  
    <g>
      <g>
        <animateTransform attributeName="transform" attributeType="XML"
          type="rotate"
          from="0 340.01508043259685 310.23528611433966"
          to="360 340.01508043259685 310.23528611433966"
          dur="4.19s"
          repeatCount="indefinite"/>
        <path d="M404.70208766628963,303.8641719929182 L385.2959854961818,314.69506599933464 L402.2162022551904,329.1037901358797 L380.14249796044703,331.68383763992256 L390.26075990117477,351.47084958497663 L368.87997486204273,345.4072617423442 L370.6558683262867,367.56016829698274 L353.2230332476749,353.77607139015515 L346.3861945540183,374.92229334803244 L335.55530054760186,355.5161911779246 L321.1465764110568,372.4364079369332 L318.56652890701395,350.36270364218984 L298.77951696195987,360.4809655829176 L304.8431048045923,339.10018054378554 L282.69019824995377,340.8760740080295 L296.47429515678135,323.4432389294177 L275.32807319890406,316.6064002357611 L294.7341753690119,305.77550622934467 L277.8139586100033,291.3667820927996 L299.88766290474666,288.78673458875676 L289.7694009640189,268.99972264370274 L311.150186003151,275.0633104863351 L309.37429253890696,252.91040393169658 L326.8071276175188,266.69450083852416 L333.6439663111754,245.54827888064688 L344.47486031759183,264.9543810507547 L358.8835844541369,248.0341642917461 L361.46363195817975,270.10786858648953 L381.2506439032338,259.98960664576174 L375.1870560606014,281.3703916848938 L397.3399626152399,279.59449822064977 L383.55586570841234,297.02733329926156 Z" fill="#9DE09D" stroke="#222" stroke-width="3"/>
        <line x1="376.4150804325968" y1="310.23528611433966" x2="349.11508043259687" y2="310.23528611433966" stroke="#333" stroke-width="2"/><line x1="373.6442954160077" y1="324.1649630524289" x2="348.42238417844953" y2="313.71770534886195" stroke="#333" stroke-width="2"/><line x1="365.75376726778717" y1="335.97397294953" x2="346.4497521413944" y2="316.6699578231372" stroke="#333" stroke-width="2"/><line x1="353.9447573706861" y1="343.86450109775046" x2="343.49749966711914" y2="318.64258986019234" stroke="#333" stroke-width="2"/><line x1="340.01508043259685" y1="346.63528611433964" x2="340.01508043259685" y2="319.3352861143397" stroke="#333" stroke-width="2"/><line x1="326.0854034945076" y1="343.86450109775046" x2="336.53266119807455" y2="318.64258986019234" stroke="#333" stroke-width="2"/><line x1="314.2763935974065" y1="335.97397294953" x2="333.5804087237993" y2="316.6699578231372" stroke="#333" stroke-width="2"/><line x1="306.385865449186" y1="324.1649630524289" x2="331.60777668674416" y2="313.71770534886195" stroke="#333" stroke-width="2"/><line x1="303.61508043259687" y1="310.23528611433966" x2="330.9150804325968" y2="310.23528611433966" stroke="#333" stroke-width="2"/><line x1="306.385865449186" y1="296.3056091762504" x2="331.60777668674416" y2="306.75286687981736" stroke="#333" stroke-width="2"/><line x1="314.2763935974065" y1="284.49659927914934" x2="333.5804087237993" y2="303.8006144055421" stroke="#333" stroke-width="2"/><line x1="326.0854034945076" y1="276.6060711309288" x2="336.53266119807455" y2="301.82798236848697" stroke="#333" stroke-width="2"/><line x1="340.01508043259685" y1="273.8352861143397" x2="340.01508043259685" y2="301.13528611433964" stroke="#333" stroke-width="2"/><line x1="353.94475737068615" y1="276.60607113092885" x2="343.49749966711914" y2="301.82798236848697" stroke="#333" stroke-width="2"/><line x1="365.75376726778717" y1="284.49659927914934" x2="346.4497521413944" y2="303.8006144055421" stroke="#333" stroke-width="2"/><line x1="373.6442954160077" y1="296.3056091762504" x2="348.42238417844953" y2="306.75286687981736" stroke="#333" stroke-width="2"/><circle cx="340.01508043259685" cy="310.23528611433966" r="13" fill="#222"/>
      </g>
    </g>
  
    <g>
      <g>
        <animateTransform attributeName="transform" attributeType="XML"
          type="rotate"
          from="0 162.52300159633438 360.2211627714885"
          to="-360 162.52300159633438 360.2211627714885"
          dur="4.78s"
          repeatCount="indefinite"/>
        <path d="M253.0848117235043,351.30160300149845 L225.91626868535332,366.4648546104815 L249.60457214796537,386.63706840164457 L218.70138613532458,390.24913490730455 L232.86695285234345,417.95095163038025 L202.9338537975586,409.4619286506948 L205.42010464750015,440.4759978271888 L181.01413553744362,421.1782621576302 L171.44256136632438,450.7829728986584 L156.2793097573414,423.6144298605074 L136.1070959661783,447.30273332311947 L132.49502946051837,416.39954731047874 L104.79321273744264,430.56511402749754 L113.28223571712803,400.6320149727127 L82.26816654063408,403.1182658226543 L101.56590221019269,378.7122967125977 L71.96119146916448,369.1407225414785 L99.12973450731545,353.97747093249546 L75.44143104470336,333.80525714133245 L106.34461705734417,330.1931906356724 L92.1790503403253,302.49137391259677 L122.11214939511018,310.9803968922821 L119.62589854516857,279.96632771578817 L144.0318676552251,299.2640633853468 L153.60344182634438,269.6593526443186 L168.76669343532737,296.82789568246955 L188.93890722649041,273.1395922198575 L192.55097373215042,304.0427782324983 L220.25279045522615,289.8772115154794 L211.7637674755407,319.8103105702642 L242.77783665203467,317.3240597203227 L223.48010098247607,341.7300288303792 Z" fill="#FFD700" stroke="#222" stroke-width="3"/>
        <line x1="213.4830015963344" y1="360.2211627714885" x2="175.2630015963344" y2="360.2211627714885" stroke="#333" stroke-width="2"/><line x1="209.60390257310956" y1="379.72271048481343" x2="174.29322684052818" y2="365.0965496998197" stroke="#333" stroke-width="2"/><line x1="198.55716316560085" y1="396.25532434075495" x2="171.53154198865099" y2="369.2297031638051" stroke="#333" stroke-width="2"/><line x1="182.02454930965936" y1="407.30206374826366" x2="167.39838852466562" y2="371.9913880156823" stroke="#333" stroke-width="2"/><line x1="162.52300159633438" y1="411.18116277148846" x2="162.52300159633438" y2="372.9611627714885" stroke="#333" stroke-width="2"/><line x1="143.0214538830094" y1="407.30206374826366" x2="157.64761466800314" y2="371.9913880156823" stroke="#333" stroke-width="2"/><line x1="126.48884002706792" y1="396.25532434075495" x2="153.51446120401778" y2="369.2297031638051" stroke="#333" stroke-width="2"/><line x1="115.4421006195592" y1="379.72271048481343" x2="150.7527763521406" y2="365.0965496998197" stroke="#333" stroke-width="2"/><line x1="111.56300159633437" y1="360.2211627714885" x2="149.78300159633437" y2="360.2211627714885" stroke="#333" stroke-width="2"/><line x1="115.4421006195592" y1="340.7196150581635" x2="150.7527763521406" y2="355.34577584315724" stroke="#333" stroke-width="2"/><line x1="126.48884002706791" y1="324.187001202222" x2="153.51446120401778" y2="351.2126223791719" stroke="#333" stroke-width="2"/><line x1="143.02145388300943" y1="313.1402617947133" x2="157.64761466800314" y2="348.4509375272947" stroke="#333" stroke-width="2"/><line x1="162.52300159633438" y1="309.2611627714885" x2="162.52300159633438" y2="347.48116277148847" stroke="#333" stroke-width="2"/><line x1="182.02454930965936" y1="313.1402617947133" x2="167.39838852466562" y2="348.4509375272947" stroke="#333" stroke-width="2"/><line x1="198.55716316560083" y1="324.187001202222" x2="171.53154198865099" y2="351.2126223791719" stroke="#333" stroke-width="2"/><line x1="209.60390257310956" y1="340.7196150581635" x2="174.29322684052818" y2="355.34577584315724" stroke="#333" stroke-width="2"/><circle cx="162.52300159633438" cy="360.2211627714885" r="18.2" fill="#222"/>
      </g>
    </g>
  
    <g>
      <g>
        <animateTransform attributeName="transform" attributeType="XML"
          type="rotate"
          from="0 275.9439588147422 77.10830509272972"
          to="360 275.9439588147422 77.10830509272972"
          dur="3.69s"
          repeatCount="indefinite"/>
        <path d="M391.943007595478,61.83674060298369 L357.14329296125726,87.79840023555195 L384.03786411856277,121.88226667944522 L340.91959738459434,126.96586612854394 L347.1690460087625,169.93064590680422 L307.28573192544303,152.7740388054041 L291.2155233044882,193.10735387346554 L265.25386367192,158.3076392392448 L231.1699972280267,185.20221039655027 L226.08639777892796,142.08394366258187 L183.12161800066767,148.33339228675 L200.2782251020678,108.45007820343058 L159.94491003400637,92.37986958247575 L194.74462466822712,66.41820994990752 L167.8500535109216,32.334343506014285 L210.96832024489004,27.250744056915508 L204.71887162072184,-15.714035721344771 L244.60218570404135,1.442571380055341 L260.67239432499616,-38.8907436880061 L286.63405395756445,-4.091029053785334 L320.7179204014577,-30.985600211090812 L325.8015198505564,12.132666522877571 L368.7662996288167,5.8832178987093755 L351.60969252741654,45.766531982028894 Z" fill="#8EC6F3" stroke="#222" stroke-width="3"/>
        
      </g>
    </g>
  
  <text x="50%" y="95%" text-anchor="middle" font-size="32" fill="#fff" opacity="0.7" font-family="Arial">Gears Collection #1</text>
</svg>