<svg width="512" height="512" viewBox="0 0 512 512" xmlns="http://www.w3.org/2000/svg">
  <rect width="100%" height="100%" fill="#f0f4c3" />
  
    <g>
      <polygon points="340,256 326.6652967578192,301.4138286662702 290.89486109215846,332.40908760977953 244.04555358504405,339.1450011179984 200.99169834859606,319.4829642457577 175.40259021638224,279.6655347746801 175.4025902163822,232.33446522531995 200.99169834859606,192.51703575424233 244.04555358504405,172.85499888200167 290.8948610921584,179.59091239022044 326.6652967578192,210.58617133372982" fill="none" stroke="#ffd54f" stroke-width="3" opacity="0.7">
        <animateTransform attributeName="transform" type="rotate"
          from="0 256 256" to="-360 256 256"
          dur="2.9038423353527874s" repeatCount="indefinite"/>
      </polygon>
    </g>
    <g>
      <polygon points="383,256 365.9852262806237,319.5 319.5,365.9852262806237 256,383 192.50000000000003,365.9852262806237 146.01477371937628,319.5 129,256 146.01477371937625,192.50000000000003 192.49999999999994,146.0147737193763 255.99999999999997,129 319.5,146.0147737193763 365.9852262806237,192.49999999999994" fill="none" stroke="#f48fb1" stroke-width="4" opacity="0.7">
        <animateTransform attributeName="transform" type="rotate"
          from="0 256 256" to="360 256 256"
          dur="2.2440415826907256s" repeatCount="indefinite"/>
      </polygon>
    </g>
    <g>
      <polygon points="427,256 376.91525958289964,376.91525958289964 256,427 135.08474041710036,376.91525958289964 85,256 135.08474041710036,135.08474041710036 255.99999999999997,85 376.9152595828996,135.08474041710036" fill="none" stroke="#ba68c8" stroke-width="4" opacity="0.7">
        <animateTransform attributeName="transform" type="rotate"
          from="0 256 256" to="-360 256 256"
          dur="3.4321527766766837s" repeatCount="indefinite"/>
      </polygon>
    </g>
    <g>
      <polygon points="474,256 422.9976885999372,396.12769891166556 293.85530273139085,470.68809015666136 147.00000000000006,444.79353802500765 51.14700866867199,330.5603912449958 51.14700866867196,181.43960875500423 146.9999999999999,67.20646197499241 293.85530273139074,41.31190984333864 422.9976885999372,115.87230108833438" fill="none" stroke="#ffd54f" stroke-width="4" opacity="0.7">
        <animateTransform attributeName="transform" type="rotate"
          from="0 256 256" to="360 256 256"
          dur="4.514244987726238s" repeatCount="indefinite"/>
      </polygon>
    </g>
  <text x="50%" y="95%" text-anchor="middle" font-size="32" fill="#222" opacity="0.7" font-family="Arial">Mandala #1</text>
</svg>