<svg width="512" height="512" viewBox="0 0 512 512" xmlns="http://www.w3.org/2000/svg">
  <rect width="100%" height="100%" fill="#fff7e6" />
  
    <g>
      <polygon points="353,256 341.88923448836135,301.07814768824556 311.1022804329221,335.82943499168465 267.69205798476634,352.29276078751127 221.60332595687407,346.69657554048524 183.39445742740318,320.3228978493571 161.81864370967295,279.21361943589307 161.81864370967293,232.78638056410693 183.39445742740315,191.6771021506429 221.60332595687402,165.30342445951476 267.69205798476634,159.70723921248876 311.10228043292204,176.17056500831526 341.88923448836135,210.92185231175446" fill="none" stroke="#ff8a65" stroke-width="4" opacity="0.7">
        <animateTransform attributeName="transform" type="rotate"
          from="0 256 256" to="-360 256 256"
          dur="4.066730135717581s" repeatCount="indefinite"/>
      </polygon>
    </g>
    <g>
      <polygon points="392,256 370.4104804650407,329.5271511739613 312.49644176825655,379.7099513682145 236.64518199483325,390.6157160958069 166.93894018344125,358.78194211217914 125.50895558842836,294.3156277304344 125.50895558842834,217.68437226956559 166.93894018344122,153.2180578878209 236.6451819948332,121.38428390419315 312.4964417682565,132.29004863178548 370.4104804650407,182.47284882603873" fill="none" stroke="#90a4ae" stroke-width="3" opacity="0.7">
        <animateTransform attributeName="transform" type="rotate"
          from="0 256 256" to="360 256 256"
          dur="4.955610332565406s" repeatCount="indefinite"/>
      </polygon>
    </g>
    <g>
      <polygon points="419,256 397.1621408168635,337.5 337.5,397.1621408168635 256,419 174.50000000000006,397.1621408168635 114.83785918313649,337.5 93,256 114.83785918313646,174.50000000000006 174.49999999999994,114.83785918313652 255.99999999999997,93 337.5,114.83785918313652 397.1621408168635,174.49999999999994" fill="none" stroke="#64b5f6" stroke-width="4" opacity="0.7">
        <animateTransform attributeName="transform" type="rotate"
          from="0 256 256" to="-360 256 256"
          dur="2.0210469191907037s" repeatCount="indefinite"/>
      </polygon>
    </g>
    <g>
      <polygon points="470,256 407.32085117392114,407.32085117392114 256,470 104.67914882607883,407.32085117392114 42,256 104.6791488260788,104.67914882607883 255.99999999999997,42 407.32085117392114,104.6791488260788" fill="none" stroke="#64b5f6" stroke-width="3" opacity="0.7">
        <animateTransform attributeName="transform" type="rotate"
          from="0 256 256" to="-360 256 256"
          dur="2.219362840029109s" repeatCount="indefinite"/>
      </polygon>
    </g>
  <text x="50%" y="95%" text-anchor="middle" font-size="32" fill="#222" opacity="0.7" font-family="Arial">Mandala #10</text>
</svg>