<svg width="512" height="512" viewBox="0 0 512 512" xmlns="http://www.w3.org/2000/svg">
  <rect width="100%" height="100%" fill="#ffebee" />
  
    <g>
      <polygon points="351,256 340.1183224370549,300.148701344158 309.9661509394598,334.1834672598974 267.4509846242557,350.3073430393151 222.31253573095913,344.8265430551144 184.89147892374538,318.99665253287554 163.76052734452506,278.734988107318 163.76052734452503,233.26501189268205 184.89147892374538,193.00334746712448 222.3125357309591,167.1734569448856 267.4509846242557,161.69265696068487 309.9661509394597,177.8165327401026 340.118322437055,211.85129865584202" fill="none" stroke="#90a4ae" stroke-width="3" opacity="0.7">
        <animateTransform attributeName="transform" type="rotate"
          from="0 256 256" to="360 256 256"
          dur="2.000547640010954s" repeatCount="indefinite"/>
      </polygon>
    </g>
    <g>
      <polygon points="378,256 354.7000733137436,327.7098007796817 293.7000733137436,372.02889498800874 218.2999266862564,372.02889498800874 157.2999266862564,327.70980077968176 134,256 157.2999266862564,184.2901992203183 218.2999266862564,139.97110501199126 293.7000733137436,139.97110501199126 354.7000733137436,184.29019922031824" fill="none" stroke="#90a4ae" stroke-width="4" opacity="0.7">
        <animateTransform attributeName="transform" type="rotate"
          from="0 256 256" to="360 256 256"
          dur="2.2017274370335023s" repeatCount="indefinite"/>
      </polygon>
    </g>
    <g>
      <polygon points="424,256 374.79393923934,374.79393923934 256,424 137.20606076066002,374.79393923934 88,256 137.20606076066,137.20606076066002 255.99999999999997,88 374.7939392393399,137.20606076066" fill="none" stroke="#ff8a65" stroke-width="3" opacity="0.7">
        <animateTransform attributeName="transform" type="rotate"
          from="0 256 256" to="-360 256 256"
          dur="4.387893725072759s" repeatCount="indefinite"/>
      </polygon>
    </g>
    <g>
      <polygon points="475,256 433.1747217681135,384.7249702520516 323.6747217681135,464.2813770686386 188.32527823188653,464.2813770686387 78.82527823188653,384.72497025205166 37,256 78.8252782318865,127.2750297479484 188.3252782318865,47.71862293136138 323.67472176811344,47.71862293136135 433.1747217681135,127.27502974794834" fill="none" stroke="#f48fb1" stroke-width="3" opacity="0.7">
        <animateTransform attributeName="transform" type="rotate"
          from="0 256 256" to="360 256 256"
          dur="4.428789590985576s" repeatCount="indefinite"/>
      </polygon>
    </g>
  <text x="50%" y="95%" text-anchor="middle" font-size="32" fill="#222" opacity="0.7" font-family="Arial">Mandala #3</text>
</svg>