<svg width="512" height="512" viewBox="0 0 512 512" xmlns="http://www.w3.org/2000/svg">
  <rect width="100%" height="100%" fill="#fff7e6" />
  
    <g>
      <polygon points="342,256 321.87982210823213,311.2797344330424 270.933743279356,340.6934667590499 213.00000000000003,330.47818472546174 175.1864346124119,285.4137323260075 175.18643461241186,226.5862676739925 212.99999999999997,181.52181527453828 270.93374327935595,171.3065332409501 321.8798221082321,200.7202655669576" fill="none" stroke="#4db6ac" stroke-width="3" opacity="0.7">
        <animateTransform attributeName="transform" type="rotate"
          from="0 256 256" to="-360 256 256"
          dur="2.1843282028991062s" repeatCount="indefinite"/>
      </polygon>
    </g>
    <g>
      <polygon points="388,256 372.8801953862237,317.34345870977745 330.9845465685126,364.63387029796263 271.9108417937026,387.0375713809431 209.1921549103853,379.42214403447474 157.19658124141466,343.53219088778496 127.83568009976113,287.58966768595764 127.8356800997611,224.41033231404242 157.19658124141463,168.46780911221506 209.19215491038526,132.57785596552526 271.9108417937027,124.96242861905688 330.9845465685124,147.36612970203726 372.8801953862237,194.65654129022258" fill="none" stroke="#ba68c8" stroke-width="3" opacity="0.7">
        <animateTransform attributeName="transform" type="rotate"
          from="0 256 256" to="360 256 256"
          dur="3.714914595333565s" repeatCount="indefinite"/>
      </polygon>
    </g>
    <g>
      <polygon points="423,256 383.9294220008693,363.34553081765205 284.9992456703774,420.46289475303877 172.50000000000006,400.6262424320013 99.0713323287533,313.1173639353867 99.0713323287533,198.88263606461334 172.49999999999994,111.37375756799878 284.9992456703773,91.53710524696123 383.9294220008693,148.6544691823479" fill="none" stroke="#ff8a65" stroke-width="3" opacity="0.7">
        <animateTransform attributeName="transform" type="rotate"
          from="0 256 256" to="360 256 256"
          dur="2.8559666975284888s" repeatCount="indefinite"/>
      </polygon>
    </g>
    <g>
      <polygon points="462,256 359,434.4012331795943 153.00000000000006,434.4012331795944 50,256 152.99999999999991,77.59876682040567 359,77.59876682040564" fill="none" stroke="#ff8a65" stroke-width="4" opacity="0.7">
        <animateTransform attributeName="transform" type="rotate"
          from="0 256 256" to="360 256 256"
          dur="4.051552514991698s" repeatCount="indefinite"/>
      </polygon>
    </g>
  <text x="50%" y="95%" text-anchor="middle" font-size="32" fill="#222" opacity="0.7" font-family="Arial">Mandala #7</text>
</svg>