<svg width="512" height="512" viewBox="0 0 512 512" xmlns="http://www.w3.org/2000/svg">
  <rect width="100%" height="100%" fill="#fff7e6" />
  
    <g>
      <polygon points="351,256 332.85661446562,311.8395989677849 285.35661446562,346.35036904803957 226.64338553438,346.3503690480396 179.14338553438,311.839598967785 161,256 179.14338553438,200.16040103221508 226.64338553437997,165.64963095196043 285.35661446562,165.6496309519604 332.85661446562,200.16040103221502" fill="none" stroke="#ff8a65" stroke-width="4" opacity="0.7">
        <animateTransform attributeName="transform" type="rotate"
          from="0 256 256" to="360 256 256"
          dur="2.7513944723296735s" repeatCount="indefinite"/>
      </polygon>
    </g>
    <g>
      <polygon points="384,256 354.05368871922917,338.276814039877 278.2269667413671,382.05539238556264 192.00000000000003,366.85125168440817 135.71934453940372,299.7785783456856 135.71934453940372,212.2214216543144 191.99999999999994,145.1487483155919 278.22696674136705,129.94460761443736 354.05368871922917,173.72318596012292" fill="none" stroke="#ba68c8" stroke-width="3" opacity="0.7">
        <animateTransform attributeName="transform" type="rotate"
          from="0 256 256" to="-360 256 256"
          dur="2.559343418188357s" repeatCount="indefinite"/>
      </polygon>
    </g>
    <g>
      <polygon points="426,256 406.5275243610457,335.0029392474406 352.5710069442965,395.90725720192154 276.49123564340493,424.7605085966692 195.71716920276896,414.9527612565205 128.75317281091282,368.7308519009352 90.93989103757116,296.6836629288848 90.93989103757113,215.31633707111524 128.75317281091276,143.26914809906486 195.7171692027689,97.04723874347951 276.49123564340493,87.23949140333082 352.5710069442963,116.09274279807832 406.5275243610457,176.99706075255938" fill="none" stroke="#64b5f6" stroke-width="4" opacity="0.7">
        <animateTransform attributeName="transform" type="rotate"
          from="0 256 256" to="-360 256 256"
          dur="4.789746925212606s" repeatCount="indefinite"/>
      </polygon>
    </g>
    <g>
      <polygon points="468,256 439.597385602301,362 362,439.59738560230096 256,468 150.00000000000006,439.597385602301 72.40261439769898,362 44,256 72.40261439769898,150.00000000000006 149.9999999999999,72.40261439769904 255.99999999999997,44 362,72.40261439769901 439.59738560230096,149.9999999999999" fill="none" stroke="#90a4ae" stroke-width="4" opacity="0.7">
        <animateTransform attributeName="transform" type="rotate"
          from="0 256 256" to="360 256 256"
          dur="2.602799647201072s" repeatCount="indefinite"/>
      </polygon>
    </g>
    <g>
      <polygon points="496,256 463.8460969082653,376 376,463.8460969082653 256,496 136.00000000000006,463.8460969082653 48.15390309173472,376 16,256.00000000000006 48.15390309173469,136.00000000000006 135.9999999999999,48.153903091734776 255.99999999999994,16 376,48.15390309173475 463.8460969082652,135.9999999999999" fill="none" stroke="#f48fb1" stroke-width="4" opacity="0.7">
        <animateTransform attributeName="transform" type="rotate"
          from="0 256 256" to="-360 256 256"
          dur="4.449892613419176s" repeatCount="indefinite"/>
      </polygon>
    </g>
  <text x="50%" y="95%" text-anchor="middle" font-size="32" fill="#222" opacity="0.7" font-family="Arial">Mandala #8</text>
</svg>