<svg width="512" height="512" viewBox="0 0 512 512" xmlns="http://www.w3.org/2000/svg">
  <rect width="100%" height="100%" fill="#e3eaff" />
  
    <g>
      <polygon points="351,256 340.1183224370549,300.148701344158 309.9661509394598,334.1834672598974 267.4509846242557,350.3073430393151 222.31253573095913,344.8265430551144 184.89147892374538,318.99665253287554 163.76052734452506,278.734988107318 163.76052734452503,233.26501189268205 184.89147892374538,193.00334746712448 222.3125357309591,167.1734569448856 267.4509846242557,161.69265696068487 309.9661509394597,177.8165327401026 340.118322437055,211.85129865584202" fill="none" stroke="#4db6ac" stroke-width="3" opacity="0.7">
        <animateTransform attributeName="transform" type="rotate"
          from="0 256 256" to="360 256 256"
          dur="4.286518847493681s" repeatCount="indefinite"/>
      </polygon>
    </g>
    <g>
      <polygon points="386,256 321,368.583302491977 191.00000000000003,368.58330249197707 126,256 190.99999999999994,143.416697508023 321,143.416697508023" fill="none" stroke="#ffd54f" stroke-width="3" opacity="0.7">
        <animateTransform attributeName="transform" type="rotate"
          from="0 256 256" to="-360 256 256"
          dur="2.007562567970092s" repeatCount="indefinite"/>
      </polygon>
    </g>
    <g>
      <polygon points="428,256 404.9563694509235,342 342,404.95636945092343 256,428 170.00000000000006,404.9563694509235 107.04363054907654,342 84,256 107.04363054907651,170.00000000000006 169.99999999999994,107.04363054907657 255.99999999999997,84 342,107.04363054907657 404.9563694509234,169.99999999999994" fill="none" stroke="#ffd54f" stroke-width="3" opacity="0.7">
        <animateTransform attributeName="transform" type="rotate"
          from="0 256 256" to="-360 256 256"
          dur="3.6660458020041604s" repeatCount="indefinite"/>
      </polygon>
    </g>
  <text x="50%" y="95%" text-anchor="middle" font-size="32" fill="#222" opacity="0.7" font-family="Arial">Mandala #24</text>
</svg>