<svg width="512" height="512" viewBox="0 0 512 512" xmlns="http://www.w3.org/2000/svg">
  <rect width="100%" height="100%" fill="#ffebee" />
  
    <g>
      <polygon points="354,256 342.77469051401454,301.5428708602893 311.6703451796533,336.6524188575783 267.81259466502166,353.2854696616093 221.24872106983153,347.6315917831706 182.64594667923208,320.9860205075979 160.8477018922469,279.45293510018064 160.8477018922469,232.54706489981936 182.64594667923205,191.0139794924021 221.24872106983148,164.36840821682935 267.81259466502166,158.71453033839072 311.67034517965317,175.34758114242163 342.7746905140146,210.4571291397107" fill="none" stroke="#4db6ac" stroke-width="3" opacity="0.7">
        <animateTransform attributeName="transform" type="rotate"
          from="0 256 256" to="-360 256 256"
          dur="4.9240436864789245s" repeatCount="indefinite"/>
      </polygon>
    </g>
    <g>
      <polygon points="390,256 358.64995537794306,342.13353969799624 279.26885580736865,387.9642389036359 189.00000000000003,372.0474041071148 130.0811888146883,301.83069920563963 130.0811888146883,210.1693007943604 188.99999999999994,139.95259589288526 279.2688558073686,124.0357610963641 358.649955377943,169.8664603020037" fill="none" stroke="#ff8a65" stroke-width="3" opacity="0.7">
        <animateTransform attributeName="transform" type="rotate"
          from="0 256 256" to="360 256 256"
          dur="4.446819449320854s" repeatCount="indefinite"/>
      </polygon>
    </g>
    <g>
      <polygon points="432,256 344,408.42047106606117 168.00000000000006,408.4204710660612 80,256 167.99999999999991,103.57952893393883 344,103.5795289339388" fill="none" stroke="#ba68c8" stroke-width="4" opacity="0.7">
        <animateTransform attributeName="transform" type="rotate"
          from="0 256 256" to="360 256 256"
          dur="3.940245068713481s" repeatCount="indefinite"/>
      </polygon>
    </g>
  <text x="50%" y="95%" text-anchor="middle" font-size="32" fill="#222" opacity="0.7" font-family="Arial">Mandala #29</text>
</svg>