<svg width="512" height="512" viewBox="0 0 512 512" xmlns="http://www.w3.org/2000/svg">
  <rect width="100%" height="100%" fill="#e0f7fa" />
  
    <g>
      <polygon points="342,256 328.34780382348157,302.4951103011814 291.7256911181622,334.22835160048857 243.7609239084975,341.1246440017602 199.6819768807055,320.9944633944662 173.48360426915323,280.228999888363 173.4836042691532,231.77100011163708 199.68197688070546,191.0055366055338 243.76092390849746,170.8753559982398 291.7256911181622,177.7716483995114 328.34780382348157,209.50488969881863" fill="none" stroke="#ba68c8" stroke-width="4" opacity="0.7">
        <animateTransform attributeName="transform" type="rotate"
          from="0 256 256" to="-360 256 256"
          dur="4.481837011714595s" repeatCount="indefinite"/>
      </polygon>
    </g>
    <g>
      <polygon points="394,256 367.64434522374273,337.1143648163613 298.64434522374273,387.24579924873115 213.35565477625727,387.2457992487312 144.35565477625727,337.11436481636133 118,256 144.35565477625727,174.88563518363873 213.35565477625724,124.75420075126883 298.64434522374273,124.7542007512688 367.64434522374273,174.88563518363867" fill="none" stroke="#4db6ac" stroke-width="3" opacity="0.7">
        <animateTransform attributeName="transform" type="rotate"
          from="0 256 256" to="360 256 256"
          dur="2.663872033443469s" repeatCount="indefinite"/>
      </polygon>
    </g>
    <g>
      <polygon points="428,256 404.9563694509235,342 342,404.95636945092343 256,428 170.00000000000006,404.9563694509235 107.04363054907654,342 84,256 107.04363054907651,170.00000000000006 169.99999999999994,107.04363054907657 255.99999999999997,84 342,107.04363054907657 404.9563694509234,169.99999999999994" fill="none" stroke="#ff8a65" stroke-width="3" opacity="0.7">
        <animateTransform attributeName="transform" type="rotate"
          from="0 256 256" to="-360 256 256"
          dur="2.7738609251175097s" repeatCount="indefinite"/>
      </polygon>
    </g>
    <g>
      <polygon points="472,256 430.74767078498866,382.9616144951742 322.74767078498866,461.4282075197532 189.25232921501137,461.4282075197532 81.25232921501137,382.9616144951742 40,256 81.25232921501134,129.03838550482584 189.25232921501134,50.57179248024684 322.7476707849886,50.57179248024681 430.7476707849886,129.03838550482575" fill="none" stroke="#90a4ae" stroke-width="3" opacity="0.7">
        <animateTransform attributeName="transform" type="rotate"
          from="0 256 256" to="360 256 256"
          dur="4.98549654629369s" repeatCount="indefinite"/>
      </polygon>
    </g>
    <g>
      <polygon points="509,256 468.83714380628885,392.7821268162662 361.0999982894773,486.1368948246932 219.9943459168589,506.424824795876 90.32023431184291,447.20464231162737 13.248277675532165,327.27833688088174 13.248277675532137,184.72166311911838 90.32023431184285,64.79535768837269 219.99434591685883,5.5751752041240366 361.0999982894772,25.8631051753068 468.83714380628885,119.21787318373384" fill="none" stroke="#ba68c8" stroke-width="4" opacity="0.7">
        <animateTransform attributeName="transform" type="rotate"
          from="0 256 256" to="360 256 256"
          dur="3.8311719749167104s" repeatCount="indefinite"/>
      </polygon>
    </g>
  <text x="50%" y="95%" text-anchor="middle" font-size="32" fill="#222" opacity="0.7" font-family="Arial">Mandala #27</text>
</svg>