<svg width="512" height="512" viewBox="0 0 512 512" xmlns="http://www.w3.org/2000/svg">
  <rect width="100%" height="100%" fill="#e3eaff" />
  
    <g>
      <polygon points="352,256 304,339.1384387633061 208.00000000000003,339.1384387633061 160,256 207.99999999999994,172.8615612366939 304,172.8615612366939" fill="none" stroke="#90a4ae" stroke-width="3" opacity="0.7">
        <animateTransform attributeName="transform" type="rotate"
          from="0 256 256" to="-360 256 256"
          dur="3.588652863044817s" repeatCount="indefinite"/>
      </polygon>
    </g>
    <g>
      <polygon points="377,256 357.7916774725729,321.41753891212727 306.26521657322826,366.0654714378967 238.77990456893252,375.7683944675929 176.7618511926205,347.44569849686525 139.90135019264582,290.089639377813 139.9013501926458,221.91036062218706 176.7618511926205,164.55430150313475 238.7799045689325,136.23160553240714 306.2652165732282,145.93452856210325 357.7916774725729,190.58246108787273" fill="none" stroke="#ba68c8" stroke-width="4" opacity="0.7">
        <animateTransform attributeName="transform" type="rotate"
          from="0 256 256" to="360 256 256"
          dur="2.3647798046242827s" repeatCount="indefinite"/>
      </polygon>
    </g>
    <g>
      <polygon points="435,256 414.4966285919246,339.18544779583453 357.6835896648769,403.3141119949645 277.5760657657028,433.69488846355165 192.52572521938615,423.36790744068924 122.01657607737289,374.69895582510236 82.20141468073669,298.8375039074728 82.20141468073666,213.16249609252722 122.01657607737286,137.3010441748977 192.52572521938606,88.63209255931076 277.5760657657029,78.30511153644835 357.6835896648767,108.6858880050354 414.4966285919246,172.81455220416547" fill="none" stroke="#ffd54f" stroke-width="4" opacity="0.7">
        <animateTransform attributeName="transform" type="rotate"
          from="0 256 256" to="-360 256 256"
          dur="3.6317661511445247s" repeatCount="indefinite"/>
      </polygon>
    </g>
    <g>
      <polygon points="473,256 438.55201662436633,373.3190573878647 346.14505782140935,453.3901429919305 225.11768009469716,470.7912528881624 113.89522073387315,419.99765763487403 47.790024725654064,317.13596483459025 47.790024725654035,194.86403516540983 113.89522073387312,92.00234236512597 225.1176800946971,41.208747111837596 346.1450578214093,58.60985700806947 438.55201662436633,138.68094261213537" fill="none" stroke="#4db6ac" stroke-width="4" opacity="0.7">
        <animateTransform attributeName="transform" type="rotate"
          from="0 256 256" to="-360 256 256"
          dur="2.3474240260105494s" repeatCount="indefinite"/>
      </polygon>
    </g>
  <text x="50%" y="95%" text-anchor="middle" font-size="32" fill="#222" opacity="0.7" font-family="Arial">Mandala #13</text>
</svg>