<svg width="512" height="512" viewBox="0 0 512 512" xmlns="http://www.w3.org/2000/svg">
  <rect width="100%" height="100%" fill="#f0f4c3" />
  
    <g>
      <polygon points="340,256 320.34773322199413,309.9941592136693 270.58644692402214,338.7238512530255 214.00000000000003,328.74613391789285 177.0658198539837,284.72969203935617 177.0658198539837,227.27030796064383 213.99999999999997,183.25386608210715 270.58644692402214,173.2761487469745 320.34773322199413,202.00584078633068" fill="none" stroke="#4db6ac" stroke-width="3" opacity="0.7">
        <animateTransform attributeName="transform" type="rotate"
          from="0 256 256" to="-360 256 256"
          dur="2.665342651102792s" repeatCount="indefinite"/>
      </polygon>
    </g>
    <g>
      <polygon points="386,256 337.05367424163535,357.6380927208439 227.07227858567913,382.7406285836371 138.87404717268552,312.40488608528256 138.8740471726855,199.59511391471744 227.0722785856791,129.2593714163629 337.05367424163535,154.36190727915613" fill="none" stroke="#4db6ac" stroke-width="3" opacity="0.7">
        <animateTransform attributeName="transform" type="rotate"
          from="0 256 256" to="-360 256 256"
          dur="2.6364958605554136s" repeatCount="indefinite"/>
      </polygon>
    </g>
    <g>
      <polygon points="423,256 400.6262424320013,339.5 339.5,400.6262424320013 256,423 172.50000000000006,400.6262424320013 111.37375756799872,339.5 89,256 111.37375756799872,172.50000000000006 172.49999999999994,111.37375756799878 255.99999999999997,89 339.5,111.37375756799875 400.6262424320012,172.49999999999994" fill="none" stroke="#ba68c8" stroke-width="3" opacity="0.7">
        <animateTransform attributeName="transform" type="rotate"
          from="0 256 256" to="-360 256 256"
          dur="4.748619151037902s" repeatCount="indefinite"/>
      </polygon>
    </g>
    <g>
      <polygon points="475,256 440.2345236900287,374.4003390227759 346.9758878474131,455.2094069826395 224.83305041815058,472.7708957719243 112.58549926598258,421.5091567835826 45.87103877842509,317.6994299482731 45.87103877842506,194.30057005172696 112.58549926598255,90.49084321641746 224.83305041815055,39.229104228075755 346.97588784741305,56.790593017360436 440.2345236900287,137.59966097722418" fill="none" stroke="#64b5f6" stroke-width="4" opacity="0.7">
        <animateTransform attributeName="transform" type="rotate"
          from="0 256 256" to="360 256 256"
          dur="3.2720295302338753s" repeatCount="indefinite"/>
      </polygon>
    </g>
  <text x="50%" y="95%" text-anchor="middle" font-size="32" fill="#222" opacity="0.7" font-family="Arial">Mandala #22</text>
</svg>