<svg width="512" height="512" viewBox="0 0 512 512" xmlns="http://www.w3.org/2000/svg">
  <rect width="100%" height="100%" fill="#fff7e6" />
  
    <g>
      <polygon points="336,256 325.2820323027551,296 296,325.28203230275506 256,336 216,325.2820323027551 186.7179676972449,296 176,256 186.7179676972449,216.00000000000003 215.99999999999997,186.71796769724492 255.99999999999997,176 296,186.71796769724492 325.28203230275506,215.99999999999997" fill="none" stroke="#f48fb1" stroke-width="3" opacity="0.7">
        <animateTransform attributeName="transform" type="rotate"
          from="0 256 256" to="360 256 256"
          dur="4.024028313193243s" repeatCount="indefinite"/>
      </polygon>
    </g>
    <g>
      <polygon points="394,256 342.04159265650526,363.8927445805881 225.29211111402861,390.5400518810917 131.66629622946618,315.87595599822305 131.66629622946616,196.124044001777 225.2921111140286,121.45994811890833 342.0415926565052,148.10725541941187" fill="none" stroke="#ffd54f" stroke-width="4" opacity="0.7">
        <animateTransform attributeName="transform" type="rotate"
          from="0 256 256" to="-360 256 256"
          dur="2.4709702284126216s" repeatCount="indefinite"/>
      </polygon>
    </g>
    <g>
      <polygon points="431,256 410.95480448931175,337.3265551076595 355.41133067795226,400.02217653138985 277.0939190446815,429.7240529671594 193.94414476755628,419.6278424699476 125.01061907005729,372.0464651921392 86.0851819504409,297.88024125032257 86.08518195044087,214.11975874967746 125.01061907005726,139.95353480786088 193.94414476755622,92.37215753005242 277.09391904468157,82.27594703284055 355.4113306779521,111.97782346861001 410.95480448931175,174.6734448923405" fill="none" stroke="#ff8a65" stroke-width="3" opacity="0.7">
        <animateTransform attributeName="transform" type="rotate"
          from="0 256 256" to="360 256 256"
          dur="2.856985319147182s" repeatCount="indefinite"/>
      </polygon>
    </g>
  <text x="50%" y="95%" text-anchor="middle" font-size="32" fill="#222" opacity="0.7" font-family="Arial">Mandala #30</text>
</svg>