<svg width="512" height="512" viewBox="0 0 512 512" xmlns="http://www.w3.org/2000/svg">
  <rect width="100%" height="100%" fill="#e0f7fa" />
  
    <g>
      <polygon points="353,256 340.00446416709053,304.5 304.5,340.00446416709053 256,353 207.50000000000003,340.00446416709053 171.99553583290944,304.5 159,256 171.99553583290944,207.50000000000003 207.49999999999994,171.99553583290947 255.99999999999997,159 304.5,171.99553583290947 340.00446416709053,207.49999999999994" fill="none" stroke="#ffd54f" stroke-width="4" opacity="0.7">
        <animateTransform attributeName="transform" type="rotate"
          from="0 256 256" to="-360 256 256"
          dur="4.6535479815667395s" repeatCount="indefinite"/>
      </polygon>
    </g>
    <g>
      <polygon points="383,256 365.9852262806237,319.5 319.5,365.9852262806237 256,383 192.50000000000003,365.9852262806237 146.01477371937628,319.5 129,256 146.01477371937625,192.50000000000003 192.49999999999994,146.0147737193763 255.99999999999997,129 319.5,146.0147737193763 365.9852262806237,192.49999999999994" fill="none" stroke="#64b5f6" stroke-width="4" opacity="0.7">
        <animateTransform attributeName="transform" type="rotate"
          from="0 256 256" to="-360 256 256"
          dur="4.2880122559828235s" repeatCount="indefinite"/>
      </polygon>
    </g>
    <g>
      <polygon points="429,256 395.9599400268659,357.68684864659787 309.4599400268659,420.53277731906155 202.5400599731341,420.53277731906155 116.0400599731341,357.68684864659787 83,256 116.04005997313408,154.31315135340216 202.54005997313408,91.46722268093845 309.45994002686587,91.46722268093842 395.95994002686587,154.3131513534021" fill="none" stroke="#4db6ac" stroke-width="4" opacity="0.7">
        <animateTransform attributeName="transform" type="rotate"
          from="0 256 256" to="360 256 256"
          dur="2.9105348297346803s" repeatCount="indefinite"/>
      </polygon>
    </g>
  <text x="50%" y="95%" text-anchor="middle" font-size="32" fill="#222" opacity="0.7" font-family="Arial">Mandala #21</text>
</svg>