<svg width="512" height="512" viewBox="0 0 512 512" xmlns="http://www.w3.org/2000/svg">
  <rect width="100%" height="100%" fill="#f0f4c3" />
  
    <g>
      <polygon points="346,256 319.6396103067893,319.6396103067893 256,346 192.36038969321072,319.6396103067893 166,256 192.36038969321072,192.36038969321072 255.99999999999997,166 319.6396103067893,192.36038969321072" fill="none" stroke="#64b5f6" stroke-width="3" opacity="0.7">
        <animateTransform attributeName="transform" type="rotate"
          from="0 256 256" to="-360 256 256"
          dur="4.114589039073843s" repeatCount="indefinite"/>
      </polygon>
    </g>
    <g>
      <polygon points="376,256 347.92533317427734,333.1345131623847 276.83778132003164,374.176930361465 196.00000000000003,359.92304845413264 143.23688550569102,297.04241719908026 143.236885505691,214.95758280091977 195.99999999999994,152.0769515458674 276.8377813200316,137.82306963853503 347.92533317427734,178.86548683761526" fill="none" stroke="#ba68c8" stroke-width="4" opacity="0.7">
        <animateTransform attributeName="transform" type="rotate"
          from="0 256 256" to="360 256 256"
          dur="2.359785506605839s" repeatCount="indefinite"/>
      </polygon>
    </g>
    <g>
      <polygon points="426,256 341,403.22431864335454 171.00000000000006,403.2243186433546 86,256 170.99999999999994,108.77568135664546 341,108.77568135664544" fill="none" stroke="#4db6ac" stroke-width="4" opacity="0.7">
        <animateTransform attributeName="transform" type="rotate"
          from="0 256 256" to="-360 256 256"
          dur="4.640482047276231s" repeatCount="indefinite"/>
      </polygon>
    </g>
    <g>
      <polygon points="463,256 402.3711037056154,402.3711037056153 256,463 109.62889629438467,402.3711037056154 49,256 109.62889629438462,109.62889629438467 255.99999999999997,49 402.37110370561527,109.62889629438462" fill="none" stroke="#ba68c8" stroke-width="4" opacity="0.7">
        <animateTransform attributeName="transform" type="rotate"
          from="0 256 256" to="-360 256 256"
          dur="4.120698074831504s" repeatCount="indefinite"/>
      </polygon>
    </g>
    <g>
      <polygon points="500,256 453.4001466274872,399.41960155936346 331.4001466274872,488.0577899760175 180.59985337251285,488.0577899760175 58.599853372512854,399.4196015593635 12,256.00000000000006 58.599853372512825,112.58039844063657 180.5998533725128,23.94221002398254 331.4001466274871,23.94221002398251 453.4001466274872,112.58039844063649" fill="none" stroke="#ba68c8" stroke-width="3" opacity="0.7">
        <animateTransform attributeName="transform" type="rotate"
          from="0 256 256" to="-360 256 256"
          dur="4.941359117021786s" repeatCount="indefinite"/>
      </polygon>
    </g>
  <text x="50%" y="95%" text-anchor="middle" font-size="32" fill="#222" opacity="0.7" font-family="Arial">Mandala #12</text>
</svg>