<svg width="512" height="512" viewBox="0 0 512 512" xmlns="http://www.w3.org/2000/svg">
  <rect width="100%" height="100%" fill="#fff7e6" />
  
    <g>
      <polygon points="342,256 330.47818472546174,299 299,330.4781847254617 256,342 213.00000000000003,330.47818472546174 181.52181527453826,299 170,256 181.52181527453826,213.00000000000003 212.99999999999997,181.52181527453828 255.99999999999997,170 299,181.52181527453828 330.4781847254617,212.99999999999997" fill="none" stroke="#90a4ae" stroke-width="3" opacity="0.7">
        <animateTransform attributeName="transform" type="rotate"
          from="0 256 256" to="-360 256 256"
          dur="2.1083198127243348s" repeatCount="indefinite"/>
      </polygon>
    </g>
    <g>
      <polygon points="392,256 366.0263112349928,335.93879431177635 298.0263112349929,385.3436862161409 213.97368876500715,385.3436862161409 145.97368876500718,335.93879431177635 120,256 145.97368876500715,176.06120568822365 213.97368876500713,126.65631378385913 298.0263112349928,126.6563137838591 366.0263112349928,176.06120568822362" fill="none" stroke="#ff8a65" stroke-width="4" opacity="0.7">
        <animateTransform attributeName="transform" type="rotate"
          from="0 256 256" to="-360 256 256"
          dur="4.036299077504195s" repeatCount="indefinite"/>
      </polygon>
    </g>
    <g>
      <polygon points="418,256 396.29611541307906,337 337,396.29611541307906 256,418 175.00000000000006,396.29611541307906 115.70388458692094,337 94,256 115.7038845869209,175.00000000000006 174.99999999999994,115.70388458692096 255.99999999999997,94 337,115.70388458692094 396.296115413079,174.99999999999994" fill="none" stroke="#4db6ac" stroke-width="4" opacity="0.7">
        <animateTransform attributeName="transform" type="rotate"
          from="0 256 256" to="360 256 256"
          dur="2.377406076120901s" repeatCount="indefinite"/>
      </polygon>
    </g>
    <g>
      <polygon points="466,256 416.8693330549854,390.9853980341733 292.4661173100554,462.8096281325637 151.00000000000006,437.8653347947321 58.66454963495926,327.82423009839044 58.66454963495923,184.17576990160958 150.9999999999999,74.13466520526791 292.4661173100553,49.19037186743628 416.8693330549853,121.0146019658267" fill="none" stroke="#90a4ae" stroke-width="4" opacity="0.7">
        <animateTransform attributeName="transform" type="rotate"
          from="0 256 256" to="-360 256 256"
          dur="4.1327977732221s" repeatCount="indefinite"/>
      </polygon>
    </g>
  <text x="50%" y="95%" text-anchor="middle" font-size="32" fill="#222" opacity="0.7" font-family="Arial">Mandala #25</text>
</svg>