<svg width="512" height="512" viewBox="0 0 512 512" xmlns="http://www.w3.org/2000/svg">
  <rect width="100%" height="100%" fill="#f0f4c3" />
  
    <g>
      <polygon points="341,256 327.5065502906504,301.9544694837258 291.31027610516037,333.31871960513405 243.90323874677077,340.1348225598793 200.3368376146508,320.23871382011197 174.44309724276772,279.9472673315215 174.44309724276772,232.0527326684785 200.33683761465076,191.76128617988806 243.90323874677077,171.8651774401207 291.3102761051603,178.68128039486592 327.5065502906504,210.04553051627423" fill="none" stroke="#4db6ac" stroke-width="4" opacity="0.7">
        <animateTransform attributeName="transform" type="rotate"
          from="0 256 256" to="360 256 256"
          dur="4.0969275917629755s" repeatCount="indefinite"/>
      </polygon>
    </g>
    <g>
      <polygon points="382,256 365.1192008768393,319 319,365.1192008768393 256,382 193.00000000000003,365.1192008768393 146.88079912316073,319 130,256 146.88079912316073,193.00000000000003 192.99999999999994,146.88079912316076 255.99999999999997,130 319,146.88079912316073 365.1192008768392,192.99999999999994" fill="none" stroke="#90a4ae" stroke-width="3" opacity="0.7">
        <animateTransform attributeName="transform" type="rotate"
          from="0 256 256" to="-360 256 256"
          dur="3.099896210136171s" repeatCount="indefinite"/>
      </polygon>
    </g>
    <g>
      <polygon points="428,256 404.9563694509235,342 342,404.95636945092343 256,428 170.00000000000006,404.9563694509235 107.04363054907654,342 84,256 107.04363054907651,170.00000000000006 169.99999999999994,107.04363054907657 255.99999999999997,84 342,107.04363054907657 404.9563694509234,169.99999999999994" fill="none" stroke="#64b5f6" stroke-width="4" opacity="0.7">
        <animateTransform attributeName="transform" type="rotate"
          from="0 256 256" to="-360 256 256"
          dur="2.279398580547619s" repeatCount="indefinite"/>
      </polygon>
    </g>
  <text x="50%" y="95%" text-anchor="middle" font-size="32" fill="#222" opacity="0.7" font-family="Arial">Mandala #20</text>
</svg>