<svg width="512" height="512" viewBox="0 0 512 512" xmlns="http://www.w3.org/2000/svg">
  <rect width="100%" height="100%" fill="#f0f4c3" />
  
    <g>
      <polygon points="341,256 316.10407640085657,316.1040764008565 256,341 195.89592359914346,316.10407640085657 171,256 195.89592359914343,195.89592359914346 255.99999999999997,171 316.1040764008565,195.89592359914343" fill="none" stroke="#ba68c8" stroke-width="4" opacity="0.7">
        <animateTransform attributeName="transform" type="rotate"
          from="0 256 256" to="360 256 256"
          dur="3.4713285573590458s" repeatCount="indefinite"/>
      </polygon>
    </g>
    <g>
      <polygon points="389,256 357.8839109348241,341.4907520883097 279.09520762970175,386.97943115062367 189.50000000000003,371.1813787033303 131.0208814354742,301.48867906231396 131.02088143547417,210.51132093768607 189.49999999999994,140.81862129666968 279.0952076297017,125.02056884937633 357.88391093482403,170.50924791169024" fill="none" stroke="#4db6ac" stroke-width="4" opacity="0.7">
        <animateTransform attributeName="transform" type="rotate"
          from="0 256 256" to="360 256 256"
          dur="2.410542884404507s" repeatCount="indefinite"/>
      </polygon>
    </g>
    <g>
      <polygon points="425,256 392.72387204936615,355.33570763742796 308.22387204936615,416.72855125388094 203.7761279506339,416.72855125388094 119.2761279506339,355.33570763742796 87,256 119.27612795063388,156.66429236257204 203.77612795063385,95.27144874611906 308.2238720493661,95.27144874611903 392.7238720493661,156.66429236257198" fill="none" stroke="#ffd54f" stroke-width="3" opacity="0.7">
        <animateTransform attributeName="transform" type="rotate"
          from="0 256 256" to="-360 256 256"
          dur="3.961070058900851s" repeatCount="indefinite"/>
      </polygon>
    </g>
    <g>
      <polygon points="464,256 403.07821048680194,403.0782104868019 256,464 108.92178951319812,403.07821048680194 48,256 108.92178951319809,108.92178951319812 255.99999999999997,48 403.0782104868018,108.92178951319809" fill="none" stroke="#64b5f6" stroke-width="3" opacity="0.7">
        <animateTransform attributeName="transform" type="rotate"
          from="0 256 256" to="-360 256 256"
          dur="2.300300641286174s" repeatCount="indefinite"/>
      </polygon>
    </g>
    <g>
      <polygon points="503,256 445.2129774503876,414.76853959257517 298.89109988373184,499.2475149940154 132.50000000000006,469.90827473475633 23.895922665880647,340.4789754014402 23.89592266588062,171.52102459855985 132.4999999999999,42.091725265243696 298.8910998837317,12.752485005984596 445.2129774503875,97.23146040742472" fill="none" stroke="#4db6ac" stroke-width="4" opacity="0.7">
        <animateTransform attributeName="transform" type="rotate"
          from="0 256 256" to="360 256 256"
          dur="2.3750876456580423s" repeatCount="indefinite"/>
      </polygon>
    </g>
  <text x="50%" y="95%" text-anchor="middle" font-size="32" fill="#222" opacity="0.7" font-family="Arial">Mandala #28</text>
</svg>