<svg width="512" height="512" viewBox="0 0 512 512" xmlns="http://www.w3.org/2000/svg">
  <rect width="100%" height="100%" fill="#fff7e6" />
  
    <g>
      <polygon points="355,256 339.28409975028694,309.52344092810415 297.12608628718675,346.05356754009733 241.91083101094478,353.9923227462124 191.16878733941678,330.81920786107156 161.01019561216475,283.8915231273015 161.01019561216475,228.10847687269847 191.16878733941678,181.18079213892844 241.91083101094478,158.00767725378768 297.1260862871867,165.94643245990267 339.28409975028694,202.47655907189585" fill="none" stroke="#ff8a65" stroke-width="4" opacity="0.7">
        <animateTransform attributeName="transform" type="rotate"
          from="0 256 256" to="360 256 256"
          dur="2.622401437546313s" repeatCount="indefinite"/>
      </polygon>
    </g>
    <g>
      <polygon points="379,256 332.68924562862423,352.16527234356766 228.62992512337334,375.9161331983643 145.18082924800245,309.3676999114597 145.18082924800245,202.63230008854038 228.6299251233733,136.08386680163568 332.68924562862423,159.83472765643234" fill="none" stroke="#ffd54f" stroke-width="4" opacity="0.7">
        <animateTransform attributeName="transform" type="rotate"
          from="0 256 256" to="-360 256 256"
          dur="2.0287233981348387s" repeatCount="indefinite"/>
      </polygon>
    </g>
    <g>
      <polygon points="422,256 373.3797256769669,373.37972567696687 256,422 138.62027432303313,373.3797256769669 90,256 138.62027432303307,138.62027432303313 255.99999999999997,90 373.37972567696687,138.62027432303307" fill="none" stroke="#ff8a65" stroke-width="4" opacity="0.7">
        <animateTransform attributeName="transform" type="rotate"
          from="0 256 256" to="360 256 256"
          dur="3.4118520078340255s" repeatCount="indefinite"/>
      </polygon>
    </g>
    <g>
      <polygon points="469,256 444.6021334641337,354.98603564532266 376.9977910537362,431.2955634353488 281.6743128943838,467.4469901828855 180.46915905993995,455.15845969199336 96.56721063955544,397.24512620528935 49.18939288825092,306.9742364932498 49.18939288825089,205.02576350675025 96.56721063955541,114.75487379471068 180.46915905993984,56.84154030800667 281.67431289438383,44.553009817114514 376.99779105373597,80.70443656465105 444.6021334641338,157.01396435467734" fill="none" stroke="#4db6ac" stroke-width="3" opacity="0.7">
        <animateTransform attributeName="transform" type="rotate"
          from="0 256 256" to="360 256 256"
          dur="2.8928533885619787s" repeatCount="indefinite"/>
      </polygon>
    </g>
  <text x="50%" y="95%" text-anchor="middle" font-size="32" fill="#222" opacity="0.7" font-family="Arial">Mandala #15</text>
</svg>