<svg width="512" height="512" viewBox="0 0 512 512" xmlns="http://www.w3.org/2000/svg">
  <rect width="100%" height="100%" fill="#e3eaff" />
  
    <g>
      <polygon points="337,256 326.14805770653953,296.5 296.5,326.14805770653953 256,337 215.50000000000003,326.14805770653953 185.85194229346047,296.5 175,256 185.85194229346047,215.50000000000003 215.49999999999997,185.85194229346047 255.99999999999997,175 296.5,185.85194229346047 326.1480577065395,215.49999999999997" fill="none" stroke="#90a4ae" stroke-width="4" opacity="0.7">
        <animateTransform attributeName="transform" type="rotate"
          from="0 256 256" to="-360 256 256"
          dur="2.9231533711984707s" repeatCount="indefinite"/>
      </polygon>
    </g>
    <g>
      <polygon points="386,256 355.5857776054671,339.5623892592501 278.574263096701,384.02500789158705 191.00000000000003,368.58330249197707 133.8399592978319,300.46261863233696 133.8399592978319,211.53738136766307 190.99999999999994,143.416697508023 278.5742630967009,127.97499210841295 355.5857776054671,172.43761074074985" fill="none" stroke="#64b5f6" stroke-width="3" opacity="0.7">
        <animateTransform attributeName="transform" type="rotate"
          from="0 256 256" to="-360 256 256"
          dur="3.3547220786458167s" repeatCount="indefinite"/>
      </polygon>
    </g>
    <g>
      <polygon points="424,256 384.69546644398827,363.9883184273386 285.1728938480443,421.447702506051 172.00000000000006,401.4922678357857 98.1316397079674,313.4593840787124 98.1316397079674,198.54061592128767 171.99999999999994,110.50773216421433 285.1728938480442,90.55229749394903 384.69546644398827,148.01168157266136" fill="none" stroke="#90a4ae" stroke-width="4" opacity="0.7">
        <animateTransform attributeName="transform" type="rotate"
          from="0 256 256" to="360 256 256"
          dur="4.7542277508493465s" repeatCount="indefinite"/>
      </polygon>
    </g>
    <g>
      <polygon points="460,256 436.63302923325483,350.80352709692875 371.8852083331558,423.8887086423059 280.5894827720859,458.512610316003 183.66060304332277,446.7433135078246 103.30380737309537,391.2770222811222 57.92786924508539,304.82039551466175 57.92786924508536,207.17960448533827 103.30380737309534,120.72297771887781 183.66060304332268,65.25668649217539 280.58948277208594,53.48738968399698 371.88520833315556,88.11129135769397 436.63302923325483,161.19647290307125" fill="none" stroke="#4db6ac" stroke-width="3" opacity="0.7">
        <animateTransform attributeName="transform" type="rotate"
          from="0 256 256" to="360 256 256"
          dur="3.663804809345797s" repeatCount="indefinite"/>
      </polygon>
    </g>
  <text x="50%" y="95%" text-anchor="middle" font-size="32" fill="#222" opacity="0.7" font-family="Arial">Mandala #18</text>
</svg>