<svg width="512" height="512" viewBox="0 0 512 512" xmlns="http://www.w3.org/2000/svg">
  <rect width="100%" height="100%" fill="#ffebee" />
  
    <g>
      <polygon points="341,256 324.76644452187054,305.96174644486024 282.26644452187054,336.83980388508803 229.73355547812946,336.83980388508803 187.23355547812946,305.96174644486024 171,256 187.23355547812946,206.0382535551398 229.73355547812946,175.16019611491197 282.26644452187054,175.16019611491194 324.76644452187054,206.03825355513976" fill="none" stroke="#f48fb1" stroke-width="4" opacity="0.7">
        <animateTransform attributeName="transform" type="rotate"
          from="0 256 256" to="-360 256 256"
          dur="2.0631553436780887s" repeatCount="indefinite"/>
      </polygon>
    </g>
    <g>
      <polygon points="386,256 361.1722092687432,332.4120827980215 296.1722092687432,379.63734711837 215.82779073125684,379.63734711837 150.82779073125684,332.4120827980215 126,256 150.8277907312568,179.5879172019785 215.8277907312568,132.36265288163003 296.17220926874313,132.36265288163003 361.17220926874313,179.58791720197846" fill="none" stroke="#ff8a65" stroke-width="3" opacity="0.7">
        <animateTransform attributeName="transform" type="rotate"
          from="0 256 256" to="-360 256 256"
          dur="4.013122328785023s" repeatCount="indefinite"/>
      </polygon>
    </g>
    <g>
      <polygon points="429,256 395.9599400268659,357.68684864659787 309.4599400268659,420.53277731906155 202.5400599731341,420.53277731906155 116.0400599731341,357.68684864659787 83,256 116.04005997313408,154.31315135340216 202.54005997313408,91.46722268093845 309.45994002686587,91.46722268093842 395.95994002686587,154.3131513534021" fill="none" stroke="#90a4ae" stroke-width="3" opacity="0.7">
        <animateTransform attributeName="transform" type="rotate"
          from="0 256 256" to="-360 256 256"
          dur="4.666935897352173s" repeatCount="indefinite"/>
      </polygon>
    </g>
  <text x="50%" y="95%" text-anchor="middle" font-size="32" fill="#222" opacity="0.7" font-family="Arial">Mandala #19</text>
</svg>