<svg width="512" height="512" viewBox="0 0 512 512" xmlns="http://www.w3.org/2000/svg">
  <rect width="100%" height="100%" fill="#e3eaff" />
  
    <g>
      <polygon points="341,256 324.76644452187054,305.96174644486024 282.26644452187054,336.83980388508803 229.73355547812946,336.83980388508803 187.23355547812946,305.96174644486024 171,256 187.23355547812946,206.0382535551398 229.73355547812946,175.16019611491197 282.26644452187054,175.16019611491194 324.76644452187054,206.03825355513976" fill="none" stroke="#f48fb1" stroke-width="4" opacity="0.7">
        <animateTransform attributeName="transform" type="rotate"
          from="0 256 256" to="-360 256 256"
          dur="4.146810504928131s" repeatCount="indefinite"/>
      </polygon>
    </g>
    <g>
      <polygon points="386,256 355.5857776054671,339.5623892592501 278.574263096701,384.02500789158705 191.00000000000003,368.58330249197707 133.8399592978319,300.46261863233696 133.8399592978319,211.53738136766307 190.99999999999994,143.416697508023 278.5742630967009,127.97499210841295 355.5857776054671,172.43761074074985" fill="none" stroke="#f48fb1" stroke-width="4" opacity="0.7">
        <animateTransform attributeName="transform" type="rotate"
          from="0 256 256" to="-360 256 256"
          dur="4.523811905400576s" repeatCount="indefinite"/>
      </polygon>
    </g>
    <g>
      <polygon points="417,256 386.25173609436655,350.63342561908814 305.75173609436655,409.1200991235197 206.24826390563348,409.1200991235197 125.74826390563348,350.6334256190882 95,256 125.74826390563345,161.36657438091186 206.24826390563345,102.87990087648029 305.7517360943665,102.87990087648026 386.2517360943665,161.3665743809118" fill="none" stroke="#ffd54f" stroke-width="3" opacity="0.7">
        <animateTransform attributeName="transform" type="rotate"
          from="0 256 256" to="360 256 256"
          dur="3.8520444864148966s" repeatCount="indefinite"/>
      </polygon>
    </g>
    <g>
      <polygon points="463,256 435.2672585833788,359.5 359.5,435.26725858337875 256,463 152.50000000000006,435.2672585833788 76.7327414166212,359.5 49,256 76.73274141662117,152.50000000000006 152.49999999999991,76.73274141662122 255.99999999999997,49 359.5,76.73274141662122 435.26725858337875,152.49999999999991" fill="none" stroke="#90a4ae" stroke-width="3" opacity="0.7">
        <animateTransform attributeName="transform" type="rotate"
          from="0 256 256" to="360 256 256"
          dur="4.574794604892985s" repeatCount="indefinite"/>
      </polygon>
    </g>
    <g>
      <polygon points="511,256 476.83647796503186,383.5 383.5,476.8364779650318 256,511 128.50000000000006,476.83647796503186 35.16352203496814,383.5 1,256.00000000000006 35.16352203496811,128.50000000000006 128.4999999999999,35.163522034968196 255.99999999999994,1 383.5,35.16352203496817 476.8364779650318,128.4999999999999" fill="none" stroke="#4db6ac" stroke-width="3" opacity="0.7">
        <animateTransform attributeName="transform" type="rotate"
          from="0 256 256" to="360 256 256"
          dur="4.165487040316075s" repeatCount="indefinite"/>
      </polygon>
    </g>
  <text x="50%" y="95%" text-anchor="middle" font-size="32" fill="#222" opacity="0.7" font-family="Arial">Mandala #26</text>
</svg>