<svg width="512" height="512" viewBox="0 0 512 512" xmlns="http://www.w3.org/2000/svg">
  <rect width="100%" height="100%" fill="#f0f4c3" />
  
    <g>
      <polygon points="346,256 335.6910423087889,297.8250854839392 307.12582720580406,330.0685479304291 266.84830122297905,345.3437986688249 224.0855601661718,340.15146184168736 188.6340326646009,315.68103924167156 168.61523643165532,277.53840978588016 168.61523643165532,234.46159021411984 188.63403266460088,196.31896075832844 224.08556016617177,171.8485381583127 266.8483012229791,166.65620133117514 307.12582720580394,181.93145206957087 335.6910423087889,214.17491451606085" fill="none" stroke="#ff8a65" stroke-width="4" opacity="0.7">
        <animateTransform attributeName="transform" type="rotate"
          from="0 256 256" to="360 256 256"
          dur="3.018997569513745s" repeatCount="indefinite"/>
      </polygon>
    </g>
    <g>
      <polygon points="391,256 375.53656346318337,318.73762822590874 332.68874080870603,367.1028218956436 272.2724518344686,390.0156980032373 208.12834024925772,382.227192762531 154.95104899690133,345.52155886250733 124.92285464748298,288.3076146788203 124.92285464748295,223.69238532117976 154.9510489969013,166.47844113749267 208.12834024925766,129.772807237469 272.27245183446865,121.98430199676272 332.6887408087059,144.8971781043563 375.53656346318337,193.26237177409126" fill="none" stroke="#ffd54f" stroke-width="3" opacity="0.7">
        <animateTransform attributeName="transform" type="rotate"
          from="0 256 256" to="-360 256 256"
          dur="4.204450596759642s" repeatCount="indefinite"/>
      </polygon>
    </g>
    <g>
      <polygon points="433,256 366.35769492899584,394.3841723968413 216.61379468973234,428.5622404561828 96.52851038127184,332.7974218238078 96.52851038127181,179.20257817619222 216.61379468973232,83.43775954381721 366.3576949289958,117.61582760315869" fill="none" stroke="#90a4ae" stroke-width="4" opacity="0.7">
        <animateTransform attributeName="transform" type="rotate"
          from="0 256 256" to="-360 256 256"
          dur="3.7311668984631474s" repeatCount="indefinite"/>
      </polygon>
    </g>
    <g>
      <polygon points="466,256 416.8693330549854,390.9853980341733 292.4661173100554,462.8096281325637 151.00000000000006,437.8653347947321 58.66454963495926,327.82423009839044 58.66454963495923,184.17576990160958 150.9999999999999,74.13466520526791 292.4661173100553,49.19037186743628 416.8693330549853,121.0146019658267" fill="none" stroke="#64b5f6" stroke-width="4" opacity="0.7">
        <animateTransform attributeName="transform" type="rotate"
          from="0 256 256" to="360 256 256"
          dur="2.861084387119628s" repeatCount="indefinite"/>
      </polygon>
    </g>
    <g>
      <polygon points="496,256 450.1640786499874,397.06846055019355 330.1640786499874,484.2535639108369 181.83592135001265,484.2535639108369 61.835921350012626,397.06846055019355 16,256.00000000000006 61.8359213500126,114.93153944980648 181.8359213500126,27.746436089163154 330.16407864998735,27.746436089163126 450.16407864998735,114.9315394498064" fill="none" stroke="#90a4ae" stroke-width="4" opacity="0.7">
        <animateTransform attributeName="transform" type="rotate"
          from="0 256 256" to="-360 256 256"
          dur="2.4137850651867216s" repeatCount="indefinite"/>
      </polygon>
    </g>
  <text x="50%" y="95%" text-anchor="middle" font-size="32" fill="#222" opacity="0.7" font-family="Arial">Mandala #17</text>
</svg>