<svg width="512" height="512" viewBox="0 0 512 512" xmlns="http://www.w3.org/2000/svg">
  <rect width="100%" height="100%" fill="#1e293b" />
  
    <g>
      <g>
        <animateTransform attributeName="transform" attributeType="XML"
          type="rotate"
          from="0 353.1059598170071 279.8837301947958"
          to="360 353.1059598170071 279.8837301947958"
          dur="4.21s"
          repeatCount="indefinite"/>
        <path d="M416.85700304321705,267.2028592637475 L397.7316900753541,288.76033984652963 L407.1514846166725,315.99579534106994 L378.384405419399,317.7155975545616 L365.7868307480554,343.6347734210058 L344.2293501652733,324.5094604531428 L316.99389467073297,333.92925499446125 L315.2740924572413,305.16217579718773 L289.35491659079713,292.56460112584415 L308.4802295586601,271.007120543062 L299.06043501734166,243.77166504852167 L327.8275142146152,242.05186283503002 L340.4250888859587,216.13268696858586 L361.9825694687409,235.25799993644884 L389.2180249632812,225.83820539513036 L390.9378271767729,254.6052845924039 Z" fill="#B87333" stroke="#222" stroke-width="3"/>
        
      </g>
    </g>
  
    <g>
      <g>
        <animateTransform attributeName="transform" attributeType="XML"
          type="rotate"
          from="0 120.06542713535416 289.49316199026737"
          to="-360 120.06542713535416 289.49316199026737"
          dur="5.1s"
          repeatCount="indefinite"/>
        <path d="M210.6272372625241,280.57360222027734 L183.4586942243731,295.7368538292604 L207.14699768698517,315.90906762042346 L176.24381167434439,319.52113412608344 L190.40937839136322,347.22295084915913 L160.4762793365784,338.7339278694737 L162.96253018651993,369.7479970459677 L138.5565610764634,350.45026137640906 L128.98498690534416,380.0549721174373 L113.82173529636115,352.8864290792863 L93.64952150519808,376.57473254189836 L90.03745499953813,345.6715465292576 L62.335638276462426,359.83711324627643 L70.8246612561478,329.90401419149157 L39.81059207965386,332.39026504143317 L59.10832774921246,307.9842959313766 L29.50361700818425,298.4127217602574 L56.672160046335215,283.24947015127435 L32.98385658372314,263.07725636011133 L63.88704259636394,259.4651898544513 L49.72147587934508,231.76337313137566 L79.65457493412995,240.25239611106102 L77.16832408418834,209.23832693456706 L101.5742931942449,228.53606260412568 L111.14586736536415,198.93135186309746 L126.30911897434713,226.09989490124843 L146.48133276551022,202.41159143863635 L150.0933992711702,233.31477745127717 L177.7952159942459,219.1492107342583 L169.30619301456048,249.0823097890431 L200.32026219105444,246.59605893910157 L181.02252652149585,271.00202804915807 Z" fill="#E5E4E2" stroke="#222" stroke-width="3"/>
        
      </g>
    </g>
  
    <g>
      <g>
        <animateTransform attributeName="transform" attributeType="XML"
          type="rotate"
          from="0 230.8018663701075 77.77246547861893"
          to="360 230.8018663701075 77.77246547861893"
          dur="5.12s"
          repeatCount="indefinite"/>
        <path d="M345.55374417728547,54.946897802731925 L311.12818083513207,93.75036285173982 L328.08381100950527,142.7741827419124 L276.30306845441294,145.86982672619737 L253.6274340459945,192.52434328579687 L214.82396899698662,158.09877994364348 L165.80014910681402,175.0544101180167 L162.70450512252904,123.27366756292435 L116.04998856292953,100.59803315450591 L150.4755519050829,61.79456810549805 L133.5199217307097,12.770748215325455 L185.30066428580201,9.675104231040521 L207.97629869422045,-36.97941232855902 L246.7797637432284,-2.55384898640564 L295.8035836334009,-19.509479160778895 L298.89922761768594,32.271263394313515 Z" fill="#FFD700" stroke="#222" stroke-width="3"/>
        
      </g>
    </g>
  
  <text x="50%" y="95%" text-anchor="middle" font-size="32" fill="#fff" opacity="0.7" font-family="Arial">Gears Collection #21</text>
</svg>