<svg width="512" height="512" viewBox="0 0 512 512" xmlns="http://www.w3.org/2000/svg">
  <rect width="100%" height="100%" fill="#b2f5ea" />
  
    <g>
      <g>
        <animateTransform attributeName="transform" attributeType="XML"
          type="rotate"
          from="0 355.4349640875332 266.6154565097775"
          to="360 355.4349640875332 266.6154565097775"
          dur="4.63s"
          repeatCount="indefinite"/>
        <path d="M420.8703249382047,258.0007278232541 L401.2397166830033,272.6457665903439 L416.41101323327814,291.87256304587345 L392.0878884089883,294.7402345299804 L395.61321840210877,318.97677696899905 L373.11493866280034,309.298690911799 L364.0496927740566,332.050817360449 L349.40465400696684,312.4202091052476 L330.1778575514373,327.59150565552244 L327.31018606733033,303.26838083123255 L303.0736436283117,306.79371082435307 L312.7517296855118,284.2954310850447 L289.99960323686173,275.2301851963009 L309.63021149206315,260.58514642921114 L294.4589149417883,241.35834997368164 L318.7820397660781,238.49067848957463 L315.25670977295766,214.254136050556 L337.7549895122661,223.93222210775608 L346.8202354010098,201.18009565910603 L361.4652741680996,220.81070391430748 L380.69207062362915,205.6394073640326 L383.5597421077361,229.96253218832246 L407.7962845467547,226.43720219520193 L398.1181984895547,248.9354819345104 Z" fill="#C9AE5D" stroke="#222" stroke-width="3"/>
        
      </g>
    </g>
  
    <g>
      <g>
        <animateTransform attributeName="transform" attributeType="XML"
          type="rotate"
          from="0 273.70596970118277 394.87583892434566"
          to="-360 273.70596970118277 394.87583892434566"
          dur="5.21s"
          repeatCount="indefinite"/>
        <path d="M365.66103844569375,385.81905515789424 L338.07451782234045,401.21558756086165 L362.12725672283887,421.698143102658 L330.74863707923436,425.3657798622512 L345.13213559189967,453.4937783810665 L314.73852732088733,444.87415504784747 L317.26302818390496,476.36536375013367 L292.4815826260014,456.7707398395049 L282.7627534676342,486.83090766885664 L267.3662210646668,459.24438704550334 L246.88366552287044,483.29712594600176 L243.21602876327728,451.91850630239725 L215.08803024446195,466.30200481506256 L223.70765357768096,435.9083965440502 L192.21644487539476,438.43289740706786 L211.8110687860235,413.6514518491643 L181.75090095667179,403.9326226907971 L209.33742158002508,388.53609028782967 L185.28468267952667,368.05353474603334 L216.66330232313118,364.3858979864401 L202.27980381046586,336.25789946762484 L232.6734120814782,344.87752280084385 L230.14891121846057,313.38631409855765 L254.93035677636414,332.9809380091864 L264.6491859347314,302.9207701798347 L280.0457183376987,330.50729080318797 L300.52827387949503,306.45455190268956 L304.1959106390883,337.83317154629407 L332.3239091579036,323.44967303362876 L323.7042858246846,353.84328130464104 L355.1954945269707,351.31878044162346 L335.60087061634204,376.10022599952697 Z" fill="#FFD700" stroke="#222" stroke-width="3"/>
        <line x1="325.4499697011828" y1="394.87583892434566" x2="286.64196970118275" y2="394.87583892434566" stroke="#333" stroke-width="2"/><line x1="321.5111922314468" y1="414.6774104486449" x2="285.65727533374877" y2="399.82623180542043" stroke="#333" stroke-width="2"/><line x1="310.2945029868995" y1="431.4643722100624" x2="282.85310302261195" y2="404.02297224577484" stroke="#333" stroke-width="2"/><line x1="293.507541225482" y1="442.6810614546097" x2="278.65636258225754" y2="406.82714455691166" stroke="#333" stroke-width="2"/><line x1="273.70596970118277" y1="446.6198389243457" x2="273.70596970118277" y2="407.81183892434564" stroke="#333" stroke-width="2"/><line x1="253.90439817688357" y1="442.6810614546097" x2="268.755576820108" y2="406.82714455691166" stroke="#333" stroke-width="2"/><line x1="237.11743641546605" y1="431.4643722100624" x2="264.5588363797536" y2="404.02297224577484" stroke="#333" stroke-width="2"/><line x1="225.90074717091875" y1="414.6774104486449" x2="261.75466406861676" y2="399.82623180542043" stroke="#333" stroke-width="2"/><line x1="221.96196970118277" y1="394.87583892434566" x2="260.7699697011828" y2="394.87583892434566" stroke="#333" stroke-width="2"/><line x1="225.90074717091875" y1="375.0742674000465" x2="261.75466406861676" y2="389.9254460432709" stroke="#333" stroke-width="2"/><line x1="237.11743641546605" y1="358.28730563862894" x2="264.5588363797536" y2="385.7287056029165" stroke="#333" stroke-width="2"/><line x1="253.90439817688357" y1="347.07061639408164" x2="268.755576820108" y2="382.92453329177965" stroke="#333" stroke-width="2"/><line x1="273.70596970118277" y1="343.13183892434563" x2="273.70596970118277" y2="381.9398389243457" stroke="#333" stroke-width="2"/><line x1="293.507541225482" y1="347.07061639408164" x2="278.65636258225754" y2="382.92453329177965" stroke="#333" stroke-width="2"/><line x1="310.2945029868995" y1="358.28730563862894" x2="282.85310302261195" y2="385.7287056029165" stroke="#333" stroke-width="2"/><line x1="321.5111922314468" y1="375.07426740004644" x2="285.65727533374877" y2="389.9254460432709" stroke="#333" stroke-width="2"/><circle cx="273.70596970118277" cy="394.87583892434566" r="18.48" fill="#222"/>
      </g>
    </g>
  
    <g>
      <g>
        <animateTransform attributeName="transform" attributeType="XML"
          type="rotate"
          from="0 76.18106898812078 247.92831803494303"
          to="360 76.18106898812078 247.92831803494303"
          dur="4.96s"
          repeatCount="indefinite"/>
        <path d="M192.69836030002455,224.75158777942698 L157.74317290645342,264.15202921380427 L174.95965892966316,313.9300617176718 L122.38228956603092,317.0733309940227 L99.35779924363683,364.4456093468468 L59.957357809259584,329.4904219532757 L10.179325305392041,346.7069079764854 L7.03605602904112,294.12953861285314 L-40.33622232378299,271.1050482904591 L-5.381034930211868,231.70460685608182 L-22.597520953421594,181.9265743522143 L29.979848410210607,178.7833050758634 L53.0043387326047,131.41102672303927 L92.40478016698202,166.3662141166104 L142.1828126708495,149.14972809340065 L145.32608194720046,201.72709745703293 Z" fill="#C0C0C0" stroke="#222" stroke-width="3"/>
        
      </g>
    </g>
  
    <g>
      <g>
        <animateTransform attributeName="transform" attributeType="XML"
          type="rotate"
          from="0 220.78736850661105 38.836304637928066"
          to="-360 220.78736850661105 38.836304637928066"
          dur="4.86s"
          repeatCount="indefinite"/>
        <path d="M364.74516237808837,19.883901527576576 L321.55782421664514,52.102986815174106 L354.9346766272499,94.40193901733912 L301.4238020138122,100.71081628237442 L309.1795279986773,154.03120964821542 L259.68331257219876,132.73942032237525 L239.73977161696257,182.79409850940536 L207.52068632936502,139.60676034796217 L165.22173412720002,172.98361275856692 L158.9128568621647,119.47273814512921 L105.59246349632367,127.22846412999428 L126.88425282216386,77.73224870351581 L76.82957463513375,57.788707748279556 L120.01691279657695,25.569622460682048 L86.64006038597216,-16.729329741482893 L140.1509349994099,-23.0382070065183 L132.39520901454478,-76.35860037235926 L181.89142444102333,-55.066811046519135 L201.83496539625955,-105.12148923354923 L234.05405068385716,-61.93415107210602 L276.3530028860221,-95.31100348271076 L282.6618801510574,-41.80012886927308 L335.9822735168984,-49.55585485413822 L314.69048419105826,-0.05963942765963992 Z" fill="#FFD700" stroke="#222" stroke-width="3"/>
        
      </g>
    </g>
  
    <g>
      <g>
        <animateTransform attributeName="transform" attributeType="XML"
          type="rotate"
          from="0 430.7729494428853 63.50476332377821"
          to="360 430.7729494428853 63.50476332377821"
          dur="4.01s"
          repeatCount="indefinite"/>
        <path d="M599.0757035600797,30.0272640658106 L548.5848773249213,86.93901280435553 L573.453134914002,158.84061530994194 L497.50804583319996,163.38089315355995 L464.2504487008529,231.80751744097253 L407.338699962308,181.31669120581427 L335.4370974567216,206.18494879489495 L330.89681961310356,130.2398597140928 L262.47019532569095,96.9822625817458 L312.96102156084925,40.07051384320093 L288.0927639717686,-31.83108866238554 L364.0378530525706,-36.37136650600347 L397.2954501849176,-104.79799079341612 L454.2071989234626,-54.307164558257824 L526.108801429049,-79.1754221473386 L530.649079272667,-3.230333066536403 Z" fill="#F5F5F5" stroke="#222" stroke-width="3"/>
        
      </g>
    </g>
  
  <text x="50%" y="95%" text-anchor="middle" font-size="32" fill="#fff" opacity="0.7" font-family="Arial">Gears Collection #23</text>
</svg>