<svg width="512" height="512" viewBox="0 0 512 512" xmlns="http://www.w3.org/2000/svg">
  <rect width="100%" height="100%" fill="#8ec6f3" />
  
    <g>
      <g>
        <animateTransform attributeName="transform" attributeType="XML"
          type="rotate"
          from="0 353.1967069786198 279.5117024588252"
          to="360 353.1967069786198 279.5117024588252"
          dur="5.21s"
          repeatCount="indefinite"/>
        <path d="M413.9029753056238,273.532656898722 L395.6910948075226,283.6970343508974 L411.5700674582845,297.2190677713474 L390.85474496629456,299.6403431212953 L400.3503446337467,318.2096927928076 L380.28530021240744,312.51924881741405 L381.9519079250056,333.3088995840749 L365.5918626973853,320.37305479459053 L359.175752538723,340.2179707858292 L349.01137508654756,322.006090287728 L335.4893416660976,337.8850629384899 L333.06806631614967,317.1697404465 L314.4987166446374,326.66534011395214 L320.1891606200309,306.60029569261286 L299.3995098533701,308.26690340521105 L312.33535464285444,291.9068581775907 L292.49043865161576,285.4907480189284 L310.70231914971697,275.326370566753 L294.823346498955,261.804337146303 L315.538668990945,259.3830617963551 L306.04306932349283,240.81371212484282 L326.1081137448321,246.50415610023632 L324.4415060322339,225.71450533357554 L340.80155125985425,238.6503501230599 L347.21766141851657,218.8054341318212 L357.382038870692,237.0173146299224 L370.904072291142,221.13834197916046 L373.3253476410899,241.85366447115044 L391.89469731260215,232.35806480369826 L386.2042533372086,252.4231092250375 L406.9939041038694,250.7565015124393 L394.0580593143851,267.1165467400596 Z" fill="#9DE09D" stroke="#222" stroke-width="3"/>
        <line x1="387.35670697861974" y1="279.5117024588252" x2="361.7367069786198" y2="279.5117024588252" stroke="#333" stroke-width="2"/><line x1="384.7564318092053" y1="292.58416850841667" x2="361.08663818626616" y2="282.77981897122305" stroke="#333" stroke-width="2"/><line x1="377.35147462395224" y1="303.66647010415767" x2="359.2353988899529" y2="285.5503943701583" stroke="#333" stroke-width="2"/><line x1="366.26917302821124" y1="311.07142728941074" x2="356.4648234910176" y2="287.4016336664716" stroke="#333" stroke-width="2"/><line x1="353.1967069786198" y1="313.67170245882517" x2="353.1967069786198" y2="288.0517024588252" stroke="#333" stroke-width="2"/><line x1="340.1242409290283" y1="311.07142728941074" x2="349.9285904662219" y2="287.4016336664716" stroke="#333" stroke-width="2"/><line x1="329.0419393332873" y1="303.66647010415767" x2="347.15801506728667" y2="285.5503943701583" stroke="#333" stroke-width="2"/><line x1="321.63698214803424" y1="292.58416850841667" x2="345.3067757709734" y2="282.77981897122305" stroke="#333" stroke-width="2"/><line x1="319.0367069786198" y1="279.5117024588252" x2="344.65670697861975" y2="279.5117024588252" stroke="#333" stroke-width="2"/><line x1="321.63698214803424" y1="266.43923640923373" x2="345.3067757709734" y2="276.24358594642734" stroke="#333" stroke-width="2"/><line x1="329.0419393332873" y1="255.35693481349273" x2="347.15801506728667" y2="273.4730105474921" stroke="#333" stroke-width="2"/><line x1="340.1242409290283" y1="247.95197762823963" x2="349.9285904662219" y2="271.6217712511788" stroke="#333" stroke-width="2"/><line x1="353.1967069786198" y1="245.3517024588252" x2="353.1967069786198" y2="270.9717024588252" stroke="#333" stroke-width="2"/><line x1="366.26917302821124" y1="247.95197762823966" x2="356.4648234910176" y2="271.6217712511788" stroke="#333" stroke-width="2"/><line x1="377.35147462395224" y1="255.35693481349273" x2="359.2353988899529" y2="273.4730105474921" stroke="#333" stroke-width="2"/><line x1="384.7564318092053" y1="266.43923640923373" x2="361.08663818626616" y2="276.24358594642734" stroke="#333" stroke-width="2"/><circle cx="353.1967069786198" cy="279.5117024588252" r="12.200000000000001" fill="#222"/>
      </g>
    </g>
  
    <g>
      <g>
        <animateTransform attributeName="transform" attributeType="XML"
          type="rotate"
          from="0 160.67387973421353 358.5325840651293"
          to="-360 160.67387973421353 358.5325840651293"
          dur="4.53s"
          repeatCount="indefinite"/>
        <path d="M245.66265539201913,350.1619202809848 L220.16602269467745,364.3920487140304 L242.39658440574414,383.3228955026604 L213.39513291695818,386.7126809925874 L226.68897245139127,412.7097705327046 L198.59791026151626,404.74314896715373 L200.9311610591537,433.8486600404788 L178.0270977404853,415.73847733520074 L169.044543518358,443.5213597229349 L154.81441508531242,418.0247270255932 L135.88356829668245,440.2552887366599 L132.4937828067554,411.25383724787395 L106.49669326663822,424.547676782307 L114.46331483218913,396.456614592432 L85.35780375886402,398.7898653900695 L103.4679864641421,375.88580207140103 L75.68510407640792,366.9032478492738 L101.1817367737496,352.6731194162282 L78.95117506268289,333.74227262759825 L107.95262655146888,330.3524871376712 L94.65878701703579,304.355397597554 L122.74984920691082,312.32201916310487 L120.41659840927332,283.2165080897798 L143.32066172794177,301.32669079505786 L152.30321595006907,273.5438084073237 L166.53334438311464,299.0404411046654 L185.46419117174457,276.80987939359864 L188.85397666167165,305.81133088238465 L214.85106620178885,292.5174913479516 L206.8844446362379,320.60855353782654 L235.98995570956302,318.2753027401891 L217.87977300428494,341.1793660588575 Z" fill="#F5F5F5" stroke="#222" stroke-width="3"/>
        <line x1="208.4978797342135" y1="358.5325840651293" x2="172.62987973421352" y2="358.5325840651293" stroke="#333" stroke-width="2"/><line x1="204.85749449703331" y1="376.83403653455736" x2="171.71978342491846" y2="363.1079471824863" stroke="#333" stroke-width="2"/><line x1="194.49055443767898" y1="392.3492587685947" x2="169.12804841007988" y2="366.98675274099566" stroke="#333" stroke-width="2"/><line x1="178.97533220364159" y1="402.7161988279491" x2="165.24924285157053" y2="369.57848775583426" stroke="#333" stroke-width="2"/><line x1="160.67387973421353" y1="406.3565840651293" x2="160.67387973421353" y2="370.4885840651293" stroke="#333" stroke-width="2"/><line x1="142.37242726478547" y1="402.7161988279491" x2="156.09851661685653" y2="369.57848775583426" stroke="#333" stroke-width="2"/><line x1="126.85720503074809" y1="392.3492587685947" x2="152.21971105834717" y2="366.98675274099566" stroke="#333" stroke-width="2"/><line x1="116.49026497139376" y1="376.83403653455736" x2="149.6279760435086" y2="363.1079471824863" stroke="#333" stroke-width="2"/><line x1="112.84987973421354" y1="358.5325840651293" x2="148.71787973421354" y2="358.5325840651293" stroke="#333" stroke-width="2"/><line x1="116.49026497139374" y1="340.2311315957013" x2="149.6279760435086" y2="353.95722094777227" stroke="#333" stroke-width="2"/><line x1="126.85720503074808" y1="324.7159093616639" x2="152.21971105834717" y2="350.07841538926294" stroke="#333" stroke-width="2"/><line x1="142.3724272647855" y1="314.3489693023095" x2="156.09851661685653" y2="347.48668037442434" stroke="#333" stroke-width="2"/><line x1="160.67387973421353" y1="310.7085840651293" x2="160.67387973421353" y2="346.5765840651293" stroke="#333" stroke-width="2"/><line x1="178.97533220364159" y1="314.3489693023095" x2="165.24924285157056" y2="347.48668037442434" stroke="#333" stroke-width="2"/><line x1="194.49055443767895" y1="324.7159093616639" x2="169.12804841007988" y2="350.07841538926294" stroke="#333" stroke-width="2"/><line x1="204.85749449703331" y1="340.23113159570124" x2="171.71978342491846" y2="353.95722094777227" stroke="#333" stroke-width="2"/><circle cx="160.67387973421353" cy="358.5325840651293" r="17.08" fill="#222"/>
      </g>
    </g>
  
    <g>
      <g>
        <animateTransform attributeName="transform" attributeType="XML"
          type="rotate"
          from="0 100.34477388246813 165.60392385562287"
          to="360 100.34477388246813 165.60392385562287"
          dur="4.6s"
          repeatCount="indefinite"/>
        <path d="M209.61605687107536,154.8416418474371 L176.83467197449318,173.1375212613529 L205.41682274586466,197.47718141816284 L168.1292422602827,201.83547704806904 L185.22132166169666,235.26030645679114 L149.10424170328594,225.01750730108282 L152.10413558596267,262.43887868107225 L122.6560541762461,239.15435806000045 L111.10705589065388,274.8752068442301 L92.81117647673811,242.09382194764794 L68.47151631992816,270.6759727190194 L64.11322069002199,233.38839223343746 L30.68839128129987,250.4804716348514 L40.93119043700817,214.36339167644064 L3.5098190570187597,217.36328555911743 L26.794339678090566,187.91520414940084 L-8.926509106139079,176.36620586380866 L23.854875790443074,158.07032644989283 L-4.727274980928399,133.73066629308292 L32.56030550465357,129.3723706631767 L15.468226103239601,95.94754125445462 L51.585306061650364,106.19034041016289 L48.58541217897356,68.7689690301735 L78.03349358869015,92.0534896512453 L89.5824918742824,56.33264086701564 L107.87837128819812,89.11402576359781 L132.21803144500808,60.531874992226335 L136.5763270749143,97.8194554778083 L170.0011564836364,80.72737607639436 L159.75835732792805,116.84445603480503 L197.1797287079175,113.8445621521283 L173.89520808684568,143.2926435618448 Z" fill="#8EC6F3" stroke="#222" stroke-width="3"/>
        <line x1="161.83277388246813" y1="165.60392385562287" x2="115.71677388246813" y2="165.60392385562287" stroke="#333" stroke-width="2"/><line x1="157.15227857752214" y1="189.1343627448875" x2="114.54665005623163" y2="171.486533577939" stroke="#333" stroke-width="2"/><line x1="143.82335564406657" y1="209.0825056172213" x2="111.21441932286774" y2="176.47356929602248" stroke="#333" stroke-width="2"/><line x1="123.87521277173278" y1="222.41142855067687" x2="106.2273836047843" y2="179.80580002938638" stroke="#333" stroke-width="2"/><line x1="100.34477388246813" y1="227.09192385562287" x2="100.34477388246813" y2="180.97592385562285" stroke="#333" stroke-width="2"/><line x1="76.81433499320349" y1="222.41142855067687" x2="94.46216416015197" y2="179.80580002938638" stroke="#333" stroke-width="2"/><line x1="56.866192120869705" y1="209.0825056172213" x2="89.47512844206852" y2="176.47356929602248" stroke="#333" stroke-width="2"/><line x1="43.53726918741413" y1="189.1343627448875" x2="86.14289770870464" y2="171.48653357793904" stroke="#333" stroke-width="2"/><line x1="38.85677388246813" y1="165.60392385562287" x2="84.97277388246813" y2="165.60392385562287" stroke="#333" stroke-width="2"/><line x1="43.53726918741412" y1="142.07348496635825" x2="86.14289770870462" y2="159.72131413330672" stroke="#333" stroke-width="2"/><line x1="56.86619212086969" y1="122.12534209402443" x2="89.47512844206852" y2="154.73427841522326" stroke="#333" stroke-width="2"/><line x1="76.81433499320352" y1="108.79641916056886" x2="94.46216416015197" y2="151.40204768185936" stroke="#333" stroke-width="2"/><line x1="100.34477388246812" y1="104.11592385562287" x2="100.34477388246813" y2="150.23192385562288" stroke="#333" stroke-width="2"/><line x1="123.87521277173279" y1="108.79641916056887" x2="106.2273836047843" y2="151.40204768185936" stroke="#333" stroke-width="2"/><line x1="143.82335564406657" y1="122.12534209402443" x2="111.21441932286774" y2="154.73427841522326" stroke="#333" stroke-width="2"/><line x1="157.15227857752214" y1="142.07348496635825" x2="114.54665005623164" y2="159.72131413330672" stroke="#333" stroke-width="2"/><circle cx="100.34477388246813" cy="165.60392385562287" r="21.96" fill="#222"/>
      </g>
    </g>
  
    <g>
      <g>
        <animateTransform attributeName="transform" attributeType="XML"
          type="rotate"
          from="0 413.5274299737554 102.42555939915133"
          to="-360 413.5274299737554 102.42555939915133"
          dur="5.4s"
          repeatCount="indefinite"/>
        <path d="M545.1488146038689,76.24443818458691 L505.66239921483486,120.75234424934641 L525.1106519447569,176.98308467038194 L465.71769766361683,180.53381477885245 L439.7085511883198,234.04694402926486 L395.2006451235603,194.5605286402308 L338.96990470252473,214.0087813701529 L335.41917459405425,154.61582708901275 L281.90604534364184,128.60668061371572 L321.3924607326759,84.09877454895627 L301.9442080027538,27.868034127920694 L361.33716228389386,24.317304019450262 L387.3463087591909,-29.195825230962214 L431.8542148239505,10.29059015807185 L488.08495524498596,-9.157662571850295 L491.6356853534565,50.23529170928989 Z" fill="#FFD700" stroke="#222" stroke-width="3"/>
        
      </g>
    </g>
  
  <text x="50%" y="95%" text-anchor="middle" font-size="32" fill="#fff" opacity="0.7" font-family="Arial">Gears Collection #15</text>
</svg>