<svg width="512" height="512" viewBox="0 0 512 512" xmlns="http://www.w3.org/2000/svg">
  <rect width="100%" height="100%" fill="#f5e663" />
  
    <g>
      <g>
        <animateTransform attributeName="transform" attributeType="XML"
          type="rotate"
          from="0 310.13070106004676 340.08250235779053"
          to="360 310.13070106004676 340.08250235779053"
          dur="3.56s"
          repeatCount="indefinite"/>
        <path d="M375.8433148470632,327.0114507827099 L356.12953071095825,349.23223846034693 L365.8391650843173,377.30570797010387 L336.1869449886661,379.0784271747799 L323.2017526351274,405.79511614480697 L300.98096495749036,386.081332008702 L272.9074954477334,395.7909663820611 L271.1347762430574,366.13874628640986 L244.41808727303032,353.1535539328711 L264.1318714091353,330.9327662552341 L254.42223703577622,302.8592967454772 L284.0744571314274,301.08657754080116 L297.05964948496614,274.3698885707741 L319.28043716260316,294.08367270687904 L347.3539066723601,284.37403833352 L349.12662587703613,314.0262584291712 Z" fill="#9DE09D" stroke="#222" stroke-width="3"/>
        
      </g>
    </g>
  
    <g>
      <g>
        <animateTransform attributeName="transform" attributeType="XML"
          type="rotate"
          from="0 229.87124660276572 393.5401332190227"
          to="-360 229.87124660276572 393.5401332190227"
          dur="4.08s"
          repeatCount="indefinite"/>
        <path d="M322.51641295058965,378.8665803982491 L294.7228630462425,403.8116201935643 L313.44765857163463,436.1244420945922 L276.29987785547445,439.96876447173145 L272.4555554783352,477.11654518789163 L240.1427335773073,458.3917496624995 L215.19769378199206,486.18529956684665 L200.0622303898671,452.043621597231 L163.54463052746758,459.86674929432087 L171.3677582245575,423.3491494319214 L137.22608025494182,408.21368603979636 L165.01963015928897,383.26864624448115 L146.2948346338968,350.9558243434533 L183.442615350057,347.111501966314 L187.28693772719623,309.9637212501538 L219.59975962822415,328.68851677554596 L244.54479942353936,300.8949668711988 L259.6802628156644,335.03664484081446 L296.19786267806387,327.2135171437245 L288.3747349809739,363.73111700612407 Z" fill="#B87333" stroke="#222" stroke-width="3"/>
        
      </g>
    </g>
  
    <g>
      <g>
        <animateTransform attributeName="transform" attributeType="XML"
          type="rotate"
          from="0 77.31068844187936 234.31752009375077"
          to="360 77.31068844187936 234.31752009375077"
          dur="3.75s"
          repeatCount="indefinite"/>
        <path d="M196.42590231765297,215.4515236098989 L160.6913381549209,247.52371763244707 L184.76607525899652,289.0687743623401 L137.0046429096477,294.0114745615191 L132.0619427104687,341.77290691086796 L90.51688598057567,317.6981698067923 L58.444691958027505,353.4327339695244 L38.98481045386683,309.5362908657328 L-7.966389369218263,319.5945979048484 L2.091917669897356,272.64339808176334 L-41.80452543389424,253.18351657760263 L-6.069961271162171,221.1113225550545 L-30.144698375237837,179.5662658251615 L17.616733974111007,174.62356562598245 L22.55943417329,126.86213327663361 L64.10449090318306,150.93687038070925 L96.17668492573118,115.20230621797715 L115.6365664298919,159.09874932176876 L162.58776625297696,149.04044228265312 L152.52945921386137,195.9916421057382 Z" fill="#F5F5F5" stroke="#222" stroke-width="3"/>
        
      </g>
    </g>
  
    <g>
      <g>
        <animateTransform attributeName="transform" attributeType="XML"
          type="rotate"
          from="0 266.7182185153502 36.26124649516825"
          to="-360 266.7182185153502 36.26124649516825"
          dur="4.28s"
          repeatCount="indefinite"/>
        <path d="M412.30347991907354,13.20280634823822 L368.6279014979565,52.40215459801927 L398.0525801807156,103.17944615677744 L339.6774961981782,109.22052417799621 L333.6364181769594,167.59560816053366 L282.85912661820123,138.17092947777456 L243.65977836842015,181.84650789889156 L219.87547875222378,128.19529966092404 L162.4906789684531,140.48878604206539 L174.78416534959442,83.1039862582947 L121.1329571116269,59.3196866420983 L164.8085355327439,20.120338392317244 L135.38385684998474,-30.65695316644087 L193.75894083252223,-36.69803118765971 L199.800018853741,-95.07311517019716 L250.57731041249917,-65.64843648743805 L289.7766586622802,-109.32401490855506 L313.5609582784766,-55.67280667058755 L370.94575806224725,-67.96629305172888 L358.65227168110596,-10.581493267958201 Z" fill="#8EC6F3" stroke="#222" stroke-width="3"/>
        
      </g>
    </g>
  
    <g>
      <g>
        <animateTransform attributeName="transform" attributeType="XML"
          type="rotate"
          from="0 503.3477712353101 175.8808383411016"
          to="360 503.3477712353101 175.8808383411016"
          dur="5.05s"
          repeatCount="indefinite"/>
        <path d="M675.4030801669832,148.62995453109338 L623.7864874874812,194.95645700810735 L658.5611077489239,254.96598339573063 L589.5723721331977,262.1054392389892 L582.4329162899392,331.0941748547153 L522.4233899023159,296.3195545932727 L476.0968874253019,347.93614727277463 L447.9881696970698,284.53017390063115 L380.16976995261354,299.0588396237982 L394.69843567578056,231.24043987934192 L331.2924623036371,203.13172215110984 L382.909054983139,156.80521967409587 L348.1344347216964,96.79569328647263 L417.1231703374225,89.656237443214 L424.262626180681,20.66750182748791 L484.27215256830436,55.4421220889305 L530.5986550453183,3.825529409428583 L558.7073727735504,67.231502781572 L626.5257725180066,52.70283705840498 L611.9971067948397,120.52123680286124 Z" fill="#E5E4E2" stroke="#222" stroke-width="3"/>
        
      </g>
    </g>
  
  <text x="50%" y="95%" text-anchor="middle" font-size="32" fill="#fff" opacity="0.7" font-family="Arial">Gears Collection #13</text>
</svg>