<svg width="512" height="512" viewBox="0 0 512 512" xmlns="http://www.w3.org/2000/svg">
  <rect width="100%" height="100%" fill="#8ec6f3" />
  
    <g>
      <g>
        <animateTransform attributeName="transform" attributeType="XML"
          type="rotate"
          from="0 316.0136502498743 335.9897604927391"
          to="360 316.0136502498743 335.9897604927391"
          dur="5.41s"
          repeatCount="indefinite"/>
        <path d="M375.84155235447133,324.0892508497553 L357.8931817230922,344.3201172428278 L366.73329660032954,369.87954470693484 L339.7364991998113,371.4935129380578 L327.9141598928581,395.81766259733615 L307.68329349978563,377.869291965957 L282.12386603567853,386.70940684319436 L280.5098978045556,359.7126094426761 L256.1857481452772,347.8902701357229 L274.13411877665635,327.65940374265045 L265.294003899419,302.09997627854335 L292.29080129993724,300.48600804742046 L304.1131406068904,276.16185838814204 L324.34400699996297,294.11022901952117 L349.90343446406996,285.27011414228383 L351.51740269519297,312.26691154280206 Z" fill="#9DE09D" stroke="#222" stroke-width="3"/>
        
      </g>
    </g>
  
    <g>
      <g>
        <animateTransform attributeName="transform" attributeType="XML"
          type="rotate"
          from="0 213.17144047488418 389.2880883237643"
          to="-360 213.17144047488418 389.2880883237643"
          dur="3.51s"
          repeatCount="indefinite"/>
        <path d="M297.84083163620755,378.1411515081719 L272.4400142878105,397.090944094679 L292.07075255134805,421.969253447743 L260.5981031574942,425.6798465499056 L265.1596665122289,457.0404635846358 L236.04825606166924,444.517606777289 L224.3183772904766,473.95747948508773 L205.3685847039695,448.5566621366907 L180.4902753509055,468.1874004002282 L176.77968224874286,436.71475100637434 L145.41906521401268,441.27631436110903 L157.94192202135946,412.1649039105494 L128.50204931356078,400.43502513935675 L153.9028666619578,381.48523255284965 L134.27212839842028,356.6069231997857 L165.74477779227414,352.89633009762304 L161.18321443753942,321.53571306289285 L190.29462488809912,334.0585698702396 L202.02450365929178,304.6186971624409 L220.97429624579888,330.01951451083795 L245.85260559886285,310.3887762473005 L249.5631987010255,341.8614256411543 L280.9238157357556,337.29986228641957 L268.4009589284089,366.4112727369793 Z" fill="#B87333" stroke="#222" stroke-width="3"/>
        <line x1="260.99544047488416" y1="389.2880883237643" x2="225.12744047488417" y2="389.2880883237643" stroke="#333" stroke-width="2"/><line x1="254.58823938547118" y1="413.2000883237643" x2="223.52564020253092" y2="395.26608832376434" stroke="#333" stroke-width="2"/><line x1="237.08344047488418" y1="430.7048872343513" x2="219.1494404748842" y2="399.6422880514111" stroke="#333" stroke-width="2"/><line x1="213.17144047488418" y1="437.11208832376434" x2="213.17144047488418" y2="401.24408832376434" stroke="#333" stroke-width="2"/><line x1="189.2594404748842" y1="430.7048872343513" x2="207.19344047488417" y2="399.6422880514111" stroke="#333" stroke-width="2"/><line x1="171.75464156429717" y1="413.2000883237643" x2="202.81724074723743" y2="395.26608832376434" stroke="#333" stroke-width="2"/><line x1="165.3474404748842" y1="389.2880883237643" x2="201.2154404748842" y2="389.2880883237643" stroke="#333" stroke-width="2"/><line x1="171.7546415642972" y1="365.37608832376435" x2="202.81724074723743" y2="383.3100883237643" stroke="#333" stroke-width="2"/><line x1="189.25944047488417" y1="347.87128941317735" x2="207.19344047488417" y2="378.9338885961176" stroke="#333" stroke-width="2"/><line x1="213.17144047488418" y1="341.4640883237643" x2="213.17144047488418" y2="377.3320883237643" stroke="#333" stroke-width="2"/><line x1="237.08344047488418" y1="347.87128941317735" x2="219.1494404748842" y2="378.9338885961176" stroke="#333" stroke-width="2"/><line x1="254.58823938547116" y1="365.3760883237643" x2="223.52564020253092" y2="383.3100883237643" stroke="#333" stroke-width="2"/><circle cx="213.17144047488418" cy="389.2880883237643" r="17.08" fill="#222"/>
      </g>
    </g>
  
    <g>
      <g>
        <animateTransform attributeName="transform" attributeType="XML"
          type="rotate"
          from="0 86.51337345702169 316.61586774996294"
          to="360 86.51337345702169 316.61586774996294"
          dur="4s"
          repeatCount="indefinite"/>
        <path d="M195.97489670091915,308.0010590390456 L163.13643972774992,322.6462338476051 L193.27959071668658,342.24816870134134 L157.52275432583917,346.02891636154374 L180.13326350310103,373.98621015577413 L144.95817597304006,366.5324447446209 L157.82276916367584,400.10844277284633 L126.67261314108953,382.1497907822185 L128.53201433070853,418.05784041970225 L104.45598412298658,391.35221983172835 L95.12818216793906,426.0773909938604 L80.48300735937953,393.23893402069115 L60.8810725056433,423.3820850096279 L57.100324845440895,387.62524861878046 L29.143031051210507,410.23575779604226 L36.59679646236378,375.06067026598134 L3.0207984341382996,387.92526345661713 L20.979450424766156,356.77510743403076 L-14.9285992127176,358.6345086236498 L11.777021375256268,334.5584784159278 L-22.94814978687576,325.2306764608803 L9.89030718629347,310.5855016523208 L-20.2528438026432,290.9835667985845 L15.50399258820417,287.2028191383822 L-7.106516589057648,259.24552534415176 L28.0685709410033,266.699290755305 L15.203977750367471,233.1232927270796 L46.35413377295388,251.08194471770742 L44.49473258333486,215.17389508022364 L68.57076279105682,241.8795156681975 L77.89856474610424,207.1543445060655 L92.5437395546638,239.99280147923474 L112.14567440840003,209.84965049029802 L115.9264220686025,245.60648688114546 L143.8837158628329,222.99597770388363 L136.42995045167962,258.17106523394455 L170.00594847990504,245.30647204330873 L152.04729648927722,276.45662806589513 L187.955346126761,274.5972268762761 L161.24972553878712,298.673257083998 Z" fill="#FFD700" stroke="#222" stroke-width="3"/>
        <line x1="148.00137345702169" y1="316.61586774996294" x2="101.88537345702169" y2="316.61586774996294" stroke="#333" stroke-width="2"/><line x1="144.99193653097808" y1="335.6167047000897" x2="101.13301422551079" y2="321.36607698749464" stroke="#333" stroke-width="2"/><line x1="136.25821040714845" y1="352.75760734292254" x2="98.94958269455338" y2="325.65130264820283" stroke="#333" stroke-width="2"/><line x1="122.65511304998128" y1="366.36070470008974" x2="95.54880835526158" y2="329.0520769874946" stroke="#333" stroke-width="2"/><line x1="105.51421040714845" y1="375.09443082391937" x2="91.26358269455338" y2="331.23550851845204" stroke="#333" stroke-width="2"/><line x1="86.51337345702169" y1="378.10386774996294" x2="86.51337345702169" y2="331.98786774996296" stroke="#333" stroke-width="2"/><line x1="67.51253650689492" y1="375.09443082391937" x2="81.76316421949" y2="331.23550851845204" stroke="#333" stroke-width="2"/><line x1="50.371633864062105" y1="366.36070470008974" x2="77.47793855878179" y2="329.0520769874946" stroke="#333" stroke-width="2"/><line x1="36.768536506894925" y1="352.75760734292254" x2="74.07716421949" y2="325.65130264820283" stroke="#333" stroke-width="2"/><line x1="28.034810383065285" y1="335.6167047000897" x2="71.89373268853258" y2="321.36607698749464" stroke="#333" stroke-width="2"/><line x1="25.025373457021686" y1="316.61586774996294" x2="71.14137345702169" y2="316.61586774996294" stroke="#333" stroke-width="2"/><line x1="28.034810383065285" y1="297.6150307998362" x2="71.89373268853258" y2="311.86565851243125" stroke="#333" stroke-width="2"/><line x1="36.76853650689492" y1="280.47412815700335" x2="74.07716421948999" y2="307.58043285172306" stroke="#333" stroke-width="2"/><line x1="50.37163386406209" y1="266.8710307998362" x2="77.47793855878179" y2="304.1796585124313" stroke="#333" stroke-width="2"/><line x1="67.51253650689492" y1="258.1373046760065" x2="81.76316421949" y2="301.99622698147385" stroke="#333" stroke-width="2"/><line x1="86.51337345702167" y1="255.12786774996295" x2="86.51337345702169" y2="301.24386774996293" stroke="#333" stroke-width="2"/><line x1="105.51421040714844" y1="258.1373046760065" x2="91.26358269455338" y2="301.99622698147385" stroke="#333" stroke-width="2"/><line x1="122.65511304998125" y1="266.87103079983615" x2="95.54880835526158" y2="304.1796585124313" stroke="#333" stroke-width="2"/><line x1="136.25821040714845" y1="280.47412815700335" x2="98.94958269455337" y2="307.58043285172306" stroke="#333" stroke-width="2"/><line x1="144.99193653097808" y1="297.6150307998362" x2="101.13301422551079" y2="311.86565851243125" stroke="#333" stroke-width="2"/><circle cx="86.51337345702169" cy="316.61586774996294" r="21.96" fill="#222"/>
      </g>
    </g>
  
    <g>
      <g>
        <animateTransform attributeName="transform" attributeType="XML"
          type="rotate"
          from="0 83.34181944622961 119.6579570056924"
          to="-360 83.34181944622961 119.6579570056924"
          dur="4.33s"
          repeatCount="indefinite"/>
        <path d="M214.96320407634315,93.47683579112798 L175.47678868730907,137.98474185588748 L194.92504141723117,194.215482276923 L135.53208713609104,197.7662123853935 L109.52294066079403,251.27934163580593 L65.01503459603454,211.79292624677188 L8.784294174998976,231.24117897669396 L5.233564066528487,171.84822469555382 L-48.27956518388393,145.8390782202568 L-8.793149794849882,101.33117215549734 L-28.24140252477197,45.100431734461765 L31.1515517563681,41.54970162599133 L57.16069823166514,-11.963427624421143 L101.6686042964247,27.52298776461292 L157.89934471746017,8.074735034690775 L161.4500748259307,67.46768931583097 Z" fill="#9DE09D" stroke="#222" stroke-width="3"/>
        
      </g>
    </g>
  
    <g>
      <g>
        <animateTransform attributeName="transform" attributeType="XML"
          type="rotate"
          from="0 446.6058069461285 79.16836720084501"
          to="360 446.6058069461285 79.16836720084501"
          dur="5.5s"
          repeatCount="indefinite"/>
        <path d="M603.8489619600148,58.466913114744834 L556.676015455849,93.65938506111513 L593.1331008024185,139.86195957394824 L534.6838947852614,146.75306104939318 L543.1553695869115,204.99420697103488 L489.09132160730076,181.73747290024806 L467.3072610322287,236.41152221473132 L432.1147890858584,189.23857571056544 L385.91221457302527,225.69566105713508 L379.0211130975803,167.24645503997795 L320.77996717593857,175.71792984162806 L344.03670124672544,121.6538818620173 L289.3626519322422,99.86982128694518 L336.53559843640807,64.67734934057492 L300.0785130898384,18.47477482774186 L358.52771910699556,11.583673352296842 L350.0562443053454,-46.65747256934485 L404.12029228495624,-23.400738498558056 L425.9043528600283,-78.0747878130413 L461.0968248063987,-30.90184130887542 L507.2993993192318,-67.35892665544503 L514.1905007946766,-8.909720638287908 L572.4316467163184,-17.38119543993811 L549.1749126455315,36.68285253967277 Z" fill="#C9AE5D" stroke="#222" stroke-width="3"/>
        <line x1="535.4218069461285" y1="79.16836720084501" x2="468.8098069461285" y2="79.16836720084501" stroke="#333" stroke-width="2"/><line x1="523.5227192086472" y1="123.576367200845" x2="465.8350350117582" y2="90.27036720084502" stroke="#333" stroke-width="2"/><line x1="491.0138069461285" y1="156.08527946336372" x2="457.70780694612847" y2="98.3975952664747" stroke="#333" stroke-width="2"/><line x1="446.6058069461285" y1="167.984367200845" x2="446.6058069461285" y2="101.37236720084502" stroke="#333" stroke-width="2"/><line x1="402.19780694612854" y1="156.08527946336372" x2="435.5038069461285" y2="98.3975952664747" stroke="#333" stroke-width="2"/><line x1="369.68889468360976" y1="123.576367200845" x2="427.3765788804988" y2="90.27036720084502" stroke="#333" stroke-width="2"/><line x1="357.78980694612846" y1="79.16836720084503" x2="424.4018069461285" y2="79.16836720084501" stroke="#333" stroke-width="2"/><line x1="369.68889468360976" y1="34.760367200845" x2="427.3765788804988" y2="68.06636720084501" stroke="#333" stroke-width="2"/><line x1="402.1978069461285" y1="2.2514549383263187" x2="435.50380694612846" y2="59.93913913521534" stroke="#333" stroke-width="2"/><line x1="446.6058069461285" y1="-9.64763279915499" x2="446.6058069461285" y2="56.96436720084501" stroke="#333" stroke-width="2"/><line x1="491.0138069461285" y1="2.2514549383263045" x2="457.70780694612847" y2="59.939139135215335" stroke="#333" stroke-width="2"/><line x1="523.5227192086472" y1="34.76036720084497" x2="465.8350350117582" y2="68.06636720084501" stroke="#333" stroke-width="2"/><circle cx="446.6058069461285" cy="79.16836720084501" r="31.72" fill="#222"/>
      </g>
    </g>
  
  <text x="50%" y="95%" text-anchor="middle" font-size="32" fill="#fff" opacity="0.7" font-family="Arial">Gears Collection #28</text>
</svg>