<svg width="512" height="512" viewBox="0 0 512 512" xmlns="http://www.w3.org/2000/svg">
  <rect width="100%" height="100%" fill="#8ec6f3" />
  
    <g>
      <g>
        <animateTransform attributeName="transform" attributeType="XML"
          type="rotate"
          from="0 333.84241764601717 318.773864107788"
          to="360 333.84241764601717 318.773864107788"
          dur="4.49s"
          repeatCount="indefinite"/>
        <path d="M395.6512923374711,313.9094001726616 L377.1086299300349,322.17898886237646 L394.1293527106731,333.2474766668541 L373.938789357007,335.3823250724329 L386.7061078359709,351.1687751201768 L366.8440365530585,346.95990940531794 L374.10819664248856,365.9190339749899 L356.5188553546893,355.77844724075555 L357.56879045265276,376.0543951234878 L343.97394643736345,360.97471865304715 L338.70688158114353,380.5827387992419 L330.4372928914287,362.0400763918057 L319.36880508695106,379.0607991724439 L317.23395668137226,358.8702358187778 L301.44750663362834,371.6375542977417 L305.6563723484872,351.7754830148293 L286.69724777881527,359.03964310425937 L296.8378345130496,341.4503018164602 L276.5618866303174,342.50023691442357 L291.641563100758,328.90539289913426 L272.03354295456325,323.63832804291434 L290.5762053619994,315.3687393531995 L273.5554825813612,304.3002515487218 L293.7460459350273,302.1654031431431 L280.97872745606344,286.37895309539914 L300.8407987389758,290.587818810258 L293.57663864954577,271.62869424058607 L311.165979937345,281.7692809748204 L310.11604483938163,261.49333309208816 L323.7108888546709,276.5730095625288 L328.97795371089074,256.96498941633405 L337.2475424006056,275.50765182377023 L348.3160302050833,258.486929043132 L350.4508786106621,278.67749239679813 L366.237328658406,265.91017391783424 L362.02846294354714,285.7722452007466 L380.98758751321907,278.5080851113166 L370.84700077898475,296.0974263991158 L391.122948661717,295.04749130115243 L376.04327219127634,308.64233531644163 Z" fill="#C0C0C0" stroke="#222" stroke-width="3"/>
        <line x1="368.56241764601714" y1="318.773864107788" x2="342.5224176460172" y2="318.773864107788" stroke="#333" stroke-width="2"/><line x1="366.8630998917849" y1="329.50293415248615" x2="342.0975882074591" y2="321.4561316189625" stroke="#333" stroke-width="2"/><line x1="361.93148769071536" y1="339.1817680673826" x2="340.86468515719173" y2="323.87584009768665" stroke="#333" stroke-width="2"/><line x1="354.2503216056118" y1="346.86293415248616" x2="338.94439363591584" y2="325.79613161896253" stroke="#333" stroke-width="2"/><line x1="344.57148769071534" y1="351.7945463535557" x2="336.5246851571917" y2="327.02903466922993" stroke="#333" stroke-width="2"/><line x1="333.84241764601717" y1="353.493864107788" x2="333.84241764601717" y2="327.453864107788" stroke="#333" stroke-width="2"/><line x1="323.113347601319" y1="351.7945463535557" x2="331.16015013484264" y2="327.02903466922993" stroke="#333" stroke-width="2"/><line x1="313.4345136864225" y1="346.86293415248616" x2="328.7404416561185" y2="325.79613161896253" stroke="#333" stroke-width="2"/><line x1="305.753347601319" y1="339.1817680673826" x2="326.8201501348426" y2="323.87584009768665" stroke="#333" stroke-width="2"/><line x1="300.82173540024945" y1="329.50293415248615" x2="325.5872470845752" y2="321.4561316189625" stroke="#333" stroke-width="2"/><line x1="299.1224176460172" y1="318.773864107788" x2="325.16241764601716" y2="318.773864107788" stroke="#333" stroke-width="2"/><line x1="300.82173540024945" y1="308.0447940630898" x2="325.5872470845752" y2="316.09159659661344" stroke="#333" stroke-width="2"/><line x1="305.753347601319" y1="298.3659601481933" x2="326.8201501348426" y2="313.6718881178893" stroke="#333" stroke-width="2"/><line x1="313.4345136864225" y1="290.6847940630898" x2="328.7404416561185" y2="311.7515965966134" stroke="#333" stroke-width="2"/><line x1="323.113347601319" y1="285.75318186202026" x2="331.16015013484264" y2="310.518693546346" stroke="#333" stroke-width="2"/><line x1="333.84241764601717" y1="284.05386410778794" x2="333.84241764601717" y2="310.09386410778797" stroke="#333" stroke-width="2"/><line x1="344.57148769071534" y1="285.75318186202026" x2="336.5246851571917" y2="310.518693546346" stroke="#333" stroke-width="2"/><line x1="354.2503216056118" y1="290.6847940630898" x2="338.94439363591584" y2="311.7515965966134" stroke="#333" stroke-width="2"/><line x1="361.93148769071536" y1="298.3659601481933" x2="340.86468515719173" y2="313.6718881178893" stroke="#333" stroke-width="2"/><line x1="366.8630998917849" y1="308.0447940630898" x2="342.0975882074591" y2="316.09159659661344" stroke="#333" stroke-width="2"/><circle cx="333.84241764601717" cy="318.773864107788" r="12.4" fill="#222"/>
      </g>
    </g>
  
    <g>
      <g>
        <animateTransform attributeName="transform" attributeType="XML"
          type="rotate"
          from="0 226.49052998462082 392.85463521346816"
          to="-360 226.49052998462082 392.85463521346816"
          dur="4.29s"
          repeatCount="indefinite"/>
        <path d="M311.6226923236212,375.92079526246823 L286.0830436219211,404.70832317916813 L298.66209233248173,441.07813143956963 L260.24697734289185,443.3747288569708 L243.42436993562075,477.98679755246854 L214.6368420189209,452.44714885076843 L178.26703375851935,465.02619756132907 L175.97043634111816,426.6110825717392 L141.35836764562043,409.7884751644681 L166.89801634732055,381.00094724776824 L154.3189676367599,344.6311389873667 L192.73408262634976,342.33454156996555 L209.55669003362084,307.72247287446777 L238.34421795032077,333.2621215761679 L274.71402621072224,320.6830728656072 L277.0106236281235,359.0981878551971 Z" fill="#F5F5F5" stroke="#222" stroke-width="3"/>
        
      </g>
    </g>
  
    <g>
      <g>
        <animateTransform attributeName="transform" attributeType="XML"
          type="rotate"
          from="0 80.67654325165344 296.7637769816617"
          to="360 80.67654325165344 296.7637769816617"
          dur="4.28s"
          repeatCount="indefinite"/>
        <path d="M191.73915874827063,285.82506412088276 L158.42037409928548,304.420875984207 L187.47108471936795,329.1595469632597 L149.57223242254696,333.5892900625086 L166.9445098469349,367.56206749432454 L130.23534661051744,357.1513535983587 L133.28441908143478,395.18619008293814 L103.35358223877205,371.51995600906184 L91.6152561124324,407.8263924782789 L73.01944424910818,374.5076078292937 L48.280773270055434,403.5583184493762 L43.85103017080653,365.6594661525552 L9.87825273899061,383.03174357694314 L20.288966634956424,346.3225803405257 L-17.745869849622977,349.371652811443 L5.920364224253291,319.44081596878027 L-30.386072244963728,307.7024898424407 L2.932712404021416,289.1066779791164 L-26.117998216061082,264.3680070000637 L11.780854080759937,259.9382639008148 L-5.591423343628023,225.96548646899888 L31.11773989278948,236.37620036496466 L28.06866742187207,198.34136388038527 L57.999504264534835,222.00759795426154 L69.73783039087449,185.7011614850445 L88.33364225419868,219.01994613402968 L113.0723132332514,189.96923551394718 L117.50205633250037,227.8680878107682 L151.47483376431632,210.49581038638024 L141.06411986835042,247.20497362279767 L179.09895635292986,244.15590115188033 L155.43272227905356,274.086737994543 Z" fill="#C0C0C0" stroke="#222" stroke-width="3"/>
        
      </g>
    </g>
  
    <g>
      <g>
        <animateTransform attributeName="transform" attributeType="XML"
          type="rotate"
          from="0 172.11117872587346 52.621865321668224"
          to="-360 172.11117872587346 52.621865321668224"
          dur="3.56s"
          repeatCount="indefinite"/>
        <path d="M305.8902909728741,26.01154539866833 L265.7565572987739,71.24908926776814 L285.5236338439406,128.40164510554195 L225.15702457458508,132.01058390431524 L198.72149864887336,186.40097756866885 L153.48395477977357,146.26724389456868 L96.33139894199971,166.03432043973538 L92.72246014322643,105.66771117037985 L38.33206647887283,79.2321852446681 L78.465800152973,33.994641375568335 L58.698723607806286,-23.157914462205525 L119.06533287716177,-26.76685326097875 L145.5008588028735,-81.1572469253324 L190.7384026719734,-41.02351325123222 L247.89095850974715,-60.790589796398976 L251.49989730852047,-0.4239805270433905 Z" fill="#8EC6F3" stroke="#222" stroke-width="3"/>
        
      </g>
    </g>
  
    <g>
      <g>
        <animateTransform attributeName="transform" attributeType="XML"
          type="rotate"
          from="0 504.88744638493284 180.80000643625567"
          to="360 504.88744638493284 180.80000643625567"
          dur="5.42s"
          repeatCount="indefinite"/>
        <path d="M665.311224324491,164.9996434151305 L617.1840909426236,191.8602605510433 L659.1462285049649,227.593896409675 L604.4034418540012,233.99241421970123 L629.496731467006,283.06420384343534 L576.4723845699586,268.0265059937069 L580.8766003612836,322.9657142492105 L537.6431693663263,288.78115392027814 L520.687809406058,341.2237843758138 L493.82719227014525,293.09665099394635 L458.09355641151353,335.0587885562877 L451.6950386014873,280.3160019053241 L402.6232489777532,305.4092915183289 L417.6609468274816,252.38494462128142 L362.721738571978,256.7891604126065 L396.90629890091043,213.55572941764922 L344.4636684453747,196.60036945738088 L392.59080182724216,169.73975232146805 L350.62866426490075,134.00611646283636 L405.37145091586444,127.6075986528101 L380.27816130285964,78.53580902907605 L433.30250819990715,93.5735068788044 L428.89829240858194,38.63429862330085 L472.1317234035393,72.81885895223323 L489.0870833638077,20.376228496697507 L515.9477004997204,68.50336187856497 L551.6813363583522,26.541224316223577 L558.0798541683785,81.28401096718729 L607.1516437921125,56.19072135418247 L592.113945942384,109.21506825122987 L647.0531541978877,104.8108524599048 L612.8685938689553,148.044283454862 Z" fill="#8EC6F3" stroke="#222" stroke-width="3"/>
        <line x1="595.1594463849328" y1="180.80000643625567" x2="527.4554463849329" y2="180.80000643625567" stroke="#333" stroke-width="2"/><line x1="588.2878995437917" y1="215.34560524271706" x2="525.7375596746475" y2="189.43640613787102" stroke="#333" stroke-width="2"/><line x1="568.7193897362049" y1="244.63194978752767" x2="520.8454322227509" y2="196.75799227407367" stroke="#333" stroke-width="2"/><line x1="539.4330451913943" y1="264.2004595951146" x2="513.5238460865482" y2="201.6501197259704" stroke="#333" stroke-width="2"/><line x1="504.88744638493284" y1="271.07200643625566" x2="504.88744638493284" y2="203.36800643625568" stroke="#333" stroke-width="2"/><line x1="470.34184757847146" y1="264.2004595951146" x2="496.2510466833175" y2="201.6501197259704" stroke="#333" stroke-width="2"/><line x1="441.05550303366084" y1="244.6319497875277" x2="488.92946054711484" y2="196.75799227407367" stroke="#333" stroke-width="2"/><line x1="421.486993226074" y1="215.34560524271706" x2="484.0373330952181" y2="189.43640613787102" stroke="#333" stroke-width="2"/><line x1="414.61544638493285" y1="180.80000643625567" x2="482.31944638493286" y2="180.80000643625567" stroke="#333" stroke-width="2"/><line x1="421.48699322607393" y1="146.25440762979434" x2="484.0373330952181" y2="172.16360673464033" stroke="#333" stroke-width="2"/><line x1="441.0555030336608" y1="116.96806308498365" x2="488.92946054711484" y2="164.84202059843767" stroke="#333" stroke-width="2"/><line x1="470.34184757847146" y1="97.39955327739678" x2="496.2510466833175" y2="159.94989314654094" stroke="#333" stroke-width="2"/><line x1="504.88744638493284" y1="90.52800643625567" x2="504.88744638493284" y2="158.23200643625566" stroke="#333" stroke-width="2"/><line x1="539.4330451913943" y1="97.3995532773968" x2="513.5238460865482" y2="159.94989314654094" stroke="#333" stroke-width="2"/><line x1="568.7193897362049" y1="116.96806308498364" x2="520.8454322227509" y2="164.84202059843767" stroke="#333" stroke-width="2"/><line x1="588.2878995437917" y1="146.25440762979431" x2="525.7375596746475" y2="172.16360673464033" stroke="#333" stroke-width="2"/><circle cx="504.88744638493284" cy="180.80000643625567" r="32.24" fill="#222"/>
      </g>
    </g>
  
  <text x="50%" y="95%" text-anchor="middle" font-size="32" fill="#fff" opacity="0.7" font-family="Arial">Gears Collection #19</text>
</svg>