<svg width="512" height="512" viewBox="0 0 512 512" xmlns="http://www.w3.org/2000/svg">
  <rect width="100%" height="100%" fill="#b2f5ea" />
  
    <g>
      <g>
        <animateTransform attributeName="transform" attributeType="XML"
          type="rotate"
          from="0 355.71728954264194 263.5141311053849"
          to="360 355.71728954264194 263.5141311053849"
          dur="4.32s"
          repeatCount="indefinite"/>
        <path d="M424.50458557022773,258.10045350016355 L403.868396761952,267.3037054290398 L422.8108140500816,279.62186121144236 L400.3406709629371,281.9977408886187 L414.5494608830743,299.56653207078534 L392.44489768112345,294.8824718397327 L400.5292048774246,315.982142731787 L380.9539702184223,304.69665104368755 L382.12244637583314,327.26181884866367 L366.9927006168822,310.47959826059264 L361.13096714786326,332.30142713297073 L351.92771521898703,311.66523832469494 L339.6095594365845,330.6076556128246 L337.2336797594081,308.13751252568 L319.66488857724147,322.34630244581723 L324.3489488082941,300.2417392438664 L303.2492779162398,308.32604644016754 L314.5347696043393,288.7508117811652 L291.96960179936315,289.9192879385761 L308.7518223874342,274.78954217962513 L286.92999351505614,268.9278087106062 L307.5661823233319,259.72455678173 L288.62376503520227,247.4064009993274 L311.09390812234676,245.03052132215106 L296.8851182022096,227.4617301399844 L318.9896814041604,232.145790371037 L310.9053742078592,211.04611947898277 L330.48060886686164,222.3316111670822 L329.31213270945074,199.7664433621061 L344.44187846840174,216.5486639501771 L350.3036119374206,194.72683507779905 L359.50686386629684,215.36302388607479 L371.82501964869937,196.42060659794518 L374.20089932587575,218.89074968508973 L391.7696905080424,204.68195976495252 L387.08563027698983,226.7865229669034 L408.185301169044,218.70221577060218 L396.8998094809446,238.27745042960456 L419.4649772859207,237.1089742721937 L402.6827566978497,252.23872003114462 Z" fill="#8EC6F3" stroke="#222" stroke-width="3"/>
        <line x1="394.3572895426419" y1="263.5141311053849" x2="365.37728954264196" y2="263.5141311053849" stroke="#333" stroke-width="2"/><line x1="392.4661133322867" y1="275.45454776803285" x2="364.90449549005314" y2="266.49923527104687" stroke="#333" stroke-width="2"/><line x1="386.9777062052899" y1="286.22615325396606" x2="363.5323937083039" y2="269.19213664253016" stroke="#333" stroke-width="2"/><line x1="378.4293116912231" y1="294.77454776803285" x2="361.3952950797872" y2="271.32923527104685" stroke="#333" stroke-width="2"/><line x1="367.6577062052899" y1="300.2629548950296" x2="358.70239370830393" y2="272.7013370527961" stroke="#333" stroke-width="2"/><line x1="355.71728954264194" y1="302.15413110538486" x2="355.71728954264194" y2="273.1741311053849" stroke="#333" stroke-width="2"/><line x1="343.77687287999396" y1="300.2629548950296" x2="352.73218537697994" y2="272.7013370527961" stroke="#333" stroke-width="2"/><line x1="333.00526739406075" y1="294.77454776803285" x2="350.03928400549665" y2="271.32923527104685" stroke="#333" stroke-width="2"/><line x1="324.45687287999397" y1="286.22615325396606" x2="347.90218537697996" y2="269.19213664253016" stroke="#333" stroke-width="2"/><line x1="318.9684657529972" y1="275.45454776803285" x2="346.53008359523074" y2="266.49923527104687" stroke="#333" stroke-width="2"/><line x1="317.07728954264195" y1="263.5141311053849" x2="346.0572895426419" y2="263.5141311053849" stroke="#333" stroke-width="2"/><line x1="318.9684657529972" y1="251.5737144427369" x2="346.53008359523074" y2="260.5290269397229" stroke="#333" stroke-width="2"/><line x1="324.45687287999397" y1="240.80210895680372" x2="347.90218537697996" y2="257.8361255682396" stroke="#333" stroke-width="2"/><line x1="333.00526739406075" y1="232.2537144427369" x2="350.03928400549665" y2="255.6990269397229" stroke="#333" stroke-width="2"/><line x1="343.77687287999396" y1="226.76530731574013" x2="352.73218537697994" y2="254.3269251579737" stroke="#333" stroke-width="2"/><line x1="355.71728954264194" y1="224.8741311053849" x2="355.71728954264194" y2="253.85413110538488" stroke="#333" stroke-width="2"/><line x1="367.6577062052899" y1="226.76530731574013" x2="358.70239370830393" y2="254.3269251579737" stroke="#333" stroke-width="2"/><line x1="378.4293116912231" y1="232.2537144427369" x2="361.3952950797872" y2="255.69902693972287" stroke="#333" stroke-width="2"/><line x1="386.9777062052899" y1="240.8021089568037" x2="363.5323937083039" y2="257.8361255682396" stroke="#333" stroke-width="2"/><line x1="392.4661133322867" y1="251.5737144427369" x2="364.90449549005314" y2="260.5290269397229" stroke="#333" stroke-width="2"/><circle cx="355.71728954264194" cy="263.5141311053849" r="13.8" fill="#222"/>
      </g>
    </g>
  
    <g>
      <g>
        <animateTransform attributeName="transform" attributeType="XML"
          type="rotate"
          from="0 163.40084174883668 361.00188517915296"
          to="-360 163.40084174883668 361.00188517915296"
          dur="5.29s"
          repeatCount="indefinite"/>
        <path d="M259.5356863453709,351.5334294233174 L230.69523296641063,367.62980420823783 L255.84127818056805,389.04338500193404 L223.03635764407244,392.8777325233269 L238.07365154367707,422.2842764293611 L206.29851562398238,413.27285203554123 L208.93776652622805,446.19547931520407 L183.02989162478343,425.7101906813649 L172.86929750467223,457.1367297756872 L156.77292271975182,428.2962763967269 L135.3593419260556,453.44232161088433 L131.52499440466275,420.6374010743887 L102.11845049862853,435.6746949739934 L111.12987489244841,403.89955905429866 L78.20724761278561,406.53880995654436 L98.69253624662473,380.6309350550997 L67.26599715230248,370.47034093498854 L96.10645053126274,354.3739661500681 L70.96040531710531,332.96038535637194 L103.76532585360093,329.126037834979 L88.72803195399628,299.7194939289448 L120.50316787369101,308.7309183227647 L117.86391697144529,275.8082910431019 L143.77179187288993,296.293579676941 L153.93238599300113,264.86704058261876 L170.02876077792155,293.707493961579 L191.4423415716177,268.5614487474216 L195.27668909301065,301.3663692839172 L224.68323299904483,286.3290753843126 L215.67180860522492,318.1042113040072 L248.59443588488776,315.4649604017616 L228.10914725104863,341.37283530320616 Z" fill="#F5F5F5" stroke="#222" stroke-width="3"/>
        <line x1="217.4968417488367" y1="361.00188517915296" x2="176.92484174883668" y2="361.00188517915296" stroke="#333" stroke-width="2"/><line x1="213.37902893956726" y1="381.70352813637487" x2="175.8953885465193" y2="366.1772959184584" stroke="#333" stroke-width="2"/><line x1="201.65249018390415" y1="399.25353361422043" x2="172.96375385760356" y2="370.5647972879198" stroke="#333" stroke-width="2"/><line x1="184.1024847060586" y1="410.98007236988354" x2="168.57625248814216" y2="373.4964319768356" stroke="#333" stroke-width="2"/><line x1="163.40084174883668" y1="415.09788517915297" x2="163.40084174883668" y2="374.52588517915297" stroke="#333" stroke-width="2"/><line x1="142.69919879161478" y1="410.98007236988354" x2="158.2254310095312" y2="373.4964319768356" stroke="#333" stroke-width="2"/><line x1="125.14919331376922" y1="399.25353361422043" x2="153.83792964006983" y2="370.5647972879198" stroke="#333" stroke-width="2"/><line x1="113.42265455810612" y1="381.70352813637487" x2="150.90629495115405" y2="366.1772959184584" stroke="#333" stroke-width="2"/><line x1="109.30484174883668" y1="361.00188517915296" x2="149.87684174883668" y2="361.00188517915296" stroke="#333" stroke-width="2"/><line x1="113.4226545581061" y1="340.3002422219311" x2="150.90629495115405" y2="355.8264744398475" stroke="#333" stroke-width="2"/><line x1="125.1491933137692" y1="322.7502367440855" x2="153.8379296400698" y2="351.4389730703861" stroke="#333" stroke-width="2"/><line x1="142.6991987916148" y1="311.0236979884224" x2="158.2254310095312" y2="348.50733838147033" stroke="#333" stroke-width="2"/><line x1="163.40084174883668" y1="306.90588517915296" x2="163.40084174883668" y2="347.47788517915296" stroke="#333" stroke-width="2"/><line x1="184.1024847060586" y1="311.0236979884224" x2="168.57625248814216" y2="348.50733838147033" stroke="#333" stroke-width="2"/><line x1="201.65249018390415" y1="322.7502367440855" x2="172.96375385760354" y2="351.4389730703861" stroke="#333" stroke-width="2"/><line x1="213.37902893956726" y1="340.30024222193106" x2="175.8953885465193" y2="355.8264744398475" stroke="#333" stroke-width="2"/><circle cx="163.40084174883668" cy="361.00188517915296" r="19.32" fill="#222"/>
      </g>
    </g>
  
    <g>
      <g>
        <animateTransform attributeName="transform" attributeType="XML"
          type="rotate"
          from="0 79.18905798043059 289.7326367506672"
          to="360 79.18905798043059 289.7326367506672"
          dur="4.94s"
          repeatCount="indefinite"/>
        <path d="M202.79100103311745,277.5589079217358 L165.7104181173114,298.25424693091924 L198.04104767837094,325.7859936656714 L155.86329270287658,330.71586905031944 L175.19695628808253,368.524282643792 L134.34321010561794,356.93816556602354 L137.73653269421948,399.26725778273294 L104.42640782093355,372.92902953922544 L91.362786809362,413.3345798033541 L70.6674478001786,376.253996887548 L43.13570106542636,408.58462644860754 L38.20582568077838,366.4068714731132 L0.3974120873058382,385.74053505831915 L11.98352916507423,344.88678887585456 L-30.345563051635096,348.2801114644561 L-4.007334808127638,314.96998659117014 L-44.41288507225626,301.9063655795987 L-7.332302156450211,281.21102657041524 L-39.662931717509764,253.679279835663 L2.5148232579846024,248.74940445101498 L-16.818840327221366,210.9409908575425 L24.03490585524328,222.52710793531082 L20.641583266641646,180.19801571860154 L53.951708139927625,206.53624396210898 L67.01532915149919,166.13069369798035 L87.71066816068254,203.21127661378642 L115.24241489543478,170.88064705272686 L120.17229028008282,213.05840202822122 L157.98070387355537,193.72473844301527 L146.3945867957869,234.57848462547983 L188.72367901249626,231.18516203687827 L162.3854507689888,264.49528691016417 Z" fill="#F5F5F5" stroke="#222" stroke-width="3"/>
        
      </g>
    </g>
  
    <g>
      <g>
        <animateTransform attributeName="transform" attributeType="XML"
          type="rotate"
          from="0 156.48576220647007 59.793688999632906"
          to="-360 156.48576220647007 59.793688999632906"
          dur="5.06s"
          repeatCount="indefinite"/>
        <path d="M306.9870921630145,39.97981302062908 L261.8366931760512,73.66340218493559 L296.7306752416834,117.88503403265354 L240.78748814581672,124.48067844609956 L248.89574712999388,180.2247260558424 L197.14970372958453,157.96512812428224 L176.29963818547392,210.29501895617733 L142.6160490211674,165.14461996921403 L98.39441717344945,200.03860203484624 L91.79877276000342,144.09541493897956 L36.05472515026055,152.20367392315666 L58.31432308182073,100.45763052274737 L5.984432249925646,79.60756497863673 L51.13483123688896,45.92397581433025 L16.240849171256713,1.7023439666123537 L72.18403626712342,-4.893300446833749 L64.07577728294623,-60.63734805657657 L115.82182068335567,-38.37775012501643 L136.67188622746625,-90.70764095691152 L170.3554753917728,-45.557241969948194 L214.57710723949074,-80.45122403558042 L221.1727516529367,-24.508036939713747 L276.91679926267955,-32.61629592389093 L254.6572013311194,19.12974747651849 Z" fill="#C0C0C0" stroke="#222" stroke-width="3"/>
        
      </g>
    </g>
  
    <g>
      <g>
        <animateTransform attributeName="transform" attributeType="XML"
          type="rotate"
          from="0 405.80640696556645 43.49578726042378"
          to="360 405.80640696556645 43.49578726042378"
          dur="3.6s"
          repeatCount="indefinite"/>
        <path d="M582.9976952683342,15.431444232206363 L529.8403087775039,63.14082738017598 L565.6529774049596,124.94168291369847 L494.6048765469731,132.29425684183042 L487.25230261884116,203.34235769981697 L425.45144708531865,167.52968907236118 L377.74206393734903,220.68707556319148 L348.7942800082742,155.38838656799902 L278.9514504206998,170.35074380529042 L293.91380765799124,100.50791421771608 L228.61511866279875,71.56013028864122 L281.772505153629,23.850747140671608 L245.9598365261732,-37.95010839285082 L317.0079373841598,-45.30268232098285 L324.36051131229175,-116.35078317896941 L386.16136684581426,-80.5381145515136 L433.8707499937838,-133.69550104234395 L462.8185339228587,-68.39681204715147 L532.661363510433,-83.35916928444287 L517.6990062731417,-13.516339696868528 Z" fill="#9DE09D" stroke="#222" stroke-width="3"/>
        
      </g>
    </g>
  
  <text x="50%" y="95%" text-anchor="middle" font-size="32" fill="#fff" opacity="0.7" font-family="Arial">Gears Collection #27</text>
</svg>