<svg width="512" height="512" viewBox="0 0 512 512" xmlns="http://www.w3.org/2000/svg">
  <rect width="100%" height="100%" fill="#f5e663" />
  
    <g>
      <g>
        <animateTransform attributeName="transform" attributeType="XML"
          type="rotate"
          from="0 353.3857646352392 278.71591614726987"
          to="360 353.3857646352392 278.71591614726987"
          dur="4.82s"
          repeatCount="indefinite"/>
        <path d="M413.8639011790416,270.75381842184674 L395.72046021590086,284.2893845550661 L409.7424161184277,302.05960552154033 L387.26195226567495,304.7100291659422 L390.5202118047711,327.1104699050352 L369.7263471972285,318.1655721855018 L361.34786236066236,339.19405269107233 L347.81229622744297,321.0506117279316 L330.0420752609687,335.07256763045837 L327.39165161656683,312.5921037777056 L304.9912108774738,315.8503633168018 L313.93610859700726,295.0564987092592 L292.9076280914368,286.678013872693 L311.0510690545775,273.14244773947365 L297.0291131520507,255.37222677299943 L319.5095770048034,252.7218031285975 L316.2513174657072,230.32136238950454 L337.04518207324986,239.26626010903792 L345.423666909816,218.23777960346743 L358.9592330430354,236.38122056660816 L376.72945400950965,222.35926466408137 L379.37987765391154,244.83972851683413 L401.7803183930045,241.5814689777379 L392.8354206734711,262.37533358528054 Z" fill="#E5E4E2" stroke="#222" stroke-width="3"/>
        
      </g>
    </g>
  
    <g>
      <g>
        <animateTransform attributeName="transform" attributeType="XML"
          type="rotate"
          from="0 152.93474376786963 350.74994964539724"
          to="-360 152.93474376786963 350.74994964539724"
          dur="5.14s"
          repeatCount="indefinite"/>
        <path d="M237.60413492919304,339.6030128298048 L212.203317580796,358.5528054163119 L231.83405584433353,383.4311147693759 L200.36140645047965,387.14170787153853 L204.92296980521436,418.5023249062687 L175.8115593546547,405.9794680989219 L164.08168058346206,435.41934080672064 L145.13188799695496,410.0185234583236 L120.25357864389098,429.64926172186114 L116.54298554172831,398.17661232800725 L85.18236850699815,402.73817568274194 L97.70522531434491,373.6267652321823 L68.26535260654623,361.89688646098966 L93.66616995494326,342.94709387448256 L74.03543169140573,318.0687845214186 L105.5080810852596,314.35819141925595 L100.94651773052487,282.99757438452576 L130.05792818108458,295.5204311918725 L141.78780695227724,266.08055848407383 L160.73759953878434,291.48137583247086 L185.6159088918483,271.8506375689334 L189.32650199401093,303.3232869627872 L220.6871190287411,298.7617236080525 L208.16426222139435,327.8731340586122 Z" fill="#8EC6F3" stroke="#222" stroke-width="3"/>
        
      </g>
    </g>
  
    <g>
      <g>
        <animateTransform attributeName="transform" attributeType="XML"
          type="rotate"
          from="0 222.37010278960366 79.169487888492"
          to="360 222.37010278960366 79.169487888492"
          dur="4.88s"
          repeatCount="indefinite"/>
        <path d="M330.8182825869498,61.99298362707465 L298.28382864774596,91.19304087148414 L320.20261914548644,129.01764475989424 L276.7183299916017,133.51771509049004 L272.2182596610059,177.00200424437477 L234.39365577259582,155.08321374663427 L205.1935985281863,187.61766768583811 L187.4763929796221,147.65224933760996 L144.72977821532075,156.80981246277491 L153.8873413404857,114.06319769847357 L113.92192299225755,96.34599214990936 L146.45637693146136,67.14593490549987 L124.53758643372085,29.321331017089825 L168.02187558760562,24.821260686493964 L172.52194591820142,-18.663028467390774 L210.3465498066115,3.2557620303497146 L239.546607051021,-29.278691908854128 L257.2638125995852,10.686726439374041 L300.01042736388655,1.5291633142090717 L290.8528642387216,44.27577807851042 Z" fill="#FFD700" stroke="#222" stroke-width="3"/>
        
      </g>
    </g>
  
  <text x="50%" y="95%" text-anchor="middle" font-size="32" fill="#fff" opacity="0.7" font-family="Arial">Gears Collection #20</text>
</svg>