<svg width="512" height="512" viewBox="0 0 512 512" xmlns="http://www.w3.org/2000/svg">
  <rect width="100%" height="100%" fill="#f5e663" />
  
    <g>
      <g>
        <animateTransform attributeName="transform" attributeType="XML"
          type="rotate"
          from="0 309.5596116222504 340.4474274497081"
          to="360 309.5596116222504 340.4474274497081"
          dur="4.24s"
          repeatCount="indefinite"/>
        <path d="M373.251434129271,334.1743304686162 L354.1438873771648,344.8385953364724 L370.8037931091117,359.02564679399364 L349.0696842650567,361.56600125951275 L359.03228063746553,381.0485976361814 L337.9804307527817,375.0782957603587 L339.72900277911424,396.8903883680028 L322.5643651632503,383.318354490511 L315.83270860334227,404.1392499567287 L305.16844373548605,385.0317032046225 L290.9813922779648,401.6916089365694 L288.4410378124457,379.9575000925144 L268.95844143577705,389.92009646492323 L274.92874331159976,368.8682465802394 L253.11665070395566,370.61681860657194 L266.68868458144743,353.452180990708 L245.86778911522978,346.72052443079997 L264.97533586733596,336.05625956294375 L248.315430135389,321.8692081054225 L270.04953897944404,319.3288536399034 L260.0869426070352,299.84625726323475 L281.1387924917191,305.81655913905746 L279.3902204653865,284.00446653141336 L296.5548580812505,297.57650040890513 L303.2865146411585,276.75560494268746 L313.95077950901464,295.86315169479366 L328.13783096653594,279.2032459628467 L330.67818543205505,300.9373548069018 L350.1607818087237,290.9747584344929 L344.190479932901,312.0266083191767 L366.0025725405451,310.2780362928442 L352.4305386630533,327.4426739087081 Z" fill="#B87333" stroke="#222" stroke-width="3"/>
        
      </g>
    </g>
  
    <g>
      <g>
        <animateTransform attributeName="transform" attributeType="XML"
          type="rotate"
          from="0 167.1899301382777 364.2255584007586"
          to="-360 167.1899301382777 364.2255584007586"
          dur="5.36s"
          repeatCount="indefinite"/>
        <path d="M255.06829126240714,346.7454655481135 L228.7047829251683,376.46162339761014 L241.68960740058577,414.00465127931494 L202.03529515326716,416.3753324843742 L184.6700229909228,452.10391952488806 L154.95386514142615,425.7404111876492 L117.41083725972135,438.72523566306666 L115.04015605466206,399.07092341574804 L79.31156901414826,381.7056512534037 L105.67507735138709,351.98949340390703 L92.69025287596965,314.44646552220223 L132.34456512328822,312.07578431714296 L149.70983728563257,276.3471972766292 L179.42599513512926,302.71070561386796 L216.96902301683403,289.7258811384505 L219.33970422189333,329.38019338576913 Z" fill="#C9AE5D" stroke="#222" stroke-width="3"/>
        
      </g>
    </g>
  
    <g>
      <g>
        <animateTransform attributeName="transform" attributeType="XML"
          type="rotate"
          from="0 79.38657143867175 221.24806693416022"
          to="360 79.38657143867175 221.24806693416022"
          dur="4.19s"
          repeatCount="indefinite"/>
        <path d="M193.6010194689347,206.21144959041027 L159.33668505985582,231.77369907478518 L185.81749358397198,265.3331983426186 L143.36258479975695,270.33858856942345 L149.51588806047636,312.6423717357105 L110.2461634245926,295.7497124358704 L94.4231887824217,335.4625149644232 L68.86093929804682,301.19818055534427 L35.30144003021341,327.67898907946045 L30.296049803408515,285.2240802952454 L-12.007733362878554,291.3773835559648 L4.884925936961594,252.10765892008106 L-34.827876591591206,236.28468427791017 L-0.5635421825123217,210.72243479353529 L-27.044350706628506,177.16293552570193 L15.41055807758655,172.157545298897 L9.257254816867103,129.85376213260997 L48.526979452750936,146.74642143245006 L64.3499540949218,107.03361890389726 L89.91220357929676,141.29795331297615 L123.47170284713012,114.81714478886 L128.47709307393498,157.27205357307503 L170.78087624022203,151.1187503123556 L153.88821694038194,190.3884749482394 Z" fill="#E5E4E2" stroke="#222" stroke-width="3"/>
        
      </g>
    </g>
  
    <g>
      <g>
        <animateTransform attributeName="transform" attributeType="XML"
          type="rotate"
          from="0 78.29311394321772 126.30704472485101"
          to="-360 78.29311394321772 126.30704472485101"
          dur="3.94s"
          repeatCount="indefinite"/>
        <path d="M216.38768142399257,98.83832738498015 L174.9593111797601,145.5351468627606 L195.3640353554161,204.531333534011 L133.05011610962973,208.25668971338987 L105.76183128308858,264.40161220562584 L59.065011805308146,222.9732419613934 L0.06882513405770396,243.37796613704938 L-3.6565310453211453,181.064046891263 L-59.80145353755714,153.77576206472185 L-18.373083293324683,107.07894258694145 L-38.777807468980654,48.082755915690996 L23.536111776805647,44.35739973631219 L50.8243966033468,-11.787522755923817 L97.52121608112732,29.640847488308623 L156.51740275237768,9.236123312652595 L160.24275893175658,71.55004255843902 Z" fill="#E5E4E2" stroke="#222" stroke-width="3"/>
        
      </g>
    </g>
  
    <g>
      <g>
        <animateTransform attributeName="transform" attributeType="XML"
          type="rotate"
          from="0 413.75073833854947 49.3246397036103"
          to="360 413.75073833854947 49.3246397036103"
          dur="4.69s"
          repeatCount="indefinite"/>
        <path d="M579.637782671742,36.26904617449691 L529.8716693717843,58.46355517398968 L575.5530930927229,88.16994824923296 L521.3642262854642,93.89960590549595 L555.6300616870705,136.2684008723442 L502.3228252116411,124.9723483731101 L521.818893580692,175.85619237945548 L474.6113711566632,148.64016604757495 L477.42926148410044,203.05819391348842 L440.94245432048535,162.58628803153164 L426.8063318676629,215.2116840368028 L404.6118228681701,165.44557073684504 L374.90542979292684,211.1269944577837 L369.1757721366638,156.93812765052496 L326.8069771698156,191.20396305213126 L338.1030296690497,137.8967265767019 L287.2191856627043,157.39279494575288 L314.43521199458485,110.18527252172402 L260.0171841286714,113.00316284916127 L300.4890900106281,76.51635568554617 L247.86369400535696,62.380233232723725 L297.6298073053147,40.18572423323094 L251.94838358437607,10.479331157987588 L306.1372503916348,4.749673501724715 L271.8714149900285,-37.61912146512357 L325.17865146545785,-26.323068965889476 L305.6825830964068,-77.20691297223479 L352.8901055204358,-49.990886640354375 L350.07221519299856,-104.40891450626785 L386.55902235661364,-63.93700862431106 L400.695144809436,-116.5624046295822 L422.88965380892876,-66.79629132962445 L452.59604688417204,-112.47771505056312 L458.32570454043514,-58.28884824330436 L500.69449950728335,-92.55468364491063 L489.3984470080493,-39.247447169481276 L540.2822910143946,-58.743515538532336 L513.0662646825141,-11.535993114503398 L567.4842925484277,-14.353883441940603 L527.0123866664708,22.132923721674363 Z" fill="#E5E4E2" stroke="#222" stroke-width="3"/>
        <line x1="506.93473833854944" y1="49.3246397036103" x2="437.04673833854946" y2="49.3246397036103" stroke="#333" stroke-width="2"/><line x1="502.37398875299704" y1="78.1200793074454" x2="435.90655094216135" y2="56.523499604569075" stroke="#333" stroke-width="2"/><line x1="489.1381779423846" y1="104.09682065323211" x2="432.5975982395082" y2="63.01768494101576" stroke="#333" stroke-width="2"/><line x1="468.5229192881713" y1="124.7120793074454" x2="427.4437835759549" y2="68.17149960456908" stroke="#333" stroke-width="2"/><line x1="442.5461779423846" y1="137.9478901180579" x2="420.94959823950825" y2="71.4804523072222" stroke="#333" stroke-width="2"/><line x1="413.75073833854947" y1="142.5086397036103" x2="413.75073833854947" y2="72.6206397036103" stroke="#333" stroke-width="2"/><line x1="384.95529873471435" y1="137.9478901180579" x2="406.5518784375907" y2="71.48045230722221" stroke="#333" stroke-width="2"/><line x1="358.97855738892764" y1="124.7120793074454" x2="400.057693101144" y2="68.17149960456908" stroke="#333" stroke-width="2"/><line x1="338.36329873471436" y1="104.09682065323213" x2="394.9038784375907" y2="63.01768494101576" stroke="#333" stroke-width="2"/><line x1="325.1274879241019" y1="78.12007930744541" x2="391.5949257349376" y2="56.52349960456908" stroke="#333" stroke-width="2"/><line x1="320.5667383385495" y1="49.324639703610316" x2="390.4547383385495" y2="49.3246397036103" stroke="#333" stroke-width="2"/><line x1="325.1274879241019" y1="20.529200099775174" x2="391.5949257349376" y2="42.12577980265152" stroke="#333" stroke-width="2"/><line x1="338.36329873471436" y1="-5.447541246011504" x2="394.9038784375907" y2="35.63159446620485" stroke="#333" stroke-width="2"/><line x1="358.97855738892764" y1="-26.06279990022479" x2="400.057693101144" y2="30.47777980265153" stroke="#333" stroke-width="2"/><line x1="384.95529873471435" y1="-39.29861071083728" x2="406.5518784375907" y2="27.168827099998406" stroke="#333" stroke-width="2"/><line x1="413.75073833854947" y1="-43.859360296389696" x2="413.75073833854947" y2="26.028639703610303" stroke="#333" stroke-width="2"/><line x1="442.54617794238453" y1="-39.298610710837295" x2="420.94959823950825" y2="27.168827099998403" stroke="#333" stroke-width="2"/><line x1="468.52291928817124" y1="-26.062799900224803" x2="427.4437835759549" y2="30.477779802651526" stroke="#333" stroke-width="2"/><line x1="489.1381779423846" y1="-5.447541246011532" x2="432.5975982395082" y2="35.631594466204845" stroke="#333" stroke-width="2"/><line x1="502.37398875299704" y1="20.529200099775185" x2="435.90655094216135" y2="42.12577980265152" stroke="#333" stroke-width="2"/><circle cx="413.75073833854947" cy="49.3246397036103" r="33.28" fill="#222"/>
      </g>
    </g>
  
  <text x="50%" y="95%" text-anchor="middle" font-size="32" fill="#fff" opacity="0.7" font-family="Arial">Gears Collection #17</text>
</svg>