<svg width="512" height="512" viewBox="0 0 512 512" xmlns="http://www.w3.org/2000/svg">
  <rect width="100%" height="100%" fill="#8ec6f3" />
  
    <g>
      <g>
        <animateTransform attributeName="transform" attributeType="XML"
          type="rotate"
          from="0 354.9331566044727 270.5681338638442"
          to="360 354.9331566044727 270.5681338638442"
          dur="3.58s"
          repeatCount="indefinite"/>
        <path d="M418.38562773239653,262.2144575617609 L399.3498863940194,276.4157072753025 L414.06144668519505,295.05987353520993 L390.47538624952,297.8406458834349 L393.8938880610308,321.34274764248323 L372.0773743744287,311.9579369203498 L363.286832906556,334.02060499176804 L349.0855831930144,314.9848636533909 L330.44141693310695,329.69642394456656 L327.660644584882,306.1103635088915 L304.15854282583365,309.5288653204023 L313.54335354796706,287.7123516338002 L291.48068547654884,278.92181016592747 L310.516426814926,264.7205604523859 L295.8048665237503,246.0763941924785 L319.39092695942537,243.2956218442535 L315.9724251479146,219.79352008520516 L337.78893883451667,229.17833080733854 L346.57948030238936,207.11566273592032 L360.780730015931,226.1514040742975 L379.4248962758384,211.43984378312186 L382.2056686240634,235.02590421879685 L405.7077703831117,231.60740240728606 L396.3229596609783,253.42391609388818 Z" fill="#9DE09D" stroke="#222" stroke-width="3"/>
        
      </g>
    </g>
  
    <g>
      <g>
        <animateTransform attributeName="transform" attributeType="XML"
          type="rotate"
          from="0 155.54240072086597 353.5103622548544"
          to="-360 155.54240072086597 353.5103622548544"
          dur="5.41s"
          repeatCount="indefinite"/>
        <path d="M243.4207618449954,336.0302694022093 L217.05725350775657,365.74642725170594 L230.042077983174,403.28945513341074 L190.38776573585542,405.66013633847 L173.02249357351107,441.38872337898385 L143.30633572401442,415.025215041745 L105.76330784230962,428.01003951716245 L103.39262663725033,388.35572726984384 L67.66403959673653,370.9904551074995 L94.02754793397536,341.27429725800283 L81.04272345855792,303.73126937629803 L120.69703570587649,301.36058817123876 L138.06230786822084,265.632001130725 L167.77846571771752,291.99550946796376 L205.3214935994223,279.0106849925463 L207.6921748044816,318.66499723986493 Z" fill="#E5E4E2" stroke="#222" stroke-width="3"/>
        
      </g>
    </g>
  
    <g>
      <g>
        <animateTransform attributeName="transform" attributeType="XML"
          type="rotate"
          from="0 82.5761922814045 207.79021970197726"
          to="360 82.5761922814045 207.79021970197726"
          dur="4.08s"
          repeatCount="indefinite"/>
        <path d="M196.79064031166746,192.7536023582273 L162.52630590258858,218.31585184260223 L189.00711442670473,251.87535111043562 L146.5522056424897,256.8807413372405 L152.70550890320914,299.18452450352754 L113.43578426732535,282.2918652036874 L97.61280962515445,322.00466773224025 L72.05056014077957,287.74033332316134 L38.491060872946164,314.2211418472775 L33.485670646141266,271.7662330630625 L-8.818112520145803,277.91953632378187 L8.074546779694344,238.6498116878981 L-31.638255748858455,222.82683704572722 L2.626078660220429,197.26458756135233 L-23.854729863895756,163.705088293519 L18.6001789203193,158.69969806671403 L12.446875659599854,116.395914900427 L51.71660029548369,133.28857420026708 L67.53957493765455,93.5757716717143 L93.10182442202951,127.84010608079319 L126.66132368986287,101.35929755667705 L131.66671391666773,143.81420634089207 L173.97049708295475,137.6609030801726 L157.07783778311466,176.93062771605645 Z" fill="#9DE09D" stroke="#222" stroke-width="3"/>
        
      </g>
    </g>
  
    <g>
      <g>
        <animateTransform attributeName="transform" attributeType="XML"
          type="rotate"
          from="0 271.76930603032145 36.56588918921"
          to="-360 271.76930603032145 36.56588918921"
          dur="3.6s"
          repeatCount="indefinite"/>
        <path d="M411.8913155457668,22.765075830807863 L369.85471269113316,46.22645854009149 L406.5065053014165,77.4379717466383 L358.6914658444953,83.02675157078033 L380.6091778637948,125.88846359945128 L334.2951081174904,112.75379947264135 L338.1419665754219,160.7404032094584 L300.37976382052125,130.88192867897652 L285.5701193887236,176.68789870465534 L262.10873667943997,134.6512958500217 L230.89722347289313,171.30308846030502 L225.30844364875117,123.48804900338389 L182.4467316200802,145.4057610226834 L195.58139574689008,99.0916912763789 L147.59479201007306,102.9385497343105 L177.45326654055492,65.17634697940981 L131.64729651487613,50.366702547612164 L173.68389936950973,26.905319838328506 L137.03210675922642,-4.306193368218274 L184.84714621614756,-9.894973192360332 L162.92943419684804,-52.75668522103126 L209.24350394315258,-39.62202109422138 L205.39664548522092,-87.60862483103838 L243.1588482401216,-57.75015030055651 L257.9684926719193,-103.55612032623534 L281.42987538120286,-61.51951747160173 L312.6413885877497,-98.17131008188503 L318.2301684118918,-50.356270624963884 L361.09188044056276,-72.27398264426337 L347.9572163137528,-25.959912897958944 L395.9438200505698,-29.80677135589052 L366.0853455200879,7.9554313990100916 Z" fill="#C0C0C0" stroke="#222" stroke-width="3"/>
        
      </g>
    </g>
  
  <text x="50%" y="95%" text-anchor="middle" font-size="32" fill="#fff" opacity="0.7" font-family="Arial">Gears Collection #12</text>
</svg>