<svg width="512" height="512" viewBox="0 0 512 512" xmlns="http://www.w3.org/2000/svg">
  <rect width="100%" height="100%" fill="#f7b2ad" />
  
    <g>
      <g>
        <animateTransform attributeName="transform" attributeType="XML"
          type="rotate"
          from="0 355.3934074089532 266.9977526630603"
          to="360 355.3934074089532 266.9977526630603"
          dur="4.57s"
          repeatCount="indefinite"/>
        <path d="M420.5808378882323,256.673077970405 L401.0246087444485,274.22502494791894 L414.19983800538546,296.96112564587037 L388.0617406997717,299.6660859538788 L385.35678039176327,325.80418325949256 L362.62067969381184,312.62895399855563 L345.0687327162979,332.1851831423394 L334.4190463209861,308.1622540805629 L308.72435985064106,313.6668002213724 L314.2289059914506,287.97211375102734 L290.2059769296741,277.32242735571555 L309.76220607345783,259.7704803782016 L296.5869768125209,237.03437968025023 L322.72507411813467,234.3294193722418 L325.4300344261431,208.191322066628 L348.1661351240945,221.36655132756493 L365.7180821016084,201.81032218378118 L376.36776849692023,225.83325124555768 L402.0624549672653,220.32870510474814 L396.5579088264558,246.02339157509323 Z" fill="#FFD700" stroke="#222" stroke-width="3"/>
        
      </g>
    </g>
  
    <g>
      <g>
        <animateTransform attributeName="transform" attributeType="XML"
          type="rotate"
          from="0 192.8775522909239 380.96222067174926"
          to="-360 192.8775522909239 380.96222067174926"
          dur="5.27s"
          repeatCount="indefinite"/>
        <path d="M284.9927139278649,373.7126002264964 L257.3581654367826,386.03695498342626 L282.7245329356692,402.5325722920349 L252.6340804537539,405.71418507712326 L271.66150347724204,429.2410880515029 L242.06061014593388,422.96852043774555 L252.88655195663284,451.2237318931921 L226.67275945675146,436.11098650217195 L228.2375014414582,466.32868947579215 L207.97679842512386,443.855107123071 L200.12717273617676,473.0773823086903 L187.80281797924687,445.44283381760795 L171.30720067063825,470.8092013164946 L168.1255878855499,440.7187488345793 L144.5986849111702,459.7461718580674 L150.87125252492763,430.1452785267593 L122.61604106948104,440.97122033745825 L137.72878646050123,414.7574278375768 L107.511083486881,416.32216982228357 L129.98466583960217,396.06146680594924 L100.76239065398288,388.21184111700217 L128.39693914506518,375.8874863600723 L103.03057164617859,359.3918690514636 L133.12102412809384,356.21025626637527 L114.09360110460577,332.6833532919956 L143.6944944359139,338.955920905753 L132.86855262521487,310.7007094503065 L159.08234512509634,325.8134548413266 L157.5176031403896,295.5957518677064 L177.77830615672394,318.06933422042755 L185.62793184567096,288.84705903480824 L197.95228660260085,316.4816075258906 L214.4479039112095,291.11524002700395 L217.6295166962979,321.20569250891924 L241.15641967067756,302.17826948543114 L234.88385205692018,331.7791628167393 L263.1390635123667,320.9532210060403 L248.02631812134658,347.1670135059217 L278.2440210949668,345.602271521215 L255.7704387422456,365.86297453754923 Z" fill="#E5E4E2" stroke="#222" stroke-width="3"/>
        <line x1="244.6215522909239" y1="380.96222067174926" x2="205.8135522909239" y2="380.96222067174926" stroke="#333" stroke-width="2"/><line x1="242.0890206701003" y1="396.95199602868655" x2="205.18041938571798" y2="384.9596645109836" stroke="#333" stroke-width="2"/><line x1="234.73932764786116" y1="411.376580766371" x2="203.3429961301582" y2="388.5658106954047" stroke="#333" stroke-width="2"/><line x1="223.29191238554563" y1="422.82399602868657" x2="200.48114231457933" y2="391.42766451098356" stroke="#333" stroke-width="2"/><line x1="208.86732764786117" y1="430.1736890509257" x2="196.8749961301582" y2="393.2650877665434" stroke="#333" stroke-width="2"/><line x1="192.8775522909239" y1="432.7062206717493" x2="192.8775522909239" y2="393.89822067174924" stroke="#333" stroke-width="2"/><line x1="176.8877769339866" y1="430.1736890509257" x2="188.88010845168958" y2="393.2650877665434" stroke="#333" stroke-width="2"/><line x1="162.46319219630217" y1="422.82399602868657" x2="185.27396226726844" y2="391.42766451098356" stroke="#333" stroke-width="2"/><line x1="151.01577693398661" y1="411.376580766371" x2="182.41210845168956" y2="388.5658106954047" stroke="#333" stroke-width="2"/><line x1="143.66608391174748" y1="396.95199602868655" x2="180.5746851961298" y2="384.9596645109836" stroke="#333" stroke-width="2"/><line x1="141.1335522909239" y1="380.96222067174926" x2="179.94155229092388" y2="380.96222067174926" stroke="#333" stroke-width="2"/><line x1="143.66608391174748" y1="364.972445314812" x2="180.5746851961298" y2="376.96477683251493" stroke="#333" stroke-width="2"/><line x1="151.01577693398661" y1="350.54786057712755" x2="182.41210845168956" y2="373.3586306480938" stroke="#333" stroke-width="2"/><line x1="162.46319219630215" y1="339.10044531481196" x2="185.27396226726844" y2="370.49677683251497" stroke="#333" stroke-width="2"/><line x1="176.8877769339866" y1="331.7507522925728" x2="188.88010845168958" y2="368.65935357695514" stroke="#333" stroke-width="2"/><line x1="192.8775522909239" y1="329.21822067174924" x2="192.8775522909239" y2="368.0262206717493" stroke="#333" stroke-width="2"/><line x1="208.86732764786115" y1="331.7507522925728" x2="196.8749961301582" y2="368.65935357695514" stroke="#333" stroke-width="2"/><line x1="223.2919123855456" y1="339.10044531481196" x2="200.48114231457933" y2="370.49677683251497" stroke="#333" stroke-width="2"/><line x1="234.73932764786116" y1="350.5478605771275" x2="203.3429961301582" y2="373.3586306480938" stroke="#333" stroke-width="2"/><line x1="242.0890206701003" y1="364.972445314812" x2="205.18041938571798" y2="376.96477683251493" stroke="#333" stroke-width="2"/><circle cx="192.8775522909239" cy="380.96222067174926" r="18.48" fill="#222"/>
      </g>
    </g>
  
    <g>
      <g>
        <animateTransform attributeName="transform" attributeType="XML"
          type="rotate"
          from="0 76.002549079067 255.04205325496633"
          to="360 76.002549079067 255.04205325496633"
          dur="4.62s"
          repeatCount="indefinite"/>
        <path d="M192.51984039097078,231.8653229994503 L157.56465299739963,271.26576443382754 L174.78113902060937,321.0437969376951 L122.20376965697713,324.187066214046 L99.17927933458304,371.5593445668701 L59.778837900205794,336.604157173299 L10.00080539633825,353.8206431965087 L6.85753611998733,301.24327383287647 L-40.51474223283678,278.21878351048235 L-5.559554839265658,238.81834207610513 L-22.776040862475384,189.0403095722376 L29.801328501156817,185.8970402958867 L52.82581882355091,138.52476194306257 L92.22626025792823,173.4799493366337 L142.00429276179568,156.26346331342393 L145.14756203814665,208.84083267705623 Z" fill="#8EC6F3" stroke="#222" stroke-width="3"/>
        
      </g>
    </g>
  
    <g>
      <g>
        <animateTransform attributeName="transform" attributeType="XML"
          type="rotate"
          from="0 441.94223077377603 138.41816970776551"
          to="-360 441.94223077377603 138.41816970776551"
          dur="5.46s"
          repeatCount="indefinite"/>
        <path d="M585.9000246452533,119.46576659741402 L542.7126864838101,151.68485188501157 L576.0895388944149,193.98380408717657 L522.5786642809771,200.29268135221187 L530.3343902658423,253.61307471805287 L480.8381748393638,232.3212853922127 L460.89463388412753,282.3759635792428 L428.67554859653,239.1886254177996 L386.376596394365,272.56547782840437 L380.06771912932965,219.05460321496668 L326.7473257634887,226.81032919983173 L348.03911508932885,177.31411377335326 L297.98443690229874,157.370572818117 L341.17177506374196,125.1514875305195 L307.7949226531372,82.85253532835455 L361.30579726657487,76.54365806331916 L353.55007128170973,23.223264697478186 L403.04628670818835,44.515054023318314 L422.98982766342453,-5.539624163711778 L455.2089129510221,37.64771399773143 L497.5078651531871,4.270861587126689 L503.81674241822236,57.78173620056437 L557.1371357840634,50.02601021569923 L535.8453464582233,99.5222256421778 Z" fill="#F5F5F5" stroke="#222" stroke-width="3"/>
        
      </g>
    </g>
  
  <text x="50%" y="95%" text-anchor="middle" font-size="32" fill="#fff" opacity="0.7" font-family="Arial">Gears Collection #24</text>
</svg>