<svg width="512" height="512" viewBox="0 0 512 512" xmlns="http://www.w3.org/2000/svg">
  <rect width="100%" height="100%" fill="#f7b2ad" />
  
    <g>
      <g>
        <animateTransform attributeName="transform" attributeType="XML"
          type="rotate"
          from="0 351.547442356235 285.5073932969679"
          to="360 351.547442356235 285.5073932969679"
          dur="3.52s"
          repeatCount="indefinite"/>
        <path d="M411.03413403866364,277.6758217637648 L393.1881265339351,290.9894933702101 L406.9802143069122,308.4683992388733 L384.8682826484669,311.07537331533416 L388.07312809675824,333.108593714442 L367.6201465155688,324.31033366244196 L359.3790138894381,344.9940849793965 L346.06534228299284,327.14807747466796 L328.5864364143296,340.9401652476451 L325.97946233786877,318.8282335891998 L303.9462419387609,322.0330790374911 L312.74450199076097,301.5800974563017 L292.0607506738064,293.338964830171 L309.906758178535,280.0252932237257 L296.11467040555783,262.54638735506256 L318.22660206400315,259.93941327860165 L315.02175661571175,237.9061928794938 L335.4747381969013,246.70445293149385 L343.71587082303193,226.0207016145393 L357.0295424294772,243.86670911926785 L374.5084482981404,230.0746213462907 L377.1154223746013,252.18655300473603 L399.1486427737091,248.98170755644466 L390.3503827217091,269.43468913763417 Z" fill="#C0C0C0" stroke="#222" stroke-width="3"/>
        <line x1="385.14744235623505" y1="285.5073932969679" x2="359.947442356235" y2="285.5073932969679" stroke="#333" stroke-width="2"/><line x1="380.6458959233922" y1="302.3073932969679" x2="358.8220557480243" y2="289.7073932969679" stroke="#333" stroke-width="2"/><line x1="368.34744235623504" y1="314.60584686412506" x2="355.747442356235" y2="292.7820066887572" stroke="#333" stroke-width="2"/><line x1="351.547442356235" y1="319.1073932969679" x2="351.547442356235" y2="293.9073932969679" stroke="#333" stroke-width="2"/><line x1="334.747442356235" y1="314.60584686412506" x2="347.34744235623504" y2="292.7820066887572" stroke="#333" stroke-width="2"/><line x1="322.4489887890779" y1="302.3073932969679" x2="344.27282896444575" y2="289.7073932969679" stroke="#333" stroke-width="2"/><line x1="317.947442356235" y1="285.5073932969679" x2="343.14744235623505" y2="285.5073932969679" stroke="#333" stroke-width="2"/><line x1="322.4489887890779" y1="268.7073932969679" x2="344.27282896444575" y2="281.3073932969679" stroke="#333" stroke-width="2"/><line x1="334.747442356235" y1="256.40893972981075" x2="347.34744235623504" y2="278.23277990517863" stroke="#333" stroke-width="2"/><line x1="351.547442356235" y1="251.9073932969679" x2="351.547442356235" y2="277.1073932969679" stroke="#333" stroke-width="2"/><line x1="368.34744235623504" y1="256.40893972981075" x2="355.747442356235" y2="278.23277990517863" stroke="#333" stroke-width="2"/><line x1="380.6458959233922" y1="268.7073932969679" x2="358.8220557480243" y2="281.3073932969679" stroke="#333" stroke-width="2"/><circle cx="351.547442356235" cy="285.5073932969679" r="12" fill="#222"/>
      </g>
    </g>
  
    <g>
      <g>
        <animateTransform attributeName="transform" attributeType="XML"
          type="rotate"
          from="0 144.19434223221322 340.25850040863855"
          to="-360 144.19434223221322 340.25850040863855"
          dur="4.21s"
          repeatCount="indefinite"/>
        <path d="M227.78985927267775,332.02506062095546 L202.7112041605384,346.02190826001674 L224.57733043371877,364.64241329801337 L196.05131257589647,367.9766285340072 L209.12722031468314,393.54753627838477 L181.49666734103556,385.7115150663675 L183.79166812559703,414.3398866139004 L161.2630812547756,396.5265921496924 L152.4277820198963,423.8540174491031 L138.43093438083505,398.7753623369637 L119.81042934283838,420.6414886101441 L116.47621410684458,392.1154707523218 L90.905306362467,405.1913784911085 L98.74132757448427,377.5608255174609 L70.1129560269514,379.85582630202236 L87.92625049115934,357.32723943120095 L60.59882519174869,348.49194019632165 L85.67748030388805,334.49509255726036 L63.81135403070766,315.87458751926374 L92.33737188852994,312.5403722832699 L79.2614641497433,286.96946453889234 L106.89201712339089,294.8054857509096 L104.59701633882939,266.17711420337673 L127.12560320965082,283.9904086675847 L135.96090244453015,256.662983368174 L149.95775008359135,281.7416384803134 L168.57825512158803,259.875512207133 L171.91247035758187,288.4015300649553 L197.48337810195943,275.3256223261686 L189.64735688994213,302.95617529981615 L218.27572843747504,300.66117451525474 L200.46243397326708,323.1897613860761 Z" fill="#B87333" stroke="#222" stroke-width="3"/>
        <line x1="191.2343422322132" y1="340.25850040863855" x2="155.9543422322132" y2="340.25850040863855" stroke="#333" stroke-width="2"/><line x1="187.65363544154414" y1="358.2599290670924" x2="155.05916553454594" y2="344.758857573252" stroke="#333" stroke-width="2"/><line x1="177.45664521922842" y1="373.52080339565373" x2="152.50991797896702" y2="348.57407615539233" stroke="#333" stroke-width="2"/><line x1="162.19577089066703" y1="383.7177936179695" x2="148.69469939682668" y2="351.1233237109713" stroke="#333" stroke-width="2"/><line x1="144.19434223221322" y1="387.2985004086386" x2="144.19434223221322" y2="352.01850040863854" stroke="#333" stroke-width="2"/><line x1="126.1929135737594" y1="383.7177936179695" x2="139.69398506759975" y2="351.1233237109713" stroke="#333" stroke-width="2"/><line x1="110.93203924519803" y1="373.52080339565373" x2="135.8787664854594" y2="348.57407615539233" stroke="#333" stroke-width="2"/><line x1="100.7350490228823" y1="358.2599290670924" x2="133.3295189298805" y2="344.758857573252" stroke="#333" stroke-width="2"/><line x1="97.15434223221322" y1="340.25850040863855" x2="132.43434223221323" y2="340.25850040863855" stroke="#333" stroke-width="2"/><line x1="100.73504902288228" y1="322.25707175018476" x2="133.3295189298805" y2="335.7581432440251" stroke="#333" stroke-width="2"/><line x1="110.93203924519801" y1="306.9961974216234" x2="135.8787664854594" y2="331.9429246618848" stroke="#333" stroke-width="2"/><line x1="126.1929135737594" y1="296.7992071993076" x2="139.69398506759975" y2="329.3936771063058" stroke="#333" stroke-width="2"/><line x1="144.19434223221322" y1="293.21850040863853" x2="144.19434223221322" y2="328.49850040863856" stroke="#333" stroke-width="2"/><line x1="162.19577089066706" y1="296.7992071993076" x2="148.69469939682668" y2="329.3936771063058" stroke="#333" stroke-width="2"/><line x1="177.4566452192284" y1="306.9961974216234" x2="152.50991797896702" y2="331.9429246618848" stroke="#333" stroke-width="2"/><line x1="187.65363544154414" y1="322.25707175018476" x2="155.05916553454594" y2="335.7581432440251" stroke="#333" stroke-width="2"/><circle cx="144.19434223221322" cy="340.25850040863855" r="16.8" fill="#222"/>
      </g>
    </g>
  
    <g>
      <g>
        <animateTransform attributeName="transform" attributeType="XML"
          type="rotate"
          from="0 205.08534443857172 83.35094020220927"
          to="360 205.08534443857172 83.35094020220927"
          dur="5.15s"
          repeatCount="indefinite"/>
        <path d="M311.0101547221206,62.281185424467424 L279.23271163705596,98.09976854662857 L294.8840625672466,143.35252536832633 L247.08645405485365,146.21004289228168 L226.15509921631357,189.27575048575815 L190.33651609415244,157.49830740069348 L145.08375927245467,173.14965833088417 L142.2262417484993,125.3520498184912 L99.16053415502284,104.42069497995112 L130.9379772400875,68.60211185779 L115.28662630989683,23.349355036092227 L163.08423482228974,20.49183751213689 L184.01558966082982,-22.573870081339606 L219.83417278299103,9.203573003725054 L265.08692960468875,-6.447777926465633 L267.94444712864413,41.34983058592735 Z" fill="#F5F5F5" stroke="#222" stroke-width="3"/>
        
      </g>
    </g>
  
  <text x="50%" y="95%" text-anchor="middle" font-size="32" fill="#fff" opacity="0.7" font-family="Arial">Gears Collection #25</text>
</svg>