<svg width="512" height="512" viewBox="0 0 512 512" xmlns="http://www.w3.org/2000/svg">
  <rect width="100%" height="100%" fill="#f5e663" />
  
    <g>
      <g>
        <animateTransform attributeName="transform" attributeType="XML"
          type="rotate"
          from="0 352.88740954785743 280.755400847204"
          to="360 352.88740954785743 280.755400847204"
          dur="3.71s"
          repeatCount="indefinite"/>
        <path d="M412.37410123028604,272.9238293140009 L394.5280937255575,286.23750092044617 L408.3201814985346,303.7164067891094 L386.2082498400893,306.32338086557024 L389.41309528838065,328.3566012646781 L368.9601137071912,319.55834121267804 L360.7189810810605,340.2420925296326 L347.40530947461525,322.39608502490404 L329.92640360595203,336.1881727978812 L327.3194295294912,314.07624113943587 L305.2862091303833,317.2810865877272 L314.0844691823834,296.8281050065378 L293.4007178654288,288.5869723804071 L311.2467253701574,275.2733007739618 L297.4546375971802,257.79439490529865 L319.56656925562555,255.18742082883773 L316.36172380733416,233.15420042972988 L336.8147053885237,241.95246048172993 L345.05583801465434,221.26870916477537 L358.3695096210996,239.11471666950393 L375.84841548976283,225.3226288965268 L378.4553895662237,247.4345605549721 L400.48860996533153,244.22971510668074 L391.6903499133315,264.68269668787025 Z" fill="#FFD700" stroke="#222" stroke-width="3"/>
        <line x1="386.48740954785745" y1="280.755400847204" x2="361.2874095478574" y2="280.755400847204" stroke="#333" stroke-width="2"/><line x1="381.9858631150146" y1="297.555400847204" x2="360.1620229396467" y2="284.955400847204" stroke="#333" stroke-width="2"/><line x1="369.68740954785744" y1="309.85385441436114" x2="357.0874095478574" y2="288.03001423899326" stroke="#333" stroke-width="2"/><line x1="352.88740954785743" y1="314.355400847204" x2="352.88740954785743" y2="289.15540084720396" stroke="#333" stroke-width="2"/><line x1="336.0874095478574" y1="309.85385441436114" x2="348.68740954785744" y2="288.03001423899326" stroke="#333" stroke-width="2"/><line x1="323.7889559807003" y1="297.555400847204" x2="345.61279615606816" y2="284.955400847204" stroke="#333" stroke-width="2"/><line x1="319.2874095478574" y1="280.755400847204" x2="344.48740954785745" y2="280.755400847204" stroke="#333" stroke-width="2"/><line x1="323.7889559807003" y1="263.955400847204" x2="345.61279615606816" y2="276.555400847204" stroke="#333" stroke-width="2"/><line x1="336.0874095478574" y1="251.65694728004686" x2="348.68740954785744" y2="273.4807874554147" stroke="#333" stroke-width="2"/><line x1="352.88740954785743" y1="247.155400847204" x2="352.88740954785743" y2="272.355400847204" stroke="#333" stroke-width="2"/><line x1="369.68740954785744" y1="251.65694728004684" x2="357.0874095478574" y2="273.4807874554147" stroke="#333" stroke-width="2"/><line x1="381.9858631150146" y1="263.955400847204" x2="360.1620229396467" y2="276.555400847204" stroke="#333" stroke-width="2"/><circle cx="352.88740954785743" cy="280.755400847204" r="12" fill="#222"/>
      </g>
    </g>
  
    <g>
      <g>
        <animateTransform attributeName="transform" attributeType="XML"
          type="rotate"
          from="0 116.35417121776061 265.9520100342333"
          to="-360 116.35417121776061 265.9520100342333"
          dur="4.35s"
          repeatCount="indefinite"/>
        <path d="M198.74013477163197,249.56442298487852 L174.02434570547055,277.42332096878164 L186.19761865117442,312.6199096078799 L149.02170091931322,314.84242323762294 L132.7417582671154,348.33797358810466 L104.88286028321228,323.62218452194327 L69.68627164411402,335.7954574676471 L67.46375801437094,298.6195397357859 L33.968207663889245,282.33959708358805 L58.68399673005066,254.48069909968498 L46.51072378434681,219.2841104605867 L83.68664151620796,217.06159683084365 L99.9665841684058,183.56604648036193 L127.82548215230895,208.28183554652335 L163.02207079140717,196.10856260081948 L165.24458442115025,233.2844803326807 Z" fill="#C0C0C0" stroke="#222" stroke-width="3"/>
        
      </g>
    </g>
  
    <g>
      <g>
        <animateTransform attributeName="transform" attributeType="XML"
          type="rotate"
          from="0 172.4850051226033 96.54704257798036"
          to="360 172.4850051226033 96.54704257798036"
          dur="4.36s"
          repeatCount="indefinite"/>
        <path d="M279.56105015097484,82.45021381821479 L247.43823664246335,106.41482270981626 L272.2639946338223,137.87685327341006 L232.46251764862066,142.56940661103965 L238.2312394555451,182.22920332943374 L201.4158726094041,166.39233523583363 L186.58183388236887,203.62308760635187 L162.61722499076743,171.50027409784042 L131.1551944271736,196.32603208919932 L126.46264108954402,156.52455510399773 L86.80284437114989,162.29327691092217 L102.63971246475002,125.47791006478116 L65.40896009423177,110.64387133774594 L97.53177360274323,86.67926244614449 L72.7060156113843,55.21723188255073 L112.50749259658593,50.52467854492109 L106.73877078966144,10.864881826526982 L143.55413763580253,26.701749920127085 L158.38817636283773,-10.529002450391161 L182.35278525443923,21.59381105812031 L213.81481581803303,-3.2319469332385893 L218.50736915566256,36.56953005196299 L258.16716587405665,30.80080824503851 L242.3302977804566,67.6161750911796 Z" fill="#FFD700" stroke="#222" stroke-width="3"/>
        
      </g>
    </g>
  
  <text x="50%" y="95%" text-anchor="middle" font-size="32" fill="#fff" opacity="0.7" font-family="Arial">Gears Collection #30</text>
</svg>