<svg width="512" height="512" viewBox="0 0 512 512" xmlns="http://www.w3.org/2000/svg">
  <rect width="100%" height="100%" fill="#b2f5ea" />
  
    <g>
      <g>
        <animateTransform attributeName="transform" attributeType="XML"
          type="rotate"
          from="0 354.9500646790968 270.45284401087076"
          to="360 354.9500646790968 270.45284401087076"
          dur="4.11s"
          repeatCount="indefinite"/>
        <path d="M415.7620220368176,265.66683917147225 L397.51843482950136,273.80304739844973 L414.26462982335505,284.693011206081 L394.3997207173287,286.7934265728601 L406.9611147046964,302.32525645854366 L387.4193994102181,298.1842756745696 L394.56639562723797,316.83760791247266 L377.2607533924678,306.8605790287905 L378.29375405336725,326.80949549405926 L364.91818171574397,311.97303961185156 L359.73606951849536,331.2648013685916 L351.5998612915178,313.02121416127534 L340.70989748388655,329.76740915512903 L338.60948211710746,309.9025000491027 L323.0776522314239,322.4638940364704 L327.2186330153979,302.92217874199207 L308.5653007774949,310.069174959012 L318.54232966117706,292.76353272424177 L298.5934131959083,293.79653338514123 L313.429869078116,280.42096104751795 L294.13810732137597,275.23884885026933 L312.3816945286922,267.1026406232918 L295.6354995348385,256.21267681566053 L315.50040864086486,254.11226144888144 L302.93901465349717,238.5804315631979 L322.4807299479755,242.72141234717193 L315.33373373095554,224.0680801092689 L332.6393759657258,234.04510899295101 L331.6063753048263,214.09619252768226 L344.98194764244965,228.93264840988996 L350.1640598396982,209.64088665314995 L358.30026806667576,227.8844738604662 L369.19023187430696,211.1382788666125 L371.2906472410861,231.00318797263884 L386.8224771267697,218.44179398527115 L382.68149634279564,237.98350927974946 L401.3348285806986,230.83651306272952 L391.3577996970165,248.14215529749976 L411.3067161622853,247.1091546366003 L396.4702602800776,260.4847269742236 Z" fill="#C9AE5D" stroke="#222" stroke-width="3"/>
        <line x1="389.1100646790968" y1="270.45284401087076" x2="363.4900646790968" y2="270.45284401087076" stroke="#333" stroke-width="2"/><line x1="387.43815527573923" y1="281.00886453871897" x2="363.0720873282574" y2="273.0918491428328" stroke="#333" stroke-width="2"/><line x1="382.586085206945" y1="290.53158822918164" x2="361.8590698110588" y2="275.4725300654485" stroke="#333" stroke-width="2"/><line x1="375.02880889740766" y1="298.08886453871895" x2="359.9697507336745" y2="277.3618491428328" stroke="#333" stroke-width="2"/><line x1="365.506085206945" y1="302.9409346075132" x2="357.58906981105883" y2="278.5748666600314" stroke="#333" stroke-width="2"/><line x1="354.9500646790968" y1="304.61284401087073" x2="354.9500646790968" y2="278.9928440108708" stroke="#333" stroke-width="2"/><line x1="344.3940441512486" y1="302.9409346075132" x2="352.31105954713473" y2="278.5748666600314" stroke="#333" stroke-width="2"/><line x1="334.8713204607859" y1="298.08886453871895" x2="349.93037862451905" y2="277.3618491428328" stroke="#333" stroke-width="2"/><line x1="327.3140441512486" y1="290.53158822918164" x2="348.04105954713475" y2="275.4725300654485" stroke="#333" stroke-width="2"/><line x1="322.46197408245433" y1="281.00886453871897" x2="346.82804202993617" y2="273.0918491428328" stroke="#333" stroke-width="2"/><line x1="320.79006467909676" y1="270.45284401087076" x2="346.41006467909676" y2="270.45284401087076" stroke="#333" stroke-width="2"/><line x1="322.46197408245433" y1="259.89682348302256" x2="346.82804202993617" y2="267.8138388789087" stroke="#333" stroke-width="2"/><line x1="327.3140441512486" y1="250.3740997925599" x2="348.04105954713475" y2="265.43315795629303" stroke="#333" stroke-width="2"/><line x1="334.8713204607859" y1="242.81682348302257" x2="349.93037862451905" y2="263.54383887890873" stroke="#333" stroke-width="2"/><line x1="344.3940441512486" y1="237.9647534142283" x2="352.31105954713473" y2="262.33082136171015" stroke="#333" stroke-width="2"/><line x1="354.9500646790968" y1="236.29284401087077" x2="354.9500646790968" y2="261.91284401087074" stroke="#333" stroke-width="2"/><line x1="365.506085206945" y1="237.9647534142283" x2="357.58906981105883" y2="262.33082136171015" stroke="#333" stroke-width="2"/><line x1="375.02880889740766" y1="242.81682348302255" x2="359.9697507336745" y2="263.54383887890873" stroke="#333" stroke-width="2"/><line x1="382.586085206945" y1="250.3740997925599" x2="361.8590698110588" y2="265.43315795629303" stroke="#333" stroke-width="2"/><line x1="387.43815527573923" y1="259.89682348302256" x2="363.0720873282574" y2="267.8138388789087" stroke="#333" stroke-width="2"/><circle cx="354.9500646790968" cy="270.45284401087076" r="12.200000000000001" fill="#222"/>
      </g>
    </g>
  
    <g>
      <g>
        <animateTransform attributeName="transform" attributeType="XML"
          type="rotate"
          from="0 117.23779587369228 274.5755405307332"
          to="-360 117.23779587369228 274.5755405307332"
          dur="5.26s"
          repeatCount="indefinite"/>
        <path d="M201.90718703501568,263.42860371514075 L176.50636968661865,282.37839630164785 L196.13710795015618,307.2567056547118 L164.6644585563023,310.96729875687447 L169.226021911037,342.32791579160465 L140.11461146047733,329.80505898425787 L128.3847326892847,359.2449316920566 L109.4349401027776,333.84411434365956 L84.55663074971362,353.4748526071971 L80.84603764755096,322.0022032133432 L49.48542061282079,326.5637665680779 L62.008277420167566,297.45235611751826 L32.568404712368874,285.7224773463256 L57.9692220607659,266.7726847598185 L38.33848379722838,241.89437540675456 L69.81113319108225,238.18378230459186 L65.24956983634752,206.8231652698617 L94.36098028690724,219.34602207720846 L106.09085905809987,189.90614936940977 L125.040651644607,215.3069667178068 L149.91896099767095,195.6762284542693 L153.62955409983357,227.14887784812316 L184.99017113456375,222.58731449338842 L172.467314327217,251.69872494394812 Z" fill="#9DE09D" stroke="#222" stroke-width="3"/>
        
      </g>
    </g>
  
    <g>
      <g>
        <animateTransform attributeName="transform" attributeType="XML"
          type="rotate"
          from="0 258.3696777317531 76.01559893299745"
          to="360 258.3696777317531 76.01559893299745"
          dur="5.2s"
          repeatCount="indefinite"/>
        <path d="M366.81785752909923,58.8390946715801 L334.2834035898954,88.03915191598959 L356.20219408763586,125.86375580439969 L312.71790493375113,130.3638261349955 L308.2178346031553,173.84811528888022 L270.39323071474524,151.92932479113972 L241.19317347033572,184.46377873034356 L223.4759679217715,144.4983603821154 L180.72935315747017,153.65592350728036 L189.88691628263513,110.90930874297902 L149.92149793440697,93.19210319441481 L182.4559518736108,63.99204595000531 L160.53716137587026,26.167442061595274 L204.02145052975504,21.667371730999413 L208.52152086035085,-21.816917422885325 L246.34612474876093,0.10187307485516328 L275.5461819931704,-32.43258086434868 L293.26338754173463,7.53283748387949 L336.010002306036,-1.6247256412854796 L326.85243918087104,41.12188912301587 Z" fill="#C0C0C0" stroke="#222" stroke-width="3"/>
        
      </g>
    </g>
  
  <text x="50%" y="95%" text-anchor="middle" font-size="32" fill="#fff" opacity="0.7" font-family="Arial">Gears Collection #16</text>
</svg>