<svg width="512" height="512" viewBox="0 0 512 512" xmlns="http://www.w3.org/2000/svg">
  <rect width="100%" height="100%" fill="#8ec6f3" />
  
    <g>
      <g>
        <animateTransform attributeName="transform" attributeType="XML"
          type="rotate"
          from="0 331.37548783822945 321.7155676620763"
          to="360 331.37548783822945 321.7155676620763"
          dur="3.52s"
          repeatCount="indefinite"/>
        <path d="M397.8022935502747,312.9703127833328 L377.87425183666113,327.8372460771967 L393.2754165164857,347.3553576305373 L368.58375949788837,350.2664786825853 L372.1625035818137,374.87024146158905 L349.32334081615215,365.04551773685563 L340.1207427169729,388.1423733741216 L325.25380942310903,368.21433166050804 L305.73569786976844,383.6154963403325 L302.82457681772047,358.9238393217352 L278.2208140387167,362.5025834056606 L288.0455377634501,339.663420639999 L264.94868212618417,330.4608225408198 L284.8767238397977,315.5938892469559 L269.4755591599732,296.0757776936153 L294.1672161785705,293.1646566415673 L290.58847209464517,268.56089386256355 L313.42763486030674,278.38561758729696 L322.63023295948597,255.28876195003102 L337.4971662533499,275.2168036636446 L357.0152778066905,259.8156389838201 L359.9263988587384,284.5072960024174 L384.5301616377422,280.928551918492 L374.7054379130088,303.7677146841536 Z" fill="#C0C0C0" stroke="#222" stroke-width="3"/>
        
      </g>
    </g>
  
    <g>
      <g>
        <animateTransform attributeName="transform" attributeType="XML"
          type="rotate"
          from="0 183.58511058552713 375.8168760696492"
          to="-360 183.58511058552713 375.8168760696492"
          dur="3.71s"
          repeatCount="indefinite"/>
        <path d="M275.58276988735014,357.5174038645364 L247.98347209680324,388.6265066132282 L261.57696021950585,427.9293639268879 L220.06385208559422,430.4111708134343 L201.88458279063997,467.8145353714722 L170.77548004194819,440.2152375809253 L131.47262272828846,453.80872570362794 L128.990815841742,412.2956175697163 L91.58745128370413,394.116348274762 L119.18674907425103,363.0072455260702 L105.59326095154839,323.7043882124105 L147.10636908546002,321.2225813258641 L165.28563838041427,283.8192167678262 L196.3947411291061,311.4185145583731 L235.69759844276578,297.82502643567045 L238.17940532931226,339.3381345695821 Z" fill="#C0C0C0" stroke="#222" stroke-width="3"/>
        
      </g>
    </g>
  
    <g>
      <g>
        <animateTransform attributeName="transform" attributeType="XML"
          type="rotate"
          from="0 329.4564133636444 91.67058895088377"
          to="360 329.4564133636444 91.67058895088377"
          dur="4.7s"
          repeatCount="indefinite"/>
        <path d="M449.47569140031135,79.84972182713875 L413.46990798931125,99.94519593750528 L444.8634178529488,126.67892102777193 L403.90820649993253,131.4659014737345 L422.6814740391905,168.1784190210194 L383.01189441273937,156.92813142376602 L386.3068598248597,198.03029343129538 L353.9622458174661,172.45549209339686 L341.2772804873894,211.68986698755072 L321.1818063770229,175.68408357655062 L294.44808128675623,207.07759344018817 L289.6611008407937,166.12238208717193 L252.94858329350876,184.89564962642987 L264.1988708907621,145.22606999997873 L223.0967088832328,148.5210354120991 L248.6715102211313,116.17642140470548 L209.43713532697745,103.4914560746288 L245.44291873797755,83.39598196426226 L214.04940887433997,56.66225687399564 L255.00462022735627,51.87527642803305 L236.2313526880983,15.162758880748143 L275.9009323145495,26.41304647800149 L272.60596690242903,-14.68911552952784 L304.9505809098227,10.885685808370695 L317.6355462398994,-28.348689085783192 L337.73102035026585,7.657094325216903 L364.4647454405325,-23.736415538420644 L369.25172588649514,17.218795814595637 L405.9642434337801,-1.5544717246623065 L394.7139558365266,38.115107901788775 L435.816117844056,34.82014248966841 L410.24131650615743,67.16475649706197 Z" fill="#FFD700" stroke="#222" stroke-width="3"/>
        
      </g>
    </g>
  
  <text x="50%" y="95%" text-anchor="middle" font-size="32" fill="#fff" opacity="0.7" font-family="Arial">Gears Collection #29</text>
</svg>