<svg width="512" height="512" viewBox="0 0 512 512" xmlns="http://www.w3.org/2000/svg">
  <rect width="100%" height="100%" fill="#f5e663" />
  
    <g>
      <g>
        <animateTransform attributeName="transform" attributeType="XML"
          type="rotate"
          from="0 351.5564167096169 285.47831788990095"
          to="360 351.5564167096169 285.47831788990095"
          dur="5.1s"
          repeatCount="indefinite"/>
        <path d="M414.2530544899653,279.30323804913866 L395.44406315586076,289.80087377843455 L411.843657860746,303.7662525569321 L390.4491444673793,306.26691398392745 L400.2560752714693,325.4450947922106 L379.53316054123366,319.56807888319764 L381.2544111296547,341.0393575438473 L364.3579709765387,327.67938669569133 L357.7314965503792,348.17495567024935 L347.2338608210833,329.3659643361448 L333.26848204258573,345.7655590410301 L330.7678206155904,324.37104564766344 L311.5896398073072,334.1779764517534 L317.4666557163202,313.4550617215177 L295.99537705567053,315.1763123099388 L309.3553479038265,298.27987215682276 L288.8597789292685,291.6533977306633 L307.668770263373,281.15576200136735 L291.26917555848775,267.19038322286985 L312.66368895185445,264.68972179587445 L302.8567581477644,245.5115409875913 L323.5796728780001,251.38855689660426 L321.85842228957904,229.9172782359546 L338.75486244269507,243.27724908411054 L345.3813368688546,222.78168010955255 L355.8789725981505,241.59067144365707 L369.844351376648,225.19107673877178 L372.3450128036434,246.5855901321385 L391.52319361192656,236.77865932804852 L385.6461777029136,257.5015740582842 L407.11745636356324,255.78032346986308 L393.75748551540727,272.67676362297914 Z" fill="#E5E4E2" stroke="#222" stroke-width="3"/>
        
      </g>
    </g>
  
    <g>
      <g>
        <animateTransform attributeName="transform" attributeType="XML"
          type="rotate"
          from="0 253.40834094480473 395.9760097421755"
          to="-360 253.40834094480473 395.9760097421755"
          dur="5.14s"
          repeatCount="indefinite"/>
        <path d="M339.91360267636963,378.769043340353 L313.96202415690016,408.02088622345127 L326.7439607498892,444.9773042945044 L287.70924713143495,447.3109436057346 L270.6153073466273,482.48127147374043 L241.363464463529,456.52969295427096 L204.40704639247582,469.31162954726 L202.0734070812456,430.27691592880575 L166.90307921323983,413.182976143998 L192.85465773270928,383.9311332608998 L180.07272113972027,346.9747151898466 L219.10743475817446,344.6410758786164 L236.2013745429822,309.4707480106106 L265.45321742608047,335.42232653008006 L302.4096354971336,322.640389937091 L304.7432748083639,361.67510355554526 Z" fill="#8EC6F3" stroke="#222" stroke-width="3"/>
        
      </g>
    </g>
  
    <g>
      <g>
        <animateTransform attributeName="transform" attributeType="XML"
          type="rotate"
          from="0 106.68148926511057 356.51856719986966"
          to="360 106.68148926511057 356.51856719986966"
          dur="4.58s"
          repeatCount="indefinite"/>
        <path d="M219.11133654490067,341.71689700211584 L185.38238236096362,366.87973633829733 L211.44942825189048,399.91486843007084 L169.6578774174288,404.8420494345819 L175.7150353146995,446.4848359888957 L137.0589001262514,429.85612449061557 L121.48315946286444,468.9484144796598 L96.32032012668289,435.21946029572274 L63.285188034909396,461.2865061866496 L58.358007030398326,419.4949553521879 L16.715220476084482,425.55211324945856 L33.34393197436464,386.8959780610105 L-5.748358014679539,371.3202373976235 L27.980596169257495,346.157398061442 L1.913550278330618,313.12226596966855 L43.70510111279233,308.19508496515743 L37.64794321552162,266.5522984108436 L76.30407840396977,283.1810099091237 L91.87981906735672,244.08871992007954 L117.04265840353831,277.8176741040166 L150.07779049531177,251.75062821308975 L155.0049714998228,293.54217904755143 L196.6477580541366,287.4850211502807 L180.0190465558565,326.1411563387289 Z" fill="#C9AE5D" stroke="#222" stroke-width="3"/>
        
      </g>
    </g>
  
    <g>
      <g>
        <animateTransform attributeName="transform" attributeType="XML"
          type="rotate"
          from="0 95.89576904065706 105.11383354025665"
          to="-360 95.89576904065706 105.11383354025665"
          dur="4.93s"
          repeatCount="indefinite"/>
        <path d="M233.3100268270672,87.0229032985575 L192.08574949114416,117.77748470944606 L223.9454722467214,158.1537572660581 L172.8669101157127,164.17586738268272 L180.27010310126576,215.07260650462186 L133.02371564871808,194.7486257845017 L113.98669928235623,242.52809132666678 L83.23211787146766,201.30381399074375 L42.855845314855614,233.163536746321 L36.833735198230976,182.0849746153123 L-14.063003923708166,189.48816760086532 L6.2609767964120095,142.24178014831767 L-41.518488745753075,123.2047637819558 L-0.2942114098300408,92.45018237106727 L-32.15393416540735,52.07390981445528 L18.924627965601417,46.05179969783057 L11.521434980048326,-4.8449394241085315 L58.76782243259607,15.479041296011587 L77.8048387989579,-32.30042424615348 L108.55942020984652,8.923853089769551 L148.93569276645854,-22.9358696658077 L154.95780288308313,28.14269246520101 L205.85454200502224,20.739499479647918 L185.53056128490212,67.98588693219565 Z" fill="#8EC6F3" stroke="#222" stroke-width="3"/>
        
      </g>
    </g>
  
    <g>
      <g>
        <animateTransform attributeName="transform" attributeType="XML"
          type="rotate"
          from="0 503.41728356371027 176.0957585984661"
          to="360 503.41728356371027 176.0957585984661"
          dur="4.37s"
          repeatCount="indefinite"/>
        <path d="M664.0699124937594,144.13996385222427 L615.8741238147446,198.46481492083535 L639.6120060588672,267.09816276707693 L567.1189664817379,271.4320643450759 L535.3730783099521,336.74838752851525 L481.048227241341,288.5525988495005 L412.41487939509943,312.290481093623 L408.0809778171004,239.79744151649368 L342.7646546336611,208.05155334470788 L390.96044331267586,153.72670227609686 L367.2225610685533,85.09335442985522 L439.71560064568257,80.75945285185631 L471.4614888174684,15.443129668416958 L525.7863398860795,63.6389183474317 L594.4196877323211,39.90103610330914 L598.7535893103201,112.3940756804385 Z" fill="#9DE09D" stroke="#222" stroke-width="3"/>
        
      </g>
    </g>
  
  <text x="50%" y="95%" text-anchor="middle" font-size="32" fill="#fff" opacity="0.7" font-family="Arial">Gears Collection #14</text>
</svg>