<svg width="512" height="512" viewBox="0 0 512 512" xmlns="http://www.w3.org/2000/svg">
  <rect width="100%" height="100%" fill="#1e293b" />
  
    <g>
      <g>
        <animateTransform attributeName="transform" attributeType="XML"
          type="rotate"
          from="0 308.7888097968435 340.9313932549836"
          to="360 308.7888097968435 340.9313932549836"
          dur="3.82s"
          repeatCount="indefinite"/>
        <path d="M368.6038498208312,336.2238475113129 L350.65933781363486,344.22667527555313 L367.1310050207041,354.9381150863379 L347.59175016231757,357.0040974143174 L359.94721965808907,372.28130713794053 L340.72586035204483,368.20821128485136 L347.75569269665453,386.55575119098546 L330.73374951491337,376.7422801578555 L331.7498157387489,396.3641652056608 L318.59351507879154,381.77092991168604 L313.49635554051423,400.74643327897127 L305.49352777627405,382.801921271775 L294.7820879654892,399.2735884788442 L292.7161056375097,379.7343336204577 L277.4388959138866,392.0898031162292 L281.5119917669758,372.86844381018494 L263.16445186084167,379.89827615479464 L272.97792289397165,362.8763329730535 L253.35603784616632,363.892399196889 L267.9492731401411,350.73609853693165 L248.97376977285583,345.63893899865434 L266.91828178005215,337.63611123441416 L250.44661457298292,326.92467142362926 L269.98586943136945,324.8586890956499 L257.63039993559795,309.5814793720267 L276.8517592416422,313.65457522511593 L269.8219268970325,295.3070353189818 L286.84387007877365,305.12050635211176 L285.8278038549381,285.4986213043064 L298.9841045148955,300.0918565982812 L304.0812640531728,281.11635323099597 L312.08409181741297,299.06086523819226 L322.7955316281978,282.58919803112303 L324.8615139561773,302.12845288950956 L340.1387236798005,289.7729833937381 L336.06562782671125,308.99434269978235 L354.41316773284535,301.9645103551726 L344.59969669971537,318.98645353691376 L364.2215817475207,317.9703873130782 L349.62834645354593,331.1266879730356 Z" fill="#F5F5F5" stroke="#222" stroke-width="3"/>
        <line x1="342.38880979684353" y1="340.9313932549836" x2="317.1888097968435" y2="340.9313932549836" stroke="#333" stroke-width="2"/><line x1="340.7443087443607" y1="351.31436426598185" x2="316.7776845337228" y2="343.5271360077332" stroke="#333" stroke-width="2"/><line x1="335.97178080784175" y1="360.6809777320107" x2="315.58455254959307" y2="345.8687893742404" stroke="#333" stroke-width="2"/><line x1="328.5383942738706" y1="368.11436426598186" x2="313.7262059161003" y2="347.7271360077332" stroke="#333" stroke-width="2"/><line x1="319.17178080784174" y1="372.8868922025008" x2="311.3845525495931" y2="348.9202679918629" stroke="#333" stroke-width="2"/><line x1="308.7888097968435" y1="374.53139325498364" x2="308.7888097968435" y2="349.3313932549836" stroke="#333" stroke-width="2"/><line x1="298.4058387858453" y1="372.8868922025008" x2="306.19306704409394" y2="348.9202679918629" stroke="#333" stroke-width="2"/><line x1="289.0392253198164" y1="368.11436426598186" x2="303.8514136775867" y2="347.7271360077332" stroke="#333" stroke-width="2"/><line x1="281.60583878584526" y1="360.6809777320107" x2="301.99306704409395" y2="345.8687893742404" stroke="#333" stroke-width="2"/><line x1="276.8333108493263" y1="351.31436426598185" x2="300.79993505996424" y2="343.5271360077332" stroke="#333" stroke-width="2"/><line x1="275.1888097968435" y1="340.9313932549836" x2="300.38880979684353" y2="340.9313932549836" stroke="#333" stroke-width="2"/><line x1="276.8333108493263" y1="330.5484222439854" x2="300.79993505996424" y2="338.33565050223405" stroke="#333" stroke-width="2"/><line x1="281.60583878584526" y1="321.1818087779565" x2="301.99306704409395" y2="335.99399713572683" stroke="#333" stroke-width="2"/><line x1="289.0392253198164" y1="313.7484222439854" x2="303.8514136775867" y2="334.13565050223406" stroke="#333" stroke-width="2"/><line x1="298.4058387858453" y1="308.97589430746643" x2="306.19306704409394" y2="332.94251851810435" stroke="#333" stroke-width="2"/><line x1="308.7888097968435" y1="307.3313932549836" x2="308.7888097968435" y2="332.53139325498364" stroke="#333" stroke-width="2"/><line x1="319.17178080784174" y1="308.97589430746643" x2="311.3845525495931" y2="332.94251851810435" stroke="#333" stroke-width="2"/><line x1="328.5383942738706" y1="313.7484222439854" x2="313.7262059161003" y2="334.13565050223406" stroke="#333" stroke-width="2"/><line x1="335.97178080784175" y1="321.1818087779565" x2="315.58455254959307" y2="335.99399713572683" stroke="#333" stroke-width="2"/><line x1="340.7443087443607" y1="330.5484222439854" x2="316.7776845337228" y2="338.33565050223405" stroke="#333" stroke-width="2"/><circle cx="308.7888097968435" cy="340.9313932549836" r="12" fill="#222"/>
      </g>
    </g>
  
    <g>
      <g>
        <animateTransform attributeName="transform" attributeType="XML"
          type="rotate"
          from="0 192.827522076178 380.93693622369733"
          to="-360 192.827522076178 380.93693622369733"
          dur="4.05s"
          repeatCount="indefinite"/>
        <path d="M276.42303911664254,372.70349643601423 L251.34438400450318,386.7003440750755 L273.21051027768357,405.32084911307214 L244.68449241986127,408.655064349066 L257.76040015864794,434.22597209344354 L230.12984718500036,426.3899508814263 L232.42484796956182,455.01832242895915 L209.8962610987404,437.2050279647512 L201.0609618638611,464.53245326416186 L187.06411422479985,439.4537981520225 L168.44360918680317,461.3199244252029 L165.10939395080936,432.79390656738065 L139.5384862064318,445.86981430616726 L147.37450741844907,418.2392613325197 L118.74613587091619,420.53426211708114 L136.55943033512415,398.0056752462597 L109.23200503571348,389.1703760113804 L134.31066014785284,375.17352837231914 L112.44453387467246,356.5530233343225 L140.97055173249476,353.2188080983287 L127.8946439937081,327.6479003539511 L155.52519696735567,335.4839215659684 L153.2301961827942,306.8555500184355 L175.75878305361562,324.66884448264346 L184.59408228849495,297.3414191832328 L198.59092992755615,322.42007429537216 L217.21143496555283,300.5539480221918 L220.54565020154666,329.0799658800141 L246.11655794592423,316.00405814122746 L238.28053673390693,343.63461111487493 L266.90890828143984,341.3396103303135 L249.09561381723188,363.8681972011349 Z" fill="#B87333" stroke="#222" stroke-width="3"/>
        
      </g>
    </g>
  
    <g>
      <g>
        <animateTransform attributeName="transform" attributeType="XML"
          type="rotate"
          from="0 76.96260762781233 237.40935362696283"
          to="360 76.96260762781233 237.40935362696283"
          dur="3.94s"
          repeatCount="indefinite"/>
        <path d="M184.03865265618384,223.31252486719725 L151.9158391476724,247.27713375879873 L176.74159713903128,278.7391643223925 L136.9401201538297,283.4317176600221 L142.70884196075417,323.0915143784162 L105.89347511461312,307.2546462848161 L91.05943638757792,344.48539865533434 L67.09482749597645,312.3625851468229 L35.63279693238264,337.1883431381818 L30.940243594753056,297.3868661529802 L-8.719553123641077,303.15558795990466 L7.117314969959054,266.3402211137636 L-30.113437400559192,251.5061823867284 L2.0093761079522636,227.54157349512695 L-22.816381883406663,196.07954293153318 L16.98509510179496,191.38698959390354 L11.216373294870479,151.72719287550945 L48.03174014101157,167.56406096910956 L62.86577886804676,130.33330859859132 L86.83038775964827,162.45612210710277 L118.29241832324206,137.63036411574387 L122.9849716608716,177.43184110094546 L162.6447683792657,171.663119294021 L146.8079002856656,208.47848614016206 Z" fill="#8EC6F3" stroke="#222" stroke-width="3"/>
        <line x1="137.44260762781232" y1="237.40935362696283" x2="92.08260762781234" y2="237.40935362696283" stroke="#333" stroke-width="2"/><line x1="129.3398240486952" y1="267.6493536269628" x2="90.05691173303305" y2="244.96935362696283" stroke="#333" stroke-width="2"/><line x1="107.20260762781234" y1="289.78657004784566" x2="84.52260762781233" y2="250.50365773218354" stroke="#333" stroke-width="2"/><line x1="76.96260762781233" y1="297.8893536269628" x2="76.96260762781233" y2="252.52935362696283" stroke="#333" stroke-width="2"/><line x1="46.72260762781235" y1="289.78657004784566" x2="69.40260762781233" y2="250.50365773218354" stroke="#333" stroke-width="2"/><line x1="24.58539120692948" y1="267.6493536269628" x2="63.86830352259162" y2="244.96935362696283" stroke="#333" stroke-width="2"/><line x1="16.482607627812335" y1="237.40935362696283" x2="61.842607627812335" y2="237.40935362696283" stroke="#333" stroke-width="2"/><line x1="24.585391206929486" y1="207.16935362696282" x2="63.86830352259162" y2="229.84935362696282" stroke="#333" stroke-width="2"/><line x1="46.72260762781231" y1="185.03213720608" x2="69.40260762781233" y2="224.3150495217421" stroke="#333" stroke-width="2"/><line x1="76.96260762781232" y1="176.92935362696284" x2="76.96260762781233" y2="222.28935362696282" stroke="#333" stroke-width="2"/><line x1="107.20260762781234" y1="185.03213720608" x2="84.52260762781233" y2="224.3150495217421" stroke="#333" stroke-width="2"/><line x1="129.33982404869516" y1="207.1693536269628" x2="90.05691173303305" y2="229.84935362696282" stroke="#333" stroke-width="2"/><circle cx="76.96260762781233" cy="237.40935362696283" r="21.6" fill="#222"/>
      </g>
    </g>
  
    <g>
      <g>
        <animateTransform attributeName="transform" attributeType="XML"
          type="rotate"
          from="0 82.53983208801054 120.67974967528167"
          to="-360 82.53983208801054 120.67974967528167"
          dur="3.77s"
          repeatCount="indefinite"/>
        <path d="M213.41055378935351,103.45029230223486 L174.1493372789506,132.74036983641443 L204.4919303795004,171.1939627474735 L155.84568073092066,176.92930571568746 L162.89634071716165,225.4023905937247 L117.89978123854485,206.04621847932455 L99.76928946105737,251.55047137662464 L70.4792119268778,212.28925486622177 L32.0256190158187,242.63184796677152 L26.290276047604756,193.9855983181918 L-22.18280883043252,201.03625830443275 L-2.82663671603234,156.03969882581598 L-48.33088961333243,137.90920704832848 L-9.069673102929542,108.61912951414892 L-39.412266203479334,70.16553660308989 L9.23398344510042,64.43019363487588 L2.183323458859391,15.957108756838664 L47.17988293747627,35.313280871238774 L65.31037471496373,-10.190972026061303 L94.60045224914336,29.0702444843416 L133.0540451602024,-1.2723486162081628 L138.7893881284163,47.37390103237155 L187.26247300645355,40.32324104613052 L167.90630089205342,85.3198005247474 Z" fill="#FFD700" stroke="#222" stroke-width="3"/>
        <line x1="156.45983208801056" y1="120.67974967528167" x2="101.01983208801055" y2="120.67974967528167" stroke="#333" stroke-width="2"/><line x1="146.55642993575626" y1="157.63974967528168" x2="98.54398154994698" y2="129.91974967528168" stroke="#333" stroke-width="2"/><line x1="119.49983208801055" y1="184.69634752302738" x2="91.77983208801055" y2="136.6838991372181" stroke="#333" stroke-width="2"/><line x1="82.53983208801054" y1="194.59974967528166" x2="82.53983208801054" y2="139.15974967528166" stroke="#333" stroke-width="2"/><line x1="45.579832088010555" y1="184.69634752302738" x2="73.29983208801055" y2="136.6838991372181" stroke="#333" stroke-width="2"/><line x1="18.523234240264827" y1="157.63974967528168" x2="66.5356826260741" y2="129.91974967528168" stroke="#333" stroke-width="2"/><line x1="8.61983208801054" y1="120.67974967528168" x2="64.05983208801054" y2="120.67974967528167" stroke="#333" stroke-width="2"/><line x1="18.52323424026484" y1="83.71974967528166" x2="66.53568262607412" y2="111.43974967528166" stroke="#333" stroke-width="2"/><line x1="45.579832088010505" y1="56.66315182753597" x2="73.29983208801053" y2="104.67560021334525" stroke="#333" stroke-width="2"/><line x1="82.53983208801053" y1="46.75974967528167" x2="82.53983208801054" y2="102.19974967528167" stroke="#333" stroke-width="2"/><line x1="119.49983208801055" y1="56.66315182753597" x2="91.77983208801055" y2="104.67560021334525" stroke="#333" stroke-width="2"/><line x1="146.55642993575623" y1="83.71974967528163" x2="98.54398154994696" y2="111.43974967528166" stroke="#333" stroke-width="2"/><circle cx="82.53983208801054" cy="120.67974967528167" r="26.400000000000002" fill="#222"/>
      </g>
    </g>
  
    <g>
      <g>
        <animateTransform attributeName="transform" attributeType="XML"
          type="rotate"
          from="0 481.0796855422909 125.84956720708365"
          to="360 481.0796855422909 125.84956720708365"
          dur="3.98s"
          repeatCount="indefinite"/>
        <path d="M635.1590666751324,101.44579066080763 L588.93525233528,142.93221078947687 L620.0767033156762,196.67208516645294 L558.2957460478619,203.06562771265465 L551.9022035016602,264.84658498046906 L498.1623291246841,233.7051340000727 L456.67590899601487,279.9289483399251 L431.50392297073245,223.1474796484534 L370.7710276771895,236.15822507218508 L383.78177310092116,175.42532977864215 L327.0003044094494,150.25334375335967 L373.22411874930185,108.76692362469046 L342.0826677689055,55.02704924771443 L403.8636250367199,48.63350670151267 L410.2571675829216,-13.147450566301728 L463.9970419598977,17.99400041409463 L505.4834620885669,-28.22981392575784 L530.6554481138494,28.551654765713877 L591.3883434073923,15.540909341982214 L578.3775979836606,76.27380463552512 Z" fill="#B87333" stroke="#222" stroke-width="3"/>
        
      </g>
    </g>
  
  <text x="50%" y="95%" text-anchor="middle" font-size="32" fill="#fff" opacity="0.7" font-family="Arial">Gears Collection #26</text>
</svg>