<svg width="512" height="512" viewBox="0 0 512 512" xmlns="http://www.w3.org/2000/svg">
  <rect width="100%" height="100%" fill="#1e293b" />
  
    <g>
      <g>
        <animateTransform attributeName="transform" attributeType="XML"
          type="rotate"
          from="0 352.65618756922726 281.6433501045078"
          to="360 352.65618756922726 281.6433501045078"
          dur="3.73s"
          repeatCount="indefinite"/>
        <path d="M412.47122759321496,276.9358043608371 L394.5267155860186,284.93863212507733 L410.99838279308784,295.6500719358621 L391.4591279347013,297.7160542638416 L403.8145974304728,312.99326398746473 L384.5932381244286,308.92016813437556 L391.6230704690383,327.26770804050966 L374.6011272872971,317.4542370073797 L375.61719351113265,337.076122055185 L362.4608928511753,322.48288676121024 L357.363733312898,341.45839012849547 L349.3609055486578,323.5138781212992 L338.64946573787296,339.9855453283684 L336.58348340989346,320.4462904699819 L321.30627368627034,332.8017599657534 L325.3793695393596,313.58040065970914 L307.0318296332254,320.61023300431884 L316.8453006663554,303.5882898225777 L297.22341561855006,304.6043560464132 L311.81665091252484,291.44805538645585 L292.84114754523955,286.35089584817854 L310.7856595524359,278.34806808393836 L294.31399234536667,267.63662827315346 L313.8532472037532,265.5706459451741 L301.4977777079817,250.2934362215509 L320.71913701402593,254.3665320746401 L313.68930466941623,236.01899216850597 L330.7112478511574,245.83246320163593 L329.69518162732186,226.2105781538306 L342.8514822872792,240.8038134478054 L347.94864182555654,221.82831008052014 L355.9514695897967,239.77282208771643 L366.66290940058155,223.3011548806472 L368.72889172856105,242.8404097390338 L384.0061014521842,230.4849402432623 L379.933005599095,249.70629954930652 L398.2805455052291,242.67646720469676 L388.4670744720991,259.69841038643796 L408.08895951990445,258.6823441626024 L393.4957242259297,271.8386448225598 Z" fill="#FFD700" stroke="#222" stroke-width="3"/>
        <line x1="386.2561875692273" y1="281.6433501045078" x2="361.05618756922723" y2="281.6433501045078" stroke="#333" stroke-width="2"/><line x1="384.61168651674444" y1="292.02632111550605" x2="360.6450623061065" y2="284.2390928572574" stroke="#333" stroke-width="2"/><line x1="379.8391585802255" y1="301.3929345815349" x2="359.4519303219768" y2="286.5807462237646" stroke="#333" stroke-width="2"/><line x1="372.40577204625436" y1="308.82632111550606" x2="357.59358368848405" y2="288.4390928572574" stroke="#333" stroke-width="2"/><line x1="363.0391585802255" y1="313.598849052025" x2="355.25193032197683" y2="289.6322248413871" stroke="#333" stroke-width="2"/><line x1="352.65618756922726" y1="315.24335010450784" x2="352.65618756922726" y2="290.0433501045078" stroke="#333" stroke-width="2"/><line x1="342.273216558229" y1="313.598849052025" x2="350.0604448164777" y2="289.6322248413871" stroke="#333" stroke-width="2"/><line x1="332.90660309220016" y1="308.82632111550606" x2="347.71879144997047" y2="288.4390928572574" stroke="#333" stroke-width="2"/><line x1="325.473216558229" y1="301.3929345815349" x2="345.8604448164777" y2="286.5807462237646" stroke="#333" stroke-width="2"/><line x1="320.70068862171007" y1="292.02632111550605" x2="344.667312832348" y2="284.2390928572574" stroke="#333" stroke-width="2"/><line x1="319.05618756922723" y1="281.6433501045078" x2="344.2561875692273" y2="281.6433501045078" stroke="#333" stroke-width="2"/><line x1="320.70068862171007" y1="271.2603790935096" x2="344.667312832348" y2="279.04760735175824" stroke="#333" stroke-width="2"/><line x1="325.473216558229" y1="261.8937656274807" x2="345.8604448164777" y2="276.705953985251" stroke="#333" stroke-width="2"/><line x1="332.90660309220016" y1="254.46037909350957" x2="347.71879144997047" y2="274.84760735175826" stroke="#333" stroke-width="2"/><line x1="342.273216558229" y1="249.68785115699066" x2="350.0604448164777" y2="273.65447536762855" stroke="#333" stroke-width="2"/><line x1="352.65618756922726" y1="248.04335010450782" x2="352.65618756922726" y2="273.24335010450784" stroke="#333" stroke-width="2"/><line x1="363.0391585802255" y1="249.68785115699066" x2="355.25193032197683" y2="273.65447536762855" stroke="#333" stroke-width="2"/><line x1="372.40577204625436" y1="254.46037909350957" x2="357.59358368848405" y2="274.84760735175826" stroke="#333" stroke-width="2"/><line x1="379.8391585802255" y1="261.8937656274807" x2="359.4519303219768" y2="276.705953985251" stroke="#333" stroke-width="2"/><line x1="384.61168651674444" y1="271.2603790935096" x2="360.6450623061065" y2="279.04760735175824" stroke="#333" stroke-width="2"/><circle cx="352.65618756922726" cy="281.6433501045078" r="12" fill="#222"/>
      </g>
    </g>
  
    <g>
      <g>
        <animateTransform attributeName="transform" attributeType="XML"
          type="rotate"
          from="0 149.08796916633463 346.3870436678918"
          to="-360 149.08796916633463 346.3870436678918"
          dur="4.93s"
          repeatCount="indefinite"/>
        <path d="M232.0537897763262,333.24654860451244 L207.16404359332873,355.5853902122574 L223.93251719815754,384.52224564601374 L190.66584790010364,387.96492240166083 L187.22317114445656,421.2315916997147 L158.2863157107002,404.4631180948859 L135.94747410295523,429.3528642778834 L122.39332778164928,398.7782272901678 L89.69099954666464,405.78401328756183 L96.6967855440586,373.0816850525772 L66.12214855634306,359.5275387312712 L91.01189473934053,337.18869712352625 L74.2434211345117,308.25184168976995 L107.51009043256562,304.8091649341228 L110.95276718821269,271.5424956360689 L139.88962262196904,288.31096924089775 L162.228464229714,263.42122305790025 L175.78261055101996,293.99586004561576 L208.4849387860046,286.9900740482218 L201.47915278861066,319.69240228320643 Z" fill="#E5E4E2" stroke="#222" stroke-width="3"/>
        
      </g>
    </g>
  
    <g>
      <g>
        <animateTransform attributeName="transform" attributeType="XML"
          type="rotate"
          from="0 76.3537430263315 244.72071122141728"
          to="360 76.3537430263315 244.72071122141728"
          dur="4.64s"
          repeatCount="indefinite"/>
        <path d="M183.83369350692877,234.13486006582474 L151.58970836274958,252.13080703033205 L179.70329928541005,276.0714563648992 L143.02699061106713,280.3583045254627 L159.83887198950708,313.235185911091 L124.31387530910311,303.16030149564017 L127.26459060353923,339.9682077710396 L98.29926462676885,317.0654006027723 L86.93959418192404,352.20066170201454 L68.94364721741674,319.95667655783535 L45.00299788284956,348.07026748049583 L40.716149722286104,311.3939588061529 L7.8392683366577955,328.2058401845929 L17.914152752108585,292.6808435041889 L-18.893753523290826,295.63155879862506 L4.009053644976518,266.66623282185463 L-31.126207454265753,255.30656237700984 L1.1177776899134244,237.3106154125025 L-26.995813232747068,213.36996607793537 L9.680495441595866,209.08311791737185 L-7.1313859368441115,176.20623653174357 L28.393610743559933,186.28112094719435 L25.442895449123725,149.47321467179495 L54.40822142589414,172.3760218400623 L65.76789187073896,137.24076074082 L83.76383883524625,169.4847458849992 L107.7044881698134,141.37115496233872 L111.99133633037692,178.04746363668164 L144.86821771600523,161.2355822582417 L134.79333330055437,196.76057893864564 L171.60123957595383,193.80986364420949 L148.69843240768648,222.77518962097986 Z" fill="#8EC6F3" stroke="#222" stroke-width="3"/>
        <line x1="136.8337430263315" y1="244.72071122141728" x2="91.4737430263315" y2="244.72071122141728" stroke="#333" stroke-width="2"/><line x1="132.2299771526141" y1="267.8654052108579" x2="90.32280155790215" y2="250.50688471877743" stroke="#333" stroke-width="2"/><line x1="119.1195611524939" y1="287.4865293475797" x2="87.0451975578721" y2="255.41216575295786" stroke="#333" stroke-width="2"/><line x1="99.49843701577214" y1="300.5969453476999" x2="82.13991652369165" y2="258.68976975298796" stroke="#333" stroke-width="2"/><line x1="76.3537430263315" y1="305.2007112214173" x2="76.3537430263315" y2="259.8407112214173" stroke="#333" stroke-width="2"/><line x1="53.209049036890875" y1="300.5969453476999" x2="70.56756952897135" y2="258.68976975298796" stroke="#333" stroke-width="2"/><line x1="33.587924900169114" y1="287.4865293475797" x2="65.6622884947909" y2="255.41216575295786" stroke="#333" stroke-width="2"/><line x1="20.477508900048882" y1="267.8654052108579" x2="62.38468449476085" y2="250.50688471877743" stroke="#333" stroke-width="2"/><line x1="15.873743026331503" y1="244.72071122141728" x2="61.2337430263315" y2="244.72071122141728" stroke="#333" stroke-width="2"/><line x1="20.477508900048868" y1="221.5760172319767" x2="62.38468449476084" y2="238.93453772405712" stroke="#333" stroke-width="2"/><line x1="33.5879249001691" y1="201.95489309525487" x2="65.6622884947909" y2="234.0292566898767" stroke="#333" stroke-width="2"/><line x1="53.20904903689089" y1="188.84447709513466" x2="70.56756952897135" y2="230.75165268984662" stroke="#333" stroke-width="2"/><line x1="76.35374302633149" y1="184.24071122141729" x2="76.3537430263315" y2="229.60071122141727" stroke="#333" stroke-width="2"/><line x1="99.49843701577214" y1="188.84447709513466" x2="82.13991652369167" y2="230.75165268984662" stroke="#333" stroke-width="2"/><line x1="119.11956115249387" y1="201.95489309525487" x2="87.0451975578721" y2="234.02925668987666" stroke="#333" stroke-width="2"/><line x1="132.22997715261414" y1="221.57601723197666" x2="90.32280155790215" y2="238.93453772405712" stroke="#333" stroke-width="2"/><circle cx="76.3537430263315" cy="244.72071122141728" r="21.6" fill="#222"/>
      </g>
    </g>
  
    <g>
      <g>
        <animateTransform attributeName="transform" attributeType="XML"
          type="rotate"
          from="0 434.432201288654 127.30676185873145"
          to="-360 434.432201288654 127.30676185873145"
          dur="5.11s"
          repeatCount="indefinite"/>
        <path d="M563.8958583018805,101.55483935260253 L525.0567611979125,145.3331076130217 L544.18619011259,200.64203261731893 L485.76689081966526,204.13455403548662 L460.184123794783,256.7704188719579 L416.4058555343638,217.93132176798994 L361.0969305300665,237.0607506826674 L357.60440911189886,178.64145138974268 L304.9685442754276,153.05868436486037 L343.80764137939553,109.28041610444123 L324.67821246471806,53.97149110014395 L383.09751175764274,50.478969681976324 L408.680278782525,-2.156895154494947 L452.4585470429443,36.68220194947297 L507.7674720472415,17.55277303479545 L511.2599934654092,75.97207232772021 Z" fill="#F5F5F5" stroke="#222" stroke-width="3"/>
        
      </g>
    </g>
  
  <text x="50%" y="95%" text-anchor="middle" font-size="32" fill="#fff" opacity="0.7" font-family="Arial">Gears Collection #18</text>
</svg>