<svg width="512" height="512" viewBox="0 0 512 512" xmlns="http://www.w3.org/2000/svg">
  <rect width="100%" height="100%" fill="#f7b2ad" />
  
    <g>
      <g>
        <animateTransform attributeName="transform" attributeType="XML"
          type="rotate"
          from="0 322.25682619416614 330.9001534222465"
          to="360 322.25682619416614 330.9001534222465"
          dur="5.38s"
          repeatCount="indefinite"/>
        <path d="M382.73496273796854,322.93805569682337 L364.5915217748278,336.4736218300427 L378.61347767735464,354.24384279651696 L356.1330138246019,356.89426644091884 L359.3912733636981,379.2947071800118 L338.59740875615546,370.3498094604784 L330.2189239195893,391.3782899660489 L316.6833577863699,373.23484900290816 L298.91313681989567,387.256804905435 L296.2627131754938,364.77634105268226 L273.86227243640076,368.0346005917784 L282.8071701559342,347.2407359842358 L261.77868965036373,338.8622511476696 L279.92213061350446,325.3266850144503 L265.90017471097764,307.556464047976 L288.3806385637304,304.90604040357414 L285.12237902463414,282.50559966448117 L305.9162436321768,291.45049738401457 L314.29472846874296,270.4220168784441 L327.83029460196235,288.5654578415848 L345.6005155684366,274.543501939058 L348.2509392128385,297.0239657918107 L370.65137995193146,293.7657062527145 L361.70648223239806,314.55957086025717 Z" fill="#8EC6F3" stroke="#222" stroke-width="3"/>
        <line x1="356.4168261941661" y1="330.9001534222465" x2="330.79682619416616" y2="330.9001534222465" stroke="#333" stroke-width="2"/><line x1="351.84025398744257" y1="347.9801534222465" x2="329.6526831424852" y2="335.17015342224647" stroke="#333" stroke-width="2"/><line x1="339.3368261941661" y1="360.4835812155229" x2="326.5268261941661" y2="338.29601037056557" stroke="#333" stroke-width="2"/><line x1="322.25682619416614" y1="365.06015342224646" x2="322.25682619416614" y2="339.4401534222465" stroke="#333" stroke-width="2"/><line x1="305.17682619416615" y1="360.4835812155229" x2="317.98682619416616" y2="338.29601037056557" stroke="#333" stroke-width="2"/><line x1="292.6733984008897" y1="347.9801534222465" x2="314.86096924584706" y2="335.17015342224647" stroke="#333" stroke-width="2"/><line x1="288.09682619416617" y1="330.9001534222465" x2="313.7168261941661" y2="330.9001534222465" stroke="#333" stroke-width="2"/><line x1="292.6733984008897" y1="313.8201534222465" x2="314.86096924584706" y2="326.6301534222465" stroke="#333" stroke-width="2"/><line x1="305.1768261941661" y1="301.31672562897006" x2="317.98682619416616" y2="323.5042964739274" stroke="#333" stroke-width="2"/><line x1="322.25682619416614" y1="296.7401534222465" x2="322.25682619416614" y2="322.36015342224647" stroke="#333" stroke-width="2"/><line x1="339.3368261941661" y1="301.31672562897006" x2="326.5268261941661" y2="323.5042964739274" stroke="#333" stroke-width="2"/><line x1="351.84025398744257" y1="313.82015342224645" x2="329.6526831424852" y2="326.6301534222465" stroke="#333" stroke-width="2"/><circle cx="322.25682619416614" cy="330.9001534222465" r="12.200000000000001" fill="#222"/>
      </g>
    </g>
  
    <g>
      <g>
        <animateTransform attributeName="transform" attributeType="XML"
          type="rotate"
          from="0 165.8978801556159 363.15226548957446"
          to="-360 165.8978801556159 363.15226548957446"
          dur="4.05s"
          repeatCount="indefinite"/>
        <path d="M249.65694310205177,346.4915519893971 L224.529224218121,374.8147649396986 L236.90538504625323,410.59796338944847 L199.10986868552772,412.8575189130206 L182.55859365579326,446.9113284360103 L154.23538070549176,421.78360955207955 L118.45218225574186,434.1597703802118 L116.19262673216974,396.3642540194863 L82.13881720918002,379.8129789897518 L107.26653609311079,351.48976603945033 L94.89037526497854,315.7065675897004 L132.68589162570404,313.44701206612837 L149.2371666554385,279.3932025431386 L177.56037960574005,304.52092142706937 L213.3435780554899,292.14476059893707 L215.60313357906205,329.94027695966264 Z" fill="#8EC6F3" stroke="#222" stroke-width="3"/>
        
      </g>
    </g>
  
    <g>
      <g>
        <animateTransform attributeName="transform" attributeType="XML"
          type="rotate"
          from="0 338.9976102167086 96.27712531288665"
          to="360 338.9976102167086 96.27712531288665"
          dur="4.88s"
          repeatCount="indefinite"/>
        <path d="M447.44579001405475,79.1006210514693 L414.9113360748509,108.3006782958788 L436.8301265725914,146.1252821842889 L393.34583741870665,150.6253525148847 L388.84576708811085,194.10964166876943 L351.02116319970077,172.19085117102895 L321.8211059552912,204.72530511023277 L304.10390040672706,164.7598867620046 L261.3572856424257,173.9174498871696 L270.51484876759065,131.17083512286823 L230.5494304193625,113.45362957430402 L263.0838843585663,84.25357232989452 L241.16509386082578,46.42896844148448 L284.64938301471057,41.92889811088862 L289.14945334530637,-1.5553910429961206 L326.97405723371645,20.363399454744368 L356.17411447812594,-12.171054484459475 L373.89132002669015,27.794363863768695 L416.6379347909915,18.636800738603725 L407.48037166582657,61.38341550290507 Z" fill="#B87333" stroke="#222" stroke-width="3"/>
        
      </g>
    </g>
  
  <text x="50%" y="95%" text-anchor="middle" font-size="32" fill="#fff" opacity="0.7" font-family="Arial">Gears Collection #11</text>
</svg>