<svg width="512" height="512" viewBox="0 0 512 512" xmlns="http://www.w3.org/2000/svg">
  <rect width="100%" height="100%" fill="#1e293b" />
  
    <g>
      <g>
        <animateTransform attributeName="transform" attributeType="XML"
          type="rotate"
          from="0 344.320916353959 302.89792889240397"
          to="360 344.320916353959 302.89792889240397"
          dur="4.73s"
          repeatCount="indefinite"/>
        <path d="M411.0143154213787,289.63178699530727 L391.00629570115274,312.18422822037166 L400.8608499905321,340.67670473773694 L370.76605944569206,342.4758824380051 L357.5870582510557,369.5913279598236 L335.0346170259913,349.5833082395977 L306.542140508626,359.437862528977 L304.74296280835785,329.34307198413705 L277.6275172865393,316.16407078950067 L297.6355370067652,293.61162956443627 L287.7809827173859,265.119153047071 L317.8757732622259,263.31997534680283 L331.0547744568622,236.20452982498432 L353.6072156819267,256.2125495452102 L382.0996921992919,246.35799525583087 L383.8988698995601,276.4527858006709 Z" fill="#F5F5F5" stroke="#222" stroke-width="3"/>
        
      </g>
    </g>
  
    <g>
      <g>
        <animateTransform attributeName="transform" attributeType="XML"
          type="rotate"
          from="0 143.04284564693518 338.70841118325205"
          to="-360 143.04284564693518 338.70841118325205"
          dur="4.44s"
          repeatCount="indefinite"/>
        <path d="M237.94937581832895,331.2391052699612 L209.4774167669108,343.9369253225556 L235.61246206879397,360.93240982233425 L204.61017769348732,364.2104351160616 L224.21418929344475,388.4502745442104 L193.71629919452124,381.98762912397547 L204.87029984796865,411.099059108375 L177.862149999606,395.52835173580877 L179.47430840809173,426.66174267832656 L158.59964469429272,403.50714267855324 L150.51215156022602,433.6149413546458 L137.8143315076316,405.14298230322765 L120.81884700785301,431.2780276051109 L117.5408217141256,400.2757432298042 L93.30098228597686,419.8797548297616 L99.76362770621176,389.3818647308381 L70.65219772181226,400.53586538428556 L86.22290509437849,373.5277155359229 L55.08951415186068,375.1398739444086 L78.24411415163402,354.26521023060957 L48.13631547554141,346.1777170965429 L76.60827452695955,333.4798970439485 L50.47322922507638,316.48441254416986 L81.47551360038302,313.2063872504425 L61.87150200042561,288.96654782229376 L92.36939209934911,295.42919324252864 L81.21539144590166,266.31776325812916 L108.22354129426438,281.88847063069534 L106.61138288577865,250.75507968817755 L127.48604659957766,273.90967968795087 L135.57353973364428,243.80188101185828 L148.27135978623872,272.2738400632764 L165.26684428601732,246.13879476139323 L168.54486957974478,277.14107913669994 L192.78470900789353,257.5370675367425 L186.32206358765862,288.034957635666 L215.43349357205807,276.88095698221855 L199.8627861994919,303.8891068305812 L230.99617714200969,302.27694842209553 L207.8415771422363,323.1516121358945 Z" fill="#C9AE5D" stroke="#222" stroke-width="3"/>
        <line x1="196.35484564693516" y1="338.70841118325205" x2="156.37084564693518" y2="338.70841118325205" stroke="#333" stroke-width="2"/><line x1="193.7455706436624" y1="355.1827251873693" x2="155.71852689611697" y2="342.82698968428133" stroke="#333" stroke-width="2"/><line x1="186.17315965105237" y1="370.0444185534684" x2="153.82542414796447" y2="346.5424130258061" stroke="#333" stroke-width="2"/><line x1="174.3788530171515" y1="381.8387251873692" x2="150.87684748948925" y2="349.4909896842814" stroke="#333" stroke-width="2"/><line x1="159.51715965105237" y1="389.4111361799793" x2="147.16142414796448" y2="351.3840924324339" stroke="#333" stroke-width="2"/><line x1="143.04284564693518" y1="392.02041118325207" x2="143.04284564693518" y2="352.036411183252" stroke="#333" stroke-width="2"/><line x1="126.56853164281799" y1="389.4111361799793" x2="138.92426714590587" y2="351.3840924324339" stroke="#333" stroke-width="2"/><line x1="111.70683827671886" y1="381.8387251873692" x2="135.2088438043811" y2="349.4909896842814" stroke="#333" stroke-width="2"/><line x1="99.912531642818" y1="370.0444185534684" x2="132.26026714590589" y2="346.5424130258061" stroke="#333" stroke-width="2"/><line x1="92.34012065020796" y1="355.1827251873693" x2="130.36716439775338" y2="342.82698968428133" stroke="#333" stroke-width="2"/><line x1="89.7308456469352" y1="338.70841118325205" x2="129.71484564693517" y2="338.70841118325205" stroke="#333" stroke-width="2"/><line x1="92.34012065020796" y1="322.23409717913484" x2="130.36716439775338" y2="334.5898326822228" stroke="#333" stroke-width="2"/><line x1="99.91253164281798" y1="307.37240381303576" x2="132.26026714590589" y2="330.874409340698" stroke="#333" stroke-width="2"/><line x1="111.70683827671886" y1="295.5780971791349" x2="135.2088438043811" y2="327.92583268222273" stroke="#333" stroke-width="2"/><line x1="126.56853164281797" y1="288.0056861865248" x2="138.92426714590587" y2="326.03272993407023" stroke="#333" stroke-width="2"/><line x1="143.04284564693518" y1="285.39641118325204" x2="143.04284564693518" y2="325.3804111832521" stroke="#333" stroke-width="2"/><line x1="159.51715965105237" y1="288.0056861865248" x2="147.16142414796448" y2="326.03272993407023" stroke="#333" stroke-width="2"/><line x1="174.3788530171515" y1="295.57809717913483" x2="150.87684748948925" y2="327.92583268222273" stroke="#333" stroke-width="2"/><line x1="186.17315965105234" y1="307.3724038130357" x2="153.82542414796447" y2="330.874409340698" stroke="#333" stroke-width="2"/><line x1="193.7455706436624" y1="322.23409717913484" x2="155.71852689611697" y2="334.5898326822228" stroke="#333" stroke-width="2"/><circle cx="143.04284564693518" cy="338.70841118325205" r="19.04" fill="#222"/>
      </g>
    </g>
  
    <g>
      <g>
        <animateTransform attributeName="transform" attributeType="XML"
          type="rotate"
          from="0 76.02624214964493 252.9264865021033"
          to="360 76.02624214964493 252.9264865021033"
          dur="5.23s"
          repeatCount="indefinite"/>
        <path d="M197.3790931817993,236.950080574369 L160.973237872153,264.1099706515173 L189.10909692902644,299.7669386235903 L144.00075634579795,305.08516573957047 L150.53864106031233,350.0329353537505 L108.81455863468582,332.08448484767035 L92.00264807737926,374.2793375342577 L64.84275800023093,337.8734822246114 L29.185790028157946,366.0093412814848 L23.867562912177746,320.9010006982563 L-21.080206702002272,327.4388854127707 L-3.131756195922108,285.7148029871442 L-45.32660888250946,268.9028924298376 L-8.920753572863148,241.7430023526893 L-37.056612629736605,206.08603438061638 L8.051727953491906,200.76780726463613 L1.5138432389774863,155.82003765045613 L43.23792566460406,173.76848815653625 L60.04983622191061,131.5736354699489 L87.209726299059,167.97949077959524 L122.86669427113195,139.8436317227218 L128.1849213871121,184.95197230595028 L173.13269100129207,178.41408759143587 L155.18424049521198,220.13817001706244 Z" fill="#9DE09D" stroke="#222" stroke-width="3"/>
        
      </g>
    </g>
  
    <g>
      <g>
        <animateTransform attributeName="transform" attributeType="XML"
          type="rotate"
          from="0 385.58715561471945 78.2159481289548"
          to="-360 385.58715561471945 78.2159481289548"
          dur="5.49s"
          repeatCount="indefinite"/>
        <path d="M532.3126335630427,49.030435955342014 L488.29499017854573,98.64580665048376 L509.9750096151802,161.3292549886873 L443.76647041653223,165.28744592927734 L414.7726677883322,224.9414260772781 L365.15729709319055,180.92378269278112 L302.47384875498693,202.60380212941556 L298.5156578143969,136.39526293076756 L238.86167766639616,107.40146030256759 L282.87932105089317,57.78608960742589 L261.1993016142587,-4.897358730777711 L327.4078408129066,-8.855549671367697 L356.4016434411066,-68.50952981936848 L406.0170141362484,-24.491886434871503 L468.7004624744519,-46.17190587150601 L472.658653415042,20.036633327142063 Z" fill="#8EC6F3" stroke="#222" stroke-width="3"/>
        
      </g>
    </g>
  
  <text x="50%" y="95%" text-anchor="middle" font-size="32" fill="#fff" opacity="0.7" font-family="Arial">Gears Collection #22</text>
</svg>