<svg width="512" height="512" viewBox="0 0 512 512" xmlns="http://www.w3.org/2000/svg">
  <rect width="100%" height="100%" fill="#f0f4c3" />
  
    <g>
      <polygon points="339,256 329.49285012921644,294.5720232796328 303.14937397868596,324.30766086917345 266.0045444611918,338.3948365501385 226.56779437546956,333.60634814288943 193.8736079017986,311.039180633986 175.41182915363768,275.86320013586726 175.41182915363765,236.13679986413274 193.8736079017986,200.96081936601402 226.56779437546953,178.39365185711057 266.0045444611918,173.60516344986152 303.14937397868584,187.69233913082647 329.49285012921644,217.4279767203672" fill="none" stroke="#ffd54f" stroke-width="4" opacity="0.7">
        <animateTransform attributeName="transform" type="rotate"
          from="0 256 256" to="-360 256 256"
          dur="3.605229035560992s" repeatCount="indefinite"/>
      </polygon>
    </g>
    <g>
      <polygon points="395,256 354.2878425849301,354.2878425849301 256,395 157.7121574150699,354.2878425849301 117,256 157.71215741506987,157.7121574150699 255.99999999999997,117 354.2878425849301,157.71215741506987" fill="none" stroke="#90a4ae" stroke-width="3" opacity="0.7">
        <animateTransform attributeName="transform" type="rotate"
          from="0 256 256" to="360 256 256"
          dur="4.899406619856334s" repeatCount="indefinite"/>
      </polygon>
    </g>
    <g>
      <polygon points="419,256 357.62883770297356,383.43853164228886 219.72908776512077,414.91324968563725 109.1420745319057,326.723049476162 109.14207453190568,185.27695052383802 219.7290877651207,97.08675031436275 357.62883770297356,128.56146835771114" fill="none" stroke="#ffd54f" stroke-width="4" opacity="0.7">
        <animateTransform attributeName="transform" type="rotate"
          from="0 256 256" to="360 256 256"
          dur="3.5447427843014276s" repeatCount="indefinite"/>
      </polygon>
    </g>
    <g>
      <polygon points="457,256 381.32145017360546,413.14812797607397 211.27329227478083,451.96051034854656 74.90525755161377,343.2106315626292 74.90525755161374,168.78936843737085 211.27329227478077,60.039489651453465 381.3214501736054,98.85187202392598" fill="none" stroke="#4db6ac" stroke-width="4" opacity="0.7">
        <animateTransform attributeName="transform" type="rotate"
          from="0 256 256" to="-360 256 256"
          dur="4.763146202006989s" repeatCount="indefinite"/>
      </polygon>
    </g>
    <g>
      <polygon points="510,256 480.90583051591534,374.0396856991172 400.2884456697136,465.0379019369887 286.616316784852,508.1480540209057 165.93035869119598,493.49412564209536 65.8782699645403,424.43315519316195 9.380778373782789,316.78617872903965 9.38077837378276,195.2138212709604 65.87826996454027,87.56684480683808 165.93035869119586,18.505874357904673 286.6163167848521,3.851945979094296 400.2884456697133,46.962098063011126 480.90583051591534,137.96031430088283" fill="none" stroke="#f48fb1" stroke-width="3" opacity="0.7">
        <animateTransform attributeName="transform" type="rotate"
          from="0 256 256" to="-360 256 256"
          dur="2.7610830952829164s" repeatCount="indefinite"/>
      </polygon>
    </g>
  <text x="50%" y="95%" text-anchor="middle" font-size="32" fill="#222" opacity="0.7" font-family="Arial">Mandala #62</text>
</svg>