<svg width="512" height="512" viewBox="0 0 512 512" xmlns="http://www.w3.org/2000/svg">
  <rect width="100%" height="100%" fill="#ffebee" />
  
    <g>
      <polygon points="352,256 329.5402665394219,317.70761052990775 272.67022505602534,350.54154428917195 208.00000000000003,339.1384387633061 165.7895084045528,288.8339337592642 165.7895084045528,223.1660662407358 207.99999999999994,172.8615612366939 272.6702250560253,161.45845571082802 329.54026653942185,194.2923894700922" fill="none" stroke="#f48fb1" stroke-width="4" opacity="0.7">
        <animateTransform attributeName="transform" type="rotate"
          from="0 256 256" to="-360 256 256"
          dur="4.46082714073021s" repeatCount="indefinite"/>
      </polygon>
    </g>
    <g>
      <polygon points="384,256 366.85125168440817,320 320,366.8512516844081 256,384 192.00000000000003,366.85125168440817 145.14874831559183,320 128,256 145.14874831559183,192.00000000000003 191.99999999999994,145.1487483155919 255.99999999999997,128 320,145.14874831559186 366.8512516844081,191.99999999999994" fill="none" stroke="#4db6ac" stroke-width="4" opacity="0.7">
        <animateTransform attributeName="transform" type="rotate"
          from="0 256 256" to="-360 256 256"
          dur="3.707640629387828s" repeatCount="indefinite"/>
      </polygon>
    </g>
    <g>
      <polygon points="424,256 374.79393923934,374.79393923934 256,424 137.20606076066002,374.79393923934 88,256 137.20606076066,137.20606076066002 255.99999999999997,88 374.7939392393399,137.20606076066" fill="none" stroke="#ffd54f" stroke-width="4" opacity="0.7">
        <animateTransform attributeName="transform" type="rotate"
          from="0 256 256" to="360 256 256"
          dur="3.0179996506697604s" repeatCount="indefinite"/>
      </polygon>
    </g>
    <g>
      <polygon points="461,256 433.5352077758099,358.5 358.5,433.5352077758099 256,461 153.50000000000006,433.5352077758099 78.46479222419006,358.5 51,256 78.46479222419003,153.50000000000006 153.49999999999991,78.46479222419012 255.99999999999997,51 358.5,78.46479222419009 433.5352077758099,153.49999999999991" fill="none" stroke="#4db6ac" stroke-width="3" opacity="0.7">
        <animateTransform attributeName="transform" type="rotate"
          from="0 256 256" to="-360 256 256"
          dur="3.694636111195676s" repeatCount="indefinite"/>
      </polygon>
    </g>
    <g>
      <polygon points="509,256 468.83714380628885,392.7821268162662 361.0999982894773,486.1368948246932 219.9943459168589,506.424824795876 90.32023431184291,447.20464231162737 13.248277675532165,327.27833688088174 13.248277675532137,184.72166311911838 90.32023431184285,64.79535768837269 219.99434591685883,5.5751752041240366 361.0999982894772,25.8631051753068 468.83714380628885,119.21787318373384" fill="none" stroke="#ff8a65" stroke-width="3" opacity="0.7">
        <animateTransform attributeName="transform" type="rotate"
          from="0 256 256" to="360 256 256"
          dur="3.4464525152764995s" repeatCount="indefinite"/>
      </polygon>
    </g>
  <text x="50%" y="95%" text-anchor="middle" font-size="32" fill="#222" opacity="0.7" font-family="Arial">Mandala #46</text>
</svg>