<svg width="512" height="512" viewBox="0 0 512 512" xmlns="http://www.w3.org/2000/svg">
  <rect width="100%" height="100%" fill="#f0f4c3" />
  
    <g>
      <polygon points="347,256 325.710044323827,314.4936724814751 271.80198416769065,345.6175055241109 210.50000000000003,334.8083117443839 170.48797150848236,287.12383304263585 170.48797150848233,224.87616695736415 210.49999999999994,177.1916882556161 271.80198416769065,166.38249447588908 325.710044323827,197.5063275185249" fill="none" stroke="#f48fb1" stroke-width="3" opacity="0.7">
        <animateTransform attributeName="transform" type="rotate"
          from="0 256 256" to="-360 256 256"
          dur="2.6635365952468018s" repeatCount="indefinite"/>
      </polygon>
    </g>
    <g>
      <polygon points="390,256 372.0474041071148,323 323,372.04740410711474 256,390 189.00000000000003,372.0474041071148 139.9525958928852,323 122,256 139.9525958928852,189.00000000000006 188.99999999999994,139.95259589288526 255.99999999999997,122 323,139.95259589288523 372.04740410711474,188.99999999999994" fill="none" stroke="#f48fb1" stroke-width="4" opacity="0.7">
        <animateTransform attributeName="transform" type="rotate"
          from="0 256 256" to="360 256 256"
          dur="4.56919390962565s" repeatCount="indefinite"/>
      </polygon>
    </g>
    <g>
      <polygon points="431,256 390.0577775458212,368.48783169514434 286.38843109171285,428.3413567771364 168.50000000000006,407.55444566227675 91.55379136246606,315.8535250819921 91.55379136246603,196.14647491800798 168.49999999999994,104.44555433772325 286.38843109171273,83.65864322286359 390.0577775458211,143.51216830485558" fill="none" stroke="#90a4ae" stroke-width="3" opacity="0.7">
        <animateTransform attributeName="transform" type="rotate"
          from="0 256 256" to="-360 256 256"
          dur="3.1461629367907555s" repeatCount="indefinite"/>
      </polygon>
    </g>
    <g>
      <polygon points="457,256 381.32145017360546,413.14812797607397 211.27329227478083,451.96051034854656 74.90525755161377,343.2106315626292 74.90525755161374,168.78936843737085 211.27329227478077,60.039489651453465 381.3214501736054,98.85187202392598" fill="none" stroke="#4db6ac" stroke-width="4" opacity="0.7">
        <animateTransform attributeName="transform" type="rotate"
          from="0 256 256" to="360 256 256"
          dur="2.2454596127877426s" repeatCount="indefinite"/>
      </polygon>
    </g>
  <text x="50%" y="95%" text-anchor="middle" font-size="32" fill="#222" opacity="0.7" font-family="Arial">Mandala #35</text>
</svg>