<svg width="512" height="512" viewBox="0 0 512 512" xmlns="http://www.w3.org/2000/svg">
  <rect width="100%" height="100%" fill="#e3eaff" />
  
    <g>
      <polygon points="341,256 316.10407640085657,316.1040764008565 256,341 195.89592359914346,316.10407640085657 171,256 195.89592359914343,195.89592359914346 255.99999999999997,171 316.1040764008565,195.89592359914343" fill="none" stroke="#ff8a65" stroke-width="4" opacity="0.7">
        <animateTransform attributeName="transform" type="rotate"
          from="0 256 256" to="-360 256 256"
          dur="3.92320826018199s" repeatCount="indefinite"/>
      </polygon>
    </g>
    <g>
      <polygon points="380,256 360.31543807106647,323.0394613644941 307.5114616122339,368.79436742396024 238.35296005411266,378.73785879323566 174.79726899078466,349.712947219928 137.02287127180233,290.9348370483373 137.02287127180233,221.06516295166276 174.79726899078463,162.28705278007197 238.35296005411263,133.26214120676434 307.51146161223386,143.2056325760397 360.31543807106647,188.9605386355059" fill="none" stroke="#ff8a65" stroke-width="4" opacity="0.7">
        <animateTransform attributeName="transform" type="rotate"
          from="0 256 256" to="360 256 256"
          dur="3.7454504744740005s" repeatCount="indefinite"/>
      </polygon>
    </g>
    <g>
      <polygon points="417,256 391.44181878582015,343.04317161035124 322.8818170933037,402.45075125207745 233.0873110380011,415.36125214283015 150.56742183480912,377.6756814710356 101.52163124806592,301.35894165147016 101.52163124806592,210.64105834852987 150.56742183480907,134.32431852896445 233.08731103800108,96.63874785716985 322.88181709330365,109.54924874792252 391.44181878582015,168.95682838964882" fill="none" stroke="#4db6ac" stroke-width="4" opacity="0.7">
        <animateTransform attributeName="transform" type="rotate"
          from="0 256 256" to="-360 256 256"
          dur="3.950660247128325s" repeatCount="indefinite"/>
      </polygon>
    </g>
    <g>
      <polygon points="474,256 444.79353802500765,365 365,444.7935380250076 256,474 147.00000000000006,444.79353802500765 67.20646197499235,365 38,256 67.20646197499235,147.00000000000006 146.9999999999999,67.20646197499241 255.99999999999997,38 365,67.20646197499238 444.7935380250076,146.9999999999999" fill="none" stroke="#90a4ae" stroke-width="3" opacity="0.7">
        <animateTransform attributeName="transform" type="rotate"
          from="0 256 256" to="-360 256 256"
          dur="4.72083214858424s" repeatCount="indefinite"/>
      </polygon>
    </g>
    <g>
      <polygon points="514,256 438.43354954612926,438.43354954612926 256,514 73.56645045387074,438.43354954612926 -2,256.00000000000006 73.56645045387069,73.56645045387074 255.99999999999994,-2 438.43354954612926,73.56645045387069" fill="none" stroke="#f48fb1" stroke-width="4" opacity="0.7">
        <animateTransform attributeName="transform" type="rotate"
          from="0 256 256" to="360 256 256"
          dur="3.2446152325598434s" repeatCount="indefinite"/>
      </polygon>
    </g>
  <text x="50%" y="95%" text-anchor="middle" font-size="32" fill="#222" opacity="0.7" font-family="Arial">Mandala #85</text>
</svg>