<svg width="512" height="512" viewBox="0 0 512 512" xmlns="http://www.w3.org/2000/svg">
  <rect width="100%" height="100%" fill="#fff7e6" />
  
    <g>
      <polygon points="346,256 328.8115294937453,308.90067270632255 283.8115294937453,341.5950864665638 228.18847050625473,341.5950864665638 183.18847050625476,308.9006727063226 166,256 183.18847050625473,203.09932729367742 228.18847050625473,170.40491353343617 283.81152949374524,170.40491353343617 328.81152949374524,203.0993272936774" fill="none" stroke="#f48fb1" stroke-width="4" opacity="0.7">
        <animateTransform attributeName="transform" type="rotate"
          from="0 256 256" to="360 256 256"
          dur="3.7456458049334183s" repeatCount="indefinite"/>
      </polygon>
    </g>
    <g>
      <polygon points="384,256 354.05368871922917,338.276814039877 278.2269667413671,382.05539238556264 192.00000000000003,366.85125168440817 135.71934453940372,299.7785783456856 135.71934453940372,212.2214216543144 191.99999999999994,145.1487483155919 278.22696674136705,129.94460761443736 354.05368871922917,173.72318596012292" fill="none" stroke="#ba68c8" stroke-width="3" opacity="0.7">
        <animateTransform attributeName="transform" type="rotate"
          from="0 256 256" to="360 256 256"
          dur="3.0701689884153947s" repeatCount="indefinite"/>
      </polygon>
    </g>
    <g>
      <polygon points="434,256 392.3559108751781,370.416194524204 286.9093756247136,431.295780036173 167.00000000000006,410.1525218736301 88.73471350010831,316.8795855119691 88.73471350010831,195.12041448803097 166.99999999999991,101.84747812636994 286.90937562471356,80.70421996382694 392.35591087517804,141.58380547579594" fill="none" stroke="#ff8a65" stroke-width="3" opacity="0.7">
        <animateTransform attributeName="transform" type="rotate"
          from="0 256 256" to="-360 256 256"
          dur="3.8438896795157538s" repeatCount="indefinite"/>
      </polygon>
    </g>
  <text x="50%" y="95%" text-anchor="middle" font-size="32" fill="#222" opacity="0.7" font-family="Arial">Mandala #58</text>
</svg>