<svg width="512" height="512" viewBox="0 0 512 512" xmlns="http://www.w3.org/2000/svg">
  <rect width="100%" height="100%" fill="#fff7e6" />
  
    <g>
      <polygon points="350,256 339.23286641140174,299.6839781721142 309.39808619272867,333.3604833940037 267.33044794400035,349.31463416521706 222.66714061800167,343.891526812429 185.63998967191648,318.33352987463473 164.7314691619511,278.4956724430304 164.7314691619511,233.5043275569696 185.63998967191648,193.66647012536527 222.6671406180016,168.108473187571 267.33044794400035,162.68536583478294 309.39808619272856,178.63951660599622 339.23286641140174,212.31602182788578" fill="none" stroke="#f48fb1" stroke-width="4" opacity="0.7">
        <animateTransform attributeName="transform" type="rotate"
          from="0 256 256" to="-360 256 256"
          dur="4.042487044474039s" repeatCount="indefinite"/>
      </polygon>
    </g>
    <g>
      <polygon points="380,256 356.3181073024935,328.8853712842667 294.3181073024935,373.93100802059905 217.68189269750653,373.93100802059905 155.68189269750653,328.8853712842667 132,256 155.6818926975065,183.11462871573335 217.6818926975065,138.06899197940095 294.31810730249344,138.06899197940095 356.31810730249344,183.11462871573332" fill="none" stroke="#ba68c8" stroke-width="3" opacity="0.7">
        <animateTransform attributeName="transform" type="rotate"
          from="0 256 256" to="360 256 256"
          dur="2.9216648311163698s" repeatCount="indefinite"/>
      </polygon>
    </g>
    <g>
      <polygon points="432,256 408.4204710660612,344 344,408.42047106606117 256,432 168.00000000000006,408.4204710660612 103.57952893393878,344 80,256 103.57952893393878,168.00000000000006 167.99999999999991,103.57952893393883 255.99999999999997,80 344,103.5795289339388 408.42047106606117,167.99999999999991" fill="none" stroke="#ba68c8" stroke-width="3" opacity="0.7">
        <animateTransform attributeName="transform" type="rotate"
          from="0 256 256" to="360 256 256"
          dur="2.3173143868350325s" repeatCount="indefinite"/>
      </polygon>
    </g>
  <text x="50%" y="95%" text-anchor="middle" font-size="32" fill="#222" opacity="0.7" font-family="Arial">Mandala #91</text>
</svg>