<svg width="512" height="512" viewBox="0 0 512 512" xmlns="http://www.w3.org/2000/svg">
  <rect width="100%" height="100%" fill="#f0f4c3" />
  
    <g>
      <polygon points="354,256 338.4428462174558,308.98280011064855 296.71067127418485,345.1439355447428 242.05314584921808,353.0025013043314 191.82364807336205,330.0634582867173 161.96968858577924,283.6097905704601 161.96968858577924,228.3902094295399 191.82364807336205,181.9365417132827 242.05314584921805,158.99749869566858 296.71067127418485,166.85606445525718 338.4428462174558,203.01719988935145" fill="none" stroke="#ffd54f" stroke-width="3" opacity="0.7">
        <animateTransform attributeName="transform" type="rotate"
          from="0 256 256" to="-360 256 256"
          dur="4.660796783356856s" repeatCount="indefinite"/>
      </polygon>
    </g>
    <g>
      <polygon points="395,256 354.2878425849301,354.2878425849301 256,395 157.7121574150699,354.2878425849301 117,256 157.71215741506987,157.7121574150699 255.99999999999997,117 354.2878425849301,157.71215741506987" fill="none" stroke="#f48fb1" stroke-width="4" opacity="0.7">
        <animateTransform attributeName="transform" type="rotate"
          from="0 256 256" to="360 256 256"
          dur="3.8481326274540466s" repeatCount="indefinite"/>
      </polygon>
    </g>
    <g>
      <polygon points="431,256 410.95480448931175,337.3265551076595 355.41133067795226,400.02217653138985 277.0939190446815,429.7240529671594 193.94414476755628,419.6278424699476 125.01061907005729,372.0464651921392 86.0851819504409,297.88024125032257 86.08518195044087,214.11975874967746 125.01061907005726,139.95353480786088 193.94414476755622,92.37215753005242 277.09391904468157,82.27594703284055 355.4113306779521,111.97782346861001 410.95480448931175,174.6734448923405" fill="none" stroke="#ba68c8" stroke-width="4" opacity="0.7">
        <animateTransform attributeName="transform" type="rotate"
          from="0 256 256" to="360 256 256"
          dur="3.208655507871449s" repeatCount="indefinite"/>
      </polygon>
    </g>
    <g>
      <polygon points="460,256 427.61572069756096,366.2907267609419 340.7446626523848,441.56492705232176 226.96777299224985,457.9235741437103 122.40841027516186,410.1729131682687 60.263433382642546,313.47344159565165 60.26343338264252,198.5265584043484 122.40841027516183,101.82708683173132 226.96777299224982,54.076425856289745 340.74466265238476,70.43507294767821 427.61572069756096,145.70927323905812" fill="none" stroke="#90a4ae" stroke-width="3" opacity="0.7">
        <animateTransform attributeName="transform" type="rotate"
          from="0 256 256" to="360 256 256"
          dur="3.6964364200094115s" repeatCount="indefinite"/>
      </polygon>
    </g>
    <g>
      <polygon points="497,256 440.6167107916737,410.91181393445595 297.84921081773024,493.33866847594214 135.50000000000006,464.7121223120497 29.534078390596108,338.4268545414862 29.53407839059608,173.57314545851386 135.4999999999999,47.28787768795033 297.8492108177301,18.66133152405783 440.61671079167365,101.08818606554397" fill="none" stroke="#ffd54f" stroke-width="4" opacity="0.7">
        <animateTransform attributeName="transform" type="rotate"
          from="0 256 256" to="360 256 256"
          dur="2.4774190824550804s" repeatCount="indefinite"/>
      </polygon>
    </g>
  <text x="50%" y="95%" text-anchor="middle" font-size="32" fill="#222" opacity="0.7" font-family="Arial">Mandala #56</text>
</svg>