<svg width="512" height="512" viewBox="0 0 512 512" xmlns="http://www.w3.org/2000/svg">
  <rect width="100%" height="100%" fill="#f0f4c3" />
  
    <g>
      <polygon points="352,256 341.00377846270817,300.6134245162018 310.534215686191,335.00645112579105 267.571521304511,351.3000519134132 221.95793084391659,345.7615592977998 184.14296817557428,319.65977519111635 162.789585527099,278.97430377160555 162.789585527099,233.02569622839448 184.14296817557428,192.34022480888368 221.95793084391656,166.2384407022002 267.571521304511,160.6999480865868 310.53421568619086,176.99354887420893 341.00377846270817,211.38657548379823" fill="none" stroke="#90a4ae" stroke-width="3" opacity="0.7">
        <animateTransform attributeName="transform" type="rotate"
          from="0 256 256" to="360 256 256"
          dur="2.841505926198867s" repeatCount="indefinite"/>
      </polygon>
    </g>
    <g>
      <polygon points="381,256 351.75555538987226,336.3484512108174 277.7060222083663,379.100969126526 193.50000000000003,364.25317547305485 138.53842240176147,298.7525179157086 138.53842240176147,213.24748208429142 193.49999999999994,147.7468245269452 277.7060222083662,132.89903087347398 351.75555538987226,175.65154878918256" fill="none" stroke="#ff8a65" stroke-width="3" opacity="0.7">
        <animateTransform attributeName="transform" type="rotate"
          from="0 256 256" to="-360 256 256"
          dur="2.9713408943883732s" repeatCount="indefinite"/>
      </polygon>
    </g>
    <g>
      <polygon points="423,256 396.4893399828072,346.2870165150848 325.374307171315,407.90854322420455 232.2334220083614,421.3001807941158 146.6382574311374,382.21017891716116 95.76467340637893,303.04933699251876 95.76467340637893,208.9506630074813 146.6382574311374,129.7898210828389 232.23342200836137,90.69981920588424 325.37430717131497,104.0914567757954 396.4893399828072,165.71298348491524" fill="none" stroke="#4db6ac" stroke-width="3" opacity="0.7">
        <animateTransform attributeName="transform" type="rotate"
          from="0 256 256" to="360 256 256"
          dur="3.400530589878076s" repeatCount="indefinite"/>
      </polygon>
    </g>
    <g>
      <polygon points="463,256 402.3711037056154,402.3711037056153 256,463 109.62889629438467,402.3711037056154 49,256 109.62889629438462,109.62889629438467 255.99999999999997,49 402.37110370561527,109.62889629438462" fill="none" stroke="#ba68c8" stroke-width="3" opacity="0.7">
        <animateTransform attributeName="transform" type="rotate"
          from="0 256 256" to="360 256 256"
          dur="3.1977763601094367s" repeatCount="indefinite"/>
      </polygon>
    </g>
    <g>
      <polygon points="510,256 469.67839733912,393.3227676337218 361.51541330247915,487.0465268200477 219.8520310785856,507.4146462377569 89.66537357789761,447.9603918859816 12.288784701917677,327.56006943772314 12.288784701917649,184.4399305622769 89.66537357789755,64.03960811401842 219.85203107858555,4.585353762243102 361.51541330247903,24.953473179952283 469.67839733912,118.67723236627825" fill="none" stroke="#f48fb1" stroke-width="4" opacity="0.7">
        <animateTransform attributeName="transform" type="rotate"
          from="0 256 256" to="360 256 256"
          dur="2.10315569182999s" repeatCount="indefinite"/>
      </polygon>
    </g>
  <text x="50%" y="95%" text-anchor="middle" font-size="32" fill="#222" opacity="0.7" font-family="Arial">Mandala #87</text>
</svg>