<svg width="512" height="512" viewBox="0 0 512 512" xmlns="http://www.w3.org/2000/svg">
  <rect width="100%" height="100%" fill="#fff7e6" />
  
    <g>
      <polygon points="353,256 334.4746484543699,313.0151694723699 285.9746484543699,348.2524820806299 226.02535154563012,348.2524820806299 177.5253515456301,313.0151694723699 159,256 177.5253515456301,198.98483052763012 226.0253515456301,163.74751791937013 285.97464845436986,163.7475179193701 334.4746484543699,198.9848305276301" fill="none" stroke="#64b5f6" stroke-width="3" opacity="0.7">
        <animateTransform attributeName="transform" type="rotate"
          from="0 256 256" to="-360 256 256"
          dur="3.0725967917977237s" repeatCount="indefinite"/>
      </polygon>
    </g>
    <g>
      <polygon points="382,256 365.1192008768393,319 319,365.1192008768393 256,382 193.00000000000003,365.1192008768393 146.88079912316073,319 130,256 146.88079912316073,193.00000000000003 192.99999999999994,146.88079912316076 255.99999999999997,130 319,146.88079912316073 365.1192008768392,192.99999999999994" fill="none" stroke="#ffd54f" stroke-width="3" opacity="0.7">
        <animateTransform attributeName="transform" type="rotate"
          from="0 256 256" to="-360 256 256"
          dur="3.7187005513423173s" repeatCount="indefinite"/>
      </polygon>
    </g>
    <g>
      <polygon points="433,256 404.90187531111906,351.6934246896408 329.5284573013339,417.0048631777497 230.81027362562855,431.1983952129251 140.08965009168458,389.76767466070373 86.16974367023397,305.86666256093304 86.16974367023394,206.133337439067 140.08965009168452,122.2323253392963 230.81027362562853,80.80160478707492 329.52845730133384,94.9951368222502 404.90187531111906,160.30657531035925" fill="none" stroke="#4db6ac" stroke-width="3" opacity="0.7">
        <animateTransform attributeName="transform" type="rotate"
          from="0 256 256" to="360 256 256"
          dur="2.804543826625254s" repeatCount="indefinite"/>
      </polygon>
    </g>
  <text x="50%" y="95%" text-anchor="middle" font-size="32" fill="#222" opacity="0.7" font-family="Arial">Mandala #70</text>
</svg>