<svg width="512" height="512" viewBox="0 0 512 512" xmlns="http://www.w3.org/2000/svg">
  <rect width="100%" height="100%" fill="#fff7e6" />
  
    <g>
      <polygon points="347,256 329.6205464881202,309.4884579586151 284.1205464881202,342.54614298285895 227.8794535118798,342.546142982859 182.37945351187977,309.4884579586151 165,256 182.37945351187977,202.51154204138496 227.87945351187977,169.45385701714105 284.1205464881202,169.45385701714102 329.6205464881202,202.51154204138493" fill="none" stroke="#ffd54f" stroke-width="3" opacity="0.7">
        <animateTransform attributeName="transform" type="rotate"
          from="0 256 256" to="360 256 256"
          dur="4.563701233629121s" repeatCount="indefinite"/>
      </polygon>
    </g>
    <g>
      <polygon points="385,256 370.2238273092641,315.9492891936461 329.2803523283191,362.16491870028165 271.5492317529367,384.05944475864897 210.25596957151294,376.6170953064185 159.44211348592796,341.5428229130626 130.7485055520393,286.8717206930949 130.74850555203926,225.12827930690509 159.44211348592793,170.45717708693746 210.25596957151288,135.3829046935815 271.5492317529367,127.94055524135103 329.28035232831894,149.83508129971824 370.2238273092641,196.0507108063539" fill="none" stroke="#64b5f6" stroke-width="4" opacity="0.7">
        <animateTransform attributeName="transform" type="rotate"
          from="0 256 256" to="360 256 256"
          dur="2.773530688352766s" repeatCount="indefinite"/>
      </polygon>
    </g>
    <g>
      <polygon points="431,256 343.5,407.55444566227675 168.50000000000006,407.55444566227675 81,256 168.49999999999994,104.44555433772325 343.5,104.44555433772325" fill="none" stroke="#4db6ac" stroke-width="4" opacity="0.7">
        <animateTransform attributeName="transform" type="rotate"
          from="0 256 256" to="-360 256 256"
          dur="2.3767373985958273s" repeatCount="indefinite"/>
      </polygon>
    </g>
  <text x="50%" y="95%" text-anchor="middle" font-size="32" fill="#222" opacity="0.7" font-family="Arial">Mandala #69</text>
</svg>