<svg width="512" height="512" viewBox="0 0 512 512" xmlns="http://www.w3.org/2000/svg">
  <rect width="100%" height="100%" fill="#fff7e6" />
  
    <g>
      <polygon points="346,256 331.7128179548063,304.6576735710038 293.3873511701698,337.86687958190663 243.19166455540434,345.08392976928394 197.06253394492435,324.0174616918832 169.64563237469525,281.35593011572865 169.64563237469523,230.64406988427135 197.06253394492433,187.98253830811677 243.19166455540432,166.91607023071606 293.3873511701697,174.1331204180933 331.7128179548063,207.34232642899622" fill="none" stroke="#f48fb1" stroke-width="4" opacity="0.7">
        <animateTransform attributeName="transform" type="rotate"
          from="0 256 256" to="-360 256 256"
          dur="3.5079622295665924s" repeatCount="indefinite"/>
      </polygon>
    </g>
    <g>
      <polygon points="376,256 359.92304845413264,316 316,359.92304845413264 256,376 196.00000000000003,359.92304845413264 152.07695154586736,316 136,256 152.07695154586736,196.00000000000003 195.99999999999994,152.0769515458674 255.99999999999997,136 316,152.07695154586736 359.92304845413264,195.99999999999994" fill="none" stroke="#ffd54f" stroke-width="3" opacity="0.7">
        <animateTransform attributeName="transform" type="rotate"
          from="0 256 256" to="360 256 256"
          dur="3.9818469604553997s" repeatCount="indefinite"/>
      </polygon>
    </g>
    <g>
      <polygon points="434,256 392.3559108751781,370.416194524204 286.9093756247136,431.295780036173 167.00000000000006,410.1525218736301 88.73471350010831,316.8795855119691 88.73471350010831,195.12041448803097 166.99999999999991,101.84747812636994 286.90937562471356,80.70421996382694 392.35591087517804,141.58380547579594" fill="none" stroke="#ff8a65" stroke-width="4" opacity="0.7">
        <animateTransform attributeName="transform" type="rotate"
          from="0 256 256" to="360 256 256"
          dur="3.476271297390119s" repeatCount="indefinite"/>
      </polygon>
    </g>
  <text x="50%" y="95%" text-anchor="middle" font-size="32" fill="#222" opacity="0.7" font-family="Arial">Mandala #79</text>
</svg>