<svg width="512" height="512" viewBox="0 0 512 512" xmlns="http://www.w3.org/2000/svg">
  <rect width="100%" height="100%" fill="#f0f4c3" />
  
    <g>
      <polygon points="352,256 315.8550209784384,331.05582231693086 234.63799034019382,349.5930795694551 169.50698868136777,297.6528389552856 169.50698868136777,214.34716104471443 234.6379903401938,162.40692043054491 315.8550209784384,180.94417768306914" fill="none" stroke="#ba68c8" stroke-width="4" opacity="0.7">
        <animateTransform attributeName="transform" type="rotate"
          from="0 256 256" to="-360 256 256"
          dur="2.54352200256054s" repeatCount="indefinite"/>
      </polygon>
    </g>
    <g>
      <polygon points="386,256 368.58330249197707,321 321,368.583302491977 256,386 191.00000000000003,368.58330249197707 143.41669750802296,321 126,256 143.41669750802293,191.00000000000006 190.99999999999994,143.416697508023 255.99999999999997,126 321,143.416697508023 368.583302491977,190.99999999999994" fill="none" stroke="#90a4ae" stroke-width="3" opacity="0.7">
        <animateTransform attributeName="transform" type="rotate"
          from="0 256 256" to="-360 256 256"
          dur="3.8503106885160436s" repeatCount="indefinite"/>
      </polygon>
    </g>
    <g>
      <polygon points="422,256 395.64808644997606,345.7463756976292 324.9588921583131,406.99891122885003 232.37573684663468,420.31035935223485 147.2931181650827,381.45442934280686 96.72416637999345,302.7676044356773 96.72416637999342,209.23239556432273 147.29311816508266,130.54557065719314 232.37573684663465,91.68964064776517 324.95889215831306,105.00108877114991 395.64808644997606,166.25362430237084" fill="none" stroke="#ffd54f" stroke-width="4" opacity="0.7">
        <animateTransform attributeName="transform" type="rotate"
          from="0 256 256" to="-360 256 256"
          dur="2.353835880127664s" repeatCount="indefinite"/>
      </polygon>
    </g>
    <g>
      <polygon points="458,256 419.42143286373937,374.73262096307957 318.42143286373937,448.113416291621 193.57856713626063,448.11341629162104 92.57856713626063,374.7326209630796 54,256 92.5785671362606,137.26737903692043 193.5785671362606,63.88658370837899 318.42143286373937,63.886583708378964 419.42143286373937,137.26737903692037" fill="none" stroke="#ffd54f" stroke-width="3" opacity="0.7">
        <animateTransform attributeName="transform" type="rotate"
          from="0 256 256" to="360 256 256"
          dur="3.805785640305446s" repeatCount="indefinite"/>
      </polygon>
    </g>
  <text x="50%" y="95%" text-anchor="middle" font-size="32" fill="#222" opacity="0.7" font-family="Arial">Mandala #41</text>
</svg>