<svg width="512" height="512" viewBox="0 0 512 512" xmlns="http://www.w3.org/2000/svg">
  <rect width="100%" height="100%" fill="#fff7e6" />
  
    <g>
      <polygon points="339,256 327.88010851410843,297.5 297.5,327.88010851410843 256,339 214.50000000000003,327.88010851410843 184.11989148589157,297.5 173,256 184.11989148589157,214.50000000000003 214.49999999999997,184.1198914858916 255.99999999999997,173 297.5,184.1198914858916 327.8801085141084,214.49999999999997" fill="none" stroke="#64b5f6" stroke-width="4" opacity="0.7">
        <animateTransform attributeName="transform" type="rotate"
          from="0 256 256" to="360 256 256"
          dur="3.6896850208308787s" repeatCount="indefinite"/>
      </polygon>
    </g>
    <g>
      <polygon points="392,256 366.0263112349928,335.93879431177635 298.0263112349929,385.3436862161409 213.97368876500715,385.3436862161409 145.97368876500718,335.93879431177635 120,256 145.97368876500715,176.06120568822365 213.97368876500713,126.65631378385913 298.0263112349928,126.6563137838591 366.0263112349928,176.06120568822362" fill="none" stroke="#ba68c8" stroke-width="3" opacity="0.7">
        <animateTransform attributeName="transform" type="rotate"
          from="0 256 256" to="-360 256 256"
          dur="4.347844079041446s" repeatCount="indefinite"/>
      </polygon>
    </g>
    <g>
      <polygon points="427,256 399.854354114132,348.4495797849072 327.0359672233226,411.5470712056226 231.66416265526826,425.2594665616395 144.01881449535625,385.2331772145782 91.92670151192095,304.1762672198845 91.92670151192092,207.82373278011556 144.01881449535622,126.76682278542185 231.66416265526823,86.7405334383605 327.03596722332253,100.45292879437733 399.854354114132,163.55042021509286" fill="none" stroke="#ffd54f" stroke-width="3" opacity="0.7">
        <animateTransform attributeName="transform" type="rotate"
          from="0 256 256" to="-360 256 256"
          dur="4.8093637686009805s" repeatCount="indefinite"/>
      </polygon>
    </g>
  <text x="50%" y="95%" text-anchor="middle" font-size="32" fill="#222" opacity="0.7" font-family="Arial">Mandala #99</text>
</svg>