<svg width="512" height="512" viewBox="0 0 512 512" xmlns="http://www.w3.org/2000/svg">
  <rect width="100%" height="100%" fill="#fff7e6" />
  
    <g>
      <polygon points="342,256 316.81118318204307,316.81118318204307 256,342 195.18881681795693,316.81118318204307 170,256 195.1888168179569,195.18881681795693 255.99999999999997,170 316.81118318204307,195.1888168179569" fill="none" stroke="#ba68c8" stroke-width="4" opacity="0.7">
        <animateTransform attributeName="transform" type="rotate"
          from="0 256 256" to="360 256 256"
          dur="3.676841562665284s" repeatCount="indefinite"/>
      </polygon>
    </g>
    <g>
      <polygon points="393,256 360.9480887073,344.06190252705585 279.7898003403695,390.9186621626725 187.50000000000003,374.6454803184681 127.26211095233057,302.85675963561664 127.26211095233054,209.1432403643834 187.49999999999994,137.35451968153194 279.7898003403694,121.08133783732748 360.9480887073,167.9380974729441" fill="none" stroke="#4db6ac" stroke-width="4" opacity="0.7">
        <animateTransform attributeName="transform" type="rotate"
          from="0 256 256" to="-360 256 256"
          dur="3.581003012676708s" repeatCount="indefinite"/>
      </polygon>
    </g>
    <g>
      <polygon points="425,256 405.6420683353925,334.53821607539686 352.00294219756535,395.08427333602793 276.3706989631496,423.7677997225711 196.0717740898115,414.0177450138351 129.50168355908392,368.0677292426944 91.91083285499721,296.44434726459724 91.91083285499718,215.5556527354028 129.5016835590839,143.93227075730564 196.07177408981144,97.98225498616492 276.3706989631496,88.23220027742889 352.0029421975652,116.91572666397195 405.6420683353925,177.46178392460314" fill="none" stroke="#f48fb1" stroke-width="4" opacity="0.7">
        <animateTransform attributeName="transform" type="rotate"
          from="0 256 256" to="-360 256 256"
          dur="3.2222152218482107s" repeatCount="indefinite"/>
      </polygon>
    </g>
    <g>
      <polygon points="475,256 449.914869618053,357.7743746775853 380.4061795341231,436.2334666307107 282.39753297591574,473.40324342747385 178.34152973768474,460.76855714810586 92.07614615052884,401.22386215473415 43.36374198369461,308.41013047897513 43.36374198369458,203.58986952102492 92.07614615052881,110.77613784526591 178.34152973768465,51.23144285189417 282.3975329759158,38.596756572526175 380.4061795341229,75.7665333692891 449.914869618053,154.22562532241471" fill="none" stroke="#ba68c8" stroke-width="4" opacity="0.7">
        <animateTransform attributeName="transform" type="rotate"
          from="0 256 256" to="-360 256 256"
          dur="4.2485671950426s" repeatCount="indefinite"/>
      </polygon>
    </g>
  <text x="50%" y="95%" text-anchor="middle" font-size="32" fill="#222" opacity="0.7" font-family="Arial">Mandala #32</text>
</svg>