<svg width="512" height="512" viewBox="0 0 512 512" xmlns="http://www.w3.org/2000/svg">
  <rect width="100%" height="100%" fill="#ffebee" />
  
    <g>
      <polygon points="341,256 324.76644452187054,305.96174644486024 282.26644452187054,336.83980388508803 229.73355547812946,336.83980388508803 187.23355547812946,305.96174644486024 171,256 187.23355547812946,206.0382535551398 229.73355547812946,175.16019611491197 282.26644452187054,175.16019611491194 324.76644452187054,206.03825355513976" fill="none" stroke="#ffd54f" stroke-width="3" opacity="0.7">
        <animateTransform attributeName="transform" type="rotate"
          from="0 256 256" to="-360 256 256"
          dur="4.700635738064293s" repeatCount="indefinite"/>
      </polygon>
    </g>
    <g>
      <polygon points="378,256 354.7000733137436,327.7098007796817 293.7000733137436,372.02889498800874 218.2999266862564,372.02889498800874 157.2999266862564,327.70980077968176 134,256 157.2999266862564,184.2901992203183 218.2999266862564,139.97110501199126 293.7000733137436,139.97110501199126 354.7000733137436,184.29019922031824" fill="none" stroke="#64b5f6" stroke-width="4" opacity="0.7">
        <animateTransform attributeName="transform" type="rotate"
          from="0 256 256" to="360 256 256"
          dur="4.210066574847813s" repeatCount="indefinite"/>
      </polygon>
    </g>
    <g>
      <polygon points="431,256 397.57797401561584,358.8624191511828 310.0779740156158,422.43489035165186 201.92202598438422,422.4348903516519 114.42202598438422,358.86241915118285 81,256 114.42202598438419,153.1375808488172 201.92202598438416,89.56510964834814 310.0779740156158,89.56510964834811 397.5779740156158,153.13758084881715" fill="none" stroke="#90a4ae" stroke-width="3" opacity="0.7">
        <animateTransform attributeName="transform" type="rotate"
          from="0 256 256" to="360 256 256"
          dur="3.369970846767612s" repeatCount="indefinite"/>
      </polygon>
    </g>
    <g>
      <polygon points="463,256 439.28939731021444,352.1976966130601 373.5894025733493,426.3576602399869 280.95109281285187,461.4907369382972 182.59678838219514,449.54836223588086 101.05827512858204,393.2663902558446 55.015043792807234,305.5383425075244 55.015043792807205,206.4616574924756 101.05827512858204,118.73360974415544 182.5967883821951,62.45163776411914 280.9510928128519,50.509263061702825 373.58940257334905,85.64233976001299 439.28939731021444,159.80230338693994" fill="none" stroke="#f48fb1" stroke-width="4" opacity="0.7">
        <animateTransform attributeName="transform" type="rotate"
          from="0 256 256" to="360 256 256"
          dur="4.926953549777313s" repeatCount="indefinite"/>
      </polygon>
    </g>
  <text x="50%" y="95%" text-anchor="middle" font-size="32" fill="#222" opacity="0.7" font-family="Arial">Mandala #48</text>
</svg>