<svg width="512" height="512" viewBox="0 0 512 512" xmlns="http://www.w3.org/2000/svg">
  <rect width="100%" height="100%" fill="#e3eaff" />
  
    <g>
      <polygon points="352,256 341.00377846270817,300.6134245162018 310.534215686191,335.00645112579105 267.571521304511,351.3000519134132 221.95793084391659,345.7615592977998 184.14296817557428,319.65977519111635 162.789585527099,278.97430377160555 162.789585527099,233.02569622839448 184.14296817557428,192.34022480888368 221.95793084391656,166.2384407022002 267.571521304511,160.6999480865868 310.53421568619086,176.99354887420893 341.00377846270817,211.38657548379823" fill="none" stroke="#ffd54f" stroke-width="4" opacity="0.7">
        <animateTransform attributeName="transform" type="rotate"
          from="0 256 256" to="-360 256 256"
          dur="2.381299539195067s" repeatCount="indefinite"/>
      </polygon>
    </g>
    <g>
      <polygon points="390,256 374.65110743753013,318.272905053865 332.1206760619749,366.27983802974995 272.15191515421327,389.0229891291392 208.48294513630026,381.2921765198456 155.69955974507243,344.8584362042666 125.89379646490903,288.0682990145327 125.893796464909,223.9317009854673 155.6995597450724,167.14156379573348 208.4829451363002,130.70782348015445 272.1519151542133,122.97701087086077 332.12067606197473,145.72016197024996 374.65110743753013,193.72709494613503" fill="none" stroke="#4db6ac" stroke-width="4" opacity="0.7">
        <animateTransform attributeName="transform" type="rotate"
          from="0 256 256" to="360 256 256"
          dur="2.798548942110912s" repeatCount="indefinite"/>
      </polygon>
    </g>
    <g>
      <polygon points="423,256 391.10583806061624,354.16013713284303 307.60583806061624,414.82643822129063 204.3941619393838,414.8264382212907 120.89416193938379,354.16013713284303 89,256 120.89416193938376,157.83986286715702 204.39416193938376,97.17356177870937 307.6058380606162,97.17356177870934 391.1058380606162,157.83986286715697" fill="none" stroke="#ff8a65" stroke-width="4" opacity="0.7">
        <animateTransform attributeName="transform" type="rotate"
          from="0 256 256" to="360 256 256"
          dur="2.1947568357357734s" repeatCount="indefinite"/>
      </polygon>
    </g>
    <g>
      <polygon points="469,256 435.18700249304163,371.15649411804225 344.4833977694018,449.7516150105124 225.68693944779028,466.8319671206387 116.51466366965431,416.97465933745707 51.62799662011207,316.0090346072245 51.62799662011204,195.99096539277554 116.51466366965425,95.02534066254302 225.68693944779025,45.168032879361334 344.48339776940173,62.24838498948756 435.18700249304163,140.84350588195775" fill="none" stroke="#ff8a65" stroke-width="3" opacity="0.7">
        <animateTransform attributeName="transform" type="rotate"
          from="0 256 256" to="360 256 256"
          dur="3.6664789063058913s" repeatCount="indefinite"/>
      </polygon>
    </g>
  <text x="50%" y="95%" text-anchor="middle" font-size="32" fill="#222" opacity="0.7" font-family="Arial">Mandala #98</text>
</svg>