<svg width="512" height="512" viewBox="0 0 512 512" xmlns="http://www.w3.org/2000/svg">
  <rect width="100%" height="100%" fill="#e3eaff" />
  
    <g>
      <polygon points="353,256 341.88923448836135,301.07814768824556 311.1022804329221,335.82943499168465 267.69205798476634,352.29276078751127 221.60332595687407,346.69657554048524 183.39445742740318,320.3228978493571 161.81864370967295,279.21361943589307 161.81864370967293,232.78638056410693 183.39445742740315,191.6771021506429 221.60332595687402,165.30342445951476 267.69205798476634,159.70723921248876 311.10228043292204,176.17056500831526 341.88923448836135,210.92185231175446" fill="none" stroke="#90a4ae" stroke-width="3" opacity="0.7">
        <animateTransform attributeName="transform" type="rotate"
          from="0 256 256" to="-360 256 256"
          dur="2.0944029967367097s" repeatCount="indefinite"/>
      </polygon>
    </g>
    <g>
      <polygon points="383,256 353.2876442761102,337.6340264301905 278.05331856370015,381.07058463255044 192.50000000000003,365.9852262806237 136.65903716018965,299.43655820235995 136.65903716018963,212.56344179764008 192.49999999999994,146.0147737193763 278.0533185637001,130.92941536744956 353.2876442761102,174.36597356980946" fill="none" stroke="#ffd54f" stroke-width="4" opacity="0.7">
        <animateTransform attributeName="transform" type="rotate"
          from="0 256 256" to="360 256 256"
          dur="4.294909038564247s" repeatCount="indefinite"/>
      </polygon>
    </g>
    <g>
      <polygon points="425,256 375.50104602052653,375.50104602052653 256,425 136.49895397947347,375.50104602052653 87,256 136.49895397947344,136.49895397947347 255.99999999999997,87 375.5010460205265,136.49895397947344" fill="none" stroke="#64b5f6" stroke-width="4" opacity="0.7">
        <animateTransform attributeName="transform" type="rotate"
          from="0 256 256" to="-360 256 256"
          dur="3.549908329382067s" repeatCount="indefinite"/>
      </polygon>
    </g>
    <g>
      <polygon points="474,256 444.79353802500765,365 365,444.7935380250076 256,474 147.00000000000006,444.79353802500765 67.20646197499235,365 38,256 67.20646197499235,147.00000000000006 146.9999999999999,67.20646197499241 255.99999999999997,38 365,67.20646197499238 444.7935380250076,146.9999999999999" fill="none" stroke="#64b5f6" stroke-width="3" opacity="0.7">
        <animateTransform attributeName="transform" type="rotate"
          from="0 256 256" to="360 256 256"
          dur="2.002654065884406s" repeatCount="indefinite"/>
      </polygon>
    </g>
    <g>
      <polygon points="511,256 414.98989947397706,455.3670280293476 199.25716184113986,504.60661760636503 26.252938684883134,366.64035347497736 26.252938684883105,145.3596465250227 199.25716184113978,7.393382393634965 414.989899473977,56.63297197065236" fill="none" stroke="#ff8a65" stroke-width="4" opacity="0.7">
        <animateTransform attributeName="transform" type="rotate"
          from="0 256 256" to="-360 256 256"
          dur="4.374174484183035s" repeatCount="indefinite"/>
      </polygon>
    </g>
  <text x="50%" y="95%" text-anchor="middle" font-size="32" fill="#222" opacity="0.7" font-family="Arial">Mandala #64</text>
</svg>