<svg width="512" height="512" viewBox="0 0 512 512" xmlns="http://www.w3.org/2000/svg">
  <rect width="100%" height="100%" fill="#fff7e6" />
  
    <g>
      <polygon points="355,256 336.09268244311977,314.19073997695483 286.59268244311977,350.1545951132202 225.4073175568802,350.15459511322024 175.90731755688023,314.19073997695483 157,256 175.9073175568802,197.80926002304517 225.4073175568802,161.84540488677982 286.59268244311977,161.8454048867798 336.09268244311977,197.80926002304514" fill="none" stroke="#4db6ac" stroke-width="4" opacity="0.7">
        <animateTransform attributeName="transform" type="rotate"
          from="0 256 256" to="-360 256 256"
          dur="2.344972902586142s" repeatCount="indefinite"/>
      </polygon>
    </g>
    <g>
      <polygon points="386,256 355.5857776054671,339.5623892592501 278.574263096701,384.02500789158705 191.00000000000003,368.58330249197707 133.8399592978319,300.46261863233696 133.8399592978319,211.53738136766307 190.99999999999994,143.416697508023 278.5742630967009,127.97499210841295 355.5857776054671,172.43761074074985" fill="none" stroke="#64b5f6" stroke-width="3" opacity="0.7">
        <animateTransform attributeName="transform" type="rotate"
          from="0 256 256" to="-360 256 256"
          dur="4.35305429889079s" repeatCount="indefinite"/>
      </polygon>
    </g>
    <g>
      <polygon points="434,256 366.9811847308546,395.1660038793093 216.39127375577604,429.53716836836463 95.62754151336941,333.2313055629254 95.62754151336938,178.76869443707466 216.391273755776,82.4628316316354 366.9811847308545,116.83399612069067" fill="none" stroke="#64b5f6" stroke-width="3" opacity="0.7">
        <animateTransform attributeName="transform" type="rotate"
          from="0 256 256" to="-360 256 256"
          dur="2.3405574991164118s" repeatCount="indefinite"/>
      </polygon>
    </g>
    <g>
      <polygon points="460,256 432.6691823720255,358 358,432.6691823720255 256,460 154.00000000000006,432.6691823720255 79.33081762797451,358 52,256 79.33081762797448,154.00000000000006 153.99999999999991,79.33081762797454 255.99999999999997,52 358,79.33081762797454 432.66918237202543,153.99999999999991" fill="none" stroke="#ffd54f" stroke-width="3" opacity="0.7">
        <animateTransform attributeName="transform" type="rotate"
          from="0 256 256" to="-360 256 256"
          dur="2.4776382535821404s" repeatCount="indefinite"/>
      </polygon>
    </g>
    <g>
      <polygon points="497,256 464.7121223120497,376.5 376.5,464.7121223120497 256,497 135.50000000000006,464.7121223120497 47.28787768795027,376.5 15,256.00000000000006 47.28787768795024,135.50000000000006 135.4999999999999,47.28787768795033 255.99999999999994,15 376.5,47.2878776879503 464.71212231204964,135.4999999999999" fill="none" stroke="#4db6ac" stroke-width="4" opacity="0.7">
        <animateTransform attributeName="transform" type="rotate"
          from="0 256 256" to="360 256 256"
          dur="4.960477150247116s" repeatCount="indefinite"/>
      </polygon>
    </g>
  <text x="50%" y="95%" text-anchor="middle" font-size="32" fill="#222" opacity="0.7" font-family="Arial">Mandala #90</text>
</svg>