<svg width="512" height="512" viewBox="0 0 512 512" xmlns="http://www.w3.org/2000/svg">
  <rect width="100%" height="100%" fill="#f0f4c3" />
  
    <g>
      <polygon points="336,256 312.5685424949238,312.5685424949238 256,336 199.4314575050762,312.5685424949238 176,256 199.4314575050762,199.4314575050762 255.99999999999997,176 312.5685424949238,199.4314575050762" fill="none" stroke="#90a4ae" stroke-width="4" opacity="0.7">
        <animateTransform attributeName="transform" type="rotate"
          from="0 256 256" to="360 256 256"
          dur="3.190421680358752s" repeatCount="indefinite"/>
      </polygon>
    </g>
    <g>
      <polygon points="380,256 365.796547180998,313.6256733334273 326.4400285946633,358.0499993708134 270.94654835166006,379.0959003881587 212.0289940067256,371.9420140929914 163.18466722678346,338.2272096218586 135.60321463916955,285.67514237165716 135.60321463916955,226.32485762834287 163.18466722678343,173.77279037814142 212.02899400672555,140.05798590700857 270.94654835166006,132.9040996118413 326.4400285946632,153.95000062918655 365.79654718099806,198.37432666657273" fill="none" stroke="#ffd54f" stroke-width="4" opacity="0.7">
        <animateTransform attributeName="transform" type="rotate"
          from="0 256 256" to="360 256 256"
          dur="4.028444610227253s" repeatCount="indefinite"/>
      </polygon>
    </g>
    <g>
      <polygon points="432,256 411.84026051496494,337.79127827970325 355.97939542468345,400.8451603972835 277.21445572493684,430.7167618412575 193.58953988051377,420.562858712633 124.26210832188619,372.70958785038 85.11424013301485,298.11955691461014 85.11424013301482,213.88044308538989 124.26210832188616,139.29041214962007 193.58953988051368,91.43714128736701 277.2144557249369,81.2832381587425 355.9793954246833,111.15483960271638 411.84026051496494,174.20872172029675" fill="none" stroke="#64b5f6" stroke-width="3" opacity="0.7">
        <animateTransform attributeName="transform" type="rotate"
          from="0 256 256" to="360 256 256"
          dur="2.197592592974186s" repeatCount="indefinite"/>
      </polygon>
    </g>
    <g>
      <polygon points="467,256 433.5044954273792,370.07521248313105 343.65256774339804,447.9323510198034 225.97156912433687,464.8523242368768 117.82438513754488,415.46316018874853 53.54698256734105,315.44556949354165 53.54698256734102,196.5544305064584 117.82438513754482,96.53683981125153 225.9715691243368,47.1476757631232 343.652567743398,64.0676489801966 433.5044954273792,141.92478751686895" fill="none" stroke="#64b5f6" stroke-width="3" opacity="0.7">
        <animateTransform attributeName="transform" type="rotate"
          from="0 256 256" to="-360 256 256"
          dur="4.827566786688574s" repeatCount="indefinite"/>
      </polygon>
    </g>
  <text x="50%" y="95%" text-anchor="middle" font-size="32" fill="#222" opacity="0.7" font-family="Arial">Mandala #81</text>
</svg>