<svg width="512" height="512" viewBox="0 0 512 512" xmlns="http://www.w3.org/2000/svg">
  <rect width="100%" height="100%" fill="#f0f4c3" />
  
    <g>
      <polygon points="341,256 298.5,329.61215932167727 213.50000000000003,329.61215932167727 171,256 213.49999999999997,182.38784067832273 298.5,182.38784067832273" fill="none" stroke="#ba68c8" stroke-width="4" opacity="0.7">
        <animateTransform attributeName="transform" type="rotate"
          from="0 256 256" to="-360 256 256"
          dur="3.992481082149391s" repeatCount="indefinite"/>
      </polygon>
    </g>
    <g>
      <polygon points="383,256 335.1832048360592,355.2925982734398 227.73984138754807,379.8158448470916 141.57695377639277,311.10323486792987 141.57695377639277,200.89676513207013 227.73984138754804,132.1841551529084 335.18320483605913,156.7074017265602" fill="none" stroke="#f48fb1" stroke-width="4" opacity="0.7">
        <animateTransform attributeName="transform" type="rotate"
          from="0 256 256" to="-360 256 256"
          dur="3.0081934746452683s" repeatCount="indefinite"/>
      </polygon>
    </g>
    <g>
      <polygon points="434,256 405.7431288439502,352.2340655070964 329.9438723143358,417.9144951731042 230.66795878735527,432.18821665480607 139.43478935773928,390.523424235058 85.21025069661948,306.1483951177745 85.21025069661945,205.85160488222556 139.43478935773925,121.47657576494206 230.66795878735522,79.81178334519399 329.94387231433575,94.08550482689569 405.7431288439502,159.76593449290365" fill="none" stroke="#ff8a65" stroke-width="3" opacity="0.7">
        <animateTransform attributeName="transform" type="rotate"
          from="0 256 256" to="360 256 256"
          dur="4.303931420369432s" repeatCount="indefinite"/>
      </polygon>
    </g>
    <g>
      <polygon points="472,256 408.73506473629425,408.73506473629425 256,472 103.26493526370575,408.73506473629425 40,256 103.2649352637057,103.26493526370575 255.99999999999997,40 408.73506473629425,103.2649352637057" fill="none" stroke="#4db6ac" stroke-width="3" opacity="0.7">
        <animateTransform attributeName="transform" type="rotate"
          from="0 256 256" to="360 256 256"
          dur="2.611923993556188s" repeatCount="indefinite"/>
      </polygon>
    </g>
    <g>
      <polygon points="502,256 473.82218231068964,370.3219003227671 395.7439276958644,458.45403100983947 285.65202334280946,500.2063830281213 168.76719778753628,486.01399570061204 71.86635594990912,419.1281739272356 17.148312913191205,314.87165341473917 17.148312913191177,197.12834658526089 71.86635594990909,92.87182607276443 168.76719778753616,25.986004299387986 285.6520233428095,11.79361697187872 395.74392769586404,53.54596899016036 473.82218231068964,141.67809967723298" fill="none" stroke="#f48fb1" stroke-width="4" opacity="0.7">
        <animateTransform attributeName="transform" type="rotate"
          from="0 256 256" to="360 256 256"
          dur="2.7562592326915096s" repeatCount="indefinite"/>
      </polygon>
    </g>
  <text x="50%" y="95%" text-anchor="middle" font-size="32" fill="#222" opacity="0.7" font-family="Arial">Mandala #38</text>
</svg>