<svg width="512" height="512" viewBox="0 0 512 512" xmlns="http://www.w3.org/2000/svg">
  <rect width="100%" height="100%" fill="#ffebee" />
  
    <g>
      <polygon points="344,256 330.03031088914395,303.5763919360926 292.556521144166,336.0476155911976 243.47629423195093,343.1042868855221 198.37225541281492,322.50596254317475 171.56461832192423,280.7924650020458 171.56461832192423,231.2075349979542 198.3722554128149,189.49403745682528 243.4762942319509,168.89571311447793 292.55652114416597,175.95238440880237 330.03031088914395,208.4236080639074" fill="none" stroke="#64b5f6" stroke-width="3" opacity="0.7">
        <animateTransform attributeName="transform" type="rotate"
          from="0 256 256" to="-360 256 256"
          dur="4.62155955839599s" repeatCount="indefinite"/>
      </polygon>
    </g>
    <g>
      <polygon points="394,256 372.092987530703,330.60843280887246 313.32727179426035,381.5292153589235 236.36055231828666,392.5953589795687 165.62921871555068,360.2934412608877 123.58996964119936,294.8790928441173 123.58996964119936,217.12090715588275 165.62921871555062,151.70655873911238 236.36055231828664,119.40464102043128 313.3272717942603,130.47078464107642 372.092987530703,181.39156719112754" fill="none" stroke="#90a4ae" stroke-width="3" opacity="0.7">
        <animateTransform attributeName="transform" type="rotate"
          from="0 256 256" to="360 256 256"
          dur="4.502211224224734s" repeatCount="indefinite"/>
      </polygon>
    </g>
    <g>
      <polygon points="418,256 396.29611541307906,337 337,396.29611541307906 256,418 175.00000000000006,396.29611541307906 115.70388458692094,337 94,256 115.7038845869209,175.00000000000006 174.99999999999994,115.70388458692096 255.99999999999997,94 337,115.70388458692094 396.296115413079,174.99999999999994" fill="none" stroke="#90a4ae" stroke-width="4" opacity="0.7">
        <animateTransform attributeName="transform" type="rotate"
          from="0 256 256" to="-360 256 256"
          dur="3.916656090289609s" repeatCount="indefinite"/>
      </polygon>
    </g>
  <text x="50%" y="95%" text-anchor="middle" font-size="32" fill="#222" opacity="0.7" font-family="Arial">Mandala #45</text>
</svg>