<svg width="512" height="512" viewBox="0 0 512 512" xmlns="http://www.w3.org/2000/svg">
  <rect width="100%" height="100%" fill="#fff7e6" />
  
    <g>
      <polygon points="351,256 332.85661446562,311.8395989677849 285.35661446562,346.35036904803957 226.64338553438,346.3503690480396 179.14338553438,311.839598967785 161,256 179.14338553438,200.16040103221508 226.64338553437997,165.64963095196043 285.35661446562,165.6496309519604 332.85661446562,200.16040103221502" fill="none" stroke="#4db6ac" stroke-width="3" opacity="0.7">
        <animateTransform attributeName="transform" type="rotate"
          from="0 256 256" to="-360 256 256"
          dur="2.336809914363272s" repeatCount="indefinite"/>
      </polygon>
    </g>
    <g>
      <polygon points="395,256 362.480177593538,345.3474777464289 280.13709669570335,392.8882776686969 186.50000000000003,376.37753112603696 125.38272571075873,303.540799922268 125.38272571075873,208.45920007773205 186.49999999999994,135.62246887396304 280.1370966957033,119.11172233130307 362.4801775935379,166.652522253571" fill="none" stroke="#90a4ae" stroke-width="3" opacity="0.7">
        <animateTransform attributeName="transform" type="rotate"
          from="0 256 256" to="-360 256 256"
          dur="2.495771791188374s" repeatCount="indefinite"/>
      </polygon>
    </g>
    <g>
      <polygon points="435,256 400.81404199311555,361.2135601603527 311.3140419931156,426.2391164168325 200.68595800688442,426.23911641683253 111.18595800688442,361.2135601603527 77,256 111.18595800688442,150.78643983964733 200.6859580068844,85.76088358316753 311.31404199311555,85.7608835831675 400.81404199311555,150.78643983964727" fill="none" stroke="#ba68c8" stroke-width="3" opacity="0.7">
        <animateTransform attributeName="transform" type="rotate"
          from="0 256 256" to="-360 256 256"
          dur="2.0500833979551434s" repeatCount="indefinite"/>
      </polygon>
    </g>
    <g>
      <polygon points="468,256 388.1798379940515,421.7482742832223 208.82556200126135,462.68471738254664 64.99460000468716,347.9833526929223 64.99460000468713,164.0166473070777 208.82556200126132,49.31528261745339 388.17983799405147,90.25172571677766" fill="none" stroke="#ba68c8" stroke-width="3" opacity="0.7">
        <animateTransform attributeName="transform" type="rotate"
          from="0 256 256" to="-360 256 256"
          dur="3.469368385273695s" repeatCount="indefinite"/>
      </polygon>
    </g>
  <text x="50%" y="95%" text-anchor="middle" font-size="32" fill="#222" opacity="0.7" font-family="Arial">Mandala #43</text>
</svg>