<svg width="512" height="512" viewBox="0 0 512 512" xmlns="http://www.w3.org/2000/svg">
  <rect width="100%" height="100%" fill="#e3eaff" />
  
    <g>
      <polygon points="354,256 342.77469051401454,301.5428708602893 311.6703451796533,336.6524188575783 267.81259466502166,353.2854696616093 221.24872106983153,347.6315917831706 182.64594667923208,320.9860205075979 160.8477018922469,279.45293510018064 160.8477018922469,232.54706489981936 182.64594667923205,191.0139794924021 221.24872106983148,164.36840821682935 267.81259466502166,158.71453033839072 311.67034517965317,175.34758114242163 342.7746905140146,210.4571291397107" fill="none" stroke="#4db6ac" stroke-width="3" opacity="0.7">
        <animateTransform attributeName="transform" type="rotate"
          from="0 256 256" to="360 256 256"
          dur="3.292705224537717s" repeatCount="indefinite"/>
      </polygon>
    </g>
    <g>
      <polygon points="387,256 356.3518220485861,340.20517686893663 278.7479112743679,385.00981564459926 190.50000000000003,369.4493278957615 132.900266677046,300.8046387756626 132.90026667704598,211.1953612243374 190.49999999999994,142.55067210423857 278.7479112743678,126.99018435540074 356.3518220485861,171.7948231310633" fill="none" stroke="#90a4ae" stroke-width="3" opacity="0.7">
        <animateTransform attributeName="transform" type="rotate"
          from="0 256 256" to="360 256 256"
          dur="2.4625777598448715s" repeatCount="indefinite"/>
      </polygon>
    </g>
    <g>
      <polygon points="417,256 356.3818580992561,381.87486867735277 220.17412963303337,412.96339386127363 110.94401226771055,325.8552819979269 110.94401226771052,186.14471800207315 220.17412963303335,99.0366061387264 356.3818580992561,130.12513132264718" fill="none" stroke="#4db6ac" stroke-width="3" opacity="0.7">
        <animateTransform attributeName="transform" type="rotate"
          from="0 256 256" to="360 256 256"
          dur="3.4142018805086054s" repeatCount="indefinite"/>
      </polygon>
    </g>
  <text x="50%" y="95%" text-anchor="middle" font-size="32" fill="#222" opacity="0.7" font-family="Arial">Mandala #60</text>
</svg>