<svg width="512" height="512" viewBox="0 0 512 512" xmlns="http://www.w3.org/2000/svg">
  <rect width="100%" height="100%" fill="#fff7e6" />
  
    <g>
      <polygon points="336,256 323.3002826264945,299.2512653964478 289.2332010401509,328.77055962836147 244.6148129381372,335.18571535047465 203.6111412843772,316.45996594834065 179.24056211084022,278.5386045473144 179.2405621108402,233.46139545268565 203.6111412843772,195.54003405165935 244.6148129381372,176.8142846495254 289.2332010401509,183.22944037163853 323.3002826264945,212.7487346035522" fill="none" stroke="#ba68c8" stroke-width="3" opacity="0.7">
        <animateTransform attributeName="transform" type="rotate"
          from="0 256 256" to="360 256 256"
          dur="4.526887507409697s" repeatCount="indefinite"/>
      </polygon>
    </g>
    <g>
      <polygon points="383,256 358.74515828561834,330.64872704114407 295.24515828561834,376.7841775694845 216.75484171438168,376.78417756948454 153.25484171438168,330.64872704114407 129,256 153.25484171438166,181.35127295885593 216.75484171438166,135.21582243051552 295.2451582856183,135.2158224305155 358.74515828561834,181.35127295885587" fill="none" stroke="#ffd54f" stroke-width="4" opacity="0.7">
        <animateTransform attributeName="transform" type="rotate"
          from="0 256 256" to="-360 256 256"
          dur="3.9984145937710287s" repeatCount="indefinite"/>
      </polygon>
    </g>
    <g>
      <polygon points="431,256 410.95480448931175,337.3265551076595 355.41133067795226,400.02217653138985 277.0939190446815,429.7240529671594 193.94414476755628,419.6278424699476 125.01061907005729,372.0464651921392 86.0851819504409,297.88024125032257 86.08518195044087,214.11975874967746 125.01061907005726,139.95353480786088 193.94414476755622,92.37215753005242 277.09391904468157,82.27594703284055 355.4113306779521,111.97782346861001 410.95480448931175,174.6734448923405" fill="none" stroke="#4db6ac" stroke-width="3" opacity="0.7">
        <animateTransform attributeName="transform" type="rotate"
          from="0 256 256" to="-360 256 256"
          dur="3.196251100397842s" repeatCount="indefinite"/>
      </polygon>
    </g>
    <g>
      <polygon points="464,256 424.27553482998906,378.2593324768344 320.27553482998906,453.81975538939196 191.72446517001094,453.81975538939196 87.72446517001094,378.2593324768344 48,256 87.72446517001094,133.7406675231656 191.7244651700109,58.18024461060807 320.27553482998906,58.18024461060804 424.27553482998906,133.74066752316554" fill="none" stroke="#90a4ae" stroke-width="4" opacity="0.7">
        <animateTransform attributeName="transform" type="rotate"
          from="0 256 256" to="-360 256 256"
          dur="2.6923050206288357s" repeatCount="indefinite"/>
      </polygon>
    </g>
  <text x="50%" y="95%" text-anchor="middle" font-size="32" fill="#222" opacity="0.7" font-family="Arial">Mandala #63</text>
</svg>