<svg width="512" height="512" viewBox="0 0 512 512" xmlns="http://www.w3.org/2000/svg">
  <rect width="100%" height="100%" fill="#fff7e6" />
  
    <g>
      <polygon points="353,256 337.60159268462456,308.44215929319296 296.295256261183,344.2343035493883 242.19546068749136,352.01267986245045 192.47850880730735,329.3077087123631 162.92918155939375,283.32805801361866 162.92918155939373,228.67194198638134 192.47850880730732,182.69229128763698 242.19546068749133,159.98732013754955 296.29525626118294,167.7656964506117 337.60159268462456,203.55784070680704" fill="none" stroke="#ffd54f" stroke-width="4" opacity="0.7">
        <animateTransform attributeName="transform" type="rotate"
          from="0 256 256" to="-360 256 256"
          dur="2.993916341654089s" repeatCount="indefinite"/>
      </polygon>
    </g>
    <g>
      <polygon points="378,256 354.7000733137436,327.7098007796817 293.7000733137436,372.02889498800874 218.2999266862564,372.02889498800874 157.2999266862564,327.70980077968176 134,256 157.2999266862564,184.2901992203183 218.2999266862564,139.97110501199126 293.7000733137436,139.97110501199126 354.7000733137436,184.29019922031824" fill="none" stroke="#64b5f6" stroke-width="3" opacity="0.7">
        <animateTransform attributeName="transform" type="rotate"
          from="0 256 256" to="-360 256 256"
          dur="3.486384612731617s" repeatCount="indefinite"/>
      </polygon>
    </g>
    <g>
      <polygon points="416,256 385.44271909999156,350.04564036679574 305.44271909999156,408.1690426072246 206.55728090000844,408.1690426072246 126.55728090000844,350.04564036679574 96,256 126.55728090000841,161.95435963320432 206.55728090000838,103.83095739277545 305.44271909999156,103.83095739277542 385.44271909999156,161.95435963320426" fill="none" stroke="#ffd54f" stroke-width="4" opacity="0.7">
        <animateTransform attributeName="transform" type="rotate"
          from="0 256 256" to="-360 256 256"
          dur="4.421202977083159s" repeatCount="indefinite"/>
      </polygon>
    </g>
    <g>
      <polygon points="469,256 440.46341100608544,362.5 362.5,440.4634110060854 256,469 149.50000000000006,440.46341100608544 71.53658899391456,362.5 43,256 71.53658899391453,149.50000000000006 149.4999999999999,71.53658899391459 255.99999999999997,43 362.5,71.53658899391459 440.4634110060854,149.4999999999999" fill="none" stroke="#4db6ac" stroke-width="4" opacity="0.7">
        <animateTransform attributeName="transform" type="rotate"
          from="0 256 256" to="360 256 256"
          dur="4.0748700012087475s" repeatCount="indefinite"/>
      </polygon>
    </g>
  <text x="50%" y="95%" text-anchor="middle" font-size="32" fill="#222" opacity="0.7" font-family="Arial">Mandala #96</text>
</svg>