<svg width="512" height="512" viewBox="0 0 512 512" xmlns="http://www.w3.org/2000/svg">
  <rect width="100%" height="100%" fill="#f0f4c3" />
  
    <g>
      <polygon points="342,256 330.47818472546174,299 299,330.4781847254617 256,342 213.00000000000003,330.47818472546174 181.52181527453826,299 170,256 181.52181527453826,213.00000000000003 212.99999999999997,181.52181527453828 255.99999999999997,170 299,181.52181527453828 330.4781847254617,212.99999999999997" fill="none" stroke="#ba68c8" stroke-width="4" opacity="0.7">
        <animateTransform attributeName="transform" type="rotate"
          from="0 256 256" to="360 256 256"
          dur="2.890572485293865s" repeatCount="indefinite"/>
      </polygon>
    </g>
    <g>
      <polygon points="391,256 359.41599982106203,342.7763273076828 279.4425039850356,388.9490466566481 188.50000000000003,372.9134295108992 129.14149619390238,302.1727193489653 129.14149619390236,209.82728065103473 188.49999999999994,139.0865704891008 279.44250398503556,123.05095334335189 359.415999821062,169.22367269231717" fill="none" stroke="#4db6ac" stroke-width="3" opacity="0.7">
        <animateTransform attributeName="transform" type="rotate"
          from="0 256 256" to="-360 256 256"
          dur="2.988597324081039s" repeatCount="indefinite"/>
      </polygon>
    </g>
    <g>
      <polygon points="432,256 411.84026051496494,337.79127827970325 355.97939542468345,400.8451603972835 277.21445572493684,430.7167618412575 193.58953988051377,420.562858712633 124.26210832188619,372.70958785038 85.11424013301485,298.11955691461014 85.11424013301482,213.88044308538989 124.26210832188616,139.29041214962007 193.58953988051368,91.43714128736701 277.2144557249369,81.2832381587425 355.9793954246833,111.15483960271638 411.84026051496494,174.20872172029675" fill="none" stroke="#ffd54f" stroke-width="4" opacity="0.7">
        <animateTransform attributeName="transform" type="rotate"
          from="0 256 256" to="360 256 256"
          dur="4.085729681298841s" repeatCount="indefinite"/>
      </polygon>
    </g>
  <text x="50%" y="95%" text-anchor="middle" font-size="32" fill="#222" opacity="0.7" font-family="Arial">Mandala #82</text>
</svg>