<svg width="512" height="512" viewBox="0 0 512 512" xmlns="http://www.w3.org/2000/svg">
  <rect width="100%" height="100%" fill="#e3eaff" />
  
    <g>
      <polygon points="355,256 331.8383998687788,319.63597335896736 273.1911695890261,353.49596754820857 206.50000000000003,341.7365149746594 162.97043054219506,289.8599941892412 162.97043054219506,222.1400058107588 206.49999999999994,170.26348502534057 273.19116958902606,158.50403245179137 331.8383998687788,192.36402664103258" fill="none" stroke="#64b5f6" stroke-width="4" opacity="0.7">
        <animateTransform attributeName="transform" type="rotate"
          from="0 256 256" to="-360 256 256"
          dur="3.4723842372034954s" repeatCount="indefinite"/>
      </polygon>
    </g>
    <g>
      <polygon points="388,256 367.0454663337159,327.3645879041389 310.83478171624904,376.0714233867964 237.21444134792637,386.65643032828314 169.55838311922238,355.7589438147621 129.34692748288634,293.18869750306874 129.34692748288631,218.81130249693132 169.55838311922236,156.24105618523794 237.21444134792634,125.34356967171689 310.8347817162489,135.92857661320355 367.0454663337159,184.63541209586114" fill="none" stroke="#4db6ac" stroke-width="4" opacity="0.7">
        <animateTransform attributeName="transform" type="rotate"
          from="0 256 256" to="360 256 256"
          dur="3.2660819734951407s" repeatCount="indefinite"/>
      </polygon>
    </g>
    <g>
      <polygon points="420,256 393.96557938431374,344.665094062718 324.12806213230937,405.179647238141 232.66036652318127,418.330716468473 148.60283963297326,379.9429301940984 98.64315232722242,302.2041393219945 98.64315232722242,209.79586067800557 148.60283963297323,132.05706980590168 232.6603665231812,93.66928353152704 324.1280621323093,106.82035276185897 393.96557938431374,167.33490593728203" fill="none" stroke="#f48fb1" stroke-width="4" opacity="0.7">
        <animateTransform attributeName="transform" type="rotate"
          from="0 256 256" to="-360 256 256"
          dur="4.316461139914853s" repeatCount="indefinite"/>
      </polygon>
    </g>
    <g>
      <polygon points="457,256 418.61241586936444,374.1448357107871 318.11241586936444,447.16235977532585 193.8875841306356,447.16235977532585 93.38758413063559,374.1448357107871 55,256 93.38758413063556,137.85516428921292 193.88758413063553,64.83764022467415 318.1124158693644,64.83764022467412 418.61241586936444,137.85516428921284" fill="none" stroke="#90a4ae" stroke-width="3" opacity="0.7">
        <animateTransform attributeName="transform" type="rotate"
          from="0 256 256" to="-360 256 256"
          dur="2.3287175937064295s" repeatCount="indefinite"/>
      </polygon>
    </g>
    <g>
      <polygon points="505,256 465.4721296749641,390.6195635464438 359.43833823746974,482.49836684327505 220.56360526995203,502.4655390283523 92.93967724762405,444.18164401421035 17.086249569990144,326.151406653516 17.086249569990116,185.84859334648408 92.93967724762399,67.81835598578971 220.56360526995198,9.534460971647775 359.4383382374696,29.501633156724893 465.4721296749641,121.38043645355623" fill="none" stroke="#f48fb1" stroke-width="3" opacity="0.7">
        <animateTransform attributeName="transform" type="rotate"
          from="0 256 256" to="-360 256 256"
          dur="3.0043985980301033s" repeatCount="indefinite"/>
      </polygon>
    </g>
  <text x="50%" y="95%" text-anchor="middle" font-size="32" fill="#222" opacity="0.7" font-family="Arial">Mandala #55</text>
</svg>