<svg width="512" height="512" viewBox="0 0 512 512" xmlns="http://www.w3.org/2000/svg">
  <rect width="100%" height="100%" fill="#e3eaff" />
  
    <g>
      <polygon points="345,256 333.07626093681506,300.5 300.5,333.07626093681506 256,345 211.50000000000003,333.07626093681506 178.92373906318494,300.5 167,256 178.92373906318494,211.50000000000003 211.49999999999994,178.92373906318497 255.99999999999997,167 300.5,178.92373906318497 333.076260936815,211.49999999999994" fill="none" stroke="#ba68c8" stroke-width="4" opacity="0.7">
        <animateTransform attributeName="transform" type="rotate"
          from="0 256 256" to="360 256 256"
          dur="4.428449816262603s" repeatCount="indefinite"/>
      </polygon>
    </g>
    <g>
      <polygon points="389,256 357.8839109348241,341.4907520883097 279.09520762970175,386.97943115062367 189.50000000000003,371.1813787033303 131.0208814354742,301.48867906231396 131.02088143547417,210.51132093768607 189.49999999999994,140.81862129666968 279.0952076297017,125.02056884937633 357.88391093482403,170.50924791169024" fill="none" stroke="#ff8a65" stroke-width="4" opacity="0.7">
        <animateTransform attributeName="transform" type="rotate"
          from="0 256 256" to="-360 256 256"
          dur="3.750706527053502s" repeatCount="indefinite"/>
      </polygon>
    </g>
    <g>
      <polygon points="433,256 404.90187531111906,351.6934246896408 329.5284573013339,417.0048631777497 230.81027362562855,431.1983952129251 140.08965009168458,389.76767466070373 86.16974367023397,305.86666256093304 86.16974367023394,206.133337439067 140.08965009168452,122.2323253392963 230.81027362562853,80.80160478707492 329.52845730133384,94.9951368222502 404.90187531111906,160.30657531035925" fill="none" stroke="#64b5f6" stroke-width="4" opacity="0.7">
        <animateTransform attributeName="transform" type="rotate"
          from="0 256 256" to="-360 256 256"
          dur="3.767070970276415s" repeatCount="indefinite"/>
      </polygon>
    </g>
  <text x="50%" y="95%" text-anchor="middle" font-size="32" fill="#222" opacity="0.7" font-family="Arial">Mandala #54</text>
</svg>