<svg width="512" height="512" viewBox="0 0 512 512" xmlns="http://www.w3.org/2000/svg">
  <rect width="100%" height="100%" fill="#fff7e6" />
  
    <g>
      <polygon points="355,256 317.7254903840146,333.401316764335 233.97042753832488,352.51786330600055 166.8040820776605,298.95449017263826 166.8040820776605,213.04550982736174 233.97042753832486,159.48213669399945 317.7254903840146,178.59868323566502" fill="none" stroke="#f48fb1" stroke-width="3" opacity="0.7">
        <animateTransform attributeName="transform" type="rotate"
          from="0 256 256" to="-360 256 256"
          dur="2.079617696522531s" repeatCount="indefinite"/>
      </polygon>
    </g>
    <g>
      <polygon points="376,256 362.25472307838515,311.7667806452522 324.1677696077387,354.75806390723875 270.46440163063875,375.12506489176644 213.44741355489575,368.2019491222498 166.17871021946786,335.5747189888954 139.48698190887376,284.7178797145069 139.48698190887376,227.2821202854931 166.17871021946786,176.4252810111046 213.4474135548957,143.79805087775023 270.4644016306388,136.87493510823353 324.1677696077386,157.24193609276116 362.2547230783852,200.2332193547478" fill="none" stroke="#f48fb1" stroke-width="3" opacity="0.7">
        <animateTransform attributeName="transform" type="rotate"
          from="0 256 256" to="360 256 256"
          dur="3.412894945032771s" repeatCount="indefinite"/>
      </polygon>
    </g>
    <g>
      <polygon points="419,256 393.1243258514825,344.12445324526243 323.71264711930746,404.2700152427865 232.80268136145455,417.3408950265921 149.25770036691853,379.18718061974414 99.60264530083694,301.922406765153 99.60264530083691,210.077593234847 149.25770036691853,132.81281938025592 232.80268136145452,94.65910497340798 323.7126471193074,107.72998475721349 393.1243258514825,167.87554675473763" fill="none" stroke="#ba68c8" stroke-width="4" opacity="0.7">
        <animateTransform attributeName="transform" type="rotate"
          from="0 256 256" to="-360 256 256"
          dur="4.0886951253353825s" repeatCount="indefinite"/>
      </polygon>
    </g>
    <g>
      <polygon points="457,256 430.0711061606722,356.5 356.5,430.0711061606721 256,457 155.50000000000006,430.0711061606722 81.92889383932783,356.5 55,256 81.9288938393278,155.50000000000006 155.49999999999991,81.92889383932786 255.99999999999997,55 356.5,81.92889383932786 430.0711061606721,155.49999999999991" fill="none" stroke="#ffd54f" stroke-width="3" opacity="0.7">
        <animateTransform attributeName="transform" type="rotate"
          from="0 256 256" to="360 256 256"
          dur="4.702352201076274s" repeatCount="indefinite"/>
      </polygon>
    </g>
    <g>
      <polygon points="512,256 437.01933598375615,437.01933598375615 256,512 74.98066401624385,437.01933598375615 0,256.00000000000006 74.9806640162438,74.98066401624385 255.99999999999994,0 437.01933598375615,74.9806640162438" fill="none" stroke="#ffd54f" stroke-width="3" opacity="0.7">
        <animateTransform attributeName="transform" type="rotate"
          from="0 256 256" to="-360 256 256"
          dur="3.3321966135112753s" repeatCount="indefinite"/>
      </polygon>
    </g>
  <text x="50%" y="95%" text-anchor="middle" font-size="32" fill="#222" opacity="0.7" font-family="Arial">Mandala #57</text>
</svg>