<svg width="512" height="512" viewBox="0 0 512 512" xmlns="http://www.w3.org/2000/svg">
  <rect width="100%" height="100%" fill="#f0f4c3" />
  
    <g>
      <polygon points="349,256 327.24213321006494,315.77924770084815 272.1492805230245,347.58712103013534 209.50000000000003,336.5403625519528 168.60858626691052,287.8078733292872 168.60858626691052,224.1921266707128 209.49999999999994,175.4596374480472 272.14928052302446,164.41287896986466 327.24213321006494,196.22075229915183" fill="none" stroke="#f48fb1" stroke-width="4" opacity="0.7">
        <animateTransform attributeName="transform" type="rotate"
          from="0 256 256" to="360 256 256"
          dur="2.1058462634457786s" repeatCount="indefinite"/>
      </polygon>
    </g>
    <g>
      <polygon points="391,256 372.9134295108992,323.5 323.5,372.9134295108992 256,391 188.50000000000003,372.9134295108992 139.08657048910078,323.5 121,256 139.08657048910078,188.50000000000006 188.49999999999994,139.0865704891008 255.99999999999997,121 323.5,139.08657048910078 372.91342951089916,188.49999999999994" fill="none" stroke="#4db6ac" stroke-width="4" opacity="0.7">
        <animateTransform attributeName="transform" type="rotate"
          from="0 256 256" to="-360 256 256"
          dur="2.8532350262800135s" repeatCount="indefinite"/>
      </polygon>
    </g>
    <g>
      <polygon points="435,256 400.81404199311555,361.2135601603527 311.3140419931156,426.2391164168325 200.68595800688442,426.23911641683253 111.18595800688442,361.2135601603527 77,256 111.18595800688442,150.78643983964733 200.6859580068844,85.76088358316753 311.31404199311555,85.7608835831675 400.81404199311555,150.78643983964727" fill="none" stroke="#64b5f6" stroke-width="4" opacity="0.7">
        <animateTransform attributeName="transform" type="rotate"
          from="0 256 256" to="-360 256 256"
          dur="2.6540098369140743s" repeatCount="indefinite"/>
      </polygon>
    </g>
  <text x="50%" y="95%" text-anchor="middle" font-size="32" fill="#222" opacity="0.7" font-family="Arial">Mandala #34</text>
</svg>