<svg width="512" height="512" viewBox="0 0 512 512" xmlns="http://www.w3.org/2000/svg">
  <rect width="100%" height="100%" fill="#f0f4c3" />
  
    <g>
      <polygon points="350,256 339.23286641140174,299.6839781721142 309.39808619272867,333.3604833940037 267.33044794400035,349.31463416521706 222.66714061800167,343.891526812429 185.63998967191648,318.33352987463473 164.7314691619511,278.4956724430304 164.7314691619511,233.5043275569696 185.63998967191648,193.66647012536527 222.6671406180016,168.108473187571 267.33044794400035,162.68536583478294 309.39808619272856,178.63951660599622 339.23286641140174,212.31602182788578" fill="none" stroke="#ff8a65" stroke-width="4" opacity="0.7">
        <animateTransform attributeName="transform" type="rotate"
          from="0 256 256" to="-360 256 256"
          dur="2.604961457168465s" repeatCount="indefinite"/>
      </polygon>
    </g>
    <g>
      <polygon points="394,256 372.092987530703,330.60843280887246 313.32727179426035,381.5292153589235 236.36055231828666,392.5953589795687 165.62921871555068,360.2934412608877 123.58996964119936,294.8790928441173 123.58996964119936,217.12090715588275 165.62921871555062,151.70655873911238 236.36055231828664,119.40464102043128 313.3272717942603,130.47078464107642 372.092987530703,181.39156719112754" fill="none" stroke="#f48fb1" stroke-width="4" opacity="0.7">
        <animateTransform attributeName="transform" type="rotate"
          from="0 256 256" to="360 256 256"
          dur="2.8629168166801557s" repeatCount="indefinite"/>
      </polygon>
    </g>
    <g>
      <polygon points="416,256 397.6729641045136,330.35570752700295 346.89035947698494,387.67741854298504 275.28586884085166,414.83341985568865 199.2632180731943,405.60259882966636 136.2382802926238,362.0996253185272 100.64930921183168,294.29050628600925 100.64930921183165,217.7094937139908 136.23828029262378,149.9003746814728 199.26321807319425,106.39740117033364 275.2858688408517,97.16658014431135 346.89035947698477,124.32258145701488 397.6729641045136,181.64429247299705" fill="none" stroke="#90a4ae" stroke-width="4" opacity="0.7">
        <animateTransform attributeName="transform" type="rotate"
          from="0 256 256" to="360 256 256"
          dur="2.844903264564735s" repeatCount="indefinite"/>
      </polygon>
    </g>
    <g>
      <polygon points="468,256 418.40142194122336,392.27097325354634 292.81341366538925,464.7792436385881 150.00000000000006,439.597385602301 56.78516439338745,328.5082703850418 56.78516439338742,183.49172961495825 149.9999999999999,72.40261439769904 292.81341366538913,47.22075636141187 418.4014219412233,119.7290267464536" fill="none" stroke="#ff8a65" stroke-width="3" opacity="0.7">
        <animateTransform attributeName="transform" type="rotate"
          from="0 256 256" to="360 256 256"
          dur="3.023749240532747s" repeatCount="indefinite"/>
      </polygon>
    </g>
  <text x="50%" y="95%" text-anchor="middle" font-size="32" fill="#222" opacity="0.7" font-family="Arial">Mandala #84</text>
</svg>