<svg width="512" height="512" viewBox="0 0 512 512" xmlns="http://www.w3.org/2000/svg">
  <rect width="100%" height="100%" fill="#ffebee" />
  
    <g>
      <polygon points="352,256 333.665631459995,312.42738422007744 285.665631459995,347.30142556433475 226.33436854000504,347.30142556433475 178.33436854000507,312.42738422007744 160,256 178.33436854000504,199.5726157799226 226.33436854000504,164.69857443566525 285.6656314599949,164.69857443566525 333.6656314599949,199.57261577992256" fill="none" stroke="#90a4ae" stroke-width="4" opacity="0.7">
        <animateTransform attributeName="transform" type="rotate"
          from="0 256 256" to="-360 256 256"
          dur="4.991013595107149s" repeatCount="indefinite"/>
      </polygon>
    </g>
    <g>
      <polygon points="389,256 371.1813787033303,322.5 322.5,371.1813787033303 256,389 189.50000000000003,371.1813787033303 140.81862129666965,322.5 123,256 140.81862129666962,189.50000000000006 189.49999999999994,140.81862129666968 255.99999999999997,123 322.5,140.81862129666968 371.1813787033303,189.49999999999994" fill="none" stroke="#ba68c8" stroke-width="4" opacity="0.7">
        <animateTransform attributeName="transform" type="rotate"
          from="0 256 256" to="-360 256 256"
          dur="3.1624539056570846s" repeatCount="indefinite"/>
      </polygon>
    </g>
    <g>
      <polygon points="435,256 393.12195531829707,371.05898213389054 287.0830238023805,432.28058778918523 166.50000000000006,411.01854727741454 87.79502087932241,317.22160565529475 87.79502087932238,194.7783943447053 166.49999999999991,100.98145272258552 287.08302380238047,79.71941221081474 393.121955318297,140.9410178661094" fill="none" stroke="#ffd54f" stroke-width="3" opacity="0.7">
        <animateTransform attributeName="transform" type="rotate"
          from="0 256 256" to="-360 256 256"
          dur="4.414737187400547s" repeatCount="indefinite"/>
      </polygon>
    </g>
  <text x="50%" y="95%" text-anchor="middle" font-size="32" fill="#222" opacity="0.7" font-family="Arial">Mandala #83</text>
</svg>