<svg width="512" height="512" viewBox="0 0 512 512" xmlns="http://www.w3.org/2000/svg">
  <rect width="100%" height="100%" fill="#fff7e6" />
  
    <g>
      <polygon points="349,256 327.24213321006494,315.77924770084815 272.1492805230245,347.58712103013534 209.50000000000003,336.5403625519528 168.60858626691052,287.8078733292872 168.60858626691052,224.1921266707128 209.49999999999994,175.4596374480472 272.14928052302446,164.41287896986466 327.24213321006494,196.22075229915183" fill="none" stroke="#4db6ac" stroke-width="4" opacity="0.7">
        <animateTransform attributeName="transform" type="rotate"
          from="0 256 256" to="-360 256 256"
          dur="4.740906400416317s" repeatCount="indefinite"/>
      </polygon>
    </g>
    <g>
      <polygon points="394,256 367.64434522374273,337.1143648163613 298.64434522374273,387.24579924873115 213.35565477625727,387.2457992487312 144.35565477625727,337.11436481636133 118,256 144.35565477625727,174.88563518363873 213.35565477625724,124.75420075126883 298.64434522374273,124.7542007512688 367.64434522374273,174.88563518363867" fill="none" stroke="#ff8a65" stroke-width="3" opacity="0.7">
        <animateTransform attributeName="transform" type="rotate"
          from="0 256 256" to="-360 256 256"
          dur="4.723244485160933s" repeatCount="indefinite"/>
      </polygon>
    </g>
    <g>
      <polygon points="426,256 393.5328890437411,355.9234928897204 308.5328890437411,417.67960777017606 203.46711095625895,417.6796077701761 118.46711095625895,355.9234928897205 86,256 118.46711095625892,156.07650711027958 203.46711095625892,94.32039222982391 308.532889043741,94.32039222982388 393.5328890437411,156.07650711027952" fill="none" stroke="#ff8a65" stroke-width="4" opacity="0.7">
        <animateTransform attributeName="transform" type="rotate"
          from="0 256 256" to="360 256 256"
          dur="4.948454612543549s" repeatCount="indefinite"/>
      </polygon>
    </g>
  <text x="50%" y="95%" text-anchor="middle" font-size="32" fill="#222" opacity="0.7" font-family="Arial">Mandala #59</text>
</svg>