<svg width="512" height="512" viewBox="0 0 512 512" xmlns="http://www.w3.org/2000/svg">
  <rect width="100%" height="100%" fill="#f0f4c3" />
  
    <g>
      <polygon points="338,256 307.1261637524162,320.11018156237844 237.75328341558222,335.94408879890955 182.12055283200164,291.57846660763977 182.12055283200164,220.42153339236023 237.7532834155822,176.05591120109045 307.1261637524161,191.88981843762156" fill="none" stroke="#90a4ae" stroke-width="3" opacity="0.7">
        <animateTransform attributeName="transform" type="rotate"
          from="0 256 256" to="360 256 256"
          dur="4.340030248123952s" repeatCount="indefinite"/>
      </polygon>
    </g>
    <g>
      <polygon points="391,256 340.17112325092904,361.54725013318404 225.95967391589755,387.6152681445462 134.36920283317343,314.57430478087036 134.3692028331734,197.42569521912966 225.95967391589753,124.38473185545382 340.171123250929,150.45274986681596" fill="none" stroke="#90a4ae" stroke-width="4" opacity="0.7">
        <animateTransform attributeName="transform" type="rotate"
          from="0 256 256" to="-360 256 256"
          dur="2.448274141701988s" repeatCount="indefinite"/>
      </polygon>
    </g>
    <g>
      <polygon points="429,256 409.1838924380053,336.39710876357196 354.27520118448996,398.3762087996025 276.85284568417086,427.73863521896334 194.65335454164136,417.75780998457674 126.50764056639949,370.72021987565756 88.027065585293,297.4016099217475 88.02706558529297,214.59839007825258 126.50764056639949,141.27978012434247 194.6533545416413,94.24219001542326 276.8528456841709,84.26136478103666 354.2752011844898,113.62379120039733 409.18389243800533,175.60289123642806" fill="none" stroke="#90a4ae" stroke-width="3" opacity="0.7">
        <animateTransform attributeName="transform" type="rotate"
          from="0 256 256" to="360 256 256"
          dur="2.6178335247397597s" repeatCount="indefinite"/>
      </polygon>
    </g>
    <g>
      <polygon points="460,256 383.1919195791817,415.4936224234781 210.6057294729119,454.885294085092 72.20235094790652,344.5122827799819 72.2023509479065,167.48771722001817 210.60572947291183,57.11470591490797 383.1919195791816,96.50637757652188" fill="none" stroke="#64b5f6" stroke-width="3" opacity="0.7">
        <animateTransform attributeName="transform" type="rotate"
          from="0 256 256" to="360 256 256"
          dur="2.2208597672498094s" repeatCount="indefinite"/>
      </polygon>
    </g>
    <g>
      <polygon points="500,256 453.4001466274872,399.41960155936346 331.4001466274872,488.0577899760175 180.59985337251285,488.0577899760175 58.599853372512854,399.4196015593635 12,256.00000000000006 58.599853372512825,112.58039844063657 180.5998533725128,23.94221002398254 331.4001466274871,23.94221002398251 453.4001466274872,112.58039844063649" fill="none" stroke="#64b5f6" stroke-width="4" opacity="0.7">
        <animateTransform attributeName="transform" type="rotate"
          from="0 256 256" to="360 256 256"
          dur="4.569315507159453s" repeatCount="indefinite"/>
      </polygon>
    </g>
  <text x="50%" y="95%" text-anchor="middle" font-size="32" fill="#222" opacity="0.7" font-family="Arial">Mandala #73</text>
</svg>