<svg width="512" height="512" viewBox="0 0 512 512" xmlns="http://www.w3.org/2000/svg">
  <rect width="100%" height="100%" fill="#f0f4c3" />
  
    <g>
      <polygon points="345,256 328.0025124993703,308.3128874540301 283.5025124993703,340.64402995026865 228.4974875006297,340.64402995026865 183.9974875006297,308.31288745403015 167,256 183.9974875006297,203.6871125459699 228.49748750062966,171.35597004973135 283.5025124993703,171.35597004973133 328.0025124993703,203.68711254596985" fill="none" stroke="#90a4ae" stroke-width="4" opacity="0.7">
        <animateTransform attributeName="transform" type="rotate"
          from="0 256 256" to="360 256 256"
          dur="4.780982006564681s" repeatCount="indefinite"/>
      </polygon>
    </g>
    <g>
      <polygon points="393,256 360.9480887073,344.06190252705585 279.7898003403695,390.9186621626725 187.50000000000003,374.6454803184681 127.26211095233057,302.85675963561664 127.26211095233054,209.1432403643834 187.49999999999994,137.35451968153194 279.7898003403694,121.08133783732748 360.9480887073,167.9380974729441" fill="none" stroke="#f48fb1" stroke-width="3" opacity="0.7">
        <animateTransform attributeName="transform" type="rotate"
          from="0 256 256" to="-360 256 256"
          dur="4.023329686305222s" repeatCount="indefinite"/>
      </polygon>
    </g>
    <g>
      <polygon points="429,256 409.1838924380053,336.39710876357196 354.27520118448996,398.3762087996025 276.85284568417086,427.73863521896334 194.65335454164136,417.75780998457674 126.50764056639949,370.72021987565756 88.027065585293,297.4016099217475 88.02706558529297,214.59839007825258 126.50764056639949,141.27978012434247 194.6533545416413,94.24219001542326 276.8528456841709,84.26136478103666 354.2752011844898,113.62379120039733 409.18389243800533,175.60289123642806" fill="none" stroke="#ff8a65" stroke-width="3" opacity="0.7">
        <animateTransform attributeName="transform" type="rotate"
          from="0 256 256" to="360 256 256"
          dur="3.82090617498119s" repeatCount="indefinite"/>
      </polygon>
    </g>
    <g>
      <polygon points="461,256 400.9568901432423,400.9568901432422 256,461 111.04310985675778,400.9568901432423 51,256 111.04310985675772,111.04310985675778 255.99999999999997,51 400.9568901432422,111.04310985675772" fill="none" stroke="#4db6ac" stroke-width="3" opacity="0.7">
        <animateTransform attributeName="transform" type="rotate"
          from="0 256 256" to="360 256 256"
          dur="3.175464635295371s" repeatCount="indefinite"/>
      </polygon>
    </g>
  <text x="50%" y="95%" text-anchor="middle" font-size="32" fill="#222" opacity="0.7" font-family="Arial">Mandala #71</text>
</svg>