<svg width="512" height="512" viewBox="0 0 512 512" xmlns="http://www.w3.org/2000/svg">
  <rect width="100%" height="100%" fill="#f0f4c3" />
  
    <g>
      <polygon points="354,256 335.28366544874484,313.60295472466237 286.28366544874484,349.20353859692506 225.71633455125516,349.20353859692506 176.71633455125516,313.60295472466237 158,256 176.71633455125516,198.39704527533763 225.71633455125513,162.79646140307494 286.28366544874484,162.79646140307494 335.28366544874484,198.3970452753376" fill="none" stroke="#f48fb1" stroke-width="4" opacity="0.7">
        <animateTransform attributeName="transform" type="rotate"
          from="0 256 256" to="-360 256 256"
          dur="4.858008510815473s" repeatCount="indefinite"/>
      </polygon>
    </g>
    <g>
      <polygon points="389,256 371.1813787033303,322.5 322.5,371.1813787033303 256,389 189.50000000000003,371.1813787033303 140.81862129666965,322.5 123,256 140.81862129666962,189.50000000000006 189.49999999999994,140.81862129666968 255.99999999999997,123 322.5,140.81862129666968 371.1813787033303,189.49999999999994" fill="none" stroke="#4db6ac" stroke-width="4" opacity="0.7">
        <animateTransform attributeName="transform" type="rotate"
          from="0 256 256" to="-360 256 256"
          dur="4.176024856879312s" repeatCount="indefinite"/>
      </polygon>
    </g>
    <g>
      <polygon points="423,256 391.10583806061624,354.16013713284303 307.60583806061624,414.82643822129063 204.3941619393838,414.8264382212907 120.89416193938379,354.16013713284303 89,256 120.89416193938376,157.83986286715702 204.39416193938376,97.17356177870937 307.6058380606162,97.17356177870934 391.1058380606162,157.83986286715697" fill="none" stroke="#64b5f6" stroke-width="4" opacity="0.7">
        <animateTransform attributeName="transform" type="rotate"
          from="0 256 256" to="-360 256 256"
          dur="2.867877130263468s" repeatCount="indefinite"/>
      </polygon>
    </g>
  <text x="50%" y="95%" text-anchor="middle" font-size="32" fill="#222" opacity="0.7" font-family="Arial">Mandala #40</text>
</svg>