<svg width="512" height="512" viewBox="0 0 512 512" xmlns="http://www.w3.org/2000/svg">
  <rect width="100%" height="100%" fill="#ffebee" />
  
    <g>
      <polygon points="350,256 332.04759747124507,311.25181371549246 285.04759747124507,345.39931253174444 226.95240252875496,345.39931253174444 179.95240252875493,311.2518137154925 162,256 179.95240252875493,200.74818628450754 226.95240252875493,166.60068746825556 285.047597471245,166.60068746825556 332.04759747124507,200.7481862845075" fill="none" stroke="#ba68c8" stroke-width="4" opacity="0.7">
        <animateTransform attributeName="transform" type="rotate"
          from="0 256 256" to="360 256 256"
          dur="2.776327085826856s" repeatCount="indefinite"/>
      </polygon>
    </g>
    <g>
      <polygon points="384,256 354.05368871922917,338.276814039877 278.2269667413671,382.05539238556264 192.00000000000003,366.85125168440817 135.71934453940372,299.7785783456856 135.71934453940372,212.2214216543144 191.99999999999994,145.1487483155919 278.22696674136705,129.94460761443736 354.05368871922917,173.72318596012292" fill="none" stroke="#64b5f6" stroke-width="3" opacity="0.7">
        <animateTransform attributeName="transform" type="rotate"
          from="0 256 256" to="-360 256 256"
          dur="3.8188070926318805s" repeatCount="indefinite"/>
      </polygon>
    </g>
    <g>
      <polygon points="435,256 414.4966285919246,339.18544779583453 357.6835896648769,403.3141119949645 277.5760657657028,433.69488846355165 192.52572521938615,423.36790744068924 122.01657607737289,374.69895582510236 82.20141468073669,298.8375039074728 82.20141468073666,213.16249609252722 122.01657607737286,137.3010441748977 192.52572521938606,88.63209255931076 277.5760657657029,78.30511153644835 357.6835896648767,108.6858880050354 414.4966285919246,172.81455220416547" fill="none" stroke="#ffd54f" stroke-width="4" opacity="0.7">
        <animateTransform attributeName="transform" type="rotate"
          from="0 256 256" to="360 256 256"
          dur="2.578876920515553s" repeatCount="indefinite"/>
      </polygon>
    </g>
    <g>
      <polygon points="475,256 449.914869618053,357.7743746775853 380.4061795341231,436.2334666307107 282.39753297591574,473.40324342747385 178.34152973768474,460.76855714810586 92.07614615052884,401.22386215473415 43.36374198369461,308.41013047897513 43.36374198369458,203.58986952102492 92.07614615052881,110.77613784526591 178.34152973768465,51.23144285189417 282.3975329759158,38.596756572526175 380.4061795341229,75.7665333692891 449.914869618053,154.22562532241471" fill="none" stroke="#90a4ae" stroke-width="4" opacity="0.7">
        <animateTransform attributeName="transform" type="rotate"
          from="0 256 256" to="-360 256 256"
          dur="3.433584571672143s" repeatCount="indefinite"/>
      </polygon>
    </g>
  <text x="50%" y="95%" text-anchor="middle" font-size="32" fill="#222" opacity="0.7" font-family="Arial">Mandala #95</text>
</svg>