<svg width="512" height="512" viewBox="0 0 512 512" xmlns="http://www.w3.org/2000/svg">
  <rect width="100%" height="100%" fill="#f0f4c3" />
  
    <g>
      <polygon points="348,256 335.6743371481684,302 302,335.6743371481683 256,348 210.00000000000003,335.6743371481684 176.32566285183162,302 164,256 176.32566285183162,210.00000000000003 209.99999999999994,176.32566285183168 255.99999999999997,164 302,176.32566285183165 335.6743371481683,209.99999999999994" fill="none" stroke="#ffd54f" stroke-width="3" opacity="0.7">
        <animateTransform attributeName="transform" type="rotate"
          from="0 256 256" to="-360 256 256"
          dur="3.26089648550621s" repeatCount="indefinite"/>
      </polygon>
    </g>
    <g>
      <polygon points="378,256 364.02563512969164,312.6962269893398 325.303899101201,356.4040316390261 270.7054749911494,377.1104826399626 212.73820378081066,370.0719816076206 164.68168872312566,336.900964305377 137.54509827402165,285.196511043082 137.54509827402165,226.803488956918 164.68168872312566,175.099035694623 212.73820378081064,141.92801839237939 270.70547499114946,134.88951736003742 325.3038991012009,155.59596836097384 364.02563512969164,199.30377301066025" fill="none" stroke="#ffd54f" stroke-width="4" opacity="0.7">
        <animateTransform attributeName="transform" type="rotate"
          from="0 256 256" to="360 256 256"
          dur="3.43338964570649s" repeatCount="indefinite"/>
      </polygon>
    </g>
    <g>
      <polygon points="423,256 391.10583806061624,354.16013713284303 307.60583806061624,414.82643822129063 204.3941619393838,414.8264382212907 120.89416193938379,354.16013713284303 89,256 120.89416193938376,157.83986286715702 204.39416193938376,97.17356177870937 307.6058380606162,97.17356177870934 391.1058380606162,157.83986286715697" fill="none" stroke="#f48fb1" stroke-width="3" opacity="0.7">
        <animateTransform attributeName="transform" type="rotate"
          from="0 256 256" to="360 256 256"
          dur="3.8493751974844606s" repeatCount="indefinite"/>
      </polygon>
    </g>
    <g>
      <polygon points="462,256 384.43889918289915,417.05728538841413 210.16068760499925,456.83514990945565 70.40041321210168,345.380050258217 70.40041321210165,166.61994974178305 210.1606876049992,55.16485009054435 384.43889918289904,94.94271461158584" fill="none" stroke="#ba68c8" stroke-width="4" opacity="0.7">
        <animateTransform attributeName="transform" type="rotate"
          from="0 256 256" to="360 256 256"
          dur="4.504778912456176s" repeatCount="indefinite"/>
      </polygon>
    </g>
  <text x="50%" y="95%" text-anchor="middle" font-size="32" fill="#222" opacity="0.7" font-family="Arial">Mandala #42</text>
</svg>