<svg width="512" height="512" viewBox="0 0 512 512" xmlns="http://www.w3.org/2000/svg">
  <rect width="100%" height="100%" fill="#f0f4c3" />
  
    <g>
      <polygon points="347,256 312.73757196914477,327.1466649045907 235.7505950099754,344.71844000854594 174.01183302087986,295.4834202596978 174.01183302087986,216.51657974030223 235.75059500997537,167.28155999145406 312.7375719691447,184.85333509540928" fill="none" stroke="#ffd54f" stroke-width="3" opacity="0.7">
        <animateTransform attributeName="transform" type="rotate"
          from="0 256 256" to="-360 256 256"
          dur="2.419839291959929s" repeatCount="indefinite"/>
      </polygon>
    </g>
    <g>
      <polygon points="385,256 370.2238273092641,315.9492891936461 329.2803523283191,362.16491870028165 271.5492317529367,384.05944475864897 210.25596957151294,376.6170953064185 159.44211348592796,341.5428229130626 130.7485055520393,286.8717206930949 130.74850555203926,225.12827930690509 159.44211348592793,170.45717708693746 210.25596957151288,135.3829046935815 271.5492317529367,127.94055524135103 329.28035232831894,149.83508129971824 370.2238273092641,196.0507108063539" fill="none" stroke="#ffd54f" stroke-width="3" opacity="0.7">
        <animateTransform attributeName="transform" type="rotate"
          from="0 256 256" to="360 256 256"
          dur="3.0338206706039976s" repeatCount="indefinite"/>
      </polygon>
    </g>
    <g>
      <polygon points="435,256 367.6046745327133,395.9478353617773 216.16875282181974,430.5120962805464 94.726572645467,333.6651893020429 94.72657264546697,178.3348106979571 216.16875282181968,81.48790371945358 367.60467453271326,116.05216463822265" fill="none" stroke="#f48fb1" stroke-width="4" opacity="0.7">
        <animateTransform attributeName="transform" type="rotate"
          from="0 256 256" to="-360 256 256"
          dur="4.225446410255177s" repeatCount="indefinite"/>
      </polygon>
    </g>
    <g>
      <polygon points="459,256 411.5070219531525,386.48588476636746 291.2505800663869,455.9159738614782 154.50000000000006,431.80315696824107 65.24239798046062,325.4300890951108 65.2423979804606,186.56991090488927 154.49999999999991,80.19684303175899 291.25058006638676,56.08402613852175 411.5070219531525,125.51411523363245" fill="none" stroke="#f48fb1" stroke-width="3" opacity="0.7">
        <animateTransform attributeName="transform" type="rotate"
          from="0 256 256" to="360 256 256"
          dur="2.695760924930385s" repeatCount="indefinite"/>
      </polygon>
    </g>
    <g>
      <polygon points="503,256 469.90827473475633,379.5 379.5,469.90827473475633 256,503 132.50000000000006,469.90827473475633 42.09172526524364,379.5 9,256.00000000000006 42.09172526524361,132.50000000000006 132.4999999999999,42.091725265243696 255.99999999999994,9 379.5,42.09172526524367 469.9082747347563,132.4999999999999" fill="none" stroke="#ff8a65" stroke-width="4" opacity="0.7">
        <animateTransform attributeName="transform" type="rotate"
          from="0 256 256" to="-360 256 256"
          dur="2.3921697219307183s" repeatCount="indefinite"/>
      </polygon>
    </g>
  <text x="50%" y="95%" text-anchor="middle" font-size="32" fill="#222" opacity="0.7" font-family="Arial">Mandala #86</text>
</svg>