<svg width="512" height="512" viewBox="0 0 512 512" xmlns="http://www.w3.org/2000/svg">
  <rect width="100%" height="100%" fill="#e3eaff" />
  
    <g>
      <polygon points="341,256 331.26376218052286,295.5014696237203 304.28550347214826,325.95362860096077 266.24561782170247,340.3802542983346 225.85858460138448,335.47638062826024 192.3765864054564,312.36542595046757 173.46994551878558,276.3418314644424 173.46994551878555,235.65816853555762 192.37658640545638,199.63457404953243 225.85858460138445,176.52361937173976 266.24561782170247,171.6197457016654 304.28550347214815,186.04637139903917 331.26376218052286,216.4985303762797" fill="none" stroke="#64b5f6" stroke-width="3" opacity="0.7">
        <animateTransform attributeName="transform" type="rotate"
          from="0 256 256" to="360 256 256"
          dur="3.1479029434036425s" repeatCount="indefinite"/>
      </polygon>
    </g>
    <g>
      <polygon points="378,256 361.65509926170154,317 317,361.6550992617015 256,378 195.00000000000003,361.65509926170154 150.34490073829846,317 134,256 150.34490073829846,195.00000000000003 194.99999999999994,150.34490073829852 255.99999999999997,134 317,150.3449007382985 361.6550992617015,194.99999999999994" fill="none" stroke="#ff8a65" stroke-width="4" opacity="0.7">
        <animateTransform attributeName="transform" type="rotate"
          from="0 256 256" to="-360 256 256"
          dur="4.873183426190094s" repeatCount="indefinite"/>
      </polygon>
    </g>
    <g>
      <polygon points="425,256 405.6420683353925,334.53821607539686 352.00294219756535,395.08427333602793 276.3706989631496,423.7677997225711 196.0717740898115,414.0177450138351 129.50168355908392,368.0677292426944 91.91083285499721,296.44434726459724 91.91083285499718,215.5556527354028 129.5016835590839,143.93227075730564 196.07177408981144,97.98225498616492 276.3706989631496,88.23220027742889 352.0029421975652,116.91572666397195 405.6420683353925,177.46178392460314" fill="none" stroke="#90a4ae" stroke-width="4" opacity="0.7">
        <animateTransform attributeName="transform" type="rotate"
          from="0 256 256" to="360 256 256"
          dur="2.665034617040466s" repeatCount="indefinite"/>
      </polygon>
    </g>
  <text x="50%" y="95%" text-anchor="middle" font-size="32" fill="#222" opacity="0.7" font-family="Arial">Mandala #31</text>
</svg>