<svg width="512" height="512" viewBox="0 0 512 512" xmlns="http://www.w3.org/2000/svg">
  <rect width="100%" height="100%" fill="#f0f4c3" />
  
    <g>
      <polygon points="342,256 299,330.4781847254617 213.00000000000003,330.47818472546174 170,256 212.99999999999997,181.52181527453828 299,181.52181527453828" fill="none" stroke="#f48fb1" stroke-width="3" opacity="0.7">
        <animateTransform attributeName="transform" type="rotate"
          from="0 256 256" to="-360 256 256"
          dur="4.211360625347261s" repeatCount="indefinite"/>
      </polygon>
    </g>
    <g>
      <polygon points="386,256 365.36295926805354,326.2833062692277 310.00395169024523,374.2521593960874 237.49907102447295,384.67678744452127 170.86810458711295,354.2474446660536 131.26591343011535,292.62523238938587 131.26591343011535,219.37476761061419 170.86810458711292,157.75255533394645 237.49907102447293,127.32321255547876 310.0039516902452,137.7478406039126 365.36295926805354,185.71669373077233" fill="none" stroke="#f48fb1" stroke-width="4" opacity="0.7">
        <animateTransform attributeName="transform" type="rotate"
          from="0 256 256" to="-360 256 256"
          dur="3.1186564771336567s" repeatCount="indefinite"/>
      </polygon>
    </g>
    <g>
      <polygon points="420,256 393.96557938431374,344.665094062718 324.12806213230937,405.179647238141 232.66036652318127,418.330716468473 148.60283963297326,379.9429301940984 98.64315232722242,302.2041393219945 98.64315232722242,209.79586067800557 148.60283963297323,132.05706980590168 232.6603665231812,93.66928353152704 324.1280621323093,106.82035276185897 393.96557938431374,167.33490593728203" fill="none" stroke="#ff8a65" stroke-width="4" opacity="0.7">
        <animateTransform attributeName="transform" type="rotate"
          from="0 256 256" to="360 256 256"
          dur="4.220052197852727s" repeatCount="indefinite"/>
      </polygon>
    </g>
    <g>
      <polygon points="459,256 411.5070219531525,386.48588476636746 291.2505800663869,455.9159738614782 154.50000000000006,431.80315696824107 65.24239798046062,325.4300890951108 65.2423979804606,186.56991090488927 154.49999999999991,80.19684303175899 291.25058006638676,56.08402613852175 411.5070219531525,125.51411523363245" fill="none" stroke="#ba68c8" stroke-width="3" opacity="0.7">
        <animateTransform attributeName="transform" type="rotate"
          from="0 256 256" to="-360 256 256"
          dur="2.823321350869504s" repeatCount="indefinite"/>
      </polygon>
    </g>
    <g>
      <polygon points="503,256 410.0019810591072,449.11237616960335 201.03732931279035,496.8071943089104 33.4606896281025,363.16928356203687 33.46068962810247,148.8307164379632 201.0373293127903,15.192805691089575 410.00198105910715,62.88762383039662" fill="none" stroke="#90a4ae" stroke-width="3" opacity="0.7">
        <animateTransform attributeName="transform" type="rotate"
          from="0 256 256" to="360 256 256"
          dur="3.306353932509883s" repeatCount="indefinite"/>
      </polygon>
    </g>
  <text x="50%" y="95%" text-anchor="middle" font-size="32" fill="#222" opacity="0.7" font-family="Arial">Mandala #68</text>
</svg>