<svg width="512" height="512" viewBox="0 0 512 512" xmlns="http://www.w3.org/2000/svg">
  <rect width="100%" height="100%" fill="#e0f7fa" />
  
    <g>
      <polygon points="347,256 332.5540714876375,305.1983143884594 293.8027661831717,338.7765115772612 243.04934971713107,346.0737512111649 196.40767321097906,324.7732112662375 168.68613940108074,281.6376626725701 168.6861394010807,230.36233732742994 196.40767321097906,187.2267887337625 243.04934971713104,165.92624878883512 293.8027661831716,173.2234884227388 332.5540714876375,206.80168561154062" fill="none" stroke="#ffd54f" stroke-width="4" opacity="0.7">
        <animateTransform attributeName="transform" type="rotate"
          from="0 256 256" to="-360 256 256"
          dur="4.379082267508233s" repeatCount="indefinite"/>
      </polygon>
    </g>
    <g>
      <polygon points="391,256 375.53656346318337,318.73762822590874 332.68874080870603,367.1028218956436 272.2724518344686,390.0156980032373 208.12834024925772,382.227192762531 154.95104899690133,345.52155886250733 124.92285464748298,288.3076146788203 124.92285464748295,223.69238532117976 154.9510489969013,166.47844113749267 208.12834024925766,129.772807237469 272.27245183446865,121.98430199676272 332.6887408087059,144.8971781043563 375.53656346318337,193.26237177409126" fill="none" stroke="#ff8a65" stroke-width="4" opacity="0.7">
        <animateTransform attributeName="transform" type="rotate"
          from="0 256 256" to="360 256 256"
          dur="3.014534871215127s" repeatCount="indefinite"/>
      </polygon>
    </g>
    <g>
      <polygon points="433,256 412.7257165406181,338.256001451747 356.5474601714146,401.66814426317717 277.33499240519217,431.70947071535556 193.23493499347123,421.4978749553184 123.51359757371509,373.37271050862074 84.1432983155888,298.3588725788977 84.14329831558877,213.64112742110234 123.51359757371506,138.6272894913793 193.23493499347114,90.5021250446816 277.3349924051922,80.29052928464444 356.5474601714144,110.33185573682272 412.7257165406182,173.743998548253" fill="none" stroke="#ba68c8" stroke-width="4" opacity="0.7">
        <animateTransform attributeName="transform" type="rotate"
          from="0 256 256" to="360 256 256"
          dur="2.6615279870456554s" repeatCount="indefinite"/>
      </polygon>
    </g>
    <g>
      <polygon points="470,256 407.32085117392114,407.32085117392114 256,470 104.67914882607883,407.32085117392114 42,256 104.6791488260788,104.67914882607883 255.99999999999997,42 407.32085117392114,104.6791488260788" fill="none" stroke="#ba68c8" stroke-width="4" opacity="0.7">
        <animateTransform attributeName="transform" type="rotate"
          from="0 256 256" to="-360 256 256"
          dur="3.9073659947861668s" repeatCount="indefinite"/>
      </polygon>
    </g>
  <text x="50%" y="95%" text-anchor="middle" font-size="32" fill="#222" opacity="0.7" font-family="Arial">Mandala #33</text>
</svg>