<svg width="512" height="512" viewBox="0 0 512 512" xmlns="http://www.w3.org/2000/svg">
  <rect width="100%" height="100%" fill="#fff7e6" />
  
    <g>
      <polygon points="346,256 335.6910423087889,297.8250854839392 307.12582720580406,330.0685479304291 266.84830122297905,345.3437986688249 224.0855601661718,340.15146184168736 188.6340326646009,315.68103924167156 168.61523643165532,277.53840978588016 168.61523643165532,234.46159021411984 188.63403266460088,196.31896075832844 224.08556016617177,171.8485381583127 266.8483012229791,166.65620133117514 307.12582720580394,181.93145206957087 335.6910423087889,214.17491451606085" fill="none" stroke="#f48fb1" stroke-width="4" opacity="0.7">
        <animateTransform attributeName="transform" type="rotate"
          from="0 256 256" to="-360 256 256"
          dur="3.5460979071726513s" repeatCount="indefinite"/>
      </polygon>
    </g>
    <g>
      <polygon points="385,256 320.5,367.7172770881926 191.50000000000003,367.7172770881926 127,256 191.49999999999994,144.28272291180744 320.5,144.2827229118074" fill="none" stroke="#ba68c8" stroke-width="4" opacity="0.7">
        <animateTransform attributeName="transform" type="rotate"
          from="0 256 256" to="360 256 256"
          dur="2.683728314606854s" repeatCount="indefinite"/>
      </polygon>
    </g>
    <g>
      <polygon points="420,256 401.2147882071264,332.21460021517805 349.16261846390955,390.9693540065597 275.76801556187297,418.8042553520809 197.8447985250242,409.342663800408 133.2442372999394,364.7521159514904 96.76554194212747,295.2477689431595 96.76554194212744,216.75223105684057 133.24423729993939,147.2478840485096 197.84479852502412,102.65733619959198 275.768015561873,93.19574464791916 349.1626184639094,121.03064599344026 401.21478820712645,179.78539978482198" fill="none" stroke="#ffd54f" stroke-width="4" opacity="0.7">
        <animateTransform attributeName="transform" type="rotate"
          from="0 256 256" to="-360 256 256"
          dur="2.2459804667980894s" repeatCount="indefinite"/>
      </polygon>
    </g>
    <g>
      <polygon points="473,256 443.9275126212232,364.5 364.5,443.9275126212232 256,473 147.50000000000006,443.9275126212232 68.0724873787768,364.5 39,256 68.07248737877677,147.50000000000006 147.4999999999999,68.07248737877686 255.99999999999997,39 364.5,68.07248737877683 443.9275126212231,147.4999999999999" fill="none" stroke="#4db6ac" stroke-width="3" opacity="0.7">
        <animateTransform attributeName="transform" type="rotate"
          from="0 256 256" to="360 256 256"
          dur="2.8862031177720255s" repeatCount="indefinite"/>
      </polygon>
    </g>
  <text x="50%" y="95%" text-anchor="middle" font-size="32" fill="#222" opacity="0.7" font-family="Arial">Mandala #44</text>
</svg>