<svg width="512" height="512" viewBox="0 0 512 512" xmlns="http://www.w3.org/2000/svg">
  <rect width="100%" height="100%" fill="#f5e663" />
  
    <g>
      <g>
        <animateTransform attributeName="transform" attributeType="XML"
          type="rotate"
          from="0 327.92603220256285 325.47406632403124"
          to="360 327.92603220256285 325.47406632403124"
          dur="4.5s"
          repeatCount="indefinite"/>
        <path d="M392.61303943625563,319.1029522026098 L373.2069372661478,329.9338462090262 L390.1271540251564,344.3425703455713 L368.05344973041304,346.92261784961414 L378.17171167114077,366.7096297946682 L356.79092663200873,360.6460419520358 L358.5668200962527,382.7989485066743 L341.1339850176409,369.01485159984674 L334.2971463239843,390.161073557724 L323.46625231756786,370.7549713876162 L309.0575281810228,387.6751881466248 L306.47748067697995,365.6014838518814 L286.6904687319259,375.71974579260916 L292.7540565745583,354.3389607534771 L270.60115001991977,356.11485421772113 L284.38524692674736,338.6820191391093 L263.23902496887007,331.8451804454527 L282.6451271389779,321.01428643903625 L265.7249103799693,306.6055623024912 L287.79861467471267,304.02551479844834 L277.68035273398493,284.2385028533943 L299.061137773117,290.3020906960267 L297.28524430887296,268.14918414138816 L314.7180793874848,281.93328104821575 L321.5549180811414,260.78705909033846 L332.38581208755784,280.1931612604463 L346.7945362241029,263.2729445014377 L349.37458372814575,285.34664879618106 L369.1615956731998,275.2283868554533 L363.0980078305674,296.60917189458536 L385.25091438520593,294.83327843034135 L371.46681747837835,312.26611350895314 Z" fill="#F5F5F5" stroke="#222" stroke-width="3"/>
        <line x1="364.3260322025628" y1="325.47406632403124" x2="337.0260322025629" y2="325.47406632403124" stroke="#333" stroke-width="2"/><line x1="361.5552471859737" y1="339.4037432621205" x2="336.33333594841554" y2="328.95648555855354" stroke="#333" stroke-width="2"/><line x1="353.6647190377532" y1="351.21275315922156" x2="334.3607039113604" y2="331.9087380328288" stroke="#333" stroke-width="2"/><line x1="341.8557091406521" y1="359.1032813074421" x2="331.40845143708515" y2="333.8813700698839" stroke="#333" stroke-width="2"/><line x1="327.92603220256285" y1="361.8740663240312" x2="327.92603220256285" y2="334.57406632403126" stroke="#333" stroke-width="2"/><line x1="313.9963552644736" y1="359.1032813074421" x2="324.44361296804055" y2="333.8813700698839" stroke="#333" stroke-width="2"/><line x1="302.18734536737253" y1="351.21275315922156" x2="321.4913604937653" y2="331.9087380328288" stroke="#333" stroke-width="2"/><line x1="294.296817219152" y1="339.4037432621205" x2="319.51872845671016" y2="328.95648555855354" stroke="#333" stroke-width="2"/><line x1="291.5260322025629" y1="325.47406632403124" x2="318.8260322025628" y2="325.47406632403124" stroke="#333" stroke-width="2"/><line x1="294.296817219152" y1="311.544389385942" x2="319.51872845671016" y2="321.99164708950894" stroke="#333" stroke-width="2"/><line x1="302.18734536737253" y1="299.7353794888409" x2="321.4913604937653" y2="319.0393946152337" stroke="#333" stroke-width="2"/><line x1="313.9963552644736" y1="291.8448513406204" x2="324.44361296804055" y2="317.06676257817855" stroke="#333" stroke-width="2"/><line x1="327.92603220256285" y1="289.07406632403126" x2="327.92603220256285" y2="316.3740663240312" stroke="#333" stroke-width="2"/><line x1="341.85570914065215" y1="291.8448513406204" x2="331.40845143708515" y2="317.06676257817855" stroke="#333" stroke-width="2"/><line x1="353.6647190377532" y1="299.7353794888409" x2="334.3607039113604" y2="319.0393946152337" stroke="#333" stroke-width="2"/><line x1="361.5552471859737" y1="311.544389385942" x2="336.33333594841554" y2="321.99164708950894" stroke="#333" stroke-width="2"/><circle cx="327.92603220256285" cy="325.47406632403124" r="13" fill="#222"/>
      </g>
    </g>
  
    <g>
      <g>
        <animateTransform attributeName="transform" attributeType="XML"
          type="rotate"
          from="0 204.9046267790162 386.3428664538584"
          to="-360 204.9046267790162 386.3428664538584"
          dur="5.09s"
          repeatCount="indefinite"/>
        <path d="M295.4664369061861,377.42330668386836 L268.29789386803515,392.5865582928514 L291.9861973306472,412.7587720840145 L261.0830113180064,416.37083858967446 L275.2485780350253,444.07265531275016 L245.31547898024044,435.5836323330647 L247.80172983018198,466.5977015095587 L223.39576072012545,447.2999658400001 L213.8241865490062,476.9046765810283 L198.66093494002322,449.7361335428773 L178.48872114886012,473.4244370054894 L174.8766546432002,442.52125099284865 L147.17483792012447,456.68681770986746 L155.66386089980986,426.7537186550826 L124.64979172331591,429.2399695050242 L143.94752739287452,404.83400039496763 L114.3428166518463,395.2624262238484 L141.51135968999728,380.0991746148654 L117.8230562273852,359.92696082370236 L148.726242240026,356.3148943180423 L134.56067552300715,328.6130775949667 L164.493774577792,337.102100574652 L162.0075237278504,306.0880313981581 L186.41349283790694,325.3857670677167 L195.9850670090262,295.7810563266885 L211.1483186180092,322.94959936483946 L231.32053240917224,299.2612959022274 L234.93259891483225,330.1644819148682 L262.634415637908,315.9989151978493 L254.14539265822253,345.93201425263413 L285.15946183471647,343.4457634026926 L265.8617261651579,367.8517325127491 Z" fill="#C0C0C0" stroke="#222" stroke-width="3"/>
        <line x1="255.86462677901622" y1="386.3428664538584" x2="217.64462677901622" y2="386.3428664538584" stroke="#333" stroke-width="2"/><line x1="251.9855277557914" y1="405.84441416718334" x2="216.67485202321" y2="391.21825338218963" stroke="#333" stroke-width="2"/><line x1="240.93878834828269" y1="422.37702802312486" x2="213.91316717133282" y2="395.351406846175" stroke="#333" stroke-width="2"/><line x1="224.4061744923412" y1="433.4237674306336" x2="209.78001370734745" y2="398.1130916980522" stroke="#333" stroke-width="2"/><line x1="204.9046267790162" y1="437.30286645385837" x2="204.9046267790162" y2="399.0828664538584" stroke="#333" stroke-width="2"/><line x1="185.40307906569123" y1="433.4237674306336" x2="200.02923985068497" y2="398.1130916980522" stroke="#333" stroke-width="2"/><line x1="168.87046520974974" y1="422.37702802312486" x2="195.8960863866996" y2="395.351406846175" stroke="#333" stroke-width="2"/><line x1="157.82372580224103" y1="405.84441416718334" x2="193.13440153482242" y2="391.21825338218963" stroke="#333" stroke-width="2"/><line x1="153.9446267790162" y1="386.3428664538584" x2="192.1646267790162" y2="386.3428664538584" stroke="#333" stroke-width="2"/><line x1="157.82372580224103" y1="366.84131874053344" x2="193.13440153482242" y2="381.46747952552715" stroke="#333" stroke-width="2"/><line x1="168.87046520974974" y1="350.3087048845919" x2="195.8960863866996" y2="377.3343260615418" stroke="#333" stroke-width="2"/><line x1="185.40307906569126" y1="339.2619654770832" x2="200.02923985068497" y2="374.5726412096646" stroke="#333" stroke-width="2"/><line x1="204.9046267790162" y1="335.3828664538584" x2="204.9046267790162" y2="373.6028664538584" stroke="#333" stroke-width="2"/><line x1="224.4061744923412" y1="339.2619654770832" x2="209.78001370734745" y2="374.5726412096646" stroke="#333" stroke-width="2"/><line x1="240.93878834828266" y1="350.3087048845919" x2="213.91316717133282" y2="377.3343260615418" stroke="#333" stroke-width="2"/><line x1="251.9855277557914" y1="366.84131874053344" x2="216.67485202321" y2="381.46747952552715" stroke="#333" stroke-width="2"/><circle cx="204.9046267790162" cy="386.3428664538584" r="18.2" fill="#222"/>
      </g>
    </g>
  
    <g>
      <g>
        <animateTransform attributeName="transform" attributeType="XML"
          type="rotate"
          from="0 81.71633773445049 210.99772153203935"
          to="360 81.71633773445049 210.99772153203935"
          dur="4.65s"
          repeatCount="indefinite"/>
        <path d="M198.15295075509755,199.52971611348076 L163.2219668489034,219.02532532503037 L193.67835701511893,244.96102877081145 L153.94568928458077,249.60511427808854 L172.15856077789073,285.2217357791859 L133.67314770745307,274.3072776624475 L136.8697559430922,314.1825094607969 L105.49065280159095,289.37113502850724 L93.18434315300908,327.4343345526864 L73.68873394145949,292.50335064649227 L47.753030495678395,322.95974081270776 L43.10894498840131,283.2270730821696 L7.4923234873039775,301.43994457547956 L18.406781604042337,262.9545315050419 L-21.46845019430704,266.1511397406811 L3.3429242379826007,234.7720365991798 L-34.72027528619654,222.46572695059797 L0.2107086199975754,202.97011773904833 L-30.245681546217952,177.03441429326728 L9.486986184320216,172.39032878599016 L-8.725885308989746,136.77370728489285 L29.759527761447956,147.68816540163118 L26.562919525808738,107.81293360328182 L57.94202266731002,132.62430803557146 L70.24833231589191,94.5611085113923 L89.74394152744146,129.49209241758643 L115.67964497322255,99.0357022513709 L120.32373048049969,138.76836998190907 L155.94035198159702,120.55549848859914 L145.0258938648586,159.04091155903674 L184.901125663208,155.84430332339758 L160.08975123091835,187.2234064648988 Z" fill="#B87333" stroke="#222" stroke-width="3"/>
        <line x1="147.2363377344505" y1="210.99772153203935" x2="98.09633773445049" y2="210.99772153203935" stroke="#333" stroke-width="2"/><line x1="142.24892470459" y1="236.07114002060004" x2="96.84948447698537" y2="217.26607615417953" stroke="#333" stroke-width="2"/><line x1="128.0459740377931" y1="257.3273578353819" x2="93.29874681028613" y2="222.580130607875" stroke="#333" stroke-width="2"/><line x1="106.78975622301118" y1="271.53030850217885" x2="87.98469235659066" y2="226.13086827457423" stroke="#333" stroke-width="2"/><line x1="81.71633773445049" y1="276.51772153203933" x2="81.71633773445049" y2="227.37772153203935" stroke="#333" stroke-width="2"/><line x1="56.642919245889814" y1="271.53030850217885" x2="75.44798311231033" y2="226.13086827457423" stroke="#333" stroke-width="2"/><line x1="35.3867014311079" y1="257.3273578353819" x2="70.13392865861485" y2="222.580130607875" stroke="#333" stroke-width="2"/><line x1="21.183750764310986" y1="236.07114002060004" x2="66.58319099191561" y2="217.26607615417953" stroke="#333" stroke-width="2"/><line x1="16.196337734450495" y1="210.99772153203935" x2="65.3363377344505" y2="210.99772153203935" stroke="#333" stroke-width="2"/><line x1="21.18375076431097" y1="185.92430304347872" x2="66.58319099191561" y2="204.7293669098992" stroke="#333" stroke-width="2"/><line x1="35.38670143110789" y1="164.66808522869675" x2="70.13392865861483" y2="199.4153124562037" stroke="#333" stroke-width="2"/><line x1="56.64291924588983" y1="150.46513456189984" x2="75.44798311231033" y2="195.86457478950447" stroke="#333" stroke-width="2"/><line x1="81.71633773445048" y1="145.47772153203937" x2="81.71633773445049" y2="194.61772153203935" stroke="#333" stroke-width="2"/><line x1="106.78975622301118" y1="150.46513456189984" x2="87.98469235659067" y2="195.86457478950447" stroke="#333" stroke-width="2"/><line x1="128.0459740377931" y1="164.66808522869675" x2="93.29874681028613" y2="199.4153124562037" stroke="#333" stroke-width="2"/><line x1="142.24892470459" y1="185.9243030434787" x2="96.84948447698537" y2="204.72936690989917" stroke="#333" stroke-width="2"/><circle cx="81.71633773445049" cy="210.99772153203935" r="23.400000000000002" fill="#222"/>
      </g>
    </g>
  
    <g>
      <g>
        <animateTransform attributeName="transform" attributeType="XML"
          type="rotate"
          from="0 418.1348718171516 107.29800491978654"
          to="-360 418.1348718171516 107.29800491978654"
          dur="4.01s"
          repeatCount="indefinite"/>
        <path d="M559.3743045222562,84.92787641903352 L517.0024747107249,122.95709487031364 L545.5488047760882,172.21864638254172 L488.916260613925,178.07939371655993 L483.0555132799068,234.71193787872312 L433.7939617676787,206.16560781335983 L395.76474331639855,248.53743762489123 L372.690422793223,196.48775799104214 L317.0186021074753,208.41427462946285 L328.94511874589597,152.7424539437152 L276.8954391120469,129.66813342053956 L319.2672689235783,91.63891496925945 L290.72093885821494,42.37736345703142 L347.3534830203782,36.51661612301314 L353.21423035439636,-20.115928039150063 L402.47578186662446,8.430402026213258 L440.50500031790455,-33.941427785318155 L463.5793208410802,18.108251848530898 L519.2511415268278,6.181735210110219 L507.3246248884072,61.85355589585789 Z" fill="#C9AE5D" stroke="#222" stroke-width="3"/>
        
      </g>
    </g>
  
  <text x="50%" y="95%" text-anchor="middle" font-size="32" fill="#fff" opacity="0.7" font-family="Arial">Gears Collection #7</text>
</svg>