<svg width="512" height="512" viewBox="0 0 512 512" xmlns="http://www.w3.org/2000/svg">
  <rect width="100%" height="100%" fill="#8ec6f3" />
  
    <g>
      <g>
        <animateTransform attributeName="transform" attributeType="XML"
          type="rotate"
          from="0 354.70881998649526 272.01776691282765"
          to="360 354.70881998649526 272.01776691282765"
          dur="4.46s"
          repeatCount="indefinite"/>
        <path d="M414.4199035868271,266.136738493054 L396.5065785067275,276.1344868066692 L412.12524013042776,289.4348475480954 L391.74951308912614,291.81642985951953 L401.0894471882595,310.0813639626464 L381.3533379213684,304.4842059540626 L382.9926241960551,324.93304277372897 L366.9007764311827,312.20926101358043 L360.5898484062689,331.7288505131595 L350.5921000926537,313.8155254330599 L337.29173935122753,329.43418705676015 L334.9101570398034,309.0584600154586 L316.64522293667653,318.3983941145919 L322.2423809452603,298.6622848477008 L301.79354412559394,300.30157112238754 L314.5173258857425,284.2097233575151 L294.99773638616347,277.8987953326013 L312.911061466263,267.9010470189861 L297.2923998425627,254.60068627755993 L317.6681268838644,252.21910396613575 L308.328192784731,233.95416986300893 L328.0643020516222,239.5513278715927 L326.42501577693537,219.10249105192636 L342.5168635418078,231.82627281207488 L348.82779156672166,212.30668331249584 L358.8255398803368,230.2200083925954 L372.125900621763,214.60134676889513 L374.50748293318713,234.97707381019674 L392.772417036314,225.63713971106344 L387.1752590277302,245.37324897795452 L407.6240958473966,243.73396270326776 L394.90031408724803,259.8258104681402 Z" fill="#B87333" stroke="#222" stroke-width="3"/>
        <line x1="388.3088199864953" y1="272.01776691282765" x2="363.10881998649523" y2="272.01776691282765" stroke="#333" stroke-width="2"/><line x1="385.7511722788745" y1="284.8759302402947" x2="362.4694080595901" y2="275.2323077446944" stroke="#333" stroke-width="2"/><line x1="378.46760783436326" y1="295.77655476069566" x2="360.64851694846226" y2="277.95746387479466" stroke="#333" stroke-width="2"/><line x1="367.5669833139623" y1="303.0601192052069" x2="357.923360818362" y2="279.7783549859225" stroke="#333" stroke-width="2"/><line x1="354.70881998649526" y1="305.6177669128277" x2="354.70881998649526" y2="280.41776691282763" stroke="#333" stroke-width="2"/><line x1="341.85065665902823" y1="303.0601192052069" x2="351.4942791546285" y2="279.7783549859225" stroke="#333" stroke-width="2"/><line x1="330.95003213862725" y1="295.77655476069566" x2="348.76912302452826" y2="277.95746387479466" stroke="#333" stroke-width="2"/><line x1="323.666467694116" y1="284.8759302402947" x2="346.94823191340043" y2="275.2323077446944" stroke="#333" stroke-width="2"/><line x1="321.10881998649523" y1="272.01776691282765" x2="346.3088199864953" y2="272.01776691282765" stroke="#333" stroke-width="2"/><line x1="323.666467694116" y1="259.1596035853606" x2="346.94823191340043" y2="268.8032260809609" stroke="#333" stroke-width="2"/><line x1="330.95003213862725" y1="248.25897906495965" x2="348.76912302452826" y2="266.07806995086065" stroke="#333" stroke-width="2"/><line x1="341.85065665902823" y1="240.97541462044842" x2="351.4942791546285" y2="264.25717883973283" stroke="#333" stroke-width="2"/><line x1="354.70881998649526" y1="238.41776691282766" x2="354.70881998649526" y2="263.6177669128277" stroke="#333" stroke-width="2"/><line x1="367.5669833139623" y1="240.97541462044842" x2="357.923360818362" y2="264.25717883973283" stroke="#333" stroke-width="2"/><line x1="378.46760783436326" y1="248.25897906495965" x2="360.64851694846226" y2="266.07806995086065" stroke="#333" stroke-width="2"/><line x1="385.7511722788745" y1="259.1596035853606" x2="362.4694080595901" y2="268.8032260809609" stroke="#333" stroke-width="2"/><circle cx="354.70881998649526" cy="272.01776691282765" r="12" fill="#222"/>
      </g>
    </g>
  
    <g>
      <g>
        <animateTransform attributeName="transform" attributeType="XML"
          type="rotate"
          from="0 182.1562747593506 374.9416001346185"
          to="-360 182.1562747593506 374.9416001346185"
          dur="5.11s"
          repeatCount="indefinite"/>
        <path d="M265.4376431147507,363.97739998813415 L240.45323260813063,382.61654023715755 L259.7621554902987,407.08700845328605 L228.80545116847523,410.73677216033127 L233.29223479608314,441.58328071908227 L204.65806058241787,429.26571664628216 L193.12047490583495,458.2229684900186 L174.48133465681158,433.23855798339855 L150.01086644068306,452.5474808655666 L146.36110273363784,421.5907765437431 L115.51459417488684,426.077560171351 L127.83215824768693,397.4433859576858 L98.87490640395052,385.90580028110287 L123.85931691057054,367.26666003207947 L104.5503940284025,342.79619181595103 L135.50709835022596,339.14642810890575 L131.02031472261802,308.29991955015475 L159.65448893628334,320.61748362295486 L171.19207461286626,291.6602317792184 L189.83121486188966,316.6446422858385 L214.30168307801816,297.33571940367045 L217.95144678506335,328.2924237254939 L248.79795534381432,323.80564009788594 L236.48039127101424,352.43981431155123 Z" fill="#E5E4E2" stroke="#222" stroke-width="3"/>
        
      </g>
    </g>
  
    <g>
      <g>
        <animateTransform attributeName="transform" attributeType="XML"
          type="rotate"
          from="0 99.99054131279411 345.7833436675478"
          to="360 99.99054131279411 345.7833436675478"
          dur="3.73s"
          repeatCount="indefinite"/>
        <path d="M207.06658634116565,331.6865149077822 L174.94377283265416,355.6511237993837 L199.7695308240131,387.1131543629775 L159.96805383881147,391.80570770060706 L165.73677564573592,431.4655044190012 L128.9214087995949,415.6286363254011 L114.0873700725597,452.85938869591934 L90.12276118095822,420.7365751874079 L58.660730617364415,445.5623331787668 L53.96817727973483,405.7608561935652 L14.308380561340698,411.5295780004896 L30.14524865494083,374.7142111543486 L-7.085503715577417,359.88017242731337 L25.03730979293404,335.9155635357119 L0.2115518015751121,304.4535329721182 L40.01302878677674,299.76097963448854 L34.244306979852254,260.10118291609444 L71.05967382599334,275.9380510096945 L85.89371255302854,238.70729863917626 L109.85832144463005,270.8301121476877 L141.32035200822384,246.00435415632884 L146.01290534585337,285.8058311415304 L185.6727020642475,280.03710933460593 L169.8358339706474,316.85247618074703 Z" fill="#9DE09D" stroke="#222" stroke-width="3"/>
        <line x1="160.4705413127941" y1="345.7833436675478" x2="115.11054131279411" y2="345.7833436675478" stroke="#333" stroke-width="2"/><line x1="152.36775773367697" y1="376.0233436675478" x2="113.08484541801482" y2="353.3433436675478" stroke="#333" stroke-width="2"/><line x1="130.23054131279412" y1="398.16056008843066" x2="107.55054131279411" y2="358.8776477727685" stroke="#333" stroke-width="2"/><line x1="99.99054131279411" y1="406.2633436675478" x2="99.99054131279411" y2="360.9033436675478" stroke="#333" stroke-width="2"/><line x1="69.75054131279413" y1="398.16056008843066" x2="92.4305413127941" y2="358.8776477727685" stroke="#333" stroke-width="2"/><line x1="47.613324891911255" y1="376.0233436675478" x2="86.89623720757339" y2="353.3433436675478" stroke="#333" stroke-width="2"/><line x1="39.51054131279411" y1="345.7833436675478" x2="84.8705413127941" y2="345.7833436675478" stroke="#333" stroke-width="2"/><line x1="47.61332489191126" y1="315.5433436675478" x2="86.89623720757339" y2="338.2233436675478" stroke="#333" stroke-width="2"/><line x1="69.75054131279408" y1="293.40612724666494" x2="92.4305413127941" y2="332.6890395623271" stroke="#333" stroke-width="2"/><line x1="99.9905413127941" y1="285.3033436675478" x2="99.99054131279411" y2="330.6633436675478" stroke="#333" stroke-width="2"/><line x1="130.23054131279412" y1="293.40612724666494" x2="107.55054131279411" y2="332.6890395623271" stroke="#333" stroke-width="2"/><line x1="152.36775773367694" y1="315.5433436675478" x2="113.08484541801482" y2="338.2233436675478" stroke="#333" stroke-width="2"/><circle cx="99.99054131279411" cy="345.7833436675478" r="21.6" fill="#222"/>
      </g>
    </g>
  
    <g>
      <g>
        <animateTransform attributeName="transform" attributeType="XML"
          type="rotate"
          from="0 166.22667156932948 55.149932779501"
          to="-360 166.22667156932948 55.149932779501"
          dur="3.98s"
          repeatCount="indefinite"/>
        <path d="M296.6015325278877,34.50058339419053 L257.4890742403202,69.60447734921833 L283.83953276219404,115.07667874512117 L231.56333815096647,120.48659936113798 L226.15341753494965,172.76279397236556 L180.68121613904682,146.41233545049172 L145.57732218401898,185.52479373805917 L124.27794939339537,137.47893561450618 L72.88857645270522,148.4880278961253 L83.89766873432431,97.09865495543512 L35.85181061077131,75.79928216481149 L74.96426889833876,40.69538820978368 L48.6138103764649,-4.7768131861191065 L100.89000498769248,-10.186733802135976 L106.29992560370928,-62.46292841336354 L151.77212699961214,-36.11246989148971 L186.87602095463993,-75.22492817905717 L208.1753937452636,-27.179070055504198 L259.5647666859537,-38.18816233712329 L248.55567440433464,13.201210603566864 Z" fill="#C0C0C0" stroke="#222" stroke-width="3"/>
        
      </g>
    </g>
  
    <g>
      <g>
        <animateTransform attributeName="transform" attributeType="XML"
          type="rotate"
          from="0 487.8398340401036 138.312739209984"
          to="360 487.8398340401036 138.312739209984"
          dur="3.7s"
          repeatCount="indefinite"/>
        <path d="M643.0886514009663,123.02206531857253 L596.5140061927075,149.016210933972 L637.1225264143281,183.59714886168013 L584.1456361069439,189.78926287138293 L608.4294647646906,237.27809153951267 L557.1155806707737,222.72548071719484 L561.3777249849592,275.8924564483274 L519.5389207962909,242.81062387194117 L503.13050793151507,293.56155657084673 L477.1363623161156,246.98691136258788 L442.55542438840746,287.59543158420854 L436.3633103787047,234.61854127682437 L388.8744817105749,258.90236993457097 L403.42709253289274,207.58848584065407 L350.2601168017602,211.85063015483965 L383.3419493781464,170.01182596617127 L332.59101667924085,153.6034131013955 L379.1656618874997,127.60926748599597 L338.55714166587904,93.02832955828791 L391.53403197326327,86.83621554858505 L367.2502033155166,39.34738688045533 L418.56408740943357,53.89999770277309 L414.3019430952479,0.7330219716406248 L456.1407472839163,33.8148545480268 L472.5491601486922,-16.93607815087873 L498.54330576409154,29.6385670573801 L533.1242436917996,-10.969953164240593 L539.3163577015025,42.00693714314363 L586.8051863696323,17.723108485397034 L572.2525755473144,69.03699257931386 L625.419551278447,64.77484826512831 L592.3377187020608,106.61365245379659 Z" fill="#E5E4E2" stroke="#222" stroke-width="3"/>
        
      </g>
    </g>
  
  <text x="50%" y="95%" text-anchor="middle" font-size="32" fill="#fff" opacity="0.7" font-family="Arial">Gears Collection #6</text>
</svg>