<svg width="512" height="512" viewBox="0 0 512 512" xmlns="http://www.w3.org/2000/svg">
  <rect width="100%" height="100%" fill="#1e293b" />
  
    <g>
      <g>
        <animateTransform attributeName="transform" attributeType="XML"
          type="rotate"
          from="0 354.909311738855 270.72915650490535"
          to="360 354.909311738855 270.72915650490535"
          dur="4.31s"
          repeatCount="indefinite"/>
        <path d="M422.5818731525644,264.0639909624952 L402.2801047284516,275.39477238459244 L419.9812545686452,290.46851455820877 L396.8887639218367,293.1676411778228 L407.47402256752116,313.8678998280332 L385.10643206504454,307.52445408497164 L386.96428984302287,330.69980248059346 L368.72686237616745,316.2795164857585 L361.57447728126516,338.40171791861474 L350.24369585916793,318.0999494945019 L335.1699536855516,335.80109933469555 L332.47082706593756,312.708608687887 L311.77056841572715,323.2938673335715 L318.11401415878873,300.92627683109487 L294.9386657631669,302.7841346090732 L309.35895175800187,284.54670714221777 L287.23675032514564,277.3943220473155 L307.53851874925846,266.06354062521825 L289.8373689090648,250.98979845160193 L312.92985955587335,248.29067183198785 L302.3446009101889,227.59041318177748 L324.7121914126655,233.93385892483906 L322.8543336346872,210.7585105292172 L341.0917611015426,225.17879652405222 L348.2441461964449,203.05659509119596 L359.57492761854206,223.35836351530878 L374.64866979215844,205.65721367511514 L377.3477964117725,228.74970432192364 L398.04805506198295,218.16444567623924 L391.70460931892126,240.5320361787158 L414.87995771454314,238.6741784007375 L400.4596717197081,256.91160586759287 Z" fill="#9DE09D" stroke="#222" stroke-width="3"/>
        <line x1="392.989311738855" y1="270.72915650490535" x2="364.429311738855" y2="270.72915650490535" stroke="#333" stroke-width="2"/><line x1="390.0906443368848" y1="285.301741609368" x2="363.70464488836245" y2="274.372302781021" stroke="#333" stroke-width="2"/><line x1="381.83593796643873" y1="297.65578273248906" x2="361.64096829575095" y2="277.4608130618013" stroke="#333" stroke-width="2"/><line x1="369.48189684331766" y1="305.9104891029351" x2="358.5524580149707" y2="279.5244896544128" stroke="#333" stroke-width="2"/><line x1="354.909311738855" y1="308.80915650490533" x2="354.909311738855" y2="280.24915650490533" stroke="#333" stroke-width="2"/><line x1="340.3367266343924" y1="305.9104891029351" x2="351.26616546273937" y2="279.5244896544128" stroke="#333" stroke-width="2"/><line x1="327.9826855112713" y1="297.65578273248906" x2="348.1776551819591" y2="277.4608130618013" stroke="#333" stroke-width="2"/><line x1="319.72797914082525" y1="285.301741609368" x2="346.1139785893476" y2="274.372302781021" stroke="#333" stroke-width="2"/><line x1="316.82931173885504" y1="270.72915650490535" x2="345.38931173885504" y2="270.72915650490535" stroke="#333" stroke-width="2"/><line x1="319.7279791408252" y1="256.1565714004428" x2="346.1139785893476" y2="267.0860102287897" stroke="#333" stroke-width="2"/><line x1="327.9826855112713" y1="243.80253027732164" x2="348.1776551819591" y2="263.9974999480094" stroke="#333" stroke-width="2"/><line x1="340.3367266343924" y1="235.54782390687555" x2="351.26616546273937" y2="261.9338233553979" stroke="#333" stroke-width="2"/><line x1="354.909311738855" y1="232.64915650490536" x2="354.909311738855" y2="261.20915650490537" stroke="#333" stroke-width="2"/><line x1="369.48189684331766" y1="235.54782390687555" x2="358.5524580149707" y2="261.9338233553979" stroke="#333" stroke-width="2"/><line x1="381.83593796643873" y1="243.8025302773216" x2="361.64096829575095" y2="263.9974999480094" stroke="#333" stroke-width="2"/><line x1="390.09064433688485" y1="256.1565714004427" x2="363.70464488836245" y2="267.0860102287897" stroke="#333" stroke-width="2"/><circle cx="354.909311738855" cy="270.72915650490535" r="13.600000000000001" fill="#222"/>
      </g>
    </g>
  
    <g>
      <g>
        <animateTransform attributeName="transform" attributeType="XML"
          type="rotate"
          from="0 146.0414545719483 342.6551688437977"
          to="-360 146.0414545719483 342.6551688437977"
          dur="4.67s"
          repeatCount="indefinite"/>
        <path d="M240.42700537473502,330.2290753444488 L212.111340133899,351.35343429334193 L233.9947860670228,379.0866316049542 L198.9105211689562,383.22303047293883 L203.9955426135785,418.1824068395233 L171.54347850475787,404.2225008903498 L158.46754807129722,437.0407196465844 L137.34318912240408,408.72505440574844 L109.60999181079175,430.6085003388722 L105.47359294280716,395.52423544080557 L70.51421657622271,400.6092568854279 L84.47412252539615,368.1571927766073 L51.655903769161554,355.0812623431466 L79.97156900999758,333.95690339425346 L58.088123076873785,306.22370608264123 L93.17238797494039,302.08730721465656 L88.08736653031806,267.12793084807214 L120.53943063913873,281.08783679724553 L133.61536107259937,248.26961804101097 L154.73972002149256,276.58528328184696 L182.47291733310487,254.70183734872322 L186.60931620108943,289.7861022467898 L221.56869256767385,284.7010808021675 L207.60878661850043,317.15314491098815 Z" fill="#F5F5F5" stroke="#222" stroke-width="3"/>
        <line x1="199.35345457194828" y1="342.6551688437977" x2="159.3694545719483" y2="342.6551688437977" stroke="#333" stroke-width="2"/><line x1="192.21100089850427" y1="369.3111688437977" x2="157.5838411535873" y2="349.3191688437977" stroke="#333" stroke-width="2"/><line x1="172.6974545719483" y1="388.82471517035367" x2="152.70545457194828" y2="354.1975554254367" stroke="#333" stroke-width="2"/><line x1="146.0414545719483" y1="395.9671688437977" x2="146.0414545719483" y2="355.98316884379767" stroke="#333" stroke-width="2"/><line x1="119.38545457194832" y1="388.82471517035367" x2="139.3774545719483" y2="354.1975554254367" stroke="#333" stroke-width="2"/><line x1="99.8719082453923" y1="369.3111688437977" x2="134.4990679903093" y2="349.3191688437977" stroke="#333" stroke-width="2"/><line x1="92.72945457194831" y1="342.6551688437977" x2="132.7134545719483" y2="342.6551688437977" stroke="#333" stroke-width="2"/><line x1="99.87190824539232" y1="315.9991688437977" x2="134.4990679903093" y2="335.9911688437977" stroke="#333" stroke-width="2"/><line x1="119.38545457194827" y1="296.4856225172417" x2="139.37745457194828" y2="331.1127822621587" stroke="#333" stroke-width="2"/><line x1="146.0414545719483" y1="289.3431688437977" x2="146.0414545719483" y2="329.3271688437977" stroke="#333" stroke-width="2"/><line x1="172.6974545719483" y1="296.4856225172417" x2="152.70545457194828" y2="331.1127822621587" stroke="#333" stroke-width="2"/><line x1="192.21100089850427" y1="315.9991688437977" x2="157.5838411535873" y2="335.9911688437977" stroke="#333" stroke-width="2"/><circle cx="146.0414545719483" cy="342.6551688437977" r="19.04" fill="#222"/>
      </g>
    </g>
  
    <g>
      <g>
        <animateTransform attributeName="transform" attributeType="XML"
          type="rotate"
          from="0 92.03269631633029 181.7388168508794"
          to="360 92.03269631633029 181.7388168508794"
          dur="5.37s"
          repeatCount="indefinite"/>
        <path d="M213.3855473484847,165.7624109231451 L176.97969203883835,192.92230100029343 L205.1155510957118,228.57926897236638 L160.0072105124833,233.8974960883466 L166.54509522699772,278.8452657025266 L124.82101280137118,260.8968151964464 L108.00910224406462,303.0916678830338 L80.84921216691629,266.68581257338747 L45.192244194843305,294.8216716302609 L39.874017078863105,249.71333104703243 L-5.073752535316913,256.2512157615468 L12.87469797076325,214.5271333359203 L-29.320154715824103,197.7152227786137 L7.08570059382221,170.5553327014654 L-21.050158463051247,134.89836472939248 L24.058182120177264,129.5801376134122 L17.520297405662845,84.63236799923224 L59.24437983128942,102.58081850531235 L76.05629038859597,60.38596581872501 L103.21618046574436,96.79182112837134 L138.8731484378173,68.65596207149791 L144.19137555379746,113.76430265472638 L189.13914516797746,107.22641794021196 L171.19069466189734,148.95050036583854 Z" fill="#B87333" stroke="#222" stroke-width="3"/>
        <line x1="160.5766963163303" y1="181.7388168508794" x2="109.16869631633028" y2="181.7388168508794" stroke="#333" stroke-width="2"/><line x1="151.39354159333084" y1="216.0108168508794" x2="106.87290763558043" y2="190.3068168508794" stroke="#333" stroke-width="2"/><line x1="126.3046963163303" y1="241.09966212787995" x2="100.60069631633029" y2="196.57902817012953" stroke="#333" stroke-width="2"/><line x1="92.03269631633029" y1="250.28281685087939" x2="92.03269631633029" y2="198.8748168508794" stroke="#333" stroke-width="2"/><line x1="57.7606963163303" y1="241.09966212787998" x2="83.46469631633029" y2="196.57902817012953" stroke="#333" stroke-width="2"/><line x1="32.671851039329724" y1="216.0108168508794" x2="77.19248499708014" y2="190.3068168508794" stroke="#333" stroke-width="2"/><line x1="23.48869631633029" y1="181.7388168508794" x2="74.89669631633029" y2="181.7388168508794" stroke="#333" stroke-width="2"/><line x1="32.67185103932973" y1="147.4668168508794" x2="77.19248499708014" y2="173.1708168508794" stroke="#333" stroke-width="2"/><line x1="57.76069631633026" y1="122.37797157387885" x2="83.46469631633028" y2="166.89860553162927" stroke="#333" stroke-width="2"/><line x1="92.03269631633027" y1="113.1948168508794" x2="92.03269631633029" y2="164.6028168508794" stroke="#333" stroke-width="2"/><line x1="126.3046963163303" y1="122.37797157387885" x2="100.60069631633029" y2="166.89860553162927" stroke="#333" stroke-width="2"/><line x1="151.39354159333084" y1="147.46681685087938" x2="106.87290763558042" y2="173.1708168508794" stroke="#333" stroke-width="2"/><circle cx="92.03269631633029" cy="181.7388168508794" r="24.480000000000004" fill="#222"/>
      </g>
    </g>
  
    <g>
      <g>
        <animateTransform attributeName="transform" attributeType="XML"
          type="rotate"
          from="0 350.48150774077317 57.32125253306475"
          to="-360 350.48150774077317 57.32125253306475"
          dur="4.72s"
          repeatCount="indefinite"/>
        <path d="M499.36114285093385,42.65788833976248 L454.6972523178856,67.58560746837634 L493.6397819663116,100.74784025033233 L442.8363025433329,106.68591881348323 L466.12387156383863,152.22648784394613 L416.91517245839015,138.27090720921058 L421.0024595699424,189.25667367957868 L380.88011914286045,157.5320444909417 L365.1448719340754,206.20088764322543 L340.2171528054616,161.53699711017723 L307.0549200235056,200.4795267586032 L301.11684146035475,149.67604733562453 L255.5762724298918,172.96361635613025 L269.53185306462734,123.75491725068171 L218.54608659425924,127.84220436223404 L250.27071578289625,87.71986393515206 L201.6018726306125,71.98461672636705 L246.2657631636607,47.056897597753164 L207.32323351523468,13.894664815797213 L258.1267129382134,7.956586252646275 L234.83914391770767,-37.5839827778166 L284.04784302315625,-23.628402143081104 L279.9605559116039,-74.61416861344918 L320.0828963386858,-42.88953942481217 L335.8181435474709,-91.55838257709593 L360.7458626760847,-46.89449204404772 L393.9080954580407,-85.83702169247374 L399.84617402119164,-35.033542269495 L445.38674305165455,-58.3211112900007 L431.43116241691894,-9.112412184552255 L482.4169288872871,-13.199699296104555 L450.69229969865006,26.922641130977347 Z" fill="#FFD700" stroke="#222" stroke-width="3"/>
        
      </g>
    </g>
  
  <text x="50%" y="95%" text-anchor="middle" font-size="32" fill="#fff" opacity="0.7" font-family="Arial">Gears Collection #3</text>
</svg>