<svg width="512" height="512" viewBox="0 0 512 512" xmlns="http://www.w3.org/2000/svg">
  <rect width="100%" height="100%" fill="#f5e663" />
  
    <g>
      <g>
        <animateTransform attributeName="transform" attributeType="XML"
          type="rotate"
          from="0 355.7317955286576 263.3190819526796"
          to="360 355.7317955286576 263.3190819526796"
          dur="3.55s"
          repeatCount="indefinite"/>
        <path d="M422.4251945960773,250.05294005558287 L402.41717487585134,272.6053812806473 L412.2717291652307,301.09785779801257 L382.1769386203907,302.89703549828073 L368.9979374257543,330.01248102009924 L346.4454962006899,310.00446129987336 L317.9530196833246,319.85901558925264 L316.15384198305645,289.7642250444127 L289.0383964612379,276.5852238497763 L309.0464161814638,254.0327826247119 L299.1918618920845,225.54030610734662 L329.2866524369245,223.74112840707846 L342.4656536315608,196.62568288525995 L365.0180948566253,216.63370260548584 L393.5105713739905,206.7791483161065 L395.3097490742587,236.87393886094654 Z" fill="#8EC6F3" stroke="#222" stroke-width="3"/>
        
      </g>
    </g>
  
    <g>
      <g>
        <animateTransform attributeName="transform" attributeType="XML"
          type="rotate"
          from="0 161.62217619102552 359.4061234796188"
          to="-360 161.62217619102552 359.4061234796188"
          dur="3.61s"
          repeatCount="indefinite"/>
        <path d="M256.00772699381224,346.98002998026993 L227.69206175297623,368.10438892916306 L249.57550768610002,395.83758624077535 L214.49124278803342,399.97398510875996 L219.57626423265572,434.93336147534444 L187.1242001238351,420.97345552617094 L174.04826969037444,453.79167428240555 L152.9239107414813,425.47600904156957 L125.19071342986898,447.35945497469334 L121.05431456188438,412.2751900766267 L86.09493819529993,417.360211521249 L100.05484414447338,384.90814741242843 L67.23662538823878,371.8322169789677 L95.5522906290748,350.7078580300746 L73.66884469595101,322.97466071846236 L108.75310959401762,318.8382618504777 L103.66808814939529,283.87888548389327 L136.12015225821597,297.83879143306666 L149.1960826916766,265.0205726768321 L170.32044164056978,293.3362379176681 L198.0536389521821,271.4527919845443 L202.19003782016665,306.53705688261095 L237.14941418675107,301.4520354379886 L223.18950823757766,333.9040995468093 Z" fill="#C0C0C0" stroke="#222" stroke-width="3"/>
        
      </g>
    </g>
  
    <g>
      <g>
        <animateTransform attributeName="transform" attributeType="XML"
          type="rotate"
          from="0 76.05850599708188 251.41102015718343"
          to="360 76.05850599708188 251.41102015718343"
          dur="4.4s"
          repeatCount="indefinite"/>
        <path d="M196.1066243184373,227.53196474240934 L160.09218882203066,268.1263589475253 L177.8303865429134,319.41281667878275 L123.65976356220139,322.6513365392655 L99.937561411856,371.4591384785388 L59.343167206740034,335.4447029821322 L8.056709475482563,353.182900703015 L4.818189614999795,299.01227772230294 L-43.98961232427352,275.2900755719575 L-7.975176827866903,234.6956813668416 L-25.713374548749655,183.4092236355841 L28.457248431962306,180.1707037751014 L52.17945058230773,131.36290183582804 L92.77384478742376,167.37733733223467 L144.06030251868117,149.63913961135188 L147.29882237916394,203.80976259206392 Z" fill="#B87333" stroke="#222" stroke-width="3"/>
        
      </g>
    </g>
  
    <g>
      <g>
        <animateTransform attributeName="transform" attributeType="XML"
          type="rotate"
          from="0 337.99480899181754 51.85090914139403"
          to="-360 337.99480899181754 51.85090914139403"
          dur="4.32s"
          repeatCount="indefinite"/>
        <path d="M485.7529847448502,28.448313171375485 L441.4255320189404,68.23272632040701 L471.2893850103974,119.76788790243023 L412.0430311176728,125.89913126724929 L405.91178775285374,185.14548515997387 L354.3766261708305,155.28163216851686 L314.59221302179895,199.60908489442664 L290.4529238590922,145.15711235439994 L232.21163452631004,157.63408360690156 L244.68860577881165,99.39279427411938 L190.23663323878492,75.25350511141258 L234.5640859646947,35.469091962381064 L204.70023297323763,-16.066069619642107 L263.9465868659622,-22.197312984461234 L270.0778302307813,-81.44366687718582 L321.6129918128045,-51.5798138857288 L361.39740496183606,-95.90726661163862 L385.53669412454286,-41.45529407161189 L443.77798345732504,-53.932265324113516 L431.30101220482345,4.309024008668665 Z" fill="#E5E4E2" stroke="#222" stroke-width="3"/>
        
      </g>
    </g>
  
  <text x="50%" y="95%" text-anchor="middle" font-size="32" fill="#fff" opacity="0.7" font-family="Arial">Gears Collection #2</text>
</svg>