<svg width="512" height="512" viewBox="0 0 512 512" xmlns="http://www.w3.org/2000/svg">
  <rect width="100%" height="100%" fill="#9de09d" />
  
    <g>
      <g>
        <animateTransform attributeName="transform" attributeType="XML"
          type="rotate"
          from="0 306.2543292071955 342.4552045624485"
          to="360 306.2543292071955 342.4552045624485"
          dur="3.62s"
          repeatCount="indefinite"/>
        <path d="M372.6811349192408,333.709949683705 L352.7530932056272,348.5768829775689 L368.1542578854517,368.0949945309095 L343.4626008668544,371.0061155829575 L347.0413449507798,395.60987836196125 L324.2021821851182,385.78515463722783 L314.999584085939,408.8820102744938 L300.1326507920751,388.9539685608802 L280.6145392387345,404.35513324070473 L277.7034181866865,379.6634762221074 L253.09965540768275,383.2422203060328 L262.92437913241616,360.4030575403712 L239.82752349515022,351.200459441192 L259.75556520876376,336.3335261473281 L244.35440052893927,316.8154145939875 L269.0460575475366,313.9042935419395 L265.4673134636112,289.30053076293575 L288.3064762292728,299.12525448766917 L297.509074328452,276.0283988504032 L312.37600762231597,295.9564405640168 L331.89411917565656,280.55527588419227 L334.8052402277045,305.2469329027896 L359.40900300670825,301.6681888188642 L349.58427928197483,324.5073515845258 Z" fill="#C0C0C0" stroke="#222" stroke-width="3"/>
        
      </g>
    </g>
  
    <g>
      <g>
        <animateTransform attributeName="transform" attributeType="XML"
          type="rotate"
          from="0 162.40956552819756 360.1193093301106"
          to="-360 162.40956552819756 360.1193093301106"
          dur="5.09s"
          repeatCount="indefinite"/>
        <path d="M255.0547318760215,345.44575650933695 L227.26118197167432,370.39079630465216 L245.98597749706647,402.7036182056801 L208.8381967809063,406.5479405828193 L204.99387440376705,443.6957212989795 L172.68105250273913,424.97092577358734 L147.7360127074239,452.76447567793446 L132.60054931529893,418.6227977083188 L96.08294945289941,426.44592540540873 L103.90607714998933,389.92832554300924 L69.76439918037366,374.7928621508843 L97.55794908472082,349.847822355569 L78.83315355932864,317.53500045454115 L115.98093427548883,313.69067807740186 L119.82525665262807,276.54289736124167 L152.138078553656,295.2676928866339 L177.0831183489712,267.47414298228665 L192.2185817410962,301.6158209519023 L228.7361816034957,293.79269325481243 L220.9130539064058,330.3102931172119 Z" fill="#B87333" stroke="#222" stroke-width="3"/>
        
      </g>
    </g>
  
    <g>
      <g>
        <animateTransform attributeName="transform" attributeType="XML"
          type="rotate"
          from="0 84.02105978501581 202.86579140957403"
          to="360 84.02105978501581 202.86579140957403"
          dur="3.66s"
          repeatCount="indefinite"/>
        <path d="M204.24929023323105,193.40362446479594 L168.18082109876647,209.4893082709187 L201.28887218497562,231.01930229059622 L162.01496991961864,235.1719267698349 L186.84946360611934,265.87911831431745 L148.21453140097043,257.69219564960815 L162.34449441363594,294.5707508609378 L128.1303886183362,274.8456740843465 L130.17268172824564,314.2856630304352 L103.72851740173135,284.9532600895459 L93.48322672979391,323.09402185778924 L77.39754292367114,287.0255527233247 L55.86754890399365,320.13360380953384 L51.71492442475493,280.85970154417686 L21.00773288027238,305.69419523067756 L29.194655544981714,267.05926302552865 L-7.683899666347912,281.1892260381942 L12.04117711024334,246.97512024289443 L-27.39881183584538,249.01741335280389 L1.933591105043945,222.57324902628957 L-36.207170663199435,212.32795835435215 L-0.13870152873485608,196.24227454822937 L-33.246752614943986,174.7122805285518 L6.027149650412966,170.5596560493132 L-18.807344036087727,139.8524645048306 L19.827588169061187,148.03938716953994 L5.697625156395603,111.16083195821034 L39.911730951695425,130.88590873480155 L37.86943784178601,91.44591978871283 L64.31360216830029,120.77832272960217 L74.55889284023763,82.63756096135879 L90.64457664636042,118.70603009582335 L112.17457066603792,85.5979790096142 L116.3271951452767,124.87188127497122 L147.03438668975926,100.03738758847052 L138.84746402504993,138.6723197936194 L175.7260192363795,124.54235678095382 L156.0009424597883,158.75646257625363 L195.440931405877,156.71416946634423 L166.10852846498767,183.15833379285843 Z" fill="#C9AE5D" stroke="#222" stroke-width="3"/>
        <line x1="151.5570597850158" y1="202.86579140957403" x2="100.90505978501581" y2="202.86579140957403" stroke="#333" stroke-width="2"/><line x1="148.2516126695253" y1="223.73556314168047" x2="100.07869800614318" y2="208.08323434260063" stroke="#333" stroke-width="2"/><line x1="138.65883151712225" y1="242.5624562083985" x2="97.68050271804242" y2="212.78995760928015" stroke="#333" stroke-width="2"/><line x1="123.71772458384027" y1="257.5035631416805" x2="93.94522598472193" y2="216.52523434260064" stroke="#333" stroke-width="2"/><line x1="104.89083151712225" y1="267.0963442940835" x2="89.23850271804243" y2="218.9234296307014" stroke="#333" stroke-width="2"/><line x1="84.02105978501581" y1="270.401791409574" x2="84.02105978501581" y2="219.74979140957402" stroke="#333" stroke-width="2"/><line x1="63.151288052909365" y1="267.0963442940835" x2="78.8036168519892" y2="218.9234296307014" stroke="#333" stroke-width="2"/><line x1="44.32439498619135" y1="257.5035631416805" x2="74.09689358530969" y2="216.52523434260064" stroke="#333" stroke-width="2"/><line x1="29.383288052909364" y1="242.5624562083985" x2="70.3616168519892" y2="212.78995760928015" stroke="#333" stroke-width="2"/><line x1="19.790506900506315" y1="223.73556314168047" x2="67.96342156388843" y2="208.08323434260063" stroke="#333" stroke-width="2"/><line x1="16.485059785015807" y1="202.86579140957403" x2="67.13705978501581" y2="202.86579140957403" stroke="#333" stroke-width="2"/><line x1="19.790506900506315" y1="181.99601967746756" x2="67.96342156388843" y2="197.64834847654743" stroke="#333" stroke-width="2"/><line x1="29.383288052909357" y1="163.16912661074957" x2="70.3616168519892" y2="192.9416252098679" stroke="#333" stroke-width="2"/><line x1="44.324394986191336" y1="148.22801967746759" x2="74.09689358530969" y2="189.20634847654742" stroke="#333" stroke-width="2"/><line x1="63.15128805290935" y1="138.63523852506455" x2="78.80361685198919" y2="186.80815318844665" stroke="#333" stroke-width="2"/><line x1="84.0210597850158" y1="135.32979140957403" x2="84.02105978501581" y2="185.98179140957404" stroke="#333" stroke-width="2"/><line x1="104.89083151712225" y1="138.63523852506455" x2="89.23850271804241" y2="186.80815318844665" stroke="#333" stroke-width="2"/><line x1="123.71772458384027" y1="148.22801967746756" x2="93.94522598472192" y2="189.20634847654742" stroke="#333" stroke-width="2"/><line x1="138.65883151712225" y1="163.16912661074954" x2="97.68050271804242" y2="192.9416252098679" stroke="#333" stroke-width="2"/><line x1="148.2516126695253" y1="181.99601967746756" x2="100.07869800614318" y2="197.64834847654743" stroke="#333" stroke-width="2"/><circle cx="84.02105978501581" cy="202.86579140957403" r="24.120000000000005" fill="#222"/>
      </g>
    </g>
  
    <g>
      <g>
        <animateTransform attributeName="transform" attributeType="XML"
          type="rotate"
          from="0 128.23537680912284 76.90170000557467"
          to="-360 128.23537680912284 76.90170000557467"
          dur="3.65s"
          repeatCount="indefinite"/>
        <path d="M274.3743493756225,57.66213927233906 L230.53265760567257,90.36939251883959 L264.4152199012865,133.3092379361889 L210.09357446037248,139.71370425069446 L217.96681144500826,193.84198236450274 L167.7206533605528,172.22759017008923 L147.47493754235848,223.04067257207433 L114.76768429585795,179.19898080212442 L71.82783887850862,213.08154309773835 L65.42337256400305,158.7598976568243 L11.295094450194753,166.63313464146006 L32.90948664460828,116.38697655700463 L-17.90359575737682,96.14126073881027 L25.938096012573084,63.434007492309775 L-7.944466283040867,20.494162074960514 L46.3771791578732,14.089695760454873 L38.50394217323738,-40.03858235335336 L88.7501002576929,-18.424190158939908 L108.99581607588723,-69.23727256092499 L141.70306932238782,-25.395580790975075 L184.6429147397371,-59.27814308658898 L191.04738105424263,-4.956497645674972 L245.17565916805086,-12.829734630310796 L223.56126697363743,37.41642345414473 Z" fill="#C0C0C0" stroke="#222" stroke-width="3"/>
        
      </g>
    </g>
  
    <g>
      <g>
        <animateTransform attributeName="transform" attributeType="XML"
          type="rotate"
          from="0 381.2560471331101 28.160313692745547"
          to="360 381.2560471331101 28.160313692745547"
          dur="4.91s"
          repeatCount="indefinite"/>
        <path d="M554.6172265194068,11.085727847336088 L502.60887270351776,40.112523784532165 L547.955053617661,78.7279044704729 L488.79752610774847,85.64243178130769 L515.9144681088989,138.6716237940526 L458.613964204025,122.42120837579768 L463.3733586881989,181.790997942229 L416.65336067751923,144.84961823193112 L398.33063297851953,201.52149307904227 L369.3038370413235,149.51313926315322 L330.68845635538275,194.85932017729635 L323.77392904454797,135.70179266738398 L270.7447370318031,162.81873466853438 L286.99515245005796,105.51823076366047 L227.62536288362665,110.27762524783438 L264.5667425939246,63.55762723715469 L207.8948677468134,45.23489953815505 L259.9032215627024,16.20810360095893 L214.55704064855928,-22.407277084981757 L273.7145681584717,-29.321804395816606 L246.59762615732126,-82.35099640856147 L303.8981300621952,-66.10058099030663 L299.1387355780212,-125.47037055673789 L345.85873358870094,-88.52899084644 L364.18146128770064,-145.20086569355118 L393.20825722489667,-93.19251187766214 L431.82363791083736,-138.53869279180526 L438.73816522167226,-79.38116528189286 L491.76735723441715,-106.49810728304323 L475.51694181616216,-49.19760337816943 L534.8867313825936,-53.9569978623433 L497.9453516722956,-7.236999851663711 Z" fill="#F5F5F5" stroke="#222" stroke-width="3"/>
        <line x1="478.8080471331101" y1="28.160313692745547" x2="405.64404713311006" y2="28.160313692745547" stroke="#333" stroke-width="2"/><line x1="471.38234328865116" y1="65.49184788682479" x2="403.78762117199534" y2="37.49319724126536" stroke="#333" stroke-width="2"/><line x1="450.23572785142017" y1="97.13999441105562" x2="398.50096731268764" y2="45.405233872323066" stroke="#333" stroke-width="2"/><line x1="418.58758132718935" y1="118.2866098482866" x2="390.5889306816299" y2="50.691887731630814" stroke="#333" stroke-width="2"/><line x1="381.2560471331101" y1="125.71231369274555" x2="381.2560471331101" y2="52.54831369274555" stroke="#333" stroke-width="2"/><line x1="343.9245129390309" y1="118.2866098482866" x2="371.92316358459027" y2="50.691887731630814" stroke="#333" stroke-width="2"/><line x1="312.2763664148" y1="97.13999441105564" x2="364.01112695353254" y2="45.405233872323066" stroke="#333" stroke-width="2"/><line x1="291.129750977569" y1="65.4918478868248" x2="358.72447309422483" y2="37.493197241265364" stroke="#333" stroke-width="2"/><line x1="283.70404713311007" y1="28.160313692745557" x2="356.8680471331101" y2="28.16031369274555" stroke="#333" stroke-width="2"/><line x1="291.129750977569" y1="-9.171220501333643" x2="358.72447309422483" y2="18.82743014422575" stroke="#333" stroke-width="2"/><line x1="312.2763664148" y1="-40.81936702556453" x2="364.01112695353254" y2="10.915393513168027" stroke="#333" stroke-width="2"/><line x1="343.9245129390309" y1="-61.96598246279551" x2="371.92316358459027" y2="5.628739653860283" stroke="#333" stroke-width="2"/><line x1="381.2560471331101" y1="-69.39168630725446" x2="381.2560471331101" y2="3.772313692745545" stroke="#333" stroke-width="2"/><line x1="418.58758132718935" y1="-61.965982462795495" x2="390.5889306816299" y2="5.628739653860286" stroke="#333" stroke-width="2"/><line x1="450.23572785142017" y1="-40.81936702556456" x2="398.50096731268764" y2="10.91539351316802" stroke="#333" stroke-width="2"/><line x1="471.38234328865116" y1="-9.171220501333671" x2="403.78762117199534" y2="18.827430144225744" stroke="#333" stroke-width="2"/><circle cx="381.2560471331101" cy="28.160313692745547" r="34.84" fill="#222"/>
      </g>
    </g>
  
  <text x="50%" y="95%" text-anchor="middle" font-size="32" fill="#fff" opacity="0.7" font-family="Arial">Gears Collection #9</text>
</svg>