<svg width="512" height="512" viewBox="0 0 512 512" xmlns="http://www.w3.org/2000/svg">
  <rect width="100%" height="100%" fill="#f5e663" />
  
    <g>
      <g>
        <animateTransform attributeName="transform" attributeType="XML"
          type="rotate"
          from="0 355.02551764207453 269.92648037801297"
          to="360 355.02551764207453 269.92648037801297"
          dur="4.97s"
          repeatCount="indefinite"/>
        <path d="M416.72697069575077,263.8494176775802 L398.2165347796479,274.1804242683159 L414.35581845747146,287.92413036778964 L393.30090051479317,290.38509875626124 L402.95216575056423,309.258863996159 L382.5581861747768,303.47513405395574 L384.25211532528635,324.60559876761096 L367.6238726349182,311.45769094879086 L361.1025803425073,331.6279334316892 L350.7715737517716,313.1174975155863 L337.02786765229786,329.2567811934099 L334.56689926382626,308.2018632507316 L315.6931340239285,317.85312848650267 L321.47686396613176,297.45914891071516 L300.34639925247654,299.15307806122485 L313.4943070712967,282.52483537085664 L293.3240645883983,276.0035430784457 L311.8345005045012,265.67253648771003 L295.69521682667755,251.92883038823632 L316.7501347693559,249.46786199976466 L307.09886953358483,230.59409675986697 L327.49284910937234,236.37782670207017 L325.79891995886265,215.24736198841498 L342.42716264923087,228.3952698072351 L348.9484549416418,208.22502732433676 L359.27946153237747,226.73546324043963 L373.02316763185115,210.59617956261602 L375.4841360203228,231.65109750529436 L394.35790126022056,221.99983226952327 L388.5741713180173,242.39381184531072 L409.7046360316725,240.6998826948011 L396.55672821285236,257.32812538516924 Z" fill="#FFD700" stroke="#222" stroke-width="3"/>
        <line x1="389.74551764207456" y1="269.92648037801297" x2="363.70551764207454" y2="269.92648037801297" stroke="#333" stroke-width="2"/><line x1="387.10261501086643" y1="283.2132491497289" x2="363.0447919842725" y2="273.24817257094196" stroke="#333" stroke-width="2"/><line x1="379.57626508487147" y1="294.4772278208099" x2="361.16320450277374" y2="276.0641672387122" stroke="#333" stroke-width="2"/><line x1="368.31228641379045" y1="302.00357774680487" x2="358.3472098350035" y2="277.9457547202109" stroke="#333" stroke-width="2"/><line x1="355.02551764207453" y1="304.64648037801294" x2="355.02551764207453" y2="278.606480378013" stroke="#333" stroke-width="2"/><line x1="341.7387488703586" y1="302.00357774680487" x2="351.70382544914554" y2="277.9457547202109" stroke="#333" stroke-width="2"/><line x1="330.4747701992776" y1="294.4772278208099" x2="348.8878307813753" y2="276.0641672387122" stroke="#333" stroke-width="2"/><line x1="322.94842027328264" y1="283.2132491497289" x2="347.0062432998766" y2="273.24817257094196" stroke="#333" stroke-width="2"/><line x1="320.3055176420745" y1="269.92648037801297" x2="346.3455176420745" y2="269.92648037801297" stroke="#333" stroke-width="2"/><line x1="322.94842027328264" y1="256.63971160629706" x2="347.0062432998766" y2="266.604788185084" stroke="#333" stroke-width="2"/><line x1="330.4747701992776" y1="245.37573293521604" x2="348.88783078137527" y2="263.78879351731376" stroke="#333" stroke-width="2"/><line x1="341.7387488703586" y1="237.8493830092211" x2="351.70382544914554" y2="261.907206035815" stroke="#333" stroke-width="2"/><line x1="355.02551764207453" y1="235.20648037801297" x2="355.02551764207453" y2="261.24648037801296" stroke="#333" stroke-width="2"/><line x1="368.31228641379045" y1="237.8493830092211" x2="358.3472098350035" y2="261.907206035815" stroke="#333" stroke-width="2"/><line x1="379.57626508487147" y1="245.37573293521604" x2="361.16320450277374" y2="263.7887935173137" stroke="#333" stroke-width="2"/><line x1="387.10261501086643" y1="256.63971160629706" x2="363.0447919842725" y2="266.604788185084" stroke="#333" stroke-width="2"/><circle cx="355.02551764207453" cy="269.92648037801297" r="12.4" fill="#222"/>
      </g>
    </g>
  
    <g>
      <g>
        <animateTransform attributeName="transform" attributeType="XML"
          type="rotate"
          from="0 153.38924822108783 351.2419740417347"
          to="-360 153.38924822108783 351.2419740417347"
          dur="3.86s"
          repeatCount="indefinite"/>
        <path d="M238.5214105600882,334.30813409073477 L212.9817618583881,363.09566200743467 L225.56081056894874,399.46547026783617 L187.14569557935886,401.76206768523735 L170.32308817208775,436.3741363807351 L141.5355602553879,410.83448767903496 L105.16575199498635,423.4135363895956 L102.86915457758518,384.9984214000057 L68.25708588208742,368.1758139927346 L93.79673458378755,339.3882860760348 L81.2176858732269,303.0184778156332 L119.63280086281677,300.7218803982321 L136.45540827008784,266.1098117027343 L165.24293618678777,291.6494604044344 L201.61274444718927,279.0704116938738 L203.90934186459046,317.48552668346366 Z" fill="#C0C0C0" stroke="#222" stroke-width="3"/>
        
      </g>
    </g>
  
    <g>
      <g>
        <animateTransform attributeName="transform" attributeType="XML"
          type="rotate"
          from="0 95.81443537073562 173.8989349374579"
          to="360 95.81443537073562 173.8989349374579"
          dur="4.77s"
          repeatCount="indefinite"/>
        <path d="M206.8770508673528,162.96022207667895 L173.55826621836763,181.55603394000318 L202.60897683845013,206.2947049190559 L164.7101245416291,210.72444801830486 L182.08240196601707,244.69722545012075 L145.37323872959962,234.2865115541549 L148.42231120051696,272.32134803873436 L118.49147435785423,248.65511396485806 L106.75314823151459,284.9615504340751 L88.15733636819036,251.64276578508992 L63.418665389137615,280.6934764051724 L58.98892228988871,242.79462410835143 L25.016144858072792,260.16690153273936 L35.426858754038605,223.4577382963219 L-2.607977730540796,226.50681076723927 L21.058256343335472,196.57597392457652 L-15.248180125881547,184.8376477982369 L18.070604523103597,166.24183593491264 L-10.9801060969789,141.50316495585994 L26.91874619984212,137.07342185661096 L9.546468775454159,103.10064442479509 L46.25563201187166,113.51135832076088 L43.20655954095425,75.47652183618149 L73.13739638361702,99.14275591005776 L84.87572250995667,62.836319440840725 L103.47153437328086,96.15510408982588 L128.2102053523336,67.10439346974339 L132.63994845158254,105.0032457665644 L166.61272588339847,87.63096834217647 L156.2020119874326,124.34013157859388 L194.236848472012,121.29105910767655 L170.57061439813577,151.22189595033922 Z" fill="#B87333" stroke="#222" stroke-width="3"/>
        <line x1="158.31043537073563" y1="173.8989349374579" x2="111.43843537073562" y2="173.8989349374579" stroke="#333" stroke-width="2"/><line x1="153.553210634561" y1="197.81511872654656" x2="110.24912918669197" y2="179.87798088473008" stroke="#333" stroke-width="2"/><line x1="140.0057807677701" y1="218.09028033449238" x2="106.86227171999424" y2="184.94677128671654" stroke="#333" stroke-width="2"/><line x1="119.73061915982429" y1="231.63771020128328" x2="101.79348131800779" y2="188.33362875341425" stroke="#333" stroke-width="2"/><line x1="95.81443537073562" y1="236.39493493745792" x2="95.81443537073562" y2="189.5229349374579" stroke="#333" stroke-width="2"/><line x1="71.89825158164697" y1="231.63771020128328" x2="89.83538942346345" y2="188.33362875341425" stroke="#333" stroke-width="2"/><line x1="51.62308997370115" y1="218.09028033449238" x2="84.766599021477" y2="184.94677128671654" stroke="#333" stroke-width="2"/><line x1="38.07566010691024" y1="197.8151187265466" x2="81.37974155477927" y2="179.87798088473008" stroke="#333" stroke-width="2"/><line x1="33.318435370735614" y1="173.8989349374579" x2="80.19043537073563" y2="173.8989349374579" stroke="#333" stroke-width="2"/><line x1="38.07566010691023" y1="149.9827511483693" x2="81.37974155477927" y2="167.91988899018577" stroke="#333" stroke-width="2"/><line x1="51.623089973701134" y1="129.70758954042344" x2="84.766599021477" y2="162.85109858819928" stroke="#333" stroke-width="2"/><line x1="71.89825158164699" y1="116.16015967363252" x2="89.83538942346347" y2="159.46424112150157" stroke="#333" stroke-width="2"/><line x1="95.81443537073561" y1="111.4029349374579" x2="95.81443537073562" y2="158.2749349374579" stroke="#333" stroke-width="2"/><line x1="119.7306191598243" y1="116.16015967363253" x2="101.79348131800779" y2="159.46424112150157" stroke="#333" stroke-width="2"/><line x1="140.0057807677701" y1="129.7075895404234" x2="106.86227171999424" y2="162.85109858819928" stroke="#333" stroke-width="2"/><line x1="153.55321063456103" y1="149.98275114836926" x2="110.24912918669197" y2="167.91988899018574" stroke="#333" stroke-width="2"/><circle cx="95.81443537073562" cy="173.8989349374579" r="22.320000000000004" fill="#222"/>
      </g>
    </g>
  
    <g>
      <g>
        <animateTransform attributeName="transform" attributeType="XML"
          type="rotate"
          from="0 318.7246967886035 45.131291053466754"
          to="-360 318.7246967886035 45.131291053466754"
          dur="4.13s"
          repeatCount="indefinite"/>
        <path d="M453.95777587999123,27.32751843465172 L413.38785215257496,57.59393188663728 L444.741865023143,97.329311228065 L394.47407371961066,103.2558322952194 L401.759755705393,153.34468666919122 L355.2633109108223,133.3433088176444 L336.5284694074186,180.3643701448545 L306.262055955433,139.79444641743817 L266.5266766140053,171.14845928800628 L260.6001555468509,120.88066798447389 L210.51130117287903,128.16634997025622 L230.51267902442586,81.66990517568553 L183.4916176972158,62.935063672281785 L224.06154142463208,32.66865022029626 L192.70752855406397,-7.0667291211314165 L242.9753198575964,-12.993250188285899 L235.689637871814,-63.0821045622577 L282.1860826663848,-43.08072671071092 L300.92092416978846,-90.10178803792098 L331.1873376217741,-49.53186431050466 L370.9227169632018,-80.88587718107274 L376.84923803035616,-30.61808587754038 L426.93809240432796,-37.903767863322784 L406.9367145527812,8.592676931248 Z" fill="#FFD700" stroke="#222" stroke-width="3"/>
        <line x1="395.10869678860354" y1="45.131291053466754" x2="337.8206967886035" y2="45.131291053466754" stroke="#333" stroke-width="2"/><line x1="384.8751812312741" y1="83.32329105346675" x2="335.2623178992712" y2="54.679291053466756" stroke="#333" stroke-width="2"/><line x1="356.91669678860353" y1="111.28177549613731" x2="328.2726967886035" y2="61.6689121641344" stroke="#333" stroke-width="2"/><line x1="318.7246967886035" y1="121.51529105346675" x2="318.7246967886035" y2="64.22729105346676" stroke="#333" stroke-width="2"/><line x1="280.5326967886035" y1="111.28177549613731" x2="309.1766967886035" y2="61.6689121641344" stroke="#333" stroke-width="2"/><line x1="252.57421234593295" y1="83.32329105346675" x2="302.18707567793587" y2="54.679291053466756" stroke="#333" stroke-width="2"/><line x1="242.3406967886035" y1="45.13129105346676" x2="299.6286967886035" y2="45.131291053466754" stroke="#333" stroke-width="2"/><line x1="252.57421234593295" y1="6.9392910534667465" x2="302.18707567793587" y2="35.58329105346675" stroke="#333" stroke-width="2"/><line x1="280.5326967886035" y1="-21.019193389203792" x2="309.1766967886035" y2="28.593669942799117" stroke="#333" stroke-width="2"/><line x1="318.7246967886035" y1="-31.252708946533247" x2="318.7246967886035" y2="26.035291053466754" stroke="#333" stroke-width="2"/><line x1="356.91669678860353" y1="-21.019193389203807" x2="328.2726967886035" y2="28.593669942799114" stroke="#333" stroke-width="2"/><line x1="384.87518123127404" y1="6.939291053466718" x2="335.2623178992712" y2="35.583291053466745" stroke="#333" stroke-width="2"/><circle cx="318.7246967886035" cy="45.131291053466754" r="27.28" fill="#222"/>
      </g>
    </g>
  
  <text x="50%" y="95%" text-anchor="middle" font-size="32" fill="#fff" opacity="0.7" font-family="Arial">Gears Collection #8</text>
</svg>