<svg width="512" height="512" viewBox="0 0 512 512" xmlns="http://www.w3.org/2000/svg">
  <rect width="100%" height="100%" fill="#1e293b" />
  
    <g>
      <g>
        <animateTransform attributeName="transform" attributeType="XML"
          type="rotate"
          from="0 333.44605140725207 319.26222507488393"
          to="360 333.44605140725207 319.26222507488393"
          dur="4.88s"
          repeatCount="indefinite"/>
        <path d="M395.2355240726556,306.9715347878678 L376.69868227303454,327.86570827579516 L385.82863698231245,354.2631497551189 L357.9466986834165,355.93003497742615 L345.7367416942682,381.05169774028747 L324.84256820634084,362.5148559406664 L298.4451267270171,371.64481064994425 L296.77824150470985,343.7628723510484 L271.65657874184853,331.5529153619 L290.1934205414696,310.6587418739727 L281.0634658321917,284.26130039464897 L308.94540413108757,282.5944151723417 L321.15536112023597,257.47275240948045 L342.0495346081633,276.00959420910146 L368.446976087487,266.87963949982355 L370.1138613097943,294.7615777987195 Z" fill="#FFD700" stroke="#222" stroke-width="3"/>
        
      </g>
    </g>
  
    <g>
      <g>
        <animateTransform attributeName="transform" attributeType="XML"
          type="rotate"
          from="0 185.27085824356547 376.81965281525265"
          to="-360 185.27085824356547 376.81965281525265"
          dur="4.05s"
          repeatCount="indefinite"/>
        <path d="M272.71629501673556,365.3072426614441 L246.4826639847845,384.87833992291866 L266.75703301106097,410.5723315498536 L234.25249347314633,414.40458344225107 L238.96361628213464,446.7934174289396 L208.8977333577861,433.8599751524995 L196.78326839737403,464.2650895884227 L177.2121711358995,438.0314585564717 L151.51817950896455,458.3058275827481 L147.68592761656706,425.8012880448335 L115.29709362987853,430.5124108538218 L128.23053590631864,400.4465279294733 L97.82542147039541,388.3320629690612 L124.05905250234642,368.7609657075867 L103.78468347606997,343.0669740806518 L136.2892230139846,339.23472218825424 L131.5781002049963,306.84588820156574 L161.64398312934486,319.7793304780058 L173.7584480897569,289.3742160420826 L193.3295453512315,315.6078470740336 L219.02353697816642,295.3334780477572 L222.85578887056386,327.8380175856718 L255.24462285725238,323.12689477668346 L242.3111805808123,353.192777701032 Z" fill="#B87333" stroke="#222" stroke-width="3"/>
        
      </g>
    </g>
  
    <g>
      <g>
        <animateTransform attributeName="transform" attributeType="XML"
          type="rotate"
          from="0 270.1396691868012 76.55622118533108"
          to="360 270.1396691868012 76.55622118533108"
          dur="3.85s"
          repeatCount="indefinite"/>
        <path d="M382.5695164665913,61.75455098757723 L348.8405622826543,86.91739032375878 L374.90760817358114,119.95252241553226 L333.11605733911944,124.87970342004333 L339.1732152363901,166.52248997435714 L300.51708004794204,149.89377847607702 L284.9413393845551,188.9860684651212 L259.77850004837353,155.25711428118416 L226.74336795660003,181.32416017211102 L221.81618695208897,139.53260933764932 L180.1734003977751,145.58976723491998 L196.80211189605527,106.93363204647191 L157.70982190701108,91.35789138308493 L191.43877609094812,66.19505204690341 L165.37173020002126,33.159919955129965 L207.16328103448296,28.232738950618838 L201.10612313721225,-13.410047603694963 L239.7622583256604,3.2186638945851342 L255.33799898904735,-35.87362609445903 L280.5008383252289,-2.1446719105219785 L313.53597041700243,-28.211717801448827 L318.46315142151343,13.57983303301284 L360.10593797582726,7.5226751357421335 L343.47722647754716,46.17881032419028 Z" fill="#9DE09D" stroke="#222" stroke-width="3"/>
        
      </g>
    </g>
  
  <text x="50%" y="95%" text-anchor="middle" font-size="32" fill="#fff" opacity="0.7" font-family="Arial">Gears Collection #10</text>
</svg>